/* XPM */
static char *out[] = {
/* columns rows colors chars-per-pixel */
"32 64 175 2 ",
"   c #181008",
".  c #241A0F",
"X  c #2B1E0E",
"o  c #332412",
"O  c #3C2B16",
"+  c #422E15",
"@  c #463217",
"#  c #483114",
"$  c #45311B",
"%  c #4C361C",
"&  c #4C381E",
"*  c #533B1C",
"=  c #5A3B1C",
"-  c #563D21",
";  c #56411E",
":  c #5B401E",
">  c #63421B",
",  c #6A461A",
"<  c #6D4C1D",
"1  c #784E1E",
"2  c #574224",
"3  c #5D4123",
"4  c #634523",
"5  c #644825",
"6  c #6C4C26",
"7  c #624929",
"8  c #714D26",
"9  c #704E28",
"0  c #6B5022",
"q  c #765626",
"w  c #72512D",
"e  c #7C552B",
"r  c #7F5A2C",
"t  c #775633",
"y  c #775A33",
"u  c #7A5931",
"i  c #855823",
"p  c #8D5B23",
"a  c #865C2D",
"s  c #895E2F",
"d  c #965F23",
"f  c #985F23",
"g  c #855F35",
"h  c #835E38",
"j  c #82632A",
"k  c #8C6B2D",
"l  c #966025",
"z  c #986225",
"x  c #91622D",
"c  c #9A6429",
"v  c #826334",
"b  c #8F6230",
"n  c #836339",
"m  c #8C663A",
"M  c #916430",
"N  c #956A37",
"B  c #916A3A",
"V  c #9E6E38",
"C  c #967533",
"Z  c #9F723A",
"A  c #9F7E3A",
"S  c #A16B2E",
"D  c #A36E32",
"F  c #A67138",
"G  c #AA753A",
"H  c #A07C39",
"J  c #AC793D",
"K  c #866641",
"L  c #8D6C42",
"P  c #926F44",
"I  c #8F7646",
"U  c #8E7148",
"Y  c #937142",
"T  c #9C7242",
"R  c #9E7E45",
"E  c #95734B",
"W  c #9C774A",
"Q  c #94794B",
"!  c #9C7A4D",
"~  c #9D7C51",
"^  c #9B7F59",
"/  c #AA7742",
"(  c #A57842",
")  c #AD7C44",
"_  c #A57D4F",
"`  c #AA7D4B",
"'  c #B17D44",
"]  c #98825B",
"[  c #9E8A5D",
"{  c #A68542",
"}  c #AC8A47",
"|  c #AF834F",
" . c #A4884D",
".. c #AB8B4A",
"X. c #B5854D",
"o. c #A38154",
"O. c #AE8451",
"+. c #A98B57",
"@. c #A4845B",
"#. c #AB865E",
"$. c #A18B5F",
"%. c #AB895E",
"&. c #B18653",
"*. c #B58A55",
"=. c #B28C5C",
"-. c #BA8E5A",
";. c #BB905E",
":. c #9A8661",
">. c #9F8C60",
",. c #A08560",
"<. c #AC8760",
"1. c #A38E65",
"2. c #AC8A61",
"3. c #A18F6D",
"4. c #A29067",
"5. c #AE9264",
"6. c #A3926D",
"7. c #A9916B",
"8. c #B39266",
"9. c #BB9464",
"0. c #B3936A",
"q. c #BA9569",
"w. c #BD986A",
"e. c #A69673",
"r. c #AC9473",
"t. c #A79876",
"y. c #A89877",
"u. c #AA967A",
"i. c #A7987D",
"p. c #A99B7C",
"a. c #B39776",
"s. c #B79A73",
"d. c #BD9C73",
"f. c #B49C7C",
"g. c #BD9F78",
"h. c #BEA37F",
"j. c #C29E75",
"k. c #C7A67C",
"l. c #AC9E81",
"z. c #B29F84",
"x. c #ADA186",
"c. c #AFA48B",
"v. c #B7A180",
"b. c #BCA583",
"n. c #BFA886",
"m. c #B1A48C",
"M. c #BBA688",
"N. c #BFAA8C",
"B. c #B2A790",
"V. c #B4A994",
"C. c #B9AA94",
"Z. c #B6AD9A",
"A. c #B8AF9C",
"S. c #B7B09F",
"D. c #B8B09F",
"F. c #B6AFA1",
"G. c #BAB3A3",
"H. c #BAB3AA",
"J. c #BDB9AC",
"K. c #BFBCB1",
"L. c #C1A683",
"P. c #C0A886",
"I. c #C2AC8B",
"U. c #C1AE92",
"Y. c #C2B093",
"T. c #C4B896",
"R. c #C3B39A",
"E. c #C5B99D",
"W. c #C2B5A2",
"Q. c #C5BCA3",
"!. c #C4BEAA",
"~. c #C0BCB6",
"^. c #C2BFBB",
"/. c #C4C0B0",
"(. c #C4C2BF",
/* pixels */
"1.Q 3.Q 1.2.#.#.#.#.<.<.#.V h.n.Y.E.!./.!.E.Y.P.k.h.s.2.@.<.s.h.",
"Q H.^.H.Q V l d l d d d d o 8.s.k.I.R.Q.T.I.b.s.0.0.#.! P ~ <.8.",
"3.^.(.^.6.Z p = p c z c z o W _ =.q.j.k.j.q.=._ W W P h y h Y W ",
"i.(.(.(.i.` d O X X D F D O u g B T ` O.` T B g y u w 7 2 7 w u ",
"3.^.(.^.e.%.' ) T t * / ' @ 3 4 8 e s M s e 8 4 3 3 - & $ & - 3 ",
"Q H.^.H.Q w.*.*.O.*.m t &.* 3 5 9 e s M s e 6 4 3 3 - & $ & - 3 ",
"1.Q 3.Q 1.b.9.o n w.w.E @.4 u g B T ` O.` T B v e u t 7 2 3 t u ",
"$.Q :.! ,.n._ : +.h.=.^ d.0 W _ %.9.j.k.k.q.=._ W W L h t n L W ",
"E F.^.F.Y N.d.E ! k ! j.j.q 8.s.L.I.T.Q.E.I.h.s.8.8.%.~ P ~ #.8.",
"I F.~.F.I U.h.b.f.m.z.b.b.j b.L.U.E.!./.!.E.Y.n.k.b.s.<.o.<.s.L.",
"[ Q [ Q ,.C.L.L.L.L.L.L.L.k 8.s.k.I.E.Q.T.I.k.w.0.0.#.~ P ~ <.8.",
"4.Q 6.Q 4.R.N.P.P.P.I.P.P.C W _ =.9.j.L.j.w.=.o.W W Y n y n P ~ ",
"Q H.^.H.Q R.I.U.U.I.z.#.U.H u v B T ` &.` T B g t u w 7 3 7 w u ",
"6.^.(.^.3.W.U.U.%.> f.U.U.{ 3 4 6 e s M s e 6 4 3 3 - % $ & - - ",
"i.(.(.(.i.W.Y.# 8.C.R.R.Y...% * = > 8 8 8 > = - % % $ O O + $ % ",
"3.^.(.^.6.W...f.Z.Y.U.Y.Y...- 4 8 e s M s e 8 4 4 3 - % $ % - 3 ",
"Q H.^.H.Q R.S C.U.+., U.U.{ u g B T ` &.` T B v u u w 7 2 7 9 u ",
"1.Q e.Q 1.D.f.7.I.v. .u.U.H ! _ =.q.j.k.j.w.=._ W W Y h t n Y W ",
"$.Q :.Q $.R.I.o.o.b.2.m.I.C 8.s.b.I.T.Q.T.I.h.s.8.8.%.~ P ~ %.8.",
"E S.K.F.I I.L.L.u.l.l.L.L.k h.L.Y.E.!./.!.E.Y.L.h.b.s.<.^ <.s.L.",
"Q F.~.F.I C.k.h.h.b.h.h.b.j k.P.Y.E.!.!.!.E.Y.L.b.b.s.<.o.<.s.b.",
"$.Q :.Q $.N.d.d.d.h.h.d.g.q s.h.I.E.Q.!.Q.T.I.h.d.d.0.@.~ @.0.d.",
"1.Q 3.Q 1.n.d.d.j.w.d.w.d.6 8.s.k.I.T.Q.T.I.k.s.0.0.#._ P ~ <.8.",
"Q H.^.H.Q b.w.w.Y * 9.w.w.4 %.8.j.k.Y.E.Y.L.d.8.2.<.~ E K E o.<.",
"3.^.(.^.6.h.9.w * w 6 ;.9.; D.A.D.D.D.Z.A.A.A.A.A.A.A.A.A.A.A.A.",
"i.(.(.(.i.d.6 * [ -.N 5 &.% D.A.D.Z.Z.D.A.A.A.A.A.A.A.A.A.A.A.A.",
"3.^.(.^.e.2.. n X.X.b 0 B $ D.Z.A.A.D.A.A.A.A.A.A.A.A.A.A.A.A.A.",
"Q H.^.H.Q O.= 0 D G % K G + Z.D.A.A.A.A.A.A.A.A.A.A.A.A.A.A.A.A.",
"1.Q 6.Q 1.( c * + 1 i c D o Z.D.A.A.A.A.A.A.A.A.A.A.A.A.A.A.A.A.",
"$.Q :.Q 1.V l d 3 * d z l o D.Z.A.A.A.A.A.A.A.Z.A.A.A.A.A.A.A.A.",
"E F.~.F.I F l l z a w z z o Z.Z.A.Z.A.Z.A.A.A.A.A.Z.Z.A.A.A.A.A.",
"I F.~.F.I ( D D S S V S D o x.m.Q.J.J.J.!.H.H.J.G.B.A.A.A.A.A.A.",
"1.Q :.Q ,.&.J G J J J J J O p.p.G.G.G.D.D.Z.c.J.V.x.A.A.A.A.A.A.",
"1.Q 3.Q 4.q.) 8 ) X.X.X.X.$ p.x.G.D.D.Z.A.c.p.D.V.p.Z.A.A.A.A.A.",
"Q H.(.G.Q h.X.& O o ;.9.;.& p.B.J.J.G.D.Z.c.p.D.c.p.A.A.A.A.A.A.",
"3.^.(.~.3.h.9.9.%.U 0 ;.9.; e.B.!.K.G.D.V.x.t.D.B.p.V.A.A.A.A.A.",
"i.(.(.(.i.L.w.q.9.q.Q n 9.: 4.V.J.J.G.A.Z.p.p.D.c.p.Z.D.A.A.A.A.",
"3.^.(.^.3.b.9.O U w.w.^ 5.0 [ V.G.S.S.c.V.p.p.D.B.p.V.D.A.A.A.A.",
"Q H.^.H.Q I.#.< 8.h.8.$.h.q 4.x.Z.Z.x.p.V.p.p.D.c.p.B.A.A.A.A.A.",
"1.Q 3.Q 1.U.d.~ ] B ~ h.h.r x.e.p.p.p.c.V.p.p.D.c.t.c.A.A.A.A.A.",
"1.Q ^ Q 3.U.L.L.b.B.M.L.L.k m.x.p.p.c.c.c.p.p.D.c.t.c.D.D.A.A.A.",
"Q A.K.F.Q A.I.I.P.P.I.P.I.C c.c.c.c.c.c.c.e.x.A.B.4.p.D.A.A.A.A.",
"] K.(.K.^ R.U.I.U.U.N.N.I.A m.c.c.c.c.c.c.4.c.Z.V.>.p.A.A.A.A.A.",
"Q A.K.F.U W.U.U.Y.C.M.5.C.{ v.x.c.c.x.c.p.[ c.S.V.6.t.A.A.A.A.A.",
"3.Q ] Q 1.W.Y.Y.5., h.T.N...x.c.x.x.x.x.p.[ V.J.G.p.e.D.A.A.A.A.",
"1.Q >.Q 1.W.R.$ 8.D.C.Y.T...p.p.p.x.p.x.t.>.Z.J.J.p.e.D.A.A.A.A.",
"Q H.^.H.E R.{ r.C.Y.N.Y.C.} p.x.p.x.p.x.t.>.V.J.D.p.p.A.A.A.A.A.",
"3.^.(.^.e.R.c m.C. .> I.N.A p.p.p.p.p.p.t.[ c.Z.c.e.p.A.A.A.A.A.",
"i.(.(.(.i.R.a.1.L.f.R r.I.C u.p.p.p.p.p.y.$.6.p.e.t.p.D.A.A.A.A.",
"3.^.(.^.6.U.b.W _ f.,.z.L.k t.t.y.y.e.y.y.e.$.4.4.p.e.D.A.A.A.A.",
"Q H.^.H.Q N.h.h.r.u.i.g.h.j e.e.e.e.e.e.e.e.4.6.e.e.e.D.A.A.A.A.",
"1.Q 6.E 1.M.k.d.d.g.g.g.g.q 6.e.e.e.e.e.e.e.e.e.e.e.e.D.A.A.A.A.",
"1.Q :.Q 3.M.d.d.w.w.h.w.d.6 4.6.7.e.6.e.e.6.6.6.e.6.6.D.D.A.A.A.",
"Q F.K.F.Q b.w.q.w.w.w.w.w.4 4.6.6.6.6.6.6.e.6.6.6.6.7.A.A.A.A.A.",
"] K.(.K.^ h.9.9.B & *.9.9.; 4.4.4.6.7.4.4.4.4.6.4.4.4.D.A.A.A.A.",
"Q Z.K.F.Q g.-.6 & 0 4 -.;.& 1.4.4.4.4.4.4.4.1.3.4.4.4.D.A.A.A.A.",
"3.Q :.Q 1.d.5 * $.-.N 5 &.% Z.D.A.A.A.A.A.A.A.A.A.A.A.A.A.A.A.A.",
"1.Q 3.Q 1.q.. n X.X.x w Y @ D.Z.A.A.A.A.A.A.A.A.A.A.A.A.A.A.A.A.",
"Q H.K.H.Q 9.: q J ' % P ' O Z.D.A.A.A.A.A.A.A.A.A.A.A.A.A.A.A.A.",
"3.^.(.(.>.| G ; % i x G G O D.Z.A.A.A.A.A.A.A.A.A.A.A.A.A.A.A.A.",
"i.(.(.(.i.( c c 4 : c S S o Z.Z.A.A.A.A.A.A.A.A.A.A.A.A.A.A.A.A.",
"3.^.(.^.3.V z z z r w f d o Z.D.A.A.A.A.A.A.A.A.A.A.A.A.A.A.A.A.",
"Q H.^.H.Q F z z z z z z f o D.D.A.A.A.A.A.A.A.A.A.A.A.A.A.A.A.A.",
"1.Q 3.Q $.=                 A.A.A.A.A.A.A.A.A.A.A.A.A.A.A.A.A.A."
};
