/* XPM */
static char *out[] = {
/* columns rows colors chars-per-pixel */
"64 64 23 1 ",
"  c #4F1F24",
". c #501F25",
"X c #4F2226",
"o c #4F2528",
"O c #532226",
"+ c #552529",
"@ c #5A262B",
"# c #56292C",
"$ c #592B2E",
"% c #5D2E31",
"& c #5F3034",
"* c #602F32",
"= c #643235",
"- c #683637",
"; c #663639",
": c #683739",
"> c #67383C",
", c #6A3A3D",
"< c #6D3E41",
"1 c #6F4043",
"2 c #724346",
"3 c #744649",
"4 c #75494B",
/* pixels */
",>++;,%++@@@@@@@@@@+=1123111=+@@@O>132222<:#+@@@@@@@@@@@@$%$OO3=",
"=O$21,<>O@@@@@@@@@@=3:&$#+o#*:O@@<1=%#####&-@@@@@@@@@@@:422,:$*%",
"<+O%&==;=+@@@@%@@@@2&+oXOO++.,$O@1$+++XXOOO@=O@@++@@@@+,>=%#+.<%",
"2:OOO$$$+++O@@@@@+2,$XO+OO++O,% ,=# ,<>+@@+O>+@+=41=+@+,=$+X.,<$",
">-%O+OXXO@+22>.@+%2%+O@@43>@O==$1$X$1:>=+@@+,%OO2>=>$@O*+OOO12=$",
",=$O@OOOO@O,-:,@X2>$O@O2,*%$O%=$== @=&==O@@+&%X,2=-%#+@O+.O#<==%",
",%+OO<1<2% =%&=,:1=#O@O>=$X+ 1$ +=$ ++=#+@@@$>@2=$#oOO+2>1=+,==$",
"-+OO42%O$:%XO++%=-&++@@+%=  ,%X+O#==XO=#O@@+*<=&#OoO@@=$X#:%X%&$",
"$XO=,=*.@#O++@OO%=%O++OOO%&-$O@@@OO&>>=OO+@O:,$oO+@@@@O#O$,%OO&$",
"@@@@-==$OO+@@@@@O==+O<4=OOOOO++@@@@OOOX$22=X,-#O@@@@@@+O.3,%O+O#",
"@@@O==->,$+@@@@@+-->21%#O@@@+@,,=@O@@+O<>=>1<*OO@@OO@@@=2<=%O@@+",
"@@@@O====,2=+O@@+=-==$#X@@@@$2,:,1=O@@+=$=====+@@+344222,==$O@@@",
"@@@@++%===-:11$+O,>*#oO@@@@+,$+$==%O@@@+OO$===++O2,=======$@+@@@",
"@@@@@@O$*====->@X1%#XO@@@@O2> OX==&O@@@@@@O+$=#O$1-====%%$+.@@@@",
"@@@@@@@OO#$===->,-+.O@+@@@$,::,O,==O@@@@@@@+O=$O,,=*##oOXO+@@@@@",
"@%@@@@@@@O+#$===&$O@@@=@@@+=&%@-1-=O+@@@@@@@+@=o3=%+XO+O+@@%@@@@",
"@@@@*@@@++O+O$==$o@@@@@<$@@O#+=,>==$+@@@+++@@O=-<$oOO++@@@@@@@@@",
"@@@@@@+=>2,@+@=&#O@@@@O:&O@@O$,,===$O@@O43=@@@+*=$O+=2>$O@@@@@@@",
"@@@@@@*3,,>%+O>$X@@@@@@2=+@@+2,=-==$O@O1>$@@+@+@==OO2,>,2@@@@@@@",
"@@@@@@*,*=$#+O-+O@@@@O<<==O+$,====$O+O,2%O.@@@@+==$ ==-==$+@@@@%",
"@@@@.@=:$O#OO=*.@@@@@+,:=:,@O===-=@XO41>$O@@@%@@+==OO&==$#O@@@@@",
"@@O=,@@*=#X *-+@@@@@@+:===--++&==$#O4,==$+@@@@@@O$==XO%oOX@,:O@@",
"@@42<,@O==22-#@@@@@@@++&==-== ==&O >,--$O+@@@@@@@O==%=OOO=2+@:+@",
"O2====$Oo$&$OO@@@@@@@=OO$$*-=$O-#OO2=$#oOO@@@@@@@@O+XO+@#,,$O**O",
"%,#X&$#+@OOo@@@@@@@@@><$+++$=*O-$X$:$#X $4%+@@@@@@@@@@@@+$#OO@=+",
",=XOOOO#@@@+@@@@@@@@+$>,2>@O$=$=$X==O#,22:#O@@@@@@@@@@@@@O+O+$,+",
",:++@+@@@@@@@@@@@@@,O+=-=:,,$$$-=O$@*2,>=$OO=@@@@@@@@@@@@@@@O;,$",
",==$O+@@@@@@@@@@@@@<O+=====::OO::$O$,,==$oOO1+@@@@@@@@@@@@@O&2=$",
"@==,1=O@@@@@@@@@@@$<$+O###@$=&O<==X1=#+ooXO;:@@@@@*@@@@%@#,22=$o",
"@$$==><@@@@@@@@@@@@,=OOOXX++o#$,=%+%XO XX$22*@@@@@@@@@@@+41=$##O",
"2$O+$===@@@@@@%@@@@,-=&=>22>+OX=%%OO.#&131,&@O@@@@@@@@@+::##oX+=",
"<>= O#%&#+@@@@@@@@+%#$=,,>-:,- =%@=3241=&##+X@@@@@@@@@@+,% OO&2=",
",;:%OO#%@@@@@@@@@@@OOX+%====-:,%%=<>===%$o OO@@@@@@@@@@@,#O@;2,$",
",=&$+O:-.@@@@@@@@@@O+%=,>===%$=-=;===--=@$=$O@@@@@@@@@@.<$O+<:=$",
",=$+O$2,*.@@@@@@@@,332<,--=$+ @=$+%===*-><112%O@@*@@@O@=2=.O===$",
",%$X@3,=:-@@@@@@@#<>=====%#OO+.*$X+%*-====&=-:%.@@@@O<,,--:+ %*$",
"=# =2,=$@=++@@@@@#<%$$$$#+XO@@+==OO+@%=%$+o+%=%+@@@@**.O==-,= %$",
";X<2:&$o.O$@@@@*@@-#X XoOO@O+.@2:$OOOO+XO.XO@*$O@@@@@@@.%===;:O$",
"2,1==$XO@@+@@@@@@%%.O=-.@@O3333,-:2,%+OOO=,OX=++@@@@@@@@O=====,=",
":===$XO@@@@@@@@@@@> O1,*O@$,--=--==>,>$+*2,$#%O@@@@@@@@@@$====%+",
"O%$#oOO@@O@@@@@@@O*=%%%#+@+=*===*-=*$+O+#%$$$O@@@@@@@+@+OO+$$$#X",
"@+$OX%;=:>=$OO@@@@OO%$+O@@@+@===-**%OO+@@OXOO@@@@@@O%=>;==O XoO+",
"@@O=,=%$$%$*<$@@@@@@OO+@@@@O>,-====%O@@@@@@@@@@@@@%>=%$$$%:1O+@@",
"@@$,% OOOOOOO:O@@@@@@@@@@@@%,:==-==@O@@@@@OO@@@@@@;XOO+OO+X==O@@",
"@O2%OOOOO@@@+==O@@@+%O@@@@@+$&==*-%oO@@@@O33%@@@O<$O@@+++OO@:%+@",
"@@,$X%442+@@@+>@O@$43:O@@@@@OO%=*%#O@@@@@,<::OO@@=.@@@=442@.-%O@",
"@$,+.,:===+@@+<=.@3,=%O@@$++@+O=@+OO@OO@O,-*::@O=*O@@O1:=$$O%%+@",
"@O-=.+$*=$+@@O,=%3<=%$OO,,,>O@+O#O++<32#OO%%*-:$,$O@@+-=#O+ <$O@",
"@@O*=. =$OO@@O,:*$+#ooO@:+ ,=+@@O@O<*$->$OO++$=:>+@@@@O%* X>$O@@",
"@@@O+=>*oO@@@@,=#.OOO+@@@+ 2%+@@@O== O>=%+@@OO+**#O@@@@O%*=++@@@",
"@@OO+OOO+@@@@$2$OO@@@@@O $2<$O@@@O<+O@%$+O@@@@O#=*.OO@@@OOO@@@@@",
"O%2;O++@@@+OO2>$O@@@O$;232,=@+@%@=2%OO+OO@@@@@@O,:<3;+@@@@@@@@@@",
"<=+=<@+@@$4222-@O@+:421,==%#oO@@O*:-+O@@@@@++O@O<==-><=O@@@@@@@@",
"*..$,=+@@@>-===$O+=2>===&$+O+@@@@O*=-XOOO@%>4=O@<-====>=O@@@@+%>",
"$O%2,$#@@O=&%&=%OO2>-=$@#XO@@@@@@@+==<>2333<;% %<=%$%==%+@@@O:2=",
"=O@;$+O+@@O=o+%=O*2=$#oOOO@@@@@@@@O+###+##%===$>*@X .%%$O@@O32-#",
"2#O+OO@O%@O*$OO==,,$oOO@@@@@@@@@@@@@+.+.OOO$*-:=#.O@++%X+@O2<-=$",
",=+O+@@O2=OX>+OO===#O++O@@@@@@@@@@@@@@++O@OO%*%+.@@@O;O+@+,1;==$",
",:=O@@@=<>-:2*OO#=&O+@423@@@@@@@@@@@@@233=OOO*$.@@@O:%O+@+,-===$",
",-=$@@@@==>,>$O@+$&+O,>--*@@@@@@@@%@.<<-=%%O%*O@@@O,, 1%@O=====$",
",-=$+@@O$$$$$#O@@O== O%=-%+@@@@@%@@@@,-*$oOO>%O@@@@<=,1%+@O====$",
",-=$O@@@OOoOOO+@@@@== X,*+O@@@*@@@@@+@**+ X;=O@@@@O#$%$oO@@+===$",
",=$+@@@@@@@@@@@@@@O$=,1=+ @@@@@@@@@@@O+@=1<*O@@@@@@@O+OO@@@O$&=$",
"$#oO@@@$@@@@@@@@@@@OX#OoO@@@@@@@@@@@@@@+o++OO@@@@@@@@+@@@@@@O$o+"
};
