/* XPM */
static char *out[] = {
/* columns rows colors chars-per-pixel */
"64 64 59 1 ",
"  c #4C5C16",
". c #4C5D1C",
"X c #535D16",
"o c #585E17",
"O c #535E1B",
"+ c #5A5F1A",
"@ c #57660E",
"# c #476617",
"$ c #4D6216",
"% c #466816",
"& c #4B6815",
"* c #45621F",
"= c #4C611C",
"- c #4B6B1E",
"; c #536316",
": c #5C6415",
"> c #546816",
", c #5C6B16",
"< c #53611C",
"1 c #5A631C",
"2 c #556C1C",
"3 c #5C6B1B",
"4 c #4F711E",
"5 c #52731C",
"6 c #5C721C",
"7 c #606617",
"8 c #64661C",
"9 c #636A1C",
"0 c #6A6E1D",
"q c #62731A",
"w c #465E25",
"e c #4D5E22",
"r c #525E21",
"t c #446322",
"y c #4D6121",
"u c #4A6826",
"i c #4D6629",
"p c #4A6B2A",
"a c #536322",
"s c #5A6422",
"d c #576824",
"f c #5C6A22",
"g c #51672A",
"h c #536D2A",
"j c #5B6D2B",
"k c #5E7123",
"l c #54712D",
"z c #5B702C",
"x c #4C6F31",
"c c #546D31",
"v c #5A6E31",
"b c #4D7132",
"n c #537132",
"m c #5C7034",
"M c #626720",
"N c #636E22",
"B c #617323",
"V c #697022",
"C c #607033",
/* pixels */
"O...OrrsrOrrre=ae*****t*=aO<<.************t=<..arrar.Orsdaddsdrr",
"d<XOarr<rsarOassda****yOs+aO<.**********==OO=<<=rrrr...eaadMdMss",
"dOXXOaa<<aOO.adsssyy*a+sOss;$<*.****---*.<<<ad;rrrrr.  raadsssjs",
"dXXXara;:<ar. =<ssdd1ssasat.OO++*t*-554-<d<<<<a.O  O  OrassjjjMs",
"<XXX.*Or;>O<....<ddss1d1y***.OOO*-455555;d<<w.         sssjsssMd",
"yXXX**t*;><.....<d1daa=****y;O+O>66555552***  ww      O8sMsfsjss",
"=XXX$***e$$..ee a<adat*t****OO<;2qq55555%*w...     O.X rM3ssssj1",
".OX  a**$$$$<<ey.<day.*****.a+11<6655554**w w.w.O+OOrrsr++OOO1da",
" #   .=**.$$=<e..yaaayt***aeaO1O<36555--**.. .w ;31asrrroO..   .",
"     Oy*y<<=<e.=yOyayy=<=*.aeO+1<<254-***...w  w<90rrrrrXo.     ",
"     a**e=ry<e*.*;asay=;;<<raeO+<<y-****t.*..w..O00OrrreyO.     ",
" ##  at;$e=r*==.dfsad<>;:1O<r<a<<<******t***.*..O00arrrr*yo     ",
"  $  <OoOO=yy*.*3BNaaa;<;o1OryrO==********t.*...=001rrrr.e.     ",
" <a $1111aaya**O:9BNaa*;<;<:<raO*t****t  *...t*tt3N+OO.OO...    ",
"a..thjfCjjaayOo;<9B3<t***;;;<<r<*****..O ..O..w*ty.O.rOOr.e..  .",
"eOetpjCjjja.a;oOoO362t**ty;;***=****$.O  .    ...$.rOrOOOO .****",
"O.yybnzlhj1<y<OOoO;322*******yuaiyy.O O X  XOXoOOX$rOrOOOOXXOO..",
"Oe=*plllhjOdyya;o;X3fa*.**e*yeyadas;OO ...OOoOoXoOa.igeOOXXXXXXO",
".=$$hllllj<dayy;O;<Oaya..tyreysdddddO.O$$;OOXOOoOoOsgiiOXXXXXXX;",
".$$=hllllngaaay< .=aaayar.=yyaasadds<.  ;.OOXoXXooOagiisXXXOXoOe",
"..$$hlphhcgdaa.$.$=yyaaaaaeyaeysdddddO $$$XXOoooOO+dgisrOOXXooO*",
"a=$$#$$$$=aay$ ...O<tyriyreeeyee=ddada$$$$ o+OOO+O1gggssarOOOXO*",
"y$.$$$$$$.r...=. $a<<O.aaaOOaeyt**+<;>#%%*$OrOrrrssgggsssreOeOO.",
"y**$$$$<<.a<.;;>yaO+Oa;=aO;;+<$y*es;>>$.t**t.rOr;argggrrrrrrrrO<",
"a*$$$ =<earr=>6k6qqq9d;=;;O1ss1+rrr++1=y****<O.=O;sgiy<<rrree=.y",
"ayttt=ar<rra<,qq6qqq6f<<<;<1ssrre.rOrr*t*****.;=$$Oaa;XOerrOy**t",
"ary==rrOs<rr;9qqqqqqqsa;$;+1ewwererrrO******$$=$=$<$;X.=ee.ty===",
"1s<1a<rsrsa.;,qqqqqqBsaayt<aeeewe...O******$$=;.$.$$O$tyOe*.y<a1",
"111<aOr11r  ;,,6qqqqBdaaataeeuwewwe ..ytt***=$$;<;=;.**...O..a11",
"s<s<aas1s<    .Oa1fNkjdd*weuewewywww.arayy**23322,3;t...yOary<1a",
"<<a<<Oaay*  . Xrsrsrdddddaayeweeeeee rr<+rOaf9qq66k2*....<.;<<<a",
"t.**t*yy***. $.arrrrddddddaayeeiuwe..OararrdM333626-*et**=<<O***",
"*********t*..O..rrrr..ssddjssdgeee.yyaarrsr+reysytt*****<aO<O=**",
"***t***t$<<=rrOrrrrr....rrsMdssdgOXjvvvsOsrr.asssy*****as1aO<.*t",
"*******=.a<<Oa rrrer  OerdsddMfsaOojmvjrrr<r.<dsssatyas1rsO;<.*$",
"*******t<<a<<<.w.O..  OsrsjMddsjdoOjmvjrOsrr. .<ssda+srs1ay*O+O+",
"*t*****=<>>>.w .....  .rdsdMssjsaX+jbmcrarO....=1ddMMsd<t***$OOO",
"===***%%>&%# .......   rMdMdsjssyO+jbbitOra.... ;ddVNa=*****Oa<<",
"<<<**%%%%%=# .  .....O.1sssssssr=Osjnbp*.....ee.ad<VN******.<<1<",
"<<<*t%%##** w w .... Oss+o+rO<s.s1jCmmt*e....a.ayasN9t*****arOa<",
"<<<t****** .w .w. r .rrro;..    rr8rrs.*..e..a.agadNNt*t**eaO<<<",
"r<=*****t.* w..  rXr.rrroO..    ssrMsa**y=e<ea=yasNVfy=<$*a.a<<O",
"<<y******...   w.r++XrreyO .    MrMrs<*y.y<y==.=aaNNay;;<;sjja<a",
"<<******ttt.w*..rX+++rrrO<1o    rMrMsa*.=a.ay.=.ysBBa<<>jzzvjaO1",
"=$*********t*w ..++XrrrX+18::o OMrsrs+<<ay<yy**.aaaaaa;<jzzzcyrr",
"t**t****.w$. .www.rrXrXrr383:o:1rMs<sr<r.aaer**$aagaayt;jzzzjjea",
"y****. .  XO .w.w.rrrXrr18838::Orr.w<Oaya.a==<<o;ayyty**hzjzhj<O",
"****  .XO O1+o...  Xrrr+M983123*rOe.*O=ayayaaye<O;=t****ublzxx*=",
"ay*.  OO O7888++rO.eOOO+M98988<*Oe.tt=Oy<e<yayyyooX*t*tttbbbbxya",
"sdd<OO .;,78888+sasOrOO1893333<yeO*tt=$ayaya=yaaX<O;iy..txxcccys",
"ddsaO..:79888M8MssssrsrO778331<yOe*tt$==a.ayayay<.;aaya=$ppyyygs",
"aaddaO;1,788MMMM+dadasaOOO+r3<y.O. tt$$;ayyyrayyO ayyayy;$>$=yds",
"ddsgd; ;:8880MMrrasdsasaOrrr.e.yee$tt $$$ayardrry<<=aaaa=>>&=&;d",
"yasssa..:788M8Orrsa<<ssOrrrr.oOty$$tt$.ee.rrrrrga<<;tyy<>>>$>=-y",
"tyd1aO..*=<9+rrrr<X;<<arrrrerrO.y*$tt.Oeeerrrr=r<+Oo<a;;>>@>&>=*",
"=*<1asa***<Orrr.$O;o;OOererrrreOy$.t*.e.rrdrarO:OO1OO<;>;>@>:@$=",
"eOr++s******=rO$;=O;X$;Oreree<..ay$$*$e.rrrrrr+Oo<+O+r;=;X:::31O",
"eerrr<***t***$<$.;;X;XXOrrr=y*ttayty*=raardrrOOOO+O+<aa;=;+1:1<r",
".rrrsO******$=$.$=.;XO$*er=y**=yyaa=.a<ss+raOOO++OO<sa<<$;O1Orre",
"r...O******$=$=$=$<$$$te.ye.=<1aa<<<ar+ssaO  OoO+;+Oasaayt<1OOO.",
".e...yy*****=$=;$$<$ *t..eO..<11a+1a<1rss<. . .OO+Oadasd<*<;OOOO",
"X....era=y**=$$.*$$.te..=<O<e<a11s1<sas1a. X X OrO+adddat*O<OOOO",
"OO...rOsrr<re.=$$****..e.<<=$a<<<a<<<yr1y*$. XOrrrrrdddddda<OOXO",
".O...OrrOsrrre=y*****w.*t=<OOty*****t*yr***$  rrsrrradddddaarOOO"
};
