/* XPM */
static char *out[] = {
/* columns rows colors chars-per-pixel */
"32 32 66 1 ",
"  c #171715",
". c #181715",
"X c #181816",
"o c #1F1E1C",
"O c #201F1D",
"+ c #22211E",
"@ c #242320",
"# c #242321",
"$ c #272623",
"% c #2A2825",
"& c #2B2926",
"* c #302F2C",
"= c #343330",
"- c #353431",
"; c #353432",
": c #3A3835",
"> c #42413E",
", c #454341",
"< c #474642",
"1 c #5E5D5B",
"2 c #5F5E5C",
"3 c #605F5C",
"4 c #7E7D7A",
"5 c #82807B",
"6 c #81807D",
"7 c #878580",
"8 c #858483",
"9 c #878783",
"0 c #888683",
"q c #888785",
"w c #898885",
"e c #898886",
"r c #8C8984",
"t c #8B8A88",
"y c #8D8C89",
"u c #918F8A",
"i c #91908E",
"p c #91918E",
"a c #91918F",
"s c #94928D",
"d c #96948F",
"f c #989691",
"g c #9B9994",
"h c #9E9D99",
"j c #A3A29F",
"k c #A4A29D",
"l c #A5A39F",
"z c #A7A6A3",
"x c #A9A7A3",
"c c #AAA8A4",
"v c #ABAAA6",
"b c #ACAAA6",
"n c #ADABA7",
"m c #ADACA7",
"M c #ADACA8",
"N c #AEADA8",
"B c #AFADA9",
"V c #AFAEA9",
"C c #B1AFAC",
"Z c #B1B0AD",
"A c #B2B0AE",
"S c #B3B2AF",
"D c #B4B3B0",
"F c #B4B3B1",
"G c #B5B4B2",
"H c #B6B5B3",
/* pixels */
"%%%%%%%%%@otHGGGGGGFi,:&%%%%%%%%",
"%%%%%%%%+.8DVbbbbbbmN0@$%%%%%%%%",
"%%%%%%%+X8DVbbbbbbbbmN0@$%%%%%%%",
"%%%%%%+X8DVbbbbbbbbbbmN0@$%%%%%%",
"%%%%%+X8DVbbbbbbbbbbbbmN0@$%%%%%",
"%%%%+X8DVbbbbbbbbbbbbbbmN0@$%%%%",
"%%%+X8DVbbbbbbbbbbbbbbbbmN0@$%%%",
"%%+X8DVbbbbbbbbbbbbbbbbbbmN0@$%%",
"%+X8DVbbbbbbbbbbbbbbbbbbbbmN0@$%",
"OX8DVbbbbbbbbbbbbbbbbbbbbbbmN0#O",
" 8DVbbbbbbbbbbbbbbbbbbbbbbbbmN9 ",
"zSVbbbbbbbbbbbbbbbbbbbbbbbbbbmBh",
"AMbbbbbbbbbbbbbbbbbbbbbbbbbbbbng",
"Zbbbbbbbbbbbbbbbbbbbbbbbbbbbbbbf",
"Zbbbbbbbbbbbbbbbbbbbbbbbbbbbbbbf",
"Zbbbbbbbbbbbbbbbbbbbbbbbbbbbbbbf",
"Zbbbbbbbbbbbbbbbbbbbbbbbbbbbbbbf",
"Zbbbbbbbbbbbbbbbbbbbbbbbbbbbbbbf",
"Zbbbbbbbbbbbbbbbbbbbbbbbbbbbbbbf",
"Cvbbbbbbbbbbbbbbbbbbbbbbbbbbbbxd",
"jkcbbbbbbbbbbbbbbbbbbbbbbbbbblsy",
"3elcbbbbbbbbbbbbbbbbbbbbbbbblua3",
"<=qlcbbbbbbbbbbbbbbbbbbbbbblup1<",
"&*-qlcbbbbbbbbbbbbbbbbbbbblup2>&",
"%%*-qlcbbbbbbbbbbbbbbbbbblup2>&%",
"%%%*-qlcbbbbbbbbbbbbbbbblup2>&%%",
"%%%%*-qlcbbbbbbbbbbbbbblup2>&%%%",
"%%%%%*-qlcbbbbbbbbbbbblup2>&%%%%",
"%%%%%%*-qlcbbbbbbbbbblup2>&%%%%%",
"%%%%%%%*-qlcbbbbbbbblup2>&%%%%%%",
"%%%%%%%%*;wlcbbbbbblua2>&%%%%%%%",
"%%%%%%%%%@o4r77777756,:&%%%%%%%%"
};
