/* XPM */
static char *out[] = {
/* columns rows colors chars-per-pixel */
"128 64 66 1 ",
"  c #141312",
". c #181716",
"X c #191817",
"o c #1C1B1A",
"O c #21201F",
"+ c #252422",
"@ c #282725",
"# c #2A2827",
"$ c #2C2B2A",
"% c #312F2E",
"& c #32312F",
"* c #353332",
"= c #393735",
"- c #3B3836",
"; c #3E3C3A",
": c #413E3C",
"> c #43413E",
", c #464341",
"< c #494643",
"1 c #4B4946",
"2 c #4E4B49",
"3 c #514E4B",
"4 c #54514E",
"5 c #555351",
"6 c #595552",
"7 c #5C5956",
"8 c #5E5C59",
"9 c #615E5B",
"0 c #65615E",
"q c #69655F",
"w c #666461",
"e c #696663",
"r c #6C6966",
"t c #6E6B69",
"y c #726E6B",
"u c #75726E",
"i c #78746F",
"p c #767471",
"a c #797672",
"s c #7D7976",
"d c #7F7C79",
"f c #817E7B",
"g c #84817E",
"h c #868381",
"j c #898683",
"k c #8C8986",
"l c #8D8B89",
"z c #918E8B",
"x c #94918E",
"c c #969391",
"v c #999694",
"b c #9B9996",
"n c #9E9B9A",
"m c #A19E9C",
"M c #A3A19E",
"N c #A5A4A2",
"B c #A9A6A4",
"V c #ABA9A7",
"C c #AEACAA",
"Z c #B1AFAC",
"A c #B3B1AF",
"S c #B5B4B2",
"D c #B8B6B4",
"F c #BAB8B7",
"G c #BCBBBA",
"H c #C0BFBE",
/* pixels */
"DDDDDDDDFZZZZZZZZZZZZZZZZZZZZZZVNchdw8882;;;;:::::-<139yfkcbBBZZZAZAZZZZZZZZZZZZZZxxxxxxHFzvVZAAAAZZAZAACCSAAAAAAAAASSSSSCSSSSCS",
"DDDDDDDDFZZZZZZZZZZZZZZDZDZZZBmgdt82,;,;,18wtttteffe963<3effkbMBZZAADZZZZZZZZZZZZZxxxxxxHFzvZAAAAAZB0=%:#o=bAAAAASAACGGGGSCCCSCS",
"DDDDDSDDDZZZZZZZZZDZZZZZZZBbggiq8,=;18wtadhhlkkhhzzkgdsfe636fffkMBZZZZZZDZDZZZZZZZxxxxxxGFfmVZAAAAB#+fvBnp8;9CAAAAAASHGGGSCNCSSS",
"DDDDDDDDDZZZZZZZZZZZZZZZZmgfq6<-;,5thcNSSCnhklzlkkMFDCzgfffe3<6ffxMBZDZZZZZZZZZZZZxxxxxxHFzbZAAAAAf%fBZZACbh82NSSAAASGGGSCNlNCSC",
"DDDDDDDDDZZZZZZZZDZZZZZmgfq<>->38pnNGGSnhw9pkCGBgkkkBADDSvkhff059ffzmBZZDZZZZZZZZZxxxxxxFFkbVZAAAZf,gVZzlACblp8CAASCSSSSCNlpcCSC",
"DDDDDDDDDZZZAAZAZZZZZVbgq<--<qigCSHGSnt518ylGHGGDhkhfdMDFFFSvhgsf6<fkbBZZZZDZZDZZZxxxxxxHFkbZZAZAZd3fj3%8bSAhhdhAAAACCSCNhw2hBSS",
"DADDDDADDZZZZZZZZDZZMgf6>-<qfbZFGGGScp;8plAHGGFFFGDnhsfMDFFFDSZxfff<ffvBZZZZDZZZZZxxxxxxHFzvVZDDAAg6jgfhmCAApdbbCAASCMnch8;$lNCS",
"DDDDDDDDDZZZZZZAZZZmgq3--3qgZFHFGSSch,5cSGGGFAASFFGDCzgfZSDDDDFDMfff96fmBZZZZZZZZZxxxxxxFFzbVZZZAAbfmBCZSAAA%pBCSASCScdp5$$*nNCS",
"DDDDDDDSDZZZZZZZZBmfq<&<6fVFFFFFSSNht1hSGGGGNcnCDDFFGZkhBASDDSDDDDBjffqgmBZZZZZZZZxxxxxxHFkvZAAAAAABCSDDAAAa*cAACSSSSNt5*$$tnCCS",
"DDDDDDDDDAZZZZZZZbf6-&3qzZDDFDDDSScp;wGGGGSCl5wCDFFFDSCadSSDSSSDDDDZffffxBBZZZZZDZxxxxxxGFzvZAAAAAAAAAAAAACotCSSSSCCCSNd1*wvNSCS",
"DDDDDDDDDZZZZZHZbf6-&3xVDDZMMMBZCNcw5dHGGSSNl5wGFDFDDZn9hCDSZCBmmmxvxfigfzmZZZDZZZxxxxxxGFzvBZAAAAAAAAAAAA=2NSSACSSSSSCCnnnNCSSS",
"DDDDDDDDDZZZZZVVfq-&6fvvvzgfffggnch8wlGGSGGNc5hGFFFFDBc7gnABckgdiiffffffffmBZZZZZZxxxxxxHGkvZZAAAAAAAAAAN%;nSAAACSCSSCSCCCCCCCSC",
"DDDDDDDDDZZAZZVgq<&3ffffq633<3qqdhhwpcGGGGSNn8lGGFFDSBx6hmBkf0t6666336qijizBZZZZDZxxxxxxFFzvBAAAAAZSZAAc.;vAAAAASSSCSCSSSSCCSSSS",
"DADDDDDDDZZAAZmgq&<ibmxgxMgfffffwtdhplSGGSSNc8lGGFFFSBx6hCc059etfizmmxBZffiMZZZZZZxxxxxxHFkvZAAAAASAZSz ,bAAAAAASCSSCSHHGGSVCCSC",
"DDDDDADDDZAZAVxq:<ffxFFHFFFHHFvghhdldlGGGGSNlwlHFDDFZmk9kBatdvBSFHDDDDZBqigfBZZZZZxxxxxxFHzvBZAZSAAAAn ;cAAAAAAACSCSSGGGGSCnnCCS",
"DDDDDDDDDZAAZBgq&6ZffZFFFFFFDFFFNncllcCGSCNclwlSZZZSZxa0zxkmBHGGFFFDDZmi<fgibZZZZZxxxxxxHFkvZAAZAAAABO%hCSAAAASASSCSCSGGSCcthNCS",
"DDDDDDDZDDZZZxf<-iZxffZDDDZMmVDDGGCnccnGCNlhwpcncnNCNl8plNCHHHGCZZDDZbf>6BfffmZZZDxxxxxxFFzvVZZDCSSS;OpNSSSSSCSSSSCSCSCCNp5*tNSS",
"DDDDDDDDDZZZZjf@3fZZ6fBZDZVf6fmZGGGSNccSnhwwthnnlhhclh8hCHHGSNlpvZZDZjq>qZBffxZZZZxxxxxxHFzbZZDZSSCho8NSCSCCSSCSCSCSSNnh8*$$hNCC",
"DDDDDDDDDZZZBzf@qZDZ3fxDDDZv3ffMNSGGSlncnptdhNNNnllclttnHHGCchp2ffZZkf<6fDZfffBZDZxxxxxxHFfbBZZZSCN.;cCSSCSSCSSCSCSSCVd8=$$8bNSS",
"DDDDDDDDDZZZMff-fFDZfffZZDDZMfffcnNCNnlnldhcNHHGnnncldlSHSNldw5wbZDZff-fBFZB3fZZZZxxxxxxHFxbBDDZSS$$pNSSSSCSCSSCSSSCSSnt,;wbNCCS",
"DDDDDDDDDZDZxf<>fZDZBqfbZZZDDbzxhhcnccdnnnnnNGCNhcnNnccSSnht5whSHFZxf36fFFDB>fbZDZxxxxxxGGzbZDDZCho5vCSSSVclNSSSCSAASCCNnbnNCCSC",
"DDDZDDDDDZZZff%6ZDDDZffxmBZZDDDMcchllwlCGGNnnNlhdcCGGCnnNhwwplGHFZbfq>fbGDDBx0fBZZxxxxxxGGfmBZZZSO;dNCSCpO o+tCSCSSCASSCCCCCSSSS",
"DDDDDDDDDZZBff#fDFDDZDfffvvmZZDFScnllpnGGSScNNcnnnHGSCccnpthNGGGBzfq<qjZFDDBb3fxZDxxxxxxHFzvZZZDn+8cVCSho=wdp8pSSCSSACSSFSCCCSCS",
"DDDDDDDDDZZmf6-fFDDDDDZMffffxbZZSSNccnNCNnlhSHGGCnNCncdnnhcGHGBcff6<fBDFDDDZm60fDZxxxxxxHHfvBZZDN;dnNVSpwcCSNlhnASAASAGHGFSCCCSA",
"DDDDDDZDDZZbf-<mHHZHZHZHZxffffmmcchcnNnnclhcHHHGGcnnhdhnnnNGCnlw33qfDFFDDDDZMz9fDDxxxxxxFFzbBZDZS8hnNNSCnSSSSlnNCSSSCGHGGSCNnCSC",
"DDDDDDDDDDZxf-fZZZHZVBvfbbvggffflpdnCNNNNNNGHGHHHGNNNnnNCNnnnw8wfffBDDDZDDDZMz3fDZxxxxxxHFkbZZZZSNlnNvNCSCSClhCCSSCCSGGGSSNchNCS",
"DDDDDDDDDZZmf-fZHVZBvfff3ffMBBmmlhlHGGCnHHHHGHGGGGHHHnSHHSlcccnnvvmxffbmBZDZmf&fDZxxxxxxHFkbBZDZSSnnNvpNSSSt5NSSSCSSSGSSSNct8nCS",
"DDDDDDDDDZBg6-fVHVmfff93fMDFGGGDScnCNCNnHHHHGGGHGHGGGlNCNchnGHHHGHDvfffzmMZBbf-0BDxxxxxxFFkbZZZDSSSnmml7dN5,nSCSSSCSCSSSNct1,nNS",
"DDDDDDDDZZBf6<fZMfff3<6MZHHHFFFFCcNnlhhSHHGGGGHGHGGGSNcclhnNGGGHFGGGZzfffxzxkf-fmDxxxxxxHFkvZZZZSSSCNNNvp8tNSSSCSSCSCCCNcw;$1nCC",
"DDDDDDDDHZVxf6fmfff3:fVHHHBMBBBmclccnnGHHGHGGHGGGGGSCNNcccnCGSCNBZZZFFmffffffq-fMDxxxxxxHFzvZZDZCCSSSCCCCCSSCCSSCSSCCNcd5$$$pnCS",
"DDZDDDDDZZZmf:ff3::<fZHHbfffffffpphnnNNSGGGGGGGGGGGSNcdlnMnnvnlhffzbZDFBfff<>0<qBZxxxxxxHFzvBZZZSSCSSSSCSCSCSSCSSSSCClt1$$$5bNCS",
"DDDDDDDDHZZff:ff6ffVHHZbf633f6ffthCHSNnnGGGHGGHHGHGSNthnGHNvcldwf6ffxZFFDBfff36fBDxxxxxxFFzvZZZZAASSCCp8plNSSCSSCCSSCNp,*,pcNCCS",
"DDDDDDDDDZZxq>iffBZZZZZgfffffzxfxbHHZMbMGGGGGGHGGGGSVacAGANlcnlhgggggVDMbbmgggigmSxxxxxxGGlvVAAAAASSpo*wpw,pSSSCSSSSSCVnnnmNCCSS",
"DDDDDDDDDZBxf>fkgffffgmVZDDZZMHHMmbxkfvAHGHGGHGHHGGGSnvmmcdhNGSSDAHFFDmgq66qggggnSxxxxxxGGlvVAAAAAS8 *hNVnh85NSCSCSCSCCCCCCCSSSC",
"DDDDDDDDDZBkq<fZDMfffffBZHHHHHHHHBbxzcHHHHGHHGGGHGGGSSVnnllCGGGGHHHFDmg8>7gMBBggvSxxxxxxGGlvVSASAAN.;tlNSCnct1NSAAAASSCSSCSACSSC",
"DDDDDDDDDZBx6<fDFGGZffffMBZZHHZHmxMBmmBHGGGGGGGHGGGSCVccnNVCGGGGFDAMgg>4iAGFDbqsMDxxxxxxGGlvVAAAAAm*tlcvVCSvlt8VSSCSCSHHGGSCCCSS",
"DDDDDDDDZZZxq3iDDDDFDbggfggbmmbxffxMHBmNFFFGGHHHGGSCmhhBCBnNCCNnbxggq>qbFGGDNi>iNDxxxxxxGGlvVSAASSCtcNNCVSSCphddCSSCSFGGGSSNcCAS",
"DDDDDDDDDZZmi3fDDDDDDHZfgfffffffffkHHHBvAZZSHHHZSCBncpBGGSlcNnldiiu>7gAHGFDVg74sADxxxxxxGGlvVAAACCSCNCSGSCCl,hnvVAAASFFGFANhpNCC",
"DDDDDDDDDZZmk>fZDDDDDDDZmggffffffkbZczjxBmnCSFZABnlllgbMNndnnhptrtrgmGGFFDAbq>qgFDxxxxxxGGlvVASASSSCSCSSCSn.2cVCCAASCCSSCct18nCS",
"DDDZDDDDDZZMx<ibDZDDDZMmZmmvfbvBHVbvjfjvnlkbZZZNcgadhlvcldlSHCNllgvVFFFFDDZbi>qgFSxxxxxxGGlvVAAASCSCSSSCSS$$pNSSSSSCSVncp1$$wnCS",
"DDDDDDDDDZZZm6qzZDDZVvfffffBDFFFSCnccnnCACvvNNnckujCZVnNmnHHHHHHAMxlcmMAADZbi>ygFSxxxxxxGGlvVAAASASCSAASA5OwnCFCSSSCSNhp2$$%lNCS",
"DDDDDDDDDZZZmz6fDDDVxf3<3gDHFHFZcptlnNNHGGCnmndkgjDHHSbnBxMHMHVHGFAvgagVZSVvi7yADSxxxxxxGGlvVAAACSASCSSC5.5cCFSSCCSSSSct1$*pnCCS",
"DDDDDDDDDDZZBx3iZDDBf6>fgGHFFZxf8wdcSnNSCnchvvlzkvZAmnlcHzxffMVHFFFFlggvZAZgy>iGDAxxxxxxGGlvVAAASAASSAS1.5bSSSCSSSCSCSCnclbnCCSA",
"DDDDDDDDDZZZBx<qmZZgf-6gGHFDZgfqwhNGGNcnlhuhnFGAvnnvgdfBHHbbffbZSFFFSgggAZNg7>gGDAxxxxxxGGlvVAASCASCCS8.5nSSSASSSCSSCSSCCNVCCCAA",
"DDDDDDDDDZZZZmiqfVmf6-fZGFFZxf3qhSGGSNhccllbBHSBzbMvkzzHHHHxfgfbDFFDAbagVAbi;4ZFSAxxxxxxGGlvCAAASAASCl 2nSSSCSSCCCSSSSCGSSCCSSSC",
"DDDDDDDDDZZZZMx6fMbf:fgGFFDVx3ffGHHCvddnSNnMNNvlfcMVHnbVHHHHHvbfZFFDAVyggVgy-qFDSSxxxxxxGFlvCAAASASSN ,cSSSCCSSCSSSCCSGGGGSCCCSS",
"DDDDDDDDDZZZZBx>ffgf:fZDFDDZBqkFGGNld8hSHSbvnvhdfxmZHBxxmHBHHHHgAGFDSCgigVg>>iFSAAxxxxxxGGlvVAAACASCO*lSSSSSSSSSSSSCSGGGGSSNnCCS",
"DDDZDDDDDZZZZBvqffbf-fDGDDZDDDFDCchw8tcHGHFSMbvnnHHHHHfxfxbxBHHHGFDDSZMqgBg-qgFDAAxxxxxxGGlvCAAASAC;+dCSSCCSSCCSCCSSSGGGSSCbhnCA",
"DDDDDDDDDZZZZZBx6izi6MDDZBmmMBmxdt88plCHHZHHVkvHHHHHHZhjvffgmMZHZAZZZVMgygg>qSDSAAxxxxxxGGgnVAAACS1OwNSCSCSSSSSCSSSCSFSSSCcd8cVC",
"DDDDDDDDDZZDZZZM6ijiqDZmfffiffif58whlcGGHHZZMfkHHHZHZBnfvMgffgffxxxxxxvc7gq6gDSSAAxxxxxxGGgbCAAAS8o5nSSSSSCCCCSSSCCSCSSCCcp5*lNS",
"DDDDDDZDDZZZZZZZjqiiMbfqq66q<336wdlCccGGHZHVmrkHHHZZHVn0gHMgffffsissy0yyqqiiVHSAAZxxxxxxGGxbVAAAp.,lCSCSCSSSSSCSSCSSCCNnlt,$*cCC",
"DDDDDDDDDZZZZDZZZiiixq<<36qqqffknCGNhlGGHZHZmrkHZHHHHVv7fZHBZMzfq078524340fvHSDAZZxxxxxxGGlbVAAx ;dVSSSCcdpnCCSSSSSCCblp8*$$wnCS",
"DDDZDDDDDZZZZDZZZZiiiiiixMZZZDFFHHFdpcGGHZHZmffHSHSHZBx7fMHHHHHMZCMngsqqqygHDDZZZAxxxxxxGGlvVAA&%tnSSSC;XoOO*vSCCSCSCNp8;$$,cNCS",
"DDDDDDDDDZZZZZZDZZZqizZZDDDDFFHFGSAhtcGSZHZZZjfHHSHSZmx6fVHHZZHHFFDZMgggfgHAZZAAAAxxxxxxGGlvVABO5lNSCS@O,wpp8,vSSCSSSSNh818cnCCS",
"DDDDDDDDDZZZZZZZZZDZiiffmBZDDFDDSSAnwlGSHZHZHNxHAHHZBxk4fHHHHZHHDVvg63qsgHHZHAAAAAxxxxxxGGgvVAM*tnCSCN$5dbNVvd8nSCSSCCCCNnnNCSSC",
"DDDDDDDDDZZZDZZZZDZDDgiiqqkxMZZZFSSCdhNBBZZZHHHHHZZMzuf6gHZZHZBvxs03-6ixHHHZZZAZAZxxxxxxGGxbVAM>hnVCSN1pnCSSNlhpCSSCSSSCCCCCCCSS",
"DDDDDDDDDZZZZZZZZDZDDDxifiqijxmBASSSAyflbMCAHHZHZVbhf6:qHHHBBbffq3<-3fBFZADZZAAAZZxxxxxxGGlvVACwlnMMSSwcCSSCndnnNSSCCSSGGGSCCSSC",
"DDDDDDDDDZZZZZZZZZZZZDZBjfiqqqgxnNCACxfddjnBVHZZMzf96:qBHHVvfff3<-3qgZFDHAAAAAZZACxxxxxxGGlvVASNlmMlvSVNGSSS5pNCSCSSSSGGGSSSNCCS",
"DDDDDDDDDZZZZZZZZZZDDZZDZBijiqqqhlcvnCchdufcMBBbht5,6fmHHbfff<::<qfBFFDDZZZZZAZZCAxxxxxxGGlvCAAANnNvtxSCSCS;,nSSSCCSSSGGGSSNcMCS",
"DDDDDDDDDZZZZZZZZZZZZZDDZZZZxiii8tyefzNCzfftkxxf9,<9fHHMffq3::30gVFFFFDZZZZAAZZZAAxxxxxxGGlvVAAASNNNcrsSSC*;cSSSSSSSCSSGSCNlplNS",
"DDDDDDDDDZZZZZZZZZZZZDZZDDDDDDMgpt7126thxzff0yf9:<fBHnkf6:::6fvHFFFDDDZDDZZZZZZZACcxxxxxGGlcVSAASSCVNnpwh@8nSSSSCCSSSCCNNlp5;pNC",
"DDDDDDDDDZZZZZZZZZZZZZDZZZZDDDDDFlpput0637fhffer<fvzf6::26ffBHHHFDDDZDZZZZZZZZAZSCxxxxxxGGlvCCAACCSSCCNldlCSSSCCSSSCCCchp5$$$pNS",
"DDDDDDDDDZZZZZZZZZZZZZDZZZZDZDDDSGSlhhgdfffgjjfr0fffq0rfzBHHHHZVDDZZZZZZZDDZZZZZCAxxxxxxGGlvCSSCSSSCSCCCSSSSCSSSCSSCCScw;$$$2cNC",
"DDDZDDDDDZZZZZZZZZZDZZZZZDDZDZZDSSSGGDCmxzjgjjfffhxmNHHHHHHHHBZHZZZDZDZZZZZZZZZZACxxxxxxGGlvCCSSSCSCSSSCCSCSCSCSSSCSSSCc2;,wcMCS"
};
