/* XPM */
static char *out[] = {
/* columns rows colors chars-per-pixel */
"64 128 23 1 ",
"  c None",
". c #14171D",
"X c #14181E",
"o c #171B21",
"O c #191C23",
"+ c #1C2027",
"@ c #1E212A",
"# c #21252E",
"$ c #232630",
"% c #262B34",
"& c #292E37",
"* c #292E39",
"= c #2D323C",
"- c #30343F",
"; c #2F3440",
": c #313641",
"> c #343A45",
", c #373D48",
"< c #393E4A",
"1 c #3C424D",
"2 c #3F4550",
"3 c #404652",
"4 c #434955",
/* pixels */
"4444444444444444444444444444444444444444444444444444444444444444",
"4444444444444444444444444444444444444444444444444444444444444444",
"4444444444444444444444444444444444444444444444444444444444444444",
"4444444444444444444444444444444444444444444444444444444444444444",
"4444444444444444444444444444444444444<>>444444444444444444444444",
"444444444444444444444444444444444444<> >444444444444444444444444",
"44444444444444444444444444444444444<, ;<444444444444444444444444",
"4444444444444444444444444444444444<>  >4444444444444444444444434",
"444444444444444444444444444444442>>   >2444442444444444444444443",
"44444444442444444444444444444444<:    ,244424442444444444444443>",
"444444444444244444444444444444444>    >,44444444444443444434<::-",
"444444444244444244444444444444444>     >124424444444443433:43>  ",
"444444444444244444444444444444444<>     >>,244444444443<:>><4:> ",
"4444444422444444444444444444444424;       >>2242444444<-   >43: ",
"4444444444224444444444444444444442:*    *>;<24444444444-   -33::",
"4444444442444224444444444444444444<>  ;>;22244214444444> -&><43:",
"42434243244224424444244242242242344:::,2224241::*;<4244:::1,:24:",
"44342434442442444444432422;24444432,,4244421::%   ;4434::433:24,",
"2433433324434234444443423: ::224434322434,::%     :3243::<3,:133",
"4233333432242433444424243:  =;;23333421;;:        :<333: ;412333",
"234233334333433344424224::    :;,2333<;:;         *:333; :<233,:",
"42424232232423334424244<:       ;:233332::         :333>  ;,::; ",
"232333334232333244422244,:::     :;,33322,;;       :322,=       ",
"333232322333233344244222322:::     :;233332;:      ;<222:     ::",
"3333333222224233333332:132333:;;    =:>23332:      *>332;   =;:3",
"2223222222222223132321:=<222221:::    ::2222;       ;221:  ::<23",
"223222322222232232312;&%;:2222221>%  %:2224;;       ;222; ;;233:",
"222223222222222232311;   ;;132322<%  :<122:;        ;232;;,231=:",
"22222222222222221222>=    ;:22222;% ;=2222=         ;122;222,=; ",
"21212222222122122222=     ;21222>;  ;2222;;         =:22222;;%  ",
"22222222222222222221=    %:22222;  ;,222,;           >222,=;    ",
"2121221222121222121==    %,2122=; =;2112;&           :12:;$     ",
"212211111222122221<;     %==><==  :1221;;            :22:$      ",
"112111121121111122;;       %&&*  =>1121<;==%         :11,$      ",
"111111111111121111=             =;11111121,;===%     =11>$      ",
"111111111111111111===%         ==1212:<2111121>:==== ;11>$      ",
"21111111111111112111,:==%     #-<111,=;*:<11111111,:;=>1>=      ",
"11111111111111111111111,==*%  =,1111=%  ===:,111111111111===%   ",
"1111111111111111;*,<<11<11>>-**<111==      *===>1111111111<>:===",
"111111111111111;; **==;<111<<33<11:*          $===:<1111111111<:",
"<33<1<11111111==    ==;1111<1111<2<*              ===;,1<11111<1",
"<<<<111111111==    ;=<11<1<=*=;1<1<;=                ====>11,111",
"<<<3<11<1111>-    ;*<1<11;=*  =*1<<2=*                  $==*>1<1",
"<31<1<<111>=*     *<1<1<**     =:1<<<;                     #=,11",
"<<<<<<1<>1==      ;<<<>**       *,<<<;*                     %11<",
"<<<<<<<<1=*       ;<<;*%        **<<1<*%                    =1>1",
"<<<<1<1,=***&%==* *<<*     *=*=***;<<<>=        $***:**     =:<<",
"<3<<,1==1,>11111;**,<;    *:,1,,<<<<<<<**    *=*:><<<<*     $:1<",
"<<<<>-&&,1>;;;:,,,**,;    =,1>,1<<<<,<,<*   ==,1,,,1>,=%    #=,1",
"<<<<-= %:,=*=***,<1:,:*   &:1****:,,,<<,=*  *,>11,,11,>=     =<,",
"-<<<>& %:,=:,;***:,<<<**  $:>>;;*%:,;:,,>*@ *:,,>,:;;,,*     *,,",
"<<<>,& #=,>,,,*  **:,,,== @=,,,,: :,=*,,1:= @*,,,**%*,,==    *,,",
">,,,>&  *=<,,;=   **=>,,=& ******$=,;*=,>1%% *&1,*  *=,,&    %-1",
"<<,,:%   ****%      **,,1=*    %*=>,: %=>1>&& &1=*  **,,=    %11",
",,<,:#               %*=1>:&@*%=,,,,=# **11>* &&=#&&=>,:&    *1-",
",,><:#                 *%>1-&:>>,,,:%   %->1=& %%=>,,1=%%    *1-",
",,,,=&&=%=%$#           *%;,>1>1,:**@   $*111$%=,,,,>*%      *11",
">,,>,,>>>::=====&**%&&%*%*%*>1>>%*$@%@&@ *%=>>1>>,,=*%*&%*%==&1>",
"><,,,><>,>,>1>>1,,,>>,<>>,,:1>1-==::->=*=*=*1>1>>1>,1>,,>1,>1>>>",
">>>>,>>>>,>,>>>>>>>>,>>>1,>>-1:1:1:1>>1111-1>>:>>>>>>>>,>>>>>>>1",
">>>>&===--=:-::;::;::::::::>>:::1:>1>>1-==->1=-1>>:>>>>::::>>>1-",
">>>-% ##@###@$$$$$$$%$%%%%%%&&%&%*:1:>-11=%%%%%*%%%%*%%%%*=1:1-1",
">>>>%                            &&&-:1-->>-%%%           =>:1--",
">>>>%                              @%%%=>>>>>>&%&         %:1--1",
">>:>%                                  %%%=:>:>:=$%%@     %:>>>>",
"::>:%                                     %%%=::1-1=%&    %>>>:>",
">>>>%                                        %%%%=>-1%%%  %::>>:",
">-::%                                           @%%&>--%& %:>::>",
"-->>%                                          %%$%%%-:>&%%=->>:",
"1-->%                                         %%1->=%%>:>&%=-1>:",
"->>-%                                        %%>->=>>%%>::==::->",
">->-%                                       @&-:>&=>:-%%:::>-->-",
"->>-%                                       +=-:-&%%=*%%%->->->-",
"----%                                       @$=:=>=$$ @%=:-=->::",
"-->-%                                         %%>->>%%%>>-@&--::",
">--=%                                          $$&---&:--%%=>->-",
"-:-=@                                           +%%=:::*%$+=----",
":--&+                                             @%%%$$+ +&>---",
"---%                                                      +&----",
"---%                                                       &----",
"---%                                                       &----",
":-=%                                                       &----",
"---%                                                       %----",
"--:@                                                       %=--=",
"=--$                                                       %----",
"===$                                                       $-=-=",
"-=-%                                                       $==--",
"===%                                                       #-===",
"-=-%+                                                     O#==-&",
"===*+                                 OOO++##########$##%%%&===-",
"=*=&####$@$@@$%@$%#$$%$$%$%%%%%%%%%%%%%%&&*&&*=====--===-&====&-",
"*-==*=-*=====================**===============*==&=======-====--",
"-==========================*====*-*-========-==*-======-=-&-&===",
"*--#%%%%%%%%&%%%%%%%%%%%%%%%%%%%%%%%%%%%$%%%%%%%%%%$$%%%$%$%&===",
"&-&# oooooOOOoooooooooooooooOOOOOOooOoOOOoOOOOOOO          O$=&=",
"-&=#                                                        $&--",
"&=&#                                                        %-=&",
"&=&#                                                        $&&=",
"=&=#                                                        $===",
"&=&#                                                        $&&&",
"&&&#                                                        #==&",
"=&&#                                                        #&&&",
"&&&#                                                        #&&=",
"=&&#                                                        #&&=",
"&&=#                                                        @&&&",
"&&&#                                                        #&&&",
"&&&#                                                        @&&&",
"&&&+                                                        #&&&",
"&&&#                                                        #&&&",
"&&%#                                                        @&&&",
"&&&O                                                        @&&&",
"&&&#                                                        @&&&",
"&&*O                                                        +&&&",
"&&&#                                                        +&&&",
"&&&O                                                        +&&%",
"%&%#                                                        O&&%",
"%%&O                                                        +&&&",
"&%&+                                                        O&%%",
"%%&O                                                        +&&$",
"&&&+                                                        O&&&",
"%&&+                                                        #&&%",
"%%%+                                                        +&&$",
"%%%+                                                        +%%&",
"%%%+                                                        +%&%",
"%%%O         ..XXXXXXXXXXXXXXXXX........O...........O..X.. .O%%%",
"%%%####+################################$$$$########$$$$##$$#%&&",
"%%%%%%%%%%%%%%%%%%&%%%%%%%%%%%&%%%%&%&%&%%%%%%%%&&%%%%%%%%%%&%-&",
"%%%%%%%%%%%%%%%%%%%%%%%%%%%%%%%%%%%%&#%%%%%%%%%%%%%%%%%%%%%%%%:3"
};
