/* XPM */
static char *out[] = {
/* columns rows colors chars-per-pixel */
"64 64 214 2 ",
"   c #010100",
".  c #0B0501",
"X  c #0D0805",
"o  c #0B0B0B",
"O  c #120700",
"+  c #140A02",
"@  c #1B0B00",
"#  c #110E0B",
"$  c #1D1105",
"%  c #15110E",
"&  c #1B130C",
"*  c #131313",
"=  c #191612",
"-  c #1D1916",
";  c #1B1B1B",
":  c #200E00",
">  c #241101",
",  c #2C1500",
"<  c #2A1A0B",
"1  c #311600",
"2  c #331900",
"3  c #3B1C00",
"4  c #201F1F",
"5  c #3E2203",
"6  c #36200A",
"7  c #28231E",
"8  c #37291C",
"9  c #232323",
"0  c #292725",
"q  c #2D2C2C",
"w  c #312E2B",
"e  c #39322A",
"r  c #343333",
"t  c #3A3937",
"y  c #3D3C3C",
"u  c #411E00",
"i  c #452200",
"p  c #4A2500",
"a  c #4D2A01",
"s  c #472808",
"d  c #512500",
"f  c #542900",
"g  c #5E2F00",
"h  c #5B3205",
"j  c #633200",
"k  c #6B3902",
"l  c #653609",
"z  c #733B00",
"x  c #7A3D00",
"c  c #45392D",
"v  c #744201",
"b  c #7C4301",
"n  c #734716",
"m  c #544333",
"M  c #6D4D2E",
"N  c #434343",
"B  c #494847",
"V  c #4C4C4C",
"C  c #564D45",
"Z  c #50504F",
"A  c #535353",
"S  c #5A5756",
"D  c #5B5B5B",
"F  c #645547",
"G  c #6C6156",
"H  c #7A6552",
"J  c #646464",
"K  c #696663",
"L  c #6C6B6B",
"P  c #766E66",
"I  c #77716B",
"U  c #747373",
"Y  c #7A7775",
"T  c #7D7974",
"R  c #7B7A7A",
"E  c #813F00",
"W  c #834400",
"Q  c #8B4600",
"!  c #844B02",
"~  c #8C4D02",
"^  c #944D01",
"/  c #8C5106",
"(  c #8E5F03",
")  c #8D550D",
"_  c #965706",
"`  c #9C5201",
"'  c #945A0B",
"]  c #8D5717",
"[  c #965C15",
"{  c #A55600",
"}  c #A75C05",
"|  c #8F6209",
" . c #8E6619",
".. c #9F7419",
"X. c #AE640E",
"o. c #B0640C",
"O. c #A96517",
"+. c #B16B1C",
"@. c #865621",
"#. c #8E6D29",
"$. c #9E6423",
"%. c #9F6729",
"&. c #9F7825",
"*. c #8E6E30",
"=. c #976C3E",
"-. c #9E7E38",
";. c #AC6C24",
":. c #A76B28",
">. c #A56B2B",
",. c #B36F25",
"<. c #A6752B",
"1. c #B2722D",
"2. c #A56E31",
"3. c #AB7134",
"4. c #A6733A",
"5. c #AC763C",
"6. c #B57734",
"7. c #B37A3C",
"8. c #8A6C4F",
"9. c #976F45",
"0. c #99734B",
"q. c #8C735A",
"w. c #987757",
"e. c #A57542",
"r. c #AC7B43",
"t. c #A37A4D",
"y. c #AD7D4A",
"u. c #B27D44",
"i. c #B27E49",
"p. c #A67E54",
"a. c #8B7663",
"s. c #83766A",
"d. c #8D7B6B",
"f. c #957B63",
"g. c #847B73",
"h. c #887F76",
"j. c #B38D3B",
"k. c #9E8446",
"l. c #AE804A",
"z. c #B48644",
"x. c #B3814C",
"c. c #B8844C",
"v. c #B2924B",
"b. c #AC8659",
"n. c #B38553",
"m. c #B98956",
"M. c #B68959",
"N. c #B48A5C",
"B. c #B09757",
"V. c #BFA35D",
"C. c #9C8169",
"Z. c #8A827B",
"A. c #918376",
"S. c #A5896C",
"D. c #B58E63",
"F. c #B88E63",
"G. c #B58F69",
"H. c #AF9E6A",
"J. c #B5936A",
"K. c #BA936B",
"L. c #B99773",
"P. c #B69975",
"I. c #BB9976",
"U. c #B59A78",
"Y. c #BA9C7B",
"T. c #BFA668",
"R. c #BCA979",
"E. c #C0A25B",
"W. c #C7AE6E",
"Q. c #C6AF72",
"!. c #C6B076",
"~. c #C6B27C",
"^. c #838383",
"/. c #8D8884",
"(. c #8C8C8B",
"). c #928B84",
"_. c #918E8B",
"`. c #94918D",
"'. c #979694",
"]. c #9B9B9B",
"[. c #B39C84",
"{. c #BA9F81",
"}. c #BBA184",
"|. c #B9A789",
" X c #BBA58B",
".X c #BCB287",
"XX c #BCA793",
"oX c #BCAB94",
"OX c #BDAE9B",
"+X c #BEB09E",
"@X c #A5A4A4",
"#X c #AAAAAA",
"$X c #BEAFA0",
"%X c #BEB3A4",
"&X c #BEB7AA",
"*X c #BFB9AD",
"=X c #BFBBB1",
"-X c #BCB9B6",
";X c #C5B484",
":X c #C5B58C",
">X c #C4B88D",
",X c #C5B793",
"<X c #C4B994",
"1X c #C5B799",
"2X c #C4BB9C",
"3X c #C1B2A3",
"4X c #C4BCA4",
"5X c #C0B6AB",
"6X c #C3BDAC",
"7X c #C1BCB4",
"8X c #C2BFB9",
"9X c #C4C0B5",
"0X c #C4C1BD",
"qX c #C4C4C3",
/* pixels */
"8X8X8X-X8X8X7X8X8X8X7X8X8X7X8X7X8X8X8X8X8X8X0X8X8X8X0X0XqXqXqX8X0X0X0XqX-X( ( ( ( ( ( ( ( ( ( | | |  .#. .#.*.*.*.#.|  .| | | ( ",
"=X7X=X7X=X7X=X=X=X=X7X-X-X7X7X=X=X=X=X=X=X=X=X=X8X=X8XqXqX8X5X$XXX$X7X0XqXC.......O.............<.&.<.-.k.k.k.k.k.k.k.j.k.......",
"6X*X*X*X*X*X*X*X=X*X*X*X&X*X*X*X*X*X&X&X*X*X*X*X=X=X8XqX0X-X[.S.a.=.S.5XqX-Xj.j.j.j.j.j.j.j.j.j.z.v.v.B.H.H.H.H.H.H.B.B.v.j.j.j.",
"*X*X=X*X*X*X*X*X*X*X*X&X&X&X&X&X&X&X&X&X*X&X&X*X*X=X8XqX8XoXp.Z.J 8 h OX8XqX1XE.E.E.E.E.V.E.E.E.T.T.T.R.R..X.X>X.X.XR.R.T.V.V.V.",
"=X=X=X*X7X=X=X*X-X*X*X*X*X&X&X&X&X&X&X&X&X&X&X*X=X8XqXqX&XD.a.J w   > L.5XqXqXQ.W.W.W.W.W.W.Q.Q.!.!.~.;X>X<X2X2X<X<X>X;XR.!.W.W.",
"7X-X7X=X=X7X7X=X6X=X*X*X*X*X*X&X&X&X&X&X*X&X&X*X=XqXqX-X X9.U r o     [ $X0XqX7XQ.Q.W.Q.W.Q.W.Q.!.~.;X;X<X<X2X2X2X<X>X;XR.!.W.W.",
"7X=X7X7X7X=X7X=X7X5X=X=X=X*X*X&X&X&X&X&X&X&X&X*X-X0X0X$Xn.g.Z         3 {.7XqXqX!.Q.Q.W.W.Q.Q.!.!.~.;X>X>X<X2X2X2X<X>X;X~.!.Q.Q.",
"7X7X=X=X7X7X=X7X=X7X=X=X=X*X*X&X&X&X&X&X&X&X*X*X0XqX=XR.w.L o           :.3X0XqX7XQ.Q.W.Q.Q.Q.!.!.~.;X>X<X2X2X2X2X<X>X>X;X!.Q.Q.",
"7X7X7X7X7X7X7X-X7X=X7X=X=X=X=X=X&X&X%X%X&X&X&X8XqX8XOXr.U r     f       3 Y.7XqXqX;X!.!.!.!.!.!.!.~.>X>X<X2X2X2X4X2X<X>X>X!.!.W.",
"7X7X7X-X7X7X7X7X7X7X=X7X7X=X=X*X*X*X&X&X%X&X-X0XqX7XU.q.D     2 { :       $.$XqXqX8X!.!.!.!.!.!.~.~.>X>X<X2X4X4X4X2X<X>X>X!.!.!.",
"0X7X7X8X0X7X7X7X7X7X=X=X=X7X7X*X6X*X&X&X&X&X-XqX0X$Xr.I r     ~ 6.x       3 Y.7XqXqX,X!.!.!.!.~.>X~.>X>X<X2X4X4X4X2X<X>X>X~.!.~.",
"8X8X8X8X8X9X8X7X7X8X7X7X7X=X7X=X*X*X&X&X&X*XqXqX7X{.q.D     , n.Y.l.@       [ $X0XqX8X~.~.~.~.~.~.>X>X<X2X2X4X4X4X2X2X>X>X~.~.~.",
"0X8X8X0X0X8X7X7X7X8X7X7X7X=X7X=X7X*X&X&X*X8XqX0X3Xy.L y     x Y.oXY.b       , I.7XqXqX1X;X~.~.;X;X>X>X>X2X4X4X4X4X2X2X<X>X~.~.~.",
"8X8X7X8X7X0X8X0X0X8X8X7X7X7X7X=X*X*X*X*X-X0XqX7X{.0.J 4   @ +.|.3XoXx.@       ' 3X0XqXqX;X;X~.;X;X>X>X>X2X4X4X9X6X4X2X<X>X~.~.;X",
"0X0X0X8X8X8X0X7X8X8X8X8X8X7X7X=X=X=X5X-X8XqXqX5Xn.I B o     ` Y.%X%XY.b       , L.7XqXqX4X;X;X;X>X>X>X<X2X4X6X4X6X4X2X<X>X;X;X;X",
"7X7X0X0X8X8X8X0X8X8X8X8X8X7X7X=X*X=X5X8X0XqX8X{.0.J 9       . 7.oX%XoXl.+       ^ $X8XqXqX;X;X;X>X>X<X2X2X4X6X6X9X4X4X<X>X>X;X;X",
"0X0X7X0X8X0X8X8X8X8X8X8X8X8X=X=X=X*X=X8XqX0X&Xn.I B o o * *   @ n.,X3XY.z       > L.5X0XqX7X;X:X>X>X>X2X4X4X9X9X4X9X4X2X<X:X;X;X",
"0X0X0X0X0X8X0X8X8X8X8X8X8X8X8X9X=X*X9X0XqX8X X0.K 9   * 9 * o   d F.oXoXx.@     o ! XX8XqXqX:X:X>X>X<X2X4X4X6X9X9X4X4X2X<X:X:X:X",
"0X0X0X0X0X0X0X8X9X8X0X8X8X=X8X=X9X*X0XqX0X%Xn.T V o   9 r r * o   g Y.oXY.z     o & r.$X8XqX7X:X,X,X2X2X4X9X9X6X9X2X4X2X1X,X:X:X",
"0X0X0X0X0X0X0X0X0X0X8X8X8X8X=X=X=X-XqXqX8X}.w.K 9   o q N y 0 o     [  X Xu.@   # # 1 D.5XqXqX1X,X,X>X9X4X4X9X9X9X9X9X2X1X,X:X:X",
"0XqXqX0X0X0X0X0X0X0X0X0X8X=X9X=X7X8XqX8X$Xn.T V     o q B D B *     3 I.oXI.j   o * # j {.8XqX8X,X1X2X4X6X6X9X9X9X9X6X4X2X1X:X:X",
"0X0X0X0X0XqX0XqXqX0X0X9X8X8X8X=X8XqXqX8X{.w.L 4   + o r A L J ;       %. X X3.    * * & y.-XqXqX2X2X2X4X6X6X9X9X9X7X6X4X4X1X,X,X",
"qX0X0XqX0XqX0XqX0X0X0X8X=X9X=X-X8XqX0X5XD.I D     3 o y D U R q       g }.+XK.p   o ; * v XX0XqX0X2X4X4X6X6X9X0X0X7X6X6X4X1X,X,X",
"0XqX0XqX0X0X0XqX0X0X8X9X8X=X*X8X0XqX8XXXe.Y r   @ s o y D L ^.V o     3 N.XXI.` # o 9 4 2 D.-XqXqX6X4X4X6X9X9X9X0X9X7X6X4X1X1X1X",
"0X0XqX0X0XqX0X0X0X0X0X9X8X=X=X0XqXqX*XG.h.U *   x g ; y J A ^.J 9     > ,.m.z.o.M 0 9 q * _ OX8XqXqX4X4X6X6X6X0X0X9X9X6X4X2X1X2X",
"qX0XqX0X0XqX0XqX0X0X0X9X9X=X8X0XqX8XXXp.`.A   1 { z ; q D D U R y     2 ] d.).h.H r ; q 9 5 L.=XqXqX9X6X9X8X0X8X0X9X9X6X6X2X2X1X",
"0X0X0X0X0X0X0X0X0X0X9X9X=X=X0XqXqX3XG./.(.r . Q u.~ 9 q V A D ^.V *   ; B D S B c ;   9 r = [ OX0XqXqX6X6X0X0X0X0X0X-X6X6X4X4X1X",
"qXqX0XqXqX0X0X0X0X9X9X9X=X-X0XqX7X:Xp.'.L * 1 1.c.O.M q y V N L A 9   * 9 9 7 4 *     * r q 5 L.6XqXqX0X6X0X0X0X0X0X0X9X6X4X4X4X",
"0X0X0X0XqX0X0X0X9X9X8X=X=X0XqX0X$Xp.'.].B + E ,.1.w.I y r A y N A ; o ; 9 ; ; * X   :   0 r - ] 1X8XqXqX6X0X0X0XqX8X9X8X6X6X4X1X",
"0XqXqX0XqX0X0X0X9X9X=X=X8XqXqX-XXXf.@X_.4 1 } 9.).^.D c Z L L R ^.V r r r ; o     @ b . * y 0 3 K.7XqXqX0X0X0X0XqXqX9X6X6X4X4X4X",
"0X0XqX0X0X0X0X9X8X=X=X=X0XqXqX&XF.`.@XD + z H ^.Y D D L '.@X].R y o               k ,.g X 9 t ; ` 3XqXqXqX8X0X8X8XqX8X8X6X4X4X4X",
"qX0X0XqX0X0X0X9X8X=X=X8X0XqX8X|.0.@X'.7 u < A J D K ^.@X].R y *               @ p D.I.i.1 * r q d I.7XqXqXqX0XqXqX8X8X8X6X6X3X6X",
"0XqX0X0X0X0X8X-X7X5X-X0XqX0X&XG.).#XL + Q > ; q t N V r 4 o             2 g z 5.U.3X$X}._ X 4 q = $.OX8XqXqXqXqX0X0X9X8X6X6X6X4X",
"0X0X0X0X0X8X8X8X7X-X8XqXqX8XXXt.@X].0 p +.~ # > o o X                     W 6.}.3X6X7XOXD.3 o q 4 p U.7XqXqXqXqX0X0X8X8X6X6X4X4X",
"0X0X0X0X8X8X7X7X7X=X0XqXqX5XK.A.@XL # ~ L.Y.r.1                   a         b Y.3X7X7X*X}.~   ; 4 # ' OX0XqXqXqXqX0X0X8X9X6X6X6X",
"0XqX0X0X8X8X8X7X-X8XqXqX0XXXt._.].r u N.OX$X1XY.x.p O   .   . 3 ;.6.z     o o W }.5X7X7X%XN.2 o ; o , G.5XqXqXqX0X0X0X8X9X4X9X4X",
"0X0X0X0X8X8X7X=X6X0XqXqX5XK.h.(.L & '  X5X7X7X6X1X XI.F.m.K.I.;XXX,XK.1     o   !  X6X7X5X X_ . o o . ! OX8XqXqXqX0X0X9X9X9X6X4X",
"0X0X0X0X8X7X7X=X-XqXqX8XOXt./.(.y p N.OX5X7X8X8X8X7X5X5X5X3X6X7X7X7X3XM.>         4.OX=X6XOXn.i o *   > b.5XqXqXqX0X0X0X6X6X6X6X",
"0X0X9X8X8X7X7X-X0XqXqX5XK.A.(.R & / {.5X7X7X8X0X0X8X0X8X0X0X0X0X8X8X7X:X+.        b  X*X=XOXK._ e =     x XX8XqXqXqX0X9X9X4X9X4X",
"8X0X8X8X7X7X*X8XqXqX0XXXt./.^.r u b.OX6X6X7X6X5X5X6X8X8X0X9X0X8X7X8X8X4Xm.0 *     , Y.%X*XOXn.L m o     @ D.5XqXqXqX0X9X9X9X6X9X",
"0X8X0X7X7X7X*X0XqX0X5XK.h.^.J O / }.3X5X%XoX}.I.L.R.OX5X7X8X8X0X7X8X8X3XF.c 9     @ K.OX%XY.;.U = +       ! oX8XqXqXqX0X9X6X6X6X",
"8X8X8X8X7X7X-XqXqX8XXXt.^.A ; u N.oX%XoXL.c.C.A.g.G 5.{.3X7X7X=X7X8X7X3Xx.C 0     p L.oX}.6.`.D   p       , G.*XqXqXqX0X9X6X9X9X",
"8X8X7X7X=X7X0XqXqX*XJ.d.Y q O [ {.oX Xm.S._.K c = 0 0 n L.3X6X*X7X7X5XXX2.D *     f L.Y.i.`.^.q   E +       _ OX0XqXqXqX9X9X6X9X",
"7X8X7X7X*X8XqXqX7XXXe.T B o 3 M.}.{.i.`.R ;     2 .   X z }.%X=X7X7X3XK.8.Z     : c.K.u./.^.A o   u f       , D.6XqXqXqX9X9X6X6X",
"7X7X7X7X=X0XqXqX%XN.g.U 0 O ' P.{.i.).Y o   @ z 6.^ >     4.oX6X7X5X X6.U X   @ :.F.c.w.^.D y o   . Q O       W ,X0XqXqX9X9X9X9X",
"7X7X-X*X8XqXqX=X X0.Y y o 3 l.Y.F.a.^.N 9 5 >.Y.|.K.X.6   j }.5X5X,XM.h.B   + 6.K.m.w.^.J V N       ` u       @ m.6XqXqXqX9X4X9X",
"7X7X*X*X0XqX8X&Xn.Y J ;   / K.U.5._.L w h i. X%X+XY.+.F   @ Y.3X3XF.p.J   . ;.I.I.0.h.J y S N       ` E         E XX9XqXqXqX9X9X",
"*X*X-X8XqXqX8X{.9.K ;   3 x.[.G.0.'.y 3 5.|.%X%X+XD.8.0   k }.OXL.w.Y o   j M.I.c.s.K y r K q     O } ;.u     . , i.4XqXqXqX9X4X",
"*X*X=XqXqX0X%Xn.U B   X / P.}.N.T (.0 j F.OX&X%X|.7     > y. X}.y.g.9   1 X.u.6.} g.Z r N L *     . O.i.~         z  X7XqXqXqX6X",
"*X*X-XqXqX8X{.0.L #   , r.}.|.x.P (.; f D.OX&X%XOXY.n @.N.}.XXD.q.S   . { ] /.(._.L N r L U       @ { 5.:.3       . e.%X8XqXqX9X",
"*X7XqXqX0X$Xp.Y N     x D.oX|.x.S (.; i n.oX%XOX+XoXoX|.oXoXY.>.R 0   Q X.M L S N w t N L A         % ^ O.Q         p {.7XqXqXqX",
"*X8XqXqX=X{.0.J o   > 2.U.|.}.n.e ^.t O _ Y.OX%X&X&X%X%X3X}.7./.J     ` 6.o * 4 ; q A D J 9       o * 9 l { f         2.3XqXqXqX",
"7XqXqX0X5Xy.U y     j b.|.oX|.D.j D Y * 2 5.Y.OX+X%XOXoXY.i.C.U q     ` x.) > * 4 r y A Z o           o   i Q .       f ;X7XqXqX",
"qXqXqX7X{.0.J o   + %.U.|.OXoXH.!   Z N # s 3.K.}.}.Y.F.6.C.J         Q m.N.k $ & ; 9 0 0 X                 W p         2.3X0XqX",
"qXqX0X&Xi.Y N     d b.|.OXoXoX[.n.@   = = - c ' <.5.e.f./.N   . ,     > u.L.J.>.3 + o * o     .           i %.` O       u {.7XqX",
"qXqX=X{.d.K #   . ' H..XOXOXOXoXU.6.      = 0 C P h.g.Z     + { x       z n.J.M.X.^ 4 o               O O.n.J.y.g         %.$X0X",
"qXqX%Xc.Y y     i l.|.oXoXOXOXoX XG._       # 7 w ;       a i.D.i.1     X ^ 1.;.} s.y       g x ! O.3.y.D.U.}.J.:.O       2 L.=X",
"qX7X{.s.K *     W N.[. X|.|.|.[.R.L.i.z               , { 7.D.I.D.+.2   * N P /.(.L *     W O.3.y.l.x.B.D.J.J.N.1.z ;       ' $X",
"0X5Xx.Y N     2 ` 6.m.N.N.v.b.n.n.i.6.{ ~         @ Q { } 1.r.x.7.O.{ n 9 4 e y r *   : Q ^ { :.>.3.2.3.4.2.3.>.[ :.C %     > Y.",
"8X{.q.J ;     i M 8.w.w.f.a.s.C.d.d.a.a.8.M < + O < c F I s.d.d.d.Z.Z.G e o           * r J R ^.^.^.^.R ^.^.R ^.^.Y N *       y.",
"5XK.D r     o 4 N D J D D S D A A A A A Z t ; * * ; q y N V V V V V y r ;             o ; q r r r r r r r r w r q 9 %         ] ",
"&X9.o                                                                                                                         n ",
"&X0.3 .                                                                                                               O O . 6 U.",
"-X&X XK.5.) v v v v b b / [ %.3.5.r.r.y.y.i.n.n.x.n.x.x.y.i.i.r.e.4.4.4.4.4.5.5.4.r.5.r.r.r.5.r.r.r.y.i.n.n.n.n.n.M.N.F.D.U.XX-X"
};
