/* XPM */
static char *out[] = {
/* columns rows colors chars-per-pixel */
"32 16 205 2 ",
"   c #101212",
".  c #131515",
"X  c #151717",
"o  c #141718",
"O  c #151718",
"+  c #161818",
"@  c #171819",
"#  c #16191A",
"$  c #181A1A",
"%  c #181A1B",
"&  c #191B1B",
"*  c #191C1D",
"=  c #1A1C1C",
"-  c #1A1D1E",
";  c #1B1D1E",
":  c #1C1E1F",
">  c #1D1F20",
",  c #1D2020",
"<  c #1D2021",
"1  c #1E2021",
"2  c #1F2121",
"3  c #1E2122",
"4  c #1F2122",
"5  c #202122",
"6  c #202222",
"7  c #202223",
"8  c #212324",
"9  c #232526",
"0  c #242627",
"q  c #272A2A",
"w  c #292B2B",
"e  c #2A2C2D",
"r  c #2B2D2E",
"t  c #2B2E2E",
"y  c #2A2F31",
"u  c #2D3031",
"i  c #2D3133",
"p  c #303335",
"a  c #313436",
"s  c #34383A",
"d  c #3B3F40",
"f  c #3E4243",
"g  c #404547",
"h  c #414648",
"j  c #434748",
"k  c #43484A",
"l  c #454848",
"z  c #45494B",
"x  c #47494B",
"c  c #4B4E4F",
"v  c #4A5053",
"b  c #4D5051",
"n  c #4D5557",
"m  c #4D5558",
"M  c #505354",
"N  c #535658",
"B  c #565859",
"V  c #57585A",
"C  c #53595C",
"Z  c #545A5D",
"A  c #575C5F",
"S  c #585A5B",
"D  c #595B5D",
"F  c #5B5C5E",
"G  c #5B5D5F",
"H  c #5C5D5E",
"J  c #585D60",
"K  c #5D5E61",
"L  c #5D6061",
"P  c #5C6366",
"I  c #5C6D77",
"U  c #5E727C",
"Y  c #636566",
"T  c #656667",
"R  c #61696B",
"E  c #62696B",
"W  c #65686A",
"Q  c #66696B",
"!  c #666D70",
"~  c #666D71",
"^  c #676E71",
"/  c #686F73",
"(  c #6A7174",
")  c #6B7276",
"_  c #62757F",
"`  c #65747C",
"'  c #737678",
"]  c #747678",
"[  c #71787C",
"{  c #737A7E",
"}  c #617680",
"|  c #6A7D85",
" . c #767E81",
".. c #747E82",
"X. c #777E82",
"o. c #787F82",
"O. c #798083",
"+. c #7D8082",
"@. c #7E8283",
"#. c #7A8184",
"$. c #7C8386",
"%. c #7F8488",
"&. c #7E8589",
"*. c #7C898F",
"=. c #858889",
"-. c #82888C",
";. c #82898C",
":. c #82898D",
">. c #838A8D",
",. c #838A8E",
"<. c #878A8D",
"1. c #898D8E",
"2. c #8C8D8D",
"3. c #8E9191",
"4. c #8F9495",
"5. c #8B9498",
"6. c #919597",
"7. c #929598",
"8. c #93999B",
"9. c #95999B",
"0. c #979B9D",
"q. c #8BA5B6",
"w. c #8EA6B6",
"e. c #8EA6B7",
"r. c #91A7B6",
"t. c #91A8B7",
"y. c #95A9B6",
"u. c #93A9B8",
"i. c #94A9B8",
"p. c #94ABBA",
"a. c #97ADBB",
"s. c #98ABB8",
"d. c #9BADB8",
"f. c #98AEBB",
"g. c #9DAEB9",
"h. c #9EAEB9",
"j. c #9FAEB9",
"k. c #9DB0BC",
"l. c #9FB1BD",
"z. c #A2B0BA",
"x. c #A7B2BA",
"c. c #A1B2BD",
"v. c #A2B2BD",
"b. c #A7B5BD",
"n. c #A6B4BE",
"m. c #A8B4BB",
"M. c #ABB5BB",
"N. c #A8B5BD",
"B. c #A9B6BE",
"V. c #AAB7BE",
"C. c #ACB6BC",
"Z. c #AFB7BC",
"A. c #ACB7BE",
"S. c #ACB8BE",
"D. c #ADB8BF",
"F. c #AEB9BF",
"G. c #AFB9BF",
"H. c #B1B9BD",
"J. c #B2B9BD",
"K. c #B0BABF",
"L. c #B2BBBF",
"P. c #B4BABD",
"I. c #B5BBBE",
"U. c #B8BCBE",
"Y. c #B9BDBF",
"T. c #BBBDBF",
"R. c #B0BAC0",
"E. c #B1BAC0",
"W. c #B2BAC0",
"Q. c #B2BBC0",
"!. c #B3BBC0",
"~. c #B4BBC0",
"^. c #B4BCC0",
"/. c #B5BCC0",
"(. c #B5BCC1",
"). c #B6BDC0",
"_. c #B6BCC1",
"`. c #B6BDC1",
"'. c #B7BDC1",
"]. c #B8BDC1",
"[. c #B8BEC1",
"{. c #B9BEC1",
"}. c #BABEC1",
"|. c #BABFC2",
" X c #BBBFC2",
".X c #BCBEC0",
"XX c #BEBFC0",
"oX c #BFC0C1",
"OX c #BCC0C2",
"+X c #BDC0C2",
"@X c #BDC0C3",
"#X c #BEC1C3",
"$X c #BFC1C3",
"%X c #BFC2C3",
"&X c #C0C0C0",
"*X c #C1C1C1",
"=X c #C0C2C3",
"-X c #C1C2C3",
";X c #C1C2C4",
":X c #C1C3C4",
">X c #C2C3C4",
",X c #C3C3C4",
"<X c #C3C4C4",
"1X c gray77",
"2X c #C4C4C5",
/* pixels */
"G 0 7 3 q.l.F.Q.!.Q.F.l.e.D 0 8 8 = _ p.N.E.!.!.Q.F.l.e.D 0 7 , ",
"G 0 7 3 q.l.F.Q.!.Q.F.l.e.D 0 8 8 = } p.N.E.!.!.Q.F.l.e.D 0 7 < ",
"Q s p i r.v.K.~./.~.K.v.i.W s a a t | f.V.Q././.~.K.v.u.W s p y ",
"+.J C m d.B.^.'.'.'.^.B.h.@.A Z Z n *.v.G._.'.'.'.^.B.g.@.A Z v ",
"4.#.X.[ x.E.[.|. X|.[.E.m.6.O.X.X.{ 5.A./.}. X X|.[.E.m.6.O.o.) ",
"9.,.-.$.Z.[.OX#X#X#XOX[.J.0.>.;.;.&.8./.|.@X#X#X#XOX[.H.0.>.:. .",
"<.( ! E U.#X=X;X:X;X=X#XY.1./ ~ ~ R 7.OX$X-X:X:X;X=X#XY.1./ ^ P ",
"] z g f XX,X<X1X1X1X<X,XoX' k h h d 3.>X<X<X1X1X1X<X,XoX' k h d ",
"T u e w &X1X2X2X2X2X2X1X*XY u r r 9 2.1X2X2X2X2X2X2X1X*XY u e q ",
"L 0 7 6 T.=X>X>X>X>X>X=X.XH 0 8 8 = =.%X:X>X>X>X>X>X=X.XH 0 7 2 ",
"K 0 7 6 P. X#X$X=X$X#X XI.F 0 8 8 = %.{.+X$X=X=X$X#X XI.F 0 7 2 ",
"S 8 1 , M./.|.OXOXOX|./.C.B 8 2 2 $ ..R.[.OXOXOXOX|./.C.V 8 > : ",
"b ; % # j.D.).{.{.{.).D.z.c ; & & . ` b.L.].{.{.{.).D.z.c ; % @ ",
"x $ O o y.n.L.(.`.(.L.n.s.j % + +   I k.S.^.`.`.(.L.n.s.l % X o ",
"N 4 : - w.c.G.!.^.!.G.c.t.M 5 > > + U a.B.W.^.^.!.G.c.t.M 4 : * ",
"G 0 7 3 q.l.F.Q.!.Q.F.l.e.D 0 8 8 = _ p.N.E.!.!.Q.F.l.e.D 0 7 , "
};
