/* XPM */
static char *out[] = {
/* columns rows colors chars-per-pixel */
"64 64 224 2 ",
"   c #45294F",
".  c #482B4F",
"X  c #452E52",
"o  c #492D53",
"O  c #492E58",
"+  c #453255",
"@  c #4A3457",
"#  c #473459",
"$  c #4A3659",
"%  c #4C395B",
"&  c #483C59",
"*  c #51345E",
"=  c #513C5F",
"-  c #4F3860",
";  c #533561",
":  c #523A62",
">  c #59376A",
",  c #563B6D",
"<  c #5C3B6D",
"1  c #5D3D72",
"2  c #60386F",
"3  c #663676",
"4  c #633C75",
"5  c #673C79",
"6  c #693D7B",
"7  c #4B455D",
"8  c #4C4B5F",
"9  c #52405F",
"0  c #4D4960",
"q  c #534464",
"w  c #524B66",
"e  c #5B446B",
"r  c #5B486A",
"t  c #4C5363",
"y  c #4D5A65",
"u  c #4E5A68",
"i  c #535268",
"p  c #545369",
"a  c #525B6B",
"s  c #5E4174",
"d  c #5D4C72",
"f  c #5F4278",
"g  c #5E5875",
"h  c #614C6D",
"j  c #65506E",
"k  c #614376",
"l  c #624A75",
"z  c #64447A",
"x  c #69447D",
"c  c #664A7A",
"v  c #69497D",
"b  c #6C5574",
"n  c #685875",
"m  c #64537A",
"M  c #6A537D",
"N  c #645C7C",
"B  c #73597D",
"V  c #4D666A",
"C  c #4D6A6E",
"Z  c #52646D",
"A  c #506D6E",
"S  c #4C7169",
"D  c #526B72",
"F  c #5A6876",
"G  c #567376",
"H  c #537D74",
"J  c #64667D",
"K  c #6C637C",
"L  c #78637E",
"P  c #60707D",
"I  c #4F8573",
"U  c #558279",
"Y  c #558A78",
"T  c #5B917D",
"R  c #5D9D7E",
"E  c #5DA07E",
"W  c #6F3F83",
"Q  c #674680",
"!  c #6C4682",
"~  c #6D4B84",
"^  c #714685",
"/  c #714A86",
"(  c #714D88",
")  c #6D5383",
"_  c #6B5D82",
"`  c #6C5885",
"'  c #6E5D88",
"]  c #725584",
"[  c #725B85",
"{  c #725488",
"}  c #735B8A",
"|  c #7A5D89",
" . c #6C6583",
".. c #6A6A85",
"X. c #6E6388",
"o. c #7B6383",
"O. c #72638A",
"+. c #756B8C",
"@. c #7A6889",
"#. c #657383",
"$. c #6A7987",
"%. c #74758C",
"&. c #7C7391",
"*. c #7B7C92",
"=. c #84698B",
"-. c #856B8D",
";. c #87728D",
":. c #876D93",
">. c #8C7494",
",. c #867A96",
"<. c #927A94",
"1. c #947899",
"2. c #947C9A",
"3. c #5C8C81",
"4. c #5E9481",
"5. c #628584",
"6. c #648D86",
"7. c #6C838C",
"8. c #6C8B8D",
"9. c #78838E",
"0. c #619C83",
"q. c #669789",
"w. c #69938B",
"e. c #7A8292",
"r. c #758F92",
"t. c #7C8C96",
"y. c #6E9992",
"u. c #749393",
"i. c #799496",
"p. c #739B94",
"a. c #799B97",
"s. c #7F9C9A",
"d. c #65A484",
"f. c #69A688",
"g. c #6DAC8B",
"h. c #71AD8F",
"j. c #6FB18A",
"k. c #75B68F",
"l. c #6FA290",
"z. c #74A396",
"x. c #74AC93",
"c. c #79A599",
"v. c #7BAC9B",
"b. c #76B591",
"n. c #79B694",
"m. c #7CBB94",
"M. c #7DB49B",
"N. c #7EBA99",
"B. c #7FB6A0",
"V. c #89879A",
"C. c #848B99",
"Z. c #97859B",
"A. c #879A9E",
"S. c #92909F",
"D. c #A18C9F",
"F. c #83A79F",
"G. c #80B59E",
"H. c #82BB9C",
"J. c #9C88A1",
"K. c #8E9BA2",
"L. c #9799A5",
"P. c #A28CA4",
"I. c #A98EA8",
"U. c #A593A6",
"Y. c #A994A6",
"T. c #AC96AC",
"R. c #A59BAC",
"E. c #AD99AC",
"W. c #B19DAD",
"Q. c #AF9CB1",
"!. c #B39DB1",
"~. c #85A6A1",
"^. c #8CA6A4",
"/. c #84ACA1",
"(. c #99A6AB",
"). c #96ACAB",
"_. c #83B2A2",
"`. c #8AB5A7",
"'. c #85BBA2",
"]. c #8ABFA6",
"[. c #8CBCAA",
"{. c #98B5AF",
"}. c #93BDAE",
"|. c #9DB3B2",
" X c #96BEB3",
".X c #9BBDB5",
"XX c #9FBEB8",
"oX c #A2A4AE",
"OX c #A2A8AF",
"+X c #B3A0AE",
"@X c #AAA7B3",
"#X c #A3ACB2",
"$X c #AFAFBA",
"%X c #B4A3B3",
"&X c #B9A4B4",
"*X c #BCA9B6",
"=X c #BCA5B9",
"-X c #B3A9B8",
";X c #B5AFBC",
":X c #BBADBD",
">X c #A5B4B6",
",X c #A9B1B7",
"<X c #A1BAB7",
"1X c #A5B6B8",
"2X c #ABB2B9",
"3X c #A3BBB9",
"4X c #A9B9BB",
"5X c #B2B1BB",
"6X c #BAB1BE",
"7X c #C0A7BC",
"8X c #C4AEBE",
"9X c #C5B1BF",
"0X c #81C197",
"qX c #86C39C",
"wX c #88C49F",
"eX c #8AC4A3",
"rX c #8EC4AA",
"tX c #90C4AE",
"yX c #93C3B1",
"uX c #99C1B5",
"iX c #BEAEC0",
"pX c #BEB1C0",
"aX c #C4ADC1",
"sX c #C5B1C0",
/* pixels */
"% $ $ $ % @ @ @ % @ @ @ @ % @ @ $ $ $ @ @ @ $ $ @ @ @ % @ $ $ @ $ $ $ $ @ @ @ @ $ $ $ @ @ @ @ % % @ @ % $ $ @ $ $ @ @ % @ @ % % ",
"$ @ $ $ @ @ @ @ @ @ @ @ % @ @ @ @ @ $ @ @ @ @ @ @ @ @ @ @ @ @ @ @ @ @ $ @ @ @ @ @ + @ @ @ @ @ @ @ @ @ @ $ @ @ @ @ @ $ @ @ @ @ @ ",
"$ @ @ @ @ @ @ @ @ @ @ @ @ % @ @ @ @ @ @ @ $ @ @ @ @ @ @ @ @ @ @ @ @ @ $ @ @ @ @ @ @ @ @ @ @ @ @ @ @ @ @ @ $ @ # @ @ @ @ @ @ @ % ",
"$ @ @ @ @ @ @ @ @ @ % @ @ @ @ @ @ @ $ @ @ @ @ . . . . . .     .         . + @ @ @ @ @ @ @ @ @ @ @ @ @ @ $ @ @ @ @ @ @ @ @ @ @ @ ",
"@ @ $ @ @ @ @ @ @ @ @ @ @ $ @ @ O O O o o o + @ % 8 t a y u a u t w 7 @ X .       + @ + @ @ @ @ @ @ # @ @ @ $ @ @ @ @ @ @ @ @ % ",
"$ @ @ @ @ @ @ @ $ @ $ $ @ @ @ @ o # + & t C U 3.q.x.M.H.M._.B._.G.F.F.F.r.7.J i @ +   + + # # $ @ % $ $ $ & & # @ % @ @ @ @ @ @ ",
"@ @ $ @ @ @ @ % @ $ $ # # @ o @ 0 V Y 4.h.M.qXeXrXtXtXtXyXyXyXuX.XXXXXXX<X<X|.).A.+.p & X + + @ % @ & $ $ $ # $ % @ % @ @ @ @ @ ",
"@ @ @ @ @ @ % @ $ # $ O o $ 0 H d.n.H.'.eXrXrXrXrXtXtXtXyXyXyXuXuXuXuXXX3X3X4X1X1X,XoXS.o.q + O @ % % % & $ % $ @ % @ % @ @ @ % ",
"$ @ @ $ @ @ $ @ $ # O $ 8 H f.H.eXeXrXeXrXrXrXrXrXrXyXrXtXyXyX XuX.X.X.X<X>X>X>X1X2X5X5X$XR.;.e $ O # ; % % % % @ % & $ $ $ @ $ ",
"$ @ @ @ $ $ @ * O O 7 H f.H.wXwXeXrXeXrXeXrXrXrXtXrXrXyXyXtXyX X}. X.X<X<X<X<X>X>X,X4X5X5X6X;XR.-.e O O * ; * % % % $ $ $ $ $ @ ",
"$ @ $ $ & @ o O % V d.H.wXeXwXeXeXeXeXrXrXrXrXrXrXrXtXrXtXyXyX X X X X.X.X<X<X1X1X#X5X2X6X6XpXpX:XP.M % $ % ; % % @ % $ @ @ @ $ ",
"@ @ $ $ # O @ 8 Y k.wXeXeXeXeXeXrXeXeXeXeXrXrXrXrXtXtXrXyXtXyXyX X X.X<X<X<X>X1X2X,X2X;X6X;X;XpXsXaXQ.=.- # % - = % % % & @ $ $ ",
"@ @ % @ @ o y E 0XwXwXwXeXeXeXeXeXrXeXrXrXeXrXrXrXrXyXtXyXyXyXyXuXuXXX<X<X<X1X1X1X$X2X;X;X;X:X8XaXsXaX&X>.= $ % % * % % & $ $ $ ",
"@ @ @ @ @ y f.qXwXwXeXeXeXwXeXeXeXeXeXrXrXrXrXrXyXrXtXtXtXtXtX XuX.X.X.XXX<X1X1X1X,X2X$X;X;X;XiXiXaXaXaX=X<.e # - * ; % $ $ $ $ ",
"$ $ @ o t E wXwXwXwXwXeXeXeXeXeXeXeXrXeXrXeXrX].'.M.x.z.y.y.z.p.a.i.i.i.A.^.(.#X>X,X2X5X;X;X;X:XiXaXaXaXsX7X2.e $ - % % % $ & # ",
"$ o o 8 E qXwXwXwXwXwXwXeXeXeXeXrXeXeXrXeXB.x.q.$...N g m l c m l l l l l N  .%.C.L.#X$X5X5X:XaXiXaXaXaXaXsX7X1.: # % % % $ $ $ ",
"@ o 8 R 0XwXwXwXwXwXeXeXwXeXeXeXeXeXH.x.w.#.N v z 5 5 5 3 5 6 3 4 4 5 4 4 k 4 k c M &.S.oX$XiXpXiXaXaXaX8XaXaX7X;.* * * @ % @ $ ",
"o $ Y 0XqXwXqXwXwXwXwXwXwXeXeXeXH.l.#.m x 4 6 6 5 5 x c m _ N _ M c x k z z z x z k z ) +.J.R.iXaXaXaXaXaXaXaX9X!.o.o @ & & @ $ ",
"o S m.qXwXwXwXqXwXwXwXwXeXeXqXb.5.m z 6 6 x x M #.7.y.z.v._._./.~.s.t.*.O.) Q Q x x Q x Q ) ,.U.iXaXaXaX8X8X9XaX8XY.b @ @ @ & $ ",
"7 E qXqXqXwXwXwXwXwXeXeXwXN.q.F z 5 6 6 v X.8.z.B.rXtXtXyXyXyXuXuXuX.X{.).A.*.} ~ Q ! Q ! Q ~ +.J.!.aXaXaXaX8X9X9X8XD.2 # # @ $ ",
"S 0XqXqXwXqXwXwXwXwXeXwXm.6.N 4 5 6 v  .8.M.wXrXrXtXtXtXyXyXyXyXuXXX X3X3X3X|.K.,.` ~ ! ~ ! ! Q { 2.!.aXsXaX8XaX9X9X*X;.% + # @ ",
"E qXqXqXqXwXwXqXwXwXwXn.3.g 4 5 x N $.z.'.tXrXrXrXtXtXtXyXyXyX X X X XXX.X1X4X1X|.L.,.{ ! ( ( Q z z :.=XsXaX8X8X9X9X9XY.b + # @ ",
"j.qXqXqXqXwXqXwXwXwXn.T d 4 5 x _ w.M.eXrXrXrXrXrXtXtXtXtXyXyX X X X X<XXX>X1X1X4X2X(.2.| ( ~ ( ! f z Z.aXaXaX9X9X9X9X*X;.& + @ ",
"m.qXqXqXwXqXwXwXeXn.Y d 4 4 k N y.N.wXrXeXrXrXrXrXtXtXtXtXyXyXyXuXXX XXXXX.X1X>X2X2X2XoXV.} ~ ~ ~ Q f ) T.aXaX9X9X9X9X8XY.r + + ",
"0XqXqXqXqXqXwXqXk.T e 2 4 k n q.N.eXeXrXrXrXrXrXrXrXtXtXyXtXyX X X X X<X3X<X>X>X,X,X2X5X@X,.{ ! ~ Q k f >.7XsX8X9X8X9X9X&XL + + ",
"0XqXqXqXwXqXwXH.T p < 2 2 m 6.N.eXeXeXrXrXeXrXrXrXtX'.v.a.u.u.i.r.A.^..XXX3X3X1X,X,X2X2X5XQ.:.~ Q Q x 1 M W.sX8X8X9X9X9X8X<.% + ",
"0XqXqXqXwXqX0X0.p > < < l 5.H.eXeXeXeXrXrXrXrXrX'.p.%.' ( ( / / / ( O.*.^.|.<X1X2X,X$X2X6X2XJ.| ~ v c k 2 1.8X8X8X8X9X9X9XY.h   ",
"0XqXqXqXwXwXj.Z : > > < P n.wXeXrXeXeXeXeXrX'.z.%.{ ^ / / ^ / / ~ ^ ! ~ } C.).>X1X,X$X;X5XpX-X,.Q x c z < ] %XsX9X8X8X9X9X*XL X ",
"0XqXqXqXqX0XY = : < > F l.eXeXeXeXeXrXeXrXH.u.} ^ ^ ( ( ( ( ( ( ( ( ( ( ! { *.(.#X,X2X2X;X6X;XP.} z Q z 1 s Z.8X9X8X9X9X9X9XZ.& ",
"0XqXqXqX0XE q * : > e R wXeXeXeXeXeXeXeXG.w.{ / / ( ( ( / / ~ ~ ( ( ( ( ( ! ~ *.(.>X$X$X;X6XpX%X:.Q z x 1 e <.8X9X8X9X9X9X9XY.9 ",
"0XqXqX0Xj.S * * > > G H.wXeXeXeXeXeXeXH.u.' ^ ( ( ( ( ( { O.+.*.%.+.{ ( ( ( ! ( C.#X2X$X;X;XpX;XZ.v z c s , =.7X9X8X9X9X9X9X+Xr ",
"0X0X0X0XT 7 * = * e q.wXeXwXeXeXrXeXeXy.X.! / ( ( / { %.p.v.`.[.`.~.e.' ( ( ( ! O.L.$X2X;X;XpXiXP.) z z s < L &X9X8X9X9X9X9X*Xj ",
"m.qX0Xd.y * ; ; ; D m.wXeXeXeXeXrXwXv.$.( ^ { ( ( ( $.v.tXyXyXuXuX X~.+./ ( ( ( ( V.#X;X;X;X;XiXT.{ x z s , @.&XsX8X8X9X9XsX7Xb ",
"m.0Xk.I % * : ; < 4.wXeXeXeXeXeXeXH.8.( ! ( ( ( ( X.c.tXyXyXyXuXuX X^.&./ ( ( ( ! &.#X2X$XpXpXpXT.| z z s , o.*XsX8X9X8X9X9X*Xb ",
"m.k.E y % ; ; ; i g.eXwXwXeXeXeXeXn...! / ( ( / ( 7.eXtXyXtXyXyXuX X^.+.( ( ( ( ~ &.OX5X;X;XpXiXQ.| z f 4 < ;.&XsX9X9X8X9X9X*Xb ",
"E E V % @ * ; ; D H.wXeXwXeXeXeXwXy.) ! ( ~ / ! X.v.tXtXtXyXyXuXuX Xt.{ ( ( ( ( ~ &.OX2X5XpX;XpXQ.@.z c 1 k <.7XsX8X9X9X9X9X*Xb ",
"S V & @ % ; ; : T wXwXeXeXeXeXeXqXw.~ ^ ~ ( ( ( 7.'.yXyXtXyXyXyXyXK.' / ( ( ( ( { ,.#X5X;X;XpXiXT.{ f c 1 c P.8X8X9X8X9X9X9X*Xj ",
"7 @ # @ $ : * q f.wXeXwXwXeXeXeXM.#.x ~ { ~ ( { p.yXtXtXtXyXyXyXc.} ^ / { ( ( ~ { V.#X2X;X;XpXiXP.~ z z 1 [ E.8X9X8X8X9X9X9X+Xj ",
"@ @ # @ % ; ; p j.eXwXeXwXeXeXeXx.) ! ^ ( ~ ( ' v.rXtXtXyXyXyX`.+.^ / ( ( ( ! ~ +.(.2X5X;X;XpX;X2.Q x f s -.&X8X8X8X9X9X9X9X+Xw ",
"@ $ $ & $ ; * p k.wXwXwXeXeXeXeXw.6 x / ( ~ ~ X.M.tXtXtXyXyXyXs.~ W / / / ! ( +.L.,X2X2X;X;XpXQ.@.Q x f l J.7X8X8X8X9X9X9X9XW.9 ",
"$ $ $ $ - % ; a k.wXeXeXwXeXeXeX$.6 Q / ( ~ / X.B.rXyXrXyXyXyX/.O.^ ! ^ ) +.C.).>X2X2X$X5XpX;XJ.( z k k B E.8X9X8X8X8X9X9X9XD.& ",
"$ @ & $ % ; * Z n.wXwXwXwXeXeXqXJ 6 ~ ~ ~ ( ( X.M.rXrXyXtXyXyX}./.t.*.t.^.).|.4X2X2X$X$X6X6XR.@.x x z z 1.7X9X8X8X8X8X8X9X9XZ.. ",
"$ $ $ % % ; * a k.wXwXwXeXeXeXH.K 6 ! ( ) ( ( O.v.rXtXtXtXyXyXuXuX X X.X3X4X3X1X1X,X2X5XpX@X,.~ Q v k ] I.7X8X8X8X8X9X8X9X*XL   ",
"@ @ & $ % ; * Z n.wXeXeXwXeXeXN.J W ! ~ ( ~ ( } p.rXtXrXyXtXyXyX XuXXX3X.X3X1X>X,X2X2X5X@X,.( ! ~ x x :.!.8X8X8X8X8X8X8X9XY.i X ",
"$ $ # % % * * p k.eXwXwXwXeXeXH. .6 v ~ ~ ~ ( ( 7.G.tXyXyXyXtXyX X X.X.X>X<X4X1X1X2X$XoX,.{ ! ~ Q f ) I.8X8X8X8X8X8X8X8X*XZ.7 . ",
"$ # & % % ; * i g.wXwXeXeXeXeXH.$.5 x ~ ~ ( ~ / ' p.eXyXyXyXyXyX X X.X.X<X3X4X1X1X#XL.,.~ ~ ~ Q z s 2.:X8X8X8X8X8X8X8X8X+XL X @ ",
"$ $ # % % ; * : 0.wXeXeXwXeXeXeXq.x z v ~ ~ ~ ~ ^ ' p.[.tXyXyXuXuXXX X.X3X3X<X(.L.V.| ! Q Q Q z z >.7XaX8X8X8X8X8X8X9X8XY.i X + ",
"$ $ % $ $ % ; : U 0XwXwXwXeXeXeXb.N 6 x v v ~ ~ ! ! ) 8.v.].}.tX X X.X.X|.).K.C.O.~ x Q ~ x z z >.=XaXaX8X8X8X8X8X8X9X+X=.+ + @ ",
"$ # @ & % * * * Z n.wXwXeXwXeXeXH.6.x 6 x v v v v x x v _ $.r.i.i.i.t.t.*.+.) x x z v z z z c Z.=XsXaXaXaX8X7X8X8X8X7X<.9 X + @ ",
"@ $ & $ $ = = * q d.wXeXeXwXeXeXeXn.P 6 z z v x v x x x x x v v v v v v z x z z x x z z k } L.;XsXaXaXaX8X8XaX8X8X7XD.h + + $ % ",
"$ $ $ # $ % % * ; H N.eXeXwXeXeXeXeXl.J 4 4 z z z z z x z k z z k z k k k z z z z 4 1 c ;.R.;XaXaXiXaXaXaX8X8X9X7XY.B $ @ @ @ @ ",
"$ $ $ $ & $ : ; ; i f.wXwXeXeXeXeXeXeXv.#.n 4 4 4 4 k k k z k k k k k k k k k 1 1 l X.L.#XpXpXiXiXaXaXaX8X8X8X8XE.B o $ & @ @ @ ",
"@ $ @ & $ & % ; * ; H n.eXeXeXeXeXeXeXeXH.l.5.N l 4 1 < 2 4 4 < 4 4 < 2 < < < l X.C.oX$X6XpX;XiXiX7XaXaXaXaX8XE.=.: # $ & $ # $ ",
"@ $ @ $ % $ % - ; * w 0.0XeXeXeXeXeXtXeXrXrXH.n.l.5.#.g l < < < < < e r n K e.A.).,X2X5X;X;X;XiXiXaXaXaXaX7XY.o.% @ $ $ & $ $ $ ",
"$ @ % & # % $ - - ; ; C j.eXeXeXeXeXrXeXrXrXrXtXrXeX'.M.x.y.w.8.8.r.i.F.).{.>X1X>X2X2X5X;X;X;XpXiX=XaXaX!.Z.b ; O % $ % & @ @ $ ",
"@ @ @ $ # & % $ % % * q Y N.eXeXeXeXeXeXrXeXrXrXrXtXyXrXyXtXyX XyXuXXX3XXX3X1X1X>X2X2X$X;X;X;XiXaXaX=XI.:.k @ O * % & $ $ @ $ $ ",
"& @ $ @ # & $ % % * * * w T n.eXrXeXeXrXeXrXeXrXrXtXtXtXyXyXyXuXuXuX.X<X<X1X1X>X,X,X$X2X;X6XiXsX8X!.2.] : O $ - % $ % # & $ $ $ ",
"@ @ @ $ $ # $ $ # % $ * * q U h.H.eXrXeXeXrXrXrXrXtXtXtXtXyXyX XuX.X.X<X.X<X<X>X>X2X2X;X5X6X;X-XU.=.k % # - % % $ % % % # $ $ $ ",
"$ @ @ $ $ $ $ $ % % @ % o * = a 0.m.H.rXrXrXrXrXrXtXtXtXtXyXyX X}. X.X.X<X<X1X1X1X2X5X5X5X-XU.-.h * % % ; % % % % % $ # @ $ $ $ ",
"$ @ $ $ $ $ & @ # % # - % % o O 0 A q.H.eXrXrXtXrXtXtXtXtXyXyXyXuX X.X<X<X3X4X1X1X>X#XL.V.@.h % @ # $ % % $ % $ $ $ $ $ @ $ @ $ ",
"$ $ @ @ @ @ @ $ $ & $ $ % & $ @ O o 0 A 4.x.M.rXrXtXtXyXyXuXuXyXuXuX X X<X.X|.(.K.e.K r % @ + + # $ % $ % & $ $ @ @ $ $ $ @ @ $ ",
"$ $ @ @ @ @ $ $ $ $ @ @ % @ % # # O O @ % t C H 4.n.B.].].rXrX[.`./.F.A.i.9.$.g q & + o + # @ $ # $ $ & @ % & $ @ @ $ @ @ @ $ $ ",
"@ @ @ @ $ $ @ $ @ @ $ $ @ $ @ @ @ @ @ @ O X o o + 7 u C D G G D Z a p 7 & @ X X   + + # @ @ @ @ $ $ $ $ % @ @ @ @ @ @ $ @ @ @ @ ",
"% @ $ $ $ $ $ @ $ @ $ * $ @ $ $ @ @ @ $ @ @ @ @ + O O X o o . . o O . + + + + @ @ @ @ @ @ @ $ $ $ $ $ $ @ @ % @ % @ % % @ @ $ % "
};
