/* XPM */
static char *out[] = {
/* columns rows colors chars-per-pixel */
"64 32 149 2 ",
"   c #060504",
".  c #090603",
"X  c #0E0A05",
"o  c #0A0A0A",
"O  c #151413",
"+  c #181510",
"@  c #1C1A16",
"#  c #1B1B1B",
"$  c #2C1703",
"%  c #281C0D",
"&  c #221D17",
"*  c #201E1A",
"=  c #2E210F",
"-  c #24211B",
";  c #29241C",
":  c #242424",
">  c #292623",
",  c #2B2926",
"<  c #2D2D2D",
"1  c #322C23",
"2  c #353027",
"3  c #363129",
"4  c #3A342B",
"5  c #353535",
"6  c #383533",
"7  c #3C3836",
"8  c #3D3D3D",
"9  c #492C0F",
"0  c #573E1C",
"q  c #653203",
"w  c #433E35",
"e  c #46413A",
"r  c #4B453D",
"t  c #52493D",
"y  c #63462C",
"u  c #6A4D31",
"i  c #735135",
"p  c #755539",
"a  c #7A573A",
"s  c #775A3F",
"d  c #7C5B3D",
"f  c #454545",
"g  c #484441",
"h  c #4E4941",
"j  c #474748",
"k  c #4D4B49",
"l  c #534D45",
"z  c #5B5446",
"x  c #56534D",
"c  c #5C564B",
"v  c #5F594B",
"b  c #565656",
"n  c #595551",
"m  c #5E5A53",
"M  c #5B5B5B",
"N  c #615647",
"B  c #635A4B",
"V  c #6C5D4B",
"C  c #7E5D42",
"Z  c #645E53",
"A  c #605C59",
"S  c #6E604E",
"D  c #75624D",
"F  c #676256",
"G  c #696356",
"H  c #66625C",
"J  c #68645E",
"K  c #6F695D",
"L  c #7A6650",
"P  c #7F6851",
"I  c #71695D",
"U  c #646464",
"Y  c #696662",
"T  c #6D6A64",
"R  c gray42",
"E  c #716D64",
"W  c #706C68",
"Q  c #777166",
"!  c #7A7266",
"~  c #77726D",
"^  c #7A756B",
"/  c #7E796E",
"(  c #706F70",
")  c #717171",
"_  c #7A7875",
"`  c #777778",
"'  c #787778",
"]  c #777878",
"[  c #7A7978",
"{  c #A25F26",
"}  c #926933",
"|  c #A26026",
" . c #AA7338",
".. c #836143",
"X. c #8C6747",
"o. c #8C6847",
"O. c #86664A",
"+. c #87694E",
"@. c #8F6B4A",
"#. c #906D4D",
"$. c #826A53",
"%. c #8B6D52",
"&. c #8F7054",
"*. c #927052",
"=. c #92755E",
"-. c #8B7865",
";. c #927861",
":. c #817C74",
">. c #827F7D",
",. c #B0874E",
"<. c #B28E59",
"1. c #868077",
"2. c #878379",
"3. c #8C867E",
"4. c #B4976D",
"5. c #B59B6C",
"6. c #B7A57E",
"7. c #878581",
"8. c #8C8783",
"9. c #8E8982",
"0. c #8B8B8B",
"q. c #938D84",
"w. c #938F89",
"e. c #979085",
"r. c #999187",
"t. c #95918A",
"y. c #99958D",
"u. c #949494",
"i. c #989490",
"p. c #9C9994",
"a. c #B29B80",
"s. c #A09C97",
"d. c #A19D99",
"f. c #B8A580",
"g. c #B8AC8B",
"h. c #A3A19D",
"j. c #A9A59F",
"k. c #A3A3A3",
"l. c #A9A6A2",
"z. c #AEABA6",
"x. c #AFAEAC",
"c. c #B1AEAA",
"v. c #B4B1AE",
"b. c #B5B4B2",
"n. c #B9B6B3",
"m. c #BBB9B6",
"M. c #BDBCBB",
"N. c #C0BFBD",
"B. c #C0C0C0",
/* pixels */
"@.#.i u p ..@.@.@.%.$.B z z S F Z ,. .{  .<.5.6.g.6.5.<.,.>.d.c.s.~ A >.d.c.s.( A >.d.c.d.~ A >.d.c.d.~ A >.d.v.>.A w O ' A 7 O ",
"o...y ..@.@.@.#.L N F Q / :.2.9.2 ,. .{  .<.5.6.g.f.5.<.,.d.c.z.z.i.g d.z.z.z.i.g d.c.l.z.i.g d.c.l.z.i.g d.z.l.>.A 5 O >.A 7 O ",
"i u ..i s @.%.B G ^ 1.3.y.p.h.c > ,. .{  .<.5.f.g.f.5.<.,.c.l.l.l.c., c.l.l.l.c., c.l.l.l.c., c.l.l.l.c., c.l.l.>.A w O >.A 7 O ",
"u ..d a %.$.v Q 2.t.i.~ h.j._ & z ,. .{  .<.5.f.g.6.5.<.,.s.z.l.z.8.# p.c.l.z.8.# p.z.l.z.8.# p.z.l.z.8.# p.z.l.>.A w O >.A 7 O ",
"C *.#.;.-.B ^ 9.y.T m 7 s.9.; K B ,. .{  .<.4.6.g.6.5.<.,.~ i.c.8.5 , Y i.c.8.6 , Y i.c.8.6 , Y i.c.8.6 , Y i.z.>.A 7 O >.A 7 O ",
"+.#.#.$.c / q.y.d.d.h - ^ 4 I ! ! ,. .{  .<.4.6.g.f.5.<.,.A g , # , g n g , * , g n g , # , g n g , # , g n g , >.A 7 O >.A 7 O ",
"#.X.%.z Q 3.y.d.h.l.z.w.t.B e.Q c B.N.N.4.,.,.,.,.4.N.B.B.A A n W d.c.s.W k W s.c.d.W k W d.c.d.W k W d.c.d.W k >.A 7 O >.A 7 O ",
"#.#.V G 2.w.p.h.j.z.z.x.9.G 3.e.; B.M.,.,.,.,.,.,.,.,.M.B.Y Y J h.z.l.z.i.g d.z.l.z.i.g d.c.l.z.i.g d.z.l.x.i.g >.A 7 O >.A 7 O ",
"@.$.c 9.w.^ h.j.z.z.z.v.e.2 1 e ; N.,.,.} 0 % % 0 } ,.,.N.J Y A v.l.l.l.c., x.l.l.l.x., c.l.l.l.c., v.l.l.l.z., >.A 7 O >.A 7 O ",
"@.S J h 3 e z z.z.v.v.v.z.! r B t 4.,.} = X . . X = } ,.4.J Y Y d.z.l.z.8.* p.z.l.z.8.* p.z.l.c.8.# p.z.l.z.8.# >.A 7 O >.A 7 O ",
"%.z Q 3.y.x , z.z.c.v.v.v.j.r.t.2 ,.,.0 X .     . X 0 ,.,.J J J ~ i.c.8.6 , Y i.x.8.6 , Y i.x.8.w > Y i.x.8.w : >.A 7 O >.A 7 O ",
"P F / q.p.h.z.z.v.v.v.v.b.b.v.d.1 ,.,.% . .   . . . % ,.,.J J J A g , # , g n g , # , g n g , # , g n g , # , g >.A 7 O >.A 7 O ",
"S K 1.e.d.j.z.c.v.v.v.v.n.m.m.1.& ,.,.% . . . . . . % ,.,.Y J Y H A b W s.x.d.W k W d.c.d.W k W h.x.x.v.x.x.x.x.>.A 7 O >.A 7 O ",
"N I 2.y.d.z.z.c.v.v.n.n.n.n.v.T ; ,.,.0 X   . .   X 0 ,.,.Y J J J Y J h.z.l.z.i.g d.z.l.z.i.g d.z.l.l.l.l.l.l.j.>.A 7 O >.A 7 O ",
"v Q 3.p.h.z.z.v.v.v.n.n.m.m.d.l & 4.,.} % X . . X % } ,.4.A J Y J J J x.l.l.l.z., x.l.l.l.c., c.l.l.l.h.l.l.l.l.>.A 7 O >.A 7 O ",
"z ^ t.t.F z.z.c.v.v.b.n.m.m.^ & w N.,.,.} 0 % % 0 } ,.,.N.J J Y J J J d.z.l.x.8.# s.z.l.c.8.* i.l.l.l.l.l.k.l.l.>.A 7 O >.A 7 O ",
"z Q r * @ l.c.c.v.v.n.n.m.m.h l p.B.M.,.,.,.,.,.,.,.,.M.B.U Y A Y J Y ~ u.c.7.5 , Y y.z.8.6 , Y d.x.v.z.z.x.c.z.>.A 6 O ' A 7 O ",
"z Q 3.r.h.z.c.c.v.b.n.n.m.m.v N y.6.u M.4.,.,.,.<.4.M.B.B.U U U J J J A g , # < g n g , # , g x g > O O O o O O >.A w O >.A 7 O ",
"V K 2.y.h.l.c.c.v.v.b.n.m.m./ r r { q       # j U ` ( M 5 O       ` f ' j ' j ` f B.N.N.B.B.N.N.N.N.B.B.N.N.N.N.>.A w O >.A 7 O ",
"D F _ r.h.l.z.l.v.v.v.n.n.h.G , & 9 $     7 R U j < : < 8 8 #     u.M u.M u.M u.M B.N.N.N.B.B.B.N.N.N.B.N.N.N.N.>.A w O >.A 7 O ",
"&.z / 9.p.i.2.r z.v.v.n.c.4 e r , a.u   5 ) j : # O # # # : : o   x.[ x.] x.] x._ N.N.N.B.B.M.B.N.N.M.B.B.M.N.N.>.A 7 O >.A 7 O ",
"#.z E 2.:.e * J z.v.v.b.y.e r.I 4 | q O M j # 5 U ` ) j : # : O   M.0.B.0.M.0.B.0.N.N.M.M.M.M.M.M.M.M.m.M.M.N.N.>.A 7 O >.A 7 O ",
"@.L F / t.w 9.x.c.v.v.v.r.l ! ! 7 9 $ 5 b : 5 ( R j 8 8 < O # O o x.` x.[ v.[ x.[ M.m.m.M.m.m.m.N.N.N.b.M.N.N.N.>.A 7 O >.A 7 O ",
"@.%.z Q 3.p.h.z.z.c.z.v.z.z + 2 - 6.u f 8 # k U   : o : : O O O o u.M u.M u.M u.M b.n.b.n.n.b.b.N.c.z.N.N.v.x.b.>.A 7 O >.A 7 O ",
"@.@.P v :.3.s.l.z.h.Z p.v.h.3.r.3 { q k : # b 8 o : : : : O o # O ` f ` f [ f ` f b.b.x.b.v.b.b.b.x.b.x.x.v.x.x.>.A 7 O >.A 7 O ",
"@.@.@.S G :.r.d.w.E > c.c.z.j.3.E 9 $ 8 # # f : 8 : < 5 : o   O o ` f [ f ` f [ j k.h.h.h.k.l.k.k.h.k.h.k.k.k.k.>.A 7 O >.A 7 O ",
"p O.@.#.B K 2.y.r @ n z.z.c.c.j.W 6.u < O O : : : : : : # o o O o ` f [ f ` f ` j [ >.[ [ [ [ [ ' >.>.:.' >.>.>.>.A 7 O >.A 7 O ",
"y } u y s B K 1.t.p.l.z.z.z.p./ x { q # # # # # # : # O o   o o o ( 8 ) 8 ) 8 ( 8 k.k.k.k.k.k.k.k.k.k.k.k.k.k.k.>.A 7 O >.A 7 O ",
"y C p a %.%.V G / q.p.h.l.l.1.e - 9 $ o O O # O o o o       o o   U 8 U 5 U 5 U 8 M.M.M.M.M.B.B.M.M.M.M.B.B.M.M.>.A 7 O >.A 7 O ",
"..+...o.=.#.#.$.N G / 3.y.h.y.1 - a.u   o O O O O o     o o o     b < b 5 b < b < k.k.k.k.k.k.k.k.k.k.k.k.l.k.k.>.A 7 O >.A 7 O ",
"@.o.p D o.o.#.@.%.L B F I _ 3.! & { q     o o O O O O O o o       j : j : j : j : ` ' ' ` ` ' ' ' ' ' ' ' ' ' ' >.A 7 O >.A 7 O ",
"@.@.o.;.%.O.o.#.#.@.@.%.L S S K t 9 $         o o o o   o         8 # 8 : 5 : 8 : ' ' ' ` ` ' ' ' ' ' ' ' ' ' ' >.A 7 O >.A 7 O "
};
