/* XPM */
static char *out[] = {
/* columns rows colors chars-per-pixel */
"32 32 29 1 ",
"  c #1D1F22",
". c #202325",
"X c #222628",
"o c #202A2B",
"O c #212A2C",
"+ c #222A2C",
"@ c #222B2D",
"# c #232C2E",
"$ c #262E30",
"% c #2B2F33",
"& c #263132",
"* c #2D3436",
"= c #323538",
"- c #34383B",
"; c #383C40",
": c #393D41",
"> c #41474B",
", c #51565A",
"< c #50555C",
"1 c #5E646A",
"2 c #6B737A",
"3 c #787F86",
"4 c #7D8389",
"5 c #80868C",
"6 c #969A9E",
"7 c #9B9EA2",
"8 c #A0A2A5",
"9 c #A4A6A9",
"0 c #AAACAE",
/* pixels */
"@0997@>>@0997@>>@0997@>>@0997@>,",
"863351**863351**863351**863351*,",
"4233<=**4233<=**4233<=**4233<=*,",
"o-%% oOOo-%% oOOo-%% oOOo-%% oO$",
"7o++o0997o++o0997o++o0997o++o099",
"51**863351**863351**863351**8633",
"<=**4233<=**4233<=**4233<=**4233",
"X&##&:%%X&##&:%%X&##&:%%X&##&:%%",
"&0997&##&0997&##&0997&##&0997&#$",
"863351**863351**863351**863351*,",
"4233<=**4233<=**4233<=**4233<=*,",
"o-%% oOOo-%% oOOo-%% oOOo-%% oO$",
"7o++o0997o++o0997o++o0997o++o099",
"51**863351**863351**863351**8633",
"<=**4233<=**4233<=**4233<=**4233",
"X&##&:%%X&##&:%%X&##&:%%X&##&:%%",
"&0997&##&0997&##&0997&##&0997&#$",
"863351**863351**863351**863351*,",
"4233<=**4233<=**4233<=**4233<=*,",
"o-%% oOOo-%% oOOo-%% oOOo-%% oO$",
"7o++o0997o++o0997o++o0997o++o099",
"51**863351**863351**863351**8633",
"<=**4233<=**4233<=**4233<=**4233",
"X&##&:%%X&##&:%%X&##&:%%X&##&:%%",
"&0997&##&0997&##&0997&##&0997&#$",
"863351**863351**863351**863351*,",
"4233<=**4233<=**4233<=**4233<=*,",
"o-%% oOOo-%% oOOo-%% oOOo-%% oO$",
"7o++o0997o++o0997o++o0997o++o099",
"51**863351**863351**863351**8633",
"<=**4233<=**4233<=**4233<=**4233",
".@>>@;%%.@>>@;%%.@>>@;%%.@>>@;%%"
};
