/* XPM */
static char *out[] = {
/* columns rows colors chars-per-pixel */
"32 64 95 2 ",
"   c None",
".  c #0D0D0D",
"X  c #141414",
"o  c #1B1B1B",
"O  c #232323",
"+  c #2A2A2A",
"@  c #323232",
"#  c gray23",
"$  c #444444",
"%  c #4E4E4E",
"&  c #535353",
"*  c #5A5A5A",
"=  c #676767",
"-  c #727272",
";  c #797979",
":  c #82417F",
">  c #C8A576",
",  c #C8A77A",
"<  c #C8AB7F",
"1  c #3E4F82",
"2  c #5E4B91",
"3  c #624B8F",
"4  c #624E92",
"5  c #675095",
"6  c #695196",
"7  c #67559A",
"8  c #6C559B",
"9  c #73569C",
"0  c #775DA2",
"q  c #7C5BA2",
"w  c #854482",
"e  c #8B4584",
"r  c #924786",
"t  c #934986",
"y  c #984987",
"u  c #954B89",
"i  c #9C4C8B",
"p  c #8D508C",
"a  c #9D528D",
"s  c #9D5490",
"d  c #995994",
"f  c #A34F8D",
"g  c #A4508E",
"h  c #A35692",
"j  c #AC5591",
"k  c #A95C95",
"l  c #B25C96",
"z  c #B95E96",
"x  c #B46299",
"c  c #B8679D",
"v  c #B46B9D",
"b  c #B86D9F",
"n  c #835EA6",
"m  c #8661A7",
"M  c #8760A9",
"N  c #8B63AB",
"B  c #9265AE",
"V  c #966AB1",
"C  c #9C6CB3",
"Z  c #B56EA0",
"A  c #B074A2",
"S  c #BC71A1",
"D  c #BD7AA6",
"F  c #A571B7",
"G  c #A573B9",
"H  c #AA76BB",
"J  c #AE7ABD",
"K  c #B27CBF",
"L  c #B67EC1",
"P  c #B87FC2",
"I  c #838383",
"U  c #8B8B8B",
"Y  c #97B69A",
"T  c #BB82AA",
"R  c #BC89AF",
"E  c #B1BEB3",
"W  c #C8AE83",
"Q  c #C7B38C",
"!  c #C6B594",
"~  c #C6B99B",
"^  c #C086AC",
"/  c #CC8AAB",
"(  c #C28DB1",
")  c #C396B5",
"_  c #C997B4",
"`  c #C499B7",
"'  c #C69DB9",
"]  c #C5BCA4",
"[  c #C5BEAB",
"{  c #C7A2BC",
"}  c #C5BFB0",
"|  c #C5C1B4",
" . c #C5C2B8",
".. c #B680C2",
"X. c #B881C1",
/* pixels */
"Y > Q                   q L L q               / _ { e           ",
"Y , !                     L L L               / _ { T w         ",
"E < !                     5 L L C 4           / _ { { i         ",
"E W ~                     L L ..L G           / _ { ' D e       ",
"Y Q ~                   C P L P L 5           / _ { { { g       ",
"Y Q ]                 0 ..X.P L               / _ { { { T w     ",
"E ! ]               8 ....L V                 / _ { { { { s     ",
"E ~ [               ......8                   / _ { { { { A     ",
"Y ] }               L L                       / _ { { { { i     ",
"E [ |             J L 7                       / _ { { { ` p     ",
"E [  .            J N                         / _ { { { Z       ",
"Y |  .            C H                         / _ { { ` i       ",
"E [  .              L 9                       / _ { { Z w       ",
"Y ] |               N G                       / _ { ^ f         ",
"E ] }                 K L                     / _ { x r         ",
"Y ~ [                   P ..8                 / _ { c w         ",
"U * U                   M P L B               / _ { l w         ",
"U & U                     H P P n             / _ { x e         ",
"U & U                     G L L ..B           / _ { ( u         ",
"U % U                   G L L L n             / _ { { k         ",
"U % U                 N L L C                 / _ { { c e       ",
"I $ I               5 L L                     / _ { { { a       ",
"I $ I               J L                       / _ { { { `       ",
"; # ;             N F                         / _ { { { T       ",
"- # -             L J                         / _ { { ^ e       ",
"= + =             L L                         / _ { ' g         ",
"* + *             V L 9                       / _ { c r         ",
"& O %               L K                       / _ ` i           ",
"$ o $               G L 4                     / _ v e           ",
"# o #                 P P 2                   / _ u             ",
"+ X @                 L P P C                 / _ r             ",
"+ X +                 L P L J                 / _ i             ",
"O X O               ......q                   / _ h             ",
"o . o             K ..L                       / _ v             ",
"o . o               ..K 2                     / _ ) t           ",
"o o o               V ..K                     / _ ' g           ",
"1 1 1                 K ....H 8               / _ { Z e         ",
"1 1 1                   H ........C           / _ { ` i         ",
"1 1 1                     C ........L         / _ { { l         ",
"1 1 1                       5 L L ....9       / _ { { ` y       ",
"1 1 1                           F L H         / _ { { { j       ",
"1 1 1                           N L           / _ { { { _ t     ",
"1 1 1                         m ..L           / _ { { { { k     ",
"1 1 1                         K L L 9         / _ { { { { {     ",
"1 1 1                           K P P 3       / _ ' { { { )     ",
"1 1 1                             H L ..N     / _ { { { ' u     ",
"1 1 1                             n L L L B   / ` { { _ g       ",
"1 1 1                             L L L L B   / _ { ` l e       ",
"1 1 1                           J P K P K     / _ ' S f         ",
"1 1 1                         H L P K H       / _ { z t         ",
"1 1 1                       C P P K 4         / _ { S y         ",
"1 1 1                     C P L F             / _ { _ g         ",
"1 1 1                     L L q               / _ { { x r       ",
"1 1 1                   L ..                  / _ { { { j       ",
"1 1 1                 J L                     / _ { { { ` a     ",
"1 1 1               H L                       / _ { { { { R     ",
"1 1 1             4 L                         / _ { { { { { d   ",
"1 1 1             L                           / _ { { { { { R   ",
"1 1 1           F L                           / _ { { { { T p   ",
"1 1 1           J P                           / _ { { { D r     ",
"1 1 1             J K                         / _ { { ) f       ",
"1 1 1               J L                       / _ { ' g         ",
"1 1 1                 L L N                   / _ { Z w         ",
"1 1 1                   L L C                 / _ {             "
};
