/* XPM */
static char *out[] = {
/* columns rows colors chars-per-pixel */
"64 64 151 2 ",
"   c #060607",
".  c #0A0B0E",
"X  c #0C0E12",
"o  c #0F1014",
"O  c #111216",
"+  c #14161A",
"@  c #17191E",
"#  c #1A1B1F",
"$  c #3B2B1E",
"%  c #1A1D22",
"&  c #1D2127",
"*  c #1F2229",
"=  c #212327",
"-  c #21252C",
";  c #3F2E21",
":  c #283520",
">  c #2E3920",
",  c #333E21",
"<  c #242730",
"1  c #262A33",
"2  c #292D35",
"3  c #2B2F39",
"4  c #2E3237",
"5  c #2D323B",
"6  c #30343E",
"7  c #412F21",
"8  c #453224",
"9  c #493626",
"0  c #4C3827",
"q  c #4A3728",
"w  c #4D3928",
"e  c #523C2A",
"r  c #57412D",
"t  c #5A422E",
"y  c #5E4531",
"u  c #604733",
"i  c #654A36",
"p  c #694D36",
"a  c #6A4E39",
"s  c #6C5039",
"d  c #775232",
"f  c #7A5434",
"g  c #72543C",
"h  c #77583E",
"j  c #78593F",
"k  c #323641",
"l  c #343A44",
"z  c #363C49",
"x  c #393E4A",
"c  c #3C414D",
"v  c #3E4452",
"b  c #3C455D",
"n  c #3E4760",
"m  c #3E4860",
"M  c #404653",
"N  c #424956",
"B  c #40475D",
"V  c #454C5B",
"C  c #494F5E",
"Z  c #4B515E",
"A  c #765941",
"S  c #7A5B43",
"D  c #434B63",
"F  c #434F68",
"G  c #475067",
"H  c #4C5464",
"J  c #46526A",
"K  c #495369",
"L  c #505767",
"P  c #505768",
"I  c #535B6C",
"U  c #4B5770",
"Y  c #4D5A72",
"T  c #545E73",
"R  c #5E636D",
"E  c #556074",
"W  c #5B6475",
"Q  c #5C657B",
"!  c #5E697E",
"~  c #646A74",
"^  c #636B7E",
"/  c #686F79",
"(  c #66707F",
")  c #805F43",
"_  c #846247",
"`  c #866549",
"'  c #88674A",
"]  c #8C6A4D",
"[  c #936D4F",
"{  c #8D6D52",
"}  c #926E52",
"|  c #977255",
" . c #997456",
".. c #967458",
"X. c #9A7659",
"o. c #9C7A5D",
"O. c #9E7D61",
"+. c #A07F64",
"@. c #AE8B1E",
"#. c #B69841",
"$. c #9F8067",
"%. c #A08066",
"&. c #A1846C",
"*. c #A38771",
"=. c #A58A75",
"-. c #A68E7A",
";. c #C7AC62",
":. c #5E6B80",
">. c #646D82",
",. c #686F82",
"<. c #677084",
"1. c #6B7486",
"2. c #6D7689",
"3. c #6F788B",
"4. c #727781",
"5. c #757A83",
"6. c #737C8C",
"7. c #787E88",
"8. c #757E90",
"9. c #7A808C",
"0. c #778092",
"q. c #7B8494",
"w. c #7F8896",
"e. c #7D8699",
"r. c #7F8899",
"t. c #84888F",
"y. c #808795",
"u. c #838996",
"i. c #8A8E95",
"p. c #848C9A",
"a. c #898F9B",
"s. c #8E9197",
"d. c #87909D",
"f. c #8B929E",
"g. c #91959E",
"h. c #95999F",
"j. c #8E95A1",
"k. c #9196A1",
"l. c #9299A3",
"z. c #9A9EA6",
"x. c #9A9FA8",
"c. c #9DA0A7",
"v. c #9EA2A9",
"b. c #A2A5AC",
"n. c #A6A9AF",
"m. c #A8ABAF",
"M. c #A7AAB0",
"N. c #AAADB2",
"B. c #AEB0B4",
"V. c #B1B3B6",
"C. c #B3B5B8",
/* pixels */
"&.&.*.$.&.&.$.$.*.*.$.$.*.*.$.*.&.&.&.*.$.*.$.$.*.$.*.$.$.$.$.=.$.*.$.$.*.*.$.*.$.$.*.$.*.$.$.*.&.&.&.&.$.$.*.*.$.*.&.&.&.&.&.&.",
"&.&.&.*.&.&.*.*.$.$.&.&.*.$.*.$.&.&.&.&.&.*.&.&.*.&.*.$.$.$.=.$.=.$.$.%.$.*.*.$.$.%.*.*.*.*.$.$.&.&.&.&.%.%.&.&.$.*.%.%.&.&.&.&.",
"O.O.O.O.O.O.O.O.$.$.o.$.o.$.$.$.%.O.$.$.o.$.%.o.%.o.$.$.%.%.$.%.$.$.$.$. .%.$.$. .%.%.%.$.$.$.%.%.%.$.$.%.%.%. .$.$.%.| %.%.$.$.",
"$.%.O.$.+.%.$.O.$.$.%.o.$.$.*.-.*.*.%.o.$.o.o.%.o.%.$.%.o.o.%.$.$.$. .%.$.%.$.$.%.%.X.X.$.%.%.$.$.%.%.$. .%.%.%.%.%.%.%.%.%.%.$.",
"=.=.-.-.=.=.-.*.%.%.%.X.%.%.] i u g %.O.O.o.o.O.%.%.$.$.$.$.$.$.%.$.%.%.%.%.$.$.o.%.X.%.$.*.$. .%.%.%.%.%.%.%.%.$.$.$.&.%.&.&.&.",
"r q q q q 8 q A | %.%.%.o.$.9 ; w r &.+.O.O.&.=.$.%.$.o.o.$.o.$.%.$.$.*.$.$.%.%.%.X.%.%.$.g 8 8 , 0  .%. .%.%.*.=.o.o. .] [ %.{ ",
"; 8 w w w w q q 9 f %.%.%.$._ S ] | O.O.o.%.o.j i r r r 0 9 8 8 , e i p j S S %.X.%.o.o.%.$ $ 8 e t p %.%.%.%.f j ; ; ; 7 7 , 0 ",
"y A ' { ' S i y y y &.%.o.%.*.$.%.%.o.o.%.&.0 $ 7 r r y y y i a p p r r 9 0 0 ' %.%.o.%.%.r t s _ ' ] %.%.%.[ $ ; y h j j j j ) ",
"%.%.%.%.%.&.p r r r [ &.%.o.o.%.o.o.o.o.O.&.$ 0 p } +.O.o.o.+.+.%.%.%.%.0 r t ' %.%.X.%.%.%.' [ [ %.%.%.%.%.r 8 y ` $.&.%.%.%.%.",
"%.%.%.%.%.%.| 9 r r e %.$.o.X. .o.O.o.o.%.=.8 e s  .%.+.+.+.+.+.%.%.%.) 9 r u ' %.X.X. .o.%.%.%.%.%.| %.%.%.$ 9 i o.%.%.%.%.%.%.",
"%.*.%.%.%. .%.j 7 r 9 r %.&.%.%.&.*.=.=.=.%.7 0 p | o.o.o.o.o.o.X.X.%.r 0 r t ' %.%.X.X.X.o.o. . .#.%. .%._ 9 r g %.%.o.%.%.%.%.",
"t t _ %. .%.%.%.r 8 0 9 y [ %.%.o.j t e e 0 7 e p o.o.+.%.%.&.+.%.%.%.8 0 e r p %.%.%.%.o.X.%.%...| | %.%.f 9 t ` %.|  . .$.d e ",
"$ $ 0 [ %.|  .%.%.0 0 0 7 7 7 $ $ ; 8 8 0 u j ' ' o.o.o.' g p ` %.X.%.$ 0 0 0 0 [ | %.%.&.%.$.$.O.*.%.O.%.f 0 y %. . . .%.p $ 0 ",
"8 e y ' X.|  .X.%.| r r y t t t i f _ |  .O.o.+.o.o.o.o.$ $ 7 9 %. .%.$ 0 0 0 9 7 8 0 r r r 0 e w g ] &.%.t 9 y %.%. .%.X.t 9 p ",
"9 d '  .%.| | X.| %. .f _ [ | X.O.O.O.O.O.X.o. . . .o.| 9 e i j %. .%.[ _ f f p t e 9 7 $ $ $ $ $ $ $ 8 8 8 e f %.[  . .| %.j S ",
"S |  .%.X.|  .| | | o.X.%.o.X.%.X.X.X. . . . . . . . .o.[ ] | o. . . .%.%.%.%.| [ [ [ ) j j j d i y e w 0 e d %.%.[  .| | | %.%.",
"%.%.| | | | | |  .| | X. .X. .|  .|  .| |  .| | |  .|  .o.o.o. .| | | |  . . .o.X.+.+.+.o. . .| [ [ [ ] ' ] } X. .| |  .| |  . .",
"| [ | | | | | | | | [  .|  .| | | | | | | | | |  . .| | |  .| | | | | | | | | | | | | |  .o.o.X.o.o.o.X.X.X.o.| | | | | | | | | ",
"%. .%. . .%.%. .o.o.X.%.o.o.o.X.X.o.o.o.o.o.o.o.o.o.o.o.o.o.o.o.+.o.o.o.o.o.o.o.o.o.o.o.o.o.+.o.o.o.o.o.O.o.o.o.o.o.o.o.o.+.o.o.",
"[ [ [ [ [ [ [ [ [ [ [ [ [ [ [ [ [ [ [ [ [ [ [ [ [ | [ [ [ [ [ [ [ [ [ [ [ [ [ [ [ [ [ [ [ } [ [ } [ [ [ [ [ } | } [ } [ [ [ [ [ ",
"f f f f d f f f f d f f f f d d f f f f f f f f f f ) f f f f f f f f f f f f f f f f f f d f f f f f d f f f f f f f f f f f f ",
"d d f f d f f f f d f f f f d d f f f f f f f f f f f f f f f f f f f f d f f f f d f d d f f f f f d d f f f f f f f d f f d d ",
"d f f f f f f f f d f f f f d d f d f f f f f f f f f f f f d f f f f f d d f f d d f f d d f f f f f d f f f f f f f d f d d f ",
"d d f f f f f f f f f f f f d d d d f f f f f f f f f f f f d f f f f f d f f f d d f d f f f f f f f d f f f f f f f d f d d d ",
"#.#.#.#.#.#.#.#.#.#.#.#.#.#.#.#.#.#.#.#.#.#.#.#.#.#.#.#.#.#.#.#.#.#.#.#.#.#.#.#.#.#.#.#.#.#.#.#.#.#.#.#.#.#.#.#.#.#.#.#.#.#.#.#.",
";.;.;.;.;.;.;.;.;.;.;.;.;.;.;.;.;.;.;.;.;.;.;.;.;.;.;.;.;.;.;.;.;.;.;.;.;.;.;.;.;.;.;.;.;.;.;.;.;.;.;.;.;.;.;.;.;.;.;.;.;.;.;.;.",
"@.@.@.@.@.@.@.@.@.@.@.@.@.@.@.@.@.@.@.@.@.@.@.@.@.@.@.@.@.@.@.@.@.@.@.@.@.@.@.@.@.@.@.@.@.@.@.@.@.@.@.@.@.@.@.@.@.@.@.@.@.@.@.@.",
": : : > : : : : : : : : : : : : : : : > : : : : : : : : : : : : : : : : : : : : : : : : : : : : : : : : : : : : > : : : : : : : ",
": : : : : : : : : : : : : : : : : : : : : : : : : : : : : : : : : : : : : : : : : : : : : : : : : : : : : : : : : : : : : : : : ",
";.;.;.: : : : : , ;.;.;.: : : : : > ;.;.;.: : : : : : ;.;.;.: : : : : : ;.;.;.: : : : : : ;.;.;.: : : : : : ;.;.;.: : : : : : : ",
";.;.;.: : : : : , ;.;.;.: : : : : > ;.;.;.: : : : : : ;.;.;.: : : : : : ;.;.;.: : : : : : ;.;.;.: : : : : : ;.;.;.: : : : : : : ",
";.;.;.: : : : : , ;.;.;.: : : : : > ;.;.;.: : : : : : ;.;.;.: : : : : : ;.;.;.: : : : : : ;.;.;.: : : : : : ;.;.;.: : : : : : : ",
": : : : : : : : : : : : : : : : : : : : : : : : : : : : : : : : : : : : : : : : : : : : : : : : : : : : : : : : : : : : : : : : ",
": : : : : : : : : : : : : : : : : : : : : : : : : : : : : : : : : : : : : : : : : : : : : : : : : : : : : : : : : : : : : : : : ",
"#.#.#.#.#.#.#.#.#.#.#.#.#.#.#.#.#.#.#.#.#.#.#.#.#.#.#.#.#.#.#.#.#.#.#.#.#.#.#.#.#.#.#.#.#.#.#.#.#.#.#.#.#.#.#.#.#.#.#.#.#.#.#.#.",
";.;.;.;.;.;.;.;.;.;.;.;.;.;.;.;.;.;.;.;.;.;.;.;.;.;.;.;.;.;.;.;.;.;.;.;.;.;.;.;.;.;.;.;.;.;.;.;.;.;.;.;.;.;.;.;.;.;.;.;.;.;.;.;.",
"@.@.@.@.@.@.@.@.@.@.@.@.@.@.@.@.@.@.@.@.@.@.@.@.@.@.@.@.@.@.@.@.@.@.@.@.@.@.@.@.@.@.@.@.@.@.@.@.@.@.@.@.@.@.@.@.@.@.@.@.@.@.@.@.",
"l.l.l.l.l.l.l.j.j.l.l.j.l.l.l.l.l.l.l.j.j.l.l.l.l.l.j.l.l.j.l.v.b.M.B.N.M.b.v.l.l.j.l.j.l.l.j.l.l.l.l.l.l.j.j.l.l.l.l.j.l.l.j.l.",
"v.j.j.j.j.j.l.l.j.l.l.j.l.l.l.j.l.j.j.l.l.l.l.l.j.l.l.j.l.z.N.C.V.B.B.M.M.N.B.N.M.x.j.j.j.l.j.l.j.l.j.l.l.l.l.l.j.v.M.B.V.V.N.v.",
"M.M.M.v.c.j.j.j.j.l.j.j.j.j.j.j.j.l.j.j.j.j.j.l.j.j.l.j.v.C.B.M.b.c.x.l.x.x.c.v.b.b.v.j.p.j.j.j.j.l.j.l.v.B.C.C.C.C.V.N.M.n.x.:.",
"c.v.v.M.m.n.v.l.f.f.j.f.j.j.j.j.j.j.j.j.j.j.j.j.j.j.j.v.C.N.b.z.k.k.k.j.k.j.j.k.k.z.x.x.k.w.p.j.k.l.B.C.C.B.M.b.v.v.j.r.3.<.I l ",
"j.j.l.l.c.v.v.n.b.z.d.d.f.f.f.j.j.j.d.j.f.j.f.d.j.f.z.B.N.v.k.f.p.8.6.1.,.2.8.p.d.j.j.z.z.f.6.p.j.N.N.n.l.u.1.W I b l * * & & * ",
"r.d.d.d.d.g.l.c.c.v.b.l.d.w.d.d.r.j.r.j.f.d.d.d.f.k.N.N.z.f.p.6.T x 1 % % < x T 3.u.a.d.j.k.e.1.e.u.8.T z * % % * * * 1 5 k l c ",
"& @ H e.d.d.r.d.f.f.z.v.b.v.f.s.j.r.d.r.r.d.f.r.a.b.N.z.f.e.1.v % % - 1 3 6 5 3 N ^ e.p.d.f.p.<.,.2.x % % * 5 l c c v H W ( 1.<.",
"2 1 1 * 1 <.w.r.r.d.d.f.l.c.v.m.n.n.n.v.l.q.w.w.f.m.b.f.y.2.c % - k V P ~ >.>.T N H ,.q.u.p.p.6.I ,.^ C x N R 6.f.v.n.N.m.B.b.d.",
"v v v k 1 * < ^ q.w.w.w.w.d.g.l.c.c.c.v.l.( ( q.k.b.k.y.0.I * & l I 8.l.b.b.l.8.,.P W 2.q.y.u.6.P I 2.6.1.m.B.N.N.m.b.v.c.v.s.E ",
"0.0.E c k 3 2 * v 0.q.q.q.q.q.0.0.q.w.w.0.Z Z 1.z.z.a.0.<.l # 3 I p.V.V.B.M.n.x.2.<.W / 6.0.q.3.H v ^ q.N.N.v.z.h.f.p.y.w.w.<.c ",
"0.0.0.v k c l 5 1 * I 0.0.0.0.0.0.0.0.9.! c c ! l.g.w.6.W 3 = M 3.B.B.v.z.k.l.j.q.T ^ W 6.8.0.2.H k E u.m.l.y.0.0.0.0.0.0.9.Q c ",
"2.0.3.v 4 k c 6 5 1 * & 6 ( 0.3.0.6.8.6.^ v k W k.s.0.6.T 3 3 I l.M.x.j.d.d.d.d.8.P I ^ 6.8.7.<.C 5 H s.l.p.6.6.7.8.8.6.6.8.Q x ",
"3.3.3.l < 6 l c l c l 6 c c Z 1.3.3.3.3.^ v 6 I f.y.3.3.W x 6 W x.x.j.d.p.r.p.e.2.N M ~ 6.q.8.,.V 2 N 9.g.0.6.6.6.3.6.3.3.3.W l ",
"<.W l # < 6 M Z E / / 9.t.9.1.1.1.1.1.1.^ C k H 7.8.1.1.^ N 6 E j.j.e.e.e.e.e.e.^ z 6 I 8.p.6.^ M - v 7.a.6.2.1.<.2.2.2.2.1.I l ",
"* + @ * 5 Z ~ 5.9.s.h.i.3.<.<.<.<.<.>.<.>.H l M Q >.>.<.^ I x C 8.e.e.8.e.e.8.2.V - 2 L y.p.3.T l * x q.p.2.>.>.,.>.>.<.,.,.P 6 ",
"* * 4 v R 9.s.f.9.1.^ ^ ! ! Q Q ! ! ^ Q ^ I c l H E Q ! ^ Q I N :.>.>.<.2.2.Q N - + 1 H a.p.,.P 5 & x 6.0.<.>.>.>.>.>.>.>.>.H 3 ",
"3 v ( 9.s.t.<.! Q Q W E Z Z V N V H I Q ! W H l V H I W Q ^ <.^ 2.G x x v x 1 + O % k ^ k.q.^ V 1 % c <.6.^ ! Q Q Q Q Q Q Q C 3 ",
"v ~ 4.! Q W W E I H v 6 - # @ @ % * k V P E Y V M C V V H E :.6.y.^ k % + O o X o 1 N p.g.,.T x % * c ^ <.Q I H V M c x x x 3 = ",
"E E E E E I G v l * O o o + @ # # % % < z H E Q Z c c l l x N H H D x 1 + .   X - M 4.z.q.Q V 2 + - v H K v k 1 % X o o o o O % ",
"K P K G V c 4 @ o o O # * 1 6 l l l k 3 1 c H E E N z z 1 % % & - * % O X X + < x >.c.a.>.H z % o < N N 3 + o X X + % % * * * 4 ",
"6 l k 5 & o X o O % < z 9.h.h.g.0.C v v k 3 c G T ! T c l 3 & @ + o o + % % 2 M 7.c.k.>.K x * o % 6 V V k % % % < 3 l x x M v Z ",
"# o X X o o + % 1 6 c v.z.d.9.9.0.9.( v v l 6 v F Y >.3.H l k 6 3 1 1 2 6 x ^ g.x.p.>.G x * X o - z D G x l k k x N D G K K G T ",
"1 & % + # * 3 6 E z.v.s.<.Y U K Y Q <.! c c 6 5 z B K Q 3.9.<.W I G D T 5.k.z.a.3.T N k % X X % k x G D D D D D D F G F D D G T ",
"c k 5 5 k I k.b.v.f.8.Q U G F D G G J Y Y l 6 4 < 5 c B Y >.6.y.f.j.k.k.g.p.2.T D l < + . X % k x B D D D D D n D D D F D D D U ",
"h.h.0.s.v.c.g.9.>.Y F D m m D m b b b G J V 4 6 1 & < 5 z v n F U E E T K b x 6 < @ . . o % 1 x D n b n D D n n n n n D D n n P ",
"B m G J m z 6 4 2 1 1 2 1 3 1 1 2 1 1 1 5 3 1 1 6 2 % # % - = & * - - = * % @ o . . X O % 3 z x b n x n n x b b b b n x b n b D ",
"2 @ % @ + + + + + @ # # # # # # # % % % # # # < c M c 4 = # @ @ @ + + + + + + @ % = 1 k v D G G J J J J K F K K F F G G K K K T "
};
