/* XPM */
static char *out[] = {
/* columns rows colors chars-per-pixel */
"64 64 220 2 ",
"   c #0D0C0A",
".  c #12110E",
"X  c #171613",
"o  c #1F1C19",
"O  c #350A12",
"+  c #281B18",
"@  c #24211D",
"#  c #282621",
"$  c #3D2621",
"%  c #332C27",
"&  c #2E2F34",
"*  c #2D323D",
"=  c #3C3832",
"-  c #430B15",
";  c #470C18",
":  c #530E1B",
">  c #4A111D",
",  c #5A111E",
"<  c #61101F",
"1  c #4B1220",
"2  c #571725",
"3  c #5C1423",
"4  c #631524",
"5  c #6C1324",
"6  c #671B2B",
"7  c #721728",
"8  c #741A2D",
"9  c #6F1E31",
"0  c #721F32",
"q  c #7C1E31",
"w  c #423E38",
"e  c #583731",
"r  c #573932",
"t  c #593831",
"y  c #6A2735",
"u  c #782437",
"i  c #7E2538",
"p  c #65303B",
"a  c #45413D",
"s  c #564B3C",
"d  c #64463A",
"f  c #343A44",
"g  c #353C47",
"h  c #2D3154",
"j  c #292768",
"k  c #302F72",
"l  c #7D2E42",
"z  c #753743",
"x  c #7D3E4C",
"c  c #3C424D",
"v  c #2D435A",
"b  c #3A4757",
"n  c #3A4E60",
"m  c #3B5267",
"M  c #4B4945",
"N  c #524D46",
"B  c #5C5246",
"V  c #444B55",
"C  c #444B56",
"Z  c #47505B",
"A  c #4C535C",
"S  c #53555A",
"D  c #7A4B46",
"F  c #7E4F47",
"G  c #63594A",
"H  c #655948",
"J  c #7A5348",
"K  c #70614E",
"L  c #686157",
"P  c #6C665D",
"I  c #756754",
"U  c #7B6C56",
"Y  c #7D6E59",
"T  c #7F705A",
"R  c #475869",
"E  c #535B64",
"W  c #575E67",
"Q  c #445A72",
"!  c #535F75",
"~  c #58616A",
"^  c #4D637A",
"/  c #5B6774",
"(  c #6B6966",
")  c #726D66",
"_  c #797267",
"`  c #616C77",
"'  c #636D7A",
"]  c #67727D",
"[  c #7B7975",
"{  c #85263B",
"}  c #88263B",
"|  c #842B41",
" . c #8A2C41",
".. c #932F44",
"X. c #893547",
"o. c #933046",
"O. c #93354B",
"+. c #9C364D",
"@. c #9A384F",
"#. c #963B51",
"$. c #9C3C53",
"%. c #A33C53",
"&. c #87504F",
"*. c #854352",
"=. c #8C4A59",
"-. c #984557",
";. c #934D5C",
":. c #A2445A",
">. c #A4445B",
",. c #8A6755",
"<. c #976B5F",
"1. c #81725E",
"2. c #9D5565",
"3. c #9A5A67",
"4. c #A84C63",
"5. c #A95569",
"6. c #A45B6B",
"7. c #B05D72",
"8. c #9C6A60",
"9. c #847562",
"0. c #877865",
"q. c #887967",
"w. c #877C6C",
"e. c #8A7D6A",
"r. c #807C77",
"t. c #A7606F",
"y. c #A66674",
"u. c #A86A78",
"i. c #AD7E72",
"p. c #A87879",
"a. c #8D806E",
"s. c #8D8170",
"d. c #8B857B",
"f. c #918676",
"g. c #978C7D",
"h. c #A48274",
"j. c #393691",
"k. c #526B82",
"l. c #5C7388",
"z. c #697585",
"x. c #6E7B85",
"c. c #737C87",
"v. c #727C8B",
"b. c #687695",
"n. c #4F4FBC",
"m. c #5B5CC8",
"M. c #6B67CD",
"N. c #AC7682",
"B. c #AB7C86",
"V. c #B17B87",
"C. c #75828B",
"Z. c #7B838D",
"A. c #6C8194",
"S. c #7C8591",
"D. c #7E8994",
"F. c #7A899C",
"G. c #7D90A1",
"H. c #8A8885",
"J. c #978E81",
"K. c #958E85",
"L. c #9A9082",
"P. c #97938E",
"I. c #848A94",
"U. c #838C96",
"Y. c #848D9B",
"T. c #86919A",
"R. c #8C939C",
"E. c #979796",
"W. c #AE848E",
"Q. c #B18886",
"!. c #B39489",
"~. c #B08E96",
"^. c #A19A91",
"/. c #A09D99",
"(. c #B09095",
"). c #A2A19E",
"_. c #838EA1",
"`. c #8D95A4",
"'. c #8998A7",
"]. c #9097A3",
"[. c #929AA4",
"{. c #999EA6",
"}. c #959CA9",
"|. c #989FAB",
" X c #B39BA1",
".X c #98A1AA",
"XX c #9DA3AD",
"oX c #95A4B1",
"OX c #9AA6B2",
"+X c #9DAAB5",
"@X c #A8A5A2",
"#X c #A8A6A4",
"$X c #A0A5AF",
"%X c #A1A8AF",
"&X c #AEACA9",
"*X c #B3A9AA",
"=X c #B2B1AE",
"-X c #A1A7B0",
";X c #A4ABB3",
":X c #AAAEB5",
">X c #A3AFB9",
",X c #B8ADB0",
"<X c #A6B0B7",
"1X c #ACB1B7",
"2X c #A6B1BA",
"3X c #ADB3B9",
"4X c #B6B4B2",
"5X c #BAB6B6",
"6X c #BAB9B7",
"7X c #B2B5BA",
"8X c #B9B7BC",
"9X c #B4B9BE",
"0X c #BABABD",
"qX c #938CCA",
"wX c #A29DC8",
"eX c #AFABC7",
"rX c #B6BCC0",
"tX c #B9BCC0",
"yX c #BEC1C3",
"uX c #C4C4C4",
/* pixels */
"XXXX$XXXXX$X$X$X$X|.XXXX$XXXXX$XXXXX$XXXXX$X$XXX$XXXXXXX$X$X$X$X..+.:.4.t.7.7.4.:.#.o. .{ 9 6 u l  .uXuXuXuXuXuXuX5X@X~.~.~.~.~.",
"tXtXtX0XtXtX8XtXtXtXtXtXtXtXtX8XtXtXtXtXtXtXtXtXtXtX8XtXtX8XtXtXo.+.:.4.5.7.5.4.:.#.X. .i 9 6 9 i | uXuXuXuXuX0X*X~.~.~.t.=.*.*.",
"XX$X$XXX$X$X$X$X$X$X$XXXXXXX$X$XXX$X$X$XXXXX$XXXXX$X$X$X$X$X$X$X .#.$.4.5.7.7.4.:.#... .i 0 6 9 {  .uXuXuXuX5X X~.W.2.x x *.*.;.",
"v.v.v.v.v.v.v.v.v.v.v.v.v.v.v.v.v.v.v.v.v.v.v.v.v.v.v.v.v.v.v.b.o.#.:.4.5.7.5.4.%.O. .| q 0 6 9 q  .uXuXuX5X X~.y.#.D #.;.3.u.N.",
";X-X-X;X;X:X1X1X7X1X7X7X1X1X:X:X:X-X-X-X-X-X-X|.`.`.`.|.-X-X-X-X9 y l X.#.-.#.X.l y 6 2 2 1 1 1 2 2 uXuX6X X~.6.x X.;.y.B.B.B.B.",
"-X-X;X;X;X:X1X1X1X7X7X7X7X1X1X:X;X;X;X-X-X;X|.|.}.`.}.|.OX-X-X-Xu | O.$.4.4.4.-.O.l l 8 9 2 1 6 9 0 uXuX*X~.y.x =.2.B.B.N.2.;.;.",
"-X-X;X;X;X;X1X1X7X1X7X1X7X1X:X:X;X;X-X-X;X-X-X|.`.`.`.|.OX-X-X-XN.N.N.N.V.~.B.B.B.N.y.y.3.=.x F 3.y.uX8X~.W.*.*.2.B.B.2.;.;.3.t.",
"-X-X-X;X;X:X1X1X1X7X7X7X1X1X:X:X;X;X-X-X-X-X|.|.}.`.`.|.$X-X-X-X;.;.N.N.V.V.N.N.t.3.;.;.X.z z l X.;.uX X~.5.x =.B.B.;.;.6.y.y.y.",
"-XXX-X-X;X:X:X:X1XeX1X7X1X1X1X:X;X;X-X-X-XOX|.|.`.`.`.}.$X-X-X-X| ..$.:.4.7.4.>.$...| { q 6 3 6 7 { 0X~.W.x *.y.B.3.;.t.y.y.y.y.",
"-X$X-X$X;X:X:X=X1X7X7X8X1X1X1X;X;X;X-XXX$X$X-X{.`.`.`.}.|.$X$X-X} ..+.:.4.5.4.>.+...} q 8 6 3 5 8 { ,X~.y.x ;.B.N.=.6.y.y.y.t.N.",
"I.I.I.I.I.I.R.R.R.R.R.E.R.P.I.I.D.D.B.I.I.Z.v.c.z.z.z.v.v.I.I.v.9 u | O.$.:.$.O. .u 9 5 4 2 > 2 4 5 *X~.=.*.6.B.2.;.y.t.y.y.y.y.",
"W A A S S E E W W ( ~ W W W W W A Z n A Z A A C C g V V A A A A 3 6 u l X.O.O.| u 6 3 : 1 O O - > 1  X(.X.*.u.B.=.2.y.N.y.y.y.y.",
"_.R.R.].].[.{.{.{.$X$X{.{.{.{.].].R.].R.R.R.Y.D.v.b.B.F.Y.R.R.R.9 i | O.$.>.$.O.| i 9 6 < : > : 4 5 (.(.x *.N.B.=.6.y.y.y.y.y.y.",
":X7X7X7X7X7X5X0X0X8X8XtX8XtX8X8X8X7X7X7X7X7X7X1X1X:X+XeX7X7X7X1X2.N.N.N.V.V.V.N.N.N.6.2.;.x z x ;.3.tXtXc.Y.:X3XI.OX-X-XOX+X-X-X",
"-X:X:X1X1X7X7X7X7X8X8X8X8X7X7X1X:X1X:X:X:X:X:X;XOXXXOX+X:X:X:X:XO.-.2.7.N.N.N.7.:.:.#.X.l l 2 y l O.tXrXv.I.:X3XI.|.-X-X-X-X-X-X",
"$XXX$X$X;X;X:X:X:X3X7X1X:X1X:X;X-X-X-X$X|.OX.X].`._.`.[..XXXXX$Xq { o.$.>.>.%.+. .{ u 8 7 3 1 3 5 8 tXtXv.I.;X1XR.|.-X-X-X+X-X-X",
"B.b.Z.Z.Z.I.I.I.I.R.R.R.R.I.I.I.Z.Z.v.v.B.C.x.z.z./ z.z.v.v.C.c.q { ..@.>.>.:.$...} { 8 5 , : , 5 8 0XtXI.I.{.1X{.R.-X-X-X$X-X-X",
"E b V V C A A S E S S S S S A Z V V V V b b V c g g g g V V V V 4 9 i  .o.$.o.| i 8 < 3 : ; - ; 2 , 0XtX$XZ.R.1X:XR.|.-X-X-X-X-X",
"T.Y.T.R.R.`.].{.{.{.{.}.{.{.].`.R.R.Y.I.Y.Y.D.S.v.b.b.v.B.T.Y.U.: 3 6 u {  .{ u 6 2 : ; - O O O - ; yX8X9XZ.I.$X1X}.R.-X$X-X-X$X",
";X1X3X7X7X7X8X5X0X0XtX8X0X8X8X8X5X7X7X7X7X3X3X:X:X:X1X:XwX3X1X3X4 8 i  .O.@.O.} i 8 4 4 : ; O - : < uX8XtXR.Z.R.1X3XR.R.XX$X$X;X",
"-X:X:X:X1X1X7X7X8X7XrXtX7X7X7X:X1X:X:X:X;X:X;X$XXX}.XX-X;X:X;X:X2.3.y.u.i.V.N.p.y.3.;.;.&.z p z *.;.uXuX6X9XI.Z.].1X1X{.R.R.|.XX",
"|.|.$X|.$X;X;X;X1X1X:X:X:X:X;X;X-X$X|.$X{.XX}.`._._._.`.|.|.|.|.X.#.;.2.t.7.7.4.-.-.*.{ u 6 2 y u | uXuXyX9X$XZ.I.].3X3X;X{.R.R.",
"|.|.XX-X$X$X;X:X:X:X7X:X:X:X:X-XXXXX|.|.|.|.}.`._.F._.`.}.XX|.XX7 q } o.+.>.+.+.} q 7 5 < : ; : 4 5 uXuXuX0XrX.Xv.I.R.-X1X1X1X1X",
"|.|.|.XX$X;X;X:X:X7X:X3X:X;X;X-XXXXXOX|.|.|.}.`._.F._.`.}.|.|.|.7 { } o.+.>.+.} } { q < < : ; : < 5 uXuXuXyX7X0X$XI.v.I.R.|.;X:X",
"|.|.|.-XXX-X;X:X:X:X1X1X:X;X;X-X-XXXXX|.|.|.}.'.F.F._.`.}.}.|.|.7 q } ..+.%.+.o.} q 7 5 < : - : , 5 uXuXuXuXyX8X7X8X[.Z.c.I.I.R.",
"|.|.|.$XXX-X;X:X:X:X3X:X:X:X;X-XXXXXXX|.|..X}.`._.F._._.}.|.|.|.7 q } o.+.+.+.o.} q 7 < < : - : , 5 uXuXuXuXuXuXtX7X8X7X$XR.v.I.",
"|.|.|.|.$X-X;X;X:X:X1X:X:X;X-X-XXXXX}.}.}.}.`.`._.F._._.}.}.|.}.  + # @ % = + o o X X X X .     + M           uXuXyXtX8X8X8X0XtX",
"}.|.|.|.$X$X;X;X:X:X1X:X:X;X;X-XXXXX|.}.}.}.}.`._.v._.`.`.|.}.}.  # = = ( @X@X).E.P.d.[ [ d./.=X6X6XP L L % X uXuXuXuXuXtXyXtXtX",
"].].`.`.].].].].`.}.`.].].].`.].`.`.].].].].].].`.`.`.].].].`.].  % = a d.#X@X@X#X&X=X4X5X5X0X6X&X5X#XP.K.) a d J <.h.Q.i.8.J s ",
"rXrX8XrXrXrXeXrXeXrXrX8XrXrXrXrXeXrXrXrXeXrX9X8XtXeXrXrX7XrXrXrXX P P P P.#X=X4X6X6X6X6X4X[ 6X6XS 4X=X#X@X@X( $ r F <.i.8.F t $ ",
"`.].`.].`.`.].`.].].].].`.`.`.`.[.].].].].].].].}.].`.].`.`.].`.  P P.#X6X6X6X6X6X6X&X4X6X( &X0Xd.E.4X#X@X@Xa $ r F 8.i.8.F e $ ",
"! ! ! ! ! ! ! ! ! ! ! ! ! ! ! ! ! ! ! ! ^ ! ! ! ! ! ! ! ! ! ! !   L &X6X6X4X6X6X6X6X[ ).6XH.E.6X#X[ 6X#X@X@Xo $ r J 8.i.8.F e $ ",
"G T g./.^.^.^.^.^.P.^.^.^.^.^.^.^.^.^.^.^.^.^.^.^.^.^.^.^.^.E.a.  S #X6XE.Z.6X6X6X6XE.H.6X).r.6X6X( =X&X#X/.. $ s d 8.i.8.F t $ ",
"G a.d.K.L.K.f.d.d.w.a.a.a.a.d.f.g.L.L.^.^.^.^.^.^.^.^.E.^.^.^._ . G /.6X&XL 6X6X6X6X=X( 6X6XN 6X6XE.&X=X#XK.  + $ t F ,.F t $ + ",
"G a.a.T _ a.a.T a._ a._ w.w.a.1.0._ _ _ T T _ _ _ a.w.s.f.f.L.9.X B P.6X6XS =X6XP.P.6X( &X6X( %X6X6X6X6X#Xr.. ,.8.h.g.!.h.h.8.,.",
"B a.s.a.a.a.s.s.a.a.s.s.s.a.s.s.s.s.s.s.s.s.a.a.a.a.q.w.w.q.q.a.X N H.6X6Xd.E.6X%XP 6XH.E.6XH.P.6X6X6X6X&XT   s &.<.h.!.h.<.J d ",
"G s.s.s.s.s.s.s.a.s.s.s.s.s.s.s.s.s.s.s.s.a.s.s.a.a.a.s.s.s.s.s.X s r.6X6X).K.6X6Xs 3X#X[ 6X#X( 6X6X6X6X=XP . $ t F 8.i.8.&.s $ ",
"G s.s.s.s.s.s.s.s.s.s.s.s.s.s.s.s.s.a.s.s.s.s.s.a.a.s.s.s.s.s.s.o a ) 6X6X6X6X6X6X[ E.4X( 4X6Xw 6X6X6X6X=XP o $ t F 8.i.8.&.t $ ",
"G s.s.s.a.a.s.s.s.s.s.s.s.s.f.a.s.s.s.s.s.s.s.s.s.s.s.s.a.s.a.a.@ w P 6X6X6X6X6X6X).) 6X[ %X6X( ).6X6X6X=XP # $ t F 8.h.8.F t $ ",
"G s.s.s.f.a.s.s.s.s.s.s.s.a.a.a.s.s.s.s.s.s.s.s.s.s.s.s.a.a.f.a.@ = P 4X6X6X6X6X6XrXM 6X#X&X6X6X4X=X&X#Xr.P & % t F 8.h.8.d t $ ",
"G f.g.f.f.f.f.f.g.f.f.f.f.f.g.f.f.f.f.f.f.f.f.f.f.f.f.f.f.f.g.f.# = P #X6X6X6X6X6X9X6X4X=X&X&X#X@X@X@X@Xa #   + $ t F &.F d $ + ",
"L g.g.g.g.g.g.g.g.g.g.g.g.g.g.g.g.g.g.g.g.g.g.g.g.g.g.g.g.g.g.g.    % [ 6X6X&X^._ M @ o o o % a L ( r.r.@ o   ,.8.h.!.!.h.h.8.,.",
"I g.L.L.L.L.g.g.L.L.L.g.g.g.L.L.g.L.L.L.L.L.L.g.L.L.L.L.L.L.g.L.x.C.C.C.D.D.T.T.R.R.[..XoX%X%X&X<X3X3X9X6X9X9Xs &.8.h.!.h.,.J d ",
"L g.g.g.g.g.g.g.g.g.g.g.g.g.g.g.g.g.g.g.g.g.g.g.g.g.g.g.g.g.g.g.C.A.C.C.D.D.D.T.R.[.{..X#X%X<X<X<X3X3X9X7X9X6X$ d d 8.h.8.F d $ ",
"H f.f.f.g.f.f.f.f.f.f.f.f.f.f.f.f.f.f.f.g.f.f.f.f.f.f.f.f.f.f.f.x.x.C.C.C.D.U.T.R..X{..X.X%X%X<X<X3X3X9X9X9X9X$ t F 8.i.8.F t $ ",
"H s.s.s.s.s.s.s.s.s.s.s.s.s.s.s.s.s.s.s.a.s.s.s.a.a.a.a.a.a.a.a.x.C.C.C.S.D.T.T.R.'.[..X#X%X%X<X=X3X3X9X9X9XrX% t F 8.h.8.F t $ ",
"H s.a.a.a.a.s.a.a.a.a.a.a.a.a.a.a.a.a.a.a.a.a.a.a.a.a.a.a.a.a.a.C.A.C.C.S.D.D.R.R.[.[..X.X%X%X<X<X3X3X9X9X9X6X$ t F 8.h.8.F t $ ",
"H s.a.a.a.a.a.a.a.a.a.a.a.a.a.a.a.a.a.a.a.a.a.a.a.a.a.a.a.a.a.a.x.x.x.C.S.D.G.T.[.[.{..X%X%X%X<X<X3X3X3XrX6X6XO $ t F &.D t $ + ",
"H a.a.a.a.a.a.a.a.0.a.a.a.a.a.q.a.a.q.a.a.a.a.a.a.a.a.a.a.a.a.a.x.x.x.C.R.<XrX;X] x.x.c.v.v.S.S.D.T.T.E.[.XX.X;X<X3X9X9X9XrXrX9X",
"B a.a.a.a.a.0.a.q.a.a.q.0.a.q.a.a.e.a.q.a.q.a.q.q.a.a.0.e.a.q.a.] C..X%X&X{.[.rXx.' / XXC.' Q m.m.m.b.x.] S.Z.] ] C.XX7X9X7XT.D.",
"s a.9.a.a.q.a.a.a.a.q.a.0.a.a.0.q.a.q.a.q.q.a.a.a.a.q.q.e.q.e.e.E T.] w f f c <X' ~ c rXY.c n.M.wXwXM.b.E R./ / Z Z.Z.c ] rXyX%X",
"B a.T a.0.a.1.0.0.0.a.0.q.0.a.q.q.a.q.q.q.a.1.a.q.1.a.q.a.a.1.e.c ] b c c / D.~ c Z g R.V k n.qXeXyXM.n.' U.A W Z C.C.* & c 9XrX",
"s a.1.a.1.a.a.0.a.1.q.q.0.q.q.q.q.q.q.a.q.q.q.q.q.q.a.q.q.q.a.q.c ] / S C.x.~ A c c c ` * k n.M.wXwXm.m F.;X}.` / ` S Z * * .X%X",
"s a.a.1.a.1.1.a.1.a.1.a.0.0.1.q.0.0.q.1.0.0.0.0.a.1.1.q.1.q.1.a.* c C.E ` ~ A Z / R.D./ g h j.n.m.m.k j b Z ;X1XT.` W c & b <XC.",
"s a.1.a.1.a.1.1.e.1.q.1.1.a.q.q.0.0.0.0.0.0.q.0.1.a.1.q.a.q.1.1.f * D.C.c.R.{.T.] Z V A b c h j j.j j z.E f * V ] R.{.` Z U.T.b ",
"s a.1.1.1.1.1.a.q.1.1.a.1.1.1.1.0.1.1.0.1.1.1.0.1.1.1.q.1.1.1.a.n & f b V c f c c Z Z ~ ~ R v v j j ] z.z.` c f * c c S ] ~ V V ",
"s 0.1.9.0.1.9.1.1.1.1.1.1.1.1.a.9.1.9.9.1.9.1.1.1.0.1.9.T 0.T 0.v b m Q k.l.A.G.'..XOX>X<X3X3XrX9XrX9XrXrXrX3XrXrXyXyXyXyXrX9X9X",
"s 1.1.1.1.1.1.1.1.1.1.1.1.1.1.1.1.1.1.1.1.1.1.1.1.1.1.9.1.T 0.T v n m ^ l.A.G.G.oX+X>X2XrXrXrXrXrXrXrXyXyXyXyXyXyXyXyXyXyXyXrX9X",
"s 1.T 1.T 1.T T 1.1.1.1.1.1.1.1.T T T 1.1.1.1.1.T T 9.T T T T T v v m Q ^ l.A.A.G.'.oXOX+X<X<X<X3X3X3X3X3X3X3XrX9XrXrXrXyXyXyXyX",
"s 1.T T T T T T 1.1.1.1.I K K K K I T T 1.Y T T T T T T T T T T v v m Q ^ l.A.G.'.oX<X3X3XrXrX9XrXrXrXrXyXyXyXyXyXyXyXyXyXyXyXyX",
"s Y Y Y Y Y Y Y Y Y Y U U g.g.g.d.0.I Y Y T Y T T T Y T T U T T R Q ^ ] A.A.T.[..XOX<X<X2X9X3X3X3X2X3X9X3X3XrXrX9XrXrXrXrX9X3X3X",
"s Y Y Y Y Y Y Y Y Y Y I K g.g.g.J.w.K Y U Y U Y T T Y U U T U U n b n m Q ^ l.A.G.G.'.oX+X>X+X+X<X+X+X+X+X<X+X+XOXOXOX+XOXOXOXOX",
"s Y Y U U U U U Y U Y I K L.g.g.g.U K U U U U U U U U U U U U U n n m R ^ l.A.G.'..XOX>X<X<X<X2X<X<X<X2X2X2X2X2X2X2X2X2X2X2X>X>X",
"s U U U U U U U U U U U K g.g.g.g.I I U U U U U U U U U U U U U n b * v n m ^ A.G.G.'.oX+X+X+X+X>X<X<X<X>X>X>X+X+X+XOXOXOXOXOXOX"
};
