/* XPM */
static char *out[] = {
/* columns rows colors chars-per-pixel */
"32 64 58 1 ",
"  c #423F3B",
". c #4A4540",
"X c #4D4944",
"o c #514B45",
"O c #524E4A",
"+ c #56514C",
"@ c #5C554D",
"# c #5C5651",
"$ c #5E5A55",
"% c #635C55",
"& c #635E5A",
"* c #6B6157",
"= c #66615C",
"- c #6B645C",
"; c #71665C",
": c #72695E",
"> c #6B6761",
", c #6E6A64",
"< c #736C63",
"1 c #786E63",
"2 c #736E68",
"3 c #7A7166",
"4 c #77716B",
"5 c #7C746B",
"6 c #7C7670",
"7 c #7E7973",
"8 c #81776D",
"9 c #82796E",
"0 c #857C73",
"q c #887F75",
"w c #847E79",
"e c #8A8176",
"r c #86817C",
"t c #8C847B",
"y c #8F887F",
"u c #90877E",
"i c #91887F",
"p c #8B8682",
"a c #8E8984",
"s c #928B83",
"d c #938E89",
"f c #95918C",
"g c #99948E",
"h c #979390",
"j c #9B9692",
"k c #9E9994",
"l c #9E9C99",
"z c #A09C97",
"x c #A29E99",
"c c #A5A19D",
"v c #A8A49F",
"b c #A7A4A1",
"n c #AAA6A1",
"m c #AEAAA5",
"M c #AEABA8",
"N c #B1AEAA",
"B c #B4B1AE",
"V c #B6B3B0",
/* pixels */
"vk05998tzkkkkkkkgd<385pr2$*881fn",
"nncsuu0kzzkkkkkkzjjt998>$8eejNMn",
"nnnnsuqfzzjzkkkgzzzzi9089etmBNmn",
"nnnnveeszzzjkkzzjzjzzd0eefBBmmnn",
"nnnnvde8xzzzgkkkkkkzjfeteNMmnnnn",
"nnnnvgeqzzggzzkkkkkkjd60emMnnnnn",
"nnnnvztqdzzzzzgzzzzjjd70smmnnnnn",
"nnnnncfe9zjzggzzjzjzjs50smnnnnnn",
"nnnnnvke9ggjzzjzkkkkja50fmmvnnnn",
"nnnnnnxsq9zzzjgzkkkkkd00smmvnnnn",
"vnnnnncge0gzzgzzkkkkja60gmmvnnnn",
"nnnnnnvjtqtggzzgkkkjjr,0immnnnvn",
"nnnnnnvzye0tsdhjjkjht<;etnnnvnnn",
"nnnnnnncdee0557rptr5-@8tukvvvvnn",
"nnnnnnnvkeet052552,--9tiitkzvvvv",
"nvnnnnnnzseute5<;-;<8etuuttszvvv",
"nnnnnnnvkeet5:alhhddp62228qtdjcv",
"nnvnnnvva075ccjhdaddfhjlld<5efkc",
"vvvnnnvcp75dlfpprrrrpppaadd65edz",
"ccvvvvvge02jdrww7rwwwwwwwrpp85eg",
"egcvnmcd06ehpwwwwwwwwwwwwwwpp78q",
"5ykcvnzr03fdrwwwwwwwwwwwwwwww0:5",
"9tszcvg7q5fpwwwwwwwwwwwwwwwwwww<",
"5iedzza5t<fpwwwwwwwwwwwwwwwww76q",
"9titgd65t:gpwrwwwwwwwwwwwww05&#%",
"3yeeqe>q04hpwwwwwwwwwwwwww7,#.#&",
"tmng0eti5fftwwwwwwwwwwwww6>+.%31",
"cccvc0it,fprwwwwwwwwwww72$XX-59h",
"kkklccy0:r77rwwwwwwwww7>O @<8qbm",
"kkkkkkz03-277wwwwwww74&Xo-5qqmmx",
"kkkkkkxz05<57wwwwww6,#.X<qt0hmxx",
"kkkkkkklk95:2477772&O.%8ttqgMcxk",
"kkkkkkkkzk93=%=->%O.o;quq0gMxzzg",
"kkkkkkkkzzg55-@oXo%;8quudxMvzzzz",
"kkkkkkkkkzzk905:<8euuuqqmnxzzzgz",
"kkkkkkkkzjzzg8etudNVMgu8zzzgzzzz",
"kkkkkkkkjzjzgdeysBVNNNmq8zjzzgzg",
"kkkkkkkkzjjd659kxVNmmNmz0hjjzgzz",
"jkkkkkkkkkkq-8iBBNNmmmmxuwfgzzgz",
"kkkkkkkkkjf5<edBNmmmmmmxsqqjgzzz",
"kkkkkkkkjzs55iMBmmmmNmmvziqggzzg",
"kkkkkkjkzjw4qsBNmmmmmmmmxiquzzzz",
"kkkkkkkkjd65uvBmmmmmmmmmvgiqzzgg",
"kkkkkkkkjr2eiBNmmmmmmmmmvzuuszzz",
"kkkkkjjzf85izVNmmmNNmmmmmzusqzgz",
"daaaaddse:qiNNmmmmmmmmmmmxssqdsd",
",===&%==@;ukNNmmmmmmmmmmmmxudq8q",
"1535585388uvNNmmmmmmmmmmmmmxisq8",
":33345<5qtszmmmmmmmmmmmmmmvgigs9",
"rdfghhgw:8ttnnnmmmmmmmmmmmzuqgs8",
"affffffhja3efvnMmmmmmmmmmbd8sgtj",
"rrrrrrrrpr55uzvnmmMmmmmnxd65dw6l",
"7rwwwwwwww7-9izxnmmmMnxjr<<uq<zh",
"wwwwwwwwrww6;qudjxnnxjp<&quq3sla",
"wwwwwwwwwwww<1eutpgfr<&0su085zdr",
"wwwwwwwwwwww0:qistsr2qusst8<jhpw",
"wwwwwwwwwwr72=5eq0859etstt3darww",
"wwwwwwwwww72#@8rnMmcht000e9<>>27",
"467wwwwwww4$X;0sbccvbnmMnz55<%&,",
"#$>267w76,$X:qt0jgjjzxxxccvx55:-",
"<%@+%><>$OO<etut8pdgjzjzzzxcxq8;",
"8q8<%+oo@<500qttt8rdgjzjkkjgdss0",
"iuutq9555qqdMbe9qq9sgjjzkkgp9485",
"bdt00095fmMnncbnj883fxzkkkja1:80"
};
