/* XPM */
static char *out[] = {
/* columns rows colors chars-per-pixel */
"64 32 193 2 ",
"   c #5E2501",
".  c #682C02",
"X  c #6E3103",
"o  c #773606",
"O  c #7D3C0C",
"+  c #7F410E",
"@  c #5D4537",
"#  c #7C7239",
"$  c #3D5675",
"%  c #5C5F4F",
"&  c #48545E",
"*  c #565D55",
"=  c #6D574D",
"-  c #6D5955",
";  c #5E6152",
":  c #5C6259",
">  c #63634E",
",  c #636555",
"<  c #666759",
"1  c #7A685C",
"2  c #767C55",
"3  c #4B5763",
"4  c #4A5A6B",
"5  c #525E6A",
"6  c #475C79",
"7  c #505F71",
"8  c #53616D",
"9  c #5A6468",
"0  c #4D647A",
"q  c #546272",
"w  c #586877",
"e  c #626A69",
"r  c #7A6865",
"t  c #813F09",
"y  c #823E15",
"u  c #8B4303",
"i  c #83420C",
"p  c #9A5207",
"a  c #844512",
"s  c #864717",
"d  c #8B4916",
"f  c #8C4D1A",
"g  c #8E501C",
"h  c #9A5513",
"j  c #90511D",
"k  c #A25E1A",
"l  c #8C4E21",
"z  c #8D5021",
"x  c #925524",
"c  c #955925",
"v  c #93552B",
"b  c #965A2A",
"n  c #985D2B",
"m  c #995D31",
"M  c #9B612F",
"N  c #897A2D",
"B  c #9D6535",
"V  c #9F6837",
"C  c #9D6539",
"Z  c #9E6939",
"A  c #8D7F38",
"S  c #A56222",
"D  c #A7652B",
"F  c #A16637",
"G  c #A36B3C",
"H  c #827B4D",
"J  c #A46E41",
"K  c #A86E41",
"L  c #A67143",
"P  c #A87345",
"I  c #A5764A",
"U  c #AA754A",
"Y  c #AB7A4C",
"T  c #AA7A52",
"R  c #AE7D52",
"E  c #A97F58",
"W  c #B17E54",
"Q  c #B27D5B",
"!  c #8C7869",
"~  c #927D6C",
"^  c #8D8039",
"/  c #9E8D35",
"(  c #97893C",
")  c #9B8B39",
"_  c #A18E3B",
"`  c #A1913E",
"'  c #978B40",
"]  c #9C9751",
"[  c #A79541",
"{  c #A89644",
"}  c #A2944B",
"|  c #BD9D43",
" . c #AF8057",
".. c #AB825B",
"X. c #B18156",
"o. c #B3845B",
"O. c #B5A24F",
"+. c #BEA24D",
"@. c #AFA35E",
"#. c #B6A352",
"$. c #BDA455",
"%. c #B3A259",
"&. c #BAA65B",
"*. c #BDA95D",
"=. c #988474",
"-. c #AE8661",
";. c #B48760",
":. c #B48962",
">. c #B38E6A",
",. c #B5916E",
"<. c #B79372",
"1. c #B99676",
"2. c #BB9A7C",
"3. c #B9A763",
"4. c #BEAB63",
"5. c #BEAE68",
"6. c #A6A37A",
"7. c #BBAC71",
"8. c #BEB173",
"9. c #C0A34B",
"0. c #C1A754",
"q. c #C2AA5B",
"w. c #C1AD64",
"e. c #C0AE6E",
"r. c #C1B065",
"t. c #C3B26D",
"y. c #C0AF70",
"u. c #C2B373",
"i. c #C4B876",
"p. c #C2B47A",
"a. c #C5B97C",
"s. c #546A84",
"d. c #5C6C83",
"f. c #596E88",
"g. c #5B7591",
"h. c #64738A",
"j. c #66758A",
"k. c #6A7B8D",
"l. c #6B7B91",
"z. c #72828E",
"x. c #6F8394",
"c. c #748293",
"v. c #798695",
"b. c #7D8993",
"n. c #78899D",
"m. c #7F93A2",
"M. c #828E94",
"N. c #808C99",
"B. c #859196",
"V. c #899397",
"C. c #8B949B",
"Z. c #8C9599",
"A. c #90979B",
"S. c #949B9E",
"D. c #989D9F",
"F. c #BE9E81",
"G. c #A8A68A",
"H. c #BFB783",
"J. c #ACAC96",
"K. c #828FA1",
"L. c #8C9AA4",
"P. c #949CA3",
"I. c #989EA0",
"U. c #9DA2A5",
"Y. c #95A1A8",
"T. c #9AA4AB",
"R. c #A0A5A7",
"E. c #A7ACA4",
"W. c #A1A6A9",
"Q. c #A5AAAD",
"!. c #A8AEAF",
"~. c #A9AEB0",
"^. c #ADB2B4",
"/. c #B0B5B7",
"(. c #B4BABC",
"). c #B8BDBF",
"_. c #C2B482",
"`. c #C5BA83",
"'. c #C2B68B",
"]. c #C5BE8A",
"[. c #C3B792",
"{. c #C5BB94",
"}. c #C4BD9C",
"|. c #C5BEA4",
" X c #C4BFAC",
".X c #C6C19F",
"XX c #C5C1A3",
"oX c #C5C2AC",
"OX c #C5C2B3",
"+X c #C5C4B9",
"@X c #BABFC1",
"#X c #BDC2C3",
"$X c #C1C4C4",
/* pixels */
"4.w.w.e.u.i.a.a.a.`.a.i.i.t.t.w.w.w.w.w.*.0.+.| | +.q.w.4.4.w.6.n.b.B.Z.S.S.U.S.V.k.e H } %.7.p.p.7.%.} H 9 0 k.b.V.S.S.I.S.I.I.",
"[.[.{.{.}.}.|.XXXXXXXX.X}.{.{.{.[.{.'.[.'.'._.p.p._.'.[.{.[.{.G.x.M.V.S.S.I.A.j.< _ 8.{.oXoXoXoXoXoXoXoX{.8.` , 0 b.Z.S.I.I.D.I.",
"oXoXOXOXOXOX+X+X+XOXOXoX+X X XOX X XoX X X X|.}.}.|. X XoXoXoXU.l.V.A.S.U.b.w ( i.oXOXXX`.3.[ ( ( [ 3.`..XOXoXa.( 4 z.A.D.D.D.S.",
"u.u.p.p.`.`.`.`..X`..Xa.`.a.a.u.u.u.u.u.y.w.q.0.0.w.e.y.u.t.t.6.n.Z.S.D.v.: O..XOX{.%.^ < w k.l.l.h.q ; A &.{.OX.X#.* j.S.I.S.U.",
"n n m F G P U W W W Y P K G m m c b b b c f O o t y z b n b p ! L.A.I.v., 4.OXXX*.# w n.T.Q.!.~.Q.W.U.C.l.q # *.XXoX4.> k.S.S.S.",
"B C G L P R W o.o.o.o.W Y P K G B B B B M j a + t f b B F F k ~ L.S.N.: 4.OX.X/ 9 K.!.^./.^.^.^.^.~.Q.W.U.S.l.3 / .XOX5.: v.I.I.",
"F Z G L U R W o.;.;.o.R Y P G G B V B B M c d i y j n B B B k ~ L.Z.q O.oX{.N s.T.^./.(.(./.^.^.^.!.Q.W.U.U.I.M.6 N {.oXO.8 Z.D.",
"B F G L U W X.o.;.o.o.R Y P J F B F B F n x u + i j n D B F k ~ L.j.( .XXX/ d.Q./.(.(.(.@X@X(.^.^.~.!.Q.W.U.U.I.B.$ / oX.X( h.S.",
"V V G L U R X.o.:.o.X.W Y P G G M V V V M x d + i j n B B C k =.m.< 8.+X*.9 T././.(.#X#X#X#X@X(.^.^.^.Q.W.U.U.I.A.c.& 4.OXi., N.",
"V V G L U Y X.o.:.:.X.W Y P G G V V B B M g d + i j n B B C k ~ x.( XX.X# n.^.^.(.).#X#X$X#X#X(.(.^.!.!.W.U.U.I.S.V.s.# .XXX` j.",
"V V G L U Y X.o.:.o.o.W Y P G G M V B B M c d + i j n B B C k ! w 5.OX&.w T.^././.).#X#X#X#X@X(./.^.!.!.W.W.U.I.A.V.b.3 &.OXu.e ",
"V V G L U R X.o.:.o.o.W Y U G G B B V V M c d + a j n B B F k ! 2 .X.X^ n.!.^./.(.).#X#X#X#X).(.(.^.^.!.Q.T.U.U.S.V.B.s.^ XX{.H ",
"M B V G K Y W X.o.o.R R Y G G F M M M M M g i O i f c M B M k < ] oXH., P.!.^.^./.(.).).#X).(.(.^.^.^.Q.W.W.U.I.A.V.V.l.% `.oX} ",
"B Z Z L P W Q o.:.;.o.R Y P G G Z Z V Z M x d + a g b B B V D - @.oX3.w U.!.~.^.^.(.(.(.(.(.(.(.^.^.!.Q.W.U.U.I.Z.V.B.M.4 5.oX%.",
"....>.>.,.1.1.2.F.F.2.1.<.,.>.o...........I V M B G T ......X.1 8.oX` h.U.!.!.^.^.^.(.(.(.(.^./.^.!.Q.W.W.U.U.S.Z.V.M.M.s.{ oX7.",
"s s g g b m F G J G B B n x g f a a s + + o .   . X + a a a u @ H.oX) k.W.Q.!.!.^.^.^./.^.^.^.^.^.^.Q.W.U.U.I.S.V.b.M.M.d.' oX8.",
"Z B G L U Y X.o.:.o.o.X.Y P G G F V B B M c d + i j M V M V D = H.oX' j.R.W.W.Q.Q.^.^.^.^.^.^.!.Q.Q.W.W.U.U.S.A.B.b.b.V.d.` oX8.",
"Z Z G L U  .X.o.:.o.o.X.Y P G G V F F B M h d + i j M M F V D = 7.oX{ d.U.R.W.Q.Q.!.!.!.!.!.!.Q.W.W.W.U.U.I.S.V.B.b.V.V.w { oX8.",
"V V G L U Y X.o.:.o.X.W Y P G G V B B B M x d u i j n B B B S - @.oX3.7 S.U.U.R.W.Q.Q.Q.Q.Q.Q.R.U.U.U.U.I.S.S.V.b.m.V.A.8 $.oX@.",
"V V G L U  .X.o.:.o.X.W Y P G G B B V B M x a + i j n B V B D - ] oX`.% M.U.U.U.U.R.R.W.W.R.R.R.U.U.U.U.S.A.V.b.b.V.A.b.> .XoX] ",
"V V G L U Y  .X.:.o.o.W Y P G G B V B B M c d i a j n M B B S r 2 .X.X^ f.S.U.U.U.U.U.U.U.U.U.U.U.U.I.S.A.V.b.B.M.Z.S.j.^ .X.X2 ",
"V G G L Y X.X.o.:.o.o.X.Y P L G V V V V M c d i a g M B B C S ! q 8.oX&.4 V.A.S.U.D.U.U.U.U.U.I.S.S.A.Z.V.b.b.B.V.S.Z.5 &.oXu.< ",
"b M B B G G U X.X.R Y P J F B n j M x c j a O o o i f c c b p ! g._ XX.X# f.V.Z.S.S.S.S.I.S.S.A.A.Z.V.B.b.b.B.V.A.S.k.# .XoX_ j.",
"....o.:.,.,.<.1.2.2.1.<.,.>.-........... .L B c B G I E E E P G.n.: 8.oX*.& z.V.V.Z.Z.Z.Z.Z.Z.V.V.B.b.B.B.B.V.A.P.V.5 *.oXp., B.",
"M B Z J U T Q o.:.o.Q R Y J J C M B B B m x s O + l b C C C h =.Y.d.( .XXX) $ b.B.V.M.M.B.B.M.M.B.b.M.b.V.Z.A.S.Z.0 _ .X.X) h.A.",
"g g x b m F G K U U J G B m v x d f g f d y o . X O + f f f u ~ T.V.8 O.oX{.N $ z.V.B.B.B.M.M.B.b.B.B.V.Z.S.D.V.6 N .XoXO.8 Z.D.",
"Z J L I T W o.:.:.:.o.o.R U K G Z Z Z Z F c j t s z B Z F G k =.T.I.b.: 5.OX.X/ & f.b.V.B.B.B.B.V.Z.S.S.S.A.l.5 _ {.OX5.: b.D.S.",
"m m C Z J U T R Q Q T U P J C B m b m M v l y o O s v n m m h =.T.Y.I.c.> 5.oXXX*.# 4 f.v.B.Z.A.A.S.A.N.k.8 # *.oXoXr.> c.D.I.D.",
"5.r.e.t.i.i.a.a.`.`.a.a.i.t.u.e.5.r.r.r.w.q.0.9.+.0.w.w.r.r.r.7.L.D.I.S.c.: O..XOX{.*.^ ; 5 d.f.h.d.q ; ^ &.{.OX.XO.: c.S.I.I.I.",
"{.{.{.}.}.}.|.XXoXXXXXXX.X}.}.{.{.{.[.[.'.'._.p._._.'.[.[.[.{.J.L.U.D.S.I.b.8 ( p.XXOXXX_.5.{ ' ( [ 3.`.|.OXXXp.) q v.D.I.I.I.I.",
" X XOX XOXOX+X+X+X+X+XOXOXOXOX XoX XoX X X|.|.|.}.|. X XoX XOXE.L.D.S.U.I.I.Z.h.< _ u.{.oXoXoXoXoXoXoXoX{.u._ < h.C.I.I.I.S.I.I.",
"7.y.u.p.a.`.`.].].].].`.a.p.u.y.7.8.y.y.e.w.$.| $.q.5.e.7.t.t.G.L.D.S.U.S.I.S.S.M.j.e 2 } %.7.a.8.7.@.} H e h.M.S.S.S.I.I.I.I.D."
};
