/* XPM */
static char *out[] = {
/* columns rows colors chars-per-pixel */
"32 32 48 1 ",
"  c gray3",
". c #090909",
"X c gray4",
"o c #0B0B0B",
"O c #0C0C0C",
"+ c gray5",
"@ c #0E0E0E",
"# c #101010",
"$ c #111111",
"% c gray7",
"& c #131313",
"* c gray8",
"= c #151515",
"- c #161616",
"; c gray9",
": c #181818",
"> c #191919",
", c gray10",
"< c gray11",
"1 c #1D1D1D",
"2 c #1E1E1E",
"3 c gray12",
"4 c #202020",
"5 c #222222",
"6 c #232323",
"7 c gray14",
"8 c gray16",
"9 c #2C2C2C",
"0 c gray18",
"q c #2F2F2F",
"w c #343434",
"e c #353535",
"r c gray21",
"t c #373737",
"y c #3A3A3A",
"u c gray23",
"i c #3C3C3C",
"p c gray24",
"a c #3E3E3E",
"s c gray26",
"d c #444444",
"f c #4E4E4E",
"g c #535353",
"h c gray34",
"j c gray35",
"k c #5B5B5B",
"l c #848484",
"z c #C0BFBD",
/* pixels */
"zzzzzzzzzzzzzzzzzzzzzzzzzzzzzzzz",
"z i  i  iz .. .oXzzzzzzzzzzzzzzz",
"z  i i   zX>>+;8:zz  z z  z   zz",
"z        zo#w5&,.zzzzzzzzzzzzzzz",
"zzzzzzzzzz ,h7o&Ozz z z   z z  z",
"z  d z d z#O0:o8;zzzzzzzzzzzzzzz",
"z d   z  z9o7rs9:zz    z  z z zz",
"zzzzzzzzzz4%ap01#zzzzzzzzzzzzzzz",
"zz zz z zz@3g61<>zzzzzzzzzzzzzzz",
"z  z zzz z OO    zzzzzzzzzzzzzzz",
"zzzzzzzzzzzzzzzzzzz z z   z    z",
"zzjjjjjjzzyyyyyzzzzzzzzzzzzzzzzz",
"zzzzzzzzzzyyyzyzyzz z     z z zz",
"zzzzzzzzzzzzzzzzzzzzzzzzzzzzzzzz",
"zzzzzzzzzzzzzzzzzzz   z  zz  z z",
"z.#Xo=%*zz  z z  zzzzzzzzzzzzzzz",
"zoe3qjkuzzzzzzzzzzzzzzzzzzzzzzzz",
"zO%O=t5-zz z z   zz&+.@ zzzjjzjz",
"z @%-;-+zzzzzzzzzzz2>#7$zzzzljjz",
"zzzzzzzzzz    z  zz#f-@@zzzjzjlz",
"zzjjzjzjzzzzzzzzzzz =@. zzzjlljz",
"zzzzzzzzzzzzzzzzzzzzzzzzzzzzzzzz",
"zzzzzzzzzzzzzzzzzzzzzzzzzzzzzzzz",
"z  z z  zz z z   zz z z   z    z",
"zzzzzzzzzzzzzzzzzzzzzzzzzzzzzzzz",
"z z z   zz z     zz z     z z zz",
"zzzzzzzzzzzzzzzzzzzzzzzzzzzzzzzz",
"z    z  zz   z  zzz   z  zz  z z",
"zzzzzzzzzzzzzzzzzzzzzzzzzzzzzzzz",
"zzzzzzzzzzzzzzzzzzzzzzzzzzzzzzzz",
"zzzzzzzjjjjzzzzzzzzzzzjzzzzzzzzz",
"zzzzzzzzzzzzzzzzzzzzzzzzzzzzzzzz"
};
