/* XPM */
static char *out[] = {
/* columns rows colors chars-per-pixel */
"64 16 138 2 ",
"   c None",
".  c #4F6434",
"X  c #516835",
"o  c #556D37",
"O  c #536C38",
"+  c #546E38",
"@  c #566E38",
"#  c #566F39",
"$  c #577339",
"%  c #58723A",
"&  c #5A733A",
"*  c #5A753A",
"=  c #5A753B",
"-  c #5B763A",
";  c #5D7539",
":  c #5C753A",
">  c #5A703E",
",  c #5B753D",
"<  c #5B763C",
"1  c #5B763D",
"2  c #5B783E",
"3  c #5C783E",
"4  c #5C793F",
"5  c #5D793F",
"6  c #63652B",
"7  c #656529",
"8  c #616B2E",
"9  c #67692E",
"0  c #6B682A",
"q  c #6A692A",
"w  c #6B692B",
"e  c #6F6A29",
"r  c #6C692B",
"t  c #6E6C2D",
"y  c #716529",
"u  c #726629",
"i  c #736629",
"p  c #736729",
"a  c #72662A",
"s  c #746428",
"d  c #746628",
"f  c #776728",
"g  c #796729",
"h  c #7A6729",
"j  c #716929",
"k  c #726829",
"l  c #786828",
"z  c #796828",
"x  c #786829",
"c  c #796929",
"v  c #7A6828",
"b  c #7A6928",
"n  c #7B6928",
"m  c #7A692A",
"M  c #7C6D2E",
"N  c #7A732E",
"B  c #6D7432",
"V  c #697434",
"C  c #7B7837",
"Z  c #5C7540",
"A  c #5D7642",
"S  c #5E7644",
"D  c #5D7940",
"F  c #617C42",
"G  c #637E45",
"H  c #647F45",
"J  c #647F46",
"K  c #657E48",
"L  c #847B39",
"P  c #827C39",
"I  c #668049",
"U  c #68824C",
"Y  c #68804F",
"T  c #69824E",
"R  c #6E834F",
"E  c #6A854C",
"W  c #6A854D",
"Q  c #6A854E",
"!  c #6D8250",
"~  c #6C8251",
"^  c #6D8450",
"/  c #6D8750",
"(  c #6F8751",
")  c #6D8652",
"_  c #6E8850",
"`  c #6D8853",
"'  c #6E8852",
"]  c #6F8852",
"[  c #6F8952",
"{  c #6E8853",
"}  c #708553",
"|  c #708852",
" . c #708853",
".. c #718955",
"X. c #718956",
"o. c #738C58",
"O. c #758D5A",
"+. c #758D5B",
"@. c #768C5A",
"#. c #778E5B",
"$. c #788F5E",
"%. c #7B915E",
"&. c #7C9463",
"*. c #7D9564",
"=. c #7E9565",
"-. c #8A8742",
";. c #888D4F",
":. c #8B945A",
">. c #8C965B",
",. c #8C975F",
"<. c #809766",
"1. c #819967",
"2. c #829967",
"3. c #84996A",
"4. c #859B6D",
"5. c #869B6C",
"6. c #879D6F",
"7. c #889D6D",
"8. c #889D6F",
"9. c #889F71",
"0. c #899E72",
"q. c #899F72",
"w. c #8B9F72",
"e. c #8B9F74",
"r. c #8CA074",
"t. c #8CA174",
"y. c #8DA174",
"u. c #8EA175",
"i. c #8FA275",
"p. c #8FA375",
"a. c #8DA276",
"s. c #8EA276",
"d. c #8FA276",
"f. c #8FA376",
"g. c #8EA277",
"h. c #8FA277",
"j. c #8EA377",
"k. c #90A377",
/* pixels */
"                                                                                          X +           %.                      ",
"                          u.k.R         d l                                             = * *           h.h.+.                  ",
"                        j.h.h.0.        v v v 7         <.4.3.&.                      # * - * =       ! h.h.h.3.        I T U K ",
"] [ J 4 , & $ O       9.h.h.h.f.      j v v v v w     y.h.k.k.k.h.k.j.6.}           8 * * * * *       j.h.k.h.h.6.    / ] [ [ [ ",
" .1 * * * * * * * - D 1.h.h.h.h.      h v v v v v r   g.k.h.h.k.g.h.h.g.r.e.9 d n b : * * * * * =     h.h.g.h.h.k.4.   .[ ] ] [ ",
"G * * * * * * * * * * * _ h.h.h.5.    v v n v v v g C g.h.g.h.h.h.h.h.h.h.h.:.v v V * * * * * - *     h.g.h.h.h.h.f.`  .]  .] ] ",
"5 * * * * * * * * * * * * q.h.h.k.    v v v v v v v c p.h.h.h.h.h.k.h.h.h.h.>.v N * * * * * * * * @ $.h.h.h.h.h.h.h.h.| ] ] ] ] ",
"Q * * * * * * * * * * * * h.h.h.h.  0 v v v v v v v v ;.h.h.h.h.h.h.h.h.h.i.m v : * * * * * * * * * 2.h.h.h.h.h.h.h.h.*.] ] ] ] ",
"] 2 * * * * * * * * * * H h.h.h.h.6.f v v v v v v v v v d.h.h.h.h.h.h.h.t.P v v * * * * * * * * * * E h.h.h.h.h.h.h.h.h.[ ] ] ] ",
"] W * * * * * * * * * < w.h.h.h.h.d.v v v v v v v v v v ,.h.h.h.h.h.h.a.    v v * * * * * * * * * * 5 h.h.h.j.h.h.h.h.h.#.] ] ] ",
"]  .< * * * * * * * < s.h.h.h.h.h.h.M v v v v v v v v n L h.h.h.h.g.h.      e v B * * * * * * * * * F h.h.h.h.k.g.h.h.h.^ ] ] ] ",
"] [ Z * * * * * * < 7.h.h.h.h.h.h.k.-.v v v v v v v v u   d.h.h.h.k.)         d v v B ; : * * * * 3 q.h.h.k.h.h.h.h.f.Y   ' ] ] ",
"]     % * * * * * 9.a.f.h.h.h.h.k.u.t z v v v v v u       o.h.j.h.              a v v v v x         r.h.h.h.h.8.O.        S ] ( ",
">       * * * =       X.=.0.f.k.y.      6 y p q             f.k.~                 i v v v               @.                  { [ ",
"        . * =                                                 ..                    i v s                                     A ",
"          o                                                                           k                                         "
};
