/* XPM */
static char *out[] = {
/* columns rows colors chars-per-pixel */
"64 64 196 2 ",
"   c #090807",
".  c #0A0807",
"X  c #0B0807",
"o  c #0D0A08",
"O  c #130F0C",
"+  c #14100C",
"@  c #14100D",
"#  c #15110E",
"$  c #16110E",
"%  c #16120F",
"&  c #171310",
"*  c #191614",
"=  c #1D1915",
"-  c #1F1916",
";  c #1F1B18",
":  c #232221",
">  c #282421",
",  c #292421",
"<  c #2A2522",
"1  c #2B2622",
"2  c #2F2A26",
"3  c #2A2A29",
"4  c gray17",
"5  c #3B3430",
"6  c #3B3530",
"7  c #3F3732",
"8  c #403833",
"9  c #413934",
"0  c #423A34",
"q  c #443E3A",
"w  c #49413C",
"e  c #4E4740",
"r  c #685E57",
"t  c #6A6059",
"y  c #6A615A",
"u  c #6B625B",
"i  c #6C625B",
"p  c #6A6866",
"a  c #6B6967",
"s  c #6C6A69",
"d  c #706861",
"f  c #71706F",
"g  c #737270",
"h  c #737371",
"j  c #747471",
"k  c #747472",
"l  c #757572",
"z  c #767473",
"x  c #767574",
"c  c #777574",
"v  c gray47",
"b  c #797878",
"n  c #787979",
"m  c #797979",
"M  c #7B7A78",
"N  c #79797A",
"B  c #797A7A",
"V  c gray48",
"C  c #7C7D7D",
"Z  c #7F7F7D",
"A  c #867A73",
"S  c #817974",
"D  c #847C77",
"F  c #887D76",
"G  c #897E77",
"H  c #867F7A",
"J  c #877F7A",
"K  c #8A7F78",
"L  c #87807B",
"P  c #88807B",
"I  c #88807C",
"U  c #88817C",
"Y  c #89817C",
"T  c #8A827E",
"R  c #8F867F",
"E  c #8F8680",
"W  c #9E958D",
"Q  c #9F968F",
"!  c #A09790",
"~  c #A19790",
"^  c #A19891",
"/  c #A19991",
"(  c #A29891",
")  c #A39991",
"_  c #A19892",
"`  c #A19993",
"'  c #A29992",
"]  c #A39992",
"[  c #A29993",
"{  c #A29A92",
"}  c #A29A93",
"|  c #A49992",
" . c #A49A93",
".. c #A39B94",
"X. c #A39B95",
"o. c #A49B94",
"O. c #A49B95",
"+. c #A59B95",
"@. c #A39C95",
"#. c #A39C96",
"$. c #A49C95",
"%. c #A59C95",
"&. c #A49D95",
"*. c #A59D95",
"=. c #A69D95",
"-. c #A69D96",
";. c #A79F98",
":. c #A69F99",
">. c #A89F98",
",. c #A6A099",
"<. c #A7A099",
"1. c #A7A19A",
"2. c #A9A19A",
"3. c #A8A19B",
"4. c #AAA19A",
"5. c #A8A29B",
"6. c #A9A29B",
"7. c #A9A29C",
"8. c #A9A39C",
"9. c #AAA29C",
"0. c #ACA39C",
"q. c #ABA49E",
"w. c #ADA6A1",
"e. c #AEA8A2",
"r. c #AFA8A3",
"t. c #AFABA8",
"y. c #B0A9A5",
"u. c #B1ABA7",
"i. c #B2ABA6",
"p. c #B2ACA7",
"a. c #B3ACA7",
"s. c #B3AEA8",
"d. c #B4AFAC",
"f. c #B7B2AD",
"g. c #B6B1AE",
"h. c #B7B2AF",
"j. c #B8B2AC",
"k. c #B8B2AD",
"l. c #B8B3AD",
"z. c #B9B3AD",
"x. c #B9B3AE",
"c. c #B9B3AF",
"v. c #BBB3AE",
"b. c #BAB4AF",
"n. c #BCB4AE",
"m. c #B7B3B0",
"M. c #B8B3B0",
"N. c #BBB6B1",
"B. c #BAB6B3",
"V. c #BDB4B0",
"C. c #BDB5B0",
"Z. c #BEB6B1",
"A. c #BFB6B1",
"S. c #BEB7B1",
"D. c #BFB7B1",
"F. c #BCB7B2",
"G. c #BEB7B2",
"H. c #BFB7B2",
"J. c #BDB8B3",
"K. c #BEB8B2",
"L. c #BFB8B2",
"P. c #BEB8B3",
"I. c #BFB9B3",
"U. c #BFB9B4",
"Y. c #BDBAB6",
"T. c #BEBBB8",
"R. c #C0B7B2",
"E. c #C0B7B3",
"W. c #C0B8B2",
"Q. c #C0B8B3",
"!. c #C0B9B3",
"~. c #C1B9B3",
"^. c #C0B9B4",
"/. c #C1B9B4",
"(. c #C0BAB4",
"). c #C1BAB4",
"_. c #C1BAB5",
"`. c #C2BBB5",
"'. c #C0BBB6",
"]. c #C2BCB6",
"[. c #C2BCB7",
"{. c #C1BCB8",
"}. c #C3BDB8",
"|. c #C3BDB9",
" X c #C4BDB8",
".X c #C4BEBA",
"XX c #C2BFBC",
"oX c #C4C0BC",
"OX c #C4C1BD",
"+X c #C4C1BF",
"@X c #C4C2BF",
"#X c #C5C3BF",
"$X c #C4C2C0",
"%X c #C4C3C0",
"&X c #C5C4C1",
"*X c #C5C5C5",
/* pixels */
"!.Q.Q.Q.Q.Q.Q.Q.Q.Q.Q.Q.Q.Q.Q.Q.Q.Q.Q.Q.Q.Q.Q.Q.Q.Q.H.Z.V.I.#.6 g oXL.Q.Q.Q.Q.Q.Q.Q.Q.Q.Q.Q.Q.Q.Q.Q.Q.Q.Q.Q.Q.Q.Q.Q.Q.Q.Q.Q.Q.!.",
"Q.Q.Q.Q.Q.Q.Q.Q.Q.Q.Q.Q.Q.Q.Q.Q.Q.Q.Q.Q.Q.Q.Q.Q.Q.Q.Q.Q.Q.].1.9 j oXL.Q.Q.Q.Q.Q.Q.Q.Q.Q.Q.Q.Q.Q.Q.Q.Q.Q.Q.Q.Q.Q.Q.Q.Q.Q.Q.Q.Q.Q.",
"Q.Q.Q.Q.!.!.!.!.!.!.!.!.!.!.!.!.!.!.!.!.!.!.!.!.!.!.!.!.Q.[.1.8 j oXW.!.!.!.!.!.!.!.!.!.!.!.!.!.!.!.!.!.!.!.!.!.!.!.!.Q.Q.Q.Q.Q.",
"Q.Q.Q.Q.K.P.P.P.P.P.P.P.P.P.P.P.P.P.P.P.P.P.P.P.P.P.P.P.K.'.:.8 h XXG.P.P.P.P.P.P.P.P.P.P.P.P.P.P.P.P.P.P.P.P.P.P.P.P.P.Q.Q.Q.Q.",
"Q.Q.!.P.X.X.$.$.$.$.$.$.$.$.$.$.$.$.$.$.$.$.$.$.$.$.$.$.@.<.G 1 a u.} $.$.$.$.$.$.$.$.$.$.$.$.$.$.$.$.$.$.$.$.$.$.$.[ 8._.Q.Q.Q.",
"Q.Q.!.P.o.%.%.%.%.%.%.%.%.%.%.%.%.%.%.%.%.%.%.%.%.%.%.%.%.2.K < a p. .%.%.%.%.%.%.%.%.%.%.%.%.%.%.%.%.%.%.%.%.%.%.%. .8._.Q.Q.Q.",
"Q.Q.!.P.$.%.%.%.%.%.%.%.%.%.%.%.%.%.%.%.%.%.%.%.%.%.%.%.%.2.K < a p. .%.%.%.%.%.%.%.%.%.%.%.%.%.%.%.%.%.%.%.%.%.%.%. .8._.Q.Q.Q.",
"Q.Q.!.P.$.%.%.%.%.%.%.%.%.%.%.%.%.%.%.%.%.%.%.%.%.%.%.%.%.2.K < a p. .%.%.%.%.%.%.%.%.%.%.%.%.%.%.%.%.%.%.%.%.%.%.%. .8._.Q.Q.Q.",
"Q.Q.!.P.$.%.%.%.+.O.X.$.$.$.$.$.$.$.$.$.$.$.$.$.$.$.$.$.@.<.G 1 a u.} $.$.$.$.$.$.$.$.$.$.$.$.$.$.$.$.$.$.X.O.%.%.%. .8._.Q.Q.Q.",
"Q.Q.!.P.$.%.%.%.O.F.P.P.P.P.P.P.P.P.P.P.P.P.P.P.P.P.P.P.K.'.:.8 h XXG.P.P.P.P.P.P.P.P.P.P.P.P.P.P.P.P.P.P.U.f.^ -.%. .8._.Q.Q.Q.",
"Q.Q.!.P.$.%.%.%.$.P.!.!.!.!.!.!.!.!.!.!.!.!.!.!.!.!.!.!.Q.[.1.8 j oXW.!.!.!.!.!.!.!.!.!.!.!.!.!.!.!.!.!.!._.x.^ -.%. .8._.Q.Q.Q.",
"Q.Q.!.P.$.%.%.%.$.P.!.Q.Q.Q.Q.Q.Q.Q.Q.Q.Q.Q.Q.Q.Q.Q.Q.Q.Q.].1.8 j oXL.Q.Q.Q.Q.Q.Q.Q.Q.Q.Q.Q.Q.Q.Q.Q.Q.Q.Q./.x.^ -.%. .8._.Q.Q.Q.",
"Q.Q.!.P.$.%.%.%.$.P.!.Q.Q.Q.!.!.!.!.!.!.!.!.!.!.!.!.!.!.Q.[.1.8 j oXW.!.!.!.!.!.!.!.!.!.!.!.!.!.!.Q.Q.Q.Q./.x.^ -.%. .8._.Q.Q.Q.",
"Q.Q.!.P.$.%.%.%.$.P.!.Q.Q.Q.K.P.P.P.P.P.P.P.P.P.P.P.P.P.K.'.:.8 h XXG.P.P.P.P.P.P.P.P.P.P.P.P.P.P.P.Q.Q.Q./.x.^ -.%. .8._.Q.Q.Q.",
"Q.Q.!.P.$.%.%.%.$.P.!.Q.!.P.X.X.$.$.$.$.$.$.$.$.$.$.$.$.@.<.G 1 a u.} $.$.$.$.$.$.$.$.$.$.$.$.$.[ 8._.Q.Q./.x.^ -.%. .8._.Q.Q.Q.",
"Q.Q.!.P.$.%.%.%.$.P.!.Q.!.P.o.%.%.%.%.%.%.%.%.%.%.%.%.%.%.2.K < a p. .%.%.%.%.%.%.%.%.%.%.%.%.%. .8._.Q.Q./.x.^ -.%. .8._.Q.Q.Q.",
"Q.Q.!.P.$.%.%.%.$.P.!.Q.!.P.$.%.%.%.%.%.%.%.%.%.%.%.%.%.%.2.K < a p. .%.%.%.%.%.%.%.%.%.%.%.%.%. .8._.Q.Q./.x.^ -.%. .8._.Q.Q.Q.",
"Q.Q.!.P.$.%.%.%.$.P.!.Q.!.P.$.%.%.%.%.%.%.%.%.%.%.%.%.%.%.2.K < a p. .%.%.%.%.%.%.%.%.%.%.%.%.%. .8._.Q.Q./.x.^ -.%. .8._.Q.Q.Q.",
"Q.Q.!.P.$.%.%.%.$.P.!.Q.!.P.$.%.%.%.+.O.X.$.$.$.$.$.$.$.@.<.G 1 a u.} $.$.$.$.$.$.$.$.X.O.%.%.%. .8._.Q.Q./.x.^ -.%. .8._.Q.Q.Q.",
"Q.Q.!.P.$.%.%.%.$.P.!.Q.!.P.$.%.%.%.O.F.P.P.P.P.P.P.P.P.K.'.:.8 h XXG.P.P.P.P.P.P.P.P.U.f.^ -.%. .8._.Q.Q./.x.^ -.%. .8._.Q.Q.Q.",
"Q.Q.!.P.$.%.%.%.$.P.!.Q.!.P.$.%.%.%.$.P.!.!.!.!.!.!.!.!.Q.[.1.8 j oXW.!.!.!.!.!.!.!.!._.x.^ -.%. .8._.Q.Q./.x.^ -.%. .8._.Q.Q.Q.",
"Q.Q.!.P.$.%.%.%.$.P.!.Q.!.P.$.%.%.%.$.P.!.Q.Q.Q.Q.Q.Q.Q.Q.].1.8 j oXL.Q.Q.Q.Q.Q.Q.Q.Q./.x.^ -.%. .8._.Q.Q./.x.^ -.%. .8._.Q.Q.Q.",
"Q.Q.!.P.$.%.%.%.$.P.!.Q.!.P.$.%.%.%.$.P.!.Q.Q.Q.Q.Q.Q.Q.Q.].1.8 j oXL.Q.Q.Q.Q.Q.Q.Q.Q./.x.^ -.%. .8._.Q.Q./.x.^ -.%. .8._.Q.Q.Q.",
"Q.Q.!.P.$.%.%.%.$.P.!.Q.!.P.$.%.%.%.$.P.!.Q.Q.Q.Q.Q.Q.Q.Q.].1.8 j oXL.Q.Q.Q.Q.Q.Q.Q.Q./.x.^ -.%. .8._.Q.Q./.x.^ -.%. .8._.Q.Q.Q.",
"Q.Q.!.P.$.%.%.%.$.P.!.Q.!.P.$.%.%.%.$.P.!.Q.Q.Q.Q.Q.Q.Q.Q.].1.8 j oXL.Q.Q.Q.Q.Q.Q.Q.Q./.x.^ -.%. .8._.Q.Q./.x.^ -.%. .8._.Q.Q.Q.",
"Q.Q.!.P.$.%.%.%.$.P.!.Q.!.P.$.%.%.%.$.P.!.Q.Q.Q.Q.Q.Q.Q.Q.].1.8 j oXL.Q.Q.Q.Q.Q.Q.Q.Q./.x.^ -.%. .8._.Q.Q./.x.^ -.%. .8._.Q.Q.Q.",
"H.Q.!.P.$.%.%.%.$.P.!.Q.!.P.$.%.%.%.$.P.!.Q.Q.Q.Q.Q.Q.Q.Q.].1.8 j oXL.Q.Q.Q.Q.Q.Q.Q.Q./.x.^ -.%. .8._.Q.Q./.x.^ -.%. .8._.Q.Q.H.",
"C.Q.!.P.$.%.%.%.$.P.!.Q.!.P.$.%.%.%.$.P.!.Q.Q.Q.Q.Q.Q.Q.Q.].1.8 j oXL.Q.Q.Q.Q.Q.Q.Q.Q./.x.^ -.%. .8._.Q.Q./.x.^ -.%. .8._.Q.Q.C.",
"v.W.W.K...+.+.+...K.W.W.W.K...+.+.+...K.W.W.W.W.W.W.W.W.W.].1.8 j oXL.W.W.W.W.W.W.W.W./.z.! %.+.] 7._.W.W./.z.! %.+.] 7._.W.W.n.",
"^.}. X{.9.0.0.0.9.{. X}. X{.9.0.0.0.9.{. X}.}.}.}.}.}.}.}.oXq.7 j #X}.}.}.}.}.}.}.}.}..XJ.;.0.0.4.r..X}.}..XJ.;.0.0.4.r..X}.}.^.",
"D I P J y u i u y J P L P J y u i u y J P L L L L L L L L H R e Z t.S L L L L L L L L Y S r i i t d T L L Y S r i i t d T L L U ",
"& # # # X . . . X # # # # # X . . . X # # # # # # # # # # @ ; * : = O # # # # # # # # $ O   . . . o % # # $ O   . . . o % # + - ",
"m N N m x c c c x m N N N m x c c c x m N N N N N N N N N N C 3 4 n V N N N N N N N N N v z c c c x N N N N v z c c c x N N B b ",
"+X@X@X+Xm.M.M.M.m.+X@X@X@X+Xm.M.M.M.m.+X@X@X@X@X@X@X@X@X@X&XY.w M *X@X@X@X@X@X@X@X@X@X$XXXg.M.M.h.B.%X@X@X$XXXg.M.M.h.B.%X@X@X+X",
"H.H.W.S./ ) ] ) / S.W.H.W.S./ ) ] ) / S.W.H.H.H.H.H.H.H.D.`.&.7 j oXA.H.H.H.H.H.H.H.H.~.j.W | ] ~ 1.^.D.H.~.j.W | ] ~ 1.^.D.H.R.",
"^.Q.!.P.$.%.%.%.$.P.!.Q.!.P.$.%.%.%.$.P.!.Q.Q.Q.Q.Q.Q.Q.Q.].1.8 j oXL.Q.Q.Q.Q.Q.Q.Q.Q./.x.^ -.%. .8._.Q.Q./.x.^ -.%. .8._.Q.Q.^.",
"!.Q.!.P.$.%.%.%.$.P.!.Q.!.P.$.%.%.%.$.P.!.Q.Q.Q.Q.Q.Q.Q.Q.].1.8 j oXL.Q.Q.Q.Q.Q.Q.Q.Q./.x.^ -.%. .8._.Q.Q./.x.^ -.%. .8._.Q.Q.^.",
"Q.Q.!.P.$.%.%.%.$.P.!.Q.!.P.$.%.%.%.$.P.!.Q.Q.Q.Q.Q.Q.Q.Q.].1.8 j oXL.Q.Q.Q.Q.Q.Q.Q.Q./.x.^ -.%. .8._.Q.Q./.x.^ -.%. .8._.Q.Q.Q.",
"Q.Q.!.P.$.%.%.%.$.P.!.Q.!.P.$.%.%.%.$.P.!.Q.Q.Q.Q.Q.Q.Q.Q.].1.8 j oXL.Q.Q.Q.Q.Q.Q.Q.Q./.x.^ -.%. .8._.Q.Q./.x.^ -.%. .8._.Q.Q.Q.",
"Q.Q.!.P.$.%.%.%.$.P.!.Q.!.P.$.%.%.%.$.P.!.Q.Q.Q.Q.Q.Q.Q.Q.].1.8 j oXL.Q.Q.Q.Q.Q.Q.Q.Q./.x.^ -.%. .8._.Q.Q./.x.^ -.%. .8._.Q.Q.Q.",
"Q.Q.!.P.$.%.%.%.$.P.!.Q.!.P.$.%.%.%.$.P.!.Q.Q.Q.Q.Q.Q.Q.Q.].1.8 j oXL.Q.Q.Q.Q.Q.Q.Q.Q./.x.^ -.%. .8._.Q.Q./.x.^ -.%. .8._.Q.Q.Q.",
"Q.Q.!.P.$.%.%.%.$.P.!.Q.!.P.$.%.%.%.$.P.!.Q.Q.Q.Q.Q.Q.Q.Q.].1.8 j oXL.Q.Q.Q.Q.Q.Q.Q.Q./.x.^ -.%. .8._.Q.Q./.x.^ -.%. .8._.Q.Q.Q.",
"Q.Q.!.P.$.%.%.%.$.P.!.Q.!.P.$.%.%.%.$.P.!.Q.Q.Q.Q.Q.Q.Q.Q.].1.8 j oXL.Q.Q.Q.Q.Q.Q.Q.Q./.x.^ -.%. .8._.Q.Q./.x.^ -.%. .8._.Q.Q.Q.",
"Q.Q.!.P.$.%.%.%.$.P.!.Q.!.P.$.%.%.%.$.U.)././././././././.}.6.9 l OX~././././././././.`.b.^ -.%. .8._.Q.Q./.x.^ -.%. .8._.Q.Q.Q.",
"Q.Q.!.P.$.%.%.%.$.P.!.Q.!.P.$.%.%.%.O.f.x.x.x.x.x.x.x.x.l.N.` 5 f T.k.x.x.x.x.x.x.x.x.c.s.' =.%. .8._.Q.Q./.x.^ -.%. .8._.Q.Q.Q.",
"Q.Q.!.P.$.%.%.%.$.P.!.Q.!.P.$.%.%.%.%._ ^ ^ ^ ^ ^ ^ ^ ^ ^ *.A > p y.Q ^ ^ ^ ^ ^ ^ ^ ^ ^ ] %.%.%. .8._.Q.Q./.x.^ -.%. .8._.Q.Q.Q.",
"Q.Q.!.P.$.%.%.%.$.P.!.Q.!.P.$.%.%.%.%.=.-.-.-.-.-.-.-.-.-.4.K < a a.o.-.-.-.-.-.-.-.-.-.%.%.%.%. .8._.Q.Q./.x.^ -.%. .8._.Q.Q.Q.",
"Q.Q.!.P.$.%.%.%.$.P.!.Q.!.P.$.%.%.%.%.%.%.%.%.%.%.%.%.%.%.2.K < a p. .%.%.%.%.%.%.%.%.%.%.%.%.%. .8._.Q.Q./.x.^ -.%. .8._.Q.Q.Q.",
"Q.Q.!.P.$.%.%.%.$.P.!.Q.!.P.{  . . . . . . . . . . . . . .>.F , a i.(  . . . . . . . . . . . . .( 5._.Q.Q./.x.^ -.%. .8._.Q.Q.Q.",
"Q.Q.!.P.$.%.%.%.$.P.!.Q.!.P.8.7.8.8.8.8.8.8.8.8.8.8.8.8.8.w.E 2 s d.5.8.8.8.8.8.8.8.8.8.8.8.8.8.3.e._.Q.Q./.x.^ -.%. .8._.Q.Q.Q.",
"Q.Q.!.P.$.%.%.%.$.P.!.Q.Q.Q._._._._._._._._._._._._._._._.|.8.0 k OX)._._._._._._._._._._._._._._._.Q.Q.Q./.x.^ -.%. .8._.Q.Q.Q.",
"Q.Q.!.P.$.%.%.%.$.P.!.Q.Q.Q.Q.Q.Q.Q.Q.Q.Q.Q.Q.Q.Q.Q.Q.Q.E.].1.8 j oXL.Q.Q.Q.Q.Q.Q.Q.Q.Q.Q.Q.Q.Q.W.Q.Q.Q.Q./.x.^ -.%. .8._.Q.Q.Q.",
"Q.Q.!.P.$.%.%.%.$.P.!.Q.Q.Q.Q.Q.Q.Q.Q.Q.Q.Q.Q.Q.Q.Q.Q.Q.Q.].1.8 j oXL.Q.Q.Q.Q.Q.Q.Q.Q.Q.Q.Q.Q.Q.Q.Q.Q.Q.Q./.x.^ -.%. .8._.Q.Q.Q.",
"Q.Q.!.P.$.%.%.%.$.U.)././././././././././././././././././.}.6.9 l OX~././././././././././././././././././.`.b.^ -.%. .8._.Q.Q.Q.",
"Q.Q.!.P.$.%.%.%.O.f.x.x.x.x.x.x.x.x.x.x.x.x.x.x.x.x.x.x.l.N.` 5 f T.k.x.x.x.x.x.x.x.x.x.x.x.x.x.x.x.x.x.x.c.s.' =.%. .8._.Q.Q.Q.",
"Q.Q.!.P.$.%.%.%.%._ ^ ^ ^ ^ ^ ^ ^ ^ ^ ^ ^ ^ ^ ^ ^ ^ ^ ^ ^ *.A > p y.Q ^ ^ ^ ^ ^ ^ ^ ^ ^ ^ ^ ^ ^ ^ ^ ^ ^ ^ ^ ] %.%.%. .8._.Q.Q.Q.",
"Q.Q.!.P.$.%.%.%.%.=.-.-.-.-.-.-.-.-.-.-.-.-.-.-.-.-.-.-.-.4.K < a a.o.-.-.-.-.-.-.-.-.-.-.-.-.-.-.-.-.-.-.-.%.%.%.%. .8._.Q.Q.Q.",
"Q.Q.!.P.$.%.%.%.%.%.%.%.%.%.%.%.%.%.%.%.%.%.%.%.%.%.%.%.%.2.K < a p. .%.%.%.%.%.%.%.%.%.%.%.%.%.%.%.%.%.%.%.%.%.%.%. .8._.Q.Q.Q.",
"Q.Q.!.P.{  . . . . . . . . . . . . . . . . . . . . . . . .>.F , a i.(  . . . . . . . . . . . . . . . . . . . . . . .( 5._.Q.Q.Q.",
"Q.Q.!.P.8.7.8.8.8.8.8.8.8.8.8.8.8.8.8.8.8.8.8.8.8.8.8.8.8.w.E 2 s d.5.8.8.8.8.8.8.8.8.8.8.8.8.8.8.8.8.8.8.8.8.8.8.8.3.e._.Q.Q.Q.",
"Q.Q.Q.Q._._._._._._._._._._._._._._._._._._._._._._._._._.|.8.0 k OX)._._._._._._._._._._._._._._._._._._._._._._._._._.Q.Q.Q.Q.",
"Q.Q.Q.Q.Q.Q.Q.Q.Q.Q.Q.Q.Q.Q.Q.Q.Q.Q.Q.Q.Q.Q.Q.Q.Q.Q.Q.Q.E.].1.8 j oXL.Q.Q.Q.Q.Q.Q.Q.Q.Q.Q.Q.Q.Q.Q.Q.Q.Q.Q.Q.Q.Q.Q.Q.W.Q.Q.Q.Q.Q.",
"Q.Q.Q.Q.Q.Q.Q.Q.Q.Q.Q.Q.Q.Q.Q.Q.Q.Q.Q.Q.Q.Q.Q.Q.Q.Q.Q.Q.Q.].,.7 j oXL.Q.Q.Q.Q.Q.Q.Q.Q.Q.Q.Q.Q.Q.Q.Q.Q.Q.Q.Q.Q.Q.Q.Q.Q.Q.Q.Q.Q.Q.",
"!.Q.Q.Q.Q.Q.Q.Q.Q.Q.Q.Q.Q.Q.Q.Q.Q.Q.Q.Q.Q.Q.Q.Q.Q.Q.L.Z.Z.(.6.q j oXL.!.!.Q.Q.Q.Q.Q.Q.Q.Q.Q.Q.Q.Q.Q.Q.Q.Q.Q.Q.Q.Q.Q.Q.Q.Q.Q.Q.!."
};
