/* XPM */
static char *out[] = {
/* columns rows colors chars-per-pixel */
"64 64 96 2 ",
"   c #0F0807",
".  c #100807",
"X  c #150B0A",
"o  c #21120F",
"O  c #211210",
"+  c #321C16",
"@  c #391E17",
"#  c #3A2017",
"$  c #3D2119",
"%  c #43251D",
"&  c #46281E",
"*  c #4A291F",
"=  c #432820",
"-  c #4D2C21",
";  c #522E23",
":  c #553125",
">  c #5A3326",
",  c #563328",
"<  c #5C3529",
"1  c #5E392B",
"2  c #60372A",
"3  c #643A2D",
"4  c #693D2F",
"5  c #653E31",
"6  c #6B3F30",
"7  c #664136",
"8  c #6D4133",
"9  c #6D473A",
"0  c #734434",
"q  c #784636",
"w  c #794837",
"e  c #754738",
"r  c #754939",
"t  c #7C4A3A",
"y  c #7D503F",
"u  c #774F40",
"i  c #7A4F41",
"p  c #7D5244",
"a  c #824D3C",
"s  c #85503E",
"d  c #804F40",
"f  c #845242",
"g  c #8B5543",
"h  c #8D5946",
"j  c #815748",
"k  c #855A4B",
"l  c #8D5A49",
"z  c #915946",
"x  c #945D4B",
"c  c #855E51",
"v  c #8C5E50",
"b  c #95614E",
"n  c #99604C",
"m  c #8D6152",
"M  c #8E6658",
"N  c #956452",
"B  c #9B6552",
"V  c #9C6856",
"C  c #936758",
"Z  c #956B5C",
"A  c #9E6C5A",
"S  c #A06A56",
"D  c #A26E5B",
"F  c #A2715E",
"G  c #966F62",
"H  c #9A6F60",
"J  c #9B7263",
"K  c #9E776A",
"L  c #9E786B",
"P  c #A57462",
"I  c #A87665",
"U  c #A97967",
"Y  c #A07768",
"T  c #A3796A",
"R  c #AA7C6B",
"E  c #A27E72",
"W  c #AD806E",
"Q  c #A48276",
"!  c #AE8271",
"~  c #A6857A",
"^  c #A8877C",
"/  c #AA897E",
"(  c #B08575",
")  c #B28879",
"_  c #AD8D82",
"`  c #AF9185",
"'  c #AF9188",
"]  c #B09186",
"[  c #B3948B",
"{  c #B5988F",
"}  c #B69C93",
"|  c #B89E95",
" . c #BAA097",
".. c #BDA49B",
"X. c #BFA9A2",
"o. c #C0ABA4",
/* pixels */
"  .                                                           X                                   .   .                         ",
"X X X X X X X X X X X X X X X X X X X X X X   X X X X X X X X X X X X X X X X X X . X X X X X X X X X X X   X X X X X   X X X X ",
"o o o o O O O O O O O O O O O O o o o o O O O O O O O O O o O O O O o o o o O O O O O O O O O O O O O O O O O O o O O O O O O O ",
"+ + + + + + + + + + + + + + + # + + + + # + + + + + + # + + + # + + + + + + + + + + + + + + + + + + + + + + + + # + + + + + + # ",
"% % = $ = = % = & & % & = $ = = & & & & & & & % = $ & $ = $ $ $ $ $ = $ $ $ = = $ = = = = = % % = $ = $ = = = = = = $ = $ = = $ ",
"; : : : ; : : ; : , , : , , , < , , , < , , , : , , , : , , : , , , , : , , , , : ; ; : - : - ; ; , : - ; - ; ; ; ; , ; : : ; ; ",
", , , , , 1 < 1 < 1 1 1 1 1 3 5 3 3 7 1 3 1 1 1 1 1 1 1 1 1 , , , , , , , , , , > , , , , : ; , , ; ; : , , , , , , , , , , , , ",
"1 < 1 1 1 1 1 5 7 7 3 7 8 7 8 7 8 8 8 7 8 8 8 7 7 7 1 1 1 1 1 1 1 1 1 1 1 1 , , 1 < , , < , , , , , , , , , , , 1 , 1 1 1 1 1 1 ",
"0 8 0 0 0 r r w r w y y y s y s p f f p s y y y i t r 0 e e e e 9 8 8 r 8 0 8 8 8 8 8 8 5 5 5 5 5 5 3 3 5 5 5 8 7 7 0 8 8 9 8 0 ",
"m m m m m m C C C Z Z Z H H J J J K J J J H H Z Z Z Z C N C v N m m m m m m m m v v k k k p k j f f j j k j k k k v v v m v m v ",
"` { { { { { { { {  .}  .}  . .}  . . . . . .}  .{ } { { { { { [ [ [ [ [ [ [ [ [ [ ] ` ` _ _ _ _ ~ ~ ~ / / / _ _ ` ] ] [ [ [ [ [ ",
"......................X.X.X.X.X.X.X.X.X.X.X...X.o.o.X...X....................... . .| | { { ' ' ' ' ] [ { { } }  . .............",
"{ [ [ { ` { { { } }  . . . . . . . . . . . .| | { } } { { { { { [ [ ` { [ ` [ ` [ _ _ _ / ~ Q E E E E E ~ ~ ^ _ _ ' ` ' [ [ [ [ ",
"L L L Y Q Q Q Q Q ~ ^ / / _ _ ` ` ` ' ` _ _ / / ~ ~ ~ E E E T L T L J Q L Q L K J J G G Z M M M c c c M m M M G G J J K T K K K ",
"p y p j p k k m M C Z Z H J K K T T K K K J H G Z C C v c k j j y y p p y p p p i u r 9 9 9 7 5 5 5 5 5 7 9 9 9 u u p p p p p p ",
"1 1 3 7 8 8 9 r t y s j h l v m N N N N b l l f f p t e e 6 5 6 7 1 1 1 1 1 1 1 1 < , , - - - - = - = = - - : , , , < 1 1 3 1 1 ",
"1 3 1 7 7 8 8 r t f j l l x b N B V C N N v l l f p t e 0 8 5 5 3 3 2 2 2 2 2 2 2 > > > ; ; * * = - = * * - ; : > > 2 2 2 3 2 2 ",
"- - - ; : > 1 7 5 9 0 r t f j g l l h h f d a r e 8 5 5 1 < , ; * - - * - * * * * * $ $ $ # # @ + + + @ @ $ $ % % & * * * * * * ",
"- - - ; : > 1 3 5 8 e r i d g g l l l g f f t t 0 9 5 3 1 < ; ; ; * * - - - * * * $ * $ $ # # @ @ @ @ @ @ $ $ $ % % * * - * ; * ",
"- - ; : > > 2 7 8 0 q i f f j h l x l h g f d i q 0 6 6 1 1 , ; : * ; - - - ; * * * * * $ $ $ # @ + @ @ $ $ * $ * * * * ; - - ; ",
"; ; : : 1 2 3 8 9 0 t t f j l l x x v l h j d d t e 9 5 3 2 < > : ; ; ; ; ; ; ; ; - * * $ $ $ $ @ @ # $ % % * * * * * ; ; ; ; ; ",
": : > > 1 2 3 8 0 r t p g h l l N N b x l h f d t r 0 8 6 3 2 > > ; > ; ; > ; > ; - * * * * * $ % @ # # $ % * * - ; ; ; : ; ; : ",
"> > 1 1 3 7 8 0 r t y f k h b b N N N b l l h f i t e 0 5 6 4 2 < > > > > > > > > ; ; - * * * $ % $ % % * * * - ; ; > > > > > > ",
"< 2 2 3 4 8 8 w t y g h l x b N B B V N N x l h f f t e 0 6 5 3 2 2 2 2 2 2 2 > > > > ; * * * * % % % & * * - ; > > < < 2 2 2 2 ",
"3 3 3 4 8 0 r r s f g l b b N C V A V B N N b l j g t t r 0 8 5 3 3 2 3 3 3 3 2 2 2 > > ; ; ; * * * * * * ; ; > > > 2 2 3 3 3 3 ",
"4 4 8 8 0 r r s f k l l b N V A H P A A V N N l l g f p r r 0 8 8 4 4 4 4 4 4 4 2 2 2 > > ; ; ; * * - * ; ; > > 2 3 4 4 4 4 4 4 ",
"8 0 0 0 r t y p k l v b N V A H J P J D A V B N v l k s a t r w 0 8 8 8 8 8 8 8 4 4 2 2 > > > ; ; ; ; ; > > 2 3 3 4 4 6 8 8 6 0 ",
"0 0 q w t s s g h x b B V A F P P P P P D A B N b x h g f s t t q q q 0 0 0 0 0 0 0 4 4 2 2 > > > ; > > > 2 3 4 4 6 0 0 0 q 0 0 ",
"w w s a s s g h x b B V A F F P P U I P F F A A N b b h g g t t a w w a a 0 w w 0 0 4 4 4 2 2 > > > > > 2 3 4 4 6 6 0 w w w w w ",
"a a s s s s h b N N V A F F P U T R R T P P F A V B b l h j g s a a a s a a a a q 0 q 0 4 4 4 2 > > 2 2 4 4 4 6 w 0 a a a a a a ",
"s s s s z h b b B V A F P P T R R ! R R T P P D A V B b x h h g s s s s s s a a a a 0 0 6 0 4 4 2 2 2 4 4 6 6 0 a a s s s s s s ",
"s s s n b x b n V A F F P U R W R ! ! R R P T P F A V B b x z h s s z s s s s s a a a a 0 0 4 4 4 2 4 4 6 6 q q q a s s z s s s ",
"z z z x x x n S S D D I U U R W R ( ( R R U U I F D D B B n x z z s s x s n s s s s s a q q 4 4 4 4 4 4 q q q q a a s z z z z s ",
"z z z x n x S S D D I I U R W ! ( ( ( R R R U U P P D S B n n n n n x s n s n n z s s s q q q 4 q 4 4 q q q q a s s s z z z z z ",
"z z x n S n S S D I I U R ! ! ! ( ) ( ( ( R R R I P D S S B B n n z x z n z n s g s g s a q q q 4 4 4 q q q a s z z z z n z z z ",
"x x n x B S D D D I U R R ! ( ( ) ) ( ( ( ( R R I I P D S B B n n z n n n n n n z z z s a q q q q q 4 q q a a s s z z z n n n z ",
"n n n B S S D D I I U R R ! ( ( ) ) ) ) ( R R R I I I D D S S B n n n n n n n z z z z s a a q q q 4 q q q q a s z z z z n n n z ",
"n n n B n S S D F U U R ! ! ( ( ) ) ) ( ( ( ( R I I I D S S B n n s n n n n n n z z z s a a q q q q 4 q q a a z z z n n n n n n ",
"n n n B S S S D I I U W ! ! ( ( ) ) ) ) ( R R R I I F D D S S n S n n n n n n n z z z g a a a q 4 4 q q q a a s z z z n n n n n ",
"n n n B S S D S I U U R R ! ( ( ) ) ) ( ( ) R R I I I D S S S n n n n n n n n n z z z s a a q q q q q q a a a s s z z n n n n n ",
"n n n S S S D D D U U R R ( ( ( ) ) ) ( ( ( R R U U D D D S B B n n n n n n n n z z s s s a q q q q q q q a s s z z z n n n n n ",
"n n n n n S D D I I U R R ! ( ) ) ) ) ) ! R ! R U U I D D S S B n n n n n n n z z z z z a a a q q 4 q q a a s s z z z n n n n n ",
"n n n S S S D D D U U R ! ! ( ( ) ) ) ( ! ! ! R U U I D D S S n n n n n n n n n z z s s a a q q 4 q q q q a a z z z z n n n n n ",
"n n n n S S D D P U U R R ! ( ( ) ) ) ) ( ! ! R U U D D S S S n n n n n n n n n n z z z a a q q q 4 q q q a a s s z z z n n n n ",
"n n n B n S D D I I U R W ! ! ) ) ) ) ) ! ! W R U I P D S S V B n n n n n n n n z z z s s a q q q 4 q q q a a z z z z z n n n n ",
"n x n n n S S D D I I R R R ! ) ) ) ) ( ! ! R R I P F D S S B n n n z n n n n z z z z s a q q q 4 q 4 q q q a s z z z z z n z n ",
"z z n n n B S D D I U U R ! ! ( ! ) ( ! ! R R R I P D S V B n b n n z n z z n n z z s s a q q 0 q 4 q q q q a s s z z z n z n z ",
"z z z n n B n S D D I U U R R ! ! ! ( ( R R U U P P D S B B n x s n s n s n s z s s s s q q q 0 4 4 4 4 q q a a a a z z z z z z ",
"z z z z x N B V A D P P U T W W ! ! ! ! W T U P J F V B B x x x z z g z g z z z s s a q q q q 4 4 4 4 4 4 q q q a a s z z z z z ",
"g g g g z z x B V A A P U U T W R ! ! R R R P P F A A n b x z h g g s g s g s s s a q q q q 4 4 4 4 4 4 4 q q q a a s s s s s s ",
"s s s g h l x x B V A F F P U U R R R U U P P F A B B b x l h g s s a s s s a a a a q q 4 4 4 2 2 2 4 2 4 4 4 q q q a a s a s s ",
"a a a s f h l x b B B A F P U U R R T T P P F A A N b b h g f f a a a a a a a q q q 0 q 4 4 4 2 2 2 2 2 4 4 4 q q q q a a a a a ",
"q a a a s s l z x N B V A F F P Y T I I P D A A b b l l h f a a q q q q q q q q q q 4 4 4 2 2 > > > > > > 2 4 4 q q q q a q q q ",
"6 6 6 a a a d g l l b N V A F J P P I D A A B N b b h g g t t t q q q q q q q 0 q 4 4 4 2 2 2 > > > > > > 2 2 2 4 4 4 q q q q q ",
"6 6 a q q a d d g l b N N A A A P P P J A V N N v h k g y t r 0 q 4 0 0 0 4 0 4 4 4 2 2 > > > ; > ; > > > > > 2 2 4 4 4 q 4 4 q ",
"6 6 6 6 6 t t d f k l l N N V A A D A A V N N x l h s y r r 0 0 4 4 4 4 4 4 4 4 4 2 2 2 > ; ; ; > * * * > > > > 2 2 4 2 4 4 4 4 ",
"3 3 4 4 6 9 0 t t g h l l b N V V A V V N v l l j f f r q 0 4 4 4 2 4 2 4 4 2 2 > 2 > > ; ; * * * * * * * > ; > > 2 > 2 2 2 4 2 ",
"2 < 2 3 6 6 e e t p f j l b N N V V V N N x l k f f t e 0 6 4 4 2 2 2 > > 2 2 2 > > > ; * * * * $ * $ * * * * > > > > > 2 2 2 2 ",
"> > < 2 3 5 6 e r t y g k h l b b B N v x l g g a t e 0 6 6 2 2 > > > > > > > > > ; ; ; * * $ * $ $ $ * * * * * * > > > > > > > ",
"; > > , 2 3 6 6 0 r t f g h l b b N x x l l j a t r 0 6 5 3 2 > > > > ; ; > ; > ; ; * * * * $ $ $ $ $ $ $ $ * * * > * > > > > > ",
"; ; ; > < 3 3 6 9 0 t i y g l l l v x l h g f d t e 9 5 4 2 > > ; ; ; ; ; ; ; ; ; * * * * $ @ @ $ $ $ $ $ * $ * * * * > * > ; ; ",
"; - ; ; , < 3 3 5 e r t y f k h x z x l k f d t r 0 6 4 2 > > > ; ; ; ; * ; * * * * * $ $ $ $ @ $ @ @ @ $ $ $ * * * * ; * ; * * ",
"- - - ; ; < < 5 5 0 0 t t f f g l l l h d d i r 0 8 5 3 2 > ; ; * * * * * * * * * $ * $ $ $ @ @ @ @ @ @ @ $ $ * $ * * * * * * * ",
"- - - ; ; < 3 3 5 0 e t i d f h l l l g g f i t 0 0 5 6 2 > > > * ; ; * * * ; * * * * $ $ $ @ @ @ @ @ @ @ $ $ $ $ * * * * * ; * "
};
