/* XPM */
static char *out[] = {
/* columns rows colors chars-per-pixel */
"32 128 133 2 ",
"   c #2D2318",
".  c #372514",
"X  c #3D2916",
"o  c #332519",
"O  c #382718",
"+  c #37291C",
"@  c #3C2A1C",
"#  c #3F3121",
"$  c #412A15",
"%  c #432E1A",
"&  c #45311F",
"*  c #4B321B",
"=  c #54371E",
"-  c #453224",
";  c #4A3524",
":  c #4D3925",
">  c #493728",
",  c #4E3B28",
"<  c #513621",
"1  c #533C25",
"2  c #5A3F26",
"3  c #533D29",
"4  c #55402B",
"5  c #5D432D",
"6  c #5D4632",
"7  c #65462C",
"8  c #68472C",
"9  c #66492E",
"0  c #69492E",
"q  c #654730",
"w  c #654931",
"e  c #6C4D32",
"r  c #724E31",
"t  c #6D5036",
"y  c #735234",
"u  c #7A5533",
"i  c #74553A",
"p  c #79563A",
"a  c #75583F",
"s  c #7B5A3D",
"d  c #765B40",
"f  c #7E5E42",
"g  c #7F6045",
"h  c #7F6248",
"j  c #7E6652",
"k  c #825D3E",
"l  c #885D3A",
"z  c #8C603A",
"x  c #835F41",
"c  c #856142",
"v  c #8E6645",
"b  c #8E6846",
"n  c #83654B",
"m  c #85694D",
"M  c #8F6A48",
"N  c #956741",
"B  c #936944",
"V  c #996D46",
"C  c #946E4B",
"Z  c #996E49",
"A  c #96704E",
"S  c #99714E",
"D  c #866A52",
"F  c #8A6D54",
"G  c #876F5B",
"H  c #8C7157",
"J  c #8C735C",
"K  c #957354",
"L  c #9D7552",
"P  c #9F7855",
"I  c #93765C",
"U  c #9B775B",
"Y  c #95785E",
"T  c #9D795A",
"R  c #A1734B",
"E  c #A17754",
"W  c #A17956",
"Q  c #A27B5A",
"!  c #A87E5B",
"~  c #8E7662",
"^  c #8E7965",
"/  c #8E7B69",
"(  c #917761",
")  c #927A64",
"_  c #9A7C62",
"`  c #917D6B",
"'  c #9C7F69",
"]  c #A17F63",
"[  c #A7805E",
"{  c #AB825F",
"}  c #9E8067",
"|  c #96816E",
" . c #9A836E",
".. c #978675",
"X. c #9C8673",
"o. c #9B8877",
"O. c #9A8778",
"+. c #97897B",
"@. c #9C8C7D",
"#. c #A48365",
"$. c #A98260",
"%. c #A4856B",
"&. c #A6886F",
"*. c #A9896D",
"=. c #A68770",
"-. c #A68973",
";. c #A88C76",
":. c #A58E7B",
">. c #A98E79",
",. c #AC917D",
"<. c #B29176",
"1. c #B2957E",
"2. c #9C8E81",
"3. c #9E9185",
"4. c #9F948B",
"5. c #A18F80",
"6. c #AD9582",
"7. c #AF9986",
"8. c #A1978E",
"9. c #AF9C8D",
"0. c #B19682",
"q. c #B19885",
"w. c #B29D8D",
"e. c #A19890",
"r. c #B29F91",
"t. c #B3A294",
"y. c #BAA594",
"u. c #B5A699",
"i. c #B8A79A",
"p. c #B9A99D",
"a. c #BCAEA3",
"s. c #BFB0A5",
"d. c #C0B2A7",
/* pixels */
"#.#.#.#.*.v C A A A A A A A A A A A A A S A A A A A L a g g g f ",
"#.#.#.#.*.B C A L S S A A L S S A A A A S S A A A A L a s c f f ",
"#.#.#.#.*.v A L P P P P L [ L L L L L L S S S S A A L a f f f f ",
"#.#.#.#.*.v L x 5 7 t f s s s A C C C [ [ [ [ P L S L a f f f g ",
"#.#.#.#.*.B L a ; : & # @ @ @ O   + +       + 4 B S L a s g f f ",
"#.#.#.#.*.B L s 4 j g p i a i a i = : = 4 4 t h K S E a f f z f ",
"#.#.#.#.*.b L s = s.p.p.p.p.p.p.p.p.a.a.y.[ m / K L L a f f g g ",
"#.#.#.#.*.B L p & 7.7.9.9.9.9.9.9.r.u.7.E u n ~ L S E a d f g d ",
"#.#.#.#.*.B L s & ,.>.&.*.&.&.&.%.-.;.S u 9 j ~ A S L a f g f f ",
"#.#.#.#.*.B L s & 1.:.[ z B B B V Z C p 9 t D ~ A S L a d c f f ",
"#.#.#.#.*.b L p - 1.,.} Z S L L S L L z 0 y m / A S L a d h f f ",
"#.#.#.#.*.b L u ; 1.>.#.S L K L L P T z r y j | S S L a g z f f ",
"#.#.#.#.*.B L s ; ,.,.} S L L L L L T c e t m J S S L a d f f z ",
"#.#.#.#.*.B L s ; ,.,.#.S L L L L P P c 9 r F | S S L a f f g g ",
"#.#.#.#.*.B L p ; ,.,.} S L L L L P P c e r m | S S L a f f g d ",
"#.#.#.#.*.B L s : >.,.#.S L L L L P P v t t D ~ S S L i f f f g ",
"#.#.#.#.&.B L s ; >.>.#.L L L L L L T c e r D / C A E a s f f f ",
"#.#.#.#.*.B L s ; ;.>.%.K K L L L P Q c e e F ^ Z S L a f x f g ",
"#.#.#.#.*.B L p ; >.,.%.S L L L L P W v e r G / Z S L a s g f g ",
"#.#.#.#.*.M L p ; >.>.%.S L L L L E Q c e r H ^ Z S L a f g c s ",
"#.#.#.#.*.b L s ; ;.,.#.L L L L L P Q c e e G ^ Z S L a f f g s ",
"#.#.#.#.*.B L s ; =.>.%.L L L L L P Q v e r J ` Z S L a f f g c ",
"#.#.#.#.*.b L s : ;.6.=.Q Q Q Q Q ] ] B e e H / Z S L a s g g f ",
"#.#.#.#.*.B L s : >.6.$.M c v c c v v x r y H ^ Z S L a f f f f ",
"#.#.#.#.*.B L s 3 ;.{ k 2 3 3 1 1 1 ; 1 0 0 J / Z S S s g s c g ",
"#.#.#.#.*.B L s 4 W k * X @ % % % * $ X * $ H ^ V S L a f g f g ",
"#.#.#.#.*.b L s 3 i e w e p x x n n n F J I ~ ^ V S S a s f f f ",
"#.#.#.#.*.b L s e ~ | | ....O...O.@.@.@.2.2.@.+.V S E a f g f f ",
"#.#.#.#.*.B S z ^ 3.2.@.2.o.X. .X.' U _ Y K S K Z S L a f g f f ",
"#.#.#.#.*.b A S Z V B N N N N B B B Z B V B S Z S S E a s g g z ",
"#.#.#.#.*.b A A A C C C A C Z C C Z C C C C C A A S L a f f g g ",
"#.#.#.#.*.b M A A A S A A S K Z K C K C A A A A A S L a s f g d ",
"#.#.#.#.*.v C A A A A A A A A A S A A A A A A A A S L d d x f f ",
"#.#.#.#.*.b C A A A L S K S S A S S S S A A A A A S L d f f f x ",
"#.#.#.#.*.v C S L W Q Q W Q Q W E E L E L L L Z A S L d f f f f ",
"#.#.#.#.*.b C S P - ; : 7 5 7 i s d x C C M W U K Z L d f f f x ",
"#.#.#.#.*.B C K Q # 4 * X . X X . O O . o o - 3 L Z L d f x f f ",
"#.#.#.#.*.b A L Q 4 a d.w.r.:.-.' G G i d 5 d G L S S d f f f f ",
"#.#.#.#.*.B C S Q : w r.r.t.t.u.r.a.r.d.a.0.K / Z S E d f f d f ",
"#.#.#.#.*.b C A P : 9 6.,.:.:.6.6.7.r.q.] l d ` Z S L d f f x x ",
"#.#.#.#.*.v C S Q 1 9 1.-.} S P ] ] ' E x 5 f ` Z S S d f f f f ",
"#.#.#.#.*.b C S P 3 5 q.>.Q B S Z Z R v r 8 n ^ Z Z L d d x f f ",
"#.#.#.#.*.v C K W 3 5 q.>.#.Z L K L E C r 8 n ` Z S U d f x f f ",
"#.#.#.#.*.B C L Q 3 5 6.>.} Z L L L Q C r 8 D ) Z S K d f f x f ",
"#.#.#.#.*.v C A W 4 2 q.>.#.Z L L U E M r 8 D ( Z S L d f x g f ",
"#.#.#.#.*.b C L W 4 1 q.>.} Z L L L Q v e 8 G ' Z S L d d f f f ",
"#.#.#.#.*.v C A Q 5 2 ,.>.#.Z K L L Q v e 8 G ( Z S L d f f x f ",
"#.#.#.#.*.b C L W 6 4 6.:.#.S S L U Q v e 8 G ( Z C R d f f f f ",
"#.#.#.#.*.v C K P 5 3 1.;.#.S S L P T v e 8 J ) Z S L d x x f f ",
"#.#.#.#.*.B C S P 7 4 >.>.%.A S L P Q v e 7 J ( Z S L d x d f g ",
"#.#.#.#.*.b C S W w 1 ,.,.%.A L L P Q v 0 7 J ) Z S S d d f f f ",
"#.#.#.#.*.b Z K W w 1 ,.>.#.S L L P Q c 0 8 ) ( Z S L d x x x f ",
"#.#.#.#.*.v Z A W w 1 ;.:.%.Z L L L ! c 9 0 I I Z S L d f f f f ",
"#.#.#.#.*.v A S W w 1 >.>.%.L S L P Q c 0 0 ) ) Z S L d f f f f ",
"#.#.#.#.*.b C A E t 1 ;.>.%.L L L P P c 0 0 ^ I Z S K d f f f x ",
"#.#.#.#.*.b A S P e 1 =.>.%.S L L U W c 0 e ^ I Z S L d f f f f ",
"#.#.#.#.*.v C S W t 1 -.,.%.L S L U P x 9 e ~ Y Z S L d f f f f ",
"#.#.#.#.*.v C A P i , *.>.%.L L L P P x e e ( I Z A L d f f f f ",
"#.#.#.#.*.v C L P y , %.>.%.L S L U L x 9 r ^ K Z S L i f f f f ",
"#.#.#.#.*.v C S P y , %.,.&.L L L P L k e t ^ I Z S L d f f f f ",
"#.#.#.#.*.B C A P i 1 } ,.%.L S L P L s e y ~ I S S L d d x f f ",
"#.#.#.#.*.b C S P i 1 ' ,.&.L L L P L f e y ) Y C S L d f x x f ",
"#.#.#.#.*.B C S P i : ] >.&.L S L E L s 9 i ( K Z S L d d f f f ",
"#.#.#.#.*.b C C L d 1 ' ,.&.U S L U L p q i ~ K Z S L d x x f f ",
"#.#.#.#.&.v C S P f ; _ ,.=.P L L W S f q d / K S S L a s g g z ",
"#.#.#.#.*.M C A P s 1 _ ,.=.L S L E K p 0 i / I Z S L a g d g f ",
"#.#.#.#.*.B C C L s : Y ,.&.P S L W S p q s / K S S E a s g g f ",
"#.#.#.#.&.v C L P x 1 U 6.=.Q S L W Z p q x / L Z S S a f g f f ",
"#.#.#.#.&.B C Z L f ; Y ,.&.U S L U A i 9 d / A S S S a s c g f ",
"#.#.#.#.&.B C C P x ; K ,.&.E S L Q A r e f / L Z S L a g s g f ",
"#.#.#.#.*.v C L P c ; I 6.-.W S L W A i w f / A S S L a f g f g ",
"#.#.#.#.&.v C C L c ; K ,.-.P S L W C r 9 c / A S S L a s g f f ",
"#.#.#.#.*.B C C L c : M ,.;.T S U W C r q n ^ K S S L a f x g f ",
"#.#.#.#.*.B C A E c , H 6.-.T S L W M i q n / Z C S L a f f x f ",
"#.#.#.#.&.v C A L v : F ,.-.T S L Q M r 0 n / L C S L a f f f g ",
"#.#.#.#.*.M C A L v ; n 1.-.Q L E Q M r 0 m ` C Z S L a d x f f ",
"#.#.#.#.*.v C A L v > m 0.,.#.E Q ] C y 0 m ^ C Z A L a f c f f ",
"#.#.#.#.*.B C A L C ; D q.*.S v B C M e 0 F ^ L S S L a f s g g ",
"#.#.#.#.&.v C A L M > m <.Z q 3 5 5 0 e 0 G / Z A A L d f f f f ",
"#.#.#.#.&.M C A L C 3 v Z 2 % % % % * < * F ^ C A A L i f f f f ",
"#.#.#.#.&.B B A L C , e i 7 w t t i i i w ~ / C A S L a f f f f ",
"#.#.#.#.&.v C A S C 5 n ` | | @.O.@.@.2.2.2.2.B A A L a f f f f ",
"#.#.#.#.&.B C A S B j 2.e.5.o.@.=.X.' _ _ K U Z A S E a f f g f ",
"#.#.#.#.&.M C A A A K Z B N B N B B B B B B Z C A Z L a f f f f ",
"#.#.#.$.*.B C A A A S S A Z C C A C C A C A C A A S L a s c f g ",
"#.#.#.#.*.v C A A A S A A A A A A A A A S A A A K Z E a f f f f ",
"#.#.#.#.*.M C A A S A S S S S L Z S S Z A A A A C A L a f f f c ",
"#.#.#.#.*.B C L P L W W P P P P E E U U L L L L L A L a d x f f ",
"#.#.#.#.*.b S M 6 t s s k s x s f d Z C A C M M C L L d f f f f ",
"#.#.#.$.*.B S A > 4 : - - - - - - - & + + o # 3 x S L d f f f f ",
"#.#.#.#.*.v A W 4 t y t e e e e e e e w e e u D _ L L d f f f x ",
"#.#.#.#.*.v A P 9 i J J I I ) ) ` ` ' ' O.O...+.K Z K d f f f f ",
"#.#.#.#.*.b Z L a ~ @.3.2.2.3.3.8.8.5.O.5.' ' ' S S L d f f f f ",
"#.#.#.#.*.v C A A T T T K A K N N N N N C C S B C Z L d f f f f ",
"#.#.#.#.*.b A A A A V S S S S Z S Z S S S A S Z C S L d f f f f ",
"#.#.#.#.*.v A A L M ! ! ! Q Q Q Q Q E E L U L K S S S d f f f f ",
"#.#.#.#.*.b C K Q o @     ; * - 9 5 9 p p s B b L S L a f f z g ",
"#.#.#.#.*.B C L Q : 5 4 = * % & X . X . o @ , t S S L a f f d g ",
"#.#.#.#.*.v C L Q - f i.t.r.r.r.r.r.r.t.q.S f J S S L a f f g f ",
"#.#.#.#.*.v C S T - e y.r.t.t.t.t.u.u.7.Q p J | S S L a f f f f ",
"#.#.#.#.*.v C L W - w 6.6.:.>.>.:.,.;.R r 0 ^ ) Z S L a d g g g ",
"#.#.#.$.*.v C L P > t 0.>.T Z S S T S i 5 y J ) Z A L a f z f d ",
"#.#.#.#.&.M C L P - e q.>.T B S S L S u 8 i ^ Y Z S L a g z g f ",
"#.#.#.#.&.b B L L > e 6.>.#.Z L L Q A y 8 s ^ Y Z S L a g f f f ",
"#.#.#.#.*.B C L L - t q.;.#.Z S L W A i 9 s / I Z A L a g g g f ",
"#.#.#.#.=.v C L L > e 0.;.] S L L T B y 9 g ^ K V S L a s c f f ",
"#.#.#.#.*.v B L W > w 7.;._ S L L Q C t 7 h / K A S S a f f f f ",
"#.#.#.#.*.v C K W - q 7.>.#.Z L L Q B t 8 n | S C S L a f f f f ",
"#.#.#.#.*.b C L P - w 7.>.' S S L Q b e 8 m / S Z S L a s f f f ",
"#.#.#.#.*.B C L L ; w q.>.#.Z L P T v e 8 m / S S S E a g f f g ",
"#.#.#.#.*.v C L L ; w q.>._ Z L P Q v w 9 H | Z C S L a f f z g ",
"#.#.#.#.*.v C L L ; w 0.>.#.S L W Q c 9 8 J / B A S E a d g d g ",
"#.#.%.$.&.v C L L > 9 q.,.*.Q Q Q Q M e 8 J ` V S S L a f f f x ",
"#.#.#.#.*.v C L L ; 7 w.*.Z p s c M k e e I ` Z A S L a f f g f ",
"#.#.#.#.*.v C L L ; q <.N 1 % & ; 1 2 q 0 ) ) Z S A L a s g f g ",
"#.#.#.#.*.v B L L ; e l = . $ $ * % % * = ~ ) Z S Z L a f g c s ",
"#.#.#.#.*.v C L C 4 n ) | X.X.o.' ~ ~ G ^ +.) V S S L a f g f g ",
"#.#.#.#.*.v C K M D 2.4.e.5.@.@.2.2.:.2.2.o.( Z S S L a s g f f ",
"#.#.#.#.*.B C A S S B B N N N B N B V N N B Z C S S L a a g f f ",
"#.#.#.#.*.v C A A C Z C Z C C C C C Z C A Z C A A A S a g g z f ",
"#.#.#.#.*.v C A A K C A A A A A A A A A A K A A A A E a s g g f ",
"#.#.#.#.*.B C A A A A A A A A A A A A A A A A A A A L a g z g f ",
"#.#.#.#.*.v C A A A A A A A A A A A A A A A A A A S L a s g s g ",
"#.#.#.#.*.b C A A A A A A A A A A A A A A A A A A S L a g c d g ",
"#.#.#.#.*.b C A A A A A A A A A A A A A A A A A A A L a s f f f ",
"#.#.#.#.*.v C A C K A A A A A A A A A A A A A A A S L a g f f g ",
"#.#.#.#.*.v C K A C A A A A A A K A A A A A A A A A L a g z f f ",
"#.#.#.#.*.B C C A A A A A A A A A A A A A A A A A A S a g f f f "
};
