/* XPM */
static char *out[] = {
/* columns rows colors chars-per-pixel */
"64 128 163 2 ",
"   c #3C2817",
".  c #3F2918",
"X  c #442D1A",
"o  c #4E331E",
"O  c #53351E",
"+  c #5D3A1F",
"@  c #4D3420",
"#  c #533620",
"$  c #563921",
"%  c #5A3B22",
"&  c #573F29",
"*  c #633F23",
"=  c #634127",
"-  c #6D4525",
";  c #644329",
":  c #69462A",
">  c #6C492C",
",  c #704726",
"<  c #734827",
"1  c #734B2D",
"2  c #7C4E2C",
"3  c #7D502C",
"4  c #664C35",
"5  c #6E4E33",
"6  c #734E31",
"7  c #6A5439",
"8  c #6F593A",
"9  c #765133",
"0  c #7B5333",
"q  c #725A37",
"w  c #75563B",
"e  c #7A5639",
"r  c #725B3C",
"t  c #7C5A3B",
"y  c #7C623E",
"u  c #735C41",
"i  c #7D5E42",
"p  c #766244",
"a  c #7C6445",
"s  c #7D644C",
"d  c #7F694E",
"f  c #7E6B51",
"g  c #81532F",
"h  c #835532",
"j  c #855936",
"k  c #895B36",
"l  c #825D3D",
"z  c #8A5E3A",
"x  c #83603F",
"c  c #8E603C",
"v  c #91633E",
"b  c #825F40",
"n  c #856341",
"m  c #8A6545",
"M  c #846A43",
"N  c #8A6D46",
"B  c #84674B",
"V  c #88674B",
"C  c #856C4A",
"Z  c #8A6D4B",
"A  c #946641",
"S  c #956944",
"D  c #9C6E47",
"F  c #936C4B",
"G  c #996E49",
"H  c #8D7247",
"J  c #8C724B",
"K  c #927344",
"L  c #92754D",
"P  c #9B714C",
"I  c #94794E",
"U  c #9C7D4D",
"Y  c #846C52",
"T  c #8A6D52",
"R  c #916F51",
"E  c #867255",
"W  c #8C7554",
"Q  c #86735B",
"!  c #8A765B",
"~  c #8D795B",
"^  c #917552",
"/  c #9D7552",
"(  c #947A54",
")  c #9A7D54",
"_  c #91765D",
"`  c #997759",
"'  c #947C5B",
"]  c #9C7D5D",
"[  c #A3744C",
"{  c #A67750",
"}  c #A57954",
"|  c #A87C57",
" . c #A27B5B",
".. c #A87D5A",
"X. c #897760",
"o. c #8D7B63",
"O. c #8E7F68",
"+. c #927D63",
"@. c #9D7E61",
"#. c #927F68",
"$. c #9D8156",
"%. c #97815E",
"&. c #9B815C",
"*. c #A18252",
"=. c #A0845C",
"-. c #A9805E",
";. c #A6895D",
":. c #8E8067",
">. c #8F806A",
",. c #938166",
"<. c #9E8561",
"1. c #9E8867",
"2. c #93836C",
"3. c #9B856B",
"4. c #9D886B",
"5. c #948671",
"6. c #988771",
"7. c #968A76",
"8. c #9A8B75",
"9. c #978C79",
"0. c #9A8D7A",
"q. c #9D917E",
"w. c #A28662",
"e. c #AA8364",
"r. c #A28862",
"t. c #A98D63",
"y. c #A5866B",
"u. c #AB8669",
"i. c #A38B6B",
"p. c #AB896E",
"a. c #AC926B",
"s. c #A48D72",
"d. c #AC8C73",
"f. c #A28E79",
"g. c #AB8F79",
"h. c #A59174",
"j. c #AD9673",
"k. c #AF9875",
"l. c #A5937C",
"z. c #AB947D",
"x. c #AA997E",
"c. c #B09977",
"v. c #B09A79",
"b. c #9F9380",
"n. c #A29683",
"m. c #AC9682",
"M. c #A59986",
"N. c #AA9A84",
"B. c #A69B89",
"V. c #AA9E8B",
"C. c #B09581",
"Z. c #B29E81",
"A. c #AFA086",
"S. c #ACA08E",
"D. c #B2A185",
"F. c #B2A38D",
"G. c #AEA391",
"H. c #B0A392",
"J. c #B5A895",
"K. c #B2A798",
"L. c #B4AA9C",
"P. c #B6AEA2",
"I. c #B7B0A6",
/* pixels */
"G.G.G.G.G.G.G.G.G.G.G.G.G.G.G.G.G.G.G.G.G.G.G.G.G.G.G.G.G.G.G.K.S.H.H.G.G.H.G.H.G.G.G.G.H.G.H.G.G.G.G.G.G.G.G.G.G.G.G.G.G.G.G.G.",
"G.G.G.G.G.G.G.G.G.G.G.G.K.G.G.G.G.G.G.G.G.G.K.G.G.G.G.G.G.G.G.G.J.L.P.P.P.P.P.I.P.I.P.I.P.P.P.I.P.I.P.P.P.I.P.I.I.I.I.L.L.S.S.S.",
"G.G.G.G.G.G.G.G.G.G.G.G.G.G.G.G.G.G.G.G.G.G.G.G.G.G.G.G.G.G.G.I.I.P.L.L.P.L.L.L.L.P.L.L.L.L.L.L.P.L.L.P.L.L.P.L.L.L.L.L.K.S.N.S.",
"G.G.G.G.S.S.G.G.S.S.S.S.S.S.V.G.S.V.G.G.V.S.V.V.V.M.M.V.G.G.P.P.L.L.L.H.H.H.H.H.H.H.H.H.J.H.J.H.H.H.H.H.K.H.H.H.H.J.H.H.S.x.0.M.",
"G.S.V.N.M.l.l.l.l.l.l.h.l.l.l.l.l.l.l.l.l.l.l.l.l.i.<.l.V.G.L.L.J.H.H.H.H.V.H.H.G.S.S.H.H.H.H.S.S.H.H.H.H.H.H.H.F.H.G.S.A.x.8.n.",
"S.M.N.l.i.4.i.w.1.i.1.1.1.r.1.1.1.4.w.1.1.1.1.i.1.&.( ,.n.G.L.K.H.H.S.H.H.H.H.H.H.H.H.H.H.H.H.H.H.H.H.H.H.H.F.H.H.H.H.F.S.x.h.q.",
"G.n.h.4.<.<.<.<.<.&.&.<.&.<.r.<.&.<.&.<.&.&.w.&.&.] W ~ b.S.L.K.H.H.H.V.H.F.S.H.H.H.H.H.H.H.H.H.H.H.H.S.H.S.G.H.H.H.H.H.S.m.8.q.",
"V.l.s.w.<.<.<.&.<.<.r.r.&.<.&.<.<.<.w.<.w.<.<.<.&.( J ! q.V.K.H.H.H.H.H.H.H.H.H.H.H.H.S.S.H.H.H.H.H.H.H.H.H.H.H.H.S.H.F.S.N.4.0.",
"V.l.i.1.<.&.r.<.<.&.r.<.<.<.&.<.<.<.<.r.&.<.&.<.&.( C W q.B.G.K.G.H.H.G.H.F.G.H.H.H.H.G.H.F.H.H.S.H.H.H.H.H.H.F.H.H.H.H.F.x.1.8.",
"V.l.i.w.<.<.<.&.<.<.r.&.r.&.<.<.&.<.&.&.<.<.r.<.&.( C ! q.S.S.H.F.H.H.H.G.H.H.H.H.H.H.H.G.H.G.H.H.H.V.H.H.H.H.H.G.H.H.H.S.l.<.7.",
"B.l.4.1.&.&.<.&.<.&.<.<.<.<.&.&.r.<.&.r.<.<.&.&.&.W C ! q.V.S.K.K.H.H.H.H.H.H.G.S.F.H.F.F.H.F.F.F.J.H.H.H.F.H.G.G.F.S.F.S.l.<.5.",
"B.i.r.&.%.&.&.%.&.&.&.&.&.&.&.%.&.&.&.&.&.&.%.%.' J a ! q.S.S.K.H.F.F.H.H.H.H.F.S.H.F.S.H.S.S.S.V.V.V.V.N.S.S.S.V.F.S.V.x.4.] 7.",
"G.4.L J C C C C C C C C C C C C C C C C C C C C d 8 8 O.b.S.G.G.S.D.V.S.S.V.A.S.V.F.V.Z.B.m.x.x.j.g.h.j.h.4.h.i.i.s.s.i.<.( ~ 7.",
"G.n.! p u 8 7 7 7 7 7 7 7 7 7 8 8 r r 8 8 8 u u p p Q 9.B.S.G.V.N.l.h.i.i.h.i.8.s.i.s.s.i.r.&.=.] ] ( W L W J J J J C J J ! 5.b.",
"G.S.M.9.5.>.>.:.:.:.>.>.>.>.5.5.5.5.5.2.5.5.5.7.7.9.b.b.S.G.G.S.M.h.r.&.&.&.<.] ' ( W ! ! ~ ' o.,.,.,.,.,.2.2.>.2.2.5.5.5.9.b.M.",
"G.G.G.S.B.B.B.M.M.M.M.M.M.M.M.B.M.B.M.M.M.B.M.M.B.S.B.S.G.G.G.G.S.M.q.0.0.0.7.7.7.7.9.0.9.0.q.q.q.q.q.b.b.b.b.M.n.M.M.M.M.B.V.G.",
"G.H.G.S.G.S.F.S.S.G.G.S.S.S.V.V.N.C.z.C.v.v.m.C.C.z.C.C.C.C.C.C.g.g.j.d.d.d.p.p.u.f.B.V.B.S.S.B.V.S.S.S.S.S.S.S.S.S.S.S.G.S.G.S.",
"S.S.S.S.S.S.S.B.V.V.V.G.H.S.C.C.z.d.p.u.u.u.u.u.u.u.u.u.u.u.u.u.u.u.u.u.u.p.u.e.| } B.S.G.G.S.S.S.V.S.V.S.S.S.S.S.S.S.S.S.S.S.S.",
"N.x.l.z.x.z.x.x.z.h.i.M.S.N.g.d.e...| { { { { { { { { { { { { { { { { { { { { { D A 0.V.S.S.S.N.z.l.k.z.h.x.x.x.x.z.x.z.l.k.l.k.",
"i.i.t.i.i.r.i.i.i.r.` 8.B.m.d...{ [ [ [ [ [ [ { [ [ [ [ [ [ [ [ [ [ [ [ [ [ [ [ A z 6.B.A.m.z.h.i.i.i.r.i.i.i.r.t.i.i.i.r.i.r.i.",
"r.r.=.r.=.r.r.r.r.$.J 5.M.g.y...{ [ [ [ [ [ [ [ [ [ [ [ [ [ [ [ [ [ [ [ [ [ [ D A z 5.B.m.f.i.r.r.r.r.r.r.r.r.r.=.r.r.r.r.r.r.r.",
";.r.r.r.r.r.r.<.r.I H 7.M.d...} [ [ [ [ [ [ [ [ [ [ [ [ [ [ [ [ [ [ [ [ [ [ [ [ A j #.B.x.s.i.w.r.r.r.r.r.=.r.r.r.r.r.r.r.r.r.r.",
"r.=.r.&.r.r.r.r.r.I Z 7.B.d.| { [ [ [ [ [ [ [ [ [ [ [ [ [ [ [ [ [ [ [ [ [ [ [ [ A j #.B.n.h.i.t.r.r.r.=.r.r.r.r.r.r.r.r.r.r.r.r.",
"i.i.r.r.r.r.r.r.=.( N 7.B.d.| } [ [ [ [ [ [ [ [ [ [ [ [ [ [ [ [ [ [ [ [ [ [ [ D A j 7.B.N.l.i.t.r.r.r.t.r.r.r.r.r.r.=.r.r.r.r.r.",
";.r.r.r.r.r.=.r.$.L M 7.B.g...| { [ [ [ [ [ [ [ [ [ [ [ [ [ [ [ [ [ [ [ [ [ [ [ v j 5.B.A.l.h.r.r.r.;.r.r.r.r.r.t.1.;.1.;.1.r.;.",
"=.=.=.&.=.=.=.=.( C s 8.B.l...| { [ [ [ [ [ [ [ [ [ [ [ [ [ [ [ [ [ [ [ [ [ [ D v t 5.B.M.j.i.&.=.&.=.&.&.;.r.&.&.&.&.;.=.$.=.&.",
"L L L J L L L H M t Q 0.V.z.| [ D D D D D D D P D P P D D D D [ D D P D D [ D v c 0 7.B.M.r.$.( L I L I I ( $.$.$.I I L L I I I ",
"y y y y y q y y q q o.b.S.N.{ c c c z z z c z b z z z z c z c k c c c z c k k h 6 t 7.A.S.4.H M x y y y M H M M M M x a x y y y ",
"~ ! ! ! W ! ! ! Q o.7.M.S.S.m.R j 2 6 6 6 1 1 6 > 6 1 1 1 1 1 1 6 6 6 1 1 1 > 6 t o.q.V.G.B.7.~ E ! Q ~ W J d C Y E J E ! W W ! ",
"b.b.b.b.b.b.b.q.b.n.B.V.G.G.V.n.f.6.5.#.#.5.5.#.5.#.#.#.+._ _ _ ~ W T _ _ _ _ #.7.q.B.S.G.G.S.b.q.q.q.b.q.q.q.q.0.q.q.q.q.q.q.b.",
"G.S.V.S.S.S.S.S.V.G.V.G.G.G.G.G.S.V.B.B.B.B.B.B.B.B.B.B.B.B.n.n.b.b.b.b.n.n.M.b.M.B.S.G.G.G.G.S.S.S.G.B.G.B.B.B.M.M.B.B.S.B.V.V.",
"s.f.f.d.s.s.y.s.d.f.f.d.f.s.p.y.y.@.y.y.y.y.@.y.y.y.y.p.@. .@.n.G.G.G.K.K.K.G.K.L.L.L.L.K.L.L.L.K.K.G.G.G.G.V.x.y.e.y.e.y.w.} v ",
"} } / } [ / P P { / { / P G G G A D D G S G S G D S G G A A k ` M.G.P.P.P.L.L.P.P.L.L.P.L.L.P.L.L.L.L.H.V.B.N.e.} P G G S v h , ",
"S S m A v c z v A A v z z k h g g g g h h h h g h h h h g g g g #.G.L.P.K.K.K.K.K.K.J.K.K.K.K.K.K.J.H.H.V.l.y./ A k h h g 2 < * ",
"h h h g g g g g 0 g g g 3 g g 2 2 2 2 2 g 2 2 2 2 2 2 2 g g 1 2 #.V.K.K.H.H.H.H.H.H.F.H.H.H.F.H.H.H.F.B.x.8.P v k 0 2 3 g 2 , + ",
"2 3 2 3 2 2 2 2 2 2 g 2 2 2 2 2 g 2 2 g 2 2 g 2 g 2 2 g g g * * #.m.K.K.H.H.H.H.H.H.H.H.H.H.H.H.H.H.S.m.s.7.S k g 3 2 2 2 2 - + ",
"g 2 2 g 2 2 2 g 2 2 2 2 2 2 2 2 2 g 2 2 2 2 g 2 2 2 g 2 2 < * 1 #.m.K.K.S.H.H.H.H.H.H.H.H.H.H.H.F.G.F.m.s.6.F h g 2 2 2 g 2 , + ",
"2 2 2 2 2 2 2 2 2 g 2 2 2 g 2 2 2 2 2 2 g 2 2 2 2 2 2 2 2 2 < * #.B.H.K.H.H.H.H.H.V.H.H.H.H.H.F.H.H.V.z.4.7./ z g g 2 2 g < , + ",
"2 2 2 2 g 2 2 2 2 g 2 g g 2 2 g 2 2 2 2 2 2 2 2 g 2 2 2 2 < * 1 #.B.H.H.H.S.H.H.H.H.H.H.H.H.F.H.H.G.S.N.i.8.@.A k g 2 g 2 < , + ",
"g 2 2 g 2 2 2 g 2 2 2 2 2 2 2 2 g 2 2 g 2 2 g 2 2 2 g 2 2 2 2 < o.M.S.K.H.H.H.H.H.H.H.H.H.H.H.H.H.F.V.z.4.8.3.S z g 2 2 g 2 , + ",
"2 2 2 g 2 2 2 2 2 2 2 g 2 2 g 2 g 2 2 g 2 2 2 2 2 2 2 2 2 2 , 1 +.M.S.K.K.H.H.H.H.H.H.H.H.H.H.H.F.F.V.h.4.8.3.S h g 2 g g g * + ",
"2 2 g g 2 2 g 2 2 g 2 g 2 2 2 2 2 2 2 2 2 2 2 g 2 2 2 2 2 2 - : ,.M.S.K.K.F.H.H.V.H.H.H.H.H.H.G.G.F.N.h.3.0.@.A k g 2 g g g * * ",
"g 2 g g g 2 g g 2 2 g g 2 2 2 2 g 2 2 2 g g g 2 2 2 2 2 < < * : 5.M.G.L.H.H.H.H.F.H.H.H.H.J.H.V.S.S.m.i.3.q.] j g 2 g < * g * * ",
"g * * g g * < 2 < 2 < < < 2 2 < < < 2 2 < < < 2 < 2 2 < , * O 5 0.B.G.K.F.S.N.S.V.V.V.C.V.V.V.C.x.h.i.&.,.q.4.3 , * * * * + * # ",
"* + * * * * * * * * * * * * * * * * * * * * * * * * * + $ O O B b.B.G.S.m.h.h.h.i.s.s.s.d.i.i.i.@.] ` ^ #.b.M.@.h > * % % O # % ",
"O O O + % % % % % % % % + + + + % # % * * * % * * ; : : > w V 5.n.G.G.B.h.4.&.<.<.&.%.] ] ' ] +.+.+.,.5.b.M.S.V.m.f.9.9.7.5.7.7.",
"#.#.@.#.7.7.7.7.7.7.7.9.7.7.6.7.7.9.7.9.b.9.7.0.0.0.0.0.9.0.n.m.V.G.G.S.M.q.f.0.0.8.7.7.8.7.7.9.0.b.b.b.n.V.G.G.V.B.V.B.B.B.B.B.",
"V.V.V.H.V.B.V.B.V.B.B.B.B.V.V.V.V.B.V.B.V.B.V.V.B.B.B.B.m.m.m.C.N.N.m.z.z.g.g.d.s.p.s.d.d.g.s.g.f.d.m.m.m.m.m.m.m.m.C.C.C.B.H.G.",
"K.P.P.P.P.P.P.P.P.P.P.I.P.P.I.P.P.P.I.L.P.L.J.V.S.S.N.C.C.z.g.g.d.d.p.d.d.d.p.p.u.u.p.d.d.d.d.p.d.d.d.d.d.p.p.p.d.g.d.p.....V.G.",
"P.P.K.P.K.P.K.K.L.L.L.L.L.L.L.L.L.L.L.L.L.L.J.V.B.N.g.d.u.u.u.................| | | ..-.-.-.-...-.-...| | | | -.........[ S 0.B.",
"K.P.G.K.H.H.H.H.H.H.H.H.H.H.H.H.F.H.H.H.G.H.N.g.0.B.d.e...{ { { { [ { [ { [ [ { [ [ { [ { { { [ { { [ { { { { { [ { { [ D k #.B.",
"K.K.G.G.H.H.H.H.H.H.H.H.H.H.H.H.H.H.H.H.H.S.z.i.8.M.p...{ [ [ [ [ [ [ [ [ [ [ [ [ [ [ { [ [ [ [ [ [ [ [ [ [ [ [ [ [ [ [ A j @.M.",
"H.H.H.H.H.H.H.H.H.H.H.S.H.H.H.G.H.G.G.F.H.V.x.i.7.m.p...{ [ [ [ [ [ [ [ [ [ [ [ [ [ [ [ [ [ [ [ [ [ [ [ [ [ [ [ [ [ [ D A j +.n.",
"H.H.H.H.H.H.G.G.H.S.H.H.H.H.G.F.H.F.H.H.H.S.z.i.7.M.p. .[ [ [ [ [ [ [ [ [ [ [ [ [ [ [ [ [ [ [ [ [ [ [ [ [ [ [ [ [ [ [ P A h _ n.",
"H.H.H.H.H.H.G.H.H.H.S.H.S.H.F.G.S.H.G.H.H.F.z.4.8.B.p...{ [ [ [ [ [ [ [ [ [ [ [ [ [ [ [ [ [ [ [ [ [ [ [ [ [ [ [ [ [ [ [ A j +.n.",
"H.K.H.H.G.H.H.H.H.H.F.H.H.H.G.F.G.F.H.H.H.S.x.4.9.m.u...{ [ [ [ [ [ [ [ [ [ [ [ [ [ [ [ [ [ [ [ [ [ [ [ [ [ [ [ [ [ [ D A j o.M.",
"G.K.K.H.H.G.H.H.H.F.H.H.H.H.H.G.H.H.H.G.H.F.z.i.7.n.p...[ [ [ [ [ [ [ [ [ [ [ [ [ [ [ [ [ [ [ [ [ [ [ [ [ [ [ [ [ [ [ P A j o.n.",
"H.K.K.H.F.H.H.H.H.S.G.H.G.F.H.H.H.H.H.V.H.S.z.4.8.l.u...[ [ [ [ [ [ [ [ [ [ [ [ [ [ [ [ [ [ [ [ [ [ [ [ [ [ [ [ [ [ [ [ A j o.M.",
"K.K.K.H.H.H.H.H.H.H.H.H.H.H.H.F.H.H.H.F.S.F.z.i.8.0.u.| [ [ [ [ [ [ [ [ [ [ [ [ [ [ [ [ [ [ [ [ [ [ [ [ [ [ [ [ [ [ [ [ A j +.M.",
"G.K.G.H.H.H.S.F.H.G.F.H.H.H.H.F.H.H.H.H.S.S.x.4.7.l.e.{ [ [ [ [ [ [ [ [ [ [ [ [ [ [ [ [ [ [ [ [ [ [ [ [ [ [ [ [ [ [ [ v z j +.M.",
"G.H.S.V.V.V.S.S.V.V.V.S.Z.S.S.S.V.Z.S.V.F.m.h.<.5.M...[ D D D P [ D P D D [ D D P D P D D D P D [ D D D D P D D [ D G z h e #.M.",
"G.V.l.f.i.d.i.h.s.i.h.i.i.s.h.i.s.s.s.i.i.r.( W 7.M.f.G A z z z c k z z z k z z z z z z z c z z c k z z z z z z k k j 2 : B 9.B.",
"G.B.f.@.] ^ ( W ( W W W W W W W W _ ^ ~ ' ~ W O.0.V.V.3.b 0 1 1 < 1 6 6 2 6 2 6 1 6 1 > 1 1 6 6 g 2 9 2 2 6 1 1 < 1 6 6 T 5.n.V.",
"G.V.M.b.0.7.7.7.7.7.8.7.8.9.7.0.9.9.0.0.9.0.0.q.M.V.G.S.n.8.6.5.6.2.6.5.7.5.7.7.6.5.5.5.6.5.5.5.4.3.7.7.7.5.5.5.3.5.5.7.0.n.V.G.",
"G.G.G.V.M.M.B.V.B.B.B.S.B.S.B.B.B.B.B.V.V.B.B.V.S.S.H.S.S.B.A.M.n.N.N.N.n.N.M.M.B.B.B.B.B.B.V.V.S.V.G.V.V.V.V.V.V.M.B.V.V.S.G.G.",
"P.L.P.L.P.P.P.L.L.K.S.S.S.G.S.S.S.S.S.A.S.V.S.S.F.S.S.S.S.A.S.S.S.S.S.S.S.S.B.N.n.V.G.G.L.I.P.P.P.P.P.P.P.P.P.P.P.P.P.P.P.P.P.P.",
"L.L.L.L.L.L.L.L.L.K.S.B.S.S.S.S.N.x.z.z.h.k.x.x.x.z.x.l.l.l.x.l.h.x.z.h.x.h.h.a.r.0.B.G.L.P.L.L.L.L.K.L.K.L.K.L.L.L.L.L.L.L.L.K.",
"H.G.H.H.H.K.H.H.F.S.B.l.b.S.S.x.h.a.i.i.i.i.i.r.i.r.r.t.i.i.i.i.i.i.t.i.i.i.t.&.L ] b.G.L.L.K.H.H.G.K.H.H.H.H.H.H.H.H.H.H.K.H.H.",
"H.H.H.G.G.H.H.H.S.S.x.h.q.S.M.l.a.i.r.r.r.r.r.r.=.r.r.&.;.1.&.t.=.r.r.r.r.r.=.( H ~ q.G.L.K.F.F.G.F.G.H.H.H.H.H.H.H.H.F.H.H.H.F.",
"H.H.H.H.H.H.H.H.F.S.N.h.q.S.N.j.i.r.r.r.r.r.=.r.r.r.r.r.r.&.t.&.r.;.r.r.r.r.&.$.C ,.b.G.L.K.H.G.H.H.H.H.G.H.H.H.H.H.H.G.G.F.G.H.",
"H.H.H.F.G.F.H.H.H.F.M.s.0.V.B.h.a.r.r.r.r.r.r.=.r.r.r.r.t.1.r.r.r.r.r.r.r.r.=.) H ,.b.K.L.K.H.H.G.H.H.H.H.F.H.H.F.H.H.H.H.H.G.H.",
"H.H.H.G.H.H.H.H.G.S.x.4.q.B.x.h.i.r.r.r.r.r.r.r.r.r.r.r.1.r.r.t.r.r.r.r.r.t.&.^ H :.M.G.L.K.F.H.H.H.G.F.G.H.H.H.G.H.H.G.H.H.H.H.",
"H.F.F.G.F.F.H.G.S.S.z.1.7.B.x.i.i.r.&.&.;.&.&.;.=.=.=.=.=.r.&.&.&.=.*.&.=.=.$.L M +.b.G.K.G.H.H.H.H.F.H.H.F.G.H.F.H.H.F.F.H.F.F.",
"V.V.V.S.S.S.S.V.S.m.h.&.7.B.B.r.) L L $.I $.I I L L L L L I I I L L L H L H H M a o.n.S.F.V.N.S.V.V.S.S.V.F.V.V.B.S.S.S.V.S.S.N.",
"s.h.h.h.h.h.h.i.i.i.&.,.8.B.V.&.M y y x x x a x n y a a M y x y y y y y y r q 8 d 5.M.B.l.i.s.h.i.h.h.h.h.h.h.h.h.h.s.f.h.h.h.h.",
"^ ( ( ] &.] ( ( ( W W +.q.B.S.n.7.,.! ! %.E E %.W ~ ~ T ~ W W E E ! ! E ! W ! O.7.b.B.S.M.0.<.W ^ ^ ^ ( ) ' ) ( L ^ ^ ' ( ( ^ ^ ",
"2.3.2.7.6.4.6.6.5.5.7.0.n.B.G.G.V.B.n.l.q.q.q.q.b.b.b.b.b.b.b.b.0.m.n.n.q.q.b.n.m.S.S.G.S.V.n.8.2.,.#.#.,.,.,.,.#.#.#.,.,.+.O.O.",
"b.n.M.b.q.q.b.b.n.n.M.B.S.G.S.B.n.l.0.f.4.4.2.1.@.@.@.@.` #.n.V.V.V.V.V.S.S.S.S.H.H.G.G.S.S.S.V.M.M.M.n.n.n.b.b.n.n.M.n.b.n.n.b.",
"S.S.V.V.A.B.V.B.M.x.M.S.G.S.M.y. .] ` ^ / L L L V F V b b b _ B.G.G.V.V.V.C.V.N.V.C.V.V.V.V.V.V.V.V.m.B.N.m.m.B.N.N.B.B.G.S.S.S.",
"G.S.M.N.x.l.l.l.l.i.,.M.G.V.@./ m b n n l l y t e 9 0 6 6 * * b.V.G.C.C.g.g.z.z.C.g.C.C.C.C.C.C.C.C.C.C.C.C.z.m.z.m.m.d.d.S.G.G.",
"S.N.l.4.i.r.4.1.<.] W 7.B.M.F x e > > 5 > : 5 4 > 5 * * * & & #.B.S.g.d.u.e.u.u.u.u.u.u.u.u.u.u.t.u.u.u.u.u.u.u.e.u.e.| D n.V.G.",
"B.l.h.1.<.<.<.<.&.^ J ,.M.l.m 9 6 & * * * * * * * * * * * & o _ M.G.d...| { { { { [ { { [ { { { { *.{ { { { { { { { { D v 3.V.S.",
"B.l.4.<.<.<.<.<.&.( C o.b.l.m 9 * * * * * * 4 * 4 * 4 * * $ @ Q n.S.d.| { [ [ [ [ [ [ [ [ [ [ [ [ [ [ [ [ [ [ [ [ [ [ v z _ n.S.",
"B.h.i.<.&.<.&.&.&.( C ~ b.l.V 9 5 * 4 * & * * * * * * * * # @ T n.V.p.| [ [ [ [ [ [ [ [ [ [ [ [ [ [ [ [ [ [ [ [ [ [ [ v z T b.G.",
"B.i.%.( ' &.%.&.( J p X.b.M.m 9 * * * * & * 4 * * * * * & * @ Y M.S.p.[ D D D D D P P G [ D D D v [ [ v D D [ v [ D S c h T b.G.",
"B.%.J C C C C M a r r >.b.B.V 9 5 * 4 * * * * * 4 & * 4 * & @ s b.G.y.S v z z z c z z z z z z c c x c c c c c x c k j 0 9 +.b.S.",
"S.l.~ E B p p p u p X.9.M.B.m 9 5 * * & 4 * * * * * * * * & @ B b.S.B.@.b 0 6 6 6 6 6 9 9 9 2 6 0 0 1 9 1 1 q 1 3 9 0 9 T 0.M.G.",
"G.S.M.b.q.0.q.7.7.9.q.M.G.G.n > * * & * * * * * * * & * * & @ Y b.G.G.B.n.0.0.0.8.9.9.0.0.0.0.0.0.0.0.9.9.8.7.9.8.8.9.9.b.n.G.G.",
"J.S.S.S.V.S.B.A.B.V.S.S.S.G.9 = $ $ $ % # # O # # $ $ # o o X s q.G.G.G.G.V.B.V.V.V.B.V.B.S.B.B.S.S.A.S.A.B.S.A.A.S.A.S.S.S.S.G.",
"J.J.J.J.K.J.J.J.J.F.F.S.S.S.,.o X @ X X X X X X X o X . . X 4 ! b.G.G.G.G.G.G.G.G.S.G.G.G.G.G.K.H.J.H.H.J.G.J.J.G.H.H.J.F.H.J.J.",
"F.F.J.F.D.F.F.F.F.F.D.v.N.S.B.3.i u 7 7 u u u u u w 4 4 s X.2.0.B.G.G.G.G.G.K.G.G.G.G.K.G.G.G.G.F.J.J.J.F.F.F.F.F.F.J.F.F.F.J.F.",
"v.v.v.v.v.v.v.v.v.v.v.a.i.M.G.B.B.b.b.0.b.0.b.b.b.b.q.q.b.n.M.V.S.G.G.G.G.G.G.G.H.G.G.G.G.G.G.G.J.J.v.v.v.v.v.v.v.v.v.v.v.v.v.v.",
"v.v.v.v.v.v.c.c.c.v.a.a.1.q.S.S.S.V.V.V.M.V.B.V.B.V.V.V.V.G.G.G.G.G.G.G.K.G.G.G.G.G.S.G.G.G.G.H.F.D.v.v.v.k.v.k.v.v.v.v.v.v.v.v.",
"v.v.v.v.k.v.v.v.c.c.k.a.1.q.S.B.f.s.@.@.]  .` ] ] <.] ]  .@.] @.] <.] @. .@.@. .@.@.] 3.f.B.G.G.F.D.v.v.v.v.v.v.v.v.v.v.v.v.v.c.",
"v.v.v.v.v.c.v.v.v.v.c.p.r.0.l.&.` ^ m m b n n n n m b n n n n m n n n n n n n n n n l l e ^ M.G.F.v.v.v.v.v.v.v.v.v.v.v.v.c.c.v.",
"v.v.v.v.v.v.c.v.c.v.c.t.;.9.] L m t 9 6 1 : : > > > > : > > : > - > > > > > > > > - > > ; = 6.V.v.v.v.v.v.k.v.k.v.v.v.v.v.c.v.v.",
"v.v.c.v.v.c.v.c.v.v.c.t.*.q.Z l 6 : : ; = = = = = = = ; = = = = ; ; * ; * ; & * 4 * 4 * & # _ B.C.C.v.v.v.v.v.v.c.v.v.c.v.v.v.c.",
"v.v.v.c.c.v.v.v.c.v.k.t.$.9.B 5 : = = = = = = = = = = = = = = = * ; ; * ; * * * * * * * $ $ Q n.V.Z.Z.v.v.v.v.v.v.v.c.v.v.c.v.c.",
"v.v.v.v.c.v.v.v.v.c.j.t.*.7.W 6 > ; = = = = = = = = = = = = ; = ; * ; * * : * * * * * & % # Y n.Z.D.Z.v.v.v.v.c.v.c.v.k.c.c.v.v.",
"v.v.v.v.v.v.v.c.v.v.a.t.&.0.] 9 1 : = = = = = = = = = = = = = = * ; * ; ; & * 4 * 4 * * $ @ s n.V.F.Z.v.c.c.c.c.v.v.v.v.v.v.v.c.",
"v.k.k.k.v.v.v.v.c.c.a.t.&.0.3.t 6 : = = = = = = = = = = = ; = = ; ; * ; * ; * ; * 4 * * $ @ u n.D.F.v.v.c.c.c.v.k.v.v.v.v.v.v.v.",
"v.v.k.j.k.k.k.k.c.a.a.;.$.0.0.0 : = = = % = = = = % = = = % % = % * * & * * & ; * * & $ @ @ B b.D.v.v.c.c.c.c.v.k.k.k.v.c.c.c.v.",
"a.a.a.a.t.a.t.;.;.;.;.$.U 0.n.b % @ @ # o o O # o o o o o o @ o # @ @ @ @ # @ @ @ @ @ X X # X.b.v.j.;.t.a.a.j.j.a.a.a.a.a.a.a.a.",
"*.*.*.*.*.U *.U U U I K ( 0.V.,.; @ X X . . . . . . X . .     .           .   . X X @ & u Q b.B.S.i.*.*.*.-.*.*.*.*.{ *.*.*.*.*.",
"I J L L ( ( ( ( $.%.%.%.5.b.S.B.0.+.o.Y f E ! X.O.:.>.>.O.X.X.X.X.Q Q Q Q Y f s f Q X.#.7.q.B.S.S.B.0.<.$.L J H J L L L J W J H ",
"q.q.q.q.0.0.q.q.0.b.q.q.n.V.S.G.S.M.M.n.n.n.n.M.M.M.B.B.M.M.M.M.M.n.M.n.n.b.b.b.n.n.M.M.B.S.S.S.F.G.S.B.l.q.q.7.q.7.0.0.0.0.q.0.",
"S.B.B.B.M.M.M.M.B.m.n.M.V.B.V.V.V.M.V.V.B.B.B.B.M.M.M.B.V.G.G.S.G.G.V.G.G.V.S.S.S.G.S.G.G.G.G.H.G.G.S.S.S.B.B.B.B.M.S.S.V.V.V.V.",
"G.S.S.B.V.N.N.V.B.B.B.m.m.n.N.n.N.N.n.N.M.m.N.N.m.x.h.4.n.V.V.M.f.s.d.s.f.s.d.d.y.s.s.s.y.y.i.t.p.i.y.y.y.e.y.y.y.y.w.&. .f.V.H.",
"G.S.M.N.l.l.l.h.h.h.h.h.s.s.s.i.i.s.s.8.s.h.8.s.8.s.<.( 5.M.l.y...P P P P P P G G G G G v v [ v G G G G G S G G G G G A k 3 6.V.",
"G.S.x.h.i.1.4.r.r.1.4.r.1.1.1.r.<.1.<.w.r.<.r.1.r.<.( C ,.n.@.{ S c z z k z z z k h j h g g k k g h h h h g h g h h h g 2 - W M.",
"G.B.x.4.<.<.<.<.<.<.&.<.&.&.<.&.w.&.<.<.<.<.<.<.<.&.^ C 2.0.P S z h g g 3 g h 3 3 3 3 3 3 3 3 3 3 3 3 3 3 3 3 3 3 3 3 2 < - B n.",
"G.B.l.4.<.<.<.&.<.<.<.<.<.<.<.w.<.<.w.&.<.<.&.<.<.&.^ B 2.f.G c h 3 3 3 3 3 3 3 3 3 3 3 3 3 3 3 3 3 3 3 3 3 3 3 3 2 3 2 < - n b.",
"G.B.h.i.<.<.&.<.w.&.w.&.&.<.<.<.<.&.<.<.<.<.<.&.&.&.J C 5.q.G c g 3 3 3 3 3 3 3 3 3 3 3 3 3 3 3 3 3 3 2 3 3 3 3 3 3 2 2 < - e b.",
"G.G.i.&.&.&.&.&.&.&.&.&.&.&.&.&.&.&.&.&.&.&.] &.( W s d 7.l.K c g 3 3 3 3 3 3 3 2 3 3 3 3 3 3 3 3 3 3 3 3 3 3 3 3 3 3 2 < * e b.",
"G.G.8.^ J Z B B C C C C Z C B C C C C C C C C B M a r f 0.M.S c g 3 3 3 3 3 3 3 3 3 3 3 3 3 3 3 3 3 3 3 3 3 3 3 3 3 2 2 < * i 0.",
"G.G.V.,.C p u u r r 8 8 8 8 8 8 8 8 8 q 8 8 r 8 8 u f >.b.N.G c g 3 3 2 3 3 3 3 3 3 3 3 3 3 3 3 3 3 3 3 3 3 3 3 3 3 2 2 - * b 0.",
"G.G.G.B.m.7.7.5.7.7.5.2.#.#.2.#.2.5.5.5.5.5.5.5.5.7.9.n.B.n.G c g 3 3 3 2 2 g 2 3 3 3 3 3 3 3 3 3 3 3 3 3 3 3 3 3 3 3 2 * * T b.",
"G.G.V.V.C.g.g.m.l.n.n.M.m.m.n.n.n.l.f.m.f.n.g.g.d.f.M.V.G.m.G v g 3 3 3 g 2 2 2 3 3 3 3 3 3 3 3 3 3 3 3 3 3 3 2 3 3 2 2 , + ! n.",
"H.V.C.C.c.g.g.g.z.z.z.C.z.C.z.z.z.v.m.C.C.C.z.z.d.e.f.S.G.l.G z g 3 3 2 2 2 2 2 3 3 3 3 3 3 3 3 3 2 3 3 3 3 3 3 3 3 2 2 - * o.n.",
"H.N.z.d.u.u.u.u.u.u.u.u.u.u.p.u.u.u.u.u.u.u.u.u.e.{  .M.V.y.S z g 3 3 g 2 2 g 2 3 3 3 3 3 3 3 3 3 3 3 3 3 3 g 3 3 3 2 2 - * o.n.",
"H.m.d.....{ { { [ { { { { { [ [ { { { { { { { [ [ G S b.V.@.A j g 2 2 g 2 g g 2 2 g 2 g 3 3 3 2 3 3 2 3 3 g 3 3 g g 2 < - * o.M.",
"S.g.u...{ [ [ [ [ [ [ [ [ [ [ [ [ [ [ [ [ [ [ [ P v z 0.V.s.g 2 < 2 2 < 2 < 2 < < 2 < 2 2 2 < 2 < 2 2 2 2 < < 2 < 2 < - * * #.B.",
"S.u...{ [ [ [ [ [ [ [ [ [ [ [ [ [ [ [ [ [ [ [ [ D c l 0.V.n.j : * * * * * * * * * * * * * * = * * * * * * * * * * * % $ O 5 5.M.",
"S.u.{ { [ [ [ [ D [ D P [ D D [ D [ D [ [ [ [ D v k b 0.V.S.f.V 5 % O O O O O O O + O O O + $ O + O O O O O O + $ O $ ; w o.0.V.",
"S.y.[ D S D S A m c z z c c c c v A A D S D S A j 2 B b.V.S.S.B.0.,.o.X.X.! ! X.+.2.7.8.7.9.7.9.7.9.7.7.8.8.7.7.9.7.,.2.8.q.B.G.",
"H.C.D A z k j h 2 6 2 6 3 0 h 0 h j j k j j h 3 6 : Q b.S.G.S.S.G.B.M.M.n.M.M.M.n.M.B.B.B.S.B.B.B.B.B.S.B.B.B.B.B.B.B.B.B.S.G.G.",
"H.V.@.b l e e l i V V T T V V V V b b j i e e b B Q 7.M.G.G.G.G.G.G.G.G.G.G.G.G.G.G.G.G.G.G.K.G.G.G.G.G.G.G.G.G.G.G.G.G.G.G.G.G.",
"H.S.B.f.0.0.0.7.b.b.b.n.n.n.b.b.b.b.b.b.9.b.0.0.b.b.M.V.G.G.G.G.G.G.G.G.G.G.G.G.G.G.G.G.G.G.G.G.G.G.G.H.G.G.G.G.G.G.G.G.G.G.G.G."
};
