/* XPM */
static char *out[] = {
/* columns rows colors chars-per-pixel */
"64 64 87 1 ",
"  c #3D3B36",
". c #3C3D3B",
"X c #4E3E2B",
"o c #503F2C",
"O c #443D34",
"+ c #3F403E",
"@ c #4F402D",
"# c #52412E",
"$ c #4E4132",
"% c #43413D",
"& c #4B443B",
"* c #554532",
"= c #594733",
"- c #564936",
"; c #5A4A35",
": c #534739",
"> c #534A3E",
", c #5D4D3A",
"< c #5E513F",
"1 c #604F3A",
"2 c #63533D",
"3 c #68563F",
"4 c #454543",
"5 c #4B4943",
"6 c #4C4C4B",
"7 c #534D43",
"8 c #5B4F40",
"9 c #4F504F",
"0 c #575044",
"q c #5D5243",
"w c #53524D",
"e c #5C554A",
"r c #535452",
"t c #575856",
"y c #5C5A54",
"u c #5C5D5A",
"i c #625443",
"p c #695740",
"a c #675946",
"s c #6F5D45",
"d c #61574A",
"f c #64594B",
"g c #6B5D4C",
"h c #705E46",
"j c #5F605E",
"k c #6D604F",
"l c #72614B",
"z c #6C6255",
"x c #65635D",
"c c #6E655A",
"v c #716655",
"b c #716659",
"n c #736A5D",
"m c #7C6E5D",
"M c #646562",
"N c #676966",
"B c #6A6964",
"V c #6B6C69",
"C c #726C62",
"Z c #6F706E",
"A c #7D7364",
"S c #77726D",
"D c #7D756A",
"F c #747572",
"G c #767874",
"H c #7A7A75",
"J c #7C7D7A",
"K c #817769",
"L c #827C72",
"P c #7F807E",
"I c #89847D",
"U c #848583",
"Y c #8A8680",
"T c #878886",
"R c #8C8984",
"E c #8C8D8B",
"W c #908C85",
"Q c #908E89",
"! c #8F908E",
"~ c #92918E",
"^ c #949492",
"/ c #989693",
"( c #979896",
") c #999896",
"_ c #9D9D9B",
"` c #9FA09F",
"' c #A3A4A3",
/* pixels */
"sssshssssssshsssssshssssssshhsssshsshssssssssssssshsssshsshsssss",
"sshsssssshsssssssssssshhssssssssssssssssssshsshssssssssssssssssh",
"hssssssssssssshssspsshhhhhsssssssssshhhsssssssssssssssssshssshss",
"sssssshssssp33111;;,;223333ssssssshss33sssssshssshssssssssssssss",
"ssssshsp32;#ooXXXXXXX#X#*=;223ss3332;####;1pshllhhsssssssshhsssh",
"sssh332-#oXXXXXXXXXXXXXXXXXXXo###ooXXXXoXXXXXiRWDgsssssssshhssss",
"ss31=#XXXXXXXXXXXX#;ffq*oXXXXXXX#XXXXXXXXXXXXdEEJf***13s3hhhhhss",
";*-zLn,XXXXXXXXXX*n/`_(Un,#XXXXXXXXXXX#******,BVu7*XXXXX##;;;;11",
"X@,R^Ux*XXXXXXXXXd____(((Ec*XXXXXXX#*;2111111120>:XXXXXXooXXXXoX",
"XX8JGxw@XXXXXXXXXdE~EEEE!!RB-###X#*;11,1111111,1,1,;#XXXXXXXXXXX",
"XX*77&$@XXXXXXXXX*CJJPPPUUJFf,;;;22;111111111111,2112,;#oXXXXXXX",
"XXXXXXXXXXXXXXXX*;qBVFJJJGNue2,22;22111111111111,,111,11;;oXXXXX",
"XXXXXXXXXXXXX#;;111ixNVVVj94,<,,;2111111112;211121111111111;##XX",
"##XXXXXXX#@*;1121111iytr64.&112,1111111111111111,111111111112;;*",
"1,,;;***;;;111111111,<75% &,1111111111111111111111111111111111,1",
"111,2;22,21111111111112,,,2,111111111111111111111111111111111111",
"111111111111111111,11111111111,111111111111111111111111111111111",
"1111111111111111112111111111112;11111111111111111111111111111111",
"1111111111111111111111111111111211111111111111111111111111111111",
"1111111111111111111111111111111111111111111111111111111111111111",
"111111111111111111111,2;1111111111111111111111111111111111111111",
"1111111111111112111111121111111111111111111111111111111111111111",
"11111,121111112;111111111111111111111111111111111111111111111111",
"1111111,1111112;111111111111111111111111111111111111111111111111",
"1112111;2;22akva2,2,1111111111111111111111111111,,,,12,211111111",
"112;111212aAR~~Ia21111111111111111111111111111111sDIni1,11111111",
"1111111122A^``^UCi11112;112;111111111,1111111111aW'_~C2,11111111",
"111111111g~_(^UGxi1111,211121111111112,111111111n__~JBi111111111",
"112111111b^(!UGMwi11112,;12111111111111111111111nERFuwq,;2,212;2",
"####;;1,1bEEUGM95<112,;;##*;11112111111111111111gGN9+&,222;,;;;#",
"XXXX#X@##iJJVj6+-<1,;*###XX#;111;211111111111111qfwO&,1,;;*#@##@",
"XXXXXXXXX*xxr4 O;;;*#XXXXXXXX@;,111111111111111112q7,;####XXXXXX",
"####oXXXXX:>& OXXXXXXXXXXXXXXXX#*;2,22,111111111,;**oXXXXXXXXXX#",
"==;=*=##XXXXXXXXXXXXXXXXXXXXXXXXX##;;1;111111,;*#XXXXXXXXXXXXX#*",
"========*#XXXXXXXXXXXXXXXXXXXXXXXXXXo##*******XXXXXXXXXXXXX##=;;",
"===========*oXXXXXXXXXXXXXXXXXXXXXXXXXX#XXXXXXXXXXXXXXXXX##=====",
"==============##XoXXoooo#***###XXXXXXXXXXXXXXXXXXXXXXXXo#=======",
"================####*#==========#oXXXXXXXXXXXXXXXXXXXXo*========",
"============================2aff1;=*##XXXXXXXXXXXXXXX#==========",
"===========================iI)_`/Yb;=**#XXXXXXXXXXX#*===========",
"==========================;n)`_())^H,===**ooXXXoo##=============",
"==========================;bQ~EEEEETS,======**oo*=;=============",
"==========================*aJPPPJUUJFd==========================",
"=========================;;;zSFGJJHZMe==========================",
"============================;yNxNNMt67==========================",
"===;========================;;qer96+.:==========================",
"===============================;&&OO&===========================",
"==================================:=============================",
"===================================;======;;===;=;====*=*###***=",
"#==================================;=======#*=#*#####@oXXXXXXXX#",
"Xo#*===============================######o#X#XXXXXooXX@@XXXXXXXX",
"XXXX##**=============#=#==##XXXXXXXXo#XXXoXXXXXXXXo*D~~RDi*XXXXX",
"XXXXXXXXoo*;a;#####XXXXXXXXXXXXXXXXXXXXXXXXX@XXXXXXz_'___EB*XXXX",
"XXXXXXXXoo>R^C*XXXXXXXXXXXXXXXXXXXXXXXXXXXo###*;=;;zTRUTUJSeXXXX",
"XXXXXXXXoXn^UV:XXXXXXXXXXXXXX#####;;23233sssssssssshBNMxxur7XXXX",
"XXXXXXXXXXeFM6oXXXXXXXX##*;23psslhhhhssssssshsssssshlfw54.%*oXXX",
"XXXXXXXXXXo7&oXXX##===13shsssssshh3lh3hhsssssssssssssssaqqssp2-#",
"2=XXXXXXXXXXoo*;333hssssssssssssshhhhhhhssshsshhshsssssssshsssss",
"hss1*#XXXo*12psssssssssssssssshsh3lh3hhhshsslmAlssssssssssssssss",
"sssss31;;3shsssshsssssssssssshss3l3lhsssssshK^Rnhsshssssssssssss",
"ssssssssshsssssssssssssssssssssssssshhhsssshHUFzssssssssssssssss",
"shssshssssssssssssshsshshssssssshssshhsssshsvMeassssssshshssssss",
"ssshsssssssssssshssssssssshsshsssssssssshssshsghshssshssssssssss",
"ssssssshsshsssshsssshsshssssssssssshsssssssssssssssssssshsssssss"
};
