/* XPM */
static char *out[] = {
/* columns rows colors chars-per-pixel */
"32 64 93 2 ",
"   c #4B321F",
".  c #4E3420",
"X  c #513621",
"o  c #553A23",
"O  c #5A3D25",
"+  c #5A3E29",
"@  c #603F27",
"#  c #5F4027",
"$  c #5E4129",
"%  c #634126",
"&  c #64442A",
"*  c #69462A",
"=  c #66482D",
"-  c #6C4A2E",
";  c #714C2F",
":  c #6D4C31",
">  c #714E32",
",  c #6E5033",
"<  c #745234",
"1  c #7A5535",
"2  c #7E5837",
"3  c #755539",
"4  c #7B5638",
"5  c #77583B",
"6  c #7C5A3B",
"7  c #7C5D42",
"8  c #7C5F48",
"9  c #7E624C",
"0  c #805735",
"q  c #855A37",
"w  c #825D3D",
"e  c #8B5F3A",
"r  c #84603F",
"t  c #8E623E",
"y  c #90643F",
"u  c #815F41",
"i  c #856242",
"p  c #8B6543",
"a  c #8D6847",
"s  c #83654B",
"d  c #8A6749",
"f  c #87694D",
"g  c #8D6A4B",
"h  c #926642",
"j  c #946A45",
"k  c #986D47",
"l  c #956D49",
"z  c #986F4B",
"x  c #95704E",
"c  c #9A714D",
"v  c #826750",
"b  c #866953",
"n  c #8C6D53",
"m  c #8B6F5B",
"M  c #926F51",
"N  c #8F7057",
"B  c #8F735A",
"V  c #957253",
"C  c #9C7552",
"Z  c #9E7856",
"A  c #93755B",
"S  c #9A7658",
"D  c #96785D",
"F  c #9D7B5B",
"G  c #A07956",
"H  c #A17D5B",
"J  c #917761",
"K  c #957B65",
"L  c #9A7C62",
"P  c #967F69",
"I  c #987F69",
"U  c #A17F62",
"Y  c #A3815F",
"T  c #9D8066",
"R  c #9B826B",
"E  c #9D8672",
"W  c #9E8976",
"Q  c #A38262",
"!  c #A88565",
"~  c #A3856A",
"^  c #A78A6F",
"/  c #A38A74",
"(  c #A98D74",
")  c #A48D7A",
"_  c #A6907D",
"`  c #AA927D",
"'  c #AA9582",
"]  c #AE9987",
"[  c #AE9C8D",
"{  c #B09F8F",
"}  c #AF9F91",
"|  c #AFA091",
" . c #B1A192",
/* pixels */
"Q Q Q Q Q Q Q Q Q ! Q ! Q Q Q Q Q Q Q Q Q Q Y Y T F F F F S V V ",
"Q Q Q Q Q Q Q H i 7 6 6 5 5 5 5 5 6 6 7 5 6 6 5 5 1 3 3 3 < 5 3 ",
"Q Q H Q Q Q Q F 3 6 6 6 w w i i w w w 2 6 2 6 2 w r r r r r i r ",
"Q H Q Q Q ! Q 6 6 d L L L L D K L R E / ) ) ) ) / E E ) / E T T ",
"Q H Q Q F g 3 5 r L  . .} } } } | | |  .{ { { [ ] ` ( T S M a g ",
"Q Q Y i : < 6 r D  .] Q Q ! Q Q Q Y Y H C i 4 < - - = < 1 9 A A ",
"Q Q d , i r g _  .[ Q F H H H Q Y Y Y a , = 3 6 6 r g D R W / W ",
"H Q i 6 d W  . .` Q H U Y Q H U Y Y Q g g d d a N T W W ~ Y Y Y ",
"Y Y r 7 g [ ] ! Y H Y Y Y Y Y Y Y Y Y Q ` ^ g i d n F Y H Q H Q ",
"Y Y a 6 g Y r a C F Y Y Y Y Y Y Y Y Y Q Q T S d r r V Y H H Y H ",
"Y Y C d i r 6 5 3 6 5 7 d a d d g d r 6 - - 6 i r n R H H Y Y U ",
"Y Y Y F A N i r r 7 6 5 , , , < , : , , 5 6 i d A W Q H H H H H ",
"F G Y H G T T B n i d i i r i p i i p d N A K E E Y G Y H H H H ",
"F Y G H G Y F Y R T R R R R K R K R R E E ~ R Q H H H H H H H H ",
"H H Y G Z Y Y Y Y Y Q ! Q Q Q Q ! ~ Q Y Y Y G G H H F H H H G H ",
"F H F Y Y Z C x x a i r i r r i r r a l k x Z H Y G F H H H F H ",
"H G Y a < : - = - , - - > : - : : > , : - = : 9 C H H H F G F H ",
"F Y a & 1 6 r d a g A D A A S A A x a d d i r 2 r F H Z F H H G ",
"G H q 5 i _ | [  . . .[ { [ [ [ [ [ [ | [ Q r w g F G H G G G G ",
"F H i 1 g ` ( ~ ~ ~ Y G Y H Y Y Y Q ~ x 1 3 r w n D G G G H H F ",
"Z F 7 < d ( Y c C C G Z C Z Z F G Z r $ : 6 6 B R G G G G G G G ",
"F Y t 1 r ( Q Z Z Z G Z G F G G l : $ < w i P R G G G F Z Z G F ",
"Z G a 1 i ( T Z Z Z Z F G G C 6 $ & 4 w n R T G C Z C F Z Z Z Z ",
"C Y a < w Q Y C Z Z Z G F k , $ 3 w i J R H C Z Z G G Z C Z Z Z ",
"Z G k < 6 F Y Z Z Z G C 6 # & 4 w N R R C G C G G S C G C Z C Z ",
"Z Z x - 2 V ^ G Z C i & # : 6 d J T S c G G G g 5 = u G Z G Z C ",
"Z Z x - 1 A ( x 6 & + = 5 i A T Y C C Z G C > + : 1 6 C G C C G ",
"c Z x , 1 x p O # * 1 9 n R T Z c C Z G a $ = 2 2 2 u M C Z C C ",
"Z Z c 1 2 2 < ; 1 r N R T C c C Z Z C 1 $ : 2 g g 2 u M C C c G ",
"c c Z h 9 6 7 f A R T Z c c c Z Z t $ $ < 6 L ` z 1 u M c C Z c ",
"Z c Z C x D R T D C c c C Z G l - # - 1 V ' | / a 4 w g C C C Z ",
"c C c C c c C c c C c Z G c 1 O & < d / | ' Q x w 4 4 s C c c C ",
"C c c C C c c C C C G c 2 $ # ; 4 I { { ~ z z z w 4 4 f c C c G ",
"c C c C c c G C c h < + $ - 1 N ' [ ^ C z C C c w 4 4 f c c c c ",
"c c c c C c r : = O $ : < i / [ ' Z k z c c C z 4 > 4 f c c c c ",
"C c c C l * + % * - 2 g / [ ] ~ z z c c c c c z 0 < 4 g C c c c ",
"z c c l $ & > u A R ' { ' ! C l z c z c c z c z 4 > 3 u c z c M ",
"z z C w @ 1 A [ ] ' / F k j l c z z c z z c z c 0 4 3 b c z z c ",
"z z c 4 * > / ^ C z l j l c k x z z z z z z z z q > < u z z z z ",
"z z c 1 * 4 ^ S j z z z c l c c z z z z z z z c 4 3 4 u M z z z ",
"z z c 1 * 6 / C j k c k x l x k z z l z z z l c 4 > < s M z z z ",
"l l c 4 & 2 ~ c l k k x l k k k l z l l l l l z 4 : > u z z l z ",
"l l z 4 & 4 U z j l k l l l j l l l l l l l k l < > 3 u l j z l ",
"l l z q & < ~ V j l l l l l l l l l l j l l l t @ : > u l l j l ",
"l j l e = > U V h l l j l j l l l c z c z z j : @ < > u l l l j ",
"l l l a % > l z j c k l z l l j y q q r 2 % o X : : 4 m j j j l ",
"j j j j * : 1 1 & $ $ # % $ # # o X o X . X & - : > v M j j j j ",
"h j j j 1 * > - & # # # # # $ % = - : - - ; - - > u n h j j j j ",
"l h j l h 6 3 : > - : > : : - > : - - > 4 7 8 s m N j j j h h j ",
"h h h h j j d b n b b b b v s b b b m n m m M z l h h h h j j h ",
"h h h h j h h j j j l j j g l l l l j j h h h h h h j h h h h h ",
"j h h l j k j l h j h h h h h h h h h h h j j k l j j j j h h h ",
"h h j q & - > 0 e h h h j j j l j j j h p e 1 ; & O o & u j p h ",
"a h q . O O O o   X o O + @ & * @ + o o o X X o o @ & = e j h h ",
"h j > O - * * - * - * @ @ O O O O @ @ @ @ @ @ - > > ; > u h h h ",
"p j ; @ - > u > > - ; - * - * - : > 4 u g N I ' ' S - > u h p p ",
"h h > O * n ' ) ) ) _ ) ) ) ) ) ) _ ' ' ) ) ^ U C ; & : 9 y y y ",
"t h - @ @ u U l C C M C Z S S S S V z l h h y q ; # & : 7 y t y ",
"h h ; @ * u l 1 2 q e e y y e e e e q 0 0 - O X   o * - 1 t t y ",
"y h 0 @ * ; * X   X o O O o o o o o X       o O & * & , d t y t ",
"t y q @ @ @ * @ & @ O O o o O O @ O O @ @ @ * & * : 3 9 a t y t ",
"t y t 4 7 4 3 : * - * * * * * * * * * - 3 , 7 8 f b n g t t t t ",
"t t t p p d g u v s s 8 9 9 u v s b b b m n M l p y e y t t t t ",
"t t t t t t p h u h p u d p p p p y p y t e e y e y e p t t t y "
};
