/* XPM */
static char *out[] = {
/* columns rows colors chars-per-pixel */
"128 128 70 1 ",
"  c #5E3C22",
". c #623F25",
"X c #664126",
"o c #694427",
"O c #65452C",
"+ c #6C4528",
"@ c #6A492F",
"# c #734A2B",
"$ c #794E2E",
"% c #7C502F",
"& c #6B4C32",
"* c #714F33",
"= c #6E5035",
"- c #715236",
"; c #7E5231",
": c #745439",
"> c #78573B",
", c #76583E",
"< c #7A5B3E",
"1 c #7C5C41",
"2 c #7F6046",
"3 c #7F644B",
"4 c #805331",
"5 c #835837",
"6 c #865C3C",
"7 c #885F3F",
"8 c #805F41",
"9 c #885F40",
"0 c #805F48",
"q c #846244",
"w c #896546",
"e c #82644B",
"r c #8D674A",
"t c #85684D",
"y c #8D6A4B",
"u c #916E4D",
"i c #94704F",
"p c #876750",
"a c #866A51",
"s c #8B6D53",
"d c #916C52",
"f c #8E7054",
"g c #8E7159",
"h c #947152",
"j c #9B7756",
"k c #9C7857",
"l c #92745C",
"z c #94795F",
"x c #9E7C5D",
"c c #967761",
"v c #967962",
"b c #9B7D63",
"n c #9A7E6A",
"m c #A07F64",
"M c #9F8065",
"N c #9C816C",
"B c #9E8671",
"V c #9F8873",
"C c #A18166",
"Z c #A28468",
"A c #A4886F",
"S c #A38770",
"D c #A48A74",
"F c #A68E79",
"G c #A7917D",
"H c #A8927E",
"J c #A79482",
"K c #AA9583",
"L c #AB9887",
"P c #AC9A8A",
/* pixels */
"kkkkkkkkkkkkkkkkkkkkkkkkkkkkkkkkkkkkkkkkkkkkkkkkkkkkkkkkkkkkkkkkkkkkkkkkkkkkkkkkkkkkkkkkkkkkkkkkkkkkkkkkkkkkkkkkkkkkkkkkkkkkkkkk",
"kkkkkkkkkkkkkkkkkkkkkkkkkkkkkkkkkkkkkkkkkkkkkkkkkkkkkkkkkkkkkkkkkkkkkkkkkkkkkkkkkkkkkkkkkkkkkkkkkkkkkkkkkkkkkkkkkkkkkkkkkkkkkkkk",
"kkkkkkkkkkkkkkkkkkkkkkkkkkkkkkkkkkjjkkkkkkkkkkkkkkkkkkkkkkkkkkkkkkkkkkkkkkkkkkkkkkjjkkkkkkkkkkkkkkkkkkkkkkjjkkkkkkkkkkkkkkkkkkkk",
"kkkkkkkkkkkkkkkkkkkkkkkkkkkkkkkkkkkjkkkkkkkkkkkkkkkkkkkkkkkkkkkkkkkkkkkkkkkkkkkkkkkjkkkkkkkkkkkkkkkkkkkkkkkjkkkkkkkkkkkkkkkkkkkk",
"kkkkkkkkkkkkkkkkkkkkkkkkkkkkkkkkjjkjkkkkkkjjkkkkkkkkkkkkkkkkkkjjkkjjjkjjkkkkkkkkkzjjjhjhjhjhhhdhhuhjjjjjkkkjkkkjkkkkkkkkkkkkkkkk",
"kkkkkkkkkkkkkkkkkkkkkkkkkkkkkkkkjjjjjhjhjjjhihihjiihiuuurruuddrrururruyrywwwwwwwwww9q7w0qw0188886890qwwwwrruuuudhhhhjjkkkkkkkkkk",
"twwwwtwwtwwtwwwwwwwtwwwwwwwwwwwww080998091q88<616<<16<,<1111511:>>>:>>>,--:--:-----1,,11,1118e0eee0111:-->>><<1868qqqwwwwwtwwwww",
"--:-:--:--:--:---:----:-=:=:=:-==-11111111,1eeeeeeeeepsssspsdpdclllcllllvNnnnnnNnnnnbbbnbbvvbccccccvvbbnnclllpsreeq1,,>--=:--:=:",
"NNNnNnnnnnnnnnnnnnnnNnnnNNnnnnnnnnnbnnnnbbbcczczzzzccckllllljllddldlhddhldddddddddrrrrrrrrrrww7www9wrrrddddhdllllcccnbnnNNNNnnnn",
"udsydsusdddudsddddsdsddddsduddddddrrr9rrrrrrrww7www9w999966969995555556454444444444444444444444444444444445566999r9rrrrddssdduds",
"44445;44444445444445444444444444444444444444444444444444444444444444444444444444444444444444444444444444444444444444444444444444",
"44444444444444444444444444444444444444444444444444444444444444444444444444444444444444444444444444444444444444444444444444444444",
"44444444444444444444444444444444444444444444444444444444444444444444444444444444444444444444444444444444444444444444444444444444",
"44444444444444444444444444444444444444444444444444444444444444444444444444444444444444444444444444444444444444444444444444444444",
"44444444444444444444444444444444444444444444444444444444444444444444444444444444444444444444444444444444444444444444444444444444",
"44444444444444444444444444444444444444444444444444444444444444444444444444444444444444444444444444444444444444444444444444444444",
"44444444444444444444444444444444444444444444444444444444444444444444444444444444444444444444444444444444444444444444444444444444",
"44444444444444444444444444444444444444444444444444444444444444444444444444444444444444444444444444444444444444444444444444444444",
"44444444444444444444444444444444444444444444444444444444444444444444444444444444444444444444444444444444444444444444444444444444",
"44444444444444444444444444444444444444444444444444444444444444444444444444444444444444444444444444444444444444444444444444444444",
"44444444444444444444444444444444444444444444444444444444444444444444444444444444444444444444444444444444444444444444444444444444",
"44444444444444444444444444444444444444444444444444444444444444444444444444444444444444444444444444444444444444444444444444444444",
"44444444444444444444444444444444444444444444444444444444444444454444444444444444444444444444444444444444444444444444444444444444",
"44444444444444444444444444444444444444444444444444444444444444454444444444444444444444444444444444444444444444444444444444444444",
"44%44444%44444%4444%444444%44444%44444%44444444444444%44$4444444544444444444;4444;44$4444444%44444444444%44444%4444;444444$44444",
"################################################################################################################################",
"                                                          ..   ...... ..    .         .        .                        .     . ",
"lllhlgllllllllllllllllllllllllllllllllllllgllllldlllllllllllllllgggglldlgllggcghlllllllllllllllllllgsllllllllllllllldlllllllflll",
"FFFFDFFFFFFGFGFFDGDGGFFGFGFFDFFFFFFGDGFFDGFFGDGGGDFFDFFFFFFFFFFFDFDDFFFFDFFFFFFFDFDFFFDFDFFFFFFFFGFFDGGFFFGGGDFFFFFFFFFFFFFFFFFF",
"xMxxxbMxxxbxxxxxxxxxxxxxxxxxxxbxxxxxxbxxxxxxxxxxxmxxxbxxxxxxxxxxmmxmmmxmxmxmxxxmxbmxxmmxbxxxmxxxxxxxxxxxxxxxxmxxxxxbxmxmxxxmxbxx",
"jjjjjjjjjjjjkkjkjjkkjjjjkkjjjjkjjjjjkkjjkjkkjjjjkkjjjjkkjjjjkjjjhjjjhjjjjjjjjjjjjjjjjjjjjjjjkjkjkkjjjjkkjjkjkkjjjjkkjjjjjjjjjjjj",
"jjjjjjjjjkjjjjjjjjkkjjjjjkjjjjjjjkjkkkjjjjjkjjjjkkjjjjkkkjjjjjjjjjjjjjjjjjjjjjjjjjjjjjjjjjjjjjjjjkjjjjjkjjjjjkjjjjjjjjjjjkjjjjjj",
"jjjjjjjjjjjjjjjjjjjjjjjjjjjjjjjjjjjjjjjjjjjjjjjjjjjjjkjjjjjjjjjjjjjjjjjjjjjjkjjjjjjjjjjjkjjjjjjjjjjjjjjjjjjjjjjjjjjjjjjjkjjjjjjj",
"jjjjjjjjjjjjjjjjjjjjjjjjjjjjjjjkjjjjjjjjjkjjjjjjjjjjjjjjjjjjjjkjjjjjjjjjjjjjjjjjjjjjjkjjjjjjjjjjjjjjkjjjjjjjjjjjjjjjjjjjjjjjjjjj",
"jjjjjjjjkjjjjjjjjjkjjjjjjjjjjjjjjjjjjjjjjjjjjjjkjjjjjjjjjjjjjjjjjjjjjkjjjjjjjjjjjjjjjjjjjjjjjjjkjjjjjjjjjjjjkjjjkjjjjjjjjjjjjjjk",
"jjjjjjjjjjjjjjjkjjjjjjkjjjjjjjjjjjjjjjjjjjjjjjjjjjjjjjjjjjjkjjjjjjjjjjjjjjjjjjjjjkjjjjjjjjjjjjjjjjjjjjjjjjjjjjjjjjjjjjjjjjjjjjjj",
"jjjjjjkjjjjjjjjjjjjjjjjjkjjjjjjjjjjjjjjjjjjjjjjjjjjjjjjjjjjjjjjjjjkjjjjjjjjjjjjjjjjjjjjjjjjjjjjjjjjjjjjjjkjjjjjjjjjjjjjjjjjjjjjj",
"jjjjjjjjjjjjjjjjjjjjkjjjjjjjjjjjjjjjjjjjjjjjjjjjjkjjjjjjjjjjkjjjjjjjjjjjkjjjjjjjjjjjjjjjjjjjjjjjjjjjjjjjjjjjjjjjjjjjjjjjjjjjjjjj",
"jkjjjjjjjjjjjjjjjjjjjjjjjjjjjkjjkjjjjjjkjjjjjjjjjjjjjjjjjjjjjjjjjjjjjkjjjjjjjjjjjjjjjjjkjjjjjjjjjjjjjjjjjjjjjjkjjjjjjkjjjjkjjjjj",
"jjjjjjjjjjkjjjjjjjjjjjjjjjjjjjjjjjjjjjjjjjjkjjjjjjjjjjjjjjjjjjjjjjjjjjjjjjjjjkjjjjjjjjjjjjjjjjjjjjjjjjjkjjjjjjjjjjjjjjjjjjjjjjjj",
"jjjjjjjjjjjjjjjjjjjjjjjjjjjjjkjjjjjjjjjjjjjjjjjjjjjjjjjjjjjjjjjjjjjjjjjjjjjjjjjjjjjjjjjjjjjjjjjjjjkjjjjjjjjjjjjjjjjjjjjjjjjjjjjj",
"jjjjjjjjjjjjjjjjjjjjjjjjjjjjjjjjjjjjjjjjjjjjjjjjjjjjjjjjjjjjjjjjjjjjjjjjjjjkjjjjjjjjjjjjjjjjjjjkjjjjjjjjjjjjjjjjjjjjjjkjjjjkjjjj",
"jjjjjjjjjkjjjkjjjjjjjjjjjjjjjjjjjjkjjjjjjkjjjkjjjjjjjjjjjjjjjjjjjjjjjjjjjjjjjjjjjjjjjjjjjjjjjjjjjjjjkjjjjjjjjjjjjjjjjjjjjjjjjjjj",
"jjjkjjjjjjjjjjjjjjjjkjjjjjjjjjjjjjjjjjjjjjjjjjjjjjjjjjjjjjjkjjjjjjjkjjjjjjjjjjjjkjjjjkjjjjjjjjjjjjjjjjjjkjjjjjjjjjjjjjjjjjjjjjjj",
"jjjjkjjjjjjjjjjjjjjjjjjjkjjjjjjjjjjjjkjjjjjjjjjjjjjjjjjjjjjjjjjjjjjjkjjjjjjjkjjjjjjjjjjjjjjjjjjjjjjjjjjjjjjjjjjjjjjjjjjjjjjjjjjk",
"jjkjjjjjjjjkjjjjjjjkjjkjjjjjjjjjjjjjjjjjjjjkjjjjjjjjjjjjjjkjkjjjjjjjjjjjjjjjjjjjjjjjjjjjjjjjjjjjjjkjjjjjjjjjjjjjkjjjjjjjjjjjjjjj",
"jjjjjjjjjjjjjjjjjjjjjjjjjjjjjjkjjjjkjjjjjjjjjjjjjjjjjjjjjjjjkjjjjjkjkkjjjjjjjjjjjjjkjjjjjjjjjjjjjjjjjjjjjjjjjjjjjjjjjjjjjjjjjjjj",
"jjjjjjjjjjjjjjjjjjjjjjjjjjjjjjjjjjjjjjjjjjjjjjjjjjjjjjjhhduuyrruuuuiiiihhjhjjjjjjjjjjjjjjjjjjjjjjjjjjjjjjjjjjjkjjjjjjjjjjkjjjjjj",
"jjjjjjjjkkjjjjjjjjjjjjjjjjjjjjkjjjkkkjhhdiuuuurrrwwwwwq881<>>::>><<<889w8wewwwwwwwwrwyyyyyyududuhuhhihjjjlkkjjjjjkjjjjjjjjkjjkkj",
"jjjjjjjjkkjjjjjjjjjjjjjjjduuuuyytwwwtwwq908<>::--&&&&&=-1rpggcccudprr01311>--*&&&*&----,>>>>5888q0wwww0wwwrtwwwryryryyuuuuidiiii",
"wwwwywwwwwwwwwwywwwwwwqq0088<,>--*=&@&-,80tsslcnNNBnnnnnnccllhlddllccczbccnnnnnnnnnnnbvvlllfdpttt101,<:--*&&&&=--:::>>>1<81888w9",
"--::=@@@&=--==--=--=&&=-110psdlvbNnnnnnnnccczlhhddsdddsrrw966655677w9w9rerrrrrdsdudddddddhlllzzllcccbbnbnbnnnnnmbzzzglldspttte21",
"nnnnnNNNnnnnnnnnnnNnNNNnnbcbcllhddsdsurrrw996665544444444444444444444444444444444445444466666777wwwrrrrrrdddrdddddhdllhlzzcclccb",
"ryrryydsddddddddddsdyfutrr99976664454444444444444444444444444444444444444444444444444444444444444444444444444444455556666999w99w",
"44444444444445444444444444444444444444444444444444444444444444444444444444444444444444444444444444444444444444444444444444444444",
"44444444444444444444444444444444444444444444444444444444444444444444444444444444444444444444444444444444444444444444444444444444",
"44444444444444444444444444444444444444444444444444444444444444444444444444444444444444444444444444444444444444444444444444444444",
"44444444444444444444444444444444444444444444444444444444444444444444444444444444444444444444444444444444444444444444444444444444",
"44444444444444444444444444444444444444444444444444444444444444444444444444444444444444444444444444444444444444444444444444444444",
"44444444444444444444444444444444444444444444444444444444444444444444444444444444444444444444444444444444444444444444444444444444",
"44444444444444444444444444444444444444444444444444444444444444444444444444444444444444444444444444444444444444444444444444444444",
"44444444444444444444444444444444444444444444444444444444444444444444444444444444444444444444444444444444444444444444444444444444",
"44444444444444444444444444444444444444444444444444444444444444444444444444444444444444444444444444444444444444444444444444444444",
"44444444444444444444444444444444444444444444444444444444444444444444444444444444444444444444444444444444444444444444444444444444",
"44444444444444444444444444444444444444444444444444444444444444444444444444444444444444444444444444444444444444444444444444444444",
"44444444444444444444444444444444444444444444444444444444444444444444444444444444444444444444444444444444444444444444444444444444",
"44444444444444;;4444444444444444444444444444444444444444444444444444444444444444444444444444444444444444444444444444444444444444",
"444444444444445;44444444444444;;44444444444444444444;444444444444444444444444444444444444444444444444444444444444444444444444444",
"444444444444;;;5444444444444;;55444444444444;5;4444444444444;;544444444444444444444444444444444444444444444444444444444444444444",
"444444444444;;;;444444444444;;;;444444444444;5;44444444444445;;44444444444444444444444444444444444444444444444444444444444444444",
"44444444;;44;;;%;;44;4444444;;;;444444444444;;;;444444444444;;;;4444444444444444444444444444444444444444444444;44444444444444444",
"4;4;;4;;;;;;%%%%;;;;;;;;;;4;;;;;;;4444444444;;;%444444444444;;;;4444444444444444444444444444444444444444444444;;444444444;44444$",
"#ooooooooooooooooooooooooooooo&o#ooooo########+#%%$$$%$%%%%%%%;;4444%444$;444444$$$$$4$$$$$$$##$###4*###########+##++++++++++O++",
"o OO   Oo*O&&O&=-%**@@&OOo Oo                     .... ooooooooo++...#......................XXX ..... ...  .                 .. ",
"FGGGGGGGHGHHGGGGGHGGGGFFGGGHFVVVAABMNNNMZMMCMMfMMMt3q22:>:-*OOOO  +@@@+@**:::$$*11118110eeee3erfssrrsglclllgcnbbnvvnBnNZNNNDDVVV",
"AAAAVADVAAZAZAAAAAAAAAAAAAAAAADFDDDFFDFVAAAZADVFZAFFHGGFGGGHGGHHFJGGGJHJGHHHJJJKFJJFGGGGGFGFGGGFFDGGFFFFFFFFFFFFFFFDFDDDDDFDDDDD",
"MkkkMMijkkkkjjMkkkkkMjjMkkkkkkjMMkMMMMMMCkCMMMMCMCCCZMMMZZZZZZZZSDDSASSASASSnAASAZZZZZZZCCCCCCCCmmmmmmmmmbmmxmxxbmxxxxxxxxxxbkxx",
"jkkkMijjkkkkkjjkkkkkMjjikkkkkjjkjjijMiiukkjkjjjkjjjkMMMikkkkMjMkkkkkkkxkxkxkxkkkkkjkkkjkjkkjkkjkkkkkkkkkjjkkjjkkjjkkkkkkjkjkkkkk",
"jjkkjjjMkkkkkkkkkkkkiMjjkkkkkkkkjjjjjjMjkkjjjjkkjjkkkkikkkkkjjkkkkkkkkkkkkkkkkkkkkkkkkkkkkkkkkkkkkkkkkkkkkkkkkkkkkkkkkkkkkkkkkkk",
"jjkkjjjjkkkkkkkkkkkkjjjjkkkkkkkkjjiMjjiMkkkjjjkkjjkkkkkkkkkkkjkkkkkkkkkkkkkkkkkkkkkkkkkkkkkkkkkkkkkkkkkkkkkkkkkkkkkkkkkkkkkkkkkk",
"jkkkkkkkkkkkkkkkkkkkkkkkkkkkkkkkkkkkkkkkkkkkkkkkkkkkkkkkkkkkkkkkkkkkkkkkkkkkkkkkkkkkkkkkkkkkkkkkkkkkkkkkkkkkkkkkkkkkkkkkkkkkkkkk",
"kkkkkkkkkkkkkkkkkkkkkkkkkkkkkkkkkkkkkkkkkkkkkkkkkkkkkkkkkkkkkkkkkkkkkkkkkkkkkkkkkkkkkkkkkkkkkkkkkkkkkkkkkkkkkkkkkkkkkkkkkkkkkkkk",
"kkkkkkkkkkkkkkkkkkkkkkkkkkkkkkkkkkkkkkkkkkkkkkkkkkkkkkkkkkkkkkkkkkkkkkkkkkkkkkkkkkkkkkkkkkkkkkkkkkkkkkkkkkkkkkkkkkkkkkkkkkkkkkkk",
"kkkkkkkkkkkkkkkkkkkkkkkkkkkkkkkkkkkkkkkkkkkkkkkkkkkkkkkkkkkkkkkkkkkkkkkkkkkkkkkkkkkkkkkkkkkkkkkkkkkkkkkkkkkkkkkkkkkkkkkkkkkkkkkk",
"kkkkkkkkkkkkkkkkkkkkkkjjkkkkkkkkkkkkkkkkkkkkkkkkkkkkkkkkkkkkkkkkkkkkkkkkkkkkkkkkkkkkkkkkkkkkkkkkkkkkkkkkkkkkkkkkkkkkkkkkkkkkkkkk",
"kkkkkkkkkkkkkkkkkkkkkjjjkkkkkkkkkkkkkkkkkkkkkkkkkkkkkkkkkkkkkkkkkkkkkkkkkkkkkkkkkkkkkkkkkkkkkkkkkkkkkkkkkkkkkkkkkkkkkkkkkkkkkkkk",
"kkkkkkkkkkkkkkkkkkkkkkMjkkkkkkkkkkkkkkkkkkkkkkkkkkkkkkkkkkkkkkkkkkkkkkkkkkkkkkkkkkkkkkkkkkkkkkkkkkkkkkkkkkkkkkkkkkkkkkkkkkkkkkkk",
"kkkkkkkkkkkkkkkkkkkkkkjjkkkkkkkkkkkkkkkkkkkkkkkkkkkkkkkkkkkkkkkkkkkkkkkkkkkkkkkkkkkkkkkkkkkkkkkkkkkkkkkkkkkkkkkkkkkkkkkkkkkkkkkk",
"jjjjMjjikkjjjkkkMijjMjjjkjiMjMMiiMiMjjMikkujjjjjijjjjMjkkkkkjjjjkkkkkkkkkkkkkkkkkkkkkkkkkkkkkkkkkkkkkkkkkkkkkkkkkkkkkkkkkkkkkkkk",
"kjjjjjjMkkjMkkkkiMjjjjjjjjjjiiiMiiiiuuuMjkMMMijjMjjjjjjjkkkjjjMjkkkkkkkkkkkkkkkkkkkkkkkkkkkkkkkkkkkkkkkkkkkkkkkkkkkjkkkkkkkkkkkk",
"kkjMjiMijijiijiiuuMtuuuywwyw77327<<<;q<17wuyuuuuuutMiijjjjjjjjjjkkkkjjkjkkkkkkkkkkkkkkjjkkkkkkkkkkkkkkkkkkkkkkkkkkjjkkkkkkkkjjkk",
"wwwww733776<<<<;<:-,%>::>;<<<<3tuiy3MMM355;::;<;<<<<<8qq7qyqqyyuuhhdhjjjjkkkkkkkkkkkkjjjkkkkkkkjkkkkkkkkkkkkkkkkjjjjijiiiiuuuuuu",
"%:<:<<<33t3MiMMMMNMBVFVVFFGGHHPPHHPPHPHPPPHGFFVZVZzztMtt8q<-<<><8888qqqwqwwwtyyyyyyuuuiiiiiiijijhiiiyyiuyyyyywqwqqqq886<<<6<<>>,",
"DFVAGHGHHHHPHHGFHHGHHHHHHHHGHHHHHHHHFFHHHHHHGHHHHHGHHHHHHPPHPHFFclssrq1<1:-::::>:<>><<<<<1121812111111<>,>>>::,,<<2ttlsgglzcbnnn",
"HHHHHHHHHHGGGGFVAFFFVFAAAAAAAZZZZZZZZZZZZZZZAAVDAFAFGGGGGGHHHHFFKLLLPPLPPPPPPGGGGVNNBNzzzzyyygqttfggzMMNNBVVVGGGJLKLLLLLLLLLLKLL",
"FAADVZAZAAZZZZZZZZZZZZZZZZZZZZZZZZZZZZZZZZZZZZZZZZZZZZZZZZZZZZZZSDFFGFHHHGGGHHHHHHKKJJLLLLLPPPPPPPLLJLJHLKLKKJKHGGGHHHHGGDFDDDDD",
"ZZZZZZZZZZZZZZZZZZZZZZZZZZZZZZZZZZZZZZZZZZZZZZZZZZZZZZZZZCZZZZZZZZZZZZZZZZZZZZZZAAAAFDDADDFFFFFGFFFDFDDDAAAAAAZAZZZZZZZZZZZZZZZZ",
"ZZZZZZZZZZZZZZZZZZZZZZZZZZZZZZZZZZZZZZZZZZZZZZMZZZZZZZZZZZZZZZZZZZZZZZZZZZZZZZZZZZZZZZZZZZZZZZZZZZZZZZZZZZZZZZZZZZZZZZZZZZZZZZZZ",
"ZZZZZZZZZZZZZZZZZZZZZZZZZZZZZZZZZZZZZZZZZZZZZZZZZZZZZZZZZZZZZZZZZZZZZZZZZZZZZZZZZZZZZZZZZZZZZZZZZZZZZZZZZCZZZZZZZZZZZZZZZZZZZZZZ",
"ZZZZZZZZZZZZZZZZZZZZZZZMZZZZZZZZZZZZZZZZZZZZZZZZZZZZZMZZZZZZZZZZZZZZZZZZZZZZZZZZZZZZZZZZZZZZZZZZZZZZZZZZZZZZZZZZZZZZZZZZZZZZZZZZ",
"ZZZZZZZZZZZZZZZZZZZZZZZZZZZZZZZZZZZZZZZZZZMZZZZZZZZZZZZZZZZZZZZZZZZZZZZZZZZZZZZZZZZZZZZZZZZZZZZZZZZZZZZZZZZZZZZZZZZZZZZZZZZZZZZZ",
"ZZZZZZZZZZZZZZZZZZZZZZZZZZZZZZZZZZZZZZZZZZZZZZZZZZZZZZZZZZZZZZZZZZZZZZZZZZZZZZZZZZZZZZZZZZZZZZZZZZZZZZZZZZZZZZZZZZZZZZZZZZZZZZZZ",
"ZZZZZZZZZZZZZZZZZZZZZZZZZZZZZZZZZZZZZZZZZZZZZZZZZZZZZZZZCZZZZZZZZZZZZZZZZZZZZZZZZZZZZZZZZZZZZZZZZZZZZZZZZZCZZZZZZZZZZZZZZZZZZZZZ",
"ZZZZZZZZZZZZZZZZZZZZZZZZZZZZZZZZZZZZZZZZZZZZZZZZZZZZZZZZZZZZZZZZZZZZZZZZZZZZZZZZZZZZZZZZZZZZZZZZZZZZZZZZZZZZZZZZZZZZZZZZZZZZZZZZ",
"ZZZZZZZZZZZZZZZZZZZZZZZZZZZZZZZZZZZZZZZZZZZZZZZZZZZZZZZZZZZZZZZZZZZZZZZZZZZZZZZZZZZZZZZZZZZZZZZZZZZZZZZZZZZZZZZZZZZZZZZZZZZZZZZZ",
"ZZZZZZZZZZZZZZZZZZZZZZZZZZZZZZZZZZZZZZZZZZZMZZZZZZZZZZZZZZZZZZZZZZZZZZZZZZZZZZZZZZZZZZZZZZZZZZZMZZZZZZZZZZZZZZZZZZZZZZZZZZZZZZZZ",
"ZZZZZZZZZZZZZZZZZZZZZZZZZZZZZZZZZZZZZZZZZZZZZZZZZZZZZZZZZZZZZZZZZZZZZZZZZZZZZZZZZZZZZZZZZZZZZZZZZZZZZZZZZZZZZZZZZZZZZZZZZZZZZZZZ",
"ZZZZZZZZZZZZZZZZZZZZZZZZZZZZZMZZZZZZZZZZZZZZZZZZZZZZZZZZZZZZZZZZZZZZZZZZZZZZZZZZZZZZZZZZZZZZZZZZZZZZZZZZZZZZZZZZZZZZZZZZZZZZZZZZ",
"ZZZZZZZZZZZZZZZZZZZZZZZZZZZZZZZZZZZZZZZZZZZZZZZZZZZZZZZZZZZZZZZZZZZZZZZZZZZZZZZZZZZZZZZZZZZZZZZZZZZZZZZZZZZZZZZZZZZZZZZZZZZZZZZZ",
"ZZZZZZZZZZZZZZZZZZZZZZZZMZZZZZZZZZZZZZZZZZZZZZZZZZZZZZZZZZZZZZZZZZZZZZZZZZZZZZZZZZZZZZZZZZZZZZZZZZZZZZZZZZZZZZZZZZZZZZZZZZZZZZZZ",
"ZZZZZZZZZZZZZZZZZZZZZZZZZZZZZZZZZZZZZZZZZZZZZZZZZZZZZZZZZZZZZZZZZZZZZZZZZZZZZZZZZZZZZZZZZZZZZZZZZZZZZZZZZZZZZZZZZZZZZZZZZZZZZZZZ",
"ZZZZZZZZZZZZZZZZZZZZZZZZZZZZZZZZZZZZZZZZZZZZMZZZZZZZZZZZZZZZZZZZZZZZZZZZZZZZZZZZZZZZZZZZZZZZZZZZZZZZZZZZZZZZZZZZZZZZZZZZZZZZZZZZ",
"ZZZZZZZMZZZMZZZZZZZZZZZZZZZZZZZZZZZZZZZZZZZZZZZMMMZMMMZZZMMMMMZZZZZZZZZZZZZZZZZZZZZZZZMZZZZZMZZZZZZZZZZZZZZZZZZZZZZZZZZZZZZZZZZZ",
"ZZZZZZZMZZZMZZZMZZZZZMZZZZZZZZZZMMMMMMMMMMMMMZMMMMMMMMMMMMMMMMMMCCCCZMMZZMZZZZMZZZZZZZMMZZZMMMMMMMZMZMMMMZZMMZZMZZZZZMZCCZZZZZZC",
"ffffffMMMMMMMMMMMMkMMMMMifffffffM3MtM23tt33ytty3qt2323333t<33y7wu3uuM3yMuM3fMauMifyMfMsMaMfffffiffM3ftufM3MyMwMyfiiiMuyMfMufMfff",
"t3tt33ttt8ttt833qtyyt3<333tt3t33t32M3MMtMMtMu3MMtMMtMMMMMMM3MMMMfM3uau3y3333<33<332y22<11123ggff3f3fff3Mu333333y3tty33333t333tt3",
"MMzzMMfzzzzzMMfMMfffzzMzzMMMZZNNZZAAAAFAVFHHHHFFGGGGFFFFBFGGFHHHGGFHHHHHHHHAVGFFAHFHHAFAFFFFAAZZVZZBZZZZZZNNZZZZMNZMMMMMMMMMMMMM",
"FFGVFFFFFGGGFFFFFFFFGGFFFFFAFFGVAAFFFFAAVBZZZZZZZZZZZZZZMMZZZZZZZBZZAAZZAAAZVVDVZZAAAFAZVVZZDDZZFFFVAZFFVFFVAZAFFFAAFVFAVDAZVFVB",
"MMZZZMMMMMZZZZZZZZZMZZZZZMZZMMMMMkMMMMMjMMijMjMjjjMMkkjiMiMMkkkkMMMMMMiiMMMiMiMMkMjMCMMkMMiMMMMMMMMMMMMMMMMMCMCCMMMMMMMMMMMMMMNM",
"iMiMjjjMiMiMkkkkMijMMiMiiMjjjjiMjjjiMjkkMiMiMijjjiMikkjMiiMikkkkMuuiMijMMjjjiMiMjjjkiMkkMMMiMiiMuMiMjjjiiiMMjjjkMiMiMiMiMMMiMuMM",
"jMkkkkkkkkkkkkkkkkkkkkkkMijjjkkkkkkkkkkkkkkkkkkkjjkkkkkkkkkkkkkkkkkkkkkkijjjjkkkkkkkkkkkkkkkkkkkMijjkkkkkkkkkkkkkkkkkkkkiMjjjjjj",
"jikkkkkkkkkkkkkkkkkkkkkkjjjMjjkkkkkkkkkkkkkkkkkkiMkkkkkkkkkkkkkkkkkkkkkkjjjjkkkkkkkkkkkkkkkkkkkkMijjkkkkkkkkkkkkkkkkkkkkMijjjjkj",
"jjkkkkkkkkkkkkkkkkkkkkkkMjjjkkkkkkkkkkkkkkkkkkkkjjjkkkkkkkkkkkkkkkkkkkkkjMjjkkkkkkkkkkkkkkkkkkkkijjjkkkkkkkkkkkkkkkkkkkkiijMkkkk",
"jjkkkkkkkkkkkkkkkkkkkkkkijjjkkkkkkkkkkkkkkkkkkkkjjkkkkkkkkkkkkkkkkkkkkkkjjjjkkkkkkkkkkkkkkkkkkkkjjMjkkkkkkkkkkkkkkkkkkkkiMjjkkkk",
"kkkkkkkkkkkkkkkkkkkkkkkkkkkkkkkkkkkkkkkkkkkkkkkkkkkkkkkkkkkkkkkkkkkkkkkkkkkkkkkkkkkkkkkkkkkkkkkkkkkkkkkkkkkkkkkkkkkkkkkkkkkkkkkk",
"kkkkkkkkkkkkkkkkkkkkkkkkkkkkkkkkkkkkkkkkkkkkkkkkkkkkkkkkkkkkkkkkkkkkkkkkkkkkkkkkkkkkkkkkkkkkkkkkkkkkkkkkkkkkkkkkkkkkkkkkkkkkkkkk",
"kkkkkkkkkkkkkkkkkkkkkkkkkkkkkkkkkkkkkkkkkkkkkkkkkkkkkkkkkkkkkkkkkkkkkkkkkkkkkkkkkkkkkkkkkkkkkkkkkkkkkkkkkkkkkkkkkkkkkkkkkkkkkkkk",
"kkkkkkkkkkkkkkkkkkkkkkkkkkkkkkkkkkkkkkkkkkkkkkkkkkkkkkkkkkkkkkkkkkkkkkkkkkkkkkkkkkkkkkkkkkkkkkkkkkkkkkkkkkkkkkkkkkkkkkkkkkkkkkkk"
};
