/* XPM */
static char *out[] = {
/* columns rows colors chars-per-pixel */
"32 64 32 1 ",
"  c #474851",
". c #4A4B53",
"X c #4D4F58",
"o c #52535C",
"O c #585960",
"+ c #5D5E66",
"@ c #63646B",
"# c #686971",
"$ c #6D6E75",
"% c #727379",
"& c #75767D",
"* c #78797F",
"= c #7A7B82",
"- c #7D7E84",
"; c #818188",
": c #84858B",
"> c #88898F",
", c #8C8D93",
"< c #909197",
"1 c #919197",
"2 c #93949B",
"3 c #9A9BA0",
"4 c #A0A1A6",
"5 c #A6A7AB",
"6 c #A7A8AC",
"7 c #ABACB0",
"8 c #AFB0B3",
"9 c #B0B0B3",
"0 c #B0B1B3",
"q c #B2B3B6",
"w c #B3B3B6",
"e c #B5B5B8",
/* pixels */
"********************************",
"********************************",
"********************************",
"================================",
"--------------------------------",
";;;;;;;;;;;;;;;;;;;;;;;;;;;;;;;;",
"::::::::::::::::::::::::::::::::",
">>>>>>>>>>>>>>>>>>>>>>>>>>>>>>>>",
",,,,,,,,,,,,,,,,,,,,,,,,,,,,,,,,",
"11<<<111<<<1<1<<<1111<<11111<11<",
"22222222222222222222222222222222",
"33333333333333333333333333333333",
"44444444444444444444444444444444",
"55555555666565555665555556555565",
"77777777777777777777777777777777",
"88888890098088099889889888889989",
"wqqwwwwqwwwwwwwwwqwqwwwwwqwqwwww",
"eeeeeeeeeeeeeeeeeeeeeeeeeeeeeeee",
"qqwwwwqwwwwqqwwwqwqwwwwwwwwwqwww",
"88898998988880899980980898088998",
"77777777777777777777777777777777",
"55656555565655556555565555555555",
"44444444444444444444444444444444",
"33333333333333333333333333333333",
"22222222222222222222222222222222",
"<<11111<11<<1<1<<<111<<<111<1111",
",,,,,,,,,,,,,,,,,,,,,,,,,,,,,,,,",
">>>>>>>>>>>>>>>>>>>>>>>>>>>>>>>>",
"::::::::::::::::::::::::::::::::",
";;;;;;;;;;;;;;;;;;;;;;;;;;;;;;;;",
"--------------------------------",
"================================",
"********************************",
"********************************",
"********************************",
"********************************",
"********************************",
"********************************",
"********************************",
"&&&&&&&&&&&&&&&&&&&&&&&&&&&&&&&&",
"%%%%%%%%%%%%%%%%%%%%%%%%%%%%%%%%",
"$$$$$$$$$$$$$$$$$$$$$$$$$$$$$$$$",
"################################",
"@@@@@@@@@@@@@@@@@@@@@@@@@@@@@@@@",
"++++++++++++++++++++++++++++++++",
"OOOOOOOOOOOOOOOOOOOOOOOOOOOOOOOO",
"oooooooooooooooooooooooooooooooo",
"XXXXXXXXXXXXXXXXXXXXXXXXXXXXXXXX",
"................................",
"                                ",
"................................",
"XXXXXXXXXXXXXXXXXXXXXXXXXXXXXXXX",
"oooooooooooooooooooooooooooooooo",
"OOOOOOOOOOOOOOOOOOOOOOOOOOOOOOOO",
"++++++++++++++++++++++++++++++++",
"@@@@@@@@@@@@@@@@@@@@@@@@@@@@@@@@",
"################################",
"$$$$$$$$$$$$$$$$$$$$$$$$$$$$$$$$",
"%%%%%%%%%%%%%%%%%%%%%%%%%%%%%%%%",
"&&&&&&&&&&&&&&&&&&&&&&&&&&&&&&&&",
"********************************",
"********************************",
"********************************",
"********************************"
};
