/* XPM */
static char *out[] = {
/* columns rows colors chars-per-pixel */
"32 64 101 2 ",
"   c None",
".  c #420100",
"X  c #4D0200",
"o  c #550200",
"O  c #5C0300",
"+  c #630300",
"@  c #6B0400",
"#  c #740400",
"$  c #7C0600",
"%  c #3E4200",
"&  c #464B00",
"*  c #484D00",
"=  c #4D5300",
"-  c #505600",
";  c #555A00",
":  c #585D00",
">  c #5C6200",
",  c #616700",
"<  c #646A00",
"1  c #696F00",
"2  c #6C7300",
"3  c #707700",
"4  c #757C00",
"5  c #003244",
"6  c #00364A",
"7  c #003A4F",
"8  c #003E54",
"9  c #004057",
"0  c #00445C",
"q  c #004760",
"w  c #004A63",
"e  c #004E69",
"r  c #00526D",
"t  c #005572",
"y  c #005976",
"u  c #005C7B",
"i  c #01617F",
"p  c #830600",
"a  c #890700",
"s  c #870800",
"d  c #8D0900",
"f  c #930A00",
"g  c #9A0E01",
"h  c #9D1102",
"j  c #A41302",
"k  c #AA1603",
"l  c #AD1904",
"z  c #B31D06",
"x  c #B51F09",
"c  c #B7200A",
"v  c #BB220A",
"b  c #C1260C",
"n  c #C3290F",
"m  c #C32A10",
"M  c #7C8300",
"N  c #808700",
"B  c #848B02",
"V  c #888F06",
"C  c #898F09",
"Z  c #8A910B",
"A  c #8E9513",
"S  c #909614",
"D  c #929915",
"F  c #959C1A",
"G  c #989F1F",
"H  c #9AA11F",
"J  c #999F20",
"K  c #9BA223",
"L  c #9EA429",
"P  c #9FA631",
"I  c #A0A734",
"U  c #A2A837",
"Y  c #A3A93B",
"T  c #A7AD41",
"R  c #A8AF44",
"E  c #AAB047",
"W  c #036584",
"Q  c #066B8C",
"!  c #076E91",
"~  c #086F91",
"^  c #0C7294",
"/  c #107597",
"(  c #127798",
")  c #147A9C",
"_  c #157EA1",
"`  c #1780A3",
"'  c #1C83A5",
"]  c #1F86A9",
"[  c #2186A7",
"{  c #2287AA",
"}  c #2689AB",
"|  c #2B8BAD",
" . c #328CAE",
".. c #388EAF",
"X. c #3A8FB1",
"o. c #3C91B2",
"O. c #6F9584",
"+. c #719788",
"@. c #73988B",
"#. c #4495B6",
"$. c #4898B8",
/* pixels */
"                                j                               ",
"                              l v                               ",
"                              c v l                             ",
"                            k c v c k                           ",
"                j k h       x c c c c                           ",
"                k k k h   k z x z z l l                         ",
"                k k j j k l l l k k k k j                       ",
"                k j j j k k k k j j k k k g                     ",
"                j h h h k j j g g g h h h h                     ",
"                h h g h h h g f d d d f g g d                   ",
"                g g f f g f f a $ $ p d d d                     ",
"                  f d d f d s $ # # # p s p                     ",
"              l k j d p p s $ # @ + @ # $ # @ # $ $ d d d       ",
"        k k l z k g f a $ # # # + O + @ @ @ @ $ $ d d g h h h g ",
"      v b v x l k j f f p # @ @ O o O + + @ @ @ # p d f h h k j ",
"z m m b b x x k k g f a # # @ O O o o o o o + @ @ # p f g h g   ",
"  z n b v v x l j g a p # @ + O X X X X X X o + @ # p f f f     ",
"    k v v v z l k g d $ # + + o o   . X X X o + @ $ s d d       ",
"        z x z l k g f p # @ + O X     X o o + @ # $ d d         ",
"          j z z j h f d p # +             + + # $ p $           ",
"              j k j g s                                         ",
"                                                                ",
"                                |                               ",
"                              o.#.'                             ",
"                              o.o.X.                            ",
"                _ )         | o.o... .                          ",
"                ' [ [     `  . . . . .'                         ",
"                [ ' ' ' ' | | } { { { } )                       ",
"                [ ' ` _ ' { ' ' ' ' ' ' ' ^                     ",
"                ` _ _ _ ' ` ` _ ) ) ) _ ` )                     ",
"                ) ) ) ) _ ) ) ( ^ ^ ^ ( ) )                     ",
"                ) ) / ( ) ( ^ ! W W Q ! ^ ^ W                   ",
"                  ^ ! ^ ^ ~ Q W u y W W Q Q                     ",
"                  _ ~ W Q Q W u t r y u W u                     ",
"            ' } { ) ! W W W u y e w r t y r u i W Q ^ ( ) (     ",
"      } $.o.X.} ] _ ( ~ W t y r w 0 w r r r t y W W ~ / ) ) ' ' ",
" .$.$.#.#.o. .{ ' _ ^ Q W u t e w 0 w 0 w w e t y i Q ^ ) ) _   ",
"  #.$.#.#.o. .] _ ) ! W u t e w 9 9 8 9 8 9 0 w r u W ^ ( )     ",
"     .#.o.o. .] ` ( ! W y r w 0 9 8 6 7 7 8 0 w t u Q ~ ^       ",
"        o.X. .] ` ) ! W u t e w 8   5 8 8 0 w r y i Q ~         ",
"          {  .{ ' ) ^ Q W u e           8 w r t u W W           ",
"            _ ] ' _ / ! u                 e r u W               ",
"                @.+.O.                                          ",
"                                J                               ",
"                              I Y                               ",
"                              Y Y Y                             ",
"                S           J Y Y Y K                           ",
"                F G G       U U Y U I F                         ",
"                J J K D D K P L L L K K                         ",
"                K F F D F L K K F H H K F                       ",
"                F F D D F F F D D S D F F A                     ",
"                D A A A F D A A V V Z A A A                     ",
"                A A Z A D Z Z B M M M B C Z M                   ",
"                B V V V V V N M 4 2 4 M N N                     ",
"                  N N M M M M 4 2 < 2 4 M 4                     ",
"              K G S N 4 M M 4 2 < > < 2 4 < 1 4 M M V C Z       ",
"        Y U I L K D Z V 4 2 2 1 > ; > < < 1 2 2 4 M B Z A S F F ",
"K I U T T Y U K F D V N M 3 < , > - : > > > < 2 2 M N B A S F A ",
"  T E E Y Y U K F S B M 4 1 < : ; - = = = = : > < 3 M B A A     ",
"    T R T Y L K D A N 4 2 , > : = = & & * = - > < 3 M N Z       ",
"      L Y Y P K F A B 4 2 , > ; -   & & * - ; , 2 4 M B N       ",
"        F U P K F D B N 4 2 , ;       & - : > 1 2 4 M M         ",
"            L K F D Z N 4 1               > < 2 3 M             ",
"              A D D Z M                                         "
};
