/* XPM */
static char *out[] = {
/* columns rows colors chars-per-pixel */
"32 32 61 1 ",
"  c #671B17",
". c #661C18",
"X c #671C18",
"o c #661D19",
"O c #671D19",
"+ c #681C18",
"@ c #691C18",
"# c #6B1D19",
"$ c #6C1D19",
"% c #6C1E1A",
"& c #6D1E1A",
"* c #6E1E1A",
"= c #6F1F1B",
"- c #691F1C",
"; c #701F1B",
": c #69201D",
"> c #70201C",
", c #71201C",
"< c #6B2421",
"1 c #6B2522",
"2 c #702421",
"3 c #712A27",
"4 c #732A27",
"5 c #722E2C",
"6 c #732F2D",
"7 c #75322F",
"8 c #763330",
"9 c #763431",
"0 c #7B3836",
"q c #7E3937",
"w c #7C3A38",
"e c #7E3F3C",
"r c #7F3F3C",
"t c #7F4240",
"y c #824341",
"u c #834543",
"i c #834745",
"p c #894D4B",
"a c #894F4D",
"s c #8B5250",
"d c #8D5554",
"f c #966462",
"g c #966564",
"h c #966665",
"j c #976867",
"k c #996A69",
"l c #9D716F",
"z c #9D7271",
"x c #9D7372",
"c c #9F7675",
"v c #9F7776",
"b c #A07776",
"n c #A17978",
"m c #A17B7A",
"M c #A27C7B",
"N c #A17E7D",
"B c #A37F7E",
"V c #A3807F",
"C c #A48280",
"Z c #A48281",
"A c #A48382",
/* pixels */
",,,,,,,,,,,,,,,,,,,,,,,,,,,,,,,,",
",,,,,,,,,,,,,,,,,,,,,,,,,,,,,,,,",
",,,,,,,,,,,,,,,,,,,,,,,,,,,,,,,,",
",,,,,,,,,,,,,,,,,,,,,,,,,,,,,,,,",
",,,,,,,,,,,,,,,,,,,,,,,,,,,,,,,,",
",,,,,,,,,,,,,,,,,,,,,,,,,,,,,,,,",
",,,,,,,,,,,,,,,;=>,,,,,,,,,,,,,,",
",,,,,,,,,,,,,,;2q&,,,,,,,,,,,,,,",
",,,,,,,,,,,,,,&0f ,,,,,,,,,,,,,,",
",,,,,,,,,,,,,,+dV1=,,,,,,,,,,,,,",
",,,,,,,,,,,,,=:NMr#,,,,,,,,,,,,,",
",,,,,,,,,,,,,$tAbgO;,,,,,,,,,,,,",
",,,,,,,,,,,,>.kBcc8&,,,,,,,,,,,,",
",,,,,,,,,,,,*5ZnccpX,,,,,,,,,,,,",
",,,,,,,,,,,;+sCcccl<=,,,,,,,,,,,",
",,,,,,,,,,,=wVMccccu%,,,,,,,,,,,",
",,,,,,,,,,,=3hvcccc9&,,,,,,,,,,,",
",,,,,,,,,,,,#encccf.;,,,,,,,,,,,",
",,,,,,,,,,,,=-cccce#,,,,,,,,,,,,",
",,,,,,,,,,,,,@sbcz<=,,,,,,,,,,,,",
",,,,,,,,,,,,,*6mca ,,,,,,,,,,,,,",
",,,,,,,,,,,,,>Xjc7&,,,,,,,,,,,,,",
",,,,,,,,,,,,,,#ixo;,,,,,,,,,,,,,",
",,,,,,,,,,,,,,=4y$,,,,,,,,,,,,,,",
",,,,,,,,,,,,,,,=*;,,,,,,,,,,,,,,",
",,,,,,,,,,,,,,,,,,,,,,,,,,,,,,,,",
",,,,,,,,,,,,,,,,,,,,,,,,,,,,,,,,",
",,,,,,,,,,,,,,,,,,,,,,,,,,,,,,,,",
",,,,,,,,,,,,,,,,,,,,,,,,,,,,,,,,",
",,,,,,,,,,,,,,,,,,,,,,,,,,,,,,,,",
",,,,,,,,,,,,,,,,,,,,,,,,,,,,,,,,",
",,,,,,,,,,,,,,,,,,,,,,,,,,,,,,,,"
};
