/* XPM */
static char *out[] = {
/* columns rows colors chars-per-pixel */
"64 32 82 1 ",
"  c #433B37",
". c #4C3B37",
"X c #463D3B",
"o c #4A3F3C",
"O c #4A413F",
"+ c #55443E",
"@ c #4D4341",
"# c #554541",
"$ c #594740",
"% c #504946",
"& c #5B4A45",
"* c #514A48",
"= c #5C4C49",
"- c #5F524F",
"; c #604C47",
": c #684D41",
"> c #614D48",
", c #685147",
"< c #64524C",
"1 c #6A5349",
"2 c #645551",
"3 c #695550",
"4 c #675A56",
"5 c #6C5A55",
"6 c #675B59",
"7 c #6C5D59",
"8 c #735D55",
"9 c #725D58",
"0 c #6F635F",
"q c #75635D",
"w c #78635D",
"e c #746663",
"r c #7B6762",
"t c #766965",
"y c #7A6965",
"u c #7C6E6A",
"i c #7E716D",
"p c #816C65",
"a c #816F69",
"s c #83736E",
"d c #8D776C",
"f c #847672",
"g c #887773",
"h c #867975",
"j c #897A75",
"k c #8B7E79",
"l c #8E827D",
"z c #92837E",
"x c #99867E",
"c c #9D887F",
"v c #8F8381",
"b c #938581",
"n c #988782",
"m c #958985",
"M c #9A8B86",
"N c #978C89",
"B c #998D89",
"V c #9C918C",
"C c #9E9492",
"Z c #A1928D",
"A c #A29591",
"S c #A69995",
"D c #A99B96",
"F c #A69C99",
"G c #AB9E9B",
"H c #A7A09F",
"J c #ACA29F",
"K c #ADA4A2",
"L c #AFA8A6",
"P c #AFAAA9",
"I c #B0A6A3",
"U c #B1A9A6",
"Y c #B5AEAB",
"T c #B8AFAE",
"R c #B5B0AE",
"E c #B8B1AF",
"W c #B6B2B0",
"Q c #BAB4B2",
"! c #BCB8B7",
"~ c #BCB9B8",
"^ c #C0BAB7",
"/ c #C0BBBA",
/* pixels */
"bmmb6teeeeeeee6NmmmmmmmmNl 0liiffffffliiihhjlmmmmmNNBBNmmmmmmmmm",
"BBBN6tteeeeeet6vmmmmmmmmNl elilifffffffffiiiitutuiiiillllmmmmNNB",
"jkvNeauauuuiuuebVVBBBBBBClXullllllllllllhljllllllllhhfffiiiifhlh",
"uuyusffsffffsfuNCCCVCCCCCmOiNllzllllllllmvbblzlzlbbbmzmzmmbmblzi",
"kkkjgjkkkkkggksBHHCHHSSHFVOfVBMMBBBcNMNMBBBBBBBBNNBBBMBBBMBBBBVl",
"nnzBGnbnbnbBHbkZKJJHHHHHHCOlHAAAAACCCAACZAAAAAZZVCCACAAAAAAACCAx",
"ASAKKxSSSAZJIxZJRPPPPPPPRJ%BIJJJJJJJJJJJJJJJJJJJJJJJJJJJJJJJJJJS",
"KKKJMDIKIIIGcDKUQQQQQQ!WQR%AEYYYYYYEYYYEYYYYYYYTRYYYYYYYYYYYYRRJ",
"YYYYEEYETTTTTTTT~~~!~~!~!!*F/QQQQQQQQQQ^QQQ^^QQQQ^QQQ!QQQQQQQQQE",
"EEEEEEEETTQTQQTW!!!!!!!!Q!%F!YETEEEQEEEEEEEEEEEQEEQEEEEEEQQEQEEE",
"UUUUUUUUUUULUULUWRRRRYYRUT%BUIGJJJJJJGJJJGJJJJJKIIIIUIIUIIIIIIIY",
"DDFDFDFFDDDDFFFAKRPKKLWPDJ+zDZLJASSDSSDSDASSSZZAAZZZZZVZZZAZcZZH",
"VVVBVVVVZBVBBBZnKPxSFJHVVA@sBnKdxcMcBMMMcMMMxRSzMMMBMVMBMBMVJMxm",
"mmmMmmmmmmMmMmMkCxjHFAdVMB@umbp8xxllzzllzxbbzh:znbbxzbzbxzlVCpzz",
"lvllllllllvlkvvgVVBmlvvvjnOelhlllllllllljkjjjfjkjjjkhkkjhlls,ilh",
"jjjjhfjfjjhhhhjfiiiisfffjzO0jsfsiiiiisiifsfffffsfffffffffisslhii",
"iuuiiffffffihfihhhhhihihfk@6iiiiiiiiiiiisususuuuuuututttuttttt0t",
"jivfijihffhffhffhihihhihfj@6iieisiiiiiiutettttuuuuiififhfffjjjjj",
"CKNjihhhfhfffhhhhhhhihhhfk@4ijCiiiiiiiiyNNvmNNNNNBBBNmmBNNVNBNNB",
"CBilihhiifffihihihihhhihfk@6ivv4fiiiiistNvFCvmnnmmbmlSPkmmmbmmbm",
"j1jfeiiiiiuuuuuuuiiiiiuuufO-uq+7uttyyyu7vlFrkvvvvlzlll,wnlllllll",
"jllr6e0qqeqeeeewqq0qeee0eyX2557746767772gg9>jgggfjgjgfsjjjjjjjjj",
"ppsq<545555555544455454555X<555<2<<>>=;#wassaaaauuaapsaauauaaaua",
"wwr3+>>=;;=;;;>>>=;;;<;=><X#<=>>><>>>>>#3pwwwww9rwwwwwwwwwwwwwww",
"55q;.$#++$+#++++++++$+#+++o+&++$##+++++.&99558385553895558555883",
"99w1+&&=;&&&&&&&&&&&&&&&$& +$&$$&&&&&+;+;w9999998999999988988999",
"rrp5.#o##$&===;==-,<<<<<<3X&<<<<>222<31>3arppprppppprrprrrrprppr",
"gsgy#====&===&=&&&&&&-770qX2q000999709759gssassssassssssfsfsssss",
"kklf=767646664664566420utiO6ueutuutittueelgjkkvkkkkkkkskkkkkkkkk",
"bnmk4e00eq007e06466607efsj@0hiiiiiiisiiiuvAPjbvvbnvnvMHzbbbbzbbn",
"mmmb7eeeeeeteeekhfiiteeiufOelffhffffffjfumn9pBmmmmnnbCVpNNmmmmmm",
"mmNb6etteeeeet7NVBVBVNNmNb ehfffffhfffffumbvmmmmmmmmmz9kNmmmmmmm"
};
