/* XPM */
static char *out[] = {
/* columns rows colors chars-per-pixel */
"64 64 235 2 ",
"   c #1E0B09",
".  c #1C1112",
"X  c #270403",
"o  c #240D0C",
"O  c #2A0E0D",
"+  c #310E0B",
"@  c #2D1211",
"#  c #281617",
"$  c #331413",
"%  c #3A1615",
"&  c #3D1817",
"*  c #391A1A",
"=  c #352B15",
"-  c #3C3527",
";  c #480907",
":  c #5C0201",
">  c #50100D",
",  c #461B19",
"<  c #441C1B",
"1  c #541B18",
"2  c #610604",
"3  c #640C0B",
"4  c #7E0600",
"5  c #66100E",
"6  c #651714",
"7  c #6A1513",
"8  c #6E1A16",
"9  c #6F1D19",
"0  c #701E1A",
"q  c #47201F",
"w  c #4F2B1D",
"e  c #6D2F0D",
"r  c #71201C",
"t  c #441F20",
"y  c #462221",
"u  c #4C2322",
"i  c #522525",
"p  c #5C2523",
"a  c #562A29",
"s  c #5C2D2B",
"d  c #57352C",
"f  c #652927",
"g  c #762B26",
"h  c #63312F",
"j  c #79332C",
"k  c #653433",
"l  c #6C3937",
"z  c #793835",
"x  c #723D3B",
"c  c #1A7E02",
"v  c #784800",
"b  c #6E4A10",
"n  c #554522",
"m  c #574B2E",
"M  c #5D4D2C",
"N  c #68502B",
"B  c #76413F",
"V  c #645535",
"C  c #675838",
"Z  c #6B5C3C",
"A  c #71623E",
"S  c #7A3F42",
"D  c #5D5645",
"F  c #7C4443",
"G  c #6D5E41",
"H  c #685D50",
"J  c #726446",
"K  c #76684A",
"L  c #766A50",
"P  c #7B6D54",
"I  c #830700",
"U  c #8A0700",
"Y  c #850800",
"T  c #8B0800",
"R  c #930B00",
"E  c #9A0900",
"W  c #961303",
"Q  c #9A1908",
"!  c #9B210D",
"~  c #9B2418",
"^  c #A3271C",
"/  c #99322C",
"(  c #863B36",
")  c #A42C24",
"_  c #A3332B",
"`  c #A73931",
"'  c #895600",
"]  c #8F5700",
"[  c #9A6604",
"{  c #AE720A",
"}  c #A8761A",
"|  c #B77914",
" . c #86433C",
".. c #87483B",
"X. c #8D4D38",
"o. c #AB433B",
"O. c #A97A29",
"+. c #B77F24",
"@. c #864946",
"#. c #954A47",
"$. c #8E5446",
"%. c #94554C",
"&. c #9B5654",
"*. c #B0534C",
"=. c #A65B57",
"-. c #936E57",
";. c #986A59",
":. c #82765A",
">. c #A6625E",
",. c #B26A57",
"<. c #877B64",
"1. c #9D7664",
"2. c #8B7F7F",
"3. c #997E7C",
"4. c #AA6765",
"5. c #B66A63",
"6. c #B6736C",
"7. c #AA7970",
"8. c #BB7A77",
"9. c #C07F7D",
"0. c #1A8204",
"q. c #1B850B",
"w. c #1E8A16",
"e. c #238D18",
"r. c #269019",
"t. c #258E28",
"y. c #308E2B",
"u. c #269129",
"i. c #29902F",
"p. c #2B9132",
"a. c #329636",
"s. c #36943A",
"d. c #3A953D",
"f. c #3C9742",
"g. c #3CA145",
"h. c #479848",
"j. c #519A4E",
"k. c #499A50",
"l. c #599C56",
"z. c #639F5D",
"x. c #6B9F67",
"c. c #6BA266",
"v. c #73A46B",
"b. c #7BA774",
"n. c #B78128",
"m. c #AA8634",
"M. c #B98836",
"N. c #B38E4A",
"B. c #BC9349",
"V. c #BC9959",
"C. c #8C8A72",
"Z. c #8E8878",
"A. c #938979",
"S. c #A2836E",
"D. c #B99862",
"F. c #A68978",
"G. c #B9817C",
"H. c #A8917E",
"J. c #85AA7B",
"K. c #B7A466",
"L. c #BBAB6A",
"P. c #BCAC73",
"I. c #C19B57",
"U. c #C3A05E",
"Y. c #C5A669",
"T. c #CAA76B",
"R. c #CAA96E",
"E. c #C5AB74",
"W. c #CAA971",
"Q. c #C3AA7A",
"!. c #C9AF7A",
"~. c #C9B27A",
"^. c #7FA881",
"/. c #948883",
"(. c #8F9388",
"). c #9C9585",
"_. c #9C978A",
"`. c #A88A88",
"'. c #B88885",
"]. c #AA9583",
"[. c #AA9687",
"{. c #A19A8C",
"}. c #AC9A8C",
"|. c #B7968C",
" X c #A59D93",
".X c #AC9E93",
"XX c #B99995",
"oX c #8DAD82",
"OX c #92AD8D",
"+X c #95B18B",
"@X c #9CB495",
"#X c #AFA08F",
"$X c #AAA498",
"%X c #ABA59C",
"&X c #B2A395",
"*X c #B2A59B",
"=X c #BDA39C",
"-X c #B5AA9D",
";X c #BAAA9E",
":X c #A4B99A",
">X c #ABA9A2",
",X c #ADAAA2",
"<X c #BCA5A1",
"1X c #B3ABA4",
"2X c #BEACA3",
"3X c #B8AAA7",
"4X c #B5ACAB",
"5X c #ACBDA2",
"6X c #ABB4AA",
"7X c #BDB1A6",
"8X c #B4B2AC",
"9X c #BBB3AD",
"0X c #B6B2B0",
"qX c #BCB5B1",
"wX c #B4B9B3",
"eX c #BEB9B5",
"rX c #BEBCBA",
"tX c #C28B89",
"yX c #C2908D",
"uX c #C49A98",
"iX c #C5AA8B",
"pX c #C7B187",
"aX c #C6B797",
"sX c #C3A9A7",
"dX c #C1ACA6",
"fX c #C1B2AC",
"gX c #C4BBA9",
"hX c #C3B5B2",
"jX c #C3BBB5",
"kX c #C1BDBB",
"lX c #B0C0A7",
"zX c #B2C1A9",
"xX c #BDC1BE",
"cX c #C2C0BF",
"vX c #C5C4C4",
/* pixels */
"W.W.W.W.W.W.W.E.!.pX#XE.E.Y.V.M.U.T.W.W.W.W.W.W.K. X_.{.{.{.{.{.{.{._.{.{._. X%X%X%X%X%X%X>X%X%X,X,X>X>X>X%X,X,X,X,X,X,X,X,X>X,X",
"W.W.W.W.W.W.pXaXaXaXpXpXE.Y.I.B.n.| D.W.W.W.W.W.L.{.J C Z Z Z Z Z Z C C Z J @ M M M M m M m M M M M M M M M M M M V M V M M M %X",
"W.W.W.R.!.pXgXgXaX~.W.R.E.W.E.I.M.n.| V.W.W.W.W.L.{.K Z J J J J J J J J G <.= C.).).{._.)._.{._.{.{.{.{.$X{.{.$X$X$X$X$X%X$X%X,X",
"W.W.W.E.aXcXgX!.T.T.R.W.W.W.W.W.U.M.M.| D.W.T.W.L.{.K G J J J J J J J J G :.m C.1X1X1X1X,X1X1X1X1X,X,X8X1X,X1X,X,X%X%X,X,X,X%X>X",
"W.W.E.aXgXgXR.T.W.W.W.W.W.W.W.W.W.W.M.n.| U.W.W.L.).K A J J J J J J J K G P :.P ,X>X>X%X>X>X>X.X%X%X%X%X%X%X%X%X%X%X%X%X%X%X%X6X",
"W.R.pXgXgXR.T.W.R.W.W.R.R.W.W.W.W.W.W.n.+.{ Y.W.L.).G J J J K J J J J G J :.= w V V V C V V C G Z Z Z Z Z Z Z Z Z G Z C Z M <.1X",
"W.E.aXgX!.T.R.W.W.W.E.E.W.W.W.W.W.W.!.U.+.+.M.W.L.A.A J J J J J K J G G <.L H C.<.<.P P L K G G Z Z C C C C V V V V V V V n C.,X",
"Y.E.aXpXT.R.R.W.W.W.E.[ O.W.W.R.W.W.W.!.B.M.| E.L.A.Z J J J J J J G A ).8XwXwX6XwX0XwX0X4X0X4X3X8X8X6X8X8X6X8X,X,X>X>X%X$X_.%X8X",
"E.E.iXW.R.R.W.R.R.!.m.v m.!.W.W.R.W.R.W.T.+.| U.L.Z.Z J J J J J Z Z )./.3.3.3.3.`.3.'.`.'.`.`.3.`./.3.3.3.3.3.2./.2.2.3././.3.2.",
"L.Q.iXR.W.W.W.W.R.!.' ] Y.pXW.W.W.R.W.W.W.B.+.M.L.C.C J J J J G A _.xX; ; 1 6 9 g ( / #.#.#.( ( 0 6 6 > ; ; + +     X + ; ; ; ; ",
"Y.P.W.R.W.W.W.R.!.Y.v O.R.pX!.R.W.W.W.W.Q.I.+.+.K.A.P L J G Z J  XvXcXf f g z S @.#.&.&.>.&.&.@. .( l f f p 1 q % % , 1 p f f f ",
"D.Y.R.W.W.W.W.W.!.B.v N.R.pX!.R.R.W.W.W.W.Y.| | K.(.n J :.:.P >XvXvXrXf f f z ( @.#.&.>.=.&.#.#. .z g f f p p , , % , 1 p p f f ",
"Y.I.W.W.W.W.W.R.pXm.' U.R.pXpXT.R.W.W.W.E.E.{ { K. X- D - = Z.vXcXcXrXp p g z z @.#.&.&.=.&.&.@. .z j f f 1 p , < % , i p f f p ",
"V.I.W.W.W.W.R.W.~.m.[ T.T.pXpXT.W.W.W.W.W.Y.{ { K._.G 8X{.w @X`.( %.@.g g z z #.#.&.>.4.4.4.&.&.#.S z z f f f 1 , , 1 1 p f f f ",
"I.N.W.W.W.W.W.W.~.m.} T.T.pXpXT.W.W.W.W.W.E.[ [ D.(.C 8X_.M >X`.( &. .< t t i i h h l x x l k k s i u , < < & $ O + $ $ & < , , ",
"B.+.W.W.W.W.W.W.~.m.+.T.W.aXpXT.W.W.W.W.W.R.[ ] K.(.Z 8X).m >X`.( =. .      o O # # @ $ $ $ # $ @ o o       o               o X ",
"+.+.T.W.W.W.W.W.~.N.n.Y.!.aX~.T.W.W.W.W.W.Y.] ] D.(.C 8X).M 8X`.( &.@.@ O $ * * t t y u a y y t * * $ $ @ O O O o o o O @ @ @ $ ",
"B.+.I.!.W.W.W.W.W.V.n.Y.pXaX!.R.W.W.W.W.!.V.' ' K./.Z 6X).M 4X`.#.&.#.$ $ * * t t a a d a a a u t < * $ $ O @ O o o O O @ @ @ $ ",
"+.+.I.!.W.W.W.W.W.Y.} Y.aXgXT.W.W.W.W.W.!.m.v ] L.<.J 8XA.M 8X}.&.4.>.$ $ & < t a d d k k k d a u t * * $ $ $ O O o @ O $ $ $ $ ",
"I.+.+.!.W.W.W.W.R.!.M.E.aXpXT.R.W.W.T.W.E.' v O.Y.:.J 8X).M 6XXX4.8.7.$ * < t i a d k x B l k d a u t & % $ $ O o o O $ $ % $ % ",
"Y.| +.U.W.W.W.W.W.W.U.iXaX!.R.W.R.W.E.~.N.v v D.R.K L 8X/.V 4X<X8.'.'.* % t i a k k S S F F x k s i q < % % $ $ O O O $ $ % % & ",
"W.+.n.M.W.W.W.W.W.W.W.W.!.T.W.W.E.R.E.P.' v v E.L.G L 8XA.G 4X3X'.uXuX* % t i s k x F F F F F k h a u < % % $ $ O O @ $ % * & & ",
"W.D.| +.I.!.W.W.W.W.W.R.T.W.W.W.R.E.~.O.v e N.Q.L.C :.8XZ.K 8X3XuX<X<X& * t a s k x F F $.F F l h a u < < % $ + O O @ $ % * & & ",
"W.W.+.+.| I.!.W.W.W.W.W.R.W.R.R.W.~.m.v v ' E.E.L.M :.8XC.P 4X3XuXuXuX& * t a d k F F F F F F k h i u , < % $ @ O O O @ % & & * ",
"W.W.W.| n.+.I.!.!.R.R.W.R.R.W.~.~.m.v v v L.W.W.L.M :.4XC.:.4X<X'.'.yX* & t i s k x F @.@.F F k h p q < , % % @ O O + $ % & & & ",
"W.W.W.E.| +.+.M.U.!.!.~.E.!.~.I.[ v v v P.R.W.W.L.n <.8X<.<.8X.X8.'.G.& & t i s k x B @.@.F F l h a w , % % % @ O O @ $ % * & % ",
"W.W.W.W.E.+.| n.+.M.I.B.N.m.[ ' ' v ' P.W.W.W.W.L.n <.8X<.<.0X.X=.7.4.& & t i s k x F F $.F F l h a q , & % % @ O O O @ % % & & ",
"W.W.W.W.W.!.D.| | | { { [ [ ] v ' ,.E.W.W.W.W.W.K.w :.9XP <.0X`.#.>.&.$ , , u s h x B @.F F F k s i , , , + $ O X o O + + % % % ",
"W.W.W.W.W.W.W.E.E.M.M.n.n.} { D.P.E.R.R.W.W.R.W.K.K Z.8X(.).wX`.#.=.%.# # * t u a h l S S x h s i t * * # # . . . . . # # # # $ ",
"-X2X7X7X9X7X7X9XeXhX9X8X9X8XeXeX9X9X9X9X9X9X7XfXwXzXgX9XeXqX9XgXqXhX9X9X4X4XqX4X9X9X9X1X9X9XfXfX9XqX9X8X9X9XqXqX9X9X9X1X3XqXqX4X",
"$.$.%.[.;X-X;X;X<X;XF.1.[.;X;X;X;X;X-X&XF.&X;X&X-X;X;X;X&X1.-.S.}.&X;X2X;X2XsX<X;X&X1.X.H.;X-X[.&X-X2X2X;XaX;X;X#X-XdXS.X.}.dX}.",
"g : : S.7X7X;X#X].-Xj : -.1.H.&X7X7XS.X.8 S.H.1.-.H.&X7X-X9 2 7 g ..].7X;X.X*X<XF.j 2 2 8 ;.$.r  .-.}.F.F.[.[.-.g F.fX$.; F.}.( ",
"r r 5 $.7X}.-.g 3 ]. .5 7 3 7 ..S.*X( : 7 9 8 3 2 5 ].dXfXF.3 0 7 : g H.1.( ..$.7 3 r r 8 3 3 7 7 2 1.g 3 9 9 3 :  .-Xj 2 ;.g 8 ",
"r r 9 7 &X1.: 6 2 1.$.5 r 0 9 3 : F.( 7 r 9 9 0 r 2 1.}.&XH.3 0 r r 7 8 3 5 3 3 9 r r r r r r r r 7 ( r 9 9 9 r 9 9 ].5 9 8 5 r ",
"r r r 2 ;.1.3 r 5 %.$.7 r r r r 3 -.j 0 r r 9 0 r 8 g 7 1.S.3 0 r r r r r r r r r r r r r r r r r r 0 r r r r r 8 j 1.3 r r 8 r ",
"r r r 0 r  .7 r 7 ( $.7 r r r r 7 $.g 9 r 0 9 g r r 8 3 @.1.2 g r r r r r r r r r r r r r r r r r r r r r r r r 9 ( ( 7 r r 8 r ",
"r r 9 9 8 7 9 9 7 g ( 5 0 0 0 0 8 r r 0 9 9 9 9 0 0 0 0 r z 7 0 9 9 r 9 r r 9 9 r r r 9 0 0 0 0 9 r 0 0 r 0 r r 8 g 0 0 r 0 8 r ",
"r r r r r r r r r r 0 0 r r r r 0 r 0 r 9 g 0 r r r r r r 9 0 r r r r r r r r r r r r r r r r r r r r r r r r r 0 r 0 0 r r r 0 ",
"#X&X&X&X*X-X*X*X*X&X#X.X*X4X4X4X4X4X4XqX4X,Xb.k.f.f.h.l.OX4XqXqX4X4X4X4X4X4X4X4X4X4X4X4X4X0X4X>X=./ ~ ~ _ *.`.4XqX0X4X4X4X4X3X9X",
"].H.H.H.H.H.H.H.].H.].S.1XvXvXvXvXvXvX6Xc.r.r.t.t.t.i.r.r.u.b.zXvXvXvXvXvXvXvXvXvXvXvXvXvXXX_ R U U E U I R T ~ G.kXvXvXvXvXvXvX",
"[.[.}.}.}.}.}.}.}.[.[.F.-XvXvXvXvXrXl.0.w.t.i.i.u.i.i.i.i.u.q.0.b.vXvXvXvXvXvXvXvXvXvX0X/ I U U ~ '.=X|.o.U R R 4 U XXvXvXvXvXvX",
"[.[.}.}..X}..X}..X.X}.F.1XvXvXvX6Xe.0.i.i.i.p.i.a.y.a.i.i.i.p.i.0.h.xXvXvXvXvXvXvXvXXXI U W R W dXdX=X=X9X*.U Q W T I >.vXvXvXvX",
"}.}..X&X*X.X-X&X&X#X}.H.1XvXvXwXq.w.p.i.p.p.p.s.a.d.d.a.s.i.i.p.p.q.d.rXvXvXvXvXvXXX4 U W W E ` dX=X=X=X=XdX^ R W W W I =.vXvXvX",
"}.}.&X*X1X1X*X1X-X%X#XF.1XvXvXt.w.p.p.p.p.s.h.k.l.z.l.l.j.h.s.p.p.p.0.l.vXvXvXvX4XI R W W W Q E =XdX=XsX<XfX*.E ! W W W I `.vXvX",
".X.X*X1X3X1X1X3X1X-X&X].4XvXc.0.p.p.i.a.f.j.z.v.J.J.v.J.c.z.h.d.p.p.p.c @XvXvXvX~ I W W Q ~ ) ) *.uXfXhXfXsX*.` ) R U U E I qXvX",
"}.#X1X2X9X9X9X9X2X1X*X`.8XwX0.i.p.y.a.d.l.c.J.oX+XJ.J.J.J.b.z.h.s.a.p.w.t.vXvXXXI W E Q Q ^ o.*.,.5.'.uXyX6.5.*.) *.5.*.U I =.vX",
".X*X1X9XqX0X9X9X4X9X1X[.qXb.0.p.p.i.s.j.v.J.+X@X:X:X@X:X+XJ.J.z.h.a.p.p.c @XvX~ U Q E Q ^ ` *.8.9.tX9.9.9.9.8.,.XXdXsXfX6.I I hX",
".X*X8XqXeXeXeXeXqX9X1X}.8Xp.t.p.p.p.h.z.J.@X:X:X5X5X5X:X:X+XJ.v.j.s.p.p.w.x.rXI W U U U ^ *.8.9.tXsXfXuXuXtX8.sXhXsX=X=X<X! I `.",
".X*X4XjXrXrXrXrXqXqX3X.X>Xr.u.i.i.s.j.v.+X:X5XzXzXzXzX5X:X:X+Xv.l.f.p.i.u.g.8.E T Q 5.6.o.*.8.uXhXkXkXhXuXuXsXhXhXsX=X=XdXo.4 >.",
".X,XqXkXcXxXcXkXcXqX3X.X(.w.i.i.i.d.l.b.+X:XzXzXzXzXzXzX:X:X+XJ.l.a.a.p.u.a.X.E W =X7X7XsX8.8.uXkXhXkXjXuXsXjXhXsXsX=XsXdXo.Y _ ",
".X1XqXkXcXcXcXcXcXqX4X<Xb.w.i.i.p.d.l.J.@X:XzXzXzXzXzXzX5X:X+XJ.l.d.p.i.u.g.b E ` 7XuX=XsXfX9.uXkXvXvXsXuXhXhXhXhXsXsXuX;XW T ! ",
".X,XeXkXcXvXvXvXcXkX9X<Xb.w.i.p.i.a.l.b.+X:XzXzXzXzXzXzX:X:X+Xv.j.a.p.p.u.a.N E ~ 2XXX=XdXfXuXtXsXhXsXuXsXjXhXhXsXsXuXfX5.Y R Q ",
".X,XeXcXvXvXvXvXvXrX4X=X(.w.u.p.p.s.j.c.oX@X5X6XzXzXzX5X5X@XJ.c.h.a.p.i.i.a.N E Y G.dX;X=XfXXXtXuXuXsXsXuXhXjXhXdXdXfX'.Y R R ) ",
".X1XeXcXvXvXvXvXcXkX4X.X Xe.p.u.i.a.f.z.J.+X:X5XlXlX5X5X:XJ.v.l.a.a.p.i.t.g.1.E R Y 6.dX2XsX5.9.tXuXuXuXuXuXhXhXfXdX6.T R W Y *.",
".X>XhXcXvXvXvXcXvXrX4X.X8Xu.u.i.i.p.s.h.c.J.OX@X:X:X:X+XJ.J.l.f.p.p.i.p.w.c.3XY W R Y W ` ^ ` 5.tXyXyXtX9.9.5.6.*.R Y R W Q I 7.",
".X3XqXvXvXvXvXvXvXjX8X.XwXc.q.i.i.p.p.d.j.z.v.oXJ.+XJ.J.v.l.d.y.p.i.i.p.c OXvXR R W W R E Q G.dXsXhXhXsXuX*.` ! _ 5.! R R R I qX",
".X,XeXkXcXvXvXvXcXrX4X XqX6X0.i.i.i.p.p.f.f.l.z.c.c.x.l.h.f.a.p.p.p.p.t.q.xXvX7.I W W W T 8.dX;XsX2XdXdXfX=XQ _ dXgX|.T W U / vX",
".X1XeXvXvXvXvXcXcXkX4X}.4XvXh.q.p.p.i.i.i.f.f.f.h.h.h.f.s.p.i.i.i.i.p.0.^.vXvXrXU T W R R =X=XuXXX=X=X=X=XdX) ! 2XfX6.T R I <XvX",
"%X3XeXcXvXvXvXvXcXjX8X}.0XvXwX0.t.t.i.i.i.i.p.p.p.p.p.p.p.p.i.i.i.p.w.p.vXvXvXvXXX4 E R Y XXdXXXXX=X=XXX=X<XQ U ` *.U R I =.vXvX",
"$X3XeXkXcXvXvXvXcXkX9X.X8XvXvX@Xc t.p.i.i.i.p.i.p.p.i.i.i.i.i.p.p.w.q.wXvXvXvXvXvX4.4 W T ) ;XdX=X=X=X2XdXo.Y W Y T R Y / vXvXvX",
".X3XqXkXvXvXvXcXkXkX4X.X0XvXvXvXOXc t.i.i.i.i.i.i.i.i.p.i.i.i.p.q.q.xXvXvXvXvXvXvXvX>.I R Y Q 6.|.=X|.6.~ I R W Q W 4 ` cXvXvXvX",
"%X9XeXcXkXvXvXvXvXkX4X.X4XvXvXvXvX6Xw.q.t.i.i.t.i.i.i.p.i.i.w.0.f.xXvXvXvXvXvXvXvXvXvX'.Y Y T Y R Q R Y R E W E U 4 =.vXvXvXvXvX",
"%X2XqXkXvXvXvXvXkXeX9X.XwXvXvXvXvXvXxX^.w.c q.t.t.t.t.w.q.0.i.@XvXvXvXvXvXvXvXvXvXvXvXvXqX=.Y I Y Y R R T U Y Y / 3XvXvXvXvXvXvX",
"1X8XeXkXrXvXcXcXkXjXqX%XqXvXvXvXvXvXvXvXxX@Xb.k.s.i.f.l.b.6XvXvXvXvXvXvXvXvXvXvXvXvXvXvXvXvXqX'.4._ Q Q ) &.'.4XvXvXvXvXvXvXvXvX"
};
