/* XPM */
static char *out[] = {
/* columns rows colors chars-per-pixel */
"64 64 24 1 ",
"  c None",
". c #050515",
"X c #060817",
"o c #080817",
"O c #060618",
"+ c #07081A",
"@ c #0A0A1C",
"# c #0D0E21",
"$ c #0F1023",
"% c #111125",
"& c #14152A",
"* c #17192D",
"= c #191A2E",
"- c #1C1D32",
"; c #1E2035",
": c #1F2138",
"> c #212236",
", c #23243A",
"< c #28263D",
"1 c #27283E",
"2 c #29293E",
"3 c #272740",
"4 c #272840",
"5 c #2A2B42",
/* pixels */
"                                                                ",
"                                                                ",
"                                                                ",
"                                                                ",
"                                                                ",
"                                                                ",
"                          o.O@@                                 ",
"                        .o.@@@o@                                ",
"                       .oo@o@@@@@                               ",
"                      ...ooo@@@o@#                              ",
"                      ...oo@@@o$##                              ",
"                     .....ooo@@$@##                             ",
"                     ...o.++@@@@@#$$                            ",
"                    ......O.o@@@#@@$%                           ",
"                   .........ooo@@%@$%%%                         ",
"                 ..........oooo@@@$%%%&&&&==                    ",
"               ...............o@+###%%&&&&*==                   ",
"              ................oo###%%%&&***----                 ",
"             ...O.O..........ooo+@##%%%&&==-=-->>               ",
"            .....O...........ooo@##%%&&&&==--;;:>><             ",
"           ...O.............ooo@@##%&%&&**=---;>>,,,3225        ",
"          ..................oo@@@###&%&&**=--;-:>,,422225       ",
"         ..................ooo@@##%%%%&&&*=---;;>>,,355555      ",
"        ..................oo@o@@@##%%&&&*===--;;>,,,355555      ",
"        ........OOO.O..O..Oo@o@@###%%&%*&*==;;;;>,,,555555      ",
"        ...........O..O...o+o@@@@##%%%%*&**===;;>,,,155555      ",
"         .    ...........       #@##%%%*&*==-;-;>>,<,5555       ",
"                 ......           #%%%&&&*          ,15         ",
"                                                                ",
"                                                                ",
"                                                                ",
"                                                                ",
"                                                                ",
"                                                                ",
"                                                                ",
"                                                                ",
"                                                                ",
"                                                                ",
"                                                                ",
"                            @@@++                               ",
"                           @#@@++.                              ",
"                          ###@++OO.                             ",
"                         ###@@@@@o..                            ",
"                        #####+++OOO..                           ",
"                       %##%####OOO.......o.                     ",
"                      &%%#####OO+++O..........                  ",
"                    &&&%%###O##O@O.............                 ",
"                  =**&&%#####O#Oo.O.............                ",
"                =>==*&%%%%##O#OO#OOOO..O..OO....o               ",
"               >--==**&&%%#####OOOOOO.OO.O.......               ",
"             >>;---=*&&&%%###OO#OOOO.O.OO.........              ",
"            ,,;;---=*&&%%%#####OO#OOO..OOO........              ",
"          1<,,>;;===**&%%%#####O#OOO.OOOOO.O......  ...         ",
"         <<<,>;;>===&&&&%%#####OO.OOOOOOO.......     .o         ",
"        25,,,>;;>=*==&&%%###O#.##OOOOOOOO.O...       o          ",
"         12      ==**&&%%####OOOOOOO..O..O...                   ",
"                     &%%$$#@@@@@.OOOO.......                    ",
"                                 .O+.......                     ",
"                                    .....                       ",
"                                                                ",
"                                                                ",
"                                                                ",
"                                                                ",
"                                                                "
};
