/* XPM */
static char *out[] = {
/* columns rows colors chars-per-pixel */
"64 64 106 2 ",
"   c #37383D",
".  c #3E3F43",
"X  c #43454A",
"o  c #43454B",
"O  c #45464C",
"+  c #4E5158",
"@  c #505259",
"#  c #51535A",
"$  c #595A61",
"%  c #5F6168",
"&  c #62646B",
"*  c #62646D",
"=  c #65666E",
"-  c #67686D",
";  c #686A73",
":  c #73757D",
">  c #73757E",
",  c #75777D",
"<  c #767882",
"1  c #797B81",
"2  c #7B7D86",
"3  c #7D7F8B",
"4  c #7E8086",
"5  c #7E808C",
"6  c #7F828D",
"7  c #7F838D",
"8  c #838589",
"9  c #80838D",
"0  c #81848D",
"q  c #81848E",
"w  c #82848E",
"e  c #82858F",
"r  c #83858F",
"t  c #838590",
"y  c #848690",
"u  c #848691",
"i  c #858791",
"p  c #858892",
"a  c #868892",
"s  c #878992",
"d  c #878993",
"f  c #878A93",
"g  c #878A94",
"h  c #888991",
"j  c #888A94",
"k  c #888B94",
"l  c #898C94",
"z  c #898C95",
"x  c #8B8D94",
"c  c #8B8D95",
"v  c #8B8D96",
"b  c #8C8E96",
"n  c #8D8E96",
"m  c #8D8F98",
"M  c #8E9099",
"N  c #8F9199",
"B  c #909094",
"V  c #909299",
"C  c #929398",
"Z  c #90929A",
"A  c #91939A",
"S  c #91939B",
"D  c #92949B",
"F  c #93949B",
"G  c #93949D",
"H  c #93959D",
"J  c #94969D",
"K  c #95969D",
"L  c #95979E",
"P  c #96979E",
"I  c #96979F",
"U  c #96989D",
"Y  c #96989E",
"T  c #96999F",
"R  c #98999D",
"E  c #98999F",
"W  c #9A9B9E",
"Q  c #9899A0",
"!  c #989AA0",
"~  c #999AA1",
"^  c #999BA1",
"/  c #9A9BA2",
"(  c #9B9CA1",
")  c #9A9CA2",
"_  c #9B9DA3",
"`  c #9C9EA3",
"'  c #9D9EA3",
"]  c #9D9FA4",
"[  c #9E9FA4",
"{  c #9E9FA5",
"}  c #9FA1A3",
"|  c #9FA0A5",
" . c #9FA0A6",
".. c #9FA1A6",
"X. c #A0A1A6",
"o. c #A1A1A6",
"O. c #A1A2A7",
"+. c #A1A3A8",
"@. c #A2A3A8",
"#. c #A3A3A8",
"$. c #A3A4A8",
"%. c #A3A4A9",
"&. c #A3A5A9",
"*. c #A4A5A9",
"=. c #A5A5AA",
"-. c #A5A6AA",
/* pixels */
"4 4 4 4 4 4 4 4 4 4 4 4 4 4 4 4 4 4 4 4 4 4 4 4 4 4 4 4 4 4 4 4 4 4 4 4 4 4 4 4 4 4 4 4 4 4 4 4 4 4 4 4 4 4 4 4 4 4 4 4 4 4 4 4 ",
"4 -.-.-.-.-.-.-.-.-.-.-.=.=.X.N m m m m m m m m m m m m m m m m m m m m m m m m m m m m m m m m m m m m m m m m m m m m m m m m ",
"4 -.-.-.-.-.-.-.-.-.-.-.=.*.*.X.N m m m m m m m m m m m m m m m m m m m m m m m m m m m m m m m m m m m m m m m m m m m m m m m ",
"4 -.-.-.-.-.-.-.-.-.=.=.=.*.*.*...N m m m m m m m m m m m m m m m m m m m m m m m m m m m m m m m m m m m m m m m m m m m m m m ",
"4 -.-.-.-.-.-.-.-.=.=.*.*.*.*.*.&...N m m m m m m m m m m m m m m m m m m m m m m m m m m m m m m m m m m m m m m m m m m m m m ",
"4 -.-.-.-.C $ = U =.=.*.*.*.*.&.&.%. .N m m m m m m m m m m m m m m m m m m m m m m m m n n m m m m m m m m m m m ; . O : m m m ",
"4 -.-.-.-.& @ * h *.*.*.*.*.&.&.&.%.%.| M m m m m m m m m m m m m m m m m m m m m m m m m n n m m m m m m m m m m X   o % m m m ",
"4 -.-.-.-.< > B W *.*.*.*.&.&.&.%.%.#.#.{ M m m m m m m m m m m m m m m m m m m m m m m m n b n m m m m m m m m m # + - 1 m m m ",
"4 -.-.-.-.( R } $.*.*.*.&.&.&.%.%.#.@.@.@.[ M m m m m m m m m m m m m m m m m m m m m m m m n b b m m m m m m m m 2 , 8 x m m m ",
"4 -.-.-.-.=.*.*.*.*.*.&.&.&.%.%.#.@.@.@.@.+.[ M m m m m m m m m m m m m m m m m m m m m m m m n b b m m m m m m m m m m m m m m ",
"4 -.-.=.=.=.*.*.*.*.&.&.&.%.%.#.#.@.@.@.+.+.O.] M m m m m m m m m m m m m m n n m m m m m m m m b c b m m m m m m m m m m m m m ",
"4 -.-.=.=.*.*.*.*.&.&.&.%.%.#.@.@.@.@.+.+.O.O.O.' M m m m m m m m m m m m m n n n m m m m m m m m b z v m m m m m m m m m m m m ",
"4 &.=.*.*.*.*.*.&.&.&.%.%.#.#.@.@.@.+.+.O.O.O.o.X.` M m m m m m m m m m m n n n n n n m m m m m m m b l c m m m m m m m m m m m ",
"4 H %.*.*.*.*.&.&.&.%.%.#.@.@.@.@.+.+.O.O.O.o.X.X..._ M m m m m m m m m m n n n n b b n m m m m m m m v k z m m m m m m m m m m ",
"4 m H %.*.*.&.&.&.%.%.#.@.@.@.@.+.+.O.O.O.o.X.X......._ M m m m m m m m m n n n b b b b n m m m m m m m v g l m m m m m m m m m ",
"4 m m G #.&.&.&.%.%.#.#.@.@.@.+.+.O.O.O.o.X.X....... .| ) M m m m m m m m m n b b b b v c n m m m m m m m z f k m m m m m m m m ",
"4 m m m G @.&.%.%.#.#.@.@.@.+.+.O.O.O.o.X.X....... .| { [ / M m m m m m m m m n b b v c z z n m m m m m m m z d j m m m m m m m ",
"4 m m m m G @.%.#.@.@.@.@.+.+.O.O.O.o.X.X....... .| { [ [ ] / M m m m m m m m m b v c z z z l b m m m m m m m l a g m m m m m m ",
"4 m m m m m F +.#.@.@.@.+.+.O.O.O.o.X.X....... .| { [ [ ] ' ' ^ M m m m m m m m m b z z z l k k b m m m m m m m k p f m m m m m ",
"4 m m m m m m F O.@.@.+.+.O.O.O.o.X.X....... .| { [ [ ] ' ' ` _ ! M m m m m m m m m b z l k k j g b m m m m m m m k i d m m m m ",
"4 H m m m m m m F O.+.+.O.O.O.o.X.X....... .| { { [ ] ' ' ` _ _ _ ! M m m m m m m m m v k k j g g f b m m m m m m m j y s m m m ",
"4 @.G m m m m m m F o.O.O.O.o.X.X....... .| { [ [ ] ' ' ` _ _ _ ) ) Q M m m m m m m m m z j g g f d d b m m m m m m m g t a m m ",
"4 %.@.G m m m m m m F X.O.o.X.X....... .| { { [ ] ' ' ` _ _ _ ) ) / / T M m m m m m m m m z g f d d s a v m m m m m m m g r a m ",
"4 %.#.+.G m m m m m m D ..X.X....... .| { { [ ] ' ' ` _ _ _ ) ) ) / / ^ Y M m m m m m m m m l d d s a a p c m m m m m m m d w i ",
"4 #.#.@.+.F m m m m m m D  ....... .| { [ [ ] ' ' ` ` _ _ ) ) / / / ^ ^ ~ I M m m m m m m m m k s a a p i i z m m m m m m m d q ",
"4 #.@.@.@.O.F m m m m m m D | .. .| { { [ ] ' ' ` _ _ _ ) ) ) / / ^ ^ ~ ! Q P M m m m m m m m m j a p i i u u z m m m m m m m s ",
"4 [ @.@.+.+.o.F m m m m m m D [ | { { [ ] ' ' ` ` _ _ ) ) ) / / ^ ^ ~ ! Q Q E K M m m m m m m m m g i i u y y y z m m m m m m m ",
"4 M [ +.+.O.O.X.F m m m m m m D [ [ [ ] ' ' ` ` _ _ ) ) / / / ^ ^ ~ ! Q Q E T T J M m m m m m m m m g u y y t r r l m m m m m m ",
"4 m M ' O.O.O.o...D m m m m m m D ' ] ' ' ` ` _ _ ) ) ) / / ^ ^ ~ ! Q Q E T T Y I H M m m m m m m m m d y t r r e e l m m m m m ",
"4 m m M ' O.o.o.X. .D m m m m m m S ` ' ` ` _ _ ) ) ) / / ^ ^ ~ ! Q Q E T T Y I P L H m m m m m m m m m d r r e w w w k m m m m ",
"4 m m m M ` o.X.....{ D m m m m m m S _ ` _ _ ) ) ) / / ^ ^ ~ ! Q Q E T T Y I P L L K G m m m m m m m m m s e w w q q q k m m m ",
"4 m m m m M _ ...... .[ D m m m m m m A ) _ ) ) ) / / ^ ^ ~ ! ! Q E T T Y I P L L K J J F m m m m m m m m m a w q q q 0 0 k m m ",
"4 m m m m m M _ .. .| { ] D m m m m m m A / ) ) / / ^ ^ ~ ! Q Q E T T Y I P L L K J J H H D m m m m m m m m m p q q 0 9 9 9 j m ",
"4 m m m m m m M ) | { { [ ' D m m m m m m A / / / ^ ^ ~ ! ! Q E T T Y I I L L K J J H H G F D m m m m m m m m m i 0 9 9 7 6 7 j ",
"4 m m m m m m m M ) { [ ] ' ` S m m m m m m A ^ ^ ^ ~ ! ! Q E T T Y I P L L K J J H H H G F F A m m m m m m m m m i 9 7 7 6 6 6 ",
"4 m m m m m m m m M / [ ' ' ` _ S m m m m m m Z ! ~ ! ! Q E T T Y I P L L K J J H H H G F F D D A m m m m m m m m m u 7 6 6 6 5 ",
"4 m m m m m m m m m M / ' ` ` _ ) A m m m m m m Z Q ! Q E T T Y I I L L K J J H H H F F F D D D S V m m m m m m m m m y 6 6 5 5 ",
"4 m m m m m m m m m m M ^ ` _ _ ) / A m m m m m m V T E T T Y I I L L K J J H H H G F F D D D S A A N m m m m m m m m m y 5 5 5 ",
"4 m m m m m m m m m m m M ! _ ) ) ) / A m m m m m m V Y T Y I I L L K J J H H H G F F D D D S A A A Z N m m m m m m m m m t 5 5 ",
"4 m m m m m m m m m m m m M Q ) ) / / ~ Z m m m m m m N I I I P L K J J H H H G F F D D D S A A Z V V N N m m m m m m m m m r 3 ",
"4 m m m m m m m m m m m m m M E / / / ^ ! Z m m m m m m N L L L K J J H H H G F F D D D S A A Z Z V N N N M m m m m m m m m m r ",
"4 m m m m m m m n m m m m m m M T / ^ ~ ! Q V m m m m m m N K K J J H H H G F F D D D S A A Z Z V N N N N M M m m m m m m m m m ",
"4 m m m m m m n n n n m m m m m M Y ~ ! ! Q T V m m m m m m N J J H H H G F F D D D S A A Z Z V N N N N M M M M m m m m m m m m ",
"4 m m m m m n n n n n n m m m m m M I ! Q Q T Y N m m m m m m N H H H G F F D D D S A A Z Z V N N N N M M M M M m m m m m m m m ",
"4 m m m m m m n n n b b n m m m m m M P E T T Y P N m m m m m m M G G F F D D D S A A A Z V N N N N M M M M M m m m m m m m m m ",
"4 m m m m m m n n b b b b n m m m m m M L T Y I I L N m m m m m m M F F D D D S A A Z Z V N N N N M M M M M m m m m m m m m m m ",
"4 m m m m m m m n b b b v c b m m m m m m J I I P L J N m m m m m m M D D D S A A Z Z V N N N N M M M M M m m m m m m m m m m m ",
"4 m m m m m m m m n b v c z z b m m m m m m H P L K J H N m m m m m m M S S A A A Z V N N N N M M M M m m m m m m m m m m m m m ",
"4 m m m m m m m m m n c z z z l b m m m m m m H K J J H H N m m m m m m M A A Z Z V N N N N M M M M M m m m m m m m m m m m m m ",
"4 m m m m m m m m m m b z l l k k v m m m m m m G J H H H F M m m m m m m M Z Z V N N N N M M M M M m m m m m m m m m m m m m m ",
"4 m m m m m m m m m m m b l k k j g c m m m m m m F H H G F D M m m m m m m M N N N N N M M M M m m m m m m m m m m m m m m m m ",
"4 m m m m m m m m m m m m b k j g g f z m m m m m m D G F F D D M m m m m m m M N N N M M M M M m m m m m m m m m m m m m m m m ",
"4 m m m m m m m m m m m m m v g g f d d z m m m m m m D F D D D S M m m m m m m m N M M M M M m m m m m m m m m m m m m m m m m ",
"4 m m m m m m m m m m m m m m c f d d s a z m m m m m m S D D S S A M m m m m m m m M M M M m m m m m m m m m m m m m m m m m m ",
"4 m m m m m m m m m m m m m m m z d s a a p l m m m m m m A S S A A V M m m m m m m m M m m m m m m m m m m m m m m m m m m m m ",
"4 m m m m m m m m m m m m m m m m z a a p i i k m m m m m m Z A A Z V N m m m m m m m m m m m m m m m m m m m m m m m m m m m m ",
"4 m m m m m m m m m m m m m m m m m z p i i u y k m m m m m m N Z V N N N m m m m m m m m m m m m m m m m m m m m m m m m m m m ",
"4 m m m m ; . O : m m m m m m m m m m k i u y y t j m m m m m m N N N N N M m m m m m m m m m m m m m m m m m m m ; . O : m m m ",
"4 m m m m X   o % m m m m m m m m m m m k y y t r r g m m m m m m N N N M M M m m m m m m m m m m m m m m m m m m X   o % m m m ",
"4 m m m m # + - 1 m m m m m m m m m m m m k t r r e w g m m m m m m M M M M M M m m m m m m m m m m m m m m m m m # + - 1 m m m ",
"4 m m m m 2 , 8 x m m m m m m m m m m m m m j r e w w q f m m m m m m M M M M m m m m m m m m m m m m m m m m m m 2 , 8 x m m m ",
"4 m m m m m m m m m m m m m m m m m m m m m m g w w q q q d m m m m m m M M m m m m m m m m m m m m m m m m m m m m m m m m m m ",
"4 m m m m m m m m m m m m m m m m m m m m m m m g q q q 0 9 d m m m m m m m m m m m m m m m m m m m m m m m m m m m m m m m m m ",
"4 m m m m m m m m m m m m m m m m m m m m m m m m f q 0 9 9 7 s m m m m m m m m m m m m m m m m m m m m m m m m m m m m m m m m "
};
