/* XPM */
static char *out[] = {
/* columns rows colors chars-per-pixel */
"128 128 75 1 ",
"  c #060A06",
". c #0A0E09",
"X c #0E130D",
"o c #10170F",
"O c #0F1610",
"+ c #101610",
"@ c #141B14",
"# c #181F17",
"$ c #181F18",
"% c #172016",
"& c #182017",
"* c #1B241A",
"= c #1F291E",
"- c #20271F",
"; c #202A1F",
": c #222D21",
"> c #263225",
", c #283627",
"< c #283827",
"1 c #273428",
"2 c #293529",
"3 c #2D3B2C",
"4 c #303E2F",
"5 c #313E31",
"6 c #30412F",
"7 c #344433",
"8 c #384736",
"9 c #374835",
"0 c #384836",
"q c #374638",
"w c #394639",
"e c #374838",
"r c #3B4C3B",
"t c #3E513D",
"y c #404D3F",
"u c #41533F",
"i c #424E41",
"p c #435442",
"a c #485547",
"s c #465945",
"d c #485B47",
"f c #495649",
"g c #4B5D4A",
"h c #505E4F",
"j c #515F50",
"k c #4E624D",
"l c #50634F",
"z c #536453",
"x c #586457",
"c c #576956",
"v c #586A57",
"b c #576758",
"n c #596759",
"m c #5B6D5A",
"M c #5E715C",
"N c #60715F",
"B c #61785F",
"V c #616E61",
"C c #637462",
"Z c #687667",
"A c #667865",
"S c #687967",
"D c #6A7769",
"F c #6C7D6B",
"G c #707D6F",
"H c #727E71",
"J c #6F826D",
"K c #70816F",
"L c #748273",
"P c #788477",
"I c #7A8679",
"U c #7D8A7C",
"Y c #808C7F",
"T c #838E83",
"R c #879186",
/* pixels */
"vzlzlzlzzlu:@..*sglllzlzzlzlzzlzzzlzzlzlzzkzs>@. 9ae97999999999999997797999996%O.zcpspssupspsusssuussppspp0=O.BMllzzlzlzlzlzllhl",
"vzzlzllzlzu:o..*skllzzzllzlzhzzlzzzlhzzzlzzgs>@. 9se9979999699999999999979999<%X.xzaspssspspsssupsssusppsp0*XXMMlzzlllzllzllzzhz",
"vkkkkkkkgs5#*%%&7wrypsddgdggggggkkklkkkkllgs7#*+oep77777999677979666697779696<O%#mcptuuuuutuuuuuuuuuuuuuuu7*%XBvkkkllklhhlklkkgl",
"ckkdssprw>+@%%%%-:**:>233443444wertrtpptur7:++#oo=t97779696767776969797796666%X%@kgutuuuuuuuuuuuuuuuuuuuuy4#@.ukukkkgkhhglkkkkkk",
"7543>:*@Xo$$&***&&**&##++++++++o+@$*****#+Xo*#@#@%666677777777776666666<<>;=%X%O+7trtuuuuutuuuttuuuuuuuupy>++X:3<35777556wwyrrrr",
"@+++@##***$**;;;;***###%###@++##&&*&*#****&*#***%%;;=>><11<>>>:::<;==*%OX.XOO%%%+*3123779rrtttttttutuuuty5*@+$@:*%#+@+++++@$#ooo",
"#:=$###**=;::>1:>>;;**-**=**##;-*&*$##&&$***==:;=***@oOOXOXXXX.XXOXOOO@%%%%%%****&=*++@#*=;=:>>1<2333363:$X*:>1:>>>>>::::;:>>,-+",
"+3:==;=;::>>2>22>>>>1:>::::;*#2>::=;:=:;;::::111<:;**=*%****&X@-%%%%%%%%*%*=;=:::;=******%&@@oXoo++oo@oo+@:2235543222222,,2,22;@",
"$55>111>>2323333333322322221=*73222211112222233222<;:=**=**%@ +::*=*===;::::1>1121::;==**&&&$@+X12>>1:>222335w75w55557555555552$",
"*i55333446757757575747444743;*i75433335336345656333<211>>>:=*@-53><211221333354433321<11>:>:;=#*57532334455wwrrirrrwrwrwwwrww72$",
"2fi577777777777777777w777773:-ay9777777777777qq776667353333>:.#rw4446446676777777674343333232>&#iiw5wwwwwriyrpppiappiiuppipuir2$",
"5jaw0w00wwww0wwwwww7w00wwww7::farewww0w9eeqeeqeeewwwe7777773:X$ay777e7qeeeqqqeqqwqqq7977767742=#hjaiiiiiaiiaaaaaaffsfaaaffaaay2*",
"ijarrrrrrrrrrrrrrrrrwrrrrrw5::jhrrrrrrttrrrrrrrrrrrrrrrwrrw71##zftrrrrrtrrrrrrrrrrrrrrrrrrrrw2:#jxgfafddffgdggdgdggggdgggdgggy>*",
"fVfytutyyuyuruururuuutuupru7:=njptyttttyytuyttttuytrtytttup7>&#mhyttttytttttttttttttttttyyttr3=+jVxgkkgkzggkhhhlhgjjllhhhhhkhy:*",
"iVhppppupuppppuppppppppppur7:=nbpppuppyupupupupppppppppuppp9:*+mzypppuppppppupppppppppppuuupu3:+jZxzzzzllzzlzzllzlzzlzzzzllzli:*",
"iVjapssssspssssssaspspsspsp5*$mmdpssspssssssspsssssssssssspw:*oCmssspsspssspsssaspsspspsssssr3;ohDmxzzzczzzczzzzzzzzzzzzzzzzzy:*",
"wAcsdddsdsgsdsdgsdddgddsddp3:&mmksssddsssssssddsddsddsddddfw:*XCMddddddddsddddddddddddddddddu3=oiFCcccvvvvccvvvvccccvvccccvzce=@",
"7Ccddggggggggggggddkggggggp2=+xCkkkddkkskkkkskkdddkddkdkkdkr1#XCAkggdkddgdggdggddgddggggggggu2=X5LAvmMvvmvmvvvmvmmvvvvvMvmmvk7*#",
"2Mckkkkkkkkgkkkkgkkkkgkgkkp1=+gDzkkkkkkkkkkdkkkkkkkkkkkkkdkp2*XCAlkgkkkkkkkkkkkkkkkkgkkkkgkkp2=X:IFMMmMmMMmMMMmMMMMMMMvMMMMml3*@",
"*pgdgkkkkkkkkkkkkkkkkkkkkge**+dHvkkkkkkkkkkkkkkkkkkkkkklkkkp2*XxAlkkkkkkkkkkkkkkkkkkkkkkkkkkp>*X*IKMMMMMMMMMMMMMMMMMMMMMMMMMz2%@",
"&17wpsgkkkkkzgzgkkkklkkkka5$#OfLmkkkklkkkkkkkkkkkkkkkklkkkks3=XaAzkkkkkklkklkkkkklkkkkkkkklku1*X#LLMMMMMMMMMMMMMMMMMMMMMMMMMk1*@",
"**1::37wrtppiippsddggggdaw$:*+iJmkkkkkkkkkklklklkkkkkkkkkkkd7=X7ckkkkkkkkkkkkkkkkkklkkkkkkkku1%X+FLNMMMMMMMMMNMMMMMMMMMMMMMmp=*#",
"**&***$#*******-:1333533:#$2:#5GMklkkkkkkkkkklkkkkkkkkkkkkkd7:+*etpkkklkkkkkkkzkkkkkkkkkkkkg9=&XOmFMMMMMMMMMMMMMMMMMMMMMMMMz4##&",
"=**&##&*$&&*$$$$&#@@@@@@*3522=2FMkkkkkkkkkkkkkkkkkkkkkkkkkkd7:+X*37rpdkklkklkkkkklkkkkkkkkgt1+X.X3mcvMMMMMMMMMMMMMMMMMMMMmcy*&#*",
"==--$*##@@@$X*::::11222555555:1DMlkkkkklkkkkkklkkkkkkkkkklkg7:+X+&;;>47eyysdggggkkgddsssyt7;XX. X+wrpdzzmmmmmvbbcczxzjgdpt6*O*&*",
"::::--==:$*$+5555555555555w551:jvlkllkkkllklkkkkkkkllkkkkkkd7:#@&&&**&@$&->2357576732<:;&@.XXXXXXX+:::>357wr7544332:=*$@+OO$**&*",
">>>>::::::::*aiyywywwywyiyyww2*ivlgkkkkkkkkkkkkkklkkkkkkkkgp2=$****&&**$&&&$+OOOXXXXXXOoXXXXXooo+OXX+++++@+++@@@@@@#$$*$*&****-=",
"2222222>11::2hfiaiiiiiiiiaiiiw:3lgggkklklkklkkkkkkkkkllkggr2@=*-;>;;-***&%$@#@XOX.XXX.X..XXOo@@@#++++.O.o@===$$#&$###$$$***;::>:",
"23323323222:5jjfffffaafaffffii51rwrppppasssddsdssputttrr73=X*=::>211::::;;;&$@+OXOooOOOo++@@&&&%#&##@@++X+;:;**=======:=:::>>>12",
"53444335552:2xjjffjjhffhhjffffi51:--:::>>>22221>;;&&&@@@+o@=*=>2<232322212:*&*&@#@@@@%%%$&&%&&**&&&*#@$@+#>32:1:1:>1111212223233",
"55555555552::Vnjjjjfjjjjjjjjfffiwq3:&*&&&&$$$@@$&*****&*===;:12344444343322;;;;*&&**&*%******=*==******$#+2w72333323333333454353",
"55775755555::VVjjjjjjjjjjjjjjhhfaiwrwqqqq5322*&;>;=*===;;:>1233567757575672;:;1-*=*=*===================+#3yw64444765755q5575q57",
"8w889779773::ZVnzzzzzxzzzzzxzzjjgfffiaiiiiiiy>-1532>>2>22233777779077779q53:::2:::::::======:=::;:=;::;=$$2fyw77w7w777w77w9779w7",
"www8eww0rw4::FZmxnbbxbxnnnbbnnzzzjjjhjghhgfgi3>5rw4437677777977wwwwwwe9ewq3:::51;:::::>:<>:=::::;>>;:::=@$>gpwwe9eeeqqeeeeewwwee",
"rr0rwrrrrr7::GGmmmmmmmnmnmmmmnmmmbxxxzzbjjxjf32wfpwww7w0wwwwwrrrrrrrrrrwww31-:q2>>::<::>:<:<<:>:>>>>::<=@@:jfrrrrrrrrrrrrrrrrrrr",
"ttrttrtttr7;:HGVmmmmmmmmmmmmmmmmmmmmmmmmmmmmj52izfryrttrtrturtttrtrttttttr31$:w3><<:<<><:<<:<<<<>>>><<<;$O*xdryrtrtrtrttrttrrtrt",
"uuuuutttui5::HHZmVMmVmMMVVNNNNMmmCmmCmmmMVVmz5:pmhuuuuuuutttuuttptyuttytur32O:r4<><<<<<<<<<<<<<<<<<<<<<:@O+xluutyuyuuyuuutuuyuyu",
"pppupppupiw:-HHZCCCCCCCCCCNCCCNCCCCCCCCCCVCCz5@aCxppusuuppppppptppspppsppr32X;y76<<<<<<<<<<66<<<3<<<<<<:@OXzlsuuppupuspupppusupp",
"psssasssap5:*TIDCCCCACCACCCCCCCCCCCCACCCACCCzq.aFmssssusssssassssssssspssr33 *pw<<6<<<<<6<<6<<<<33<<<<6=@. hbdtsssssssssssssssss",
"sdsdsdsdssw:1UIDAAAAAAAAAAAAAAAAAAAAAAAAAAZCz5OhLMdddfkudssddssdsdsssddgsp23X-fr666666666<6666663666666:OXXdmgksddsssdssddsdssds",
"dsddgdddgdw:;IUFFAAFAAAAAASSSSSSSASASSSFAZSAzq+xPMddddddddkddddgdddkddksdu<4X;ly66666666666666666666666=o.orNlksksksssskddsddsdk",
"kkkdkgkkggw:=PTFFDFDFFFDFFFDFFDFFFFSFDFDFDSAz5OjKvkkkkkdkdkdkgkkkkddkdkkkp24X;zy66666666666669966666666=o..6Bzkkkskkkkkkkkkdkkkd",
"kkkkkkkkkdr:*ITKFFFFFFFFFFFFFFFFFFFFFFFFFFFAj5XfFvkkkkkkkkkkkkkkkkkkkkkkku<6X:bp76996696969666667696696=@.X=Jvkkkkkkkkkkkkkkkkkk",
"kkkkkkkkkk9=#LULJFFFFFFJJFFJFFFFFFFFJFFJFJFAa5OrJvkkkkkkkkkkkkkkkkkkkkkklu;<.;zy96969969696699969779696:@..@JMkkkkkkkkkkkkkkkkkk",
"kkkklkklkg7*OdKFFFFFFFFFFFJFFKFFFJFFFFJFFFFVi2X5Smkkllkkkkkkkkkkklkkkkkkk9*:.=ku96696996677996776969966:@.XXMMkkkkkkkkkkkkkkkkkk",
"kkkkkkkkkg5=o*mCDFFJFJKKFFFFFFFKJFJFFGFFFFFm5$.:Mcklklkkkkkkkkkkkkkkkkkkk6@*X=ls69969669779669679696696:@XXXzMlkkkkkkllkkkkkkkkk",
"kkkkkkkkks2=XX:fjnVASFDFFFFJFFFGFJFFFFFDDAmy$$+@ukkkllkkkkkkkkklkkkkkksu7*%oX:ks99999696976996779696996%@@oX9mlkkkkkkklkklkkkkkk",
"kkkkkkkkky;*XXX=114wifghzzzxbmmmVmMVmmzfir2$$$@@:66rtkddkskddfssssut073:@o%@o=t96669696996976977696966<o%@%@;vzkkkkkkkkkkkkkkkkk",
"klklllkkp3@&o@++&&&&##+$#@@$$**==-;;=$@$*$#****&&:;*:>333222>:::;=*&oX++**&&&*>>><6696779696775567663:@o*&*&&skkkkkklkklkkkkkkkl",
"dkdsstr91+#+#&&*&#@+O++@@@@+********$*$$&&*--=;;*-***#@++@@@@$$$*&*******==;;*;=@&*;;>::>::<:::====*#XX**=;*&2tpskkklkkkkkkkkkkk",
"1221=#@XX&#&*===*****&&&#+@+::-********==;:::11>>::;**$$#@+@:*$$***&**;;:>>>1:;==&XXX..X.O...X .XXo+#**;;:>:;=2237rtssssuttrwq77",
"@+@++#%%#&*==::::>::;=;;=*#*531::>:>:1:1112233233>>>:::::=*=32::::::>>1223322>1:===******%=%$+@:***=**::122>1;;;&&&*;;****$OOOOO",
"2;&&&&&**=;>>1<<2>11<111::$=rw4323333333376777776644422321*17732223333444467443221:>>;;;;;=*@X:21:>:>1>33443221:==***&******&&&$",
"52;;=;=>:11<2<<63233222<3:**fa777777777777777777w777575752:2iw77777777777w77777763322222<<2:&X2r7>333467777776321<>;;;;;;;:;;&$O",
"w521><1<23233366343333365:**jhrewwwewwwrrwrwwrr00wwww0rww5:3apwrw9wwwwrwrwrw00w7977777767761*Xegr7777990wwww997734332<22<3332*&O",
"ar434333466667667667766752*:mjttrtrttyrrrtrtrtttrtrrtryry5:5gfrrtttrrrrtrtrrtyrrrrrrr0rwr992=Xfxpwrrrrrttrtrrrrwe777777777773;&@",
"hi77777696976696777796967<*:Vzyypttpuutpttpttpttuuuutuutt7:4fzaputttututuuttutuututttuttttr3:Xnmfuuutuuuuuuuuyttttrtrrrrrrtr6;&@",
"jaww999999999999799999999<*>Abpppppppppppppppuppppppppppp7:2izdappspppppppsupppppppsppsppar2=+VVdpppppppsuupppppppuuuupupuuy7;@$",
"xgrwr0r0r99r9tt9r0rrt99t93*1Dmssssssssssssssssssssssdssssw>2imksssdsssdsfsssssssdssssssssst2=OACgsssssasdsssssssssdsdddsssss7;+$",
"mztrrrtttrtrt9tttrtr9tttr3*2FMgdddddddsdddgdddddddddddddsw:17Mcddddddddddksdddddddddddddddy:*+HAkddddddddddddddddddddddddddsw=O$",
"mnurttttrtttttttttttttttr3*3LCggkdkggggkkgdgdkdkggdgggddf0=:7Cmkkdkdggddgddkgdgdggddgdggggt=*+PSkddgddkdddkdkdkdkdkdkdgdddgs7=+$",
"Vmputtuuttttttuutttuttttr3*2LCkkkkkkkkkkkkkkgkkkkkkkkkkkkw=*2DNkkgkkkkkkkkkkkkkkkkkkkkkkkgw=+#IDkkkkkkkkkkkgkgkkkdkkkkkkkkkd4=+#",
"Dmpuuuuutkttsuuutuuutusut3=2IAkkkkkkkkkkkkkkkkkkkkkkkkkkk7=#:FCkkkkkkkkkkkkkkkkkkkkkkkkkkgr=o=USkkkkkkkkkkkkkklkkkkkkkkkkkks2=@*",
"Cmuuuuuutttttuuutuuuuutut2*>PAkkkkkkkkkkkkkkkkkkkkkkkkkkd7;#:FDzkkkkkkkkkkkkkkkkkkkkkkkkkk0=X:USkkkkkkkkkkkkkkkkkkkkkkkkkkka1=@&",
"NMuuuuuuuusuuuuuusuuutuu01*=PAkkkklkkkkkklkkkkkkkklkkkkkd7:+;LAlkkkkkkllkkkkkkkkkkkklklkkke=X2YAkkkklkkkkkkkkkkkkkkkkklkkkkp:*@%",
"mMuuuuuuuuuuuuuuuuuuusuu0=&&KAlkkkkkkklkkkkkkklkkkkkkklkd3:+*GAlkkkkkllllklkkkklkkkkkkkkkk9=X7UCkkkkkkklkklkklklkllkkkkkklkt=%%O",
"zmuuuuuusuuuuuuuuuuuuutu9*@@ACkkkkkkkllkkklkkllklkkklkkka3=O#ACkkkkkkllkkkkkklklklkkkkkkkg7=XwPCzkklkkkkkllkklkkkkkkklklklkt=%OO",
"flkuuuuuuuuuuuuuuuuuuupt3&@XzMkklkkkkkkkkkkkkkkkkklkkkkku1*XXzmlkkkkkkkkkkkkkkkkkkkkkklkka3*X7LCgkkkkklkkkkkkkkkklkkkkkkkkkt*OOX",
"7suuuuuuuuuupuuuuuuutte3&X@X7zkkkkkklkkkkkkkkkkkkkkkkklgw**XXwjhkkkkkkkkklkklklkkkkkkkkkkr:*X2JMkkkklkklkkkkkkkkkklkkkkkkkgw*OXO",
"*r6447766666557797662:*OX&+O=pfkkkllllkkklkkkllklkklkkks3##+@:irtsggkkkkkkkkkklkkkklkkkkp3+@X=SMkklkkkkkkllkklkkkkkkkkkkkld4*OXO",
"+;*o++#oooo@+@@@##@oXO+&&#&&@377udkkkkkkkllklkjjkkkkkkg5$::21*:::137wttsddddskksggkgddt71O#++$zzkkkkkkkkkklkkllkkkkkkklkklu:$XXO",
"+oooXXXXoo%*$**$%%*%*&&&*****=:-17rtyspsdsdddggfkdddfiw:@35755::**#@#*::1<11<<<644743>&XX*##@@7ruddkkklkkkkkkkkklkkkkkkkkkq$@OOO",
"++XXXXXX..$:**$$%****===::::-=*$=%&*=:::11123352<221:*+@35wiyww52:*$$**$$@$$@$@@#+oX+#***$*=**=22237rpdgkkkkkkkkkkkkkkkkkt1+++++",
"##@#@@+++X$2::=:;=::;:::12:2:::=%==%&&$&$@@@@@@@@@@$$*:5qyiiiaiiywwq7531%$$&%&&&&&**&***=::::====&@@&;37wryuppssddkkkkkse>X#O+#+",
"&&&&&&&&@O*53222>2<>22323233221::=====**$+$12252333555wwiiaffaafaiiiiiyw4:$>:;==*;===;:::>22>1::;*&***&@@&**=::1<366666;@.OO++@#",
"*==*****$$*r55333334344555354332<<>:::;:-$1fiiwirrywiiiffffghhhfffffaafir3$53>>1>111111223343222<:;;=***&&&@OXXXXX.   .XOOO@&#&&",
"========*+-iw7675777777577775774434233211-5jffaaaaaaffhfgjjjjzjljjhhhhhfi5@wq23333353437757575433221<:>==@.$@OXXXXOOXXXXo%%%****",
":::=;::;=@*fp7797779777w7777777777776676215Zmjfjhhhjjjjjzzzzzzzzxxxzzzjja5Oarq7q77777777777w777774463332:&X:$$@#@@@@@%%%%%%=====",
">:=>:;::*+*ha7ewew9wwwwwee7e0weeeqqeeee732wDVbxzzzzxbznnxzxxnbxxxbbbxbnja5Xhaeww0w99ww9ww7ww99wwq7w777773=O3:=****%***====;;;;>;",
">>>>>>>>-+*zdrwrrrrrrwrrrrrrrrrrrrrrerrr52yHDnnmnmmnmmnmmmbnmmmmmmmbmmmbf5Xzdrrwrwrrrrrrrrrrrrtwerrrwrw94;O52::;::;;;;=;:;;>>:>>",
"<>><><,:;o-bhyyrttttttttrtttttrttttttttt71iHGmmmmmmmmmmmVmmmmmmmmmMmmmmmf5+njitrttttrrtrtrtrurrttrtrurtr5-#w7>>>>>>>>>>>>>>><><,",
"<<<<<<>,*o*mhuuuttttutuyuyuytttutyytuttt725IGVVVMMCCVVMmVNVCNMCVVmVMVMmmf5XVjitutpttptppuuuuuuutpuuuuuuu7:*i7<<<<<<<<<<<<<<<<><>",
"<<<<<3<<%o&Czppptsstuppupupptsstppppsust72qIHCVCCCNCCCCCCNNCNCCNCNCVCCCma5XVzppppppuppppsuuupppppppppppu7;;pw<<<<<<<<<<<<3<<<3<3",
"6<6<6<3>@o&Svsspssssssssssssssssssssusssw2wULZCCCCCACCCCCCCACACAACCACCAma3XVxsspsasssspsssssspssspspspsu5:;pr433<<66<6<6<<633<33",
"64666<<:+o#Fmdddsssssssdsdddsdsdsddsdsssw2wTIDAAAAAAAAAAAAAAAAAAAAAAAAAma3Xncdddkssssdddsdssddsdsdddsdsu7:#ar6666666666666666666",
"6666666;oo*GCdddssksddkdddddskssdddddkskw2wTUFSAAASSSSDASASASSAASSAASSSVi2Xjmkddsskddgddssksdddggdddddks7-o776666666666666666666",
"696666<%o.-GBgkkkkskkkkkkdkdkkdkkdkdkkssr2wTYFDFFSFSFFDFDDFFFSFFFFSFFDDCi3XpClkdkkkdddkkdkkdkkkgkdkkdkkf7;X*>3666676666666666766",
"969696>Xo.-LAkkkkkkkkkkkkkkkkkkkkkkkkkkky:wRYJFFFFFFFFFFFJFFFFFFFFFFFJFVr1X7Avkkkkkkkkkkkkkkkkkkkkkkkkkg7;XX&=>36776669666967766",
"777752$ .X;PZlkkkkkkkkkkkkkkkkkkkkkkkkkdr:5YUKFFFJFFJFJFFFFJFFJFFFFFFFJV7:X3AMkkkkkkkkklkkklkklkkkkkkkkd5:OXX@+*;136677796677676",
"1>>2:@ +oo;HAkkkkkkkkkkkkklkkklkkkkllkkkw::HIGJFFFFFFFFFFFFFJFFFFJFJFFSz:;X@Mvkkkkkkkkkkkkkkkkkkkkkkkkkp2*++++XoXo#*;:>><6636666",
"X.X.. $:=#-FClkkkkkkkkklkllkklkkklkkkkkk7:$nLFFFJFFGJFFFJFFFFFFFJFFFGFb3+O.Opkgkkkkkkkkkkkkkkkkkkkkkkkd6@$@$**++o+X....oo@%%%%oo",
">;:::>::::=VClkkkkkkkkkkkkkkkkkkkkkkkkld5*@5mmmAADDFFFFJFFFJFFFDSFFAmg2X@OOO2ypgkkkkkkkklkklkkkkkkkkst4&$$$:;;;=**##+XoooXXXXooo",
"7222>22321*lMlkkkkkkkkkkkkkkkkkkkkkklkkp1*X@2335iagjnmmVmmmmnzzjglfw2&X@+@+@+17rusgkgkkkkkgkgggspyr51*X+$*::::::;=**-&&&@%#%%%%o",
"yw55555532=0vkkkkkkkkklkkllkkkkkkklkkkkr**##&==*$*$*:2223>::$#$$$+XXO+#@#**###:;:>3337777774322:-$+X+**=:::>222>1>>:;;;;-----;*@",
"aw5wwwww551:skkkkkkllklkkkkkkkkkkkkkkgy1+*$===**$###******$**#@$*$@####&**=**&#&*oooXXXX.XXXOX@$#**$**==:>>233322222>,>>,:>>>:-@",
"aaiiwywww73>679ukkkkkkkkklkkkkkkkkddu7;X**:::1:::;-=--*-**$:=*#--*$&***=::::=*&&%@@@+@+o+++@+#++@::=;::1>253354443433344<33<<>;@",
"afiiiiiyrwq522-:25qqryyptyipttrw73>:$X+==:>22322222111:>1:>:1:$:>:::;::>1>1>>::;==****&*&*****&#*33222233454557745557544445542:@",
"ijfiiipiytww5322-@O@$***=&**$@OOoo@$*=;;>234377433333332333332:>52>>>>>>>>>>>>>>:;::;;;;;;;:;;=**55535557777777777777777777773:+",
"ijjappaappirwq53332211111>:*$*-:=**;;:1>4667797777777777777774;3w5>>233<333332<<<>><1>1>>>>>1>>;-rr7777777w7w7777w77977077w773:@",
"fVjffaaaaaapiirw55q55553353>@O53>1>>2234777wwww0w0wr0w777070w6:5i54333334334333<33333<3333<<333;:wirwwwwww00w0ww00wwww0w0w00w7:+",
"jVzdggdgddffsppyiirrrrrwrww5*$yw436667997wwrrrrrrrwrrrrrrrwry5>5a755664444646666744666434444643>:5dirrrwr0rrrr0rwrrrrrrwrrrrw7:#",
"aZzgggggghgggggdffaapaaiiiaq**ja99w000r0rrrrttrrtrtrrrtrrrtryw:5aw656666446666666667666766667661:3jarrrtyrrtrrturtrrtrurtrrrr7>&",
"iDmhlgjhkhhkhkllhghgggdgdfgy:-xfyrrtutuuuuyutuuuututtutuuuuuyw>5hr77779677779669777767967777777>-5zguuuuuuuuuuuuuuttuuurttuyu7:#",
"iGmzzzlzzllzllllllllkllllzli>1Vzpupupuuuupuuuuuuuuupuupuupuuu0>7ju787797987796999777997799787773*-vhuupuuuuuuuuupupuuuupuuuuuw:#",
"aHVxclczlclzllclllzlllzlzzzs>>Zbususususssussusspssuuduusussur>wzp000000999999999090000099r99r9>-*zzsusssussuduussusssusssusu9>*",
"fHCxvzclzvzzccczccccccccbbbs>>Fndskusdssssssssssfsdsdudddssssr>8ba0rt0t0t99t9tt90rr0r0rr9rr99r0<=@gxdsssssssduddsssssssssssss7:*",
"aPZnvvvzccmvvvvvvvccvvvcbvvs>>Gmkudkdddssddddddddsddsdddddddfr:ybfr0rrt09tt9t9t9rrrrrrt0t99ttr9<:+imksddddsdukddsdddsdddfsdss9;&",
"wPAmvvmvvmvmvvvvmvvmvmvvvvvd:>HCkukukdksdddkdddddkddkdddddkdfy:7mfttttttttttttttttttttttttttttt<=+wClkdskddddkddddkddddddkdkg7=#",
"wUDmMmvMmmmmMvvMmmmmvMvMvMvd>:HCkkkdkdkdkdkkkgkdkkdkdkdkkkdkdt>7Mkttttttuttttttuttttttttutttttt3*+5Abgkkkdkdkgkdkdkkgkdkkggkde:@",
"5PFmMMMmMMMMMMMvMMMMMMMvMMvp-:LCkkkkkkkkkkkkkkkkkkkkkkkkkkkkkr:8Bkuuttuuuuuuuuuuuututtutuuuutut2*O2Dmkkkkkkkkkkkkkkkkkkkkkkkg9:+",
"2CDMMMMMMMMMMMMMMMMMMMNNNMbw&=LClkkkkkkkkkkkkkkzkkkkkkkkkkkkku;6vguuuuuusuuuuuuuuuusuuuuuuuuuuw1*+:DNlkkkkkkkkkkkkkkkkkkkkkkg7=@",
":izmMMMMMMMMMMMMMMMMMNMNMMh1&&ACkkkkkkkkkkkkkkkkkkkkkkkkkkkkkt;<trtuuuuuuuuuuuuuuuuuuuuuuuuuut6*$+$CMlkkkklkkkkkkkkkkkkkkkkks3=@",
";1wplvvmmmmMNVMVMMMmmmmbzl7@$#zmlkkkkkkkkkkkkkkklkkklkkkkkkkkr=%:>39ttttuuptuuuuyuuuuuuuuuuut9=X@o#gvkkkkkkkklkkkkkkkkklkkkkt:=@",
"2::>>67w8ryyyuiitturrrw75:O&++7kllkkkkkkkkkkklkkkkkkkkkkkkkkk7%oX**=;<36699errtttrtrtttrttre3=X+o++2ggkkkkkkkkkkkkkkkkkkkkdy>+=#",
";-;;-#++o+ooooXoXOOOOO@@$$***&=pufdlkkkkkkkkkkkkkkkllkkkkkkkt:oX.Xo&%oo@%&*==:;;::=:;:>:>;*&oX@%&&&*ruskklkkkkkkkkkkkkggsy6-X**$",
">1>:;;=****#@o*--**%*&**;;;::==22>69ttsskkkkkkkkkklllkkkkkst>Xooo@ooooooooooOoo@@OOOOOXXXOO@@&&*=**=:337tyuppppppuu0w7541&o@*-:*",
"3342>>>>>::=#+-31:>:>>>>>12221>:;-+o#*;<47wttpppsssusutr962*X@o%%%%%%@@@@oooOoXXO:&$%%%%#%&%*==;::===>=&$***;=;==*#+ooo+#*-;::11",
"777464433321-@>y7324223335676332>;;-**-%@++#**==::::=*&+..Xoo%%%*=*=**%%&&&%&#+X$3>=*==%=*==::11111>:::==***&*******=*;;;;:>2333",
"00rw0ww07873-#2fr77ee77qw9we997744<>>:::;;==****%@@OXXXXooo#%%*=;::::=:======*&o*e6><<><1121<2323332<1>;>;*##22>::>1:1>>>3365777",
"utyrrtrrrrr7:$3jarrrrtrtrtrtrrr0996664<<<>><1:=+X*%@@%@%&%&*==::><<>>>>>>>:>>>*+*ae36<6633363667766632<2>1;&*ww33333446777w0wwrr",
"uuttuuuuuuu9>%3Vkuuuuuuuuutuututuru999997776762+X2:******===:<><<<<<<<<:<<<21>=#=ku69669969999697797766333<=*afr99999r9rrrtttttt",
"ppssssppudgr>-2Vlssuudusspsspsppuuuuuuuurtrrrw5*X73>>>>1<:<<6<<<<<6<6<663<<33<;@=lde9e999999999900999999993::gcfuuuuuuuuuppppsss",
"fdsssddsuuuy>-;Bvdddddddsdsssssddsdduudusuppuu7*Xiw2<<<<<<6666<66<<666666<6<6<:%%lk9t9e99t999t9tr0trr9rr009>:zCgsusuukddsddsssss",
"ddddddddkkuu>--Bvkddddddddddddddddddkdkdddddds7&.pr46366666666666666<666666666:#oJkttttttttt9tt9trt0trtrt09>1xZzkkdddddddddddddd",
"dkkukkddukku>;%BNgggddkdkukdkskddkdddkkukddkdd0*.ss666666666666666666666666666>#%Jd9tttt9ttttttttttttttrtt9>>kJvkkukddkdukkkkkdd",
"kkkkkdkkgkku>-oNBkkkkkkdkkkkkkkkdkkkkkkkkkdkkd7* sd967966696696667776996696766:@%kJ6ttttuutttttttttuttttuu0<>uJvkdkkkkkdkskkkdkk",
"kdskskkkkggu;>%BBkdkdkdkkdkkkkdkkkkdkdkdkkkkks6=.gt966666666666666666666666666;@%Jkut9tttt9ttt9tt99tt9ttt99>>uJvdkkkkddkkkukskkk",
"dkkkkkkdkgku>>%BBkkdkdkdkkkukdkkdkdkdkkkskdkkd7=Xdt969669666969677676696696767=@%Jcttt9ttttttttttttttttttu9>,kJckdkddkkdkkkkkkkd"
};
