/* XPM */
static char *out[] = {
/* columns rows colors chars-per-pixel */
"128 64 152 2 ",
"   c #0F0B05",
".  c #150E08",
"X  c #150F08",
"o  c #18110B",
"O  c #1B130B",
"+  c #18130C",
"@  c #1B140D",
"#  c #1B140E",
"$  c #1E160D",
"%  c #1E1710",
"&  c #1F1710",
"*  c #20160F",
"=  c #21170F",
"-  c #21180E",
";  c #21180F",
":  c #211810",
">  c #201911",
",  c #221910",
"<  c #221912",
"1  c #261D13",
"2  c #261C14",
"3  c #261E15",
"4  c #271E15",
"5  c #292117",
"6  c #2B2118",
"7  c #2A2218",
"8  c #2C2118",
"9  c #2D2218",
"0  c #2C2419",
"q  c #2F241B",
"w  c #2F271B",
"e  c #2F251C",
"r  c #2F261E",
"t  c #312519",
"y  c #31251C",
"u  c #32271D",
"i  c #33271D",
"p  c #31291F",
"a  c #35281D",
"s  c #382A1F",
"d  c #322A20",
"f  c #352A21",
"g  c #362A20",
"h  c #372B21",
"j  c #362D22",
"k  c #3A2E21",
"l  c #3B2E21",
"z  c #392D23",
"x  c #392E22",
"c  c #3A2F23",
"v  c #3C2E22",
"b  c #392D24",
"n  c #3B2F25",
"m  c #3F3123",
"M  c #3D3024",
"N  c #3F3124",
"B  c #403124",
"V  c #403224",
"C  c #403326",
"Z  c #433427",
"A  c #453425",
"S  c #463425",
"D  c #433528",
"F  c #41352A",
"G  c #42362B",
"H  c #453528",
"J  c #453628",
"K  c #463628",
"L  c #483728",
"P  c #493728",
"I  c #473829",
"U  c #47382A",
"Y  c #47382B",
"T  c #45382E",
"R  c #48392B",
"E  c #4C3928",
"W  c #4C3A2B",
"Q  c #493A2E",
"!  c #4A3A2E",
"~  c #503C2B",
"^  c #523D2B",
"/  c #503C2C",
"(  c #513D2C",
")  c #513E2F",
"_  c #493B30",
"`  c #4A3D31",
"'  c #4D3D31",
"]  c #4E3D30",
"[  c #4D3D32",
"{  c #4D3E32",
"}  c #4D3F33",
"|  c #56412E",
" . c #4E4034",
".. c #4F4135",
"X. c #504032",
"o. c #504033",
"O. c #534132",
"+. c #534332",
"@. c #554132",
"#. c #554333",
"$. c #574433",
"%. c #504134",
"&. c #514234",
"*. c #514235",
"=. c #524335",
"-. c #504336",
";. c #574535",
":. c #554635",
">. c #564736",
",. c #584434",
"<. c #584534",
"1. c #584535",
"2. c #584635",
"3. c #5C4735",
"4. c #5D4835",
"5. c #5E4937",
"6. c #5F4A37",
"7. c #544739",
"8. c #59493B",
"9. c #604A37",
"0. c #644C38",
"q. c #64503D",
"w. c #69523E",
"e. c #6A523F",
"r. c #70553F",
"t. c #6A5340",
"y. c #695342",
"u. c #6A5440",
"i. c #6C5541",
"p. c #6E5743",
"a. c #6D5844",
"s. c #6C5949",
"d. c #6D5D4F",
"f. c #715640",
"g. c #725740",
"h. c #745843",
"j. c #795D45",
"k. c #76604D",
"l. c #736151",
"z. c #7B6653",
"x. c #786657",
"c. c #786758",
"v. c #7E6B5B",
"b. c #7D6F61",
"n. c #807060",
"m. c #827061",
"M. c #837161",
"N. c #807261",
"B. c #837162",
"V. c #897666",
"C. c #887769",
"Z. c #8E7C6B",
/* pixels */
"2 } [ ` ` ` ` ` ` ` ` ` ` ` ` ` ` ` ` ` ` ` ` ` ` ` ` ` ` ` ` ` ` ` ` ` ` ` ` ` ` ` ` ` ` ` ` ` ` ` ` ` ` ` ` ` ` ` ` ` ` Q V . 1 &.o.X.X.X.X.X.X.X.X.X.X.X.X.X.X.X.X.X.X.X.X.X.X.X.X.X.X.X.X.X.X.X.X.X.X.X.X.X.X.X.X.X.X.X.X.X.X.X.X.X.X.X.X.X.X.X.X.X.X.] S - ",
"h / p.p.p.p.p.p.p.p.p.p.p.p.p.p.p.p.p.p.p.p.p.p.p.p.p.p.p.p.p.p.p.p.p.p.p.p.p.p.p.p.p.p.p.p.p.p.p.p.p.p.p.p.p.p.p.p.p.p.t.2.Z X r ( j.j.j.j.j.j.j.j.j.j.j.j.j.j.j.j.j.j.j.j.j.j.j.j.j.j.j.j.j.j.j.j.j.j.j.j.j.j.j.j.j.j.j.j.j.j.j.j.j.j.j.j.j.j.j.j.j.j.h.0.L > ",
"' ~ / p.p.p.p.p.p.p.p.p.p.p.p.p.p.p.p.p.p.p.p.p.p.p.p.p.p.p.p.p.p.p.p.p.p.p.p.p.p.p.p.p.p.p.p.p.p.p.p.p.p.p.p.p.p.p.p.t.2.Z J % F B ( j.j.j.j.j.j.j.j.j.j.j.j.j.j.j.j.j.j.j.j.j.j.j.j.j.j.j.j.j.j.j.j.j.j.j.j.j.j.j.j.j.j.j.j.j.j.j.j.j.j.j.j.j.j.j.j.h.0.L J 0 ",
"&.r.~ / p.p.p.p.p.p.p.p.p.p.p.p.p.p.p.p.p.p.p.p.p.p.p.p.p.p.p.p.p.p.p.p.p.p.p.p.p.p.p.p.p.p.p.p.p.p.p.p.p.p.p.p.p.p.t.2.Z J q.> T $.B ( j.j.j.j.j.j.j.j.j.j.j.j.j.j.j.j.j.j.j.j.j.j.j.j.j.j.j.j.j.j.j.j.j.j.j.j.j.j.j.j.j.j.j.j.j.j.j.j.j.j.j.j.j.j.h.0.L J q.w ",
"&.j.r.~ / p.p.p.p.p.p.p.p.p.p.p.p.p.p.p.p.p.p.p.p.p.p.p.p.p.p.p.p.p.p.p.p.p.p.p.p.p.p.p.p.p.p.p.p.p.p.p.p.p.p.p.p.t.2.Z J q.a.> T 6.$.B ( j.j.j.j.j.j.j.j.j.j.j.j.j.j.j.j.j.j.j.j.j.j.j.j.j.j.j.j.j.j.j.j.j.j.j.j.j.j.j.j.j.j.j.j.j.j.j.j.j.j.j.j.h.0.L J q.a.w ",
"&.j.j.r.~ / p.p.p.p.p.p.p.p.p.p.p.p.p.p.p.p.p.p.p.p.p.p.p.p.p.p.p.p.p.p.p.p.p.p.p.p.p.p.p.p.p.p.p.p.p.p.p.p.p.p.t.2.Z J q.a.a.> T 6.6.$.B ( j.j.j.j.j.j.j.j.j.j.j.j.j.j.j.j.j.j.j.j.j.j.j.j.j.j.j.j.j.j.j.j.j.j.j.j.j.j.j.j.j.j.j.j.j.j.j.j.j.j.h.0.L J q.a.a.w ",
"&.j.j.j.r.~ / p.p.p.p.p.p.p.p.p.p.p.p.p.p.p.p.p.p.p.p.p.p.p.p.p.p.p.p.p.p.p.p.p.p.p.p.p.p.p.p.p.p.p.p.p.p.p.p.t.2.Z J q.a.a.a.> T 6.6.6.$.B ( j.j.j.j.j.j.j.j.j.j.j.j.j.j.j.j.j.j.j.j.j.j.j.j.j.j.j.j.j.j.j.j.j.j.j.j.j.j.j.j.j.j.j.j.j.j.j.j.h.0.L J q.a.a.a.w ",
"&.j.j.j.j.r.^ I ;.#.#.#.#.#.#.#.#.#.#.#.#.#.#.#.#.#.#.#.#.#.#.#.#.#.#.#.#.#.#.#.#.#.#.#.#.#.#.#.#.#.#.#.#.#.#.O.Z J q.a.a.a.a.> T 6.6.6.6.$.B P 9.4.4.4.4.4.4.4.4.4.4.4.4.4.4.4.4.4.4.4.4.4.4.4.4.4.4.4.4.4.4.4.4.4.4.4.4.4.4.4.4.4.4.4.4.4.4.3.L J q.a.a.a.a.w ",
"&.j.j.j.j.j.f.P * 9 9 9 9 9 9 & o z t t t t t t t : o j 9 9 9 9 9 9 9 & o p 4 4 4 4 4 4 4 # o z t t t t t t t ; >.q.a.a.a.a.a.> T 6.6.6.6.6.,.x @ 4 4 4 4 4 4 4 4 4 4 4 4 4 4 4 4 4 4 4 4 4 4 4 4 4 4 4 4 4 4 4 4 4 4 4 4 4 4 4 4 4 4 4 4 4 4 O >.q.a.a.a.a.a.w ",
"&.j.j.j.j.j.j.<.K p.p.p.p.p.p.Y u Z.j.j.j.j.j.j.j.W u C.p.p.p.p.p.p.p.Y u b.6.6.6.6.6.6.6.M u Z.j.j.j.j.j.j.j.E n.a.a.a.a.a.a.> T 6.6.6.6.6.6.U v 6.6.6.6.6.6.6.6.6.6.6.6.6.6.6.6.6.6.6.6.6.6.6.6.6.6.6.6.6.6.6.6.6.6.6.6.6.6.6.6.6.6.6.6.6.6.v n.a.a.a.a.a.a.w ",
"&.j.j.j.j.j.j.<.K p.p.p.p.p.p.Y u Z.j.j.j.j.j.j.j.W u C.p.p.p.p.p.p.p.Y u b.6.6.6.6.6.6.6.M u Z.j.j.j.j.j.j.j.E N.a.a.a.a.a.a.> T 6.6.6.6.6.6.U v 6.6.6.6.6.6.6.6.6.6.6.6.6.6.6.6.6.6.6.6.6.6.6.6.6.6.6.6.6.6.6.6.6.6.6.6.6.6.6.6.6.6.6.6.6.6.v N.a.a.a.a.a.a.w ",
"&.j.j.j.j.j.j.<.K p.p.p.p.p.p.Y u Z.j.j.j.j.j.j.j.W u C.p.p.p.p.p.p.p.Y u b.6.6.6.6.6.6.6.M u Z.j.j.j.j.j.j.j.E N.a.a.a.a.a.a.> T 6.6.6.6.6.6.U v 6.6.6.6.6.6.6.6.6.6.6.6.6.6.6.6.6.6.6.6.6.6.6.6.6.6.6.6.6.6.6.6.6.6.6.6.6.6.6.6.6.6.6.6.6.6.v N.a.a.a.a.a.a.w ",
"&.j.j.j.j.j.j.<.K p.p.p.p.p.p.Y u Z.j.j.j.j.j.j.j.W u C.p.p.p.p.p.p.p.Y u b.6.6.6.6.6.6.6.M u Z.j.j.j.j.j.j.j.E N.a.a.a.a.a.a.> T 6.6.6.6.6.6.U v 6.6.6.6.6.6.6.6.6.6.6.6.6.6.6.6.6.6.6.6.6.6.6.6.6.6.6.6.6.6.6.6.6.6.6.6.6.6.6.6.6.6.6.6.6.6.v N.a.a.a.a.a.a.w ",
"&.j.j.j.j.j.j.<.K p.p.p.p.p.p.Y u Z.j.j.j.j.j.j.j.W u C.p.p.p.p.p.p.p.Y u b.6.6.6.6.6.6.6.M u Z.j.j.j.j.j.j.j.E N.a.a.a.a.a.a.> T 6.6.6.6.6.6.U v 6.6.6.6.6.6.6.6.6.6.6.6.6.6.6.6.6.6.6.6.6.6.6.6.6.6.6.6.6.6.6.6.6.6.6.6.6.6.6.6.6.6.6.6.6.6.v N.a.a.a.a.a.a.w ",
"&.j.j.j.j.j.j.<.K p.p.p.p.p.p.Y u Z.j.j.j.j.j.j.j.W u C.p.p.p.p.p.p.p.Y u b.6.6.6.6.6.6.6.M u Z.j.j.j.j.j.j.j.E N.a.a.a.a.a.a.> T 6.6.6.6.6.6.U v 6.6.6.6.6.6.6.6.6.6.6.6.6.6.6.6.6.6.6.6.6.6.6.6.6.6.6.6.6.6.6.6.6.6.6.6.6.6.6.6.6.6.6.6.6.6.v N.a.a.a.a.a.a.w ",
"&.j.j.j.j.j.j.<.K p.p.p.p.p.p.Y u Z.j.j.j.j.j.j.j.W u C.p.p.p.p.p.p.p.Y u b.6.6.6.6.6.6.6.M u Z.j.j.j.j.j.j.j.E N.a.a.a.a.a.a.> T 6.6.6.6.6.6.U 5 C C C C C C C C C C C C C C C C C C C C C C C C C C C C C C C C C C C C C C C C C C C C C C 7 N.a.a.a.a.a.a.w ",
"&.j.j.j.j.j.j.<.K p.p.p.p.p.p.Y u Z.j.j.j.j.j.j.j.W u C.p.p.p.p.p.p.p.Y u b.6.6.6.6.6.6.6.M u Z.j.j.j.j.j.j.j.E N.a.a.a.a.a.a.> T 6.6.6.6.6.6.U < u u u u u u u u u u u u u u u u u u u u u u u u u u u u u u u u u u u u u u u u u u u u u u < N.a.a.a.a.a.a.w ",
"&.j.j.j.j.j.j.<.K p.p.p.p.p.p.Y u Z.j.j.j.j.j.j.j.W u C.p.p.p.p.p.p.p.Y u b.6.6.6.6.6.6.6.M u Z.j.j.j.j.j.j.j.E N.a.a.a.a.a.a.> T 6.6.6.6.6.6.U *.B.B.B.B.B.B.B.B.B.B.B.B.B.B.B.B.B.B.B.B.B.B.B.B.B.B.B.B.B.B.B.B.B.B.B.B.B.B.B.B.B.B.B.B.B.B.7.N.a.a.a.a.a.a.w ",
"&.j.j.j.j.j.j.<.K p.p.p.p.p.p.Y u Z.j.j.j.j.j.j.j.W u C.p.p.p.p.p.p.p.Y u b.6.6.6.6.6.6.6.M u Z.j.j.j.j.j.j.j.E N.a.a.a.a.a.a.> T 6.6.6.6.6.6.U K p.p.p.p.p.p.p.p.p.p.p.p.p.p.p.p.p.p.p.p.p.p.p.p.p.p.p.p.p.p.p.p.p.p.p.p.p.p.p.p.p.p.p.p.p.p.K N.a.a.a.a.a.a.w ",
"&.j.j.j.j.j.j.<.K p.p.p.p.p.p.Y u Z.j.j.j.j.j.j.j.W u C.p.p.p.p.p.p.p.Y u b.6.6.6.6.6.6.6.M u Z.j.j.j.j.j.j.j.E N.a.a.a.a.a.a.> T 6.6.6.6.6.6.U K p.p.p.p.p.p.p.p.p.p.p.p.p.p.p.p.p.p.p.p.p.p.p.p.p.p.p.p.p.p.p.p.p.p.p.p.p.p.p.p.p.p.p.p.p.p.K N.a.a.a.a.a.a.w ",
"&.j.j.j.j.j.j.<.K p.p.p.p.p.p.Y u Z.j.j.j.j.j.j.j.W u C.p.p.p.p.p.p.p.Y u b.6.6.6.6.6.6.6.M u Z.j.j.j.j.j.j.j.E N.a.a.a.a.a.a.> T 6.6.6.6.6.6.U K p.p.p.p.p.p.p.p.p.p.p.p.p.p.p.p.p.p.p.p.p.p.p.p.p.p.p.p.p.p.p.p.p.p.p.p.p.p.p.p.p.p.p.p.p.p.K N.a.a.a.a.a.a.w ",
"&.j.j.j.j.j.j.<.K p.p.p.p.p.p.Y u Z.j.j.j.j.j.j.j.W u C.p.p.p.p.p.p.p.Y u b.6.6.6.6.6.6.6.M u Z.j.j.j.j.j.j.j.E N.a.a.a.a.a.a.> T 6.6.6.6.6.6.U K p.p.p.p.p.p.p.p.p.p.p.p.p.p.p.p.p.p.p.p.p.p.p.p.p.p.p.p.p.p.p.p.p.p.p.p.p.p.p.p.p.p.p.p.p.p.K N.a.a.a.a.a.a.w ",
"&.j.j.j.j.j.j.<.K p.p.p.p.p.p.Y u Z.j.j.j.j.j.j.j.W u C.p.p.p.p.p.p.p.Y u b.6.6.6.6.6.6.6.M u Z.j.j.j.j.j.j.j.E N.a.a.a.a.a.a.> T 6.6.6.6.6.6.U K p.p.p.p.p.p.p.p.p.p.p.p.p.p.p.p.p.p.p.p.p.p.p.p.p.p.p.p.p.p.p.p.p.p.p.p.p.p.p.p.p.p.p.p.p.p.K N.a.a.a.a.a.a.w ",
"&.j.j.j.j.j.j.<.K p.p.p.p.p.p.Y u Z.j.j.j.j.j.j.j.W u C.p.p.p.p.p.p.p.Y u b.6.6.6.6.6.6.6.M u Z.j.j.j.j.j.j.j.E N.a.a.a.a.a.a.> T 6.6.6.6.6.6.U K p.p.p.p.p.p.p.p.p.p.p.p.p.p.p.p.p.p.p.p.p.p.p.p.p.p.p.p.p.p.p.p.p.p.p.p.p.p.p.p.p.p.p.p.p.p.K N.a.a.a.a.a.a.w ",
"&.j.j.j.j.j.j.<.K p.p.p.p.p.p.Y u Z.j.j.j.j.j.j.j.W u C.p.p.p.p.p.p.p.Y u b.6.6.6.6.6.6.6.M u Z.j.j.j.j.j.j.j.E N.a.a.a.a.a.a.> T 6.6.6.6.6.6.U K p.p.p.p.p.p.p.p.p.p.p.p.p.p.p.p.p.p.p.p.p.p.p.p.p.p.p.p.p.p.p.p.p.p.p.p.p.p.p.p.p.p.p.p.p.p.K N.a.a.a.a.a.a.w ",
"&.j.j.j.j.j.j.<.K p.p.p.p.p.p.Y u Z.j.j.j.j.j.j.j.W u C.p.p.p.p.p.p.p.Y u b.6.6.6.6.6.6.6.M u Z.j.j.j.j.j.j.j.E N.a.a.a.a.a.a.> T 6.6.6.6.6.6.U q ! ! ! ! ! ! ! ! ! ! ! ! ! ! ! ! ! ! ! ! ! ! ! ! ! ! ! ! ! ! ! ! ! ! ! ! ! ! ! ! ! ! ! ! ! ! e N.a.a.a.a.a.a.w ",
"&.j.j.j.j.j.j.<.K p.p.p.p.p.p.Y u Z.j.j.j.j.j.j.j.W u C.p.p.p.p.p.p.p.Y u b.6.6.6.6.6.6.6.M u Z.j.j.j.j.j.j.j.E N.a.a.a.a.a.a.> T 6.6.6.6.6.6.U < u u u u u u u u u u u u u u u u u u u u u u u u u u u u u u u u u u u u u u u u u u u u u u < N.a.a.a.a.a.a.w ",
"&.j.j.j.j.j.j.<.K p.p.p.p.p.p.Y u Z.j.j.j.j.j.j.j.W u C.p.p.p.p.p.p.p.Y u b.6.6.6.6.6.6.6.M u Z.j.j.j.j.j.j.j.E N.a.a.a.a.a.a.> T 6.6.6.6.6.6.U :.V.V.V.V.V.V.V.V.V.V.V.V.V.V.V.V.V.V.V.V.V.V.V.V.V.V.V.V.V.V.V.V.V.V.V.V.V.V.V.V.V.V.V.V.V.V.8.N.a.a.a.a.a.a.w ",
"&.j.j.j.j.j.j.<.K p.p.p.p.p.p.Y u Z.j.j.j.j.j.j.j.W u C.p.p.p.p.p.p.p.Y u b.6.6.6.6.6.6.6.M u Z.j.j.j.j.j.j.j.E N.a.a.a.a.a.a.> T 6.6.6.6.6.6.U E j.j.j.j.j.j.j.j.j.j.j.j.j.j.j.j.j.j.j.j.j.j.j.j.j.j.j.j.j.j.j.j.j.j.j.j.j.j.j.j.j.j.j.j.j.j.E N.a.a.a.a.a.a.w ",
"&.j.j.j.j.j.j.<.K p.p.p.p.p.p.Y u Z.j.j.j.j.j.j.j.W u C.p.p.p.p.p.p.p.Y u b.6.6.6.6.6.6.6.M u Z.j.j.j.j.j.j.j.E N.a.a.a.a.a.a.> T 6.6.6.6.6.6.U E j.j.j.j.j.j.j.j.j.j.j.j.j.j.j.j.j.j.j.j.j.j.j.j.j.j.j.j.j.j.j.j.j.j.j.j.j.j.j.j.j.j.j.j.j.j.E N.a.a.a.a.a.a.w ",
"&.j.j.j.j.j.j.<.K p.p.p.p.p.p.Y u Z.j.j.j.j.j.j.j.W u C.p.p.p.p.p.p.p.Y u b.6.6.6.6.6.6.6.M u Z.j.j.j.j.j.j.j.E N.a.a.a.a.a.a.> T 6.6.6.6.6.6.U E j.j.j.j.j.j.j.j.j.j.j.j.j.j.j.j.j.j.j.j.j.j.j.j.j.j.j.j.j.j.j.j.j.j.j.j.j.j.j.j.j.j.j.j.j.j.E N.a.a.a.a.a.a.w ",
"&.j.j.j.j.j.j.<.K p.p.p.p.p.p.Y u Z.j.j.j.j.j.j.j.W u C.p.p.p.p.p.p.p.Y u b.6.6.6.6.6.6.6.M u Z.j.j.j.j.j.j.j.E N.a.a.a.a.a.a.> T 6.6.6.6.6.6.U E j.j.j.j.j.j.j.j.j.j.j.j.j.j.j.j.j.j.j.j.j.j.j.j.j.j.j.j.j.j.j.j.j.j.j.j.j.j.j.j.j.j.j.j.j.j.E N.a.a.a.a.a.a.w ",
"&.j.j.j.j.j.j.<.K p.p.p.p.p.p.Y u Z.j.j.j.j.j.j.j.W u C.p.p.p.p.p.p.p.Y u b.6.6.6.6.6.6.6.M u Z.j.j.j.j.j.j.j.E N.a.a.a.a.a.a.> T 6.6.6.6.6.6.U E j.j.j.j.j.j.j.j.j.j.j.j.j.j.j.j.j.j.j.j.j.j.j.j.j.j.j.j.j.j.j.j.j.j.j.j.j.j.j.j.j.j.j.j.j.j.E N.a.a.a.a.a.a.w ",
"&.j.j.j.j.j.j.<.K p.p.p.p.p.p.Y u Z.j.j.j.j.j.j.j.W u C.p.p.p.p.p.p.p.Y u b.6.6.6.6.6.6.6.M u Z.j.j.j.j.j.j.j.E N.a.a.a.a.a.a.> T 6.6.6.6.6.6.U E j.j.j.j.j.j.j.j.j.j.j.j.j.j.j.j.j.j.j.j.j.j.j.j.j.j.j.j.j.j.j.j.j.j.j.j.j.j.j.j.j.j.j.j.j.j.E N.a.a.a.a.a.a.w ",
"&.j.j.j.j.j.j.<.K p.p.p.p.p.p.Y u Z.j.j.j.j.j.j.j.W u C.p.p.p.p.p.p.p.Y u b.6.6.6.6.6.6.6.M u Z.j.j.j.j.j.j.j.E N.a.a.a.a.a.a.> T 6.6.6.6.6.6.U E j.j.j.j.j.j.j.j.j.j.j.j.j.j.j.j.j.j.j.j.j.j.j.j.j.j.j.j.j.j.j.j.j.j.j.j.j.j.j.j.j.j.j.j.j.j.E N.a.a.a.a.a.a.w ",
"&.j.j.j.j.j.j.<.K p.p.p.p.p.p.Y u Z.j.j.j.j.j.j.j.W u C.p.p.p.p.p.p.p.Y u b.6.6.6.6.6.6.6.M u Z.j.j.j.j.j.j.j.E N.a.a.a.a.a.a.> T 6.6.6.6.6.6.U i ) ) ) ) ) ) ) ) ) ) ) ) ) ) ) ) ) ) ) ) ) ) ) ) ) ) ) ) ) ) ) ) ) ) ) ) ) ) ) ) ) ) ) ) ) ) a N.a.a.a.a.a.a.w ",
"&.j.j.j.j.j.j.<.K p.p.p.p.p.p.Y u Z.j.j.j.j.j.j.j.W u C.p.p.p.p.p.p.p.Y u b.6.6.6.6.6.6.6.M u Z.j.j.j.j.j.j.j.E N.a.a.a.a.a.a.> T 6.6.6.6.6.6.U < u u u u u u u u u u u u u u u u u u u u u u u u u u u u u u u u u u u u u u u u u u u u u u < N.a.a.a.a.a.a.w ",
"&.j.j.j.j.j.j.<.K p.p.p.p.p.p.Y u Z.j.j.j.j.j.j.j.W u C.p.p.p.p.p.p.p.Y u b.6.6.6.6.6.6.6.M u Z.j.j.j.j.j.j.j.E N.a.a.a.a.a.a.> T 6.6.6.6.6.6.U _ c.c.c.c.c.c.c.c.c.c.c.c.c.c.c.c.c.c.c.c.c.c.c.c.c.c.c.c.c.c.c.c.c.c.c.c.c.c.c.c.c.c.c.c.c.c. .N.a.a.a.a.a.a.w ",
"&.j.j.j.j.j.j.<.K p.p.p.p.p.p.Y u Z.j.j.j.j.j.j.j.W u C.p.p.p.p.p.p.p.Y u b.6.6.6.6.6.6.6.M u Z.j.j.j.j.j.j.j.E N.a.a.a.a.a.a.> T 6.6.6.6.6.6.U v 6.6.6.6.6.6.6.6.6.6.6.6.6.6.6.6.6.6.6.6.6.6.6.6.6.6.6.6.6.6.6.6.6.6.6.6.6.6.6.6.6.6.6.6.6.6.v N.a.a.a.a.a.a.w ",
"&.j.j.j.j.j.j.<.K p.p.p.p.p.p.Y u Z.j.j.j.j.j.j.j.W u C.p.p.p.p.p.p.p.Y u b.6.6.6.6.6.6.6.M u Z.j.j.j.j.j.j.j.E N.a.a.a.a.a.a.> T 6.6.6.6.6.6.U v 6.6.6.6.6.6.6.6.6.6.6.6.6.6.6.6.6.6.6.6.6.6.6.6.6.6.6.6.6.6.6.6.6.6.6.6.6.6.6.6.6.6.6.6.6.6.v N.a.a.a.a.a.a.w ",
"&.j.j.j.j.j.j.<.K p.p.p.p.p.p.Y u Z.j.j.j.j.j.j.j.W u C.p.p.p.p.p.p.p.Y u b.6.6.6.6.6.6.6.M u Z.j.j.j.j.j.j.j.E N.a.a.a.a.a.a.> T 6.6.6.6.6.6.U v 6.6.6.6.6.6.6.6.6.6.6.6.6.6.6.6.6.6.6.6.6.6.6.6.6.6.6.6.6.6.6.6.6.6.6.6.6.6.6.6.6.6.6.6.6.6.v N.a.a.a.a.a.a.w ",
"&.j.j.j.j.j.j.<.K p.p.p.p.p.p.Y u Z.j.j.j.j.j.j.j.W u C.p.p.p.p.p.p.p.Y u b.6.6.6.6.6.6.6.M u Z.j.j.j.j.j.j.j.E N.a.a.a.a.a.a.> T 6.6.6.6.6.6.U v 6.6.6.6.6.6.6.6.6.6.6.6.6.6.6.6.6.6.6.6.6.6.6.6.6.6.6.6.6.6.6.6.6.6.6.6.6.6.6.6.6.6.6.6.6.6.v N.a.a.a.a.a.a.w ",
"&.j.j.j.j.j.j.<.K p.p.p.p.p.p.Y u Z.j.j.j.j.j.j.j.W u C.p.p.p.p.p.p.p.Y u b.6.6.6.6.6.6.6.M u Z.j.j.j.j.j.j.j.E N.a.a.a.a.a.a.> T 6.6.6.6.6.6.U v 6.6.6.6.6.6.6.6.6.6.6.6.6.6.6.6.6.6.6.6.6.6.6.6.6.6.6.6.6.6.6.6.6.6.6.6.6.6.6.6.6.6.6.6.6.6.v N.a.a.a.a.a.a.w ",
"&.j.j.j.j.j.j.<.K p.p.p.p.p.p.Y u Z.j.j.j.j.j.j.j.W u C.p.p.p.p.p.p.p.Y u b.6.6.6.6.6.6.6.M u Z.j.j.j.j.j.j.j.E N.a.a.a.a.a.a.> T 6.6.6.6.6.6.U v 6.6.6.6.6.6.6.6.6.6.6.6.6.6.6.6.6.6.6.6.6.6.6.6.6.6.6.6.6.6.6.6.6.6.6.6.6.6.6.6.6.6.6.6.6.6.v N.a.a.a.a.a.a.w ",
"&.j.j.j.j.j.j.<.K p.p.p.p.p.p.Y u Z.j.j.j.j.j.j.j.W u C.p.p.p.p.p.p.p.Y u b.6.6.6.6.6.6.6.M u Z.j.j.j.j.j.j.j.E N.a.a.a.a.a.a.> T 6.6.6.6.6.6.U v 6.6.6.6.6.6.6.6.6.6.6.6.6.6.6.6.6.6.6.6.6.6.6.6.6.6.6.6.6.6.6.6.6.6.6.6.6.6.6.6.6.6.6.6.6.6.v N.a.a.a.a.a.a.w ",
"&.j.j.j.j.j.j.<.K p.p.p.p.p.p.Y u Z.j.j.j.j.j.j.j.W u C.p.p.p.p.p.p.p.Y u b.6.6.6.6.6.6.6.M u Z.j.j.j.j.j.j.j.E N.a.a.a.a.a.a.> T 6.6.6.6.6.6.U 5 C C C C C C C C C C C C C C C C C C C C C C C C C C C C C C C C C C C C C C C C C C C C C C 7 N.a.a.a.a.a.a.w ",
"&.j.j.j.j.j.j.<.K p.p.p.p.p.p.Y u Z.j.j.j.j.j.j.j.W u C.p.p.p.p.p.p.p.Y u b.6.6.6.6.6.6.6.M u Z.j.j.j.j.j.j.j.E N.a.a.a.a.a.a.> T 6.6.6.6.6.6.U < u u u u u u u u u u u u u u u u u u u u u u u u u u u u u u u u u u u u u u u u u u u u u u < N.a.a.a.a.a.a.w ",
"&.j.j.j.j.j.j.<.K p.p.p.p.p.p.Y u Z.j.j.j.j.j.j.j.W u C.p.p.p.p.p.p.p.Y u b.6.6.6.6.6.6.6.M u Z.j.j.j.j.j.j.j.E N.a.a.a.a.a.a.> T 6.6.6.6.6.6.U *.B.B.B.B.B.B.B.B.B.B.B.B.B.B.B.B.B.B.B.B.B.B.B.B.B.B.B.B.B.B.B.B.B.B.B.B.B.B.B.B.B.B.B.B.B.B.7.N.a.a.a.a.a.a.w ",
"&.j.j.j.j.j.j.<.K p.p.p.p.p.p.Y u Z.j.j.j.j.j.j.j.W u C.p.p.p.p.p.p.p.Y u b.6.6.6.6.6.6.6.M u Z.j.j.j.j.j.j.j.E N.a.a.a.a.a.a.> T 6.6.6.6.6.6.U K p.p.p.p.p.p.p.p.p.p.p.p.p.p.p.p.p.p.p.p.p.p.p.p.p.p.p.p.p.p.p.p.p.p.p.p.p.p.p.p.p.p.p.p.p.p.K N.a.a.a.a.a.a.w ",
"&.j.j.j.j.j.j.<.K p.p.p.p.p.p.Y u Z.j.j.j.j.j.j.j.W u C.p.p.p.p.p.p.p.Y u b.6.6.6.6.6.6.6.M u Z.j.j.j.j.j.j.j.E N.a.a.a.a.a.a.> T 6.6.6.6.6.6.U K p.p.p.p.p.p.p.p.p.p.p.p.p.p.p.p.p.p.p.p.p.p.p.p.p.p.p.p.p.p.p.p.p.p.p.p.p.p.p.p.p.p.p.p.p.p.K N.a.a.a.a.a.a.w ",
"&.j.j.j.j.j.j.<.K p.p.p.p.p.p.Y u Z.j.j.j.j.j.j.j.W u C.p.p.p.p.p.p.p.Y u b.6.6.6.6.6.6.6.M u Z.j.j.j.j.j.j.j.E N.a.a.a.a.a.a.> T 6.6.6.6.6.6.U K p.p.p.p.p.p.p.p.p.p.p.p.p.p.p.p.p.p.p.p.p.p.p.p.p.p.p.p.p.p.p.p.p.p.p.p.p.p.p.p.p.p.p.p.p.p.K N.a.a.a.a.a.a.w ",
"&.j.j.j.j.j.j.<.K p.p.p.p.p.p.Y u Z.j.j.j.j.j.j.j.W u C.p.p.p.p.p.p.p.Y u b.6.6.6.6.6.6.6.M u Z.j.j.j.j.j.j.j.E N.a.a.a.a.a.a.> T 6.6.6.6.6.6.U K p.p.p.p.p.p.p.p.p.p.p.p.p.p.p.p.p.p.p.p.p.p.p.p.p.p.p.p.p.p.p.p.p.p.p.p.p.p.p.p.p.p.p.p.p.p.K N.a.a.a.a.a.a.w ",
"&.j.j.j.j.j.j.<.K p.p.p.p.p.p.Y u Z.j.j.j.j.j.j.j.W u C.p.p.p.p.p.p.p.Y u b.6.6.6.6.6.6.6.M u Z.j.j.j.j.j.j.j.E N.a.a.a.a.a.a.> T 6.6.6.6.6.6.U K p.p.p.p.p.p.p.p.p.p.p.p.p.p.p.p.p.p.p.p.p.p.p.p.p.p.p.p.p.p.p.p.p.p.p.p.p.p.p.p.p.p.p.p.p.p.K N.a.a.a.a.a.a.w ",
"&.j.j.j.j.j.j.<.K p.p.p.p.p.p.Y u Z.j.j.j.j.j.j.j.W u C.p.p.p.p.p.p.p.Y u b.6.6.6.6.6.6.6.M u Z.j.j.j.j.j.j.j.E N.a.a.a.a.a.a.> T 6.6.6.6.6.6.U K p.p.p.p.p.p.p.p.p.p.p.p.p.p.p.p.p.p.p.p.p.p.p.p.p.p.p.p.p.p.p.p.p.p.p.p.p.p.p.p.p.p.p.p.p.p.K N.a.a.a.a.a.a.w ",
"&.j.j.j.j.j.j.<.K p.p.p.p.p.p.Y u Z.j.j.j.j.j.j.j.W u C.p.p.p.p.p.p.p.Y u b.6.6.6.6.6.6.6.M u Z.j.j.j.j.j.j.j.E N.a.a.a.a.a.a.> T 6.6.6.6.6.6.U K p.p.p.p.p.p.p.p.p.p.p.p.p.p.p.p.p.p.p.p.p.p.p.p.p.p.p.p.p.p.p.p.p.p.p.p.p.p.p.p.p.p.p.p.p.p.K N.a.a.a.a.a.a.w ",
"&.j.j.j.j.j.g.@.= 9 9 9 9 9 9 & o n t t t t t t t : o b 9 9 9 9 9 9 9 & o f 4 4 4 4 4 4 4 # o n t t t t t t t , d.u.a.a.a.a.a.> T 6.6.6.6.6.1.H = 9 9 9 9 9 9 9 9 9 9 9 9 9 9 9 9 9 9 9 9 9 9 9 9 9 9 9 9 9 9 9 9 9 9 9 9 9 9 9 9 9 9 9 9 9 9 ; d.u.a.a.a.a.a.w ",
"&.j.j.j.j.g.| =.x.l.l.l.l.l.l.l.l.l.l.l.l.l.l.l.l.l.l.l.l.l.l.l.l.l.l.l.l.l.l.l.l.l.l.l.l.l.l.l.l.l.l.l.l.l.l.s.D +.u.a.a.a.a.> T 6.6.6.6.1.A -.M.v.v.v.v.v.v.v.v.v.v.v.v.v.v.v.v.v.v.v.v.v.v.v.v.v.v.v.v.v.v.v.v.v.v.v.v.v.v.v.v.v.v.v.v.v.v.z.R +.u.a.a.a.a.w ",
"&.j.j.j.g.| %.x.y.6.6.6.6.6.6.6.6.6.6.6.6.6.6.6.6.6.6.6.6.6.6.6.6.6.6.6.6.6.6.6.6.6.6.6.6.6.6.6.6.6.6.6.6.6.6.5.1.l +.u.a.a.a.> T 6.6.6.1.A ..m.k.p.p.p.p.p.p.p.p.p.p.p.p.p.p.p.p.p.p.p.p.p.p.p.p.p.p.p.p.p.p.p.p.p.p.p.p.p.p.p.p.p.p.p.p.p.p.i.w.N +.u.a.a.a.w ",
"&.j.j.g.| %.x.y.6.6.6.6.6.6.6.6.6.6.6.6.6.6.6.6.6.6.6.6.6.6.6.6.6.6.6.6.6.6.6.6.6.6.6.6.6.6.6.6.6.6.6.6.6.6.6.6.5.2.l +.u.a.a.> T 6.6.1.A ..m.k.p.p.p.p.p.p.p.p.p.p.p.p.p.p.p.p.p.p.p.p.p.p.p.p.p.p.p.p.p.p.p.p.p.p.p.p.p.p.p.p.p.p.p.p.p.p.p.p.i.e.N +.u.a.a.w ",
"&.j.g.| %.x.y.6.6.6.6.6.6.6.6.6.6.6.6.6.6.6.6.6.6.6.6.6.6.6.6.6.6.6.6.6.6.6.6.6.6.6.6.6.6.6.6.6.6.6.6.6.6.6.6.6.6.5.2.l +.u.a.> T 6.1.A ..m.k.p.p.p.p.p.p.p.p.p.p.p.p.p.p.p.p.p.p.p.p.p.p.p.p.p.p.p.p.p.p.p.p.p.p.p.p.p.p.p.p.p.p.p.p.p.p.p.p.p.p.i.e.N +.u.a.w ",
"&.g.| %.x.y.6.6.6.6.6.6.6.6.6.6.6.6.6.6.6.6.6.6.6.6.6.6.6.6.6.6.6.6.6.6.6.6.6.6.6.6.6.6.6.6.6.6.6.6.6.6.6.6.6.6.6.6.5.2.k +.u.> T 1.A ..m.k.p.p.p.p.p.p.p.p.p.p.p.p.p.p.p.p.p.p.p.p.p.p.p.p.p.p.p.p.p.p.p.p.p.p.p.p.p.p.p.p.p.p.p.p.p.p.p.p.p.p.p.p.i.e.N +.u.w ",
"{ | %.x.y.6.6.6.6.6.6.6.6.6.6.6.6.6.6.6.6.6.6.6.6.6.6.6.6.6.6.6.6.6.6.6.6.6.6.6.6.6.6.6.6.6.6.6.6.6.6.6.6.6.6.6.6.6.6.5.1.k +.> G A ..m.k.p.p.p.p.p.p.p.p.p.p.p.p.p.p.p.p.p.p.p.p.p.p.p.p.p.p.p.p.p.p.p.p.p.p.p.p.p.p.p.p.p.p.p.p.p.p.p.p.p.p.p.p.p.p.i.w.m +.q ",
"c %.x.y.6.6.6.6.6.6.6.6.6.6.6.6.6.6.6.6.6.6.6.6.6.6.6.6.6.6.6.6.6.6.6.6.6.6.6.6.6.6.6.6.6.6.6.6.6.6.6.6.6.6.6.6.6.6.6.6.5.2.l + d ..m.k.p.p.p.p.p.p.p.p.p.p.p.p.p.p.p.p.p.p.p.p.p.p.p.p.p.p.p.p.p.p.p.p.p.p.p.p.p.p.p.p.p.p.p.p.p.p.p.p.p.p.p.p.p.p.p.p.i.e.m 3 ",
"$ s q 8 8 8 8 8 8 8 8 8 8 8 8 8 8 8 8 8 8 8 8 8 8 8 8 8 8 8 8 8 8 8 8 8 8 8 8 8 8 8 8 8 8 8 8 8 8 8 8 8 8 8 8 8 8 8 8 8 8 8 6   $ m g u u u u u u u u u u u u u u u u u u u u u u u u u u u u u u u u u u u u u u u u u u u u u u u u u u u u u u u u u u u y o "
};
