/* XPM */
static char *out[] = {
/* columns rows colors chars-per-pixel */
"16 128 181 2 ",
"   c #434945",
".  c #434A45",
"X  c #434A46",
"o  c #454945",
"O  c #444A45",
"+  c #454946",
"@  c #444A46",
"#  c #444A47",
"$  c #454A47",
"%  c #444B47",
"&  c #454B47",
"*  c #464A47",
"=  c #464B47",
"-  c #454B48",
";  c #474B48",
":  c #474B4B",
">  c #454C48",
",  c #464C48",
"<  c #474C4B",
"1  c #474D4B",
"2  c #474D4D",
"3  c #474E4D",
"4  c #484B49",
"5  c #484B4A",
"6  c #484E4D",
"7  c #575B5E",
"8  c #575B5F",
"9  c #575D5F",
"0  c #595D5E",
"q  c #585D5F",
"w  c #5A5D5E",
"e  c #595E5E",
"r  c #5B5E5E",
"t  c #5C5E5E",
"y  c #5F645D",
"u  c #61655E",
"i  c #595C60",
"p  c #585D60",
"a  c #5A5D60",
"s  c #5B5D60",
"d  c #595E60",
"f  c #5A5E60",
"g  c #656B62",
"h  c #656B63",
"j  c #696E64",
"k  c #696E65",
"l  c #6A6F65",
"z  c #696E66",
"x  c #696F66",
"c  c #696F67",
"v  c #6A6F66",
"b  c #6B6E67",
"n  c #6A6F67",
"m  c #6B6F67",
"M  c #6B6F68",
"N  c #6C6F68",
"B  c #6C6F69",
"V  c #6C7068",
"C  c #6C7069",
"Z  c #6C7169",
"A  c #6E7169",
"S  c #6C706A",
"D  c #6D706A",
"F  c #6E706A",
"G  c #6E716A",
"H  c #6D726B",
"J  c #6E726A",
"K  c #6E726B",
"L  c #6D706C",
"P  c #6E706C",
"I  c #6E726D",
"U  c #6F736D",
"Y  c #6F716F",
"T  c #6E726E",
"R  c #6F726E",
"E  c #6E736E",
"W  c #6F736E",
"Q  c #6F726F",
"!  c #6E736F",
"~  c #6F736F",
"^  c #70726F",
"/  c #70736F",
"(  c #70746F",
")  c #71746F",
"_  c #6F7370",
"`  c #707370",
"'  c #707470",
"]  c #717470",
"[  c #838787",
"{  c #848687",
"}  c #858687",
"|  c #848787",
" . c #858787",
".. c #868787",
"X. c gray53",
"o. c #838788",
"O. c #848788",
"+. c #858788",
"@. c #848689",
"#. c #848789",
"$. c #858789",
"%. c #868788",
"&. c #878788",
"*. c #868789",
"=. c #878789",
"-. c #888788",
";. c #888789",
":. c #868888",
">. c #878888",
",. c #868889",
"<. c #878989",
"1. c #90938A",
"2. c #90938B",
"3. c #92938A",
"4. c #92938B",
"5. c #92958B",
"6. c #92958C",
"7. c #93958C",
"8. c #94968D",
"9. c #94968E",
"0. c #94968F",
"q. c #94978F",
"w. c #95978F",
"e. c #95988F",
"r. c #949790",
"t. c #959790",
"y. c #959890",
"u. c #959891",
"i. c #969891",
"p. c #979891",
"a. c #979892",
"s. c #979992",
"d. c #979993",
"f. c #979994",
"g. c #989994",
"h. c #989A94",
"j. c #999A94",
"k. c #999B94",
"l. c #999B95",
"z. c #999B96",
"x. c #999B97",
"c. c #9A9B96",
"v. c #9A9B97",
"b. c #9A9C97",
"n. c #A8AAA1",
"m. c #A8AAA2",
"M. c #A9AAA2",
"N. c #A9ABA2",
"B. c #A9AAA3",
"V. c #A9ABA3",
"C. c #AAABA3",
"Z. c #AAABA4",
"A. c #AAACA4",
"S. c #AAACA5",
"D. c #ABACA5",
"F. c #ABACA6",
"G. c #ACADA6",
"H. c #ACADA7",
"J. c #ADADA7",
"K. c #ADAEA7",
"L. c #AAABAB",
"P. c gray67",
"I. c #ABACAB",
"U. c #ADADA8",
"Y. c #ADAEA8",
"T. c #ADAEA9",
"R. c #AEAEA9",
"E. c #AEAFA9",
"W. c #ACACAB",
"Q. c #ADADAB",
"!. c #AEADAB",
"~. c #AEAFAA",
"^. c #AFAFAA",
"/. c #AFAFAB",
"(. c #ADADAC",
"). c #AEADAC",
"_. c #BDBDBC",
"`. c #BEBDBC",
"'. c #BEBDBD",
"]. c #BEBEBD",
"[. c #BFBEBD",
/* pixels */
"[.[.[.[.[.[.[.[.[.[.[.Q.>.t >.(.",
"[.[.[.[.[.[.[.[.[.[.[.Q.<.t >.Q.",
"[.[.[.[.[.[.[.[.[.[.[.Q.<.t >.Q.",
"[.[.[.[.[.[.[.[.[.[.[.Q.<.t >.Q.",
"[.[.[.[.[.[.[.[.[.[.[.Q.<.t >.Q.",
"[.[.[.[.[.[.[.[.[.[.[.Q.;.f ;.!.",
"[.[.[.[.[.[.[.[.[.[.[.Q.-.f ;.).",
"[.[.[.[.[.[.[.[.[.[.[.Q.&.d =.(.",
"[.[.[.[.[.[.[.[.[.[.[.Q.&.d =.(.",
"[.[.[.[.[.[.[.[.[.[.[.Q.&.d =.(.",
"[.[.[.[.[.[.[.[.[.[.[.Q.%.r :.(.",
"[.[.[.[.[.[.[.[.[.[.[.Q.%.r :.(.",
"[.[.[.[.[.[.[.[.[.[.[.Q.%.r :.(.",
"[.[.[.[.[.[.[.[.[.[.[.Q.%.r :.(.",
"[.[.[.[.[.[.[.[.[.[.[.(.*.s :.(.",
"[.[.[.[.[.[.[.[.[.[.[.(.*.i ,.(.",
"[.[.[.[.[.[.[.[.[.[.[.(.*.i ,.(.",
"[.[.[.[.[.[.[.[.[.[.[.Q.*.i ,.Q.",
"[.[.[.[.[.[.[.[.[.[.[.Q.*.i ,.Q.",
"[.[.[.[.[.[.[.[.[.[.[.Q...e ,.Q.",
"[.[.[.[.[.[.[.[.[.[.[.Q...e ,.Q.",
"[.[.[.[.[.[.[.[.[.[.[.Q...e ,.Q.",
"].].].].].].].].].].].W. .0 $.W.",
"].].].].].].].].].].].W.X.0  .W.",
"].].].].].].].].].].].W.=.0  .W.",
"].].].].].].].].].].].W.=.0  .W.",
"].].].].].].].].].].].W.=.0  .W.",
"].].].].].].].].].].].W.=.0  .W.",
"].].].].].].].].].].].W.#.p | W.",
"].].].].].].].].].].].W.#.p | W.",
"].].].].].].].].].].].W.#.p | W.",
"].].].].].].].].].].].W.#.p | W.",
"].].].].].].].].].].].W.#.a #.W.",
"].].].].].].].].].].].W.#.w #.W.",
"'.'.'.'.'.'.'.'.'.'.'.I.@.w @.I.",
"'.'.'.'.'.'.'.'.'.'.'.I.@.w @.I.",
"'.'.'.'.'.'.'.'.'.'.'.I.@.w @.I.",
"'.'.'.'.'.'.'.'.'.'.'.I.} p $.W.",
"'.'.'.'.'.'.'.'.'.'.'.I.} p $.W.",
"`.`.`.`.`.`.`.`.`.`.`.I.} q +.W.",
"`.`.`.`.`.`.`.`.`.`.`.I.} q +.W.",
"_._._._._._._._._._._.I.{ q O.I.",
"_._._._._._._._._._._.P.| 0 O.I.",
"_._._._._._._._._._._.P.| 0 O.I.",
"_._._._._._._._._._._.P.| 0 O.I.",
"_._._._._._._._._._._.P.| 0 O.I.",
"_._._._._._._._._._._.P.O.q O.P.",
"_._._._._._._._._._._.P.O.q O.P.",
"_._._._._._._._._._._.P.O.q O.P.",
"_._._._._._._._._._._.L.o.9 o.L.",
"_._._._._._._._._._._.P.o.9 o.L.",
"_._._._._._._._._._._.P.o.8 [ L.",
"_._._._._._._._._._._.P.o.8 [ L.",
"_._._._._._._._._._._.P.o.8 [ L.",
"_._._._._._._._._._._.P.o.8 [ L.",
"_._._._._._._._._._._.P.O.7 [ P.",
"_._._._._._._._._._._.L.O.7 [ P.",
"_._._._._._._._._._._.L.O.7 [ P.",
"_._._._._._._._._._._.L.O.7 [ P.",
"_._._._._._._._._._._.L.O.7 [ P.",
"_._._._._._._._._._._.L.o.9 [ L.",
"_._._._._._._._._._._.L.o.9 [ L.",
"/././././././././././.b.' 6 ' b.",
"/././././././././././.b.' 6 ' b.",
"/././././././././././.b.] 6 ` b.",
"/././././././././././.v.] 6 ` b.",
"^.^.^.^.^.^.^.^.^.^.^.c.) 6 ` b.",
"~.~.~.~.~.~.~.~.~.~.~.z.( 3 _ b.",
"~.~.~.~.~.~.~.~.~.~.~.z./ 2 _ v.",
"~.~.~.~.~.~.~.~.~.~.~.x._ 2 ` x.",
"~.~.~.~.~.~.~.~.~.~.~.x._ 2 ` x.",
"E.E.E.E.E.E.E.E.E.E.E.z.~ 1 ^ z.",
"E.E.E.E.E.E.E.E.E.E.E.z.~ 1 ^ z.",
"E.E.E.E.E.E.E.E.E.E.E.z.W < ^ z.",
"E.E.E.E.E.E.E.E.E.E.E.z.W < Q z.",
"E.E.E.E.R.E.E.E.E.E.E.z.W < Q z.",
"R.R.R.R.R.R.R.R.R.R.R.l.U : Y l.",
"R.R.R.R.R.R.R.R.R.R.R.l.U : Y l.",
"R.R.R.R.R.R.R.R.R.R.R.l.~ 4 ~ l.",
"Y.Y.Y.Y.Y.Y.Y.T.T.Y.Y.k.W 4 ! k.",
"Y.Y.Y.Y.Y.Y.Y.Y.Y.Y.Y.k.W 4 E k.",
"Y.Y.Y.Y.Y.Y.Y.Y.Y.Y.Y.k.W 4 E k.",
"Y.Y.Y.Y.Y.Y.Y.Y.Y.Y.Y.j.R 4 T j.",
"Y.Y.Y.Y.Y.Y.Y.Y.Y.Y.Y.j.K 5 I j.",
"Y.Y.Y.Y.Y.Y.Y.Y.Y.Y.Y.h.H 5 H h.",
"Y.Y.Y.Y.Y.Y.Y.Y.Y.Y.Y.h.H 5 H h.",
"K.Y.K.K.Y.K.K.U.Y.Y.K.h.H 5 H h.",
"K.K.K.K.K.K.K.K.K.K.K.h.H , L h.",
"J.J.J.J.J.J.J.J.J.J.J.g.H , L g.",
"H.H.H.H.H.H.H.H.H.H.H.f.H , L d.",
"H.H.H.H.H.H.H.H.H.H.H.d.H , L d.",
"H.H.H.H.H.H.H.H.H.H.H.s.H , P d.",
"G.G.H.G.H.G.G.G.G.G.H.s.J * P d.",
"G.G.H.G.G.G.H.G.H.H.H.a.G $ P s.",
"G.G.G.G.G.G.G.G.G.G.G.a.G $ P s.",
"G.G.G.G.G.G.G.G.G.G.G.a.G $ F s.",
"G.G.G.G.G.G.G.G.G.G.G.s.G > A a.",
"G.G.G.G.G.G.G.G.G.G.G.s.F > Z s.",
"F.F.F.F.F.F.F.F.F.F.F.a.D - C a.",
"D.F.D.F.D.D.D.D.F.D.D.p.D - C p.",
"D.D.D.D.D.D.D.D.D.D.D.p.S ; V p.",
"D.D.D.D.D.D.D.D.D.D.D.i.S ; S i.",
"D.D.D.D.D.D.D.D.D.S.D.y.C = C y.",
"S.S.S.S.S.S.S.S.S.S.S.y.C = C u.",
"S.S.S.S.S.S.S.S.S.S.S.y.C = C y.",
"A.A.S.S.A.A.S.A.A.A.S.y.N = B t.",
"A.A.A.A.S.A.A.A.A.A.Z.y.V & N t.",
"A.Z.A.A.A.A.A.A.A.A.A.y.V % M r.",
"A.C.A.A.A.A.A.C.A.A.A.e.V % m q.",
"Z.Z.C.C.C.C.C.C.Z.Z.C.q.N # b q.",
"Z.C.C.C.C.C.Z.C.C.C.C.w.M O M q.",
"C.C.C.C.C.C.C.C.C.C.C.w.M O m q.",
"V.V.V.V.V.V.V.V.V.V.V.q.n O v q.",
"V.V.V.V.V.V.V.V.V.V.V.q.n O v q.",
"V.V.V.V.V.V.V.V.V.V.V.q.n O n q.",
"V.V.V.V.V.V.V.V.V.V.V.0.n @ v 0.",
"N.N.N.V.V.N.N.N.N.N.V.9.n @ l 9.",
"N.N.V.V.N.N.V.V.N.N.V.9.c X x 9.",
"B.V.V.N.N.N.N.N.V.N.N.9.c X k 0.",
"N.N.V.M.N.B.N.N.N.N.N.0.c X c 0.",
"N.N.N.N.N.M.N.N.N.N.N.8.x . c 8.",
"N.N.N.N.N.M.N.M.N.N.N.8.z X k 8.",
"N.N.N.N.N.N.N.N.N.N.N.6.h   h 6.",
"M.M.M.M.M.M.M.M.M.M.M.3.u o u 4.",
"m.m.m.m.m.m.m.m.m.m.m.1.y + y 2.",
"n.m.n.n.n.m.n.n.m.m.n.5.g o h 6.",
"n.n.m.m.n.n.n.n.m.m.m.7.j o z 7.",
"m.n.n.m.m.m.n.n.n.n.n.7.j o z 7."
};
