/* XPM */
static char *out[] = {
/* columns rows colors chars-per-pixel */
"64 32 59 1 ",
"  c None",
". c #1D1C1E",
"X c #D15E1E",
"o c #D1621D",
"O c #D55C24",
"+ c #D46424",
"@ c #D36825",
"# c #D6642A",
"$ c #D56B2D",
"% c #D5702F",
"& c #D66F30",
"* c #D37432",
"= c #D37B35",
"- c #D27D39",
"; c #CF8337",
": c #D18237",
"> c #D1823A",
", c #D18A3D",
"< c #CE8D43",
"1 c #CE8C4E",
"2 c #CE9044",
"3 c #CE9249",
"4 c #D0914A",
"5 c #CE9353",
"6 c #CD9956",
"7 c #CB9C59",
"8 c #CAA05B",
"9 c #CAA263",
"0 c #CAA46A",
"q c #C9A772",
"w c #C8A974",
"e c #C9AB7A",
"r c #9A8D84",
"t c #9C9087",
"y c #9E928A",
"u c #A0968E",
"i c #A19790",
"p c #A49B94",
"a c #A69F99",
"s c #A7A19B",
"d c #A8A29C",
"f c #ACA6A2",
"g c #AEA9A5",
"h c #B0AAA7",
"j c #B1ABA9",
"k c #C7AF83",
"l c #C7B087",
"z c #C6C1B6",
"x c #C4C2BC",
"c c #8CACC3",
"v c #91AEC4",
"b c #94B1C4",
"n c #9BB4C4",
"m c #A2B7C4",
"M c #A7B9C4",
"N c #ABBBC4",
"B c #B4BEC4",
"V c #B8BFC4",
"C c #BAC0C4",
/* pixels */
"xxxxx                                                           ",
"xxxxx                                                           ",
"xCxxx                                                @$@@       ",
"xxxxx                                                 o**$$     ",
"xxxxx                 yyr                ...          Xo17*$    ",
"xxxxx               riaaau              .....        +Oo*59*%   ",
"xxxxC              ridffdsu             .....       #$:2=-e6*@  ",
"xxxxx             updfhjhdar           .......      $=<7:=0e>$  ",
"xxxxx            ypafgjjjfau           .......      $>94*-ql>$  ",
"xxxxx           ypafggjjhfpy           .......      &:7<->ke>$  ",
"xxxxx         ppapadfffgfdpr           .......      $=<79wl4=$  ",
"xxxxx        ypadddaaaddaait           .......      #$=,692=%   ",
"xxxxx        yaaddaaiuiiuutr          .........      +$*-=*$    ",
"xxxzx        ypasaaiuyttr             .........        #@$      ",
"zxxzx         ypapiiuyr               .........                 ",
"xzxzx         ryiiiiiiyr              .........                 ",
"zzzzz          uuuipppuur             .........         cbbc    ",
"zzzzz          ruuuassdauur           .........       cbnmmnb   ",
"                rupddhhdspt           .........       bmBBBNnb  ",
"               rrupdjjjhday           .........      cnNBVBBNnv ",
"              rtyusfjjjjfsy            .......       bnBCCCVBnb ",
"               rtuadhjjhfay            .......       bnNCCCBBmb ",
"                 ruadhgfsu             .......       vbNBVBBNmb ",
"                   uasssi              .......        bmNBBNNnc ",
"                    yuiy               .......        bnMMNMmn  ",
"                                        .....          bnmmnnb  ",
"                                        .....          cbnbnbc  ",
"                                         ...            vbbbb   ",
"                                                         bbbc   ",
"                                                         cvv    ",
"                                                          c     ",
"                                                                "
};
