/* XPM */
static char *out[] = {
/* columns rows colors chars-per-pixel */
"32 64 152 2 ",
"   c #09420E",
".  c #09420F",
"X  c #09430F",
"o  c #09440F",
"O  c #0A440F",
"+  c #094311",
"@  c #094410",
"#  c #0A4410",
"$  c #0C4611",
"%  c #0C4512",
"&  c #0D4713",
"*  c #0D4812",
"=  c #0E4814",
"-  c #0F4815",
";  c #0E4915",
":  c #114915",
">  c #104A14",
",  c #124B15",
"<  c #114916",
"1  c #114A16",
"2  c #124B17",
"3  c #144C18",
"4  c #174E19",
"5  c #144C1A",
"6  c #144D1A",
"7  c #174E1B",
"8  c #184F1C",
"9  c #184F1D",
"0  c #105816",
"q  c #18511D",
"w  c #1A521D",
"e  c #1A521E",
"r  c #1D531F",
"t  c #145B18",
"y  c #136518",
"u  c #166619",
"i  c #17691A",
"p  c #1D5320",
"a  c #1C5420",
"s  c #1D5521",
"d  c #1D5622",
"f  c #205724",
"g  c #215925",
"h  c #225825",
"j  c #255B25",
"k  c #255B26",
"l  c #285D27",
"z  c #285D28",
"x  c #295F29",
"c  c #2A5E29",
"v  c #2B5F2B",
"b  c #2C602C",
"n  c #2C612C",
"m  c #2D622D",
"M  c #2E622E",
"N  c #2F632F",
"B  c #2F642F",
"V  c #25682B",
"C  c #256A2B",
"Z  c #266A2A",
"A  c #27692C",
"S  c #2A6E2E",
"D  c #27722D",
"F  c #2A772E",
"G  c #2C792F",
"H  c #2C7A2F",
"J  c #306530",
"K  c #306631",
"L  c #316731",
"P  c #316732",
"I  c #336832",
"U  c #346933",
"Y  c #346935",
"T  c #356A36",
"R  c #356B36",
"E  c #366C37",
"W  c #376C37",
"Q  c #386D38",
"!  c #386D39",
"~  c #396E39",
"^  c #396E3B",
"/  c #3A6F3C",
"(  c #3B6F3C",
")  c #2F7031",
"_  c #2B7631",
"`  c #2D7B30",
"'  c #2E7B32",
"]  c #2D7C30",
"[  c #317134",
"{  c #367137",
"}  c #307E32",
"|  c #307E33",
" . c #317934",
".. c #347B36",
"X. c #317F34",
"o. c #3B703C",
"O. c #3B703D",
"+. c #3B713D",
"@. c #3C713D",
"#. c #3C723E",
"$. c #3E733F",
"%. c #3B753D",
"&. c #397D3B",
"*. c #3E783F",
"=. c #3C7E3C",
"-. c #407C3F",
";. c #407E40",
":. c #328034",
">. c #348137",
",. c #348637",
"<. c #348038",
"1. c #358138",
"2. c #358238",
"3. c #36823A",
"4. c #37823A",
"5. c #3F803E",
"6. c #3D863E",
"7. c #39893B",
"8. c #40813F",
"9. c #438442",
"0. c #458644",
"q. c #428941",
"w. c #438842",
"e. c #438A43",
"r. c #458A44",
"t. c #468A44",
"y. c #478A46",
"u. c #498C47",
"i. c #498D48",
"p. c #4A8D48",
"a. c #498E48",
"s. c #439740",
"d. c #4E934D",
"f. c #53994F",
"g. c #559951",
"h. c #589B55",
"j. c #599E56",
"k. c #5A9F57",
"l. c #51A04B",
"z. c #54A04F",
"x. c #54A150",
"c. c #5EA15B",
"v. c #65AF5C",
"b. c #67B05F",
"n. c #68BA58",
"m. c #64A662",
"M. c #65A662",
"N. c #68B060",
"B. c #76B273",
"V. c #85C47E",
"C. c #8EC489",
"Z. c #90C48C",
/* pixels */
"$.$.$.$.$.$.$.$.#.#.#.$.$.$.$.$.$.$.$.$.$.$.$.$.$.$.$.$.$.$.$.$.",
"$.$.$.$.$.$.$.#.;.y.;.#.$.$.$.$.$.$.$.$.$.$.$.$.$.#.#.#.$.$.$.$.",
"$.$.$.$.$.$.$.#.y.c.y.#.$.$.$.$.$.$.$.$.$.$.$.$.#.;.y.;.#.$.$.$.",
"$.$.$.$.$.$.$.#.;.y.;.#.$.$.$.$.$.$.$.$.$.$.$.$.#.y.c.y.#.$.$.$.",
"$.$.$.$.$.$.$.$.#.#.#.$.$.$.$.$.$.$.$.$.$.$.$.$.#.;.y.;.#.$.$.$.",
"$.$.$.$.$.$.$.$.$.$.$.$.$.#.#.@.#.#.$.$.$.$.$.$.$.#.#.#.$.$.$.$.",
"$.$.$.$.$.$.$.$.$.$.$.$.#.*.h.u.9.*.#.$.$.$.$.$.$.$.$.$.$.$.$.$.",
"$.#.#.#.$.$.$.$.$.$.$.$.#.h.Z.c.a.9.#.$.$.$.$.$.$.$.$.$.$.$.$.$.",
"#.;.y.;.#.$.$.$.$.$.$.$.@.u.c.a.a.u.@.$.$.$.$.$.$.$.$.$.$.$.$.$.",
"#.y.Z.y.#.$.$.$.$.$.$.$.#.9.a.a.a.9.#.$.$.$.$.$.$.$.$.$.$.$.$.$.",
"#.;.y.;.#.$.$.$.$.$.$.$.#.*.9.u.9.*.#.$.$.$.$.$.$.$.$.$.$.$.$.$.",
"$.#.#.#.$.$.$.$.$.$.$.$.$.#.#.@.#.#.$.$.$.$.$.$.$.$.$.$.$.$.$.$.",
"$.$.$.$.$.$.$.$.$.$.$.$.$.$.$.$.$.$.$.$.$.$.$.$.$.$.$.$.$.$.$.$.",
"$.$.$.$.$.$.$.$.$.$.$.$.$.$.$.$.$.$.$.$.$.$.$.$.$.$.$.$.$.$.$.$.",
"$.$.$.$.$.$.$.$.$.$.$.$.$.$.$.$.$.$.$.$.$.$.$.$.#.#.@.#.#.$.$.$.",
"$.$.$.$.$.$.$.$.$.$.$.$.$.$.$.$.$.$.$.$.$.$.$.#.*.h.u.9.*.#.$.$.",
"$.$.$.$.$.$.$.$.$.$.$.$.$.$.$.$.$.$.$.$.$.$.$.#.h.Z.c.a.9.#.$.$.",
"$.$.$.$.$.$.#.#.+.#.#.$.$.$.$.$.$.$.$.$.$.$.$.@.u.c.a.a.u.@.$.$.",
"$.$.$.$.$.#.-.p.i.0.-.#.$.$.$.$.$.$.$.$.$.$.$.#.9.a.a.a.9.#.$.$.",
"$.$.$.$.#.-.m.B.M.a.i.-.#.$.$.$.$.$.$.$.$.$.$.#.*.9.u.9.*.#.$.$.",
"$.$.$.$.#.p.B.Z.B.d.a.0.#.$.$.$.$.$.$.$.$.$.$.$.#.#.@.#.#.$.$.$.",
"$.$.$.$.+.i.M.B.M.a.a.i.+.$.$.$.$.$.$.$.$.$.$.$.$.$.$.$.$.$.$.$.",
"$.$.$.$.#.0.a.d.a.a.a.0.#.$.$.$.$.$.$.$.$.$.$.$.$.$.$.$.$.$.$.$.",
"$.$.$.$.#.-.i.a.a.a.i.-.#.$.$.$.$.$.$.$.$.$.$.$.$.$.$.$.$.$.$.$.",
"$.$.$.$.$.#.-.0.i.0.-.#.$.$.$.$.$.$.$.$.$.$.$.$.$.$.$.$.$.$.$.$.",
"$.$.$.$.$.$.#.#.+.#.#.$.$.$.$.$.$.$.$.$.$.#.#.#.$.$.$.$.$.$.$.$.",
"$.$.$.$.$.$.$.$.$.$.$.$.$.$.$.$.$.$.$.$.#.;.y.;.#.$.$.$.$.$.$.$.",
"$.$.$.$.$.$.$.$.$.$.$.$.$.$.$.$.$.$.$.$.#.y.Z.y.#.$.$.$.$.$.$.$.",
"$.$.$.$.$.$.$.$.$.$.$.$.$.$.$.$.$.$.$.$.#.;.y.;.#.$.$.$.$.$.$.$.",
"$.$.$.$.$.$.$.$.$.$.$.$.$.$.$.$.$.$.$.$.$.#.#.#.$.$.$.$.$.$.$.$.",
"$.$.$.$.$.$.$.$.$.$.$.$.$.$.$.$.$.$.$.$.$.$.$.$.$.$.$.$.$.$.$.$.",
"#.#.#.#.#.#.#.#.#.#.#.#.#.#.#.#.#.#.#.#.#.#.#.#.#.#.#.#.#.#.#.#.",
"@.@.@.@.@.@.@.@.@.o.o.( o.o.@.@.@.@.@.@.@.@.@.@.@.@.@.@.@.@.@.@.",
"O.O.O.O.O.O.O.O.( %.g.t.8.%.( O.O.O.O.O.O.O.O.O.+.O.O.O.O.O.O.O.",
"/ / / / / / / / ~ f.C.k.r.5.^ / / / / / / / / / / / / / / / / / ",
"^ ^ ~ ^ ^ ^ ^ ^ ! w.j.e.e.w.! ~ ^ ^ ^ ^ ^ ^ ^ ^ ^ ^ ^ ^ ^ ^ ~ ^ ",
"Q Q Q Q Q Q Q Q W =.q.q.q.=.W Q Q Q Q Q Q Q Q Q Q Q Q Q Q Q Q Q ",
"E E E E E E E E E { &.6.&.{ E E E E E E E E E E E E E E E E E E ",
"T T T T T T T T T T Y Y Y T T T T T T T T T R R T R T T T T T T ",
"U U U U U U U U U U U U U U U U U U U U U I I I I I U U U U U U ",
"P P P P P P P P P P P P P P P P P P P P L [ 4.3...[ K P P P P P ",
"J J J J J J J J J J J J J J J J J J J J ) z.N.x.2.1.) J J J J J ",
"N N N N N N N N B N N N N N N N N N N M <.b.V.b.7.>. .M N N N B ",
"m m m m m m m m m m n m m m m m m m m n X.l.v.l.:.:.X.n m m m m ",
"b b b b b b b b b S ' S b b b b b b b v _ } ,.| | | _ v b b b b ",
"x c c c c c c c c G s.G c c c c c c c c A ` ] ] ] ` A x c c c c ",
"z z z z z z z z z C F Z l z z z z z z z z V D H D V z z z z z z ",
"k k k k k k k k k k k k k k k j k k k k k k k k k k k k k j k k ",
"h h h h h h h h h h h h h h h h h h h h g h h h h h h h h h h h ",
"f f f f f f f f f f f f f f f f f f f f f f f f f f f f f f f f ",
"s s s s s s s s d s s s s s s s s s s s s s s s s s s s s s s d ",
"p p r p p p p p p p p p p p a r p p p p p p p p p p p p p p r p ",
"e e e e e e e e e e e e e e e e e e e e e w e e e e e e e e e e ",
"q 8 9 9 8 9 9 9 9 9 9 9 q 9 9 9 9 8 9 9 9 9 9 9 9 9 9 q 8 9 9 9 ",
"7 7 7 7 7 7 7 7 7 7 7 4 4 7 7 7 7 7 7 7 7 7 7 7 7 7 7 7 7 7 7 7 ",
"5 5 5 5 5 6 5 5 5 5 5 5 5 5 5 3 5 5 5 5 5 5 5 5 5 5 5 5 5 3 5 5 ",
"2 2 2 2 2 2 , 2 2 2 2 2 2 2 2 t i t 2 2 2 2 , 2 2 2 2 2 2 2 2 2 ",
"1 1 < < < < : < < < < < < < < u n.u < > < < < < < < < < < 1 < < ",
"- - - - - - = - - - - - - - ; 0 y 0 - - - - - - - = - - - - - - ",
"& & * & & & & & & & & & & & & & = & & & & & & & & & & & & & & & ",
"% % % % % % % % $ % % % % % % % % % % % % % % $ % % % % % % % % ",
"# # # O # # # # # # # # # # # # # # # # # # # O # # O # # # # # ",
"X + + + + + X + + + + + + + + + + @ + + X + o + + + + + + + + + ",
". .   . . . . .   .   . X . . . . . . . .   . . . X . .   . . . "
};
