/* XPM */
static char *out[] = {
/* columns rows colors chars-per-pixel */
"64 64 232 2 ",
"   c #0B0B0B",
".  c #1B0E05",
"X  c #1F1207",
"o  c #130E11",
"O  c #141313",
"+  c #1B1818",
"@  c #241306",
"#  c #291606",
"$  c #2C1905",
"%  c #2D1A09",
"&  c #331C03",
"*  c #341E0C",
"=  c #241B1A",
"-  c #3C2201",
";  c #36200D",
":  c #3B230C",
">  c #22211F",
",  c #302111",
"<  c #3C2511",
"1  c #252322",
"2  c #282626",
"3  c #2A2825",
"4  c #2C2B2A",
"5  c #342E24",
"6  c #32312E",
"7  c #3E362B",
"8  c #393737",
"9  c #442A03",
"0  c #452907",
"q  c #4B2D01",
"w  c #432A0C",
"e  c #4E3001",
"r  c #4D320D",
"t  c #543401",
"y  c #583702",
"u  c #5D3B02",
"i  c #563709",
"p  c #53350D",
"a  c #5D3C0C",
"s  c #422A16",
"d  c #442A14",
"f  c #4A2E15",
"g  c #4A2E18",
"h  c #4D3116",
"j  c #45351B",
"k  c #4D3119",
"l  c #543515",
"z  c #573814",
"x  c #5B3B14",
"c  c #52341C",
"v  c #57391E",
"b  c #5B3C1D",
"n  c #623C01",
"m  c #683B00",
"M  c #623F0C",
"N  c #623E15",
"B  c #4A3224",
"V  c #563A24",
"C  c #5B3D24",
"Z  c #413F3F",
"A  c #6B3E26",
"S  c #5E4013",
"D  c #644005",
"F  c #6A4303",
"G  c #65420A",
"H  c #6B460B",
"J  c #6E490C",
"K  c #734600",
"L  c #734B01",
"P  c #734D0D",
"I  c #7D5101",
"U  c #78520E",
"Y  c #644314",
"T  c #6A4714",
"R  c #6D4913",
"E  c #64441B",
"W  c #6B4B1D",
"Q  c #714D15",
"!  c #714F1C",
"~  c #7B5412",
"^  c #76521C",
"/  c #785518",
"(  c #7C551B",
")  c #5C452D",
"_  c #634322",
"`  c #6C4C22",
"'  c #654829",
"]  c #724C26",
"[  c #755324",
"{  c #795523",
"}  c #7D5923",
"|  c #755329",
" . c #78572A",
".. c #7C5A2C",
"X. c #674C37",
"o. c #7C5C34",
"O. c #716053",
"+. c #7B6451",
"@. c #835807",
"#. c #885900",
"$. c #835B14",
"%. c #845B16",
"&. c #845C1A",
"*. c #8E6204",
"=. c #936707",
"-. c #9D7308",
";. c #8A6417",
":. c #8A631E",
">. c #986D16",
",. c #A37609",
"<. c #815D25",
"1. c #825E2B",
"2. c #815F31",
"3. c #8D6523",
"4. c #86622D",
"5. c #89632B",
"6. c #926925",
"7. c #936C2A",
"8. c #9A7026",
"9. c #96702D",
"0. c #9A732D",
"q. c #856233",
"w. c #8A6534",
"e. c #8C6835",
"r. c #84653C",
"t. c #89673A",
"y. c #8C6A3C",
"u. c #926C35",
"i. c #916D3B",
"p. c #9C7633",
"a. c #95723C",
"s. c #9B773A",
"d. c #A27827",
"f. c #A17A34",
"g. c #A47E3A",
"h. c #856943",
"j. c #8C6D44",
"k. c #876B48",
"l. c #906F43",
"z. c #8F7247",
"x. c #8E724C",
"c. c #947244",
"v. c #9C7A46",
"b. c #94754B",
"n. c #97794E",
"m. c #9A7A4D",
"M. c #826D5C",
"N. c #937753",
"B. c #967954",
"V. c #9A7B53",
"C. c #9A7E5B",
"Z. c #A27E44",
"A. c #927B63",
"S. c #AC8218",
"D. c #B08C29",
"F. c #A8823D",
"G. c #A8823E",
"H. c #9F8255",
"J. c #9D815D",
"K. c #A68342",
"L. c #A98544",
"P. c #A4834C",
"I. c #AB874A",
"U. c #AC8A4C",
"Y. c #B18D4A",
"T. c #A48657",
"R. c #AC8C53",
"E. c #AB8D5C",
"W. c #B08F53",
"Q. c #AF9055",
"!. c #AE915C",
"~. c #B29155",
"^. c #B3945D",
"/. c #9D8462",
"(. c #94867A",
"). c #A28665",
"_. c #A58A65",
"`. c #A48A6D",
"'. c #AE9364",
"]. c #AB926C",
"[. c #B39662",
"{. c #B69964",
"}. c #B89A65",
"|. c #B2956B",
" X c #B59B6A",
".X c #B89D6C",
"XX c #A48D73",
"oX c #A88E73",
"OX c #AD9573",
"+X c #A9937A",
"@X c #B59C73",
"#X c #B79F74",
"$X c #B6A177",
"%X c #B9A377",
"&X c #BAA47C",
"*X c #999088",
"=X c #9B928A",
"-X c #AC9884",
";X c #AE9C8C",
":X c #A39B95",
">X c #A59F99",
",X c #AFA08F",
"<X c #B6A485",
"1X c #BBA683",
"2X c #BCA984",
"3X c #BCAB8B",
"4X c #BFB18D",
"5X c #A8A29D",
"6X c #BCAE92",
"7X c #B4A599",
"8X c #BDB096",
"9X c #BEB29B",
"0X c #ACA7A3",
"qX c #B6ACA2",
"wX c #B9ACA2",
"eX c #B3AEAB",
"rX c #BEB5A2",
"tX c #B5B1AD",
"yX c #BCB3AC",
"uX c #B6B4B3",
"iX c #BDB8B3",
"pX c #BDBCBB",
"aX c #C0AC8C",
"sX c #C2AF95",
"dX c #C2B594",
"fX c #C5BB9C",
"gX c #C0B8A5",
"hX c #C1BBAC",
"jX c #C2BEB3",
"kX c #C1BEBD",
"lX c #C3C0B8",
"zX c #C5C5C5",
/* pixels */
"zXzXzXpXpXuXeXeX0X0X0X0X5X5X>X:X:X:X:X:X:X:X:X>X>X0X0X5X0X:X:X>X:X>X:X:X:X:X=X*X*X(.A.(.(.*X*X*X*XpXzXzXzXzXzXzXzXzXzXzXzXzXzXzX",
"zX*XV k g s : < ; ; d c c c c c c c k c c c c c c c N C V c k f ; * * * * w k k k V V B c k d s * C pXzXzXzXzXzXzXzXzXzXzXzXzXzX",
"uX) < ; * & % % @ @ < f C _ C b b b _ _ ' ] ..q.c.Z.R.^.Z.2.N c f < # # @ % s c _ Z.'._.Z.u.` w * * :XzXzXzXzXzXzXzXzXzXzXzXzXzX",
"zX+.c c.'.E.P.h % % < y.[.$X#X&X<X<X@X|..X#X.X}.^.}.^.[.}..XR.7.R z f * % % d k q.6XhX9XaX[.!.b * = O.kXzXzXzXzXzXzXzXzXzXzXzXzX",
"pXX.| }.sXjX XU.: ; b '.yXlXhXhXgX9X1X&X#X~.K.0.6.@.~ g.^..X.X.XI.6.R N h h l c u.gX9XU._ q.{.1.; * O.eXzXzXzXzXzXzXzXzXzXzXzXzX",
"pXX.1.[.<XjX6X}.` ; { #XlXhX6X$XT.c.q...` E x p i n K I 8.}.3X8X&X}.Z.&.M N N c 1.@X.X!.v 1.{.e.s s *XuXzXzXzXzXzXzXzXzXzXzXzXzX",
"pX) [ L.~.#X1X}.i.: v.3XlXrX1XR.c b t.b.c.e.l * % * 9 n K =..XsXjXgX1X}.Z.3.P N N W 1.| v u.}.u.g V uXkXzXzXzXzXzXzXzXzXzXzXzXzX",
"uXV v %.d.Y.~.}.s.c R.$XgX9X&XE.v | <X3X}.}.e.; % X . & t F @.R.sXjXjXsXaX}.~.f.5.( ^ } a.^. Xc.g C pXzXzXzXzXzXzXzXzXzXzXzXzXzX",
"eXc c r n L #.0.} h u.^.6XgX$X~._ V ] ] c.3XE.d # @ @ . @ 9 u I G.&XhXjXjXgX3X2X&X%X3X3X8X2X.Xv.l X.pXzXzXzXzXzXzXzXzXzXzXzXzXzX",
"0Xc v b f t y u u 0 a K. X2X&X.X| c c c y.jX@X` % @ @ . . @ - y L d.^.sXjXjXjXjXlXlXjXhX3X%XZ.`  .'.iXzXzXzXzXzXzXzXzXzXzXzXzXzX",
"0Xv v.E.R.a...b f w 0 I Y.}. X}.a._ | e.&XkX1Xw.: @ @ . @ . . & y K >.Y.%X6X9XgX8X1X#XE.i._ b c.#XhXyXzXzXzXzXzXzXzXzXzXzXzXzXzX",
"eXc I.9XhXrX3X&X'.q.r u #.~.^.}.[.~.6XjXjX9XR. .< @ @ @ @ @ @ . $ q F -.G.Y.Y.Y.F.$.F t - E !.1XhXjXeXzXzXzXzXzXzXzXzXzXzXzXzXzX",
"eXc a.sXrX|.V.T.|.^.x 9 F >.~.{.}.#X3X#XR.7.F i : @ @ @ @ @ @ @ X $ 9 y #.>.*.@.F u e 9 p ^.#X8XjXjXqXzXzXzXzXzXzXzXzXzXzXzXzXzX",
"tXV | 3XgX[.N V  .}.2.$ q L d.Y.^.Y.f.@.F n t 9 $ # # $ % # % # # # * w y n y y q - # & H L.^.1X6X6XyXzXzXzXzXzXzXzXzXzXzXzXzXzX",
"tXb C |.sX X` c 1.#XZ.9 & q I >.%.L F n t q & & * : < < ; ; * $ * : s d f w 0 - & # # * q K ;.I. X.XtXzXzXzXzXzXzXzXzXzXzXzXzXzX",
"tXY x a.#X[.| c c.rXI.t 9 & 9 y t y y 0 0 * d g k c c k g g h j g c k c c g g g s * * : * q u n P 3.qXzXzXzXzXzXzXzXzXzXzXzXzXzX",
"tXh u ! I.}.| C #XrX~.F 9 & # * w d l k c l c c h c c h h c c c c k c c c c c f B s ; ; ; * 0 t u u +XuXpXzXzXzXzXzXzXzXzXzXzXzX",
"tXw q n R { b T.gX&Xa.u - $ @ # f #.#.#.=.-.,.S.D.S.S.-.=.*.#.I m m K I #.g + ,.d.D.S.+ s < < ; : l 5XuXuXpXpXzXzXzXzXzXzXzXzXzX",
"iXh 9 q a l | &X%Xs.r - & & @ * g #.f.g.G.U.Q.^.{.^.Q.U.F.F.p.8.=.#.=.9.#.k > n #.,.@.= d d d s < < 0XpXkXpXpXzXzXzXzXzXzXzXzXzX",
"pXj $ & f C R.}.v.f d r i 0 * * c #.f.> 3 3 3 3 3 3 3 3 3 3 > 5 4 4 1 8.#.c 1   o o o 1 g g k c j V 0XuXzXzXzXzXzXzXzXzXzXzXzXzX",
"uX* # * k c.}.Z.h b P.E.<.M r w j *.F.3 6 6 6 6 6 6 6 6 6 6 6 6 6 6 3 8.#.c 2 O o o O > c B c c c ) pXzXzXzXzXzXzXzXzXzXzXzXzXzX",
"5X# % g 1.}.Z.k b '.rXrX3XZ.R x l I 0.3 6 6 6 ' :.-.-.=.I G j 6 6 6 3 8.#.v 2 O o O O 3 c c c c c ) pXzXzXzXzXzXzXzXzXzXzXzXzXzX",
"=X# * b R.R.b C E.iXjX6XsX3XT.N h #.0.3 6 7 / *.J g @ o X : n i 5 6 3 8.#.j 3 O + O O 3 c c c c c C pXzXzXzXzXzXzXzXzXzXzXzXzXzX",
"5X< g 2.}...v V.rXjX3Xb.OX3X&XW < #.F.3 6 Q F O = = O O >     - 0 6 3 8.#.c 6 + O + + 4 c c c c c V pXzXzXzXzXzXzXzXzXzXzXzXzXzX",
"uXB c _.OXv i.6XjX6XZ.N s.#X#XW : #.f.3 6 *.j b A A A + =     . m 6 3 8.#.c 4 + + + + 4 B V c c k C zXzXzXzXzXzXzXzXzXzXzXzXzXzX",
"eXV N <XE.V I.&X3X!.^ N P.$X^.p 9 #.f.3 6 *.E dX|.aXC.= o +   X n 6 3 8.#.c 6 + + + > 6 c c c c V X.pXzXzXzXzXzXzXzXzXzXzXzXzXzX",
"uXC ..6Xb.c | [.}.3.N ! <X8X!.t q #.f.3 6 W L 6XaXoXB = O O O 9 0 6 3 8.#.c 8 > = > > 6 c c c k c X.zXzXzXzXzXzXzXzXzXzXzXzXzXzX",
"uXV Z.6Xe.c c | 1.z v 2.9X6XU.q r #.f.3 6 7 / =.<.f = = , 9 D i 5 6 3 8.#.V 6 1 > 1 1 6 c c c c c +.zXzXzXzXzXzXzXzXzXzXzXzXzXzX",
"eXV |.3XE.i.` c v v ' oXhX<Xs.t r #.f.3 6 6 6 ` :.>.,.=.@.H j 6 6 6 3 9.#.k 8 1 1 1 1 8 c c c c c M.zXzXzXzXzXzXzXzXzXzXzXzXzXzX",
"eX_ }.@X}.1X6X-XOX+XsXhX9X.X%.y r #.p.3 6 6 6 6 6 6 6 6 6 6 6 6 6 6 3 8.#.c 8 2 2 2 2 Z c c c c c M.zXzXzXzXzXzXzXzXzXzXzXzXzXzX",
"0X_ ^.}.[..X3XgXgX6X3X#X^.p.F t h #.f.> 3 3 3 3 2 3 3 3 3 3 3 3 3 3 > 8.#.c Z 2 4 4 2 Z c k c c h O.zXzXzXzXzXzXzXzXzXzXzXzXzXzX",
"eXv w.U.W.!.[.}.}.!.P.e.H F u 9 f #.f.g.F.U.Q.^.^.^.~.I.K.g.f.8.=.#.=.9.#.c Z 4 4 4 4 Z c c c c c M.zXzXzXzXzXzXzXzXzXzXzXzXzXzX",
"uXX.h c v C _ A S c d < : & & : v #.#.*.=.-.,.S.D.S.,.-.=.#.#.@.m m m @.#.X.Z Z Z Z Z Z c c C M.A.eXzXzXzXzXzXzXzXzXzXzXzXzXzXzX",
"h.r.r.r.q.t.e.y.r.o...o.| ..q.i.b.n.m.V.m.H.V.b.y.h.o.h.l.x.x.V.C.C.z.h.r.j.z.b.c.b.n.m.m.m.V.V.B.j.h.h.k.N.B.C././.J.C.B.N.k.x.",
"r z E W { <.2.5...} W Y x a H ^ ( 5.4.3.5.5.3.} T i r i T ! { 1.5.2.<.W x z N R %.<.1.5.w.5.5.<.^ S r r N T ^ 1.4.5.4.} ^ ! x z ",
"S ` 1.e.b.C.`.C.H.b.y...E S ^ 1.u.c.H.).J.m.m.c.w.E x W ..t.N.T._.C.b.2.[ N T <.e.i.m.T.).V.m.b.e.{ x Y [ 2.l.V.).).V.b.z.o. .' ",
"W ..e.b.`.,XwXwX;X`.C.j.] ^ 1.i.m.+X7XyXqX-X`.J.n.{ W  .t.b.XX7XwX7XoXC.r.W } w.b.C.,XyXyX7XXX).V.y.W ` 4.j.C.-XwXwX;XA.J.x.r.o.",
"` o.y.C.-XwXjXiXqX;XXXN.....y.V.).,XpXlXjX7X-X`.V.o.W  .h.C.;XyXjXyX,XA.j.| 4.c.C.+XwXkXkXyX,X+X/.c.[ ` q.j.XXqXhXjXwX-X/.J.j.+.",
"` ..j./.-XwXyXyXyXqX-XN.o.q.y.C.+X,XyXiXjXqX,X+XJ.o.E  .t.C.;XyXhXyXwX-Xz...w.c.).-XqXjXiXyX7X-X`.b.` ` 2.N.XXqXyXhXwX7X-X/.x.k.",
"W  .j.N.`.;XwXwX7X;XXXN.o.1.e.V.`.-X7XwXqX,X-X`.n...E  .t.B.XX,XqXwX,X`.j...q.c./.+X;X7XwX7X;X+X/.y.W W o.b.C.-X7XqXqX-XXXA.x.k.",
"W  .q.z.V.).oXOX+X).C.b.....5.i.V./.+X+X+X+X).V.y.[ S [ q.j.H.).oXoXA.C.y. .1.e.b.C.oX+X+X+X`.H.b.o.E W ..t.b.C.A.-XoXC.C.V.y.2.",
"z W  .q.e.b.V.V.m.n.l.r.` ! ( 4.y.c.b.n.m.b.l.e.1.Y z E [ w.y.n.V.V.V.b...W ( <.w.i.c.m.m.n.b.i.5.^ z S ` 1.y.c.V.V.V.V.m.y.| A ",
"r z S W { 1.e.e.w.4...` N Y R ^ ( } <.<.<.<.&.^ R a r l S W } q.e.t.w.<.E x R Q ^ ( <.<.} 4.} ( Q T r r x E | 1.w.l.w.e...` b N ",
"h.h.k.x.B.C./././.J.V.b.x.b.b.n.m.n.m.V.V.V.V.n.b.j.r.h.k.x.B.J.C.C.C.k.k.b.n.b.m.n.n.V.V.V.V.V.b.z.h.h.h.z.N.C.C.C.C.C.C.N.k.N.",
"zXzXzXzXzXzXzXzXzXzXzXzXzXzXzXzXzXzXzXzXzXzXzXzXzXzXzXzXzXzXzXzXzXzXzXzXzXzXzXzXzXzXzXzXzXzXzXzXzXzXzXzXzXzXzXzXzXzXzXzXzXzXzXzX",
"zXzXzXzXzXzXzXzXzXzXzXzXzXzXzXzXzXzXzXzXzXzXzXzXzXzXzXzXzXzXzXzXzXzXzXzXzXzXzXzXzXzXzXzXzXzXzXzXzXzXzXzXzXzXzXzXzXzXzXzXzXzXzXzX",
"zXzXzXkX& w f c c & & $ & & & & - - - - - 9 9 9 9 q q q q e q t y t t t t y y n n D G R R ( { <.4.e.i.c.b.Z.T.)._._.'.].OXOX@XOX",
"zXzXM.V l v z x v l l e t y y y i a a M F G H H J P P U U ~ U %.&.&.%.%.%.%.&.:.3.3.7.9.s.s.P.P.U.E.!.'.|.@X@X#X&X1X1XaX3XaXaX3X",
">Xc c v ^ 3.&.$.M M x x Q Q U Q ~ %.&.&.<.&.3.6.6.8.9.0.p.f.f.f.F.F.G.G.F.F.L.U.K.U.U.R.!.[. X X$X%X&X&X2X4X4X4X9XfXfXfXfXfXfXfX",
"c c 1.Y.K.I.I.K.d.U F a c R Q ~ ^ &.&.<.&.3.3.6.6.9.9.0.0.p.f.f.F.F.G.G.F.F.F.G.K.U.Q.U.^.[. X X#X%X&X2X2X3X4X4XdXdXfX9XfXfXfXfX",
"c q.R.}.3X3X6X6X#XZ.%.F N c a i i u M m H M H H J P P U U $.U $.U ~ ~ ~ ~ ;./ } } S.7.F.F.K.K.P.U.E.^.'. X X$X&X&X&X2X3X3X3X4X4X",
"c I.}.6XgXrX6X3X6X#XG.$.M l c 0 - - - & 9 9 9 9 9 q q q e q e e e D e q D D D D D S D T T T } } o.e.i.c.b.H.H.T.E.].].].OX@XOX].",
"c ~.3XgXgX3X[.~.~.}.^.g.;.K x c - - - 9 r 0 9 9 9 9 q q q e e t e D e e D D D D D D J J W / } ..4.e.i.z.P.H.H.H._._.'.'.OXOXOXOX",
"c [.8XgX2XR.p.G N a.~.W.g.;.m N v a a c c v c S J P P U U ~ ~ ( ~ ~ ;.( ~ ~ / } } } } F.9.F.K.P.R.Q.!.[.].].%X%X&X2X2XaXaXaXaXaX",
"c }.sX8X[.3.G G b c ] Y.W.g.$.m x E v v x a a z W 7.9.0.f.f.f.f.F.F.F.F.F.F.L.L.L.U.Q.Q.!.{. X X$X%X%X2X2X4X4XdXdXdXfXfXfXdXfXfX",
"c [.6X@Xg.F M x 4._ v ( |. Xp.L m x c c K.f.;.F M ( 0.0.0.f.f.f.0.F.F.F.F.F.F.L.U.U.U.Q.!.[. X X#X%X%X2X2X4X4X4XdXdXdXfXfXlXfXfX",
"c ^.&XW.;.G i S W.[.[ x { ].@Xp.F G x U. X3X|.6.F N R U ~ U ~ ~ ~ ~ ~ ;.;.~ ;.:.} 6.7.9.F.K.K.P.R.E.'.'.|..X#X%X1XaXaXaXaXaXaXaX",
"c [.[.I.H i : : 1.}.^...N %.+X#X9.F G K. X9XrX&X:.G i e e e t e t t t t t t y u D D G J R W } ..4.e.e.c.n.V.H.J.E._._.].].OXOX].",
"c }.^.g.G p w d c u.^.^.v Y &.].<Xs.L T c q.<X8XK.F a q q e t t t D t t t e y y D D G R R / / } 4.e.i.c.v.m.H.T.T._.].'.OXOXOXOX",
"c W. X~.G x l l v Z.[.^.` z G I E.<XE.g.E _ T.1XZ.F a T ~ U ~ ~ ~ ( ~ ;.;.;.;.:.;.3.7.9.F.a.P.P.P.E.E.'.|.@X#X%X<X1XaXaXaXaXaXaX",
"c q. X%X'.Q.!.^. X%X{.^.p.v z m P Z.<X].~.u.~.[.3.G x 8.0.f.f.g.g.g.F.F.F.F.K.K.L.U.Q.Q.^.^. X X$X%X&X&X2XaXdXdXdXdXdXfXfXfXfXfX",
"c c ^..X<X9X6X9X9X6X[.U.&.z f l G L 8.U.[.~.I.0.H x 3.p.p.p.f.f.g.g.g.F.F.F.K.L.U.U.Y.Q.^.{. X X%X%X&X2X2XaX4XdXdXdXfXfXfXfXfXgX",
"c x <.g.U.E.'.].E.L.9.U G p : - 0 i m $.u.p.( M a T P U U ~ ~ ~ $.~ $.$.&.$.;.:.} 6.7.9.s.K.K.P.U.E.^.'.|..X@X&X&X1X1XaXaX6XaXaX",
"C x N M M M G G G F G a p w w < : w h x z x z l q 9 q q q e t e t y t t y t y u D D G R R Q } } o.e.a.c.b.V.T.T._._.].OX].OX@X X"
};
