/* XPM */
static char *out[] = {
/* columns rows colors chars-per-pixel */
"64 64 227 2 ",
"   c #040303",
".  c #0D0401",
"X  c #090B09",
"o  c #110701",
"O  c #160A02",
"+  c #0A110C",
"@  c #0B180F",
"#  c #1E1103",
"$  c #0D1410",
"%  c #0F1C13",
"&  c #131313",
"*  c #101B14",
"=  c #171C1A",
"-  c #240F04",
";  c #2A1203",
":  c #291503",
">  c #371B04",
",  c #0F2316",
"<  c #112016",
"1  c #15251B",
"2  c #16291E",
"3  c #18291D",
"4  c #3E2205",
"5  c #172E20",
"6  c #192C21",
"7  c #1B3224",
"8  c #1E3428",
"9  c #1E3A29",
"0  c #212121",
"q  c #242628",
"w  c #2B2C2F",
"e  c #253A2B",
"r  c #223F2E",
"t  c #343535",
"y  c #373A3C",
"u  c #3B3C3C",
"i  c #472607",
"p  c #452708",
"a  c #552B04",
"s  c #592D04",
"d  c #512F0E",
"f  c #57320D",
"g  c #543211",
"h  c #5A3512",
"j  c #5F3A15",
"k  c #663609",
"l  c #73370E",
"z  c #673D17",
"x  c #22412C",
"c  c #26492F",
"v  c #244532",
"b  c #2C4433",
"n  c #264A33",
"m  c #32463A",
"M  c #364C3F",
"N  c #265236",
"B  c #2A5135",
"V  c #2C543B",
"C  c #2E583B",
"Z  c #35513F",
"A  c #305D3C",
"S  c #7B400F",
"D  c #6D431B",
"F  c #76481D",
"G  c #774020",
"H  c #754A21",
"J  c #7A4C23",
"K  c #7E5127",
"L  c #3F4143",
"P  c #3E4F46",
"I  c #3C5345",
"U  c #375A45",
"Y  c #306B43",
"T  c #3D7D51",
"R  c #424345",
"E  c #4A4C4E",
"W  c #44554B",
"Q  c #415B4A",
"!  c #4A4D51",
"~  c #4B5553",
"^  c #535558",
"/  c #5A5B5C",
"(  c #4A6655",
")  c #546C5F",
"_  c #417F55",
"`  c #52785B",
"'  c #6F655F",
"]  c #70665E",
"[  c #5D5E64",
"{  c #5E6164",
"}  c #5A7666",
"|  c #646568",
" . c #65696C",
".. c #6B6D6E",
"X. c #736964",
"o. c #776E6A",
"O. c #666C73",
"+. c #6A6D70",
"@. c #6C7072",
"#. c #7D7672",
"$. c #72767B",
"%. c #757679",
"&. c #B21C05",
"*. c #B5210C",
"=. c #B62212",
"-. c #BB2818",
";. c #BB3123",
":. c #C5280A",
">. c #C72D16",
",. c #C4301F",
"<. c #C53425",
"1. c #CB3626",
"2. c #C83D30",
"3. c #934D0C",
"4. c #85461A",
"5. c #8B491D",
"6. c #A35817",
"7. c #8A4C22",
"8. c #934E21",
"9. c #875627",
"0. c #965122",
"q. c #975528",
"w. c #9B5A2E",
"e. c #8A5E31",
"r. c #9A5B32",
"t. c #A45E28",
"y. c #98622E",
"u. c #8D6333",
"i. c #9A6838",
"p. c #B36B2D",
"a. c #A46738",
"s. c #A4653A",
"d. c #B76E32",
"f. c #AA713B",
"g. c #B97439",
"h. c #CB4133",
"j. c #976D43",
"k. c #997644",
"l. c #A46A44",
"z. c #A96C44",
"x. c #AB7648",
"c. c #B37B46",
"v. c #AA7554",
"b. c #AE7955",
"n. c #B07B56",
"m. c #847C76",
"M. c #837D7A",
"N. c #B47A77",
"B. c #4A855D",
"V. c #598866",
"C. c #638C6A",
"Z. c #68916F",
"A. c #648570",
"S. c #77827B",
"D. c #699376",
"F. c #72907B",
"G. c #A8824F",
"H. c #BD8549",
"J. c #A58757",
"K. c #BA8956",
"L. c #BD935D",
"P. c #B38665",
"I. c #B08A6E",
"U. c #AC9566",
"Y. c #BD9562",
"T. c #BD9962",
"R. c #B9996C",
"E. c #BD9C6D",
"W. c #B39E73",
"Q. c #BD9F72",
"!. c #BDA175",
"~. c #B3A37A",
"^. c #BAA37B",
"/. c #777B80",
"(. c #7B7E82",
"). c #7D8387",
"_. c #7C9B85",
"`. c #898382",
"'. c #818589",
"]. c #858A88",
"[. c #8E8A8A",
"{. c #818991",
"}. c #8B8E92",
"|. c #8F9195",
" X c #959191",
".X c #93969B",
"XX c #9A9798",
"oX c #93989D",
"OX c #9D9B9C",
"+X c #B19492",
"@X c #88A38E",
"#X c #8DA793",
"$X c #95AC98",
"%X c #BDA682",
"&X c #BEAC8C",
"*X c #BCB38E",
"=X c #B7AD99",
"-X c #999CA1",
";X c #9DA2A4",
":X c #9DA2A8",
">X c #A4A3A4",
",X c #A6A9A4",
"<X c #A4A5A9",
"1X c #A8A7A9",
"2X c #A6AAAA",
"3X c #ABABAD",
"4X c #B5ABAB",
"5X c #ABB3A9",
"6X c #B9B7A7",
"7X c #B1B7AD",
"8X c #ADAFB1",
"9X c #B0AFB0",
"0X c #AFB1B4",
"qX c #B3B3B4",
"wX c #B6BAB3",
"eX c #B8BCB6",
"rX c #B5B6B8",
"tX c #B8B8B8",
"yX c #BCBCBC",
"uX c #C38D8B",
"iX c #C1ACAB",
"pX c #C1BBAB",
"aX c #C1BEB8",
"sX c #C2C1B9",
"dX c #BDBFC1",
"fX c #BEC1C1",
"gX c #C4C4C4",
/* pixels */
"sXsXsXsXsXaX*X*X&X*XsXsXpX&X&X&X&X&X&X&X&X&X&X&X&X&X&X&X&X&XiX0.6.z.P.s.0.w.v.l.z.w.0.rXrXrXrXrXrXrXrXrXrXrXrXrXrXdXdXdXdXdXyXdX",
"sXsXsXaXpXeX6X!.!.!.%XeXsX*X!.!.^.^.!.!.!.!.!.^.!.!.!.!.&X&X&X0.w.b.P.r.8.x.v.w.s.s.0.qXrXqXqXqXqXrXqXqXqXqXqXqXqXyXyXrXrXrXrXtX",
"pXsX6Xy.D h j j z g g g g g g g g g g g f h h j h g j f.E.!.%X0.z.v.s.t.q.v.7.q.z.s.l.qXqXqXqXqXqXqXqXqXqXqXqXqXqXyXyXqX0X0X9XyX",
"%X6X&X- # # o o o . . o o o o o o o o o o o o o o # 4 i.Y.R.i.r.z.s.x.s.z.w.7.r.z.s.l.8X8X8X8X8X8X8X8X8X8X8X8X8X8XyXrX8X4X8X8XyX",
"%X!.&X4 > - : : : p p p p j G.G.u.4 p 4 p > - - : : a !.^.T.e.s.z.t.x.b.l.7.8.s.n.x.0.3X1X8X3X3X1X3X1X8X1X8X3X3X9XtXtX3X3X3X3XrX",
"*X!.Y.h h : i.6X~.J.J.J H H u.~.~.J.J K H p J.Q.h p h ^.%XT.u.q.z.c.N.z.0.8.0.z.I.n.0.1X1X1X1X1X1X1X1X1X1X1X1X1X1XqXtX1X1X1X1XrX",
"*XQ.L.d d > sXeX*XJ.U.U.J J H u.~.~.J.J z z %XR.i.> F !.!.K.j.7.w.v.b.s.w.r.w.b.P.s.0.>X>X>X>X>X>X>X>X1X>X1X>X>X>X9XqXqX4XqXrXrX",
"pXQ.Y.k g > *X%XU.G.U.W.U.K J J u.U.J.j.D g J.D : : x.W.T.H.J.7.8.s.b.z.w.w.s.l.z.s.0.>XOXOXOX-X-XOXOXOXOXOXOXOXOX9XqXqXqXqXqXqX",
"sX!.L.9.9.: K i.K G.U.W.~.U.K F H u.J.k.K g > # O > L.T.Y.H.aX0.0.z.n.z.r.r.7.w.z.s.0.XXXXXXXXXXXXXXXXXXXXXXXXXXXX4X9X>XOX,X3X4X",
"gX*XE.f.y.D 4 G.U.W.W.W.~.~.U.K H H K j.e.K h d d > L.L.K.s.gX0.w.z.b.b.l.8.5.s.n.b.q. X X X X X X X X X X X X X X>X3X X X X X3X",
"gXsXE.f.F D 4 J U.~.~.~.~.~.W.J.H H D J K K H H d s E.T.H.4XgXw.r.z.P.s.4.7.l.b.b.b.s.[.[.[.[.[.[.[.[.[.[.[.[.[.[.OX4X[.[.{.[.,X",
"gXgXE.g.D F 4 D J U.~.~.~.~.U.J.k.D D H K H J H > y.Q.E.H.gXgXw.w.n.z.w.q.z.q.q.s.b.w.`.`.`.`.`.`.`.`.`.`.`.`.`.`.XX1X`.`.(.I.>X",
"gXgX!.T.y.a.a d K K U.~.~.U.U.G.k.e.H H J J D a - Y.Q.L.6.gXgXq.l.l.l.z.l.5.4.w.n.b.5.M.M.M.M.M.m.M.m.M.M.M.M.M.m. XOXm.M.M.M.OX",
"gXgX^.L.a.a.y.4 H H K U.W.U.J.k.u.e.K J J F s > k Q.Q.H.z gXgXl.l.r.b.v.5.4.r.v.n.w.7.#.#.#.#.#.m.#.#.#.#.#.#.#.m.m.>X#.#.#.#.[.",
"gXgXaXL.f.y.y.4 j H H K J.J.k.i.e.9.9.F D k i ; L.Q.L.t.Y.Y.P.v.7.l.n.r.w.v.8.r.z.r.7.o.o.o.o.o.o.o.o.o.o.o.o.o.X.o.OX#.o.o.o.M.",
"gXgXgXY.K.a.f.y.4 H K H H k.k.u.9.J F z s a > k Q.E.H.i L.K.L.q.8.z.z.l.s.8.8.r.l.s.8.X.X.X.X.X.X.X.X.X.X.X.X.X.X.X. Xo.X.X.X.X.",
"gXgXgX&XL.g.a.a.> D H J J J u.9.J D k s s a - Y.!.L.t.u K.K.K.5.t.s.s.v.8.8.7.r.z.s.w.X.] ] ] m.' ' X.' ' X.' ' ' ' X.] ] X.] ] ",
"gXgXgXgXL.K.f.c.w.p H J J J H F k s s s s > > Q.Q.H.i H.G.H.H.8.w.s.N.z.0.7.8.z.P.v.s.1.1.1.>.>.uXgXdXaXgXiX2.1.1.1.>.uXgXaXgXaX",
"*X*X*X*XE.L.c.c.c.4 z G F D k s s s s s i ; K.^.T.p.. c.c.c.c.0.0.z.N.s.0.w.l.N.n.t.0.1.1.1.1.:.uXgXdXgXgXiX2.1.1.1.>.uXgXaXgXaX",
"*X*X*X*XsXa.f.c.c.f.> k k s s s s s s i > k !.Q.H.i x.f.x.x.x.4.5.s.s.8.8.w.8.7.r.7.l 1.1.1.1.>.uXgXdXaXgXiXh.1.1.1.>.uXgXdXgXgX",
"*X*X*X*XgX=XS c.g.d.i > a s s a s s a > > Q.!.Y.3.o f.f.a.f.a.k l l 5.l l l l G G G k <.1.1.1.>.uXgXaXgXdXiX2.1.1.1.>.uXdXgXgXdX",
"T.T.T.T.gXgX4.g.d.d.g.> > a s s s s 4 - R.!.E.H.: i.i.a.i.i.a.^ [ O./.O.[ ! ! R y R ^ 1.1.1.1.>.uXgXgXdXaXiX2.1.1.1.>.uXgXdXdXaX",
"T.T.T.T.gXgXgXd.H.H.H.g.; > a a a 4 ; K.!.!.K.a . y.y.y.y.y.y.%.(.}..X}.(././.[ ^ [ +.1.1.1.1.:.uXgXyXdXdXiX2.1.1.1.:.uXgXyXdXaX",
"T.T.T.T.gXgXgXpXd.H.H.H.g.; > a 4 ; H.%X!.K.s   9.9.9.q.9.9.9..X:X1X8X1X-X.X X}./.}..X,.,.,.,.:.uXdXyXyXaX4X1.<.1.>.:.uXdXaXdXyX",
"i p p p gXgXgXgXG.t.H.H.H.d.> ; ; f.%X!.K.l o   9.9.7.K 9.9.9.<X1X0XrX0X1X:X<X-X|.-X<X,.,.,.,.:.uXdXaXtXaX4X2.,.,.,.:.uXaXaXrXyX",
"i i i p gXgXgXgXgX9.d.H.H.H.g.4 z.%X!.L.l     F F F F F 4.F F 3XqXrXrXrXrX0X0X1X<X1X0X,.-.,.>.:.N.yXtXaXiX4X;.;.,.>.:.uXyXtXtXtX",
"i i p i gXgXgXfXgXsX6.H.H.H.H.T.^.Q.K.k       D D D D D F D D rXrXyXdXdXrXrXrXqX8X0XrX-.-.>.-.*.uXrXaXqXrX4X;.-.-.>.*.N.dXiXaXrX",
"gXgXgX5XS.I 8 U S.3XgX3.3.H.L.E.E.H.i .     . z D z D D z z z 8XqXrXrXrX0X0X0X1X:X3X8X-.-.-.=.*.N.rXqXtXtX+X;.-.=.=.*.N.rXqXrXqX",
"gXgX].9 7 7 7 7 q 7 ].eX4 l g.H.g.-       . > z h k j j j j j -X<X3X8X1X<X-X-X.X{..X-X=.=.=.-.&.N.rXqXqXqX+X;.=.=.=.&.N.rXqXqXqX",
"gX}.7 5 @ C 9 7 + m 2 }.wXS 4.> .       o 4 a h h h h h h h h '.}..X-X-X}.'.'./. ./.'.=.=.=.*.&.N.rX4X9XqX+X;.=.=.=.&.N.rX8X4X4X",
"2X9 2 x ( c 7 9 Q 7 1 7 ,XgXx.-       - i s s d d f g g g f g  .@.).{.(./.| | [ E ^ | =.=.*.*.&.N.qX9X9XqX+X-.=.=.*.&.N.0X4X8X9X",
"S.7 @ U C N , U x 3 + 3 S.3 7 7 7 9 r v b B V U C B n n x 9 7 7 6 { 6 6 = 0 & & $ + X X   gXgXgXyX1X(.! $.:XdXgXgXgXgXgXgXyX>X%.",
"I 9 Q N v Y ` N 5 7 W 6 W 6 6 6 8 9 r v v V V U N U U v r 9 7 7 6 { 6 6 6 5 * $ $ X X     gXgX8X^ { ....| ^ E 3XgXgXgXgX1XE u u ",
"7 7 9 9 , T N 9 % m 6 6 6 6 6 7 8 8 r v N V V V U N v v r 9 8 7 5 ) 6 5 5 * = * $ + X X X gX8X/ $./.)./.%.../ E qXgXgX,XL t w 0 ",
"P 7 2 x ( v 7 9 Q 7 1 6 W 3 6 6 8 9 r v N V V Y N n n v r 9 8 5 5 ) 6 6 5 5 * * $ + X X   yX^ $.)..XoX.X'.%.| / E aXyXR t 0 & & ",
"S.7 + V 9 7 @ M 7 2 + 6 S.3 6 6 8 9 r v v V V V N U n v r 9 7 8 6 ) 6 6 = 6 * * $ X X X X <X{ (..X8XrX3X.XS...[ ~ >X>Xy 0 & & & ",
"2X7 W 7 2 7 Q 7 1 6 W 6 3X3 6 7 8 9 r v N V V V U U r r r 9 8 5 6 ) 6 6 2 1 < * $ + X     /...(.-X0XdXqX-X)...| / %.#.t = & & & ",
"gX].6 2 + m 7 1 + b 6 ].gX6 6 7 8 9 r v v V U V N N v v r 9 8 5 6 ) 6 6 2 1 < * $ + X X   ! ../..X8XrX3X.X/...[ / R E w & & & & ",
"gXfX].6 6 6 6 6 6 7 ].fXgX7 3 7 8 9 r v v V V V U v N r v 9 8 6 6 ) 6 6 2 = < & $ + X   X %.| %.)..XoX.X).$.| ) ^ %.#.t 0 & & & ",
"gXgXgX2X%.W 7 I S.3XgXgXgX3 3 7 7 9 r v N V V U N U N v 9 9 8 5 6 ) 6 6 2 6 < * $ X X X   1X^ ..$.S.).S.$...{ / ^ ,X>Xu 0 & & & ",
"} ) } A.F.F.#X$X$X$X@XF.F.Z.} ) ) ) ) ) ) ) ~ U I I ( ( } { ) ..[ O.| +.[ ....`.`.`.+...| aX! [  ...@... .{ / ^ E yXaXR y 0 = & ",
"1 1 3 3 e e c c B c c 9 7 7 3 1 2 2 2 2 2 * * * $ % * 1 1 1 1 0 X X & 0 & 0 = t w t = 0 & gX8X! / { { [ / / / ! 3XgXgX3XL t w q ",
"6 3 7 9 x c N C A C B n x 9 5 5 2 5 6 6 2 2 2 * * , , 6 5 6 6 0 X X & 0 & 0 = t w t = 0 & gXgX9XE ! / / ^ ^ ! 8XgXgXgXgX1XE R u ",
"6 6 7 8 x c N C C C B c x e 7 3 2 5 6 6 6 2 1 , % * 1 5 5 6 6 0 & 0 & 0 & 0 = t w t = 0 & gXgXgXaX,X%.E $.>XdXgXgXgXgXgXgXtX>Xm.",
"6 6 7 e x c N A A C N n r 8 5 2 2 2 2 2 6 2 , , % * 1 1 6 6 6 }..X<X0X0X0X:X-X}.[. X(.O.(.}.}..X:X2X8X0X0X<X-X-X}.}.}.'.%. .$.'.",
"L I P U ( ` V.C.Z.C.V.` ( U U I I U L U P m v w e e b M M M M L ! O.).oX).O.! L L L w = w L L ! { $.)..X).$.{ ! L L L t q = q t ",
") ) } A.D.U.@X#X$X$X@X_._.} ) ( ( ) ( ) ) ( ~ U P W ~ ( ) ) ) / O.'.-X-XoX)./.[ / / R w R / /  ./.|.-X:X-X}./. ./ / / ! y w y ! ",
"n I P U T ` V.C.D.V.V.` ) U I I U L L I U L y v e r b m M M M / +.'..X-XoX).O.^ / / R w R [ / | /.).-X:X-X}./. ./ / / ! y w u ! ",
"5 2 5 9 x c B A A B B c x 9 5 3 6 6 6 6 6 1 1 * % 1 1 6 6 6 6 / O.).oX:X#X@X_.D.D.B._ T T B.V.D._._._.$X_._._.D.V.B./ ! y w y ! ",
"I L U U ( V.V.C.Z.C.C.B.( Q I Z M M M M I m m e e e r m M M M / +.).oX:X#XeXeXwX7X7X5X5X5X7X7XwXrXrXrXdXeXwXeXwXwXB./ ! y w y ! ",
") { } A.F.F.@X#X$X$X@XF.F.C.} ) ) ) ) { ) ( ~ I I W ~ ) ) ) ) / +.'.oX:X#XwXwXwXwX7X7X7X7XwXV.D.wXwXeXeXeXwXwXwX7XB.) ! y w y ! ",
"U P I U ( ` V.C.Z.C.V.` ( Q I M M M V m M m b r e e b m M M M / +.'.oX:X#XrXwXwXwX7X7X5X7X7XV.D.wXeXeXeXwXwXwXwX7XB./ ! y w y ! ",
"5 5 7 9 x n B C C C B c x e 5 3 6 6 6 6 6 5 1 * % * 1 2 6 6 6 / +.'.oX:X#XwXwXwX7X7X7X7XT B.V.D._._.eXeXeXeXwXwX5XB./ ! y w y ! ",
"6 6 5 9 x v B C A C B c x e 7 3 6 6 6 6 6 5 1 % % , 1 2 6 6 6 / +.'.oX:X#XeXwXwXwX7X7X5XT B.C.D._._.eXeXeXeXwX7X7XB./ E y w y ! ",
"6 6 6 8 x v B C A C B c x 7 7 3 6 6 6 6 6 1 1 1 * % 1 2 6 6 6 / +.'.oX:X#XwXwXwXwX7X7X7X7X7XV.D.wXwXeXeXeXeXwXwX7XB./ ! y w y ! ",
"6 6 6 8 x v B C C C B c x e 7 7 6 6 6 6 6 6 1 , % 1 1 5 6 6 6 / +.).oX:X#XwXeXwX7X7X7X7X7X7XV.D.wXwXeXeXeXeXwXwX7XB./ ! y w y ! ",
"7 3 5 9 x c B A A A B c x 9 7 3 6 6 6 6 6 1 1 * * , , 5 6 6 6 / +.'.-X:X@XwXwX;XwX7X7X@X7X7X7XwX7X5XeX5XwX5X;XwX7XB./ E u w u ! ",
"3 3 7 e x c B B A C B c x 9 7 3 6 6 6 6 6 6 1 , * * 1 1 6 6 6 / +.).oX:X#XrXeXeX$X#X7X@X7X#X$X7XwXrX5XeXwXeXeX$X7XB./ E y w y E ",
"6 6 7 7 x c B A A C B c r 9 7 3 6 6 6 6 6 6 * * % , 1 6 6 6 6 / +.'.oX:X#XwXwX7X0X7X7X7X7X7X7XwXwXwXeXeXeXwX0X7X7XB.) ! y w u E ",
"3 6 7 9 x c B A A C B c r 9 7 6 6 6 6 6 6 1 1 , * * 1 1 6 6 6 / +.'.oX:X#X#X_.D.D.B._ T T B.V.D._._.@X#X@X_._.D.V.B./ ! y w y ! ",
"6 6 7 9 x c B B A C B c x 9 5 3 5 6 6 6 6 1 1 1 , * 1 6 6 6 6 / O.).oX:X-X).+./ / / L w L / /  ./.}.oX:X-X).(.O./ / / ! y w y ! ",
"6 6 7 9 x c B A A C B c x 8 7 6 5 5 6 6 6 6 1 * * , , 5 6 5 6 / O.).oX:XoX).+./ / [ L w L / / O./.{.-X:X-X}./.O./ / / ! y w y E ",
"1 3 3 3 9 x c c c c x x e 3 3 3 1 1 1 2 1 1 * % % % * 1 , 1 5 }.-X:X8X0X8X<XoX}.}.}.(.O.(.}.|.-X:X:X0X0X0X2X-X.X}.}.}.'.$.O.$.'.",
") ) } A.F.F.@X$X$X$X@X_.F.A.} ) ) ) ) ) { ( ( I I Q ~ ( ) ) { L ^ O.).oX).O.~ L L L w = w L L P { /.).oX)./.{ ! L R L t q = q t "
};
