/* XPM */
static char *out[] = {
/* columns rows colors chars-per-pixel */
"64 32 73 1 ",
"  c #777B60",
". c #797C63",
"X c #7A7D64",
"o c #7B7E65",
"O c #7C7E66",
"+ c #7D7F67",
"@ c #7E8068",
"# c #7F8169",
"$ c #80826A",
"% c #81826B",
"& c #82836C",
"* c #83846D",
"= c #84856F",
"- c #858670",
"; c #858771",
": c #868772",
"> c #868873",
", c #878874",
"< c #888975",
"1 c #898A76",
"2 c #8A8B77",
"3 c #8B8C78",
"4 c #8B8C79",
"5 c #8C8D7A",
"6 c #8D8D7B",
"7 c #8E8E7C",
"8 c #8F8F7D",
"9 c #8F907E",
"0 c #919180",
"q c #929180",
"w c #939382",
"e c #949483",
"r c #959484",
"t c #959485",
"y c #969586",
"u c #979688",
"i c #989788",
"p c #999889",
"a c #99998A",
"s c #9A998B",
"d c #9B9A8C",
"f c #9B9B8D",
"g c #9D9C8E",
"h c #9D9D8F",
"j c #9E9D90",
"k c #9F9D90",
"l c #9F9E91",
"z c #A19F93",
"x c #A1A093",
"c c #A2A195",
"v c #A3A196",
"b c #A3A296",
"n c #A4A297",
"m c #A5A398",
"M c #A6A399",
"N c #A6A49A",
"B c #A7A59A",
"V c #A7A59B",
"C c #A8A69C",
"Z c #A8A69D",
"A c #A9A69D",
"S c #A9A79E",
"D c #AAA8A0",
"F c #ABA9A0",
"G c #ABAAA1",
"H c #ACAAA1",
"J c #ACAAA2",
"K c #ADABA2",
"L c #ADABA3",
"P c #AEACA4",
"I c #AFACA5",
"U c #AFADA5",
"Y c #B0AEA6",
/* pixels */
"                                                                ",
"                        o>>>>O                                  ",
"   %>>>3eeeekkkkNZZZHYYYYYYYY;     qkkkkkkkkkkkkkkkkkkkkkkk+    ",
"  iYYYYYYYYYYYYYYYYYYYYYYYYYY%     zYYYYYYYYYYYYYYYYYYYYYYY;    ",
"  yYYYYYYYYYYYYYYYYYYYYYYYYYY$     nYYYYYYYYYYYYYYYYYYYYYYY>    ",
"  eYYYYYYYYYYYYYYYYYYYYYYYYYYO     BYYYYYYYYYYYYYYYYYYYYYYY1    ",
"  0YYYYYYYYYYYYYYYYYYYYYYYYYYX     SYYYYYYYYYYYYYYYYYYYYYYY5    ",
"  7YYYYZZMkkkkeeee2>>>$OYYYYY      HYYYYeeeeeeeeeeeeeeBYYYY7    ",
"  4YYYYS               $YYYYI      PYYYY-             mYYYY0    ",
"  <YYYYF               %YYYYP     .YYYYY$             bYYYYw    ",
"  ;YYYYJ               ;YYYYH     @YYYYYo             xYYYYr    ",
"  &YYYYP               :YYYYG     *YYYYU              lYYYYu    ",
"  #YYYYY               1YYYYS     ,YYYYK              jYYYYp    ",
"  OYYYYYX              2YYYYA     4YYYYD              fYYYYd    ",
"   YYYYY+              6YYYYB     9YYYYC              sYYYYg    ",
"   IYYYY%              8YYYYN     eYYYYm              iYYYYj    ",
"   LYYYY-              0YYYYn     uYYYYc              yYYYYx    ",
"   GYYYY>              wYYYYv     sYYYYk              rYYYYc    ",
"   SYYYY1              rYYYYx     jYYYYf              0YYYYn    ",
"   ZYYYY6              uYYYYl     xYYYYp              9YYYYN    ",
"   BYYYY9              iYYYYj     mYYYYr              6YYYYV    ",
"   nYYYYq              dYYYYf     VYYYY0              2YYYYS    ",
"   cYYYYr              fYYYYd     SYYYY5              <YYYYD    ",
"   zYYYYu             *jYYYYi     HYYYY<              ;YYYYG    ",
"   jYYYYkkkCZZZZFYYYYYYYYYYYu     IYYYYZZBkkkkkteeee5>>YYYYL    ",
"   fYYYYYYYYYYYYYYYYYYYYYYYYr    .YYYYYYYYYYYYYYYYYYYYYYYYYP    ",
"   aYYYYYYYYYYYYYYYYYYYYYYYYw    @YYYYYYYYYYYYYYYYYYYYYYYYYY    ",
"   iYYYYYYYYYYYYYYYYYYYYYYYY0    =YYYYYYYYYYYYYYYYYYYYYYYYYYX   ",
"   rYYYYYYYYYYYYYYYYYYYYDZZZ3    ,YYYYYYYYYYYYYYYYYYYYYYYYYYO   ",
"   1kkkpeeeee,>>>>&               @>>>>1eeeeehkkkkmZZZZFYYYY%   ",
"                                                                ",
"                                                                "
};
