/* XPM */
static char *out[] = {
/* columns rows colors chars-per-pixel */
"64 64 157 2 ",
"   c #000000",
".  c #09090B",
"X  c #0F0F11",
"o  c #151314",
"O  c #1B1A1D",
"+  c #230406",
"@  c #290507",
"#  c #280608",
"$  c #320609",
"%  c #3B070A",
"&  c #36080B",
"*  c #3E090C",
"=  c #1F1C20",
"-  c #231F24",
";  c #212124",
":  c #25242A",
">  c #29252C",
",  c #2F282E",
"<  c #292730",
"1  c #2C2B32",
"2  c #332C32",
"3  c #362F38",
"4  c #333035",
"5  c #34333B",
"6  c #3A343C",
"7  c #3F383F",
"8  c #42090D",
"9  c #490A0F",
"0  c #4D0B10",
"q  c #40373F",
"w  c #2A4117",
"e  c #2E441A",
"r  c #30461B",
"t  c #334B1D",
"y  c #384F1F",
"u  c #3B5523",
"i  c #415B26",
"p  c #445F29",
"a  c #456029",
"s  c #49652C",
"d  c #4E692F",
"f  c #526E32",
"g  c #567436",
"h  c #5D793A",
"j  c #627E3E",
"k  c #373640",
"l  c #3C3D43",
"z  c #433C44",
"x  c #473F48",
"c  c #483F48",
"v  c #45444C",
"b  c #4C444C",
"n  c #51474F",
"m  c #4E4750",
"M  c #4B4A55",
"N  c #4E4F59",
"B  c #514751",
"V  c #524B54",
"C  c #554F59",
"Z  c #584D5A",
"A  c #4F505C",
"S  c #54535D",
"D  c #5A535D",
"F  c #61575E",
"G  c #63585E",
"H  c #565761",
"J  c #5B5661",
"K  c #5B5A65",
"L  c #5E5D69",
"P  c #615664",
"I  c #645B63",
"U  c #6B5E65",
"Y  c #625D69",
"T  c #695D6B",
"R  c #5F606A",
"E  c #62626C",
"W  c #6C636A",
"Q  c #72666D",
"!  c #74686F",
"~  c #666571",
"^  c #696772",
"/  c #696873",
"(  c #6F6F7B",
")  c #716675",
"_  c #736C75",
"`  c #796D74",
"'  c #736E78",
"]  c #7B6E7E",
"[  c #6F707C",
"{  c #767077",
"}  c #7D7177",
"|  c #73727C",
" . c #79757D",
".. c #79797F",
"X. c #81747B",
"o. c #678442",
"O. c #688442",
"+. c #6C8947",
"@. c #6D8948",
"#. c #728D4C",
"$. c #779150",
"%. c #7B9555",
"&. c #7F985A",
"*. c #819A5B",
"=. c #859D61",
"-. c #889F63",
";. c #8CA267",
":. c #8EA36A",
">. c #91A76E",
",. c #94A972",
"<. c #757583",
"1. c #7B7480",
"2. c #7B7B84",
"3. c #7D7D8B",
"4. c #827586",
"5. c #827C83",
"6. c #897C82",
"7. c #857A89",
"8. c #8A7E8E",
"9. c #85848C",
"0. c #89868D",
"q. c #87888E",
"w. c #90848A",
"e. c #838493",
"r. c #8C8191",
"t. c #8B8B93",
"y. c #8C8C99",
"u. c #908594",
"i. c #948C93",
"p. c #998D92",
"a. c #919197",
"s. c #95959D",
"d. c #9F9399",
"f. c #98989E",
"g. c #A2969B",
"h. c #A59A9F",
"j. c #9696A4",
"k. c #9996A0",
"l. c #9C9BA3",
"z. c #9D9DAA",
"x. c #A19EA5",
"c. c #A89CA2",
"v. c #9FA0AD",
"b. c #A1A1A5",
"n. c #A4A3AC",
"m. c #A9A6AC",
"M. c #AAAAAE",
"N. c #A4A4B1",
"B. c #A7A8B5",
"V. c #AAAAB5",
"C. c #ACADB9",
"Z. c #B1B1B4",
"A. c #B5B5B9",
"S. c #B7B8BB",
"D. c #B9B9BA",
"F. c #BDBDC1",
"G. c #C0C0C3",
/* pixels */
"b.v.b.m.M.Z.A.S.D.G.F.F.F.S.A.Z.M.n.v.b.b.f.s.a.a.v.v.M.C.A.S.G.G.F.S.A.Z.M.n.v.z.j.y.a.s.f.l.<.S 4 X       D.,.,.,.,.,.,.,.,.,.",
"f.^ ( 2.e.y.j.z.N.V.C.B.N.z.j.y.e.2.[ / / R S M H R [ 2.y.j.v.B.C.V.v.j.y.3.| / R K A M A H R H l ; .       D.,.,.,.>.>.,.,.,.,.",
"f.~ ( ..e.y.j.z.N.C.V.B.N.z.j.y.9.<.[ / / R S N S R [ 3.y.j.v.B.C.B.v.j.y.9.[ / E K A M A K E H l ; .       D.>.>.>.>.>.>.>.>.>.",
"f.~ [ ~ R E ( 2.3.e.y.e.3.<.( ~ K S M M v l 5 1 5 l M H E [ 3.y.e.e.3.( R S M v l M A M A K E H l ; .       D.;.:.>.:.>.:.:.>.>.",
"f.~ [ L & * 8 / H M # & * * * 8 8 8 * 8 * / R S v # & 8 * 8 8 * 8 * * * / D v # & & H M A K E H l ; .       D.;.:.:.;.;.;.;.;.;.",
"f.~ [ E 8 0 9 3./ H # * 0 0 0 0 0 0 0 0 0 2./ / S # * 0 0 0 0 0 0 0 0 0 3./ S # * 8 / M A K E H l ; .       A.;.-.=.=.;.-.-.*.;.",
"f.~ [ R * 0 0 3./ H # 8 0 0 0 0 0 0 0 0 0 2./ / S # * 0 0 0 0 0 0 0 0 0 3./ S # * * ~ M A K E H l ; .       D.=.=.*.=.=.=.*.=.=.",
"f./ [ R 8 0 0 3.^ A # * 0 0 0 0 0 0 0 0 0 2./ / S # * 0 0 0 0 0 0 0 0 0 2./ S # * & ~ N A H E H l ; .       D.&.&.*.&.&.&.*.&.*.",
"j.~ <.L * 0 0 L v v # * 0 0 0 0 0 0 0 0 0 E v v v # * 0 0 0 0 0 0 0 0 0 R v v # * 8 / A A K E H l ; .       D.%.%.%.%.%.%.%.%.%.",
"j.~ / L 8 0 0 8 # # $ 8 0 0 0 0 0 0 0 0 0 9 $ # # $ 8 0 0 0 0 0 0 0 0 0 8 & # $ * * ~ M A K R H l ; .       A.$.$.$.$.$.$.$.$.$.",
"s./ <.L * 0 0 0 8 8 8 0 0 0 0 0 0 0 0 0 0 9 8 * * 8 0 0 0 0 0 0 0 0 0 0 9 8 * 9 9 * ~ M A L E H l ; .       D.#.#.#.#.#.#.#.#.#.",
"s./ <.~ 8 0 0 0 0 0 0 0 0 0 0 0 0 0 0 0 0 0 0 0 0 0 0 0 0 0 0 0 0 0 0 0 0 0 0 0 0 * ~ M A H E H l ; .       D.+.@.@.@.@.@.@.@.@.",
"f./ ( R * 0 0 0 0 0 0 0 0 0 0 0 0 0 0 0 0 0 0 0 0 0 0 0 0 0 0 0 0 0 0 0 0 0 0 0 0 * ~ M A H E H l ; .       D.O.o.o.o.o.o.o.o.o.",
"f./ [ R 8 0 0 0 0 0 0 0 0 0 0 0 0 0 0 0 0 0 0 0 0 0 0 0 0 0 0 0 0 0 0 0 0 0 0 0 0 * ~ M A L R H l ; .       A.j j j j j j j j j ",
"j./ [ R 8 0 0 0 0 0 0 0 0 0 0 0 0 0 0 0 0 0 0 0 0 0 0 0 0 0 0 0 0 0 0 0 0 0 0 0 0 * / N A H E H l ; .       D.h h h h h h h h h ",
"s./ [ E 8 0 0 0 0 0 0 0 0 0 0 0 0 0 0 0 0 0 0 0 0 0 0 0 0 0 0 0 0 0 0 0 0 0 0 0 0 * / M A K E H l ; .       D.g g g g g g g g g ",
"f.~ [ R * 0 0 0 0 0 0 0 0 0 0 0 0 0 0 0 0 0 0 0 0 0 0 0 0 0 0 0 0 0 0 0 0 0 0 0 0 * ~ M A K R H l ; .       D.f f f f f f f f f ",
"f./ [ R 8 0 0 0 0 0 0 0 0 0 0 0 0 0 0 0 0 0 0 0 0 0 0 0 0 0 0 0 0 0 0 0 0 0 0 0 0 * ~ M A R R H l ; .       D.d d d d d d d d d ",
"s./ [ R 8 0 0 0 0 0 0 0 0 0 0 0 0 0 0 0 0 0 0 0 0 0 0 0 0 0 0 0 0 0 0 0 0 0 0 0 0 * ~ M A K R H l ; .       D.s s s s s s s s s ",
"f.~ [ R * 0 0 0 0 0 0 0 0 0 0 0 0 0 0 0 0 0 0 0 0 0 0 0 0 0 0 0 0 0 0 0 0 0 0 0 0 * ~ M A K R H l ; .       D.a a a a a i p p p ",
"j.~ <.R * 0 0 0 0 0 0 0 0 0 9 9 9 9 9 9 0 0 0 0 0 0 0 0 0 0 0 0 0 0 0 0 0 0 0 0 0 * / A A L R H l ; .       D.i i p i i i i i i ",
"s.~ ( L 8 0 0 0 0 0 0 0 0 0 0 a.t.| 9 9 0 0 0 0 0 0 0 0 a.t.| 8 0 0 0 0 0 0 0 0 0 * ~ M A H E H l ; .       D.u u u u u u u u u ",
"s.~ <.L 8 0 0 0 0 0 0 0 0 0 0 5./ S $ 9 0 0 0 0 0 0 0 0 2./ A $ 8 0 0 0 0 0 0 0 0 8 ~ M A K R H l ; .       D.y u u y u u u u u ",
"s./ <.~ * 0 0 0 0 0 0 0 0 0 9 3./ S # 9 0 0 0 0 0 0 0 0 2./ S # 8 0 0 0 0 0 0 0 0 & ~ M A L R H l ; .       A.y y y t y y y y u ",
"f./ [ R * 0 0 0 0 0 0 0 0 0 0 3./ S # * 0 0 0 0 0 0 0 0 5./ S # * 0 0 0 0 0 0 0 0 * / M A K E H l ; .       A.t t t t t t t t t ",
"f.~ [ <.& * * 8 * 8 8 * * * 8 / D v + & * * * * 8 * * 8 / K v + & 8 * & * 8 8 * * & [ M A K E H l ; .       A.t r r r t t r t t ",
"f./ [ 3.s.M.M.Z.F.F.G.F.S.A.Z.m.v.f.s.t.t.q.2.| &.q.j.v.n.V.A.F.F.F.F.B.n.l.j.y.t.2.~ M A K E H l ; .       D.r r r r r r r e e ",
"f./ [ <.9.y.j.v.N.B.C.C.v.v.j.y.9...[ / / R S M H R [ 3.y.j.N.B.F.N.z.j.y.3.<.~ E H A M A H E H l ; .       D.e r e e e e e e e ",
"f.~ [ 2.e.y.j.v.N.B.V.V.N.v.j.y.9.<.[ ~ ~ R S M A L <.3.y.j.n.B.V.B.n.j.y.3.| / R K A M A H R S l ; .       D.w w w w w w w w w ",
"f.t.a.s.v.n.Z.A.S.F.G.D.S.A.V.M.v.f.a.t.t.9.<.[ <.8.a.j.n.V.S.D.G.D.A.V.n.k.a.t.9.3...[ 2.3.q...l ; .       M.w w w w w w w w w ",
"9.[ <.2.2.q.q.q.e.t.t.y.f.l.n.M.Z.A.S.F.F.F.S.A.F.B.v.z.s.t.t.t.y.t.t.t.t.t.t.t.t.t.t.t.a.f.v.M.Z.S.D.G.F.S.A.Z.M.M.n.v.v.s.a.<.",
"E M A S R E / / / / / ( <.3.e.j.f.v.N.V.C.B.B.v.j.y.y.3.2.( ~ ~ ~ ~ ~ ~ ^ ^ t.^ / ~ ~ ~ [ 3.e.s.z.N.V.C.B.v.z.s.q.2.[ ~ R K A k ",
"E M A H R ~ / / / / / [ <.3.e.j.j.N.N.V.C.B.N.N.j.j.e.e.<.[ / / / / / / / / t./ / / / / [ 2.q.s.v.v.B.C.B.N.z.j.e.3.<.~ R L A k ",
"v < 5 l l v v M v v v M S H R / <.<.3.e.e.e.3.<.<./ R H A M v v v v S E / / q./ / W H v M S R [ <.<.e.e.e.e.<.~ L A N M l k k 1 ",
"* * * * & * * * * * * * * * 9 * * M 3.k.3.A * * * & * * * * & 8 * * & / ~ / q./ ~ / N & & * * * * * & * * * * * & * * * 8 & & * ",
"0 9 0 0 9 0 0 0 0 0 0 0 0 0 9 0 0 L t.M.y.L 0 0 0 0 0 0 0 0 0 0 0 0 * 3.~ ~ q.~ / / S * 0 0 0 0 0 0 0 0 0 0 0 0 8 0 0 0 0 0 0 0 ",
"9 9 9 0 9 9 0 9 0 9 9 0 9 9 9 9 9 K y.n.t.K 0 9 0 9 9 0 9 9 9 9 9 9 8 ..~ ~ q.~ / W S * 9 9 9 9 0 0 9 9 9 0 9 9 9 9 9 9 0 0 9 9 ",
"9 9 9 9 9 9 9 9 0 9 9 9 9 9 9 9 9 L y.n.t.K 0 9 0 9 9 9 0 9 0 9 9 9 * ..~ ~ 0.E E E N * 0 9 9 9 9 9 9 9 9 9 9 9 0 9 0 9 9 9 0 9 ",
"9 9 9 9 9 9 9 9 9 9 9 9 9 9 9 0.9.q.q.0.q.q.9./ 8 8 9 9 9 9 9 9 9 9 * ..E W q.E E E V % 9 9 9 9 9 9 9 9 9 9 9 9 9 9 9 9 9 9 9 9 ",
"9 9 9 9 9 9 9 9 8 9 9 9 9 9 9 .... . ... . .^ K # * 9 9 9 9 8 9 9 9 * ..E E 9.E W E N 8 9 9 8 9 9 9 9 9 9 9 9 9 9 9 9 9 9 8 9 9 ",
"8 9 9 9 8 9 9 8 9 9 9 9 9 8 9 | / E E E E E D M + * 0 0 0 8 9 9 9 9 * | E E 9.E E E n % 9 9 9 9 9 9 8 9 8 9 9 9 8 9 9 9 8 9 9 8 ",
"8 9 9 9 9 9 9 9 9 0 8 9 9 9 9 | / E 4   4 E D M + & 8 8 0 8 9 0 9 9 * | E R 9.D E E M % 9 9 8 9 9 9 9 9 9 9 9 8 8 9 9 9 9 9 9 9 ",
"( L K N v l 5 4 3 1 1 < < : ; | / E .   . R D M X = : - < < 1 1 4 4 < | L I 9.I I R M % 9 8 8 9 9 8 9 9 9 8 9 9 9 9 9 8 9 8 8 9 ",
"s.a.y.9.3.2.| ( ' / / ^ E R K | Q K 2 . 4 I D M : m K Y ~ ^ / ( ( _ K | R I ..E I R M * 9 8 9 9 8 9 8 9 8 8 8 9 9 8 8 9 8 9 9 8 ",
"M.M.m.n.n.x.x.x.x.x.l.l.f.f.s.{ ^ I D . S L Z m v 3.s.j.l.j.l.l.v.f.a.{ K K 9.D K R M & 8 8 8 9 9 9 8 8 8 9 9 8 8 9 8 9 9 9 8 8 ",
"a.i.r.9.2. ._ / / / W E Y L D { E K z X u K C M : v J K Y W T ^ _ / D { K K ..K R D M % 8 8 8 9 8 8 9 8 8 8 8 9 8 8 8 8 8 8 8 9 ",
"Y L C M v 6 4 3 < 1 < > : : ; / W D : o : K N m X O - - > < > , 1 , : { D D 5.R S K m & 9 8 8 8 8 8 8 8 8 8 9 8 8 8 9 8 8 9 8 8 ",
"8 8 8 8 8 8 8 8 8 8 9 8 8 8 9 / E D o O o Z N v + & 8 8 8 8 8 8 8 8 & / D K ..D D D v & 8 8 8 8 8 8 8 8 8 8 8 8 8 8 8 8 8 8 8 8 ",
"8 8 8 8 8 8 8 8 8 8 8 8 8 8 8 U E V 2 , 4 M V c + & 8 8 8 8 8 8 8 8 $ Q D D  .D D D v & 8 8 8 8 8 8 8 8 8 8 8 8 8 8 8 8 8 8 8 8 ",
"8 8 8 8 8 8 8 8 8 % 8 % 8 8 8 W K D D D D D N x + & * 8 8 8 8 * * 8 & ^ S D  .D D Z v % 8 8 8 8 8 8 8 8 8 8 8 8 8 % 8 8 8 8 8 % ",
"% 8 * * 8 % 8 % 8 8 % 8 8 8 % W I D D D D C n x + $ 8 * 8 * % 8 8 * & W D D { D D D b $ % 8 8 % % 8 8 8 8 % 8 % 8 8 % % 8 % 8 % ",
"8 8 % 8 8 % 8 8 % 8 8 8 % % 8 G V v v b v v v i + $ * 8 * 8 8 8 % 8 $ W C S ` S D C q $ % 8 8 % 8 8 % 8 8 % 8 8 % 8 8 8 8 8 8 8 ",
"8 % % 8 8 % % 8 8 % % 8 8 8 8 b 7 6 5 6 5 6 6 6 + $ 8 % 8 % 8 % 8 8 $ W C C _ C N C i & 8 % 8 8 8 % % 8 % 8 % 8 % 8 % 8 % % 8 % ",
"8 % 8 % 8 % 8 % * * 8 8 % % 8 $ @ : z Z v > + + @ $ * 8 8 * % 8 % * $ I C S _ C C C x $ * 8 % * 8 % 8 % 8 % 8 % 8 % 8 % % 8 % 8 ",
"% % % % % % % 8 % % % % % % * % $ z W X.U 7 $ $ $ % % % % % % * % % $ I V V ) C V V z $ % % % % % % % % % % % 8 % % % 8 % % % % ",
"% % % 8 % % % % % % % % % % % % % b ' i._ b % % 8 % % % % % % % % % & I V V ) V V V z $ % % % % % % % 8 % % % % % % % % % 8 % % ",
"% % % % % % % % % % % % % % % % % b _ u.` c % % % % % % % % % % * * $ I V m Q V V V l $ * % % % % % % % % % % % % % % % % % % % ",
"% % % % % % % % % % % % % % % % % c _ w._ v % % % % % % % % % % % % $ G n n Q m m n q $ % % % % % % % % % % % % % % % % % % % % ",
"% % % % % % % % % % % % % % % % % c ) 8.) c % % % % % % % % % % % % $ G m n W m n n q $ % % % % % % % % % % % % % % % % % % % % ",
"$ @ $ $ $ $ $ $ $ $ @ $ $ $ $ $ $ q P X.P q $ $ $ $ @ $ $ $ $ % @ $ @ G n n W n b n b $ @ $ $ $ @ $ $ @ $ $ $ $ $ $ @ $ $ @ $ $ ",
"Z V F F G U Q U W U W Q ! X.6.0.8.d.g.c.c.c.h.p.w.w.6.X.X.Q U U W W U F b n W b n n n Z Q X.X.8.p.g.g.c.c.d.p.8.X.X.Q W G G F q ",
"b 2 3 q c c n b n b n n C G T _ ] 4.8.8.u.8.8.4.} ) T F Z n b b b b b b b b W b b b n c B P U ) ] 7.8.u.8.7.4.) U F n b c q 6 ; ",
"c 3 3 q q c b n b b n n Z F T ) 1.4.8.8.u.8.7.4.] ) T P Z n b n b b b b b b U b c n n c B F T ) 4.7.8.u.8.8.] ) T Z n n c q q - ",
"2 = - ; , , , 2 2 , 2 3 3 q z b Z Z J P T P P Z B b z q 2 q , , 2 2 2 2 2 2 n 2 2 2 2 2 3 6 c c B Z P T P Z V b z q 3 2 , > - = "
};
