/* XPM */
static char *out[] = {
/* columns rows colors chars-per-pixel */
"64 64 221 2 ",
"   c #360100",
".  c #390100",
"X  c #362916",
"o  c #3E311D",
"O  c #0F1C21",
"+  c #111F24",
"@  c #16252B",
"#  c #1C2C34",
"$  c #1B3437",
"%  c #2B3333",
"&  c #470200",
"*  c #560702",
"=  c #580201",
"-  c #650908",
";  c #640B09",
":  c #6C110C",
">  c #721311",
",  c #791916",
"<  c #7C1C18",
"1  c #443726",
"2  c #453B2B",
"3  c #4B3D2C",
"4  c #4A3F32",
"5  c #19473F",
"6  c #324122",
"7  c #3A4729",
"8  c #3C4A2C",
"9  c #7D4D05",
"0  c #4F412C",
"q  c #52422D",
"w  c #4E4131",
"e  c #49443C",
"r  c #524533",
"t  c #554835",
"y  c #5A4A34",
"u  c #574938",
"i  c #5D4D39",
"p  c #5E513E",
"a  c #795A2C",
"s  c #604E37",
"d  c #63523D",
"f  c #7D643E",
"g  c #253942",
"h  c #2D424D",
"j  c #28554E",
"k  c #334B57",
"l  c #2A5751",
"z  c #365759",
"x  c #38645D",
"c  c #3C5765",
"v  c #3B6B65",
"b  c #575249",
"n  c #4E595D",
"m  c #675A48",
"M  c #745F4A",
"N  c #40665E",
"B  c #7D6646",
"V  c #74624D",
"C  c #6C6554",
"Z  c #756652",
"A  c #455D6A",
"S  c #415D6D",
"D  c #535E63",
"F  c #456B64",
"G  c #496C68",
"H  c #5A6568",
"J  c #45736C",
"K  c #4D726C",
"L  c #51756E",
"P  c #496575",
"I  c #526D7D",
"U  c #4A7A72",
"Y  c #537671",
"T  c #547A74",
"R  c #5A7B75",
"E  c #527D79",
"W  c #5D7E79",
"Q  c #6B6F6D",
"!  c #69777A",
"~  c #777B78",
"^  c #841E1C",
"/  c #84221D",
"(  c #89231E",
")  c #861F20",
"_  c #872320",
"`  c #8A2621",
"'  c #8D2A24",
"]  c #8D2E2A",
"[  c #962B25",
"{  c #8F302B",
"}  c #92322D",
"|  c #963733",
" . c #B13B34",
".. c #BA423A",
"X. c #816234",
"o. c #9F4743",
"O. c #A8514C",
"+. c #836B48",
"@. c #8C7554",
"#. c #927B5C",
"$. c #8E7D65",
"%. c #857E72",
"&. c #B2706D",
"*. c #C8534B",
"=. c #D56860",
"-. c #568179",
";. c #5E827B",
":. c #64837D",
">. c #98856A",
",. c #8B847A",
"<. c #998C78",
"1. c #B8817F",
"2. c #A2927D",
"3. c #B2A07F",
"4. c #065489",
"5. c #145986",
"6. c #1C5C86",
"7. c #215E88",
"8. c #256189",
"9. c #2B648B",
"0. c #32678D",
"q. c #376A90",
"w. c #3B6D91",
"e. c #597484",
"r. c #416F92",
"t. c #437193",
"y. c #4A7595",
"u. c #4F7897",
"i. c #557B99",
"p. c #597D9A",
"a. c #697C87",
"s. c #538A82",
"d. c #5D819C",
"f. c #688782",
"g. c #658A84",
"h. c #6D8A84",
"j. c #718B86",
"k. c #7D868A",
"l. c #748E8A",
"z. c #798A8A",
"x. c #74928C",
"c. c #79928E",
"v. c #66859C",
"b. c #728794",
"n. c #7D9591",
"m. c #7E9994",
"M. c #7C969B",
"N. c #6A89A3",
"B. c #738EA2",
"V. c #7B93A6",
"C. c #7492AB",
"Z. c #838989",
"A. c #8C8C8A",
"S. c #8D9285",
"D. c #8A908D",
"F. c #969086",
"G. c #9A948C",
"H. c #819693",
"J. c #8A9597",
"K. c #849996",
"L. c #869C99",
"P. c #8B9D9A",
"I. c #9A9996",
"U. c #A79A88",
"Y. c #A09C96",
"T. c #BE9190",
"R. c #87A39F",
"E. c #8EA19E",
"W. c #91A29F",
"Q. c #B6A487",
"!. c #B6A68D",
"~. c #BBAA8E",
"^. c #ABA498",
"/. c #B3A796",
"(. c #B6A993",
"). c #B2A897",
"_. c #B9AB92",
"`. c #B3AA9D",
"'. c #B8AE9C",
"]. c #8699A8",
"[. c #949EA5",
"{. c #95A5A2",
"}. c #99A5A4",
"|. c #93A9A6",
" X c #9CA9A7",
".X c #93A2AD",
"XX c #9AA7AC",
"oX c #9EABA9",
"OX c #9BA8B2",
"+X c #A9A6A2",
"@X c #A2AEAC",
"#X c #A8AAA8",
"$X c #B5A1A2",
"%X c #B4AEA4",
"&X c #B5AFA7",
"*X c #A6B0AF",
"=X c #AAB1AE",
"-X c #BBB2A4",
";X c #B4B1AD",
":X c #BAB5AC",
">X c #BBB5AC",
",X c #A4ADB4",
"<X c #A7B2B6",
"1X c #ABB4B3",
"2X c #ADB4BA",
"3X c #B4B5B3",
"4X c #BAB7B3",
"5X c #B1B8B7",
"6X c #BDBAB5",
"7X c #B2B6BA",
"8X c #B4BABA",
"9X c #BDBEBD",
"0X c #C2A79A",
"qX c #C1ACA5",
"wX c #C3B8B3",
"eX c #C1BEBC",
"rX c #BDC0BF",
"tX c #C2C1BF",
"yX c #BBBEC1",
"uX c #BEC2C1",
"iX c #C4C4C4",
/* pixels */
"iXiXiXiXiXiXiXiXOXw.u.w.2XiXiXiXiXiXyX6.OXOX7.7XiX2X7.].iXiXiXiXiXiX-XQ.!.!.!.!.!.!.!._.` ' { ] ] ] ] ] [ } ] ] ] ] { { ] ' ' | ",
"iXiXiXiXiXiXiXuXu.w.V.u.9.2XiXiXiXiXOX5.OX,X6..XiXyXq.r.yXiXiXiXiXiX-X3.!.!.!.!.!.!.(.(.^ / / ` ` | O.O.o.| ' ) _ _ ( ^ ( ( ( ' ",
"iXiXiXiXiXiXiX].9.t.yXyX9.0.yXiXiXiXC.6.2XyX9.p.iXiX].5.].iXiXiXiXiXwXQ.!.(././.(.(.(._./ ( _ ` | &.T.T.1.O.} ` ' ` ` ` ` ` ( ] ",
"iXiXiXiXiXiX.X9.0.yXiXiX,X6.q.yXiXyXy.r.eXiXp.9.2XtXyXq.9..XiXiXiXiXqXQ.(.(././.!.(.(._.^ ( ` ' O.T.wXwXqX&.| ] ` ` ` _ ` _ ( ] ",
"iXiXiXiXiX].9.y.<XiXiXiXiX.X9.t.iXyX7.B.iXiXOX6.p.tXiXyX0.6.p.2XuXiX-X3.(.(.(.'.(.(.!._.) ( ` ' O.T.wXwXqX&.| } ` ` ` ` ` ` ( ] ",
"iXiXuX<Xd.q.u.V.2X,X,X,X,X<XN.w.p.].6.,XiXiXiXp.7.].iXiXyXp.6.6.y.d.^.~.(.'.'.'.'.(.!._.^ ( ` ' O.&.T.T.T.&.| ] ` ` ` ` ` ` ( ] ",
"2X.Xd.9.9.p.p.t.6.6.7.8.9.q.u.p.u.q.p.iXiXiXiXyX0.9.].yXiXiX2XB.t.5.D.0X'.'.'.'.'.(.!._.) ( ` ' } O.&.&.O.| } ' ` ` _ ` ` ` ( ] ",
"y.9.9.y.OX,Xq.B..X].V.B.v.p.i.p.i.8.yXiXiXiXiXiX2X9.9.p.,XiXiXiXuXuX%XQ.(.'.'.'.'._.(.(.) ( ` ` ' ] { | | ] ] ` ` ` ` ` ` _ ( ] ",
"u.V.2XyXiX,X6.].iXiXiXiXiXiXiX].0.p.iXiXiXiXiXiXiX2Xt.9.q.p..XyXuXiX6XQ.'.'.-X-X'.'.~.~.^ ( ` ` ' ` ' ' [ ( ( ( _ ` ` ` ` ` / { ",
"w.p.,XiXiX,X6.V.iXiXiXiXiXiX].0.q.yXiXiXiXiXiXiXiXiXyXV.q.8.9.q.i.C.^.~.'.-X-X-X-X'.(.~.) ^ ` ` ( ( ` ( / ( [ [ _ < _ ( ( ` / { ",
".X8.9.N.yX7X9.V.iXiXiXiXiXC.0.9.,XiXiXiXiXiXiXiXiXiXiXiXyX].i.q.9.4.Z.'.'.-X:X-X-X'.(.~._ ( ` ` ` ` ' ( ( ......*..._ ' [ ' ( { ",
"iX,Xw.9.y.V.r.B.iXiXiXyXp.0.0..XiXiX#X[.J.A.J.J.yXiXiXiXiXiXtX7X,XOX^.~.-X-X:X:X-X'.(.~.( / ` ` ` ` ( / [ ..*.=.=.*.[ } [ ' ( { ",
"iXiX8Xu.q.y.t.N.iXiXOXr.q.0..XiXiXiXtXeXeX;XH k.#XiXiXiXiXiXiXtXiXiXwXQ.'.>XwX>X:X'._.~./ / ` ` ` ` ` / [ [ [  .*...( ' ( ' ( { ",
"iXiXiXyXV.w.y.B.2XN.q.q.u.2XiXiXiXiXOXJ.k.Z.a.a.k.J.[.[.[.[.I.J.I.uX-X!.-X>X>X>X:X'._.~._ / ` ( ` ` ` ( [ [ ` ( [ ( ( ' ( ( ( { ",
"iXiXiXiXiX].t.p.t.q.0.N.iXiXiXiXiXiXiXeXeX#X! ! Q D D n A n D H k.iX>XQ.-X>XwX6XrX'._.~.^ ^ / / / / / < ( [ [ [ ' ( ( ( / / ^ ` ",
"yX,X.XV.N.p.i.r.0.i.,XiXiXiXiXiXtXeX[.I.a.a.H D iXiXiXiXiXiXiXiXiXiX>XQ.-XwX6X6X-X'._.~.> , < < < < < < , ^ ^ < ^ ^ < < < < , / ",
"w.q.q.q.9.0.w.N.,XiXiXiXiXiXiXiXiXiXiXiXiXyX,XJ.,XiXiXiXiXiXiXiXtXtX-X~.-X-XtXtX>X-X~.~.: : > > > > > > > , > > > > > > > > : , ",
"w.w.y.p.].,X8XiXiXiXiXiXiXiXiXiXiXiX8X#X#X[.[.D.Z.iXiXiXiXiXiXiXtXtXtX3.-XrX-X-X6X-X_.0X- - ; ; ; ; ; ; ; ; - - - ; - - ; ; * : ",
"<XyXyXiXiXiXiXiXiXiXiXiXiXiXiXtX7XXX@XY.J.a.k.k.Z.k.H.{.[.[.I.Z.S.tX-X0X-XtXrXrX>X-X_._.* = = = * * * * = = = = * = = = = = = - ",
"tXtXyXtXtXtXtXyXtXtXtXtXiXiXiX[.J.Z.a.a.~ ! Q D D D n H n D D H Z.iXqX3._.tXtXrXtXqX_.~.& . & & & & & & . . . . . . . .   .   . ",
"o o o 1 3 y s s y y y y y y oXL.W.{.|.oX#X=X=X1X1X1X8X8X5X5X5X2XrX1X=X=X=X=XrX=X%X@X@X XA.,.:.~ ~ ~ H S.$X`.$X$X$X$X$X`.$X$X$X$X",
"4 r 3 4 3 4 w m V C C m m V E.-.h.x.n.K.].P.}. X@X=X1X1X5X5X8X8X5XrX5XrXrX=X@X@XoXoX|.W.|.R.W.R.m.n.s.@XyXeXtXtXtXtXeXtXiXeXiXyX",
"t 4 r t r r 3 2 w m Z V M V {.g.n.m.K.P.E.{. X@X*X5X8X8X8XuXiXiXuXrXrXrXrX1XrX1X=X@X XW.E.R.H.c.x.j.E  XiXeXeXeXeXeXtXrXeXtXeXeX",
"r C C q q 2 w r 3 2 u C M V {.E h.x.n.H.L.P.{. X*X=X1X5X8X8X9X9XrXrXrXrXrX1X=X=XoXW.E.E.L.n.x.l.g.g.J {.eXeXeXeXeXwXwXwXeXeXeXeX",
"u m m 3 m Q q r 4 4 1 u V Z J.G ;.f.f.j.c.n.K.P.P.{.}. X X X X XoXoX@X X+X X XW.E.K.H.c.l.j.:.:.;.R x W.tXeXeXeX6X4X4XwXeXeXiXeX",
"d y y 3 %.J.m 3 r w 4 1 b +.n.x U Y R W :.h.j.z.c.H.H.K.K.K.P.K.K.m.K.K.H.H.H.c.c.c.h.:.:.;.R L K G j P.iXtXtXeX4X%X&X4X6XeXiXtX",
"s s s u y e w r r r w 4 1 V c.l F F K L T R ! f.:.h.j.j.j.l.l.j.j.l.j.j.j.j.h.h.:.:.W R L K G F x x 5 L.tXtXtX6X>X`.`.>XwXeXtXeX",
"d m s y y y y u 3 1 2 4 1 d c.l F G K Y R R :.f.j.j.x.z.c.z.l.x.x.x.x.c.c.z.j.j.:.:.! W R L G G N N 5 J.iXtXtX6X;X).^.;X6XeXiXtX",
"d d y Q Z y u 3 m %.b 2 2 r K.x Y R W :.h.j.l.n.H.H.L.P.P.P.P.P.P.P.P.P.P.P.J.H.n.c.j.h.:.:.-.T L K j P.iXtXtXwX&X!.^.%X4XeXiXtX",
"m d s m d y y q ~ Q e 3 3 3 P.U :.f.j.x.n.H.P.P.W.}. XoX@X XoX@X@XoX@XoXoX X X{.E.E.L.n.c.l.h.:.:.;.x W.tXtXtXwX%X^.U.%X>XeXiXtX",
"d d d s y y i r 4 1 4 w 2 3 [.;.j.x.n.H.P.W.{. X@X*X1X1X3X1X5X5X5X5X5X5X5X5X1X=X*X X{.E.L.H.c.x.h.g.U W.iXtXtX4X%XU.U.`.>XeXtXeX",
"d d s s i 3 3 r r w 4 4 1 3 +Xg.n.m.L.R.{.}.@X*X3X5X8X9X9XuXuXuXuXiXuXrXrXrX8X5X1X=XoXW.E.E.K.m.x.j.-.@XtXiXtX4X^.U.U.`.4XeXtXtX",
"d d i i t %.~ e r w 4 4 1 d {.g.c.H.K.E.W.oX@X1X1XrXrXrXrXuXiXuXiXiXuXuXuXrXrX8X1X@XoX XW.R.K.n.x.x.-. XtXtXtX>X(.2.2.^.:XtXtXtX",
"i q y u r I.D.b 3 w w 2 3 Z {.g.n.H.K.R.W.oX@X1X5X5XrXrXrXuXuXuXuXuXuXuXuXuXrX8XrX@XoX|.E.R.K.n.x.x.-. XiXtXtXtX).<.2.^.:XrXtXtX",
"p %.p t r p b o r w 3 2 m Z {.g.n.m.R.E.|. XoX*X1XrXrXrXrXrXrX9XuXrXrXrXrXrX5X5X1X@XoX XE.R.K.n.x.x.-.|.tXtXtX:X!.>.>.^.:X6XiXtX",
"p Z.m q t q w w w 2 3 m V M {.g.c.m.R.E.W.|.oX*X*X<X1X5X5X5X8X8X8X8X5X5X5X5X1X1X=X@XoXW.E.E.K.n.x.h.-. XtXtXtX:XU.>.>.^.4XtXtXtX",
"r 0 q t r r r w 1 r M C M V {.g.n.K.R.R.W.oXoX*X*X<X1X1X1X1X1X5X5X5X1X5X1X1X1X<X=XoX X|.E.E.R.c.x.x.-.|.tXtXtX-XU.#.>.!.>X9XiXtX",
"t t t t r w w w m C C V m B {.g.x.m.L.P.W.W.oXoX@X*X1X1X1X1X1X1X1X1X1X1X1X1X<X*X@XoX XW.E.R.H.m.x.x.-.oXtXtXtXrXU.@.$.^.:XtXtXtX",
"X X X X X o 0 y y y y r q y |.g.c.H.L.E.|.|.oXoX@X*X1X1X1X1X1X1X1X1X1X1X1X1X1X*X@XoX XW.E.E.m.c.x.x.-.|.tXtXtX-XU.@.$.U.:XwXtXtX",
"M.yXiXuXiXiXuX].<XiX<XOX.X].W.g.c.H.K.R.W.W.oX@X*X*X*X1X1X1X1X1X1X=X1X1X1X*X=X*X@XoX XW.E.K.R.n.x.x.-.|.tXtXtXrXU.+.#.U.>XtXtXtX",
"c e.2X2XyXyX,Xd.P OXOXb.e.c P.;.x.m.K.R.E.{. XoX@X@X=X=X=X=X1X=X=X*X*X1X*X*X*X*XoX X{.W.E.H.n.c.x.h.U  XtXiXtX-X2.+.@.U.>X9XiXtX",
"c e..X2X2X2X<X].S e.].V.e.S K.-.x.x.m.K.P.E.W. X X@X@X@X*X@X@X@X@X@X*X*X*X*X@X X X{.W.E.E.H.c.x.j.h.U }.iXiXtX;X2.+.+.U.>X9XiXeX",
"c P b.2X<X,XOX.Xe.c b.J.e.c V.E :.c.m.K.L.P.W.{. X@X@X@X@X@X@X@X@XoXoX*X@X@X@X@XW.W.E.E.R.c.x.x.h.g.J }.tXtXtX&X<.+.+.2.:XwXiXeX",
"c r.I [.OX.XM.b.e.c e.p.e.c m.T :.x.x.c.H.L.E.W.W.W.}. X X X X XoX X X X X+XW.W.W.E.E.H.n.c.x.j.g.;.v }.tXiXtX&X<.X.+.U.;XeXiXtX",
"c A P e.M.b.a.P c c e.e.P z c.K :.:.:.x.c.L.L.P.W.W.W.}.}.}.}.W.W. XW.W.+X{.W.W.W.E.L.H.l.l.:.:.;.;.x E.iXtXtX%X>.f +.2.;XwXiXtX",
"h z A P e.I P c k k c I A l x.F :.:.:.x.:.L.H.K.L.E.W.W.W.W.W.W.W.W.W.W.W.W.P.P.K.K.H.c.l.:.:.:.-.T x W.iXiXiX>X2.f +.2.6XtXiXiX",
"g k n c A A k k g h k A k h x.N :.;.:.:.h.n.c.H.H.K.P.P.P.P.P.P.E.E.L.P.E.P.L.K.H.H.l.l.:.:.:.R -.L x z./.>X-XU.>.f f >.U.`.:X%X",
"g g h k z k h g g g g n h g :.x L -.;.:.:.:.S.:.D.H.K.K.K.K.K.K.K.K.K.K.K.K.H.H.c.l.j.:.:.:.:.L K J v m 9 >.#.a a a a X.a a #.a ",
"# # g g h h $ $ # # g g g # h.z K L R :.:.:.:.c.c.H.H.H.H.H.c.H.H.H.H.H.H.H.c.x.z.l.:.:.:.W Y K G G j E.tXtXtX-X<.f +.U.6X6XtXtX",
"@ # # g % $ $ # @ @ # % # @ ! l N F K L -.! :.:.:.z.l.l.z.c.c.l.l.l.x.c.l.l.l.h.:.:.:.W L K K N N x 5 K.tXtXrX'.<.f f U.:XrXtXtX",
"O + @ @ # @ @ + O O @ # @ O R 5 z x x N F K K Y -.:.:.:.:.:.:.:.:.:.:.:.:.:.:.:.! T K K N x z x j j $ S.tXtXrX%X>.a f 2.-X6XwXtX",
"tXtXtXtXtXtXrXrXtXtXtXtXtXtXrXiXtXtXtXtXtXtXtXtXtXtXtXtXtXtXtXtXtXtXtXtXtXtXtXtXtXtXtXtXtXtXiXiXtXtXrXrXtXtXtXrXtXtXtXtXrXtXtXtX",
"A.S.S.S.S.S.S.S.S.S.S.S.S.S.S.S.S.S.S.S.S.S.S.S.<.S.S.S.S.S.S.S.S.S.S.S.,.S.S.S.S.S.S.S.S.S.S.S.S.S.<.S.S.S.S.S.S.S.S.S.S.S.S.S.",
"6 6 6 6 6 o 6 6 o 6 6 6 6 6 6 6 6 6 6 6 6 6 6 o 6 6 6 6 6 6 6 6 6 6 6 6 6 6 6 6 6 6 6 6 6 6 6 6 6 6 6 6 6 6 6 6 6 6 6 6 6 6 6 6 ",
"8 7 7 7 7 7 7 7 7 7 7 7 7 7 7 7 7 7 7 8 8 7 8 8 7 7 7 7 7 7 7 7 7 7 8 7 7 7 7 7 7 7 7 7 7 7 7 7 8 7 7 7 7 7 7 7 7 7 7 7 7 7 7 8 ",
"iX9X9XeXrXrXrXrXrXrXeXrX9XtX9X9XrX9XtXrXrXrXeXyXrXrXrXtXrXtXrXtXrXeXtXtXtXrXtXrXtXrXrXtXeX9XtXeXrXtXrXtXrXrXrXrX9XrXtXrXtXrXrXrX",
"tXtXyXeXtXtXtXtXrXrXtXtXtXtXtXtXtXtXtXtXtXtXtXtXtXtXtXeXtXeXtXtXtXtXtXtXtXtXtXtXtXtXtXtXtXtXtXtXtXtXtXeXtXtXtXtXtXtXtXtXtXtXtXtX",
"tXtXtXiXeXtXtXtXtXtXtXtXtXtXtXtXtXyXtXtXtXtXtXtXtXtXtXiXtXiXtXtXtXtXtXtXtXtXtXtXtXtXtXtXeXtXtXtXtXtXtXiXtXeXiXtXtXtXtXtXtXtXtXtX",
"tXtXeX9X4XyXtXtXtXtXtXtXrXtXtXtXiXeX6X9XtXtXtXtXtXtXiXyXtXtXtXtXtXtXtXeX9XtXtXtXtXtXiXyX6X9XyXtXtXtXiXeXeXiXiXeXtXtXtXtX9X9XtXtX",
"tXtXiX4X3X6XtXeXtXtXtXtX6XrXtXtXtX8X;X4XtXtXtXtXtXtX4X6XtXtXtXtXtXtXtX9X;X4XtXtXtXtXtX4X3X4XtXtXtXtXeXiX4X6XeXeXtXtXtXtX4X;X9XtX",
"tXtXtX4X+X;XiXiXtXtXiX9X;X=XrXtXyX4X+X;XtXtXtXtXtXuX;X3XtXtXtXtXiX9X9X3XI.+XtXtXtXtXtX3X+X;XiXeXtXtXtX9X;X;XyXiXtXeXyX6X+XY.6XiX",
"tXtXiX;XY.+X9XeXtXtXeX6X^.+XrXtXyX;XY.+XeXtXtXtXtX4X+X^.9XeXtXtXeXiX6X+X,.Y.eXtXtXeXtX;XI.+X9XiXtXtXiX4X+X+X9XeXtXiXtX3XG.,.;X9X",
"tXtXeX+X<.I.6XiXtXtXtX3XI.G.6XtXeX%XF.Y.eXeXtXtXyX3XI.G.4XiXtXtXeXuX9X^.%.G.6XiXeXiXiX&XF.Y.4XiXtXtXiX3XI.G.4XeXtXtX9X;XF.%.#XtX",
"tXiXiX+XA.G.4XtXtXtXtX4XG.G.3XtXiX+X,.G.4XiXeXiXeX3XG.G.4XtXtXtXtXyXeX+X,.I.4XtXeXiXeX+X,.G.4XtXtXtXtX;XG.G.4XiXtXtXeX3XI.<.#XtX"
};
