/* XPM */
static char *out[] = {
/* columns rows colors chars-per-pixel */
"64 64 86 1 ",
"  c #3C3B36",
". c #47020E",
"X c #54020E",
"o c #58110F",
"O c #5C0213",
"+ c #56131E",
"@ c #68130E",
"# c #600318",
"$ c #62131F",
"% c #711713",
"& c #741A1A",
"* c #632020",
"= c #722320",
"- c #6C4E35",
"; c #6D5036",
": c #775332",
"> c #795534",
", c #75563A",
"< c #7C5A3B",
"1 c #4A4A46",
"2 c #5C5B54",
"3 c #7B5D41",
"4 c #7F6045",
"5 c #686861",
"6 c #676E7D",
"7 c #AC7A10",
"8 c #AD7E1E",
"9 c #805D3D",
"0 c #805F40",
"q c #816042",
"w c #896646",
"e c #866649",
"r c #886748",
"t c #87684C",
"y c #8C6A4C",
"u c #926E4E",
"i c #94704F",
"p c #8B6C50",
"a c #947253",
"s c #997554",
"d c #9C7857",
"f c #95765B",
"g c #96785D",
"h c #9C7A5C",
"j c #9D7E62",
"k c #A07F62",
"l c #AE822B",
"z c #BC862B",
"x c #BD8932",
"c c #BD8C39",
"v c #C3923D",
"b c #9E8065",
"n c #9E826A",
"m c #A18165",
"M c #A1846A",
"N c #A5886F",
"B c #A68C75",
"V c #C49946",
"C c #6D7483",
"Z c #717987",
"A c #747B8A",
"S c #787F8E",
"D c #79808E",
"F c #7F8695",
"G c #95948E",
"H c #808795",
"J c #828997",
"K c #868D9A",
"L c #898F9D",
"P c #8B919F",
"I c #9A9994",
"U c #B9A98E",
"Y c #A4A39C",
"T c #BFAD90",
"R c #8F95A3",
"E c #9096A4",
"W c #9298A5",
"Q c #A7A6A0",
"! c #A8A8A3",
"~ c #AEAEAB",
"^ c #B0B0AE",
"/ c #BFB8AE",
"( c #BFBAB0",
") c #C3B294",
"_ c #C2BBAF",
"` c #C3BDB0",
/* pixels */
"FFFFFFHFFFFFFFFFFFFFFFHHFFFFFFFFHFHFFFFFFFFFFFFHFFFFFFFFFFFFFHFF",
"FFFFFFFFFFFFFFFFFFHFFFHHFHFFFFFFFFHHFHFFFFFFFFFFFFFFFFHFFFFFFFFF",
"FFHFHFFFFFFFFFFFFFFHHJJJJLLFFHFFFHJJHFFFFFFFFFFFHFHFHFFFFFFSFFFF",
"FFHKKLKKRPPPRRRREWWWWWWWWWLSFFFFFJWWWWWWWWWRRRRRRPPPPPPPLLLLLHFF",
"FFKWWWEWWEWEEEWWWWWWWWWWWWCSFFFFFLWWRRRERRRRRRRRRRRWRRRRRWWPCFFF",
"FFKWERRREREEERREEWWWWWWEWSCSFFFFFPWWJJJHJJJJJJJJJJJJJHJJJJHACSFF",
"FFKWRJJJJJJJJJJJJJJJJJJJJSCAFFFFFPWWJJJJJJJJJJJJJJJJJJJJJJFACFFF",
"FFKWRJJJJJJJJJJJJJJJJJJJJSCAFFFFFRWWJJJJJJJJJJJJJJJJJJJJJJFCCSFF",
"FFKWRJJJJJJJJJJJJJJJJJJJJS6AHFFFFRWWJJJJJJJJJJJJJJJJJJJJJJHZCSSH",
"FFKWRJJJJJJJJJJJJJJJJJJJJA6AFFFFFRWWJJJJJJJJJJJJJJJJJJJJJJHZCAHH",
"FFKWRJJJJJJJJJJJJJJJJJJJJA6ZFFFFJWWWJJJJJJJJJJJJJJJJJJJJJJJCCSHF",
"FFKWWJJJJJJJJJJJJJJJJJJJJACAFFHFJWWWJJJJJJJJJJJJJJJJJJJJJJJCCSFF",
"FFLWWJJJJJJJJJJJJJJJJJJJJACCFFFFLWWWJJJJJJJJJJJJJJJJJJJJJJSC6ASH",
"FFKWRJJJJJJJJJJJJJJJJJJJJA6ZFHFFLWWRJJJSJJJHJJJFJJJJFFJJJJSC6CHH",
"FFKWWJJFJJJJJFJJJJJJJJHJJZ6CFFFFLWWJCCCCCCCZACACZASSZASASHACCAFF",
"FFKWLSAAAACAAAAAAAZAZZCCC6CCFFFFPWFCCC66C666C6C6C6CC6CCCCC66CAFF",
"FFKKC6666666666666666666666CHFFHRS6C6C666666CCCCCCZZAAAAASSASFFF",
"FFFFDDSFSAASSAAZZZZZZCCCCCCCFFFFSSASSSSFFFFFFFFFSFFFFFFFFFFFFFFF",
"FFFFFFFFFHFFHFFFHFFHFFHHFFFFFFFFJHFFFFFFFFFFFFHFFFFFFFFFFFFFFFFF",
"FFFFFFFFFFFFHHHFHHFFFFFFFFFFFHFFFFJFFFFFFFFFFFFFFFFFFFFFFFFFFFFF",
"FFFFFFFFFFFFHHHHFFFFFFFFFFFHFFFFFFFHFFFFFFFFFFFFFFFFFFFFFFFFFFFF",
"FFFFFFFFFFFHHDHHFFFHFHFFFFFFFFFHFFFFFFJFFFFFHFFFFFFFFFFFFFFFFFFF",
"FFFFFFFFFFFFHHDHFHFFFFFFHFFFFHFFHFFFFFFFFFFFFFFFFFFFFFFFFFFFFFFF",
"FFFFFFFFHFFFFHHHFFFFFFHFFFFFFFFHFFFFFHFFFFHFFFFFFFFFFFFFFFFFFFFF",
"TTT)))))UU)))))UU)))))))UU))))))UT)))))UU))))))TU)))))))U)))))))",
"8zvVVVvz7zvVVVvv7zvVVVvz7zvVVVvz7zvVVVvv7zvVVVvz7zvVVVvz7zvVVVVz",
"lxvVVVvz7zvVVVvz7zvVVVvz7zvVVVvz7zVVVVv87zvVVVvz7zvVVVvz7zvVVVvc",
"+XOO##OX.XO###OX.XO###OX.XO###OX.XO###OO.XO###OX.XO##OOX.OO##OO$",
"+XO###OX.XO###OX.XO###OX.XO###OXXXO###OX.XO###OX.XOO##OX.XO###O$",
"*@%&&&%@o@%&&&%@o@%&&&%@o@%&&&%@o@%&&&%@o@%&&&%@o@%&&&%@o@%&&&%=",
"lzvVVVVz7zvVVVvz7zvVVVvz7zvVVVvz7zvVVvvv7zvVVVvz7zvVVVvz7zvVVVvc",
"+XOO##OX.XO###OX.XO###OX.XO###OX.XO##OXX.XO###OX.XO###OX.XO###O$",
"+XO###OX.XO##OOX.XO###OX.XO####X.XO###OX.XO###OX.XO###OX.XO###O$",
"+XO##OOX.XO##OOX.XO###OX.XO###OX.XO###OX.XO###OX.XO##OOX.XO###O$",
"8xvVVVvz7zvVVVvz7zvVVVvz7zvVVVvz7zvVVVvz7zvVVVvz7zvVVVvz7zvVVVvc",
"8zVVVVvz7zVVVVvz7zvVVVvz7zvVVVVz7zvVVVvz7zvVVVvz7zvVVVvz7zvVVVvx",
"`_`````_/___((``_____________`__________/___``_//____`__/`````_`",
"dddsddddddddddddddddddddsddddddddddddddddddddddsdddddddddddddddd",
"dddddddddddddddfiiiiuuiddddddddhddddywyyuiiiaiaasddddddddddddddd",
"dy00qq<,,,<;--------------,,,00adddd>---------------;;;-,,,,qhmd",
"d3------;-------------------0jBBMddd,-------;;;;;;;;;;-;33tjBBmd",
"d0------;;--;3443yyupfffhkNBkBBBMddd;--eafnnnnnnnBBBBBBBBjrBBBkd",
"dw--;pjjNBBBBBBBBBBGBBBBGBBd0BBBMddd;-;ajjnBBBBBBBBBBBMa0qqBBBkd",
"dw--;pjjbbnnBBBBBBBBBBBBkjy0tBBBmddd--;gjjjjbnBBBGBBjpq03qqBBBkd",
"du---yjjhbbjhbmMBBBbjfe3000wwBBBmddd;--hjjjjjjjbMna0qq0qqq9NBBhd",
"du---pjjbbhbbgiy9>:<34qq00000BBBmdds--,jjjjbjjjy9:<0qqqqq0qMBBhd",
"du---tjjhdw<>>::::::>><q00000BBBmdds--<jjjjjdw>:::::>0q00qqMBBhd",
"ds---tjjw>:::::::::::::>90009BBBmdds--<bjja<>:::::::::<0qq9kBBdd",
"dd---qi>>:>:::::::::::::::><0NBBkdda--0kf9:::::>::::::::<00jBBdd",
"dd---u0qq9uuuyyuuidhhffdhkkkkBBBkdda--pw:::>:::>::::::::::,jBBdd",
"dd,-hBBBBBBBBBNBBBBBBBBBBBGBBBBBkddi--yffjMkkMMkMMmmMMmmkMMNBNdd",
"dd3kBBBBBBBBBBBBBBBBBBBNNNNNNNkNhddi;jBBBBBBBBBBBBBBBBBBBBBBBNdd",
"ddkNMMMMmkmkkkkdhkdddddddddddddddddsMNNNkNNkNNkkkkkkkkhkkkhddddd",
"dddddddhdddhddddddddddddddddddddddddddddhddddddddhddddddsddddddd",
"!!!!Q!!!!!!!!!Q!!!!!!!!!!Q!QQQ!Q!!!!!!!!!!!!!!!Q!!!!!!!!QQ!!!!!!",
"QYYYYYYYYYYYYYYYYYYYYYYYQYQYYYQYYYYYYYYYYYYYYYYYYYYYYYYYYYYYYYYQ",
"IGGGGGGGIGGGGGGGGGGGGGGGGGGGGGGGGGGGGGGGGGGGGGGGGGGGGGGGGGGGGGGI",
"YYYYYYYYYYYYYYYYYYYYYYYYYYYYYYYYYYYYYYYYYYYYYYYYYYYYYYYYYYYYYYYY",
"1                                                              1",
"^~~~~~~~~~~~~~~~~~~~~~~~~~~~~~~~~~~~~~~~~~~~~~~~~~~~~~~~^~~~~~^^",
"QYYYYYYYYYYYYYYYYYYYYYYYYYYYYYYYYYYYYYYYYYYYYYYYYYYYYYYYYYYYYYYQ",
"IIGGGGGGGGGGGGGGGGGGGGGGGGGGGGGGGGGGGGGGGGGGGGGGGGGGGGGGGGGGGGGI",
"YYYYYYYYYYYYYYYYYYYYYYYYYYYYYYYYYYYYYYYYYYYYYYYYYYYYYYYYYYYYYYYQ",
"5222222222222222222222222222222222222222222222222222222222222225"
};
