/* XPM */
static char *out[] = {
/* columns rows colors chars-per-pixel */
"128 128 82 1 ",
"  c #8E6442",
". c #8E6542",
"X c #8E6443",
"o c #8E6543",
"O c #8F6543",
"+ c #8F6643",
"@ c #8F6644",
"# c #906644",
"$ c #906744",
"% c #906845",
"& c #916845",
"* c #916945",
"= c #916947",
"- c #926947",
"; c #916A47",
": c #926A47",
"> c #926A48",
", c #936A48",
"< c #936B48",
"1 c #936B49",
"2 c #946C49",
"3 c #946C4A",
"4 c #946D4A",
"5 c #946D4C",
"6 c #956E4C",
"7 c #956F4C",
"8 c #956E4D",
"9 c #956F4D",
"0 c #966F4D",
"q c #96704E",
"w c #97704E",
"e c #97714E",
"r c #97714F",
"t c #98714F",
"y c #98724F",
"u c #977251",
"i c #987251",
"p c #987351",
"a c #987352",
"s c #997352",
"d c #997452",
"f c #997453",
"g c #9A7453",
"h c #9A7553",
"j c #9A7554",
"k c #9A7654",
"l c #9B7656",
"z c #9B7756",
"x c #9C7757",
"c c #9C7857",
"v c #9C7958",
"b c #9D7958",
"n c #9D7959",
"m c #9D7A59",
"M c #9D7A5A",
"N c #9D7A5B",
"B c #9D7B5C",
"V c #9E7B5C",
"C c #9E7B5D",
"Z c #9F7C5D",
"A c #9F7C5E",
"S c #9F7D5E",
"D c #9F7D5F",
"F c #9F7D60",
"G c #9F7E60",
"H c #A07E60",
"J c #A07F62",
"K c #A07F63",
"L c #A08063",
"P c #A18063",
"I c #A18064",
"U c #A18164",
"Y c #A18165",
"T c #A18265",
"R c #A28265",
"E c #A28266",
"W c #A28367",
"Q c #A28467",
"! c #A28468",
"~ c #A3856A",
"^ c #A3856B",
"/ c #A3866C",
/* pixels */
"cccccccccccccccccccccccccccccccccccccccccccccccccccccccccccccccccccccccccccccccccccccccccccccccccccccccccccccccccccccccccccccccc",
"cccccccccccccccccccccccccccccccccccccccccccccccccccccccccccccccccccccccccccccccccccccccccccccccccccccccccccccccccccccccccccccccc",
"jjjjkzzzzzzzxxxxcccccccccccccccccccccccccccccccccccccccccccccccccccccccccccccccccccczkllkhhhgsssspsssuuuuuuuusssssssssssgjjjjjjj",
"ooooOOOOOOOOOOOO$%%%%%%%%%%&:::::>33333466wwwwwwwwisssssssgkkkklgggpwww04444====o                                        ooooooo",
"                                                                O                                                               ",
"                                                               oo                                                               ",
"                                                                                                                                ",
"                                                                                                                                ",
"                                                                                                                                ",
"                                                                                                                                ",
"                                                                                                                                ",
"                                                                                                                                ",
"                                                                                                                                ",
"cccccccccccccgdddddddddpwwwwwwwwww44444444442**********O                       O********244444444wwwwwwwwpdddddddgcccccccccccccc",
"ccccccccccccccccccccccccccccccccccccccccccccccccccccccccccccccccczdddddzcccccccccccccccccccccccccccccccccccccccccccccccccccccccc",
"cccccccccccccccccccccccccccccccccccccccccccccccccccccccccccccccccccccccccccccccccccccccccccccccccccccccccccccccccccccccccccccccc",
"cccccccccccccccccccccccccccccccccccccccccccccccccccccccccccccccccccccccccccccccccccccccccccccccccccccccccccccccccccccccccccccccc",
"cccccccccccccccccccccccccccccccccccccccccccccccccccccccccccccccccccccccccccccccccccccccccccccccccccccccccccccccccccccccccccccccc",
"cccccccccccccccccccccccccccccccccccccccccccccccccccccccccccccccccccccccccccccccccccccccccccccccccccccccccccccccccccccccccccccccc",
"cccccccccccccccccccccccccccccccccccccccccccccccccccccccccccccccccccccccccccccccccccccccccccccccccccccccccccccccccccccccccccccccc",
"cccccccccccccccccccccccccccccccccccccccccccccccccccccccccccccccccccccccccccccccccccccccccccccccccccccccccccccccccccccccccccccccc",
"cccccccccccccccccccccccccccccccccccccccccccccccccccccccccccccccccccccccccccccccccccccccccccccccccccccccccccccccccccccccccccccccc",
"cccccccccccccccccccccccccccccccccccccccccccccccccccccccccccccccccccccccccccccccccccccccccxhjpiyww0046880wwruuissdhjjkzzzxzxccccc",
"13446880wwwyuusssgjjkzzzzzxccccccccccccccccccccccccccccccccccccccccccccccccccchgiwq44:=@                         oooOOO@%%&:::11",
"                 oooOOO@%%%-::<112445889wwwtuyadsgjjjzzzzzzccccccckgsww44<=%                                                    ",
"                                                  oooOOO$%%=:                                                                   ",
"                                                                                                                                ",
"                                                                                                                                ",
"                                                                                                                                ",
"                                                                                                                                ",
"                                                                                                                                ",
"                                                                                                                                ",
"XXXXXXXXXXXXXXXo++++++++++++++++@$$$$$$$$$$$$$$$=<<<<<<<<<<<<                                                                   ",
"LKKKKKKKKKKKKKJPEEEEEEEEEEEEEEEE!~~~~~~~~~~~~~~~~^^^^^^^^^^^///////////~WWWWWEPIIIIIHDDDDDABBBVAANNNNNNNNNNNNNNZSSSSSSSSSSSSSSAG",
"////////////////////////////////////////////////////////////////////////////////////////////////////////////////////////////////",
"////////////////////////////////////////////////////////////////////////////////////////////////////////////////////////////////",
"////////////////////////////////////////////////////////////////////////////////////////////////////////////////////////////////",
"////////////////////////////////////////////////////////////////////////////////////////////////////////////////////////////////",
"////////////////////^^^~~~^^^^^^//^^////////////////////////////////////////////////////////////////////////////////////////////",
"WWTTUPPJJJDDDAACVVmmnvbccccvNNADGPPWW~///////////////////////////////////////////////////////////////////////////////////^^^~!~W",
"cczzzzzzllzzzzzzzzzzzzzzzzzzzzzzccccccccNNADGIIWQ~///////////////////////////////////////////^^^^~~~!WWRTYPIKJJFDDAACVVMnnbbcccc",
"zzzzzcccccccccccccccccccccccccccccccccccccccccccccccNNZDDIIEQ!///////////^^^^^^~~!JJGDDAAZVVNnnbvvccccczzzzzzllzzzzzzzzzzzzzzzzz",
"ccccccccccccccccccccccccccccccccccccccccccccccccccccccccccccccccANnnbvbccccczzzzzzllzzzzzzzzzzzzzzzzzzzzzzcccccccccccccccccccccc",
"cccccccccccccccccccccccccccccccccccccccccccccccccccccccccccccccczzzzzzzzzzzzzzzccccccccccccccccccccccccccccccccccccccccccccccccc",
"cccccccccccccccccccccccccccccccccccccccccccccccccccccccccccccccccccccccccccccccccccccccccccccccccccccccccccccccccccccccccccccccc",
"cccccccccccccccccccccccccccccccccccccccccccccccccccccccccccccccccccccccccccccccccccccccccccccccccccccccccccccccccccccccccccccccc",
"cccccccccccccccccccccccccccccccccccccccccccccccccccccccccccccccccccccccccccccccccccccccccccccccccccccccccccccccccccccccccccccccc",
"cccccccccccccccccccccccccccccccccccccccccccccccccccccccccccccccccccccccccccccccccccccccccccccccccccccccccccccccccccccccccccccccc",
"cccccccccccccccccccccccccccccccccccczzzzzzzzzzzzzjhhhfssssuyyytecccccccccccccccccccccccccccccccccccccccccccccccccccccccccccccccc",
"zzzzhhhhdssssyyyytwwww9666644441111,;;:;&%%%$OOOOooooo          4wwidhccccccccccccccccccccccccccccccccccccccccccccccccczzzzzzzzz",
"OOOOooooX                                                               **146wwddzzzzzlhhhhdssssyyyyrwwww7666544441111,--:-%%%%#",
"                                                                                     .......                                    ",
"                                                                                                                                ",
"                                                                                                                                ",
"                                                                                                                                ",
"                                                                                                                                ",
"                  XXXXXXO++++++$$$$$$=<<<<<<5666<><>>>%%$                                                                       ",
"ccccMNNNNNVSSSSSAHLKKKJLTEEEEEW~~~~~~~^^^^^^////////////////!!!YVbfffffffr4444444%XXXO++++++$$$$$$*<<<<<<4666666tyyyytphhhhhgzcc",
"/////////////////////////////////////////////////////////////////////////////////////////^^^/////^^/////////////////////////////",
"////////////////////////////////////////////////////////////////////////////////////////////////////////////////////////////////",
"////////////////////////////////////////////////////////////////////////////////////////////////////////////////////////////////",
"////////////////////////////////////////////////////////////////////////////////////////////////////////////////////////////////",
"////////////////////////////////////////////////////////////////////////////////////////////////////////////////////////////////",
"////////////////////////////////////////////////////////////////////////////////////////////////////////////////////////////////",
"////////////////////////////////////////////////////////////////////////////////////////////////////////////////////////////////",
"0uddzbbCDDPEE!///////////////////////////////////////////////////////////////////////////////////~WWWPKKGZZZnbbcytyyyyyyyyyyyyyy",
"                &440ffzBBZIIT//////////////////////////////////////////////////^IIIABBMfffw444                                  ",
"                               O444fffBBBPII^/////////////////UUUHBBBkffu444$                                                   ",
"                                               144iffff444=    OO                                                               ",
"                                                               OO                                                               ",
"                                                               oo                                                               ",
"                                                                                                                                ",
"                                                                                                                                ",
"                                                                                                                                ",
"                                                                                                      #:=:<>,1<<1<::-%%%@OOOooo ",
"ssuuurww0886444111:::*%%@OOOooo                                                         O==<440wwsggcccccccccccccccccxzzzzzkjjhs",
"cccccccccccccccccccccxzxzzzljjjdssiyutwwq886444111>==$@OO                 @==1440wwdghcccccccccccccccccccccccccccccccccccccccccc",
"cccccccccccccccccccccccccccccccccccccccccccccccccccccczzzzzzgur694wwrggjcccccccccccccccccccccccccccccccccccccccccccccccccccccccc",
"cccccccccccccccccccccccccccccccccccccccccccccccccccccccccccccccccccccccccccccccccccccccccccccccccccccccccccccccccccccccccccccccc",
"cccccccccccccccccccccccccccccccccccccccccccccccccccccccccccccccccccccccccccccccccccccccccccccccccccccccccccccccccccccccccccccccc",
"cccccccccccccccccccccccccccccccccccccccccccccccccccccccccccccccccccccccccccccccccccccccccccccccccccccccccccccccccccccccccccccccc",
"cccccccccccccccccccccccccccccccccccccccccccccccccccccccccccccccccccccccccccccccccccccccccccccccccccccccccccccccccccccccccccccccc",
"cccccccccccccccccccccccccccccccccccccccccccccccccccccccccccccccccccccccccccccccccccccccccccccccccccccccccccccccccccccccccccccccc",
"cccccccccccccccccccccccccccccccccccccccccccccccccccccccccccccccccccccccccccccccccccccccccccccccccccccccccccccccccccccccccccccccc",
"cccccccccccccccccccccccccccccccccccccccccccccccccccccccccccccccccccccccccccccccccccccccccccccccccccccccccccccccccccccccccccccccc",
"cccccccccccccccccccccccccccccccccccccccccccccccccccccccccccccccccccccccccccccccccccccccccccccccccccccccccccccccccccccccccccccccc",
"jjjjkzzzzzzzxxxxcccccccccccccccccccccccccccccccccccccccccccccccccccccccccccccccccccczkllkhhhgsssspsssuuuuuuuusssssssssssgjjjjjjj",
"ooooOOOOOOOOOOOO$%%%%%%%%%%&:::::>33333466wwwwwwwwisssssssgkkkklgggpwww04444====o                                        ooooooo",
"                                                                O                                                               ",
"                                                               oo                                                               ",
"                                                                                                                                ",
"                                                                                                                                ",
"                                                                                                                                ",
"                                                                                                                                ",
"                                                                                                                                ",
"                                                                                                                                ",
"                                                                                                                                ",
"cccccccccccccgdddddddddpwwwwwwwwww44444444442**********O                       O********244444444wwwwwwwwpdddddddgcccccccccccccc",
"ccccccccccccccccccccccccccccccccccccccccccccccccccccccccccccccccczdddddzcccccccccccccccccccccccccccccccccccccccccccccccccccccccc",
"cccccccccccccccccccccccccccccccccccccccccccccccccccccccccccccccccccccccccccccccccccccccccccccccccccccccccccccccccccccccccccccccc",
"cccccccccccccccccccccccccccccccccccccccccccccccccccccccccccccccccccccccccccccccccccccccccccccccccccccccccccccccccccccccccccccccc",
"cccccccccccccccccccccccccccccccccccccccccccccccccccccccccccccccccccccccccccccccccccccccccccccccccccccccccccccccccccccccccccccccc",
"cccccccccccccccccccccccccccccccccccccccccccccccccccccccccccccccccccccccccccccccccccccccccccccccccccccccccccccccccccccccccccccccc",
"cccccccccccccccccccccccccccccccccccccccccccccccccccccccccccccccccccccccccccccccccccccccccccccccccccccccccccccccccccccccccccccccc",
"cccccccccccccccccccccccccccccccccccccccccccccccccccccccccccccccccccccccccccccccccccccccccccccccccccccccccccccccccccccccccccccccc",
"cccccccccccccccccccccccccccccccccccccccccccccccccccccccccccccccccccccccccccccccccccccccccccccccccccccccccccccccccccccccccccccccc",
"zzzzzzzzzzzzzzzzzzzzzzzzzzzzzzzzzzzzzzzzzzzzzzzzzzzzzzzzzzzzzzzzzzzzzzzzzzzzzzzzzzzzzzzzzzzzzzzzzzzzzzzzzzzzzzzzzzzzzzzzzzzzzzzz",
"nnnnnnnnnnnnnnnnnnnnnnnnnnnmnbbbbbbbbbbbbbbbbbbbbbbbbbbbbbbbbbbbVVVVVVVVVVVVVMnnnnnnnnnnnnnnnnnnnnnnnnnnnnnnnnnnnnnnnnnnnnnnnnnn",
"////////////////////////////^^^^^^^^^^^^^^^^^^^^^^^^^^^^^^^^^^^~^/////////////^/////////////////////////////////////////////////",
"///////////////////////////////////////////////////////////////^^///////////////////////////////////////////////////////////////",
"///////////////////////////////////////////////////////////////^^///////////////////////////////////////////////////////////////",
"///////////////////////////////////////////////////////////////^^///////////////////////////////////////////////////////////////",
"///////////////////////////////////////////////////////////////^^///////////////////////////////////////////////////////////////",
"/////////////////////////////////////////////////^^~~!EEPJDSCNbh^///////////////////////////////////////////////////////////////",
"///////////////////////////^^~~!ETLJDSVNbczhgyt962<;$@+OoX        %44rffbBBPII//////////////////////////////////////////////////",
"/////^^~~WEUKJSABNbczhdyt662<*$@+OXX                                            +440ffcBBHII^///////////////////////////////////",
"atw66<<%$@+OX                                                                                  446ffzBBDII~////^^~~WEIKHSANNcckh",
"                                                                                                             +@O@OOOooX         ",
"                                                                                                                                ",
"                                                                                                                                ",
"                                                                                                                                ",
"                                                                                                                                ",
"     ooO@#%%&=&&=$@@o                                                                                                           ",
"wtuadhjzzzxccccccccccccjggtww644:==o                                                                               ooO@%=:<14480",
"cccccccccccccccccccccccccccccccccccccchggtww444-==o                                              ooO@%=:<14580wtusdhjzzzcccccccc",
"ccccccccccccccccccccccccccccccccccccccccccccccccccccchggrww444==               oOO#%=:124680wtusdhkzzzcccccccccccccccccccccccccc",
"cccccccccccccccccccccccccccccccccccccccccccccccccccccccccccccccccccccccccccccccccccccccccccccccccccccccccccccccccccccccccccccccc",
"cccccccccccccccccccccccccccccccccccccccccccccccccccccccccccccccccccccccccccccccccccccccccccccccccccccccccccccccccccccccccccccccc"
};
