/* XPM */
static char *out[] = {
/* columns rows colors chars-per-pixel */
"32 64 100 2 ",
"   c #4D331F",
".  c #5F3C16",
"X  c #5E3D1D",
"o  c #613F1F",
"O  c #503520",
"+  c #533923",
"@  c #5A3E26",
"#  c #62401F",
"$  c #72491C",
"%  c #5F4027",
"&  c #5E412A",
"*  c #644221",
"=  c #6B4625",
"-  c #6E4926",
";  c #63452A",
":  c #68472B",
">  c #66482E",
",  c #6C4A2D",
"<  c #704B26",
"1  c #744E2A",
"2  c #77502B",
"3  c #7A542D",
"4  c #674A30",
"5  c #6D4C31",
"6  c #714D31",
"7  c #6F5033",
"8  c #6C5139",
"9  c #755234",
"0  c #7B5534",
"q  c #7F5932",
"w  c #755539",
"e  c #7A5639",
"r  c #77583D",
"t  c #7C5A3C",
"y  c #7D5E42",
"u  c #7F6045",
"i  c #815733",
"p  c #825B36",
"a  c #835E3D",
"s  c #895F3B",
"d  c #9A652E",
"f  c #85603D",
"g  c #8D633E",
"h  c #825F40",
"j  c #856242",
"k  c #8C6544",
"l  c #8E6845",
"z  c #83654B",
"x  c #89674A",
"c  c #85684F",
"v  c #8D6A4B",
"b  c #916642",
"n  c #936945",
"m  c #946D4A",
"M  c #986F4B",
"N  c #96714F",
"B  c #9A724E",
"V  c #866A53",
"C  c #8B6D52",
"Z  c #8A6F58",
"A  c #926F51",
"S  c #8E7054",
"D  c #8D725C",
"F  c #947253",
"G  c #9C7552",
"H  c #9D7856",
"J  c #92745B",
"K  c #997658",
"L  c #96785D",
"P  c #9D7B5B",
"I  c #A07957",
"U  c #A17E5D",
"Y  c #8E7762",
"T  c #8F7864",
"R  c #927761",
"E  c #957A63",
"W  c #997D63",
"Q  c #957E69",
"!  c #997F68",
"~  c #A17F60",
"^  c #A3805F",
"/  c #9D8064",
"(  c #9B826B",
")  c #9C8673",
"_  c #9E8874",
"`  c #A38162",
"'  c #A4866A",
"]  c #A6896C",
"[  c #A88A6E",
"{  c #A48A72",
"}  c #A98C72",
"|  c #A08C78",
" . c #AB9177",
".. c #AC937B",
"X. c #B59576",
"o. c #AF9983",
"O. c #B09B86",
"+. c #B19E8A",
"@. c #B3A18E",
"#. c #B3A290",
/* pixels */
"@.@.+.+.@.o.o.o.o.o.o...........{ } } }  .........O.O.O.........",
"#. .' ' ` ` ` ` ` ` ` ` ` ` ` ^ ^ ^ ^ ^ ` ` ` ` / ^ ^ ` ^ ^ v v ",
"@.} U H x v v v N F K F K P ` ` ^ ^ v ^ ^ F ^ F F N N v / ^ g m ",
"#.} ^ ` v j y t r r w t C ^ ^ ^ ^ ^ y 7 7 7 7 7 w r r v / ^ v m ",
"@.} ` ^ U F S v v v J _ ] ^ ^ ` ^ ^ ^ / m u v v v v ( | ^ ^ l g ",
"@.} ^ ^ ^ U v N v S ( { ^ ^ ^ ^ ^ ^ ^ ^ ^ / v v v / | / ^ ^ l l ",
"@.} ^ U ^ ` P v C ( _ ^ ^ ^ ^ t ^ ^ ^ ^ ^ v c v / | / ^ ^ ^ g g ",
"@.[ H v U U U K ( { ` P ^ ^ 7 w y ^ ^ ^ ^ ^ S / _ / ^ ^ ^ ^ g l ",
"@.] ^ r m ^ ^ ^ / / ^ ^ ^ 5 w x f v ^ ^ ^ ^ ^ / / ^ ^ ^ ^ u g g ",
"@.' G t y N ^ ^ ^ ^ ^ ^ > w j l g u q / ^ ^ ^ ^ ^ ^ ^ ^ 1 ^ g g ",
"+.] K r j f K ^ ^ ^ ^ 4 > r x | l u > 7 ^ ^ ^ ^ ^ ^ ^ > q / g f ",
"@.' G r x v F H ^ I , w j c v ] ^ u y / w ^ ^ ^ ^ g 7 u u / g f ",
"@.' B r x ( _ H ^ & w x l l x ' m u v g u u ^ ^ ^ ^ q u v / t g ",
"O.^ N t / _ ^ ^ 7 & w j _ l j ] ^ f v ' u q q ^ ^ ^ ^ ^ v / f p ",
"+.^ N v ( ^ ^ y 7 u L x F F j ` ^ y ^ ^ g g u q ^ ^ ^ g S / p p ",
"+.^ N / ^ ^ l , y l x l j f j l q f f u u / u y * l ^ ^ G / p p ",
"+.^ G ^ ^ ^   ; j j K N j j ; & > 4 a f U N j 9 7 w v I ^ P f p ",
"+.^ ^ G G % w z z j k j j > 4 W ( e w z k j f z x x y v H H q f ",
"O.^ ^ ^ 4 w f f v j F L j 5 E { ^ m r z ' ] [ } P j j t k H q q ",
"O.^ ^ f 7 j f } { { ' U N > m H m j w k N l l v j j j j J F q q ",
"..^ ^ t t f f l l k j t e 7 9 j t 4 z x f f j f f j z D ( I i q ",
"o.^ G N N z j f a j j f j j u V V Z v j ] L j 7 > 4 u ( U G q i ",
"..^ H H H w 4 7 e j j W v j h v v j f j v j e f u T ) H H G 3 i ",
"..^ H N H H V D j j f a f f j ] P j { m f a j f J _ G H g v q 3 ",
"..H H q t G G F x f > w t U j ~ M f k v t 5 , D _ H H t 7 F 3 3 ",
"..^ H y 9 e B H C 8 w z a j a P m t f t h e V T H H e > j K 3 3 ",
"..G G f w t k G G I Y x h a a H m a a a j R ) H H e , e C K 2 3 ",
"..H G f r L ( G G G G J x ; t f f u ; 4 R ( H G G l t h C H 2 2 ",
"..G G t x ( G G G k G G v w z t w a r D J H n t G G m j J H 2 2 ",
"..G G f L G G B 9 ; f G G F C j a C Q L G j @ > t B B x E F 1 1 ",
"X.B G v P G N 6 5 t 0 k G G B S ( _ K G a 6 j F x j B G L G 1 1 ",
" .G G G B G l C W ( ! W F B G G L B G m v L W W W P H G G B 1 1 ",
"} M M I M I B M M I G M G B G B M M M I B G B G B B B B B B . X.",
"} I B B B B G I B B B I B G B G I I B B B B G B B B I B B M . . ",
"} B B B M B G M B B M M B B B B M M M M B B G B B B B B B B o $ ",
"} B B B B B M M B B M I M B B M M B I M G M M B B B B B B B o d ",
"} B M B M M n m M B M n m m m M M M M M N N M M B b b a h M < < ",
"} B M p e 0 h m M M M p 6 6 9 9 0 0 0 e i b B M B s 6 ; e M < < ",
"[ M m ; 9 C M M k M M n 6 6 , , : > : e C m M a k M k h C M < < ",
"} M m p ! N M 0 + h M M m y e e e e C E B M h + > n M m R M - - ",
"[ m n m M M 0 @ , 6 k M M k a e e c E N M n @ > 6 6 b M m M - - ",
"[ M m M m 0 + 5 e 6 9 m m M h a C E M m n % > 6 0 6 6 k M m - < ",
"{ n m m 0 + 5 w e 0 6 e n m n k E A m m ; & 6 0 0 9 6 w k m - < ",
"{ m n 0 @ , 9 9 6 0 e 6 p m m m m m n 5 @ 5 0 9 9 w e h v m - < ",
"[ n h ; 6 6 6 w e 9 9 6 0 k m n n m n 5 9 e 6 0 9 w x R m n - < ",
"[ m m b h y 9 9 6 0 9 h Z A n m s n n n v y e 6 w h R A n m - - ",
"[ n b m l h e 9 6 9 h R F m m s O 5 n n n l z e h R A m n m - = ",
"[ b i h m n h h 6 y R N n b n @ @ , 6 b n n k C R F n b b s = - ",
"] b 0 = b b b h x E F n n b : @ 6 6 , 6 b b b b A n n b 6 6 < - ",
"] b 0 ; 9 b n b v A b b b i O 5 6 6 6 , 6 h b b b b b 9 + h - = ",
"' b 0 ; 5 i b b b n b b s O ; 6 6 6 6 6 , 5 s b b b 9 O , x - = ",
"' b 0 ; 6 5 h b n b n b @ % 6 6 6 6 5 6 6 6 y b b 9 + : y x - , ",
"] b w ; w h x b b b b s ; 5 6 , 6 5 5 6 w Z A b b 9 , 6 y x - - ",
"' b e 5 Z R b b b b b b a w 6 6 6 6 5 9 Z A b b b b i 6 y x - - ",
"' b i h J b b b b b b b b s e 6 6 6 9 V S b b b b b s 0 y h < - ",
"] b s k b g b s @ i b b h b h e 6 9 z Z b b b : s b b s y x < < ",
"~ g g b g b b %   % i b b s b a h V J b b b 6   , g g g f S < < ",
"[ g g g g b % O : : % i b b b s h K b s g 9 O % , 9 g g g g < < ",
"~ b s b b * O ; , , : ; i s g b g g g g i O % , , ; 3 g g g - < ",
"~ b b b : O % 5 5 , , : % i g g g g b s O % : , , , ; f g g - - ",
"[ b b 6 ; y z V V V V V z h h b g g g , 6 c c c u u y r u g < - ",
"~ b s a b b h A x b x b b x b h g g s s k l k l v v v v g g < < ",
"~ g s s s i i i i i i i i i p s s s s s h g s g g g k g g g - - ",
"b = = * o o + X X o o o o o o o * * o * * = * = - - - - - 7 # - "
};
