/* XPM */
static char *out[] = {
/* columns rows colors chars-per-pixel */
"64 64 82 1 ",
"  c #08090B",
". c #121316",
"X c #151619",
"o c #181A1D",
"O c #131720",
"+ c #161A22",
"@ c #1B1D24",
"# c #191E28",
"$ c #1E2125",
"% c #1D222C",
"& c #202327",
"* c #22262B",
"= c #26292F",
"- c #202531",
"; c #262A32",
": c #2A2D34",
"> c #272D39",
", c #282F3A",
"< c #2D3136",
"1 c #2E333B",
"2 c #32353D",
"3 c #2E3440",
"4 c #313640",
"5 c #353A43",
"6 c #3A3E46",
"7 c #373D48",
"8 c #393F4A",
"9 c #3C414D",
"0 c #3E4552",
"q c #41454F",
"w c #414752",
"e c #434955",
"r c #454D5B",
"t c #494F5C",
"y c #4A515F",
"u c #4C5462",
"i c #4F5866",
"p c #505765",
"a c #525966",
"s c #505768",
"d c #555C6A",
"f c #595E6A",
"g c #57606E",
"h c #5A616E",
"j c #576170",
"k c #5C6573",
"l c #5F6877",
"z c #5E6778",
"x c #5F6879",
"c c #606774",
"v c #626976",
"b c #646C7B",
"n c #686F7D",
"m c #67707E",
"M c #6B717E",
"N c #70757F",
"B c #6C7583",
"V c #6F7886",
"C c #717783",
"Z c #727985",
"A c #757C8A",
"S c #787F8A",
"D c #7B818E",
"F c #7E8591",
"G c #81858E",
"H c #82888F",
"J c #818793",
"K c #848A95",
"L c #898D95",
"P c #878D98",
"I c #898E99",
"U c #8A9097",
"Y c #8D929C",
"T c #91959F",
"R c #8F95A1",
"E c #9297A0",
"W c #9499A3",
"Q c #9A9EA4",
"! c #9DA0A7",
"~ c #9EA2A9",
"^ c #A2A5AB",
"/ c #A6A8AC",
/* pixels */
"WWQWQWQQWQWWQWWTYUJFSBCSJUTQ~WRWWW//////////////////JJTEWWWQWQWQ",
"QWQWEQWWWWQWWTYLGDVZJYQQQTTYIWWWWWKKKKKLKKKKLLKLLKLWDDYEWQWQQEQE",
"WWWQQEWQQWWEYIGSZGU!TTLKHLLHKWWWRWFPKKLKKKKKGKKKKKLTJCJTWQWWWQEQ",
"QWWWEQWQWEEYKSBGTTULLKKKSny6>WWRWWOOXXXXXXXXXXXX*fLYTBFYWWQWWEQE",
"WTWTQTQTETIJCZIEUKKHFNr:*=:5eWWWWWbbbbbbbbbbbbjp62GIQSCPTEWQWWQE",
"WWQTWQWTYIFBATLKKHZg2;10knZZSWRWWEJGJJFFFGFFFJSBy:vKTYbGLEEWWWWE",
"TQWWTWWTLGCAYLKJNa21rmDDGJKKIEWWWWYYYYYYTYYYITIGC4qGLQGnGYTWQEEQ",
"QTTWQTTYJBCLKJGv99imDDFUITTTEWWWWWWEWWWWWEWEWWTISt=cKYECBGLYTEWE",
"TWWEEEYKZBKKGSf9rmDFUYTTRWRRWWWWWRWWEWTTWWTWEEEYJC<2CLQYCBSGITTT",
"TTTEEEIFbbJJScyhDFFTTTEERRWWFWWWWREWEETWTTTTETETIDf=6CLWWDbCSGKI",
"WTETETPAfZJGCccZFYTTTEEERWWW~WWWWEEETETETWWTEEEYYJAe&qSJYQTSvBAF",
"YYYIIKSbtSGSZkCKUTTRTTTTWR~FWWRWWWEREEEETTTTEEEETYJCq@6BGLTQQLDS",
"LGSSSZnaqGFGBbSITTTTTTTTRRTTRWWWWRTTTTTTTTTTTTETTYIFCw*=fSGGLTQ!",
"CnckkfyySGDGcBJYRRTTRTTRRRTTRWRWWWRRYERETTTTTTEYTTYPFCs<o4fSFDGY",
"L^^^^!!TJFDIfZPYYRTTTTYRRYRRRWWWRWRREYEETTTTTEEETTYYIJCBe:o:pGGL",
"2JSSDDGDDFFYjSKTTYYYYTTYTTYYRWRWWWRY-#YYTTYTIEIRYYTYYIJGCvq2:SGY",
"2DGSGDGSDDDUnDPYYYYYYYYTRYYYRWRWWWYYlYYYYYYYYRYYYYYYTYIIJAbt<DSY",
"2SSv2......eBDUYYRYYYTYYYYYYRRWWWWYYuYYYYYRYYYYYTYYYYYYIIJBs4SSY",
"2SSZrtpfggxBDJUYYYYYYYYYRYRRYWRWWWYYYYYYYYYIYYYYYYYYIYYYYKZd2SSL",
"2SSLrjnZVVDDKLUYYYYYYYYYRRFWYWWWWW%PYYYU+YYYYYYRYYYYYYYYYJZd2SSY",
"2SSUunSJFKKPPIYYIYIYUYIYFWFFFWWWWWj,%%%93YYYIYIIIYYYYIIYIKCa2ZSL",
"2ZZIdZJYYYYIIUUPIYIYYUIIRWWRFWWWWWFRPlPY0PIPIYIYYIIIYIIYYJCa<SSL",
"2ZZLaBJIPPPYIYPYIYPPIIIIRFWFWWWWWWRFP>PP3YPYYPUUIIIIIIIIIJCp2ZZL",
"2ZZLaBFIYUPPIPYPIPYIIIIIFWFWFWRWRW-%9P99PUPPIIIPIIIIIIIIIJCa2ZCL",
"<CCLuBFPILPIPPPPIPPPPPPPPPPPRWWWWWBFRFRPPPPPIPPPIPPPPYPPPJBu,CCL",
"<CCLimFKKIPPPPPPPPPPPIIPUPPUFWWWRWRRFRPPPPPPPPPKPPIPPPPPPFBp<CCL",
":CCKumFPPKPKPPPPKPPPPPPPKPPPF~WWWW-FFPFRFRPFPPPPPPKPPKPKJJBu<CCK",
":CNHubDPKPKPPPFPPPKKIFPUKPKKFWWWWWFFRPPFPPPRPFPPPKPKPKKKPSby<CCG",
":CMKynDJKKFPKKFPKFKFPPPFPFPFPWWRWW%FFFPFOFPFKPKKKKKKKKKKPSny:BMG",
":MnKybFJKJPJPFKPKKPFPFFPFPPFFWWWRT9%%%%73FFPKKFKJKKKKKJKKSnt:BCG",
":MMGybSJJJJPFPFFKPFPFFPPKPFPPWWWWWmFFIFFuFPFFKKKKFJKPJKJJSbt:MMJ",
":nnKtvSJJKPFKFFPFFPFFPFFFFFFDWWWWWFIFFFPPFFPFFFKFKJFJJJJJSbt:nnG",
":nnHtlDFFFFFFFFFPFFFFFKFDVABBRWWRW%FFFFFFFFPFFFPFPFFJJFFFAzr>BBV",
"=vnDrkBDDDFDFFFFFFFFFFFDABBjsWWWWWFFFFFFFFFFFFFFFFFFFFFPFAzr>BBA",
"=mnDekMVBDDDFFFFFFFDFDDVBjsA~WWWRR+DFFFF#AFFPFFFFFFFFFJFFAzr#BBV",
"=vmD0gllFzBDFFDDDDABBBmbzsW~~RRWWW9O#++9>FFFFFFFFFFFFFFAFAzr-BBA",
"=bvG0igm~ujBDDDDVBxjddddusAWWWWWWRjDD0FF3DDFFFDFAPFFFAFFFZje-jBV",
"=vvD0uum~F0uzBbxjdy0g/~e07uDWWWWWWFDD9DD>DDDDDDFAAFAFFFFFZkw-BzA",
"*ccD0r00W~D00duu00W~^~/e774jWRWRWWDDDD11DDDDDDDDFFAFAFAASBj0=czS",
"=ccD0uy9gW~!059gW~!!WW~^5539FWWWWWDDDDDDDDDDADDDAFAFFAFFFBfw=zzS",
"=chD9yy99D!~~//~!WWEEW!~F35<tWWWFWFDODDDDDDVDVDDDADDADDDSBd0-zzZ",
"*hcZ9yyq<aUE!!W!WREEEWR!^r44>WRE~WDD%DDDDDDDDDDVADAADDADSBj0*khS",
"*chD9iht<2mUIPFFYWRRRRRW~~53<RRRFFDB0ODBDVVDVDDVDAADAAAAABd8=hkS",
"*hhZ9ikg0%5gdr0lFRPKFFYWW~I59YRR~FBBBBDDVDDVDVDDAAADAAAAABd8=hhZ",
"&hhZ9illu5$%=:<9DUDj0iDYRWW0rRPRFFriBBBDDVVDVDDVAAAAAAAAAnp9&hhZ",
"&hgZ9umMlu0095<<0gi2,;0BAFArjYPPF~B0rBBDVDDVVVVVAAAAAAAAABp7=dfZ",
"&hgN7imBBljgur9%$;912=%50y0sBFKIF~FB3iBBBDVDDVVBVBVBVAAAAbp9*gfC",
"&ggB7imVBBBmblir000r09<*38yjBFKKFFDFB7rjBBVVVBBBs733BAVVAbu6&gdC",
"&ddN7sxVVVVABBBjjjjkjiurrilmBJJFHHakDN9ilBDDBmr23y93BBVVAbu7%ddC",
"&ggN5ubAVAVAVVBBxBBxBBjkxxBBBDFFDDggkFe9dlbmv919BF0uBBAVVbs5%ddN",
"&ddM5ubZVVVVVVBBBBDBBBBBmBBVVDDDDDaagML50jlv040Nzi3jBBBBVzu5&ddN",
"&adM5uxBVVBBBBBBBBBBBBBBBVBVVZZDZZgyaaZH90i010vhi53inBBBBbu5&pdM",
"&paM2yxBBVVBVBVBBBBBBDBVVBBBVVZZZZppaaaN049<5cfum>2ykbBBBvy5$ppM",
"&paM2yxBBBBBBBBBBBBBBBBBBBBBBVBBCZppyiaMyj;1hgiaD2;7rijzmly5$yaM",
"$apM2ylBBBBBBBBBBBBBBBBBBBBBBmmMMMppaiuvMDFmfiaaMHH9370ijgt2&upM",
"oppM5ylBBBBBBBBBBBBBBBBBBBBBBbmmnnpyuuuiuiiiuauuudMHID550r9<&uuM",
"$uym1rlBBBBBBBBBBBBBBBBBBBMBNvvvbbpuupupuauuuuuuauaugNLD552<$iuM",
"$pym10ilzzkzjzjjklkkkklmkklkvvvvvvuuuuuuuuuuuuuuuuuuyuaZK0==$uum",
"$yym;70trrrru0urrrrr00u0rrttycvvccuuuuuuuuuuuuuttuuuyuiyvJ7<eyum",
"$yuS=;<<3,1133131111333111<22hfhhhuuuuyuyuyuuuuuuuyuuuyuubDhdyyn",
"$yyZLULLLUUUKKKUUULULULUULLLLffhffuuuuuuyuuuuuuuuuuuiyyyyyiayayM",
"oyyyyyyyyyyyuuyyyyyyyyyyuyyyyfffhhyyyuutuuyuyuyututuyiyiyyyyyyyn",
"$yyyyyyyyyyyyyyyyyyyyyyuyyyytfffffyuyyutyyyyyyyyyytuyyyyyyyyyyyb",
"                             aaaaa                             ="
};
