/* XPM */
static char *out[] = {
/* columns rows colors chars-per-pixel */
"128 32 74 1 ",
"  c #231207",
". c #3C200C",
"X c #452611",
"o c #4D2C13",
"O c #522E15",
"+ c #553116",
"@ c #593417",
"# c #55331B",
"$ c #5B3519",
"% c #5D391C",
"& c #633C1D",
"* c #693E1F",
"= c #5C3A22",
"- c #633E23",
"; c #693F22",
": c #654022",
"> c #6C4323",
", c #664329",
"< c #6B4529",
"1 c #6F4C2E",
"2 c #704525",
"3 c #724827",
"4 c #744B2B",
"5 c #794E2C",
"6 c #7C512D",
"7 c #754D30",
"8 c #765133",
"9 c #7D5333",
"0 c #84542D",
"q c #8A562E",
"w c #8B582F",
"e c #835632",
"r c #875833",
"t c #895B36",
"y c #805738",
"u c #845D3A",
"i c #8C5E3A",
"p c #87603E",
"a c #8F613C",
"s c #92653E",
"d c #8D6542",
"f c #8E6847",
"g c #946741",
"h c #966B45",
"j c #986D47",
"k c #956D4B",
"l c #986E49",
"z c #96704D",
"x c #9A724D",
"c c #9D7652",
"v c #9F7855",
"b c #9E7B5C",
"n c #A07956",
"m c #A17C5A",
"M c #A27E60",
"N c #A3805F",
"B c #A68465",
"V c #AC8765",
"C c #A78668",
"Z c #A98669",
"A c #A7886B",
"S c #AA8A6D",
"D c #AC8D72",
"F c #AF9277",
"G c #AE947B",
"H c #B0947A",
"J c #B1987F",
"K c #AF9780",
"L c #B29A83",
"P c #B49E89",
"I c #B5A08C",
"U c #B7A491",
"Y c #B8A694",
"T c #BAAA9A",
/* pixels */
"TTTTTTTTTTTTTTTTTTTTTTTTTTTTTTTTTTTTTTTTTTTTTTTTTTTTTTTTTTTTTTTTTTTTTTTTTTTTTTTTTTTTTTTTTTTTTTTTTTTTTTTTTTTTTTTTTTTTTTTTTTTTTTTT",
"HHHHHHHHHHHHHHHHHHHHHHHHHHHHHHHHHHHHHHHHHHHHHHHHHHHHHHHHFJHHFJJFFHHHFJJFHHHHHHHHHHHHJGHHHHHHHHHHHHHHHHHHHHHHJHHHHHHHJHHHHHHHHHHH",
"HHHHHHHHHHHHHHHFHHHHHHGFHHHHHHHHHFHHHHHHFHHHHHGFHHHHHHHHHFFFFFJFHHHHFFFJHHHHHHHHHHFFHHFHHHHHHHHHHHFHHHHHHHFFFHHHHHHHHHFFHHHFHHHH",
"FFFFFFFFFFFFFFFFFFFFFFFFFFFFFFFFFFFFFFFFFFFFFFFFFFFFFFFFFFFFFFFFFFFFFFFHFFFFFFFFFFFFFFFFFFFFFFFHHFFFFFFFFFFFFFFFFFFFFFFFFFFFFFFF",
"11111111111111114111111111111111111111114111111111111111111111111111411111111111111111114111111111111<11111111141111111111114111",
"uuuuuuuuuuuuuuuuuuuuuuuuuuupuuuuuuuuuuuuuuuuuuuuprpppuuup9ppuupuuuuuup9ppp9puurpuuuuuuuuuuupuu9ppp99pp9puuuuuuuuuuupuuuppp9ppuuu",
"bbmbbbbbbbbbbbbbbbbbbbbbvbbbbbbbbbbbbbmbbbbbbbbbvbbbbbbbbbbbvbbbbbbbbvbbvNbbbNbbbbbbbbbbbbbbvbbbNNNbbNNNbbbbbbbbbbbbbbbbNbbbbbvb",
"CCCBBCCCCCCCZCCZCCCCCCCCCCVCCCCBCCCCCCBBCCCCCCCCCCCCCCBBCCCCCCCCCCCCCCCCBBCCBBCCCCCCBCCCCCBCCCCCCBBCBBBBCCCCCCCCCCBCBCCBBBCBCCCC",
"CBBBCBBCBCCBZBZMBCBNBCNNBBBBBBBCZBBBBBBBBBBBBBBBBCBCBCBCBCBBBBBBCBCBBCBBBBBBBBCBBBBBBBBBBBBBCBZBBBBBCBCBCBCBBBCBBCBBBBBBBBBBBBBB",
"BBNBNNBNNBGGHKGGGGDNNNNNBBBNBBNBMBBMBBBBBBNBBBMBNNNBNNNNNBNBBBNBNNBBBBNBBNBNNBLbNBBBNBBBBBBBMBMBNBBBNBNBBNBNNBBNBNBNBBNBBNBNNBBB",
"NNNNNNNNNGIIPPIPIPJNcNNNNNNNNNNNBKUUPPDmmNNNmBmBNNNNNNNNNNSNNNNNNNNNNNNNNNNNNDPbcNNNNNNNmBNNMBSPIIPJbbNNNNNNNNNNNNNNNNNNNNNNNNNN",
"mmmmNnNNCPPPLLPLLGDBpcNNbmNnNnbFYYIPPLLJmcmmmmmmbNbNnNbNNNLccnNmmmmmmmmNNNbNNILDpvmmbmmmmmmmmBPPIPLGSzcNmmmmNnNNmmNNbNnNNNvNnbNb",
"mbnnmmnnCDFDDDDDAbzf9sNNNnnnbnFUPPLKJHFFDcxvmnmmvbNnnNNvbJLBgvbbmnmbnmmnbmmnGPLAkkvvbmnmmnmnmKPPKJJDSmavmmmnmbnnnnNGccbbnNnNbnNb",
"vvvnvvvvcmmCCZZBvd81:pxccnbncAIIKHDDSSDSSNdlcncnncnnccvvCIJSdkvbvvvvnnvvvvvmPPJAmyzvvvvnnnvvnHJHAACNck4kncvvvvvnnnGJNsxvcvcnvvnc",
"xnvvvvcvxkmNBBVmf81%3sxcccvcnJJFDZZMBBBBmzgulnnncccccNNNIJSSCdxvvxxnvxvnxncJLGSBvkpxxnvcvnccnDDDCBBvfd:fcvcncvxnvAIFCsscccnccvcc",
"xxxxxxxxxlzmmMmk91-%rjcxxxxxxSNNncnncczlie9>sllnxxxcxVHJGFSBNmcgajxxxxxxxxvJJDSmcg6gxxxxxxxxnDFSBBBxdd&pxxxxxxxcvJJFNNujxxxxxxxx",
"xxxxxxxlllgcmMcu1,@4sxxxlxxlxjjaipiiiuy02;;;ajllxxxxxgcSZBBmxp<>ysxxjxjxlxmDDZMnhi2illxlxxxxxSFVNBMzpp-ixlxxxlxlCSSBgddyhxxxxxxx",
"jjjjjljjllgdccp1,#&uhljjjjlljs6422;44;;;;XO4sjlljljjlhicmcccf<+3ajjjjxjjllmVBBnxi5;0gllljjjjjSSVmmMzuu$ijjjjlljjscnd,,#4sjjhhjjh",
"hhjhhhjjlhhdgd9,%+5ahhhhhhhhhhile;;;;;;;O.;tgjhjhhhhhhhBlu9pu8&egjhhhjjhhhlnnnji7;-4shlhjhhjjVMmnmcp89$rjhjhjhhhsah9=#$9ghhhhjjh",
"ssgggggsggggigy,o:rshsssshhsgggmcgatyee;;O5ggggggsggggcl7=o:<4:6sgshsshsggskii04;&@4igggggssgnxhit9<-<#egsgggsgggad9%O3iggghsshs",
"ssssssssssssate%+5aasssssssssssxlgaatr03&$egssssssssssh7#o$-&=:>tsssssssggae62*&&O$0gggsssssguiy1--==X%rssssssssssr9O&eassssssss",
"saaaasaaaaaaar<$;yaaaaaaaaaasaar52;222;&o&riiisisaaaaae:%;5e5>->estsssaaisir>&OOX+2rtisiasaait44-==#X+2tsaaaasaaaai4;4tsaaisssia",
"aaiiatiiiatait046ataaatattiaaiit4&OOOoOO%4riaiiiitiaiir55eiiie55eatssttaiiitr2-%&4etaiatatiiiir2+Ooo@2wtataiiiiiiiie9riiiiiiiits",
"tttwtttttttttteertttwttttttttttre54444445etttttttttrttrertttttrertttrtttttttrr050ettttttttttttre54415qttttttttttttttrrtttwtttttr",
"wrrerrtrrrrrrrrrrrrerrq0twrrrrrrrrrrrrtetererreqtwrrrrrreeterrrtrtrrerrrrrrrrrrrerrrrrrrrrrrrrrrqrrrrrrrrrqrrretrrrrrrrqttrrrrrr",
"eq0ee0000q0e00ee0eee0eeqeq0eee000q0e00e000eee0eq0eeee0e0q0q0qe0e00000000eee000e00eee000e0e000000eee0e00e00eeqe0e00eee0000qeee0r0",
"00000e00q00q0000000000q000000000q00q000e000000q000000000qq0q00000000000q0000q0qq0000000q0000000q000e0000q0qq0e00000000qq00000000",
"VVBVBVVBVVMmVVBVVBVVVBVmBVVVCVVCVVMMVVBVVBVVVVVmVVBVCVVVVVMMZVZBCVVCVVVNBVVVVNVMVVVBVVVmBVVVVVVMZVBVVVVBVVMMBVVVVBVZVBVmVVBVCVVB",
"qqqqwwwwqqqqqqqqwtqqqqqqqqqqwwwwqqqqqqqqtqqqqqqqqqqqwqwqqqqqqqqqwwqqqqqqwwqqqqqqwwqqqqqqtwqqqqqqqqqqrwwwqqqqqqqqtwqqqqqqqqqqwwqw",
"qqq0qqqqqqqqqqqqqqqqqqqqqqqqqqqqqqqqqqqqqqqqqqqqqqqqqq0qqq0qqqqqqq0qqqqqqqqqqqqqqqqqqqqqqqqqqqqqqqqqwqqqqqq0q0qqqqqqqqqqqqqqqqqq",
"qq0q000qq00q00qq0q000qq0q00q000q00q0q00qqq0000q0qq0q00q00q0qq0000q00qq0qq0q000000q000q0qq0000qq0q000000qq00qq0qq00q0q000qq0q0000",
"                                                                                                                                "
};
