/* XPM */
static char *out[] = {
/* columns rows colors chars-per-pixel */
"32 32 7 1 ",
"  c #02030D",
". c #040312",
"X c #050517",
"o c #854B94",
"O c #90A4C5",
"+ c #C1B1C5",
"@ c #C5C5C5",
/* pixels */
"   @                            ",
"                                ",
"                              o ",
"                                ",
"                                ",
"                         .....  ",
"                    XXXXXXXXXX  ",
"              +                 ",
"                                ",
"                                ",
"                                ",
"  ........                      ",
"  XXXXXXXXXXXXXXXX              ",
"                                ",
"                                ",
"                                ",
"                                ",
"                       O        ",
"                                ",
"                                ",
"                                ",
"    o                           ",
"                                ",
"             ........           ",
"         .......XXXXXXXXXXXXX   ",
"      XXXXXXXXXXXXXXXXX         ",
"                                ",
"                                ",
"                                ",
"                             +  ",
"           @                    ",
"                                "
};
