/* XPM */
static char *out[] = {
/* columns rows colors chars-per-pixel */
"32 32 108 2 ",
"   c #5F0417",
".  c #610317",
"X  c #600417",
"o  c #610417",
"O  c #620417",
"+  c #640617",
"@  c #650717",
"#  c #680A17",
"$  c #600318",
"%  c #620518",
"&  c #630518",
"*  c #620419",
"=  c #660919",
"-  c #650A1A",
";  c #6C1216",
":  c #6B1019",
">  c #6C1119",
",  c #711619",
"<  c #70151A",
"1  c #741C1B",
"2  c #7F2812",
"3  c #7A221A",
"4  c #7D261A",
"5  c #7C2722",
"6  c #852E1C",
"7  c #883113",
"8  c #8A351B",
"9  c #873425",
"0  c #8E3C21",
"q  c #93431C",
"w  c #96461F",
"e  c #97481D",
"r  c #964828",
"t  c #974A2B",
"y  c #9E5320",
"u  c #9F5420",
"i  c #9F5623",
"p  c #9F5627",
"a  c #9B512F",
"s  c #A55D26",
"d  c #A35F34",
"f  c #A15E37",
"g  c #8B613C",
"h  c #8C633D",
"j  c #8D643D",
"k  c #A86423",
"l  c #AC6C2A",
"z  c #A56234",
"x  c #A5653E",
"c  c #A96B3D",
"v  c #B07435",
"b  c #B57C34",
"n  c #956F45",
"m  c #957145",
"M  c #967246",
"N  c #AD7548",
"B  c #AF7D57",
"V  c #BA873C",
"C  c #BB8838",
"Z  c #BD8D3F",
"A  c #B58145",
"S  c #BC8C40",
"D  c #BD8F45",
"F  c #BD9354",
"G  c #B89065",
"H  c #BC9666",
"J  c #BD9A6E",
"K  c #BC9A72",
"L  c #BCA87D",
"P  c #BDA87E",
"I  c #BDA97F",
"U  c #C39744",
"Y  c #C19547",
"T  c #C59B46",
"R  c #C59C47",
"E  c #C3994C",
"W  c #C2984F",
"Q  c #C69F4C",
"!  c #C79F4E",
"~  c #C09857",
"^  c #C19C5E",
"/  c #C7A359",
"(  c #C7A35B",
")  c #C6A35F",
"_  c #C7A45C",
"`  c #C09D65",
"'  c #C7A561",
"]  c #C7A766",
"[  c #C7A867",
"{  c #C4A671",
"}  c #C1A375",
"|  c #C7AB72",
" . c #C7AC74",
".. c #C7AD78",
"X. c #C7AD79",
"o. c #C3AA7D",
"O. c #C7AF7C",
"+. c #C7AF7D",
"@. c #C7AF7E",
"#. c #C4AD85",
"$. c #C5AF87",
"%. c #C7B081",
"&. c #C7B184",
"*. c #C7B286",
"=. c #C7B288",
"-. c #C7B38A",
";. c #C7B38B",
":. c #C7B48E",
/* pixels */
"L g $ $ $ $ $ $ $ $ $ $ $ $ $ $ $ $ $ $ $ $ $ $ $ $ $ $ $   n I ",
"h * $ $ $ $ $ $ $ $ $ $ $ $ $ $ $ $ $ $ $ $ $ $ $ $ $ $ $ $ - m ",
"$ $ $ $ $ $ $ $ $ $ $ $ $ $ $ $ $ $ $ $ $ $ $ $ $ $ $ $ $ $ $ $ ",
"$ $ $ $ $ $ $ $ $ $ $ $ $ $ $ $ $ $ $ $ $ $ $ $ $ $ $ $ $ $ $ $ ",
"$ $ $ $ $ $ $ $ $ $ $ $ $ $ $ $ $ $ $ $ $ $ $ $ $ $ $ $ $ $ $ $ ",
"$ $ $ $ $ $ $ $ $ $ $ $ $ $ $ $ $ $ $ $ $ $ $ $ $ $ $ $ $ $ $ $ ",
"$ $ $ $ $ $ $ $ $ $ $ $ $ $ $ $ $ $ $ $ $ $ $ $ $ $ $ $ $ $ $ $ ",
"$ $ $ $ $ $ $ $ $ $ $ $ $ $ $ $ $ $ $ $ $ $ $ $ $ $ $ $ $ $ $ $ ",
"$ $ $ $ $ $ $ $ $ $ $ $ $ $ $ : i $ $ $ $ $ $ $ $ $ $ $ $ $ $ $ ",
"$ $ $ $ $ $ $ $ $ $ $ $ $ $ $ 9 W # $ $ $ $ $ $ $ $ $ $ $ $ $ $ ",
"$ $ $ $ $ $ $ $ $ $ $ $ & $ $ x ] 0 $ $ + $ $ $ $ $ $ $ $ $ $ $ ",
"$ $ $ $ $ $ $ $ $ $ $ . z f . G @.c = b u $ $ $ $ $ $ $ $ $ $ $ ",
"$ $ $ $ $ $ $ $ $ $ $ $ 5 o.K #.;.} ^ E : $ $ $ $ $ $ $ $ $ $ $ ",
"$ $ $ $ $ $ $ $ $ $ $ $ $ B :.:.:.-.+.d $ $ $ $ $ $ $ $ $ $ $ $ ",
"$ $ $ $ $ $ $ $ $ < t N J $.:.:.:.;.&.{ F v w ; $ $ $ $ $ $ $ $ ",
"$ $ $ $ $ $ $ $ $ q D ) X.-.:.:.:.=. .( Q T C 7 $ $ $ $ $ $ $ $ ",
"$ $ $ $ $ $ $ $ $ $ $ 1 a H =.;.*.O.[ S y > $ $ $ $ $ $ $ $ $ $ ",
"$ $ $ $ $ $ $ $ $ $ $ $ $ ~ ..%.| ' / V $ $ $ $ $ $ $ $ $ $ $ $ ",
"$ $ $ $ $ $ $ $ $ $ $ $ l Y r ` _ Z s U e $ $ $ $ $ $ $ $ $ $ $ ",
"$ $ $ $ $ $ $ $ $ $ $ O 8 o $ A ! k $ , 6 $ $ $ $ $ $ $ $ $ $ $ ",
"$ $ $ $ $ $ $ $ $ $ $ $ $ $ $ p R 3 $ $ $ $ $ $ $ $ $ $ $ $ $ $ ",
"$ $ $ $ $ $ $ $ $ $ $ $ $ $ $ 4 C $ $ $ $ $ $ $ $ $ $ $ $ $ $ $ ",
"$ $ $ $ $ $ $ $ $ $ $ $ $ $ $ @ 2 $ $ $ $ $ $ $ $ $ $ $ $ $ $ $ ",
"$ $ $ $ $ $ $ $ $ $ $ $ $ $ $ $ $ $ $ $ $ $ $ $ $ $ $ $ $ $ $ $ ",
"$ $ $ $ $ $ $ $ $ $ $ $ $ $ $ $ $ $ $ $ $ $ $ $ $ $ $ $ $ $ $ $ ",
"$ $ $ $ $ $ $ $ $ $ $ $ $ $ $ $ $ $ $ $ $ $ $ $ $ $ $ $ $ $ $ $ ",
"$ $ $ $ $ $ $ $ $ $ $ $ $ $ $ $ $ $ $ $ $ $ $ $ $ $ $ $ $ $ $ $ ",
"$ $ $ $ $ $ $ $ $ $ $ $ $ $ $ $ $ $ $ $ $ $ $ $ $ $ $ $ $ $ $ $ ",
"$ $ $ $ $ $ $ $ $ $ $ $ $ $ $ $ $ $ $ $ $ $ $ $ $ $ $ $ $ $ $ $ ",
"$ $ $ $ $ $ $ $ $ $ $ $ $ $ $ $ $ $ $ $ $ $ $ $ $ $ $ $ $ $ $ $ ",
"j % $ $ $ $ $ $ $ $ $ $ $ $ $ $ $ $ $ $ $ $ $ $ $ $ $ $ $ $ - M ",
"P h $ $ $ $ $ $ $ $ $ $ $ $ $ $ $ $ $ $ $ $ $ $ $ $ $ $ $ X m I "
};
