/* XPM */
static char *out[] = {
/* columns rows colors chars-per-pixel */
"64 64 195 2 ",
"   c #151E1B",
".  c #17201E",
"X  c #1F1F20",
"o  c #1A2522",
"O  c #1D2926",
"+  c #1F2B28",
"@  c #242424",
"#  c #252927",
"$  c #222C2A",
"%  c #2B2C2D",
"&  c #25322F",
"*  c #2E2F31",
"=  c #283432",
"-  c #2B3936",
";  c #2D3D3A",
":  c #313336",
">  c #35373A",
",  c #36393C",
"<  c #393B3E",
"1  c #433F3B",
"2  c #355503",
"3  c #395906",
"4  c #33423D",
"5  c #476513",
"6  c #4A4337",
"7  c #534736",
"8  c #55493A",
"9  c #5A4D3C",
"0  c #5F503E",
"q  c #556727",
"w  c #3C3E41",
"e  c #334441",
"r  c #3E4144",
"t  c #364944",
"y  c #3A4E49",
"u  c #3E504E",
"i  c #424446",
"p  c #4C4B44",
"a  c #434649",
"s  c #46494D",
"d  c #494B4D",
"f  c #525047",
"g  c #5E5244",
"h  c #4A4D52",
"j  c #4D5054",
"k  c #4A5858",
"l  c #505357",
"z  c #595551",
"x  c #53565A",
"c  c #56595D",
"v  c #595B5F",
"b  c #635543",
"n  c #665946",
"m  c #695B48",
"M  c #6C5D4A",
"N  c #655D56",
"B  c #58625A",
"V  c #6F614E",
"C  c #72624D",
"Z  c #6C6154",
"A  c #6E6559",
"S  c #736552",
"D  c #776854",
"F  c #7A6B56",
"G  c #736858",
"H  c #7D6E59",
"J  c #7F705C",
"K  c #575D64",
"L  c #5B5E63",
"P  c #5D6166",
"I  c #516864",
"U  c #5E626A",
"Y  c #59716B",
"T  c #61656A",
"R  c #65696E",
"E  c #686969",
"W  c #736D65",
"Q  c #7B746A",
"!  c #656A72",
"~  c #696D72",
"^  c #696F79",
"/  c #6D7176",
"(  c #6D727A",
")  c #717375",
"_  c #72757B",
"`  c #74787E",
"'  c #797979",
"]  c #82725E",
"[  c #857661",
"{  c #867867",
"}  c #897A65",
"|  c #8C7D6A",
" . c #847E76",
".. c #6A8439",
"X. c #748A49",
"o. c #7C9054",
"O. c #8DB54C",
"+. c #91B654",
"@. c #96B75B",
"#. c #8E816D",
"$. c #90826F",
"%. c #92956B",
"&. c #938572",
"*. c #968976",
"=. c #998975",
"-. c #918778",
";. c #968B7A",
":. c #9A8D7B",
">. c #9D907F",
",. c #99B762",
"<. c #9AB865",
"1. c #9EB96D",
"2. c #97A774",
"3. c #A2B974",
"4. c #A5BB7C",
"5. c #727780",
"6. c #757A81",
"7. c #7A7E85",
"8. c #797F88",
"9. c #CF6EB4",
"0. c #D166B1",
"q. c #D06AB3",
"w. c #CE73B5",
"e. c #CD7CB6",
"r. c #7C8086",
"t. c #7E838C",
"y. c #818387",
"u. c #82868C",
"i. c #86898D",
"p. c #8B8A8A",
"a. c #958F85",
"s. c #9F9382",
"d. c #818790",
"f. c #848A92",
"g. c #888D95",
"h. c #8C9095",
"j. c #8C929A",
"k. c #939495",
"l. c #91969B",
"z. c #94989E",
"x. c #9B9B9B",
"c. c #A19584",
"v. c #A49887",
"b. c #A69A8A",
"n. c #A99D8D",
"m. c #A59D93",
"M. c #AB9F90",
"N. c #ACA08F",
"B. c #A6B387",
"V. c #A9BB84",
"C. c #ADBD8B",
"Z. c #A6A097",
"A. c #AEA394",
"S. c #A6A29C",
"D. c #AAA49C",
"F. c #B0A597",
"G. c #B0A698",
"H. c #ACB594",
"J. c #AFBD90",
"K. c #B1BE94",
"L. c #B5BF9C",
"P. c #9297A0",
"I. c #959AA1",
"U. c #9A9EA4",
"Y. c #9BA0A6",
"T. c #9DA2A8",
"R. c #A3A4A5",
"E. c #ACA7A0",
"W. c #ADA9A2",
"Q. c #A3A6AC",
"!. c #A5A8AC",
"~. c #A9ABAE",
"^. c #B1AEA8",
"/. c #B7BEA3",
"(. c #A6AAB1",
"). c #AAAEB3",
"_. c #AEB0B3",
"`. c #B5B5B6",
"'. c #B3B5B9",
"]. c #B6B9BC",
"[. c #BEBDBC",
"{. c #CB84B8",
"}. c #CA8BB9",
"|. c #C995BA",
" X c #C79CBB",
".X c #C89BBB",
"XX c #C7A2BD",
"oX c #C5ACBE",
"OX c #C5B5BF",
"+X c #B9C0A4",
"@X c #BDC2AC",
"#X c #BFC3B0",
"$X c #C0C3B2",
"%X c #BCBDC0",
"&X c #C4BCC1",
/* pixels */
"[ [ { | $.$.$.&.#.$.&.$.$.$.$.$.&.| &.&.#.$.$.$.$.$.$.$.| &.| &.| { ] ] k.x.x.U.R.~.~._.`.'.%X].&X%X].].'.).).!.R.U.x.z.k.k.k.` ",
"[ | *.s.s.c.s.s.c.s.s.s.s.s.s.s.s.s.s.s.s.s.c.s.s.s.s.s.s.c.c.c.:.:.} ] y.E ~ ) 6.r.u.g.j.l.P.U.U.U.U.I.I.l.h.g.i.7.6._ ~ ~ ~ x ",
"{ ;.c.b.n.n.n.n.n.n.M.M.n.M.m.n.n.n.n.n.M.M.b.M.n.n.M.m.M.n.n.n.n.c.*.] 7.R ~ ~ ) 6.r.u.g.h.l.P.U.U.U.U.U.I.j.j.g.i.7.6._ ~ ~ x ",
"| :.v.A.A.A.A.A.A.A.A.A.A.A.A.A.F.A.A.A.A.A.A.A.F.A.F.A.M.F.A.F.M.b.a.] ' T ! ~ / _ 6.r.u.g.j.l.U.U.U.Q.Y.U.I.j.h.g.u.r.6._ / x ",
"#.s.n.A.D.G.G.G.G.G.G.G.G.G.G.G.G.G.G.G.G.G.G.G.F.F.F.F.F.G.F.F.A.n.>.] ' P T R ! / _ 6.r.i.g.j.P.P.U.U.U.U.P.P.z.h.g.i.y.6._ v ",
"| :.b.A.G.G.G.G.G.G.G.A.G.G.G.G.G.G.F.G.G.G.G.D.F.F.F.F.G.G.F.F.A.N.>.} 6.L P T ! ! / ( ` r.t.g.j.P.Q.~.%X%X%X%X].U.f.f.i.7.` L ",
"#.:.b.A.G.F.A.A.A.A.A.A.A.A.A.A.A.n.A.A.n.N.A.M.n.n.N.M.M.F.F.A.A.b.>.] 7.L L P U ! o.h.x.T.~.^.].'.].[.%X%X%X%X(.t.r.g.g.u.r.T ",
"| s.n.A.F.A.F.A.N.n.n.n.m.m.S.D.D.S.R.R.m.m.I.P.k.p.p. .E n.F.F.A.b.>.] y.T y.k.5.U g.R.R.!.!.!.~.)._._.).'.'.Q.g.^ 8.~._.I.i.! ",
"| :.b.M.A.A.M.v.x.I.R.R.Q.).).).(.(.(.Q.P.P.t.t._ / R c z n.A.A.N.b.:.] y.R g.' P P ' h.i.i.i.i.g.g.l.P.I.Y.T.U.u.^ t.'.(.j.g.( ",
"| a.b.M.A.A.M.s.7.u.z.u.8.t.f.g.j.P.j.t.t.t.8.5.f.k.( c v b.A.A.N.v.>.[ y.E ) c c L ) y._ ~ / ` r.d.g.j.P.U.Y.I.8.5.f.U.j.f.j.5.",
"| :.v.M.A.A.M.s.) i.7.~ 5.8.t.f.t.P.j.j.P.t.t.8.k.t.! L A n.A.A.N.v.>.] y.~ ~ R T L R P h a a h x L K ! ( 8.t.t.5.5.f.I.U.I.j.r.",
"} :.v.M.M.A.M.;.~ T x h k j K K U Y ! ! 5.K U 5.6.U U T G n.N.A.n.v.=.] y.~ ~ E R T L w % % : : : : : w w y h k K ( j.U.Y.U.z.t.",
"} ;.c.n.N.M.M.;.R c K h u = k ; u e 4   +   o   t.8.5.! Q b.N.A.n.v.;.] y.R ~ ~ ! R P x a a a d d h h x c c K P U 6.j.Y.Y.Y.U.t.",
"{ *.c.n.M.N.n.| T x K s . ; e I t t e e o o o O T.u.8.^  .b.N.n.n.c.| ] y.~ ~ R R ~ E T c x c v P P U R / ( ` 7.t.g.j.U.Y.Y.Y.f.",
"{ *.c.b.n.n.n. .L l x s + O I y Y t I w e o &   Q.f.t.( -.v.N.N.b.c.=.] y.~ R ~ ~ R ~ R T P L P T R ~ / _ 6.r.t.g.g.j.I.U.Y.T.g.",
"[ *.c.b.n.n.v.{ v j k s o & + t y I e e ; ; o   (.g.f.5.-.v.b.n.v.c.*.] y.~ ~ ~ ~ ~ ~ E R T P L P T R R / _ ` r.u.g.j.j.I.U.Y.j.",
"] *.s.v.n.n.v.{ x h j a B O - + I e k 4 y & & . (.j.j.5.p.v.n.n.b.>.&.] P d d d s h s h s d r t < r a a h h j x L P R ^ ( ` 7.6.",
"{ | s.v.v.n.v.Q x d h a h 4 O - O 4 4 u & + O + (.j.j.8.:.v.b.n.v.>.&.] #X#X#X#X$X$X#X$X#X$X#X#X$X$X$X$X$X$X$X$X#X#X$X$X#X#X#X#X",
"] *.s.v.b.b.c.' c h d a B 4 k o - O y & e + & . Q.j.j.t.a.v.b.b.v.>.&.Q #X#X#X#X$X$X#X#X$X#X#X#X$X$X$X$X#X#X$X#X#X#X#X#X#X#X#X#X",
"] | a.c.b.v.c.Q v j h a 6 y 4 4 O - O O O & .   T.f.j.t.>.v.v.b.c.>.&.J #X#X#X#X#X#X#X#X#X#X#X#X@X@X$X$X$X@X#X#X#X#X#X#X#X#X#X#X",
"[ | :.c.v.v.s.Q v x j d p   e & w o = O & . $ . T.f.g.r.>.v.v.v.>.:.$.J #X#X@X#X[.$X@X@X@X@X@X#X@X$X@X@X$X@X@X#X#X#X@X#X#X#X@X#X",
"] | ;.c.v.v.s.) v x x j d     - O . $ w t p E ) I.t.f.5.;.c.v.v.c.>.#.H @X@X@XX.2 o.+X$XX.o.+X#X@X@X@X@X@X@X@X@X@X@X@X@X#X@X@X@X",
"H | =.s.v.c.:.) v ) i.T c T _ ' 6.8.o.8.y.r.u.u.l.Y.g.( :.c.c.v.>.*.#.H @X@X@X3 3 5 /.2.2 2 H.@X@X@X@X@X@X@X@X@X@X@X@X@X@X@X@X@X",
"H | =.s.c.c.=.) v 7./ c x h h d h h x x v P T R h.f._ ~ :.s.s.c.>.*.#.H @X@X@Xq 3 5 +X%.2 2 H.@X@X@X@X@X@X@X@X@X@X@X+X@X@X@X@X@X",
"G | *.a.s.>.=.) x L d d x l j h s s h x x c K T ~ K ! T =.>.s.c.>.*.| F +X+X@X+X4.H.@X+Xo.%.+X+X+X@X@X+X+X@X+X+X@X+X+X@X@X@X+X@X",
"F | *.:.s.>.=.x i i i w r w < < , > : , > , w w a s h j :.>.>.s.>.*.| D +X@X+X+X+X+X+X+X+X+X+X+X+X+X+X+X@X+X+X+X+X+X+X+X+X+X+X+X",
"F } | s.s.>.=.W G S G ] [ [ [ { [ [ [ &.=.=.*.;.=.*.*.:.>.>.>.>.:.=.} D +X+X+X+XL.+X+X+X+X+X+X+X+X+X+X+X+X+X+X+X+X+X+X+X+X+X+X+X",
"D | | :.:.>.:.:.=.:.;.:.>.:.:.:.:.:.:.:.:.>.:.s.:.s.:.;.*.;.*.&.$.#.{ S +X+X+X+X+X+X+X+X+X+X+X+X+X+XL.+X+X+X+X+X+X+X+X+X+XL.+X+X",
"S [ | s.s.:.:.:.:.s.:.W.&XOX&X%XOX`.D.:.>.:.D.#XOX>.>.:.&.x.Y.!.k.#.[ S L.L.L.+XL.L.L.L.L.L.L.L.+XL./.L.4.H.L.H.3 ..L./.L.L.L.+X",
"S [ | s.*.;.:.:.;.=.:.W.#XOX%X#X%X#X%Xs.c.^.OX[.#X*.*.*.#.t.( 6.! ] Q S L.L.L.L.L.L.L.L.L.L.L.L.L.L.L.2 2 %.L...2 2 J.L.L.L.L.L.",
"S ] | | ;.=.;.;.;.:.:.E.%X#X%X=.[.#X%X].$X&X[.[.%X*.;.=.#.` ~ ( U Q J V L.K.L.J.L.L.L.L.L.L.L.K.L.L.K.2 2 ..K.B.2 2 J.L.L.L.K.L.",
"V ] | *.=.*.*.*.| :.=.E.%XOX%X:.[.[.&Xb.;.W.[.[.OX;.*.=.Q ( U ~ P H J V L.L.J.L.K.K.K.K.K.L.K.L.K.L.L.q 2 2.K.L.2.B.K.K.K.K.K.K.",
"M J | &.=.=.&.=.&.*.-.E.[.[.#XOX#XOXE.*.&.S.[.[.OX=.=.$.Q R L T L G H V J.J.J.J.K.K.K.J.K.J.K.J.K.J.K.J.J.K.J.K.K.K.J.K.K.J.K.K.",
"M H } $.&.=.$.=.&.*.&.D.[.[.[.[.%X[.[.b.&.A.[.[.#X&.$.$.Q T c L x Z D V J.J.J.J.J.J.J.J.J.J.J.J.J.J.J.J.J.J.J.J.J.J.J.J.J.J.J.C.",
"M H } $.$.&.$.&.&.&.&.E.[.[.[.&.[.[.%X~.&.S.[.[.[.&.$.| W L x v l N F V C.C.J.C.J.C.C.J.C.C.C.C.C.C.J.C.C.C.C.C.J.C.C.C.C.C.C.C.",
"M H [ #.$.$.$.$.$.$.$.E.[.[.[.$.].[.#XW.#.A.[.[.[.$.$.} W c x x j g D m C.C.C.C.C.C.V.C.C.C.C.C.C.C.C.C.C.C.C.C.C.C.C.C.C.C.C.C.",
"m D [ | $.$.$.$.| $.$.D.[.[.[.$.[.[.[.E.#.Z.[.[.[.#.#.} E l h x d g D n V.C.V.V.V.V.V.V.V.V.V.V.V.C.C.V.C.V.C.V.V.C.C.V.V.V.V.C.",
"m G [ } | $.| | | #.#.D.[.[.[.[.[.[.[.S.#.Z.[.[.[.#.$.] E j h h d f C n V.4.V.V.V.V.V.V.V.V.V.V.V.4.4.V.V.4.4.V.4.V.4.4.V.V.V.4.",
"b G [ } | | | | | | | D.[.[.[.[.[.[.^.&.| Z.#XOX[.| #.] R h d h d p C n 4.4.4.4.4.4.4.4.4.4.4.4.4.4.4.4.4.4.4.4.4.V.4.4.4.4.4.4.",
"b S ] { } | | | } | | } } | } | | } | } | | } | } | | ] R h a w > 1 C n 4.4.4.4.4.4.4.4.4.4.4.4.4.4.4.4.4.4.4.4.4.4.4.4.4.4.4.4.",
"b C H [ } } } } } } } } } { } } } } } } } } } } } } } ] d < 6 8 g V C b 3.3.3.3.3.3.3.4.3.3.3.3.3.3.3.3.3.3.3.3.3.3.3.3.4.3.3.3.",
"b C H [ { } } } } } } } } } } } } } } } } } } } } } ] ] F ] ] ] ] F C 0 3.3.3.3.3.3.3.3.3.3.3.3.3.3.3.3.3.3.3.3.3.3.3.3.3.3.3.3.",
"g C H ] [ } [ [ [ [ [ [ [ [ [ [ [ [ [ [ [ [ [ [ } } } [ ] } } } ] F V g 1.1.3.1.1.1.1.1.1.1.1.1.1.1.3.1.1.1.1.1.1.3.1.1.1.1.1.1.",
"0 M F ] ] [ [ ] ] [ [ [ [ [ [ [ [ [ [ [ [ [ [ [ ] [ ] ] ] ] ] ] ] F V 0 <.1.1.1.1.<.1.1.1.1.1.1.<.1.<.1.1.1.1.1.1.<.1.<.1.1.1.1.",
"9 V F J ] [ ] [ ] [ ] [ [ ] ] [ ] ] ] ] ] [ ] ] ] ] ] ] ] ] ] ] ] D V 9 ,.<.<.<.<.<.<.<.1.<.<.<.<.<.<.<.<.<.1.<.<.<.1.<.<.<.<.<.",
"9 m D H ] ] ] ] ] ] H [ ] ] ] ] ] ] ] ] ] ] ] ] ] ] ] ] ] ] ] ] H D m 9 ,.,.,.<.,.<.,.<.<.,.<.<.<.<.<.<.,.,.,.,.,.,.,.,.<.@.<.<.",
"9 n D H ] J J J ] ] ] ] H J ] H ] H ] ] ] ] ] ] ] J ] J ] J H ] H D m 9 @.@.,.@.@.@.,.@.@.@.@.@.,.@.@.,.@.,.@.@.@.,.@.,.,.@.@.@.",
"9 n C F H H J J H H H H H H H ] H H H H H H H H H H H ] H H ] H F C m 9 @.@.@.@.@.@.@.@.@.@.@.@.@.@.@.@.@.@.@.@.@.@.@.@.@.@.@.@.",
"9 n C F H F H H H F F H H H H H H H H H H F ] F F ] F F H H H H F C n 9 +.@.@.+.+.@.@.+.+.@.@.+.+.@.@.+.@.+.@.@.@.+.@.+.@.@.@.+.",
"7 n C D H F F H H F F F F F F F F F F F H F F F H F F F F H D F D C n 7 +.+.+.+.+.+.+.+.+.+.+.+.+.+.+.+.+.+.+.+.+.+.+.+.+.+.+.+.",
"7 b V D F F F F F D F F D D F F F F D F F F F F F F F F F F F F S C b 7 +.+.O.+.+.+.+.+.+.+.O.+.+.+.+.+.+.O.O.O.+.+.+.+.+.+.+.+.",
"7 0 n C C C C V C C C F C C C C C C C S C C C S D C D D D D C D C M n 7 O.O.O.O.O.O.O.+.O.O.O.O.O.+.O.O.O.O.O.O.O.O.O.O.O.O.O.O.",
"9 Z Q -.p.x.!.!._.%X%X'.^.).!.Y.k.p.p. .Q W W W S A A G V S S S M b 9 6 O.O.O.O.O.O.O.O.O.O.O.O.O.O.O.O.O.O.O.O.O.O.O.O.O.O.O.O.",
"L R 7.u.g.j.j.l.j.j.j.j.g.f.u.r.7.8._ / / ~ T T E T T R ~ ) _ 6.' ' ~ f O.O.O.O.O.O.O.O.O.O.O.O.O.O.O.O.O.O.O.O.O.O.O.O.O.O.O.O.",
"f h v E ( 5.r.t.t.j.j.j.j.g.f.t.8.5.( ! T L c l h h h d h h h l l h i % O.+.O.O.O.O.O.O.O.O.O.O.O.O.O.O.O.O.O.O.O.O.O.O.O.O.O.O.",
"d a ( h.` ( 5.r.t.t.f.U.(.I.g.f.u.8.5.( ! y.g.! l h h h d s h ( p.v i % %X&X&X[.OXOXOXoXoXoXXXXXXX.X|.}.{.{.{.w.e.9.9.q.q.0.0.0.",
"d i _ ) T ! ( 5.t.t.t.T.Y.t.j.t.t.t.t.8.5.t.6.K c j j h s s h 6.T h i % &X&X&X&XOXOXOXoXoXoXXXXX X|.|.}.{.{.e.e.w.9.9.q.q.0.0.0.",
"d a j h l T ! / 5.t.t.t.5.t.P.P.P.t.t.t.5.5.K k L K l h h h s h i r r % &X&X&X&X&XOXOXOXoXoXXXXX X|.|.}.{.{.e.e.e.9.9.q.q.0.0.0.",
"f i h l v K T ! 5.5.t.t.t.P.t.P.j.t.g.t.8.5.5.! T L c l h h h s d a w % &X&X&X&XOXOXOXOXoXXXXX X X|.|.}.{.{.e.e.w.w.9.q.q.0.0.0.",
"d a h l x v L T ! ^ 5.8.t.t.t.P.P.j.j.t.t.8.5.^ ! T L c x h h d a a w % &X&X&X&XOXOXOXoXoXoXoX X X|.|.}.}.{.e.e.w.9.9.q.q.0.0.0.",
"p i s h l l c L K ! ! 5.t.t.t.t.g.j.g.g.d.8.6._ ^ R L K x h h h p i < # &X&X&X&XOXOXOXOXoXoXXXXX X|.|.|.{.{.{.w.w.w.w.q.q.0.0.0.",
"i w a d h h h h x K K ! 5.5.5.t.t.t.f.t.8.8.6._ ~ R L K x j d s i 4 : @ &X&X&X&X$XOXOXOXoXoXXXXX X|.|.}.{.{.e.e.w.w.9.q.0.0.0.0.",
"1 > r i a a i a a h h x K K Y 5.5.5.6.8.8.5.( ^ ! L L x j d a i < , : X &X&X&X&XOXOXOXoXoXoXXXXX|.|.|.}.{.{.e.e.w.w.9.q.q.0.0.0.",
"% X @ @ @ @ @ @ @ % % * * : - w w w a a s a a r w < > : * % % @ @ X O . &X&X&X&XOXOXOXoXoXXXXXXX X|.|.}.}.{.e.e.w.w.9.q.q.0.0.0."
};
