/* XPM */
static char *out[] = {
/* columns rows colors chars-per-pixel */
"64 64 124 2 ",
"   c #3E2812",
".  c #14252E",
"X  c #14282F",
"o  c #152731",
"O  c #162933",
"+  c #182C35",
"@  c #192E38",
"#  c #1C323C",
"$  c #442B12",
"%  c #493015",
"&  c #4F331B",
"*  c #563A1B",
"=  c #5B3D1E",
"-  c #65401F",
";  c #634220",
":  c #6B4722",
">  c #6A4A26",
",  c #6D4D29",
"<  c #734B26",
"1  c #6F512C",
"2  c #70512C",
"3  c #765631",
"4  c #775934",
"5  c #7F5F39",
"6  c #1F3541",
"7  c #1F3843",
"8  c #203743",
"9  c #213A45",
"0  c #233D4A",
"q  c #25414D",
"w  c #264350",
"e  c #2A4553",
"r  c #2C4856",
"t  c #2E4B5B",
"y  c #304E5E",
"u  c #32515F",
"i  c #314F60",
"p  c #335464",
"a  c #365867",
"s  c #365768",
"d  c #385768",
"f  c #375969",
"g  c #3A5C6C",
"h  c #3C5F71",
"j  c #3E6174",
"k  c #405F72",
"l  c #416377",
"z  c #446779",
"x  c #466B7D",
"c  c #496D7E",
"v  c #81552E",
"b  c #82592D",
"n  c #825833",
"m  c #8A5E30",
"M  c #8F6036",
"N  c #83643D",
"B  c #8A6439",
"V  c #926337",
"C  c #93643B",
"Z  c #95693E",
"A  c #98683F",
"S  c #8D6742",
"D  c #876941",
"F  c #8D6842",
"G  c #936741",
"H  c #946842",
"J  c #9F7240",
"K  c #9E724B",
"L  c #9C7B54",
"P  c #9C7E5B",
"I  c #A27644",
"U  c #A0754D",
"Y  c #A17B4D",
"T  c #A37B54",
"R  c #A87E53",
"E  c #AE8253",
"W  c #A3825C",
"Q  c #AA865B",
"!  c #B18759",
"~  c #9E8262",
"^  c #A78562",
"/  c #AB8664",
"(  c #A58866",
")  c #AC8A65",
"_  c #A68A6A",
"`  c #AC8C69",
"'  c #B58E63",
"]  c #B88E63",
"[  c #AF916B",
"{  c #B39066",
"}  c #B6946C",
"|  c #BD966B",
" . c #AE9172",
".. c #BB9773",
"X. c #B69A77",
"o. c #BC9B75",
"O. c #B39A7D",
"+. c #BB9F7E",
"@. c #C2A37F",
"#. c #C8A37C",
"$. c #4D7183",
"%. c #517586",
"&. c #537689",
"*. c #57798C",
"=. c #587A8D",
"-. c #B39A81",
";. c #BBA285",
":. c #B5A491",
">. c #BFA790",
",. c #BDAA92",
"<. c #BCAD9C",
"1. c #C4A683",
"2. c #C5A885",
"3. c #C9AA87",
"4. c #C0A689",
"5. c #C2AA8C",
"6. c #C8AB8B",
"7. c #C2AD92",
"8. c #C7B195",
"9. c #C6B39C",
"0. c #C3B5A4",
"q. c #C2B6AA",
"w. c #C5BAAB",
"e. c #C5BCB1",
/* pixels */
"C C C / ;.o.Z C C C K / A C C / ;...H C C C K / A C C / ;...Z C C C K >.+.A C C B ) ;.o.Z C Z C R 4.! C C Z / -.o.H C C K >.-.H ",
"K _ q.0.9.2.] K K 9.9.3.R ` q.0.9.3.] U K 9.9.3.R ` q.0.9.3.' K T q.w.9.6.| U _ 0.0.9.3.] K W w.w.8.#.U ) 0.0.9.3.] T w.w.9.6.| ",
" .w.w.w.8.o.Q -.e.w.8.@. .e.w.w.7.o.Q -.e.w.8.@. .e.e.w.8.o.Q -.e.e.w.9.@./  .w.e.w.8.o.Q :.e.e.0.6.}  .e.e.w.8.o.Q e.e.w.9.#.' ",
"0.e.w.9.+.W ( e.e.0.5.` 0.e.w.9.+.W ( e.w.0.5.` 0.w.w.9.;.W _ e.e.e.0.1.) L 0.e.w.9.+.W _ e.e.w.9.O.T q.e.w.9.-.Q :.e.e.9.;./ L ",
"w.w.9.;.P N <.w.0.7. ._ w.w.9.-.L B <.w.0.7. ._ w.w.9.+.L D q.w.q.0.;.^ B ( w.q.9.+.W 5 q.w.q.9.X.L P e.w.9.+.L D w.q.0.;.^ D ~ ",
"9.5.[ B 1 ( 9.8.+.L 4 O.9.4.[ B 2 _ 0.8.+.L 4 -.9.4.` N 1 _ 0.9.7.[ 5 , D -.9.5.[ N 1 ( 9.9.;.^ 3 2 O.9.5.` N 2 ,.9.5.[ n 2 5  .",
"o.T , * F ^ 1.{ B * L ) o.Y > * F ^ 1.{ B * K ) o.Y > * F ^ 6...K ; * > ^ ` o.Y > * F ^ 3.} Z * * n ` o.Y > * S 6.o.K ; * > ^ ^ ",
"I : = H K K E b ; H K K I ; = H K K E b ; H U U I - = H K K ! m %   n K K K J ; = G K K E b $ & K U U I ; = H U ! M %   5 K K K ",
"V v V C C C V < C C C C m v C C C C V < C C C C M v C C C C V - , V C C C C m n C C C C V : m C C Z C V v C C C M - < C C C C C ",
"+ + # # # @ + + O o . . o o o o X + + X o + o . o o O + + + O O X + O + + + @ @ + + + o O O + + o . . . . . O O . X . O o o O + ",
"# # 8 9 8 @ + O + O . . . o O + + # + X . . O O + O O O X O O + + # + O o O @ # 6 # + o o O # # @ o . . . O + + + X . X @ @ @ # ",
"0 0 q 0 0 # + @ # + . . o o @ @ # 8 # # + + + # # # @ O X + # 6 7 9 # # + @ 6 0 9 8 @ + O @ 6 0 8 @ . o O # 8 # @ X . # 0 9 7 0 ",
"0 w w 0 0 8 # 8 8 # o o + # # 9 0 9 8 # @ # # 6 7 7 # + O # 7 0 q q q 7 # # 0 q w 0 8 @ + 6 0 q 0 8 + O # 8 0 0 6 @ @ 7 0 e q w ",
"r r r y e 0 0 0 0 8 @ @ # 8 q e r r e 0 6 # 6 0 q q 0 # # 7 q e r r e q 8 0 w e e e 0 6 # 9 w e w 9 @ @ 8 w e e 9 6 6 0 e e e w ",
"e y i u r e w e r 0 8 # 9 w y y u u y e 0 9 0 e r r q 7 7 q r r y t t e q e r t y t q 9 9 w r t r 0 # # 0 e y t e 0 0 e t t y e ",
"y y p p y r r r y r 9 9 e r y p g g a t e q e t u u e 0 q e t p p p y t t r t t p i t q q e t y y e 8 9 w t u i t r e r t i p i ",
"y y a d u y t u u r q q r y d g k k d u t r t u a p y e e t p p a a u y t y u p a p t r r t p u p e 0 0 r p a a y t t t p p p i ",
"i d d d a p p p a u e e t a g k l l k u u u u a d d u e t i s d s f a p u p p a d a p u y u a a p y e e t a d s p p i p a d d a ",
"d d g g g a p a f u y y a g h l z k k k a a a d g g a u p a s d h g f f a a a g h d a p p a f g d p t y a f g g s a s a g g g s ",
"g g l k g g g g g f u a g h j l z z k k g g g h h h g a a d g j h j j g g f g h h h g g g g h h h g i p d g l j g g g g h h h h ",
"h j j j j j h j h g f f j j z j z z l j h h h j j j h g g h j j j j h j h h h j l j h h h h j j l g d d j h l j j j h h h h k h ",
"j j l j j j j j j j h h j j j z z z z l j j j j l j j j j j j j z l l j j j j l l l j j j j j z l h g h j l z l j j j j k l l l ",
"l z z z z l l l l l j j z z x x x x x z z l l z z z z l j l x z z z z z z l l z z z l l j z x x z l l l l z z z z z z l z z z l ",
"z z z z z z z z z z z z z z x j x x z z z z z z z z z z z z j x x x z z z z z z z z z z x j x j z z l z z z z x x z z z z z z z ",
"x x x x x x x x x x x x x x x x x x x x x x x x x x x x x x x x x z x x z z x x x x x x x x x x z x z x x x x x x x x x x x x x ",
"x x x x c c x x x c x x c c x x x x x x c c x c x x x x c c c x $.x x x x $.x x c c x x x x c x x c x x x x x x z $.x x x x x x ",
"c c c c c c c c c x c c c c c c c x c c c c c c c x c c c c c c x x x x c x c c c c c c c c c c c c x c c c c c $.x x x x x $.x ",
"$.$.$.$.c $.$.$.$.$.$.$.$.$.$.c $.$.$.$.$.$.c $.$.$.$.$.$.c $.$.$.$.$.$.$.$.$.$.$.$.c $.$.c $.$.$.$.$.$.$.$.$.$.$.$.$.$.$.$.$.$.",
"$.$.$.$.$.$.$.$.$.$.$.$.$.%.$.$.$.$.$.$.$.$.$.$.$.$.$.$.$.$.$.$.$.$.$.%.$.$.$.$.$.$.$.$.$.$.$.$.$.$.$.$.$.$.$.$.%.$.$.$.$.$.$.%.",
"$.%.%.%.%.%.$.%.&.$.%.$.$.%.%.%.$.%.%.%.&.%.%.$.%.%.%.%.%.%.%.$.%.%.%.%.$.%.%.%.%.%.%.%.&.$.&.$.%.%.$.&.%.%.%.%.%.%.%.%.%.$.%.%.",
"%.&.%.%.%.%.&.&.&.%.%.%.&.%.&.%.&.&.&.$.%.%.%.%.%.%.&.%.%.%.%.%.%.%.%.%.&.%.%.%.%.%.&.$.&.&.%.&.%.%.&.%.%.%.%.%.%.%.%.%.%.%.%.%.",
"&.&.&.&.&.&.&.%.&.&.&.&.&.&.&.&.&.&.&.&.&.&.&.&.&.&.&.&.&.&.&.&.&.&.%.&.&.&.&.&.&.&.&.&.&.&.&.&.&.&.&.&.&.&.&.&.&.&.&.&.&.&.&.&.",
"&.&.&.&.&.&.&.&.&.&.&.&.&.&.&.&.&.&.*.&.&.*.&.*.&.&.&.&.&.&.&.&.&.&.&.&.&.&.&.&.&.&.=.&.&.&.&.&.&.&.&.&.&.&.&.&.&.&.&.&.&.&.&.&.",
"=.&.=.=.=.*.=.=.=.&.=.=.=.=.=.=.*.*.*.=.*.*.*.*.=.*.=.=.=.*.=.*.=.=.=.=.=.&.=.=.=.&.&.=.=.=.=.=.=.&.=.=.=.=.=.&.=.=.=.=.=.=.=.=.",
"=.=.=.=.=.=.=.=.=.=.=.=.=.=.=.=.=.=.=.=.=.*.=.=.=.=.=.=.=.=.=.=.=.=.=.=.=.=.=.=.=.=.=.=.=.=.=.=.=.=.=.=.=.=.=.=.=.=.=.=.=.=.=.=.",
"=.=.=.=.=.=.=.=.=.=.=.=.=.=.=.=.=.=.=.=.=.=.=.=.=.=.=.=.=.=.=.=.=.=.=.=.=.=.=.=.=.=.=.=.=.=.=.=.=.=.=.=.=.=.=.=.=.=.=.=.=.=.=.=.",
"=.=.=.=.=.=.=.=.=.=.=.=.=.=.=.=.=.=.=.=.=.=.=.*.=.=.=.=.=.=.*.=.=.=.=.=.=.=.=.=.=.=.=.=.=.=.=.=.=.=.=.=.=.=.=.=.=.=.=.=.=.=.=.=.",
"=.*.*.*.=.=.&.=.=.=.=.&.=.=.&.=.*.*.*.*.*.*.*.*.*.*.*.*.*.*.*.*.&.*.=.=.=.=.=.&.&.=.=.=.=.&.=.&.=.=.&.=.&.=.=.=.&.=.=.=.&.=.&.=.",
"&.&.&.&.&.&.&.&.&.&.&.&.&.&.&.&.&.&.*.&.&.&.&.&.&.&.&.&.&.&.&.&.&.&.&.&.&.&.&.&.&.&.&.&.&.&.&.&.&.&.&.&.&.&.&.&.&.&.&.&.&.&.&.&.",
"&.&.&.&.&.&.&.&.&.&.&.&.&.&.&.%.&.&.&.&.&.&.&.&.&.&.&.&.&.&.&.&.&.&.&.&.&.&.&.&.&.&.&.&.&.&.&.&.&.&.&.&.&.&.&.&.&.&.&.&.&.&.&.&.",
"%.%.%.%.%.%.%.%.%.%.%.%.%.%.%.%.&.%.%.&.&.%.&.%.%.%.%.%.%.&.%.%.&.&.&.%.&.%.%.&.%.%.%.%.%.%.&.&.&.&.%.%.&.&.%.&.%.%.%.%.%.%.%.&.",
"%.%.$.%.%.%.%.%.%.%.%.%.%.%.%.%.$.%.%.%.$.&.$.%.$.$.%.%.$.%.%.%.%.c %.%.$.%.%.%.%.$.%.%.%.%.$.&.c $.%.&.$.$.%.%.%.%.%.%.%.%.%.%.",
"%.$.$.$.$.$.$.%.$.$.$.$.$.$.$.$.$.$.$.$.$.$.$.%.$.$.$.$.$.$.$.$.$.$.$.%.$.$.$.$.%.%.%.c $.$.$.$.%.%.$.$.$.$.$.$.$.$.$.$.$.$.$.$.",
"$.$.$.$.$.$.$.$.$.$.$.$.$.$.$.$.$.$.$.$.$.$.$.$.$.$.$.$.$.$.$.$.$.$.$.c $.$.$.$.c c $.$.$.$.$.$.$.c $.$.$.$.$.$.$.$.$.$.$.$.$.$.",
"j $.$.%.x $.j $.$.$.c c x $.c c $.x $.$.x $.x $.$.x $.$.$.x x x c c c c c c c c c c c c c c c c c c c c $.c c c x $.c c c c c c ",
"$.$.j j x x j $.j $.c c x $.j $.j $.j x x x j x x x z x z $.x x x x c x x c c x c c x x x c x x c c x c x z z x x x x x x c c x ",
"j $.$.c j $.$.j j $.c $.j $.$.x x x $.x $.j $.j x x x x x x x x x x x x z x x x z x x x x x x x x x x x x x x x x x x x x x x z ",
"j j j j $.j $.j $.j j j x j j j $.j j x j $.j x z z z z z l x x z z z z z z z z z z z z z z z z z z z z z z z z z z z z z z z z ",
"$.j j $.j x j j x j x j j j z j x z z z z j h j z $.h j l l l l j z j $.j j j j l l l l l l l l j z j z j x j x z j j $.h l l l ",
"j j j j j j j x x j j x x j z z j j j j z j $.j j j l l l l l l l j j j j $.j j l l l l l l l l j z j j j j j j z j z j j l l l ",
"j j j j j j j j j j j j j j j j j j j j j j j j h l h j h l j l j j j j j j j j j j j j j j l l z j j j j j h j j j j j j l j j ",
"j j j j j j j j j j j j h h h j j j j j j j j j l l h h l h l h j j j j j j j j j j j j j l l l z j j j j g j j j j j j l h l h ",
"j j j h h h j h h h h h f f f h j h g h g j g j h h h h h h h h j h h g g g j j j h h h h l l l j j h g g s g j h h h h h h h h ",
"h j h j f f f f h h h f f s f h h j f f f f h j h h f f f h h h h h g f a a g j h f f f h h k j j j j d p s f f f f f h h h h f ",
"f g g f f a a a h h f s y i s f g g a p a f g g f f s s f f h g g s s p p s g g g a a a g k k k h h g a p i p a f f f f g g f s ",
"a f f f a a a a f f f i t t i f s s p p p a s d f s p p s f f f f s s i i s s g a a u a d k l l h g d p t t i a s p s f f f s p ",
"p d a a i y i p f f p t e r i p a p y y t p a s p p i i p p a a p p p t w i f f a y t i a g k l h d a i e w t p i i p p f f p p ",
"i p p p t y y y p s p t 7 0 r p p p t e e i p p p p t t t p a a p p t w w t p s u t r t p d k l h s i e q q t i i y t p a p p i ",
"y p p t t e e y i p t w 7 6 w t t t e q w t i p i t r t t y p p i i r 0 7 e i i t e w w t a d g d u t w 9 9 e t t r r y p p i r ",
"e t t t w 0 0 e t i w 7 6 6 0 r t r w 9 9 e t t t e e q e t t t t w q 7 7 w r r e q 8 0 e y u u y r w 9 6 6 q e w w w t p y t w ",
"w e r e 0 8 # 0 w e w 7 @ @ 7 w e w 9 # 6 0 e e e w 0 7 q e e t w q 7 @ 6 7 w q 0 8 # 6 0 e e r e 0 8 # @ @ 6 q q 9 q e t r e e ",
"w w w q 8 + @ 8 0 0 7 @ O + 7 0 q q 6 @ @ 8 0 w q 0 6 # 7 q w q q 7 # O + 6 7 7 # # # # # 9 9 0 9 8 # + o o # 6 6 # 7 0 w w w w ",
"q 8 0 9 # . o @ # 8 @ + o o + 7 0 6 @ O + @ 8 9 9 6 @ + @ 7 7 7 7 @ + o O @ 6 @ @ + o + # # # 6 # @ O . . . + @ @ + 6 0 w 0 0 7 ",
"# + + # o . o + + @ O . . o + @ # # o o O + @ 6 6 @ o o + @ @ @ @ + O o O O + O O o o o O + @ + + O o . . . + + + O @ 7 7 7 6 # "
};
