/* XPM */
static char *out[] = {
/* columns rows colors chars-per-pixel */
"32 32 121 2 ",
"   c black",
".  c #0E1A0A",
"X  c #111C0E",
"o  c #131E10",
"O  c #0F2309",
"+  c #11260A",
"@  c #132C0A",
"#  c #16310D",
"$  c #18350E",
"%  c #1B3B0F",
"&  c #152112",
"*  c #192516",
"=  c #192F11",
"-  c #1B2718",
";  c #1C2919",
":  c #173310",
">  c #1A3611",
",  c #1D3B12",
"<  c #203C18",
"1  c #1E4112",
"2  c #214415",
"3  c #234C14",
"4  c #23441A",
"5  c #254A1B",
"6  c #294B1E",
"7  c #255115",
"8  c #295517",
"9  c #29531B",
"0  c #2C5B1A",
"q  c #2E601A",
"w  c #30641C",
"e  c #346A1F",
"r  c #2A4622",
"t  c #2B4C22",
"y  c #2F4C28",
"u  c #324F2A",
"i  c #2E5422",
"p  c #315524",
"a  c #325B25",
"s  c #34542B",
"d  c #355D29",
"f  c #3A5731",
"g  c #3F5D36",
"h  c #346324",
"j  c #376B23",
"k  c #386D25",
"l  c #376229",
"z  c #3A642D",
"x  c #3D6A2F",
"c  c #3A7226",
"v  c #3D7429",
"b  c #3E6B31",
"n  c #40762B",
"m  c #437C2E",
"M  c #416E32",
"N  c #45633B",
"B  c #48673F",
"V  c #457236",
"C  c #457D31",
"Z  c #467639",
"A  c #49763A",
"S  c #4C7B3D",
"D  c #4D6C43",
"F  c #4E7347",
"G  c #4F7C42",
"H  c #507046",
"J  c #527E44",
"K  c #54754B",
"L  c #557E49",
"P  c #4A8436",
"I  c #4C8439",
"U  c #50863E",
"Y  c #528A3E",
"T  c #4E8040",
"R  c #538343",
"E  c #568D43",
"W  c #598E45",
"Q  c #568449",
"!  c #5A854D",
"~  c #5D894F",
"^  c #5B9147",
"/  c #5D944A",
"(  c #61964E",
")  c #64994F",
"_  c #618A53",
"`  c #668E58",
"'  c #688F59",
"]  c #649453",
"[  c #689756",
"{  c #659953",
"}  c #699C56",
"|  c #6D9D5B",
" . c #6FA15A",
".. c #70A25F",
"X. c #6E9562",
"o. c #6F9861",
"O. c #729C64",
"+. c #769A6A",
"@. c #7B9D6E",
"#. c #7C9E71",
"$. c #6FA060",
"%. c #74A364",
"&. c #7BA56C",
"*. c #7FAA70",
"=. c #83A575",
"-. c #84AC75",
";. c #86A57A",
":. c #86AC7A",
">. c #8AAD7E",
",. c #89B07C",
"<. c #8EAA84",
"1. c #8EB182",
"2. c #91B385",
"3. c #96B58B",
"4. c #99B68C",
"5. c #9AB98E",
"6. c #9DBA92",
"7. c #9FBE98",
"8. c #A0BD96",
"9. c #A4BE9B",
"0. c #A7C09E",
/* pixels */
"                                                                ",
"X . . X o & & * * * - ; ; - - * * & & o X X . . . . . . . . . . ",
"y r y s f g N B B H K K K F H D D N g f s u y r r r r r r r r y ",
"L G Q ~ ` X.O.@.#.;.<.<.<.>.;.=.#.+.X.' _ ! G G F A S S S A A L ",
"O.[ o.&.=.>.2.3.4.8.8.0.0.8.7.6.3.<.1.=.*.O.| [ ] ] ] ] ] ] ] | ",
"|  .%.&.=.:.1.3.6.6.9.9.0.8.7.5.4.2.,.-.*.%.o.} { { } { [ [ ] | ",
"O.| %.&.-.:.1.3.5.8.8.0.0.9.7.5.4.1.1.=.*.%.$.} ] { [ ] { { [ o.",
"] ] { O.%.-.>.2.4.5.8.0.9.8.6.5.1.<.-.&.o.} ( ^ E E E W W W W ] ",
"I E / } | *.-.,.3.5.5.0.0.5.5.3.1.:.&.%.| / E I I I P I I I I I ",
"v C I E / [ ..%.*.-.-.-.:.*.%. .} ] E Y I C c e w h j k k c v c ",
"h j c C I Y ^ ( {  . .) / E I C v k w w 0 0 7 1 1 1 3 8 0 w q q ",
"w j c C I Y ^ ) { }  .{ / E I C v k j q q 8 7 7 1 1 3 8 0 w w w ",
"w k v m I Y ^ ( }  .} { / E I P v k j q q 8 7 1 1 1 3 8 0 w w w ",
"w j v C I Y ^ ( {  .} ) / E I C n k j w q 0 7 1 1 1 3 8 a q w w ",
"w k v m P Y ^ ( {  .} ) / E I P v k w w q 8 7 1 1 1 3 8 q w q w ",
"w k v m I U ^ ( {  . .) / E I P v k j w q 8 7 3 1 1 3 8 0 w w w ",
"e v n P Y ^ { | $.%.%. .{ / E I P v c e w q 8 3 1 1 7 0 q e e e ",
"$ > < 2 4 5 6 i i a i i i t 1 4 , , % $ : # @ @ @ # @ # $ # $ % ",
"O @ @ = = : > > , < , , > > > = @ @ + O O O O O O . O O O + + + ",
"@ # : > < 2 4 r y i t r 4 4 , > > : # @ @ + @ O O O + @ @ @ # @ ",
"@ > > , 4 4 6 t i s p t t 5 4 < , > # @ # @ @ O + O @ @ # # # # ",
"# > , 4 5 r i p d d d d p t 6 4 < > $ $ # @ + @ + O @ @ @ : # # ",
"# , , 5 6 i d d z z z z a i i 4 4 , > $ $ # @ @ O @ @ @ $ : > : ",
"$ 1 4 r i a l b N V M M z d i 9 4 4 , > $ # @ @ + + @ # $ : % % ",
"% 2 5 9 a h z V A S A V b z a i 6 3 1 1 % # # @ @ @ @ # $ % 1 % ",
"% 4 5 i d z b Z S J G A V x h i 9 1 1 1 % % # @ + + # $ % % % 1 ",
"% 2 9 i d x Z S I R R I Z b z a 9 5 1 1 1 # # @ @ @ # # % , 1 1 ",
"% 5 6 i h b V S J R R S Z b z a 9 5 1 1 1 # # @ + @ # # % , 1 1 ",
", 1 8 i d x V A R Q R S S b l a t 5 1 1 % $ # @ @ @ # $ % , 1 1 ",
", 5 9 i l x V S I Q R S Z b l a 9 5 1 1 1 $ # @ @ + # $ > 1 1 1 ",
", 5 6 i h x V S T Q T G S b z a t 5 1 1 % $ # @ @ + # # % , 1 , ",
"1 1 9 i l x V S T Q R I Z b k a t 5 4 1 1 % # @ + @ # $ , , 1 1 "
};
