/* XPM */
static char *out[] = {
/* columns rows colors chars-per-pixel */
"32 32 6 1 ",
"  c #465437",
". c #696737",
"X c #766E38",
"o c #857639",
"O c #96803C",
"+ c #9D843E",
/* pixels */
"                                ",
"                                ",
"                                ",
"                                ",
"                                ",
"                                ",
"                                ",
"                                ",
"                                ",
"                                ",
"                                ",
"             .oOOo.             ",
"            X++++++X            ",
"           .++++++++.           ",
"           o++++++++o           ",
"           O++++++++O           ",
"           O++++++++O           ",
"           o++++++++o           ",
"           .++++++++.           ",
"            X++++++X            ",
"             .oOOo.             ",
"                                ",
"                                ",
"                                ",
"                                ",
"                                ",
"                                ",
"                                ",
"                                ",
"                                ",
"                                ",
"                                "
};
