/* XPM */
static char *out[] = {
/* columns rows colors chars-per-pixel */
"16 32 66 1 ",
"  c #867250",
". c #897552",
"X c #8E7B57",
"o c #8E7B5A",
"O c #907E5C",
"+ c #BB8B27",
"@ c #BC8E2D",
"# c #BC8F32",
"$ c #BC9134",
"% c #BD933B",
"& c #C0993E",
"* c #BE9643",
"= c #BF9A4A",
"- c #BF9E54",
"; c #958362",
": c #9B8A6B",
"> c #9E8D71",
", c #A29275",
"< c #A4957A",
"1 c #A9997E",
"2 c #BFA260",
"3 c #C19C4B",
"4 c #C19E53",
"5 c #C19F5B",
"6 c #C3A14C",
"7 c #C3A253",
"8 c #C4A35D",
"9 c #C2A463",
"0 c #C5AA63",
"q c #C1A76C",
"w c #C5AB6D",
"e c #C1A273",
"r c #C3AC74",
"t c #C4AF7A",
"y c #C5B17E",
"u c #AB9D85",
"i c #AC9F89",
"p c #AF8D9C",
"a c #B18395",
"s c #B48698",
"d c #B58C9C",
"f c #B88D9E",
"g c #AEA28C",
"h c #B0A48F",
"j c #B1A592",
"k c #B5A995",
"l c #B6AB99",
"z c #B8AD9A",
"x c #BCB09C",
"c c #B793A2",
"v c #BA94A3",
"b c #BC9BA7",
"n c #BC9DAA",
"m c #BEA4AE",
"M c #BEB4A5",
"N c #BFB7A9",
"B c #C09F8A",
"V c #C5B384",
"C c #C5B58A",
"Z c #C3B696",
"A c #C6B995",
"S c #C5BA9A",
"D c #C0B6A7",
"F c #C5BDA4",
"G c #C0B7A8",
"H c #C2BAAC",
/* pixels */
":X;>ihjjhhuu<:oO",
".;uhhjlzzzkhgu: ",
":ghhiuuuuu1<ihh,",
"ugjilMGHHHHMkhhg",
"igMMGHHHHHHGDzgj",
">ilNHHHHHNzHNzju",
"OikMHHHHHDkGMji;",
" OgjNHHHHHGMlj;o",
"o:jiMGGHHHGGzj<X",
">huiGHGGHHGGzih;",
"uh<kHHzMHHHGMugi",
"gjuMHHHHHHHHNlhh",
"jjgGHHHHHHHHHNgh",
"jgkNHGzHHHHHjGhh",
"jjkGHHHHHHHHxGzj",
"gjMMHGHNHHHHGGlh",
"uhkklkllkkjjjjji",
";<ggjlzzzzljhjiO",
"225==***3*%%###%",
"n-qe999434-=*$#@",
"vn-2Crr93qq3+++*",
"vnn8tZtCVtt5&&+4",
"vnnn3tFCCyVV8&99",
"vnnmm4VFCVVtyCr9",
"ccnmmD5VFACVVyr0",
"dfbmmmm5VFSCVV08",
"sdvnmmmn8yFSCy67",
"asfvnnnnn8tFACCy",
"sfffvnbnvbBwSACC",
"pfvBvvfvDbbn0SAC",
"::::>1uigg1,,:::",
"  ..XO:,1,:;X. ."
};
