/* XPM */
static char *out[] = {
/* columns rows colors chars-per-pixel */
"64 64 29 1 ",
"  c #33362A",
". c #36382C",
"X c #3B3B2C",
"o c #423F2C",
"O c #45412D",
"+ c #4B432C",
"@ c #52462C",
"# c #56482C",
"$ c #5A4B2C",
"% c #464330",
"& c #4A4531",
"* c #4F4832",
"= c #544C33",
"- c #5B4F32",
"; c #5D5235",
": c #604F2F",
"> c #61502F",
", c #635433",
"< c #685733",
"1 c #675835",
"2 c #6C5A35",
"3 c #635738",
"4 c #655938",
"5 c #6C5C39",
"6 c #705D37",
"7 c #715E39",
"8 c #74623C",
"9 c #7A663E",
"0 c #7B683F",
/* pixels */
"   X=3 $$$$$=      .=$$$$$* X       & $$$$$%        %$$$$; 54=O ",
"   .   ;$$$.  =55;.  o$$O      .o     =:$$X  *483o   O$$+       ",
"008;o  . @X =002>>11  O   +=59009998X   O+ %002>>15X  O . X;9000",
"$$$$<8;.   302$$$$$$,   %9082>$$$$$$-9=.  X08$$$$$$$X   .5091$$#",
"$$$$$$$1;  &>$$$$$$$+  308$$$$$$$$$$$$$1,X X#$$$$$$#   =09>$$$$#",
"::$$$$$$$,o *$##$$$#  30,#$$$$$$$$$$$$$$$<-  oX  X+.  ;06$$$$$$#",
"$$$$$$$$$$$o .  .$$. ;0,$$$$$$$$$$$$$$$$$$$>         =01$$$$$$$$",
"$$$$$$$$$$$$      O +0<$$$$$$##@@$$$$$$$$$$$$       *92$$$$$+Xoo",
"   +$$$$$$$$#       08$$$$$O       o#$$$$$$$$o     .96$$$$@     ",
";=+  O$$$$$$$O     ;0$$$$+    &;3=   O$$$$$$$$     59$$$$+  =185",
">,285. +$$$$$#    X0<$$$+   =0081>28O  @$$$$$$X   o0:$$$+  902,:",
"$$$$$>* +$$$$$.   59$$$O  .802$$$$$$>,  #$$$$$@   88$$$$ X99$$$#",
"$$$$$$$+.;$$$$X. X0:$$#   00$$$$$$$$$$>. :$$$$$  %0-$$$X 08$$$$$",
":$$$$$$$ .>$$$+  49$$$X  00$$$$$$$$$$$$$. $$$$$X 57$$$@ 10$$$$$$",
"$$$$$$$$@ ;$$$+. 0>$$@  50$$$$@@@#$$$$$$$ *$$$$X 9,$$$.X9,$$$$@+",
"  O$$$$$$ X<$$$  ++#$X +0>$$O      X+$$$$+ 3@o. O9$$$@ 98$$$@   ",
"    @$$$$+ ;OX.     .  08$@    o      +$+X   .   oO#$Xo0$$$o  ;=",
"55   :$#o   XOOOX      +$$  &800903O      O;555;=o    ,7$$o +992",
"$$:   O  $000888885=X      708$$$$$,2 . ;0081>:><298=. .@O &02$$",
"$$$#   *00<$$$$$$$$>58*   09$$$$$$$$@ X00,$$$$$$$$$$$22o   07$$#",
"$$$$  801$$$$$$$$$$$$$:5# *-$$$+oo++  08$$$$$$$$$$$$$$$:5% =$$$$",
"@+$o 80$$$$$$$$$$$$$$$$$$1  @O       80$$$$$$$$$$$$$$$$$$-, X+X.",
"  . ,0$$$$$$$$$+@@#$$$$$$$$O        =0:$$$$$$$@@@+@$$:$$$$$:    ",
"   &0<$$$$$+.       O+$$$$$$+       02$$$$$$O       .o$$$$$$:X  ",
"   02$$$$$   o*#O     o$$$$$$X     10$$$$$@   O==%     o$$$$$$  ",
"  *0$$$$$  <0088281.   X$$$$$#     0,$$$$@  79971687=   o$$$$$o ",
"  55$$$$  00>$$$$$$>#   X$$$$#X   ;9$$$$$  90,$$$$$$:2=  &$$$$@ ",
"  0>$$$O 50$$#$$$$$$$-   ;$$$$+   91$$$$X 09$$$$$$$$$$$,  -$$$$ ",
"  0$$$$ *0$$$$$$$$$$$$-  X<$$$$  X0$$$$@ 20$$$$$$$$$$$$$@  ,$$$.",
"  0$$$O 02$$$$$$$$$$$$$$  8$$$$X O9$$$$ o9,$$$$$$$$$$$$$$o 7$$$o",
"  0$$$ <0$$$$#+OO@$$$$$$& ;-$$$X 37$$$@ 97$$$$$$$$$$$$$$$# O:$$o",
"  9$$O 0>$$$+      +$$$$$ *1$$$  ;,$$$XO9$$$$$+o+@#$$$$$$$. 7$$@",
"   o+ 29$$$.        X#$$$@ 1+OX    XO+ 92$$$o       O$$$$$O OO. ",
";;O   8$$$X  *57;O   O$$+          .   ;$$$X  =55=. .X$$o    X+=",
",<181X X$+ %996,;<5X  O   o;8000908;X    @X =002>>21  +   ;90092",
"$$$$$,;   +08$$$$$$:X   X108<:$$$$$$18;.  .;01$$$$$$,   *09<$$$#",
"$$$$$$$,O 92$$$$$$$$   =00>$$$$$$$$$$$$1;  *>$$$$$$$+  302$$$$$#",
"$:$$$$$$$= @$+.. .OX  ;02$$$$$$$$$$$$$$$$,o +$@#$$$#  401$$$$$$#",
"$$$$$$$$$$# O        =02$$$$$$$$$$$$$$$$$$$o..  X$$  39,$$$$$$$$",
"$$$$$$$$$$$=        *02$$$$$+XXo@$$$$$$$$$$$.     o +0,$$$$$$#@@",
".. o$$$$$$$$+      X02$$$$@        +$$$$$$$$#       06$$$$$O    ",
"==   o$$$$$$$.     59$$$$O  =5881-+  O$$$$$$$O     30$$$$@    *=",
"1128O  @$$$$$@    X0,$$$@  992,::>185. +$$#$$$    X0<$$$+   =006",
"$$$$>,  #$$$$$.   88$$$$ .09$$$$$$$$$>= +$$$$$    78$$$O   802$$",
"$$$$$$>X $$$$$+  %9:$$$X 08$$$$$$$$$$$$+ ;$$$$o  .0,$$#  .09$$$$",
"$$$$$$$$X :$$$#  28$$$@ 19$$$$$$$$$$$$$$  >$$$+  18$$$X  09$$$$$",
"##$$$$$$$ *$$$$  0>$$$ X9,$$$$@@@$$$$$$$@ ;$$$@ X0,$$@  50$$$$#+",
"   X+$$$$+ ;@o. O0$$$# 88$$$@     o$$$#$$ X1$$$  O+@$X *0>$$O   ",
"      +$+..      oO@$Xo0$$$O  ;-.   #$$$$@ 5@+o        07$#    .",
"003O      +5955;-O    ,7$$o +90121   $$$+      X.      &$$  &800",
"$$$,5.  3006>$;><<88=  o$O %96$$$$,  .+    *5899895=X      897:$",
"$$$$@ X99,$$$$$$$$$$$65.  .96$$$$$$#    .4097,$$$$$,27=   09:$$$",
"Oo+@  09$$$$$$$$$$$$$$$,, o0$$$$$$$$  =899,$$$$$$$$$$$$6* *$$$$+",
"     80$$$$$$$$$$$$$$$$$$, *$OX.X@$X 795:$$$$$$$$$$$$$$$$1  @O  ",
"    =0$$$$$$$$#@@+@$$$$$$$$       . 69:$$$$$$$$@@@$$$$$$$$:%    ",
"    92$$$$$$O       Xo$$$$$$       59$$$$$$+        X@$$$$$$+   ",
"   <9$$$$$@   +==O     O$$$$$     X0,$$$$$X  .*=%     o$$$$$$X  ",
"   0>$$$$@  89982285=   O$$$$@    -8$$$$$  ,0095275.   .$$$$$@  ",
"  -0$$$$$  00:#$$$$$>2=  O$$$$X   52$$$$. 901$$$$$$,=   .$$$$$X ",
"  92$$$$X 99$$$$$$$$$$$,  -$$$@   0,$$$O 70$$$$$$$$$$-   ;$$$$+ ",
"  9-$$$@ 20$$$$$$$$$$$$$@  ,$$$   9$$$$ +0:$$$$$$$$$$$-  o<$$$$ ",
" +0$$$$ X0>$$$$$$$$$$$$$$X 7$$$X  0$$$o 92$$$$$$$$$$$$$$  7$$$$ ",
" 18#$$@ 08$$$$$$$$$$$$$$$$ %:$$O X9$$$ ;9$$$$@+o+@$$$$$$* ,$$$$X",
" =>#$$ O0#####OO++@#$@##$$. 6$$+  8$$o 9:$$$o      o$@$#$ &,$$$ "
};
