/* XPM */
static char *out[] = {
/* columns rows colors chars-per-pixel */
"32 32 60 1 ",
"  c #282D37",
". c #2B2F39",
"X c #2E323C",
"o c #30343F",
"O c #323743",
"+ c #353B45",
"@ c #373E49",
"# c #393F4B",
"$ c #3C414D",
"% c #3F4551",
"& c #414653",
"* c #434956",
"= c #454B5A",
"- c #4A4F5B",
"; c #4A505E",
": c #4D5462",
"> c #515766",
", c #525866",
"< c #515768",
"1 c #555C6A",
"2 c #585F6E",
"3 c #575F72",
"4 c #5A606F",
"5 c #576073",
"6 c #5B6373",
"7 c #5E667A",
"8 c #5F687C",
"9 c #616774",
"0 c #636876",
"q c #636B7D",
"w c #696E7D",
"e c #6B717E",
"r c #656E83",
"t c #677086",
"y c #6A7284",
"u c #6F778A",
"i c #707684",
"p c #747A86",
"a c #787D87",
"s c #747C8C",
"d c #787E8A",
"f c #7C818D",
"g c #7E8594",
"h c #81858F",
"j c #818693",
"k c #838996",
"l c #888D95",
"z c #858C99",
"x c #888E9A",
"c c #8C929E",
"v c #91959F",
"b c #9196A1",
"n c #959AA4",
"m c #9A9FA7",
"M c #9B9FA8",
"N c #9BA0A7",
"B c #9EA2AA",
"V c #A1A5AC",
"C c #A9ACB2",
"Z c #AEB0B5",
/* pixels */
":yllllllllllllw<>whasfq<:ejhhhw>",
"eZVBVBVNVBBBMVB20Vnbnnb<eZVVVVV6",
"hBccbxxvxbcxcbb,scdgggg=jMcccvv0",
"dNcvbbvvbbbbbbb>ixgjggg=fMcbvbv0",
"dMvbbbbbbvbbbbb,icgggkg%fNcvbbb9",
"fMbbbbbbbbbbbnb,pxggggg=fBcbbbb9",
"wbxbvvcbvvcvbvd=sxgkkkg=fMvbbbb9",
",,------------;;dxgggkg=fMcbbbb9",
",0dppppdpdppdp0;scgggkg=fMbbbbb9",
"0bgssssssssssss=scggggg*fMcbbbb9",
"ru8rqrrqqrrrrr8#scgggkg=fMcbbbb9",
"wurrrrrtrrrrrt8@dxgggkg=fMcbbbb9",
"0srrrrrrrrrrrtq@sxgjgkg=fMvvbbb9",
"qstytyytttyytuq@gckzkzg*hBvvbnb9",
"376708770777qq#%qdsssf6&yvccvvd>",
"2&oXO.O+@O .  +61=+OOOO-&*&$&&*1",
":8ffyf05,egffgy,:ylllzllkhljkkw>",
"qcfgfgf;eBnbnnv,qCMnnnnnnmnnnNn4",
"yf888r8$gcfgfgg-dnkkzkkzzkzkkkc4",
"wyrqtt8$fxggggg-pbxxxxxxlxxxccl1",
"wtrrry8$fcggggg;pbzxxxzzxxxxzxl4",
"tfrrttq$fggggxg;dnxxxccccxccccc1",
"rfrrrt8+fcggggg:0xkkzzzzkzxkzxw;",
"8trrrt8$fcggggg,,:&&&%$&%%%%%$%4",
"turrrt8$fgggggg,;wfgfgfgffffffq1",
"wurrrr8$fbggggg:0Nxggzggkkkkkxk1",
"ttrrtt8$fgggggg:igtuuuuuuuuuuuy:",
"wfrrtt8$gbgggcg:egufufuffusssfu;",
"ttrr8t8$fgggggg;egfuuuuuuussssu;",
"wfttyf8$fcggxxg-igffgfffgsffsgu;",
"55,555$$rfffff4*7trtyyuyttyyyy;*",
"5%$$$$%11:%%%%%51;%%%%$%%%&$&$%4"
};
