/* XPM */
static char *out[] = {
/* columns rows colors chars-per-pixel */
"32 32 38 1 ",
"  c #475164",
". c #475269",
"X c #4B556C",
"o c #51596B",
"O c #4E5971",
"+ c #535D74",
"@ c #566076",
"# c #5B6577",
"$ c #566178",
"% c #5B647A",
"& c #5E697E",
"* c #616A7D",
"= c #5F6A80",
"- c #636D82",
"; c #677085",
": c #697386",
"> c #6D7689",
", c #6F788B",
"< c #737B8D",
"1 c #777F90",
"2 c #7B808E",
"3 c #778091",
"4 c #7B8394",
"5 c #808796",
"6 c #818897",
"7 c #808798",
"8 c #848B9A",
"9 c #898F9C",
"0 c #8B919E",
"q c #91959F",
"w c #8F94A0",
"e c #9196A2",
"r c #959AA4",
"t c #999DA7",
"y c #9B9FA8",
"u c #9DA0A7",
"i c #9DA1A9",
"p c #A1A4AB",
/* pixels */
"<<<2566888888989,:::;;;;;==;===;",
"<,<<588888000000,,>>>>;;;;=;===<",
"<<<<38898000000w<,,,>>>>>;;;;=<<",
",<<<169900000wwe11,1<<,>>>;;;<1<",
"<<<1349000eeeeee334331<<,,>>1111",
"<1324460weeererr444433311,,44311",
"11344469eerrrrrt444444441<444311",
"11445688wrrrtrtt4884444414884411",
"114578890rtttttt8884874489494444",
"145568899rttyyut8998888800988444",
"414589990eryyuuy9999889w00088844",
"4555899w0eeyuupu000990eew0088844",
"<178899eeerr9*qu01O1wreeww9891=X",
">,<5990eeerr:*qpw-O1rrreew0<=OOX",
">>111580eerro>queo*qtrrrw1===OO.",
">,<147789wrro<ppe <ryre4;-==O+OX",
"><114487999qo4ppro6pq5>:-*&+++OO",
">><144489900&4ytt:5q1>>:--=%%+OX",
"><114888899q>8ptq*201>>:;-&%++OO",
">>1144488wryqyp9q590551<:-&$++OX",
">,<149wryiiipp04qq865521<<>-=+OX",
"<48wrrryyyiipr<1qr955441<>>>;-=+",
"8wwwerrryyiiy<,1q9q6141<<>>;--=+",
"89wwerrtttyy1;>19q99411<<>>---=%",
"8wwwwwerttt4;;;19999711<>>:--&&+",
"888wwwertt9==;-<898881>>>>---&#@",
"84wwwweree=====,888877<>::-*&&$@",
"8ww8wwwee;+====;7777741;-***##@+",
"48898www1++++=$>4474441>--*-$#++",
"88898ww4OO++++$>44441111-%%+++++",
"8488894OXXOO++O>11311<1,:%##+++O",
"488888%..XXXOOO><1111,>>>-++++Oo"
};
