/* XPM */
static char *out[] = {
/* columns rows colors chars-per-pixel */
"32 32 93 2 ",
"   c #262A32",
".  c #292E35",
"X  c #2E3831",
"o  c #2D323A",
"O  c #333C3C",
"+  c #384436",
"@  c #36403C",
"#  c #3A4639",
"$  c #485E35",
"%  c #43533C",
"&  c #46593A",
"*  c #4A5F39",
"=  c #4E6636",
"-  c #4E643B",
";  c #506736",
":  c #516936",
">  c #50663D",
",  c #546C3A",
"<  c #57723B",
"1  c #5A753A",
"2  c #5D793F",
"3  c #676A2F",
"4  c #766B2D",
"5  c #796929",
"6  c #79722D",
"7  c #647436",
"8  c #6C7433",
"9  c #627538",
"0  c #617B3F",
"q  c #6B783A",
"w  c #727532",
"e  c #797530",
"r  c #323640",
"t  c #353A43",
"y  c #373E48",
"u  c #393E49",
"i  c #3B4246",
"p  c #3D424D",
"a  c #3F4849",
"s  c #3F4450",
"d  c #434E45",
"f  c #40474D",
"g  c #424A4C",
"h  c #4C5D42",
"j  c #47524E",
"k  c #49554B",
"l  c #4E5C4B",
"z  c #414652",
"x  c #434952",
"c  c #474D59",
"v  c #494E5A",
"b  c #4E5953",
"n  c #4D535D",
"m  c #4F585A",
"M  c #515C55",
"N  c #4D6141",
"B  c #526545",
"V  c #556B43",
"C  c #55664C",
"Z  c #5B7542",
"A  c #5E7843",
"S  c #556254",
"D  c #5B6B55",
"F  c #627D43",
"G  c #617258",
"H  c #4F5560",
"J  c #515661",
"K  c #535965",
"L  c #595E67",
"P  c #5A5E6A",
"I  c #5D636D",
"U  c #5F6470",
"Y  c #636B6D",
"T  c #677465",
"R  c #616672",
"E  c #666B76",
"W  c #668147",
"Q  c #668248",
"!  c #6A854D",
"~  c #6E8652",
"^  c #6F8852",
"/  c #738C54",
"(  c #769059",
")  c #7A925D",
"_  c #788B67",
"`  c #758669",
"'  c #7A8E68",
"]  c #7E9665",
"[  c #859B6C",
"{  c #889D6F",
"}  c #879C71",
"|  c #899F72",
" . c #8EA276",
/* pixels */
"1 1 1 1 8 8 1 1 1 1 1 1 1 1 1 1 1 1 1 1 1 1 o t t t - 1 1 1 1 1 ",
"1 1 9 5 5 5 9 1 1 1 1 1 1 1 1 0 ( 0 1 1 1 % t a c c x 1 1 1 1 1 ",
": 1 5 5 5 5 9 1 1 1 1 1 1 1 1 | | [ 2 1 1 & d v H K H 1 1 1 1 1 ",
": : 6 5 5 5 1 1 1 : : , 1 1 W  .{  .| 0 1 1 1 V b J J 1 1 1 1 1 ",
": : : 4 5 5 1 1 : : : , 1 1  . . . . .A 1 1 1 1 w 6 5 5 4 w , : ",
": : : = 3 5 1 : : : : : 1 1  . .| ! i , 1 1 1 1 1 6 5 5 5 9 : : ",
": $     . o + ! < : , : , 1 ( , : # x n B 1 1 1 1 1 5 5 5 : : : ",
"=   o t u i i | { [ A : : : : : : i J U I n > 1 1 1 1 6 6 : : : ",
"  . u f z z z } { {  .~ : : : : % z I E E U K B 1 1 1 2 2 : , = ",
"  t g V g s z '  . .] , : : : = i n U E E E E G W 0 F F A : : X ",
"# 1 F F % u p M ] , : : : : : : z K E E E E ~ ^ ^ 0 W F 0 : = X ",
"F F F F A t p s = : : : : : : : z P E E T ~ ^ ^ ! W 0 F F , : < ",
"F F F F F V i f = : : : : : : w 5 4 5 4 W ^ ^ ^ Q W A W F A W 0 ",
"F F Q F F F 1 1 1 : : : : 1 1 8 5 5 5 w 2 W ^ ^ W A W A F F F F ",
"F F F F F F F 1 1 1 , , 1 1 1 1 5 5 5 1 A F A F F F F A i V F W ",
"F F F F F F F A 1 1 1 1 1 1 1 1 5 5 9 1 W F W F F F A i x m F A ",
"A W A W W W W W 1 1 1 1 1 1 9 1 8 7 1 2 F F F F F A i z L R D F ",
"2 A W W A 2 2 # o = 1 1 1 1 9 1 1 1 1 2 0 F F F F - s K R E U Z ",
"1 2 A A < O r i p x h 1 1 1 1 1 1 1 1 1 W [ ^ A N p n I E E E I ",
"1 1 - r r i s v H H v g 1 1 1 1 1 1 1 1 Q  . .{ a v I D Y E E 1 ",
"1 1 @ i x n J K K K K n k 1 1 1 1 1 1 1 Q  . . .[ n C : = L 1 1 ",
"W { C p J K K K K K K K m 1 F A 2 1 1 1 2  . . .) h : : = : 1 1 ",
"/  . .a n J K K S K K K Z F F F 0 1 1 , , ( [ ! : : = : : : 1 1 ",
"(  . ._ c K J A A l n A W F F F , : : : : , : : ; : : : : : < 1 ",
"(  . . .` A A W 0 F F F F F F F y x = = = : : : ; ; : : : : , 1 ",
"!  . .) W 2 W 2 q q q F F F F F p J K l : : : : ; ; : : : , 1 1 ",
"Z [ ! 0 W 0 2 e 5 5 5 w F 0 F F z P R I b * : : ; : : : 1 1 1 1 ",
"A 2 1 1 2 A W w 5 5 5 6 F F F F x P E E U S : , , , 1 1 1 1 1 2 ",
"^ 0 1 1 1 W A 0 6 5 6 W W 2 A W B K Y ` {  .^ 1 1 1 1 1 1 2 ! ^ ",
"^ W 1 1 1 1 2 W 0 5 q 0 A W W 2 1 {  . . .{ 2 1 1 1 1 1 1 ^ ^ ^ ",
"^ ! 1 1 1 1 1 1 W 7 W W 2 0 2 1 1 !  . . .2 1 o O > 1 1 1 1 ! ^ ",
"W ! 1 1 1 1 1 1 1 1 1 1 1 1 1 1 1 1 W ] 2 < = i s j 1 1 1 1 1 1 "
};
