/* XPM */
static char *out[] = {
/* columns rows colors chars-per-pixel */
"64 64 174 2 ",
"   c None",
".  c #ABA59C",
"X  c #AAA59D",
"o  c #ABA59D",
"O  c #ABA69F",
"+  c #ABA79F",
"@  c #ACA79F",
"#  c #ABA7A0",
"$  c #ACA7A0",
"%  c #ADA7A0",
"&  c #ACA8A0",
"*  c #ADA8A0",
"=  c #ADA9A0",
"-  c #ACA8A1",
";  c #ADA8A1",
":  c #ADA9A1",
">  c #AEA8A0",
",  c #AEA9A0",
"<  c #AEA8A1",
"1  c #AEA9A1",
"2  c #ADA9A2",
"3  c #AEA9A2",
"4  c #AFA9A2",
"5  c #AEA9A3",
"6  c #AEAAA2",
"7  c #AFAAA2",
"8  c #AFABA2",
"9  c #AEAAA3",
"0  c #AFAAA3",
"q  c #AFABA3",
"w  c #AFAAA4",
"e  c #AFABA4",
"r  c #AFAAA5",
"t  c #AFABA5",
"y  c #B0ABA2",
"u  c #B0ABA3",
"i  c #B0AAA4",
"p  c #B0ABA4",
"a  c #B0ABA5",
"s  c #B1ABA5",
"d  c #B0ACA5",
"f  c #B1ACA5",
"g  c #B0ACA6",
"h  c #B1ACA6",
"j  c #B1ADA6",
"k  c #B0ADA7",
"l  c #B1ADA7",
"z  c #B2ACA6",
"x  c #B2ADA6",
"c  c #B2ADA7",
"v  c #B2AEA7",
"b  c #B1AEA8",
"n  c #B2AEA8",
"m  c #B2AFA8",
"M  c #B2AEA9",
"N  c #B3AEA9",
"B  c #B2AFA9",
"V  c #B3AFA9",
"C  c #B2AFAA",
"Z  c #B3AFAA",
"A  c #B3AFAB",
"S  c #B4AFA9",
"D  c #B4AFAA",
"F  c #B3B0AA",
"G  c #B3B0AB",
"H  c #B4B0A9",
"J  c #B4B0AA",
"K  c #B4B0AB",
"L  c #B4B1AB",
"P  c #B5B1AB",
"I  c #B4B0AC",
"U  c #B4B1AC",
"Y  c #B5B1AC",
"T  c #B4B1AD",
"R  c #B5B1AD",
"E  c #B5B2AC",
"W  c #B5B2AD",
"Q  c #B6B2AC",
"!  c #B6B2AD",
"~  c #B6B2AE",
"^  c #B6B3AE",
"/  c #B7B3AE",
"(  c #B6B2AF",
")  c #B6B3AF",
"_  c #B7B3AF",
"`  c #B5B4AE",
"'  c #B7B4AE",
"]  c #B7B4AF",
"[  c #B8B2AF",
"{  c #B8B4AF",
"}  c #B7B4B0",
"|  c #B7B5B0",
" . c #B8B3B0",
".. c #B8B4B0",
"X. c #B8B5B0",
"o. c #B9B5B0",
"O. c #B8B4B1",
"+. c #B8B5B1",
"@. c #B8B6B1",
"#. c #B9B6B1",
"$. c #B9B5B2",
"%. c #B8B6B2",
"&. c #B9B6B2",
"*. c #B9B6B3",
"=. c #B9B7B3",
"-. c #BAB6B3",
";. c #BAB7B3",
":. c #BAB7B4",
">. c #BAB8B3",
",. c #BAB8B4",
"<. c #BBB8B4",
"1. c #BAB8B5",
"2. c #BBB8B5",
"3. c #BBB9B5",
"4. c #BBB9B6",
"5. c #BBB8B7",
"6. c #BCB9B5",
"7. c #BCB9B6",
"8. c #BCB9B7",
"9. c #BCBAB6",
"0. c #BCBAB7",
"q. c #BCBBB7",
"w. c #BDBBB7",
"e. c #BCBAB8",
"r. c #BDBAB8",
"t. c #BCBBB8",
"y. c #BDBBB8",
"u. c #BDBBB9",
"i. c #BDBCB9",
"p. c #BDBDB9",
"a. c #BEBCB9",
"s. c #BEBDB9",
"d. c #BEBCBA",
"f. c #BFBCBA",
"g. c #BEBDBA",
"h. c #BFBDBA",
"j. c #BEBCBB",
"k. c #BFBCBB",
"l. c #BEBDBB",
"z. c #BFBDBB",
"x. c #BFBEBB",
"c. c #BEBDBC",
"v. c #BFBDBC",
"b. c #BEBEBC",
"n. c #BFBEBC",
"m. c #BFBEBD",
"M. c #C0BDBC",
"N. c #C0BDBD",
"B. c #C0BEBC",
"V. c #C0BEBD",
"C. c #C0BFBD",
"Z. c #C0BFBE",
"A. c #C1BFBE",
"S. c #C0C0BE",
"D. c #C1C0BE",
"F. c #C1C0BF",
"G. c #C1C1BF",
"H. c #C2C0BE",
"J. c #C2C1BE",
"K. c #C2C0BF",
"L. c #C2C1BF",
"P. c #C1C0C0",
"I. c #C1C1C0",
"U. c #C2C1C0",
"Y. c #C3C1C0",
"T. c #C2C2C0",
"R. c #C3C2C1",
"E. c #C3C3C1",
"W. c #C3C2C2",
"Q. c #C3C3C2",
"!. c #C4C3C2",
"~. c #C4C3C3",
"^. c #C4C4C3",
"/. c gray77",
/* pixels */
"                                                                                                                                ",
"                                                                                                                                ",
"                                                                                                                                ",
"                                              ) 5.g.g.c.b.b.k.l.k.k.b.x.b.g.g.8.)                                               ",
"                                         .w.N.J.T.Q.Q.~.!.U.F.L.D.U.U.R.W.^.^.T.J.N.t.{                                         ",
"                                    -.h.F.!.^.R.U.U.T.T.R.W.Q.~.~.Q.Q.R.T.U.U.U.R.^.!.F.h.*.                                    ",
"                                +.x.G.~.~.E.U.T.R.~.~.Q.W.W.W.R.R.R.T.R.Q.~.R.T.U.U.T.W.W.T.x.+.                                ",
"                              w.P.R.!.U.U.R.~.Q.R.T.L.G.D.D.U.F.n.y.;.X.3.V.U.T.R.W.R.U.T.W.!.U.w.                              ",
"                          ( B.Y.~.E.U.R.~.W.F.A.D.G.T.R.U.G.D.C.0.X.U f h X.z.V.y.d.T.R.T.U.T.~.R.M.(                           ",
"                        :.F.R.!.U.R.~.~.L.B.B.A.D.G.G.U.T.U.D.C.7.^ W J n v <.B.y.q.z.V.G.R.T.U.!.R.F.:.                        ",
"                      7.U.~.T.U.~.^.R.L.L.F.D.D.A.G.G.U.T.U.A.C.g.;.X.U Z W 0.C.C.C.u.7.z.D.U.R.T.R.~.P.7.                      ",
"                    7.T.W.E.T.~./.W.U.G.G.D.D.F.D.U.U.T.T.D.n.C.D.F.C.a.u.z.A.L.G.g.;.,.u.n.v.L.W.R.T.W.I.7.                    ",
"                  :.K.W.R.R.~.^.R.U.L.G.C.n.Z.D.V.D.U.U.L.A.z.C.R.W.R.T.T.L.C.a.3.W n ..,.q.n.D.D.R.R.R.~.F.:.                  ",
"                ` G.~.R.R.~.W.L.z.z.D.V.n.z.0.6.a.D.U.U.U.F.A.A.D.D.A.n.i.u.7.X.c e a U X.3.D.U.C.D.R.W.R.~.L.(                 ",
"                B.R.T.T.~.R.G.y.<.u.v.B.n.g.6.;.u.D.U.R.U.v.u.7.&.7.;.^ *.7.3.@.Z v j V ~ ;.n.A.B.V.C.R.R.R.R.M.                ",
"              t.Y.R.U.~.R.F.g.>.6.g.i.v.z.q.9.d.Z.n.B.D.C.g.3.] V f 3 a ) &.>.>.W F Z V V ] 7.y.z.g.g.A.W.R.R.R.t.              ",
"            +.P.~.U.~.R.F.V.0.9.g.n.d.q.3.,.+.,.3.^ ! ,.u.z.t.X.n + X 3 l Z _ =.^ n L U B L &.,.9.a.g.n.D.W.R.~.P.+.            ",
"            x.R.E.W.~.T.A.d.y.n.V.C.z.q.9.7.} L c p h v U =.@.V 9 # - 1 v V x X.4.+.} ~ ~ _ 3.d.0.i.D.Z.C.U.W.R.!.x.            ",
"          *.I.R.T.~.R.G.n.y.i.V.n.A.C.n.d.,.^ ! J v V n d v v w t 2 2 9 v J W 0.n.d.9.2.7.3.d.C.y.9.Z.U.F.U.W.R.W.T.*.          ",
"          h.~.T.~.^.U.C.g.u.a.z.V.D.C.z.#.^ S L ! D z v n a t w M g 5 k n +.v.C.n.n.n.A.D.n.n.A.a.,.i.D.U.R.R.Q.R.W.g.          ",
"         .H.~.R.^.~.F.g.q.a.a.z.A.D.n.#.H E S J E ! n f d b b & l r ; e n _ z.D.n.C.U.U.U.U.Z.z.z.d.n.D.T.R.R.~.R.W.F. .        ",
"        t.!.E.~.^.T.d.0.u.B.C.C.A.D.C.} v v S V K ! ^ n V U 3 O 2 a 9 w l M ..z.A.A.F.n.u.V.U.V.g.B.G.R.Q.~.Q.W.Q.R.!.t.        ",
"        m.^.T.~.W.V.;.g.F.F.D.D.C.V.D.u.L V L n c n Z K &.%.; O $ l l l C M U ,.g.V.g.<.;.7.u.d.z.Z.U.Q.^./.~.R.~.T.Q.M.        ",
"      ) J.R.W.^.D.q.q.A.D.D.v.n.d.i.u.i.&.D m a p a h *.g.=.b $ $ b h w A =.1.=.7.y.g.e.*.&...0.n.D.T.R.~./.~.T.R.R.R.F.[       ",
"      5.T.U.~.R.v.9.g.a.d.7.<.0.0.2.;.,.,.+.F : * V _ ^ ;.u.4.} T I A U ,.C.v.<.0.d.V.l.3.*.<.n.D.A.G.U.R.~.~.R.U.W.T.E.5.      ",
"      g.Q.U.~.G.9.0.V.<.;.X.#.6.0.9.y.t.u.d.2.K p L +.*.] 0.z.d.t.4.4.0.C.R.D.d.n.G.U.D.z.i.d.C.F.D.D.L.U.R.~.U.L.Q.T.Q.s.      ",
"      k.Q.T.^.B.3.d.v.7.&.] { ;.3.3.t.d.7.3.l.2.^ / <.i.X.;.z.V.n.g.n.C.U.Q.R.G.U.R.W.~.R.U.D.A.L.G.U.U.U.U.R.U.F.Q.R.Q.j.      ",
"      c.~.R.Q.z.y.g.=.X.X./ Q } @.&.7.7.] ;.C.d.,.} W L v ^ i.S.F.S.D.G.G.W.Q.R.W.Q.~.~.Q.R.T.L.U.U.L.T.U.U.R.T.F.R.R.W.c.      ",
"      x.!.~.T.n.z.g.&.! ^ / / L V ^ 2.7.7.d.D.z.,.W v , 1 } i.U.Q.T.F.F.F.L.U.R.R.T.R.T.T.T.R.R.U.U.F.U.U.U.R.R.L.R.W.R.l.      ",
"      b.U.~.L.a.C.z./ V J P / Y V L 3.d.d.y.z.g.;.K n u ! 0.g.D.U.U.D.D.F.G.U.Q.R.F.U.L.F.L.Q.W.U.G.F.F.L.U.W.W.L.R.W.U.n.      ",
"      l.J.~.C.y.Z.i.K 1 v n K K K D &.i.;.E 7.z.9._ E =.u.v.A.C.F.G.D.D.L.U.U.U.U.D.D.U.D.D.T.T.U.U.G.G.U.T.W.Q.U.T.~.L.n.      ",
"      k.J.~.n.g.A.;.n a l v D V Z ] &.! m J 4.l.*.n } a.z.g.v.C.D.D.D.U.W.G.D.D.F.F.D.G.D.C.U.T.U.T.G.G.T.U.R.Q.U.L.~.G.l.      ",
"      k.D.~.n.C.v./ D 7 4 p c N I } X.L L ^ ,.4.D > } n.v.a.e.d.C.A.D.U.R.F.A.F.U.G.D.U.U.D.U.R.U.L.L.U.L.U.R.W.T.U.^.G.l.      ",
"      l.L.Q.g.g.V.! p 4 q a d n D R V L ^ &.,.} U Z X.u.g.4...;.z.V.C.D.A.A.A.F.U.D.F.T.U.D.F.R.T.D.K.U.F.U.R.R.T.R.~.U.l.      ",
"      b.U.R.u.i.D.0.S x d d f V v V U ! } ;.4.=.} R K _ +._ X.,.v.C.Z.A.n.V.A.A.A.V.F.T.R.G.F.R.R.L.T.R.U.U.T.R.T.R.~.T.n.      ",
"      x.R.T.v.z.C.u.Y n V a v K V R ^ ^ *.9.i.t.3.} 1 < R &.u.z.V.D.V.v.n.V.C.G.G.C.D.W.Q.L.F.R.U.U.T.T.U.G.U.R.R.W.~.R.n.      ",
"      c.W.T.C.0.d.i...v W n F W U W ^ ] =.t.i.i.t.2.L p W 4.z.V.D.C.l.z.B.B.A.L.F.C.A.T.R.L.U.R.U.U.R.L.D.L.U.T.R.~.Q.Q.n.      ",
"      g.^.U.C.X.,.d.&.x K K v v n ~ ! ! 2.d.a.u.9.X.} .._ *.i.V.C.C.C.C.V.C.A.C.A.K.D.K.R.R.R.W.T.R.R.G.G.U.R.T.T.^.R.Q.f.      ",
"      g.Q.U.A.;.Y <.@.L E _ V Z ^ ^ +.,.d.V.C.l.2.L W } _ *.v.F.n.n.V.z.v.D.D.V.C.U.W.W.Q.~.R.R.R.R.L.G.U.R.R.T.R.~.R.Q.s.      ",
"      8.T.U.D.7.! ^ ! ! ! ! n F ;.} #.i.d.n.U.V.;.@.^ ~ &.4.4.2.;.2.u.<.0.C.D.F.A.D.Q.~.W.Q.~.Q.~.Q.T.T.T.U.R.R.Q.~.R.T.7.      ",
"      [ J.R.G.i._ E ! ! P J n D _ } 7.l.a.v.C.a.2.2.0.t.0.0.;.L n P X.*.&.z.D.A.F.L.R.Q.Q.Q.~.~.~.~.Q.R.T.T.R.R.~.Q.W.F.)       ",
"        N.^.U.V.&.D _ X.X._ v D K ! 6.z.n.z.d.u.u.d.u.7.0.a.u.0.,.*.P L K X.0.y.z.U.W.~./.~.^.^.~.~.~.Q.R.R.Q.Q.~.W.Q.V.        ",
"        w.!.U.D.7.R ~ &.&.&.K Z n N +.;.t.9.7.d.i.y.7.X.;.u.a.a.q.9.X.E ! W U _ ;.A.~././././.^.~.~.~.~.Q.R.W.~.~.R.R.r.        ",
"         .F.W.L.z.} U #.i.2.} ] _ ^ ! L E +.4.7.;.,.+.W _ ;.X.! X.&.^ U n Z n V 2.L.~./././.^.~.~./.~.W.R.R.Q.~.Q.W.J. .        ",
"          h.W.U.D.:.V ! y.t.W ^ *.,.;.,.X.&.2.@.&.;.&.W J L U S ! &.| _ ^ _ Z U 3.C.Q.^./.~.R.W.~.^.~.~.R.Q.~.~.R.W.k.          ",
"          *.T.W.L.v.) x ! @.L v R } 3.g.v.4._ X.^ ^ | +.] h h L $.^ ^ X...P x _ i.A.R.~.~.Q.Q.Q.^.~.~.~.~.~.~.Q.W.I.*.          ",
"            x.!.T.G.4.x a n v x n Z } d.C.a.%.W W ! ! ,.g.| y ! d.2.X.0.*._ ^ 3.D.R.R.~.~.Q.Q.^./.^.Q.~./.^.~.R.R.b.            ",
"            o.U.~.U.Z.+.0 w h f f d j @.2.;.@.W n K Y X.4.&.W ~ 2.u.4.3.3.2.t.D.W.R.U.R.Q.Q.~.~.Q.~.~.^.~.~.R.Q.P.O.            ",
"              t.R.R.L.V.} ; = : 0 9 ; v m U L p < 0 V J L n f p ! 7.7.@.] &.u.z.n.U.U.T.R.R.T.W.R.T.Q.Q.~.W.R.U.t.              ",
"                B.R.T.U.i.W 3 $ 3 0 a p 1 ; 1 4 d h V p 8 j n D &.d.t.>.4.7.4.0.d.L.F.F.U.U.U.T.R.R.W.~.Q.R.R.M.                ",
"                ` F.~.T.U.u.W a 1 d h a p < ; $ 6 f n F U _ X.! L ..X.' t.i.X.,.B.C.A.L.F.F.D.F.U.R.Q.Q.R.W.F.`                 ",
"                  :.P.~.T.U.d.) f Z w 4 i p 1 : 0 p 7 F 0.z.u.} 7 1 1 V ,.z.g.l.A.D.G.U.U.L.F.L.U.W.Q.R.W.P.:.                  ",
"                    7.T.~.T.T.C.:.Z 1 . % 1 l G h p x ! 7.z.z.} * s h V *.d.V.C.D.U.T.F.D.D.D.U.W.Q.R.W.T.6.                    ",
"                      7.U.~.R.T.R.V.4.c < @ o ; , x ^ +.9.d.C.0.Z D ^ &.0.v.g.g.A.D.A.V.B.V.L.Q.Q.R.W.P.6.                      ",
"                        :.L.R.R.T.Q.R.z.&.) n h h J ;.<.;.u.C.C.l.0.0.V.A.z.y.n.D.B.z.V.F.R.Q.R.R.R.L.:.                        ",
"                          ( M.R.W.R.R.Q.U.C.n.z.t.7.y.z.g.d.v.V.D.D.L.R.U.C.V.V.A.A.G.T.W.W.R.W.U.V.(                           ",
"                              t.P.!.W.R.R.R.F.U.U.L.L.A.C.A.A.L.U.U.U.L.G.G.D.A.D.R.W.!.!.~.R.P.t.                              ",
"                                +.c.T.W.W.R.T.R.Q.R.T.U.R.R.~.~.R.U.U.U.U.R.R.Q.W.R.!.W.~.G.x.+.                                ",
"                                    *.g.F.!.Q.R.T.T.R.R.W.~.~.~.!.W.Q.W.W.R.R.T.R.Q.!.J.h.*.                                    ",
"                                         .t.M.L.E.Q.Q.W.R.U.G.F.F.G.U.R.W.Q.Q.T.F.V.y.{                                         ",
"                                              ) 8.p.j.c.l.n.z.d.d.z.n.n.n.f.s.7.[                                               ",
"                                                                                                                                ",
"                                                                                                                                ",
"                                                                                                                                "
};
