/* XPM */
static char *out[] = {
/* columns rows colors chars-per-pixel */
"64 64 156 2 ",
"   c #140C05",
".  c #1C1208",
"X  c #270607",
"o  c #2D0708",
"O  c #32070A",
"+  c #35080B",
"@  c #3B090C",
"#  c #2D2011",
"$  c #3E301B",
"%  c #1D313E",
"&  c #430A0E",
"*  c #490B0F",
"=  c #460B10",
"-  c #4D0B10",
";  c #540D12",
":  c #5B0E13",
">  c #5F1014",
",  c #620F15",
"<  c #641015",
"1  c #6A1117",
"2  c #701217",
"3  c #741319",
"4  c #7B161B",
"5  c #4A2E0F",
"6  c #462F12",
"7  c #4B2F10",
"8  c #4F3114",
"9  c #503317",
"0  c #533519",
"q  c #573D1C",
"w  c #5C3C1E",
"e  c #5C3D22",
"r  c #5F4126",
"t  c #614123",
"y  c #61452A",
"u  c #67492C",
"i  c #6C4A28",
"p  c #6F532F",
"a  c #6C4D30",
"s  c #724F30",
"d  c #6D5034",
"f  c #745131",
"g  c #795737",
"h  c #7D5C3D",
"j  c #203946",
"k  c #243D4C",
"l  c #274151",
"z  c #2A4555",
"x  c #2D4A5C",
"c  c #314D5E",
"v  c #2E4E60",
"b  c #324E61",
"n  c #335265",
"m  c #36556A",
"M  c #37596D",
"N  c #38596E",
"B  c #375B70",
"V  c #3A5D73",
"C  c #3D6177",
"Z  c #3E6379",
"A  c #4E4E4E",
"S  c #4F5253",
"D  c #5B5B59",
"F  c #7D5E42",
"G  c #775F4D",
"H  c #615F5C",
"J  c #7E6541",
"K  c #63615E",
"L  c #41667D",
"P  c #42687F",
"I  c #686968",
"U  c #6D7070",
"Y  c #80171C",
"T  c #885B24",
"R  c #825D3B",
"E  c #966C36",
"W  c #AE7B3F",
"Q  c #826245",
"!  c #8E6847",
"~  c #8E6D4D",
"^  c #966F4E",
"/  c #97704F",
"(  c #816853",
")  c #8F6D50",
"_  c #916F51",
"`  c #957454",
"'  c #9B7454",
"]  c #987659",
"[  c #9A7A5C",
"{  c #B47D44",
"}  c #A17B5B",
"|  c #9F7E60",
" . c #947D6C",
".. c #B48149",
"X. c #A28050",
"o. c #B38755",
"O. c #B38853",
"+. c #B58E5D",
"@. c #B7905F",
"#. c #988575",
"$. c #A58062",
"%. c #A88365",
"&. c #A88C65",
"*. c #A58669",
"=. c #AB8768",
"-. c #AD8A6C",
";. c #B79363",
":. c #B7966C",
">. c #B89768",
",. c #BA9D6E",
"<. c #AD8F73",
"1. c #AF9275",
"2. c #B19479",
"3. c #B4997D",
"4. c #B99E7A",
"5. c #BCA275",
"6. c #BCA679",
"7. c #BEA97D",
"8. c #C19A6C",
"9. c #C19D76",
"0. c #C0A07E",
"q. c #456C84",
"w. c #487087",
"e. c #4B738B",
"r. c #537B93",
"t. c #578098",
"y. c #5C839B",
"u. c #9D958D",
"i. c #9D9790",
"p. c #9F9992",
"a. c #B99D82",
"s. c #A49C95",
"d. c #A69F99",
"f. c #BEAC80",
"g. c #BBA188",
"h. c #A6A19B",
"j. c #A9A39C",
"k. c #ABA6A1",
"l. c #AEA9A4",
"z. c #AEACA9",
"x. c #B1ACA6",
"c. c #B1AEAA",
"v. c #B4B1AE",
"b. c #B6B4B2",
"n. c #B9B6B4",
"m. c #BBB9B6",
"M. c #BDBBBA",
"N. c #C0A585",
"B. c #C0A588",
"V. c #C0A98D",
"C. c #C0AD94",
"Z. c #C1B29C",
"A. c #C2B5A1",
"S. c #C0BFBD",
"D. c #C1C0BE",
"F. c #C3C2C1",
/* pixels */
"o.o.o.o.o.o.o.o.o.o.o.o.o.o.o.o.{ o.o.{ o.o.{ o.o.{ +.} o.o.o./ ^ ' } } } | | -.-.-.| | | } } ' ' / / / ^ ^ ^ ^ ^ ^ ^ ^ ^ ^ ^ ^ ",
"o.0.0.0.9.N.N.9.N.a.N.4.9.N.N.9.N.N.N.N.N.B.N.N.N.N.9.N.9.N.o./ ^ ' ' } } } | -.-.-.8.| | } } ' / / ^ ^ ^ ^ ^ ^ ^ ^ ^ ^ ^ ^ ^ ^ ",
"o.0.% j k k k k z z z z x k k z k z z k k k x k k k k k % 9.o.^ ^ / ' } } } =.=.1.-.| } -.} } ' ' ^ ^ ^ ^ ^ ^ ^ ^ / ^ ^ ^ ^ ^ ^ ",
"o.0.% k l x b m c c c b v x x x z x b c b b b m b c k k j 9.o.^ ^ R t a } | | =.| } R R } } } } ' R t 4 R _ ^ ^ ^ g w t R ^ ^ ^ ",
"o.4.k x c x B q.w.q.q.q.V V N N N V V V L P w.w.V c b x k 9.o.^ ^ t 0 r R | =.-.1.R i s Q } } ' / w 6 e a ^ ^ ^ ^ e 7 q s ^ ^ ^ ",
"{ 9.k n Z m v q.r.r.r.r.e.w.q.q.q.q.e.r.r.r.r.P b m Z n k 9.{ ^ ^ 8 e s Q } | =.| s s R Q } } ' ' 7 0 r a ^ ^ ^ ^ 7 9 r d / ^ ^ ",
"{ 8.k c Z w.C B w.r.r.r.e.w.q.q.q.w.r.r.y.r.q.V Z q.Z b k 8.{ ^ ^ 9 t Q ' -.| 8.<.s R ) ' } } ' ' 8 e g Q ^ ^ ^ ^ 8 e g Q ^ ^ ^ ",
"{ 8.l z B e.r.L Z q.e.r.e.q.q.V L q.r.r.e.w.C P r.e.N k k 9.{ ^ ^ 0 u ^ } | | | | s R ] | } } } / 9 e Q ) ^ ^ ^ ^ 9 e Q ~ ^ ^ ^ ",
"{ 9.z z v q.r.e.q.V Z L q.q.q.L P q.q.L V C L e.r.P x z z 8.../ ^ 0 i ) } | | -.-.R R / | } } ' ' 9 e Q ~ ^ ^ ^ ^ 9 y Q ~ / ^ ^ ",
"o.9.b b n N e.e.q.V m N C L V N V P L N m V q.r.w.V n n x 5.O./ ^ 0 u ) | | -.-.-.R R ' | } } ' ' 9 y Q ~ ^ ^ ^ ^ 9 e Q ~ / ^ ^ ",
"@.N.v N V N V q.L V b n m m b n b M M c b V L P V M V B x B.@./ / 0 u ) } } -.| | s R ] | } } ' ' 9 y Q ~ / ^ ^ ^ 9 e Q ~ ^ ^ ^ ",
">.B.z V q.L V m n b U  .I c n m c c U #.I c b M V L q.V x V.;./ ^ 0 u ) } } =.-.2.s R ] | } } ' ' 9 e Q ~ ^ ^ ^ ^ 9 y Q ~ ^ ^ ^ ",
">.V.z V w.e.L V n z  .| ( c N V M c  .] ( x n V L e.w.V x f.>./ ^ 0 u ) } | 2.-.| R R ]  .} } ' / 9 e Q ~ ^ ^ ^ / 9 e Q ~ ^ ^ ^ ",
",.V.x V q.e.w.L N b D Q A c m V m z D G A b B Z w.e.w.B x f.,./ / 0 u ) | | | | | s R ] | } } ' ' 9 r Q ~ ^ ^ ^ / 9 y Q ~ / ^ ^ ",
",.C.x M q.w.q.L Z b z c c c b m c x b c z b V q.w.w.q.B x C.,.^ / 0 i ) } | | | a.R R ] | } } ' ' 9 r Q ~ ^ ^ ^ ^ 9 y Q ~ ^ ^ ^ ",
"4.C.z N q.q.q.q.Z n m V L N b b b N L V m m V q.w.q.L B z C.5./ / 0 i ) [ | | 9.| R R ) | } } } ' 9 y Q ~ ^ ^ ^ ^ 9 e Q ~ ^ ^ ^ ",
"5.Z.z M Z q.w.P V N L w.e.q.C V V q.e.w.C N V P q.q.Z M z x.6./ / 0 u ) | %.%.=.-.f F ] } } } ' ' 9 e Q ~ ^ ^ ^ ^ 9 r Q ) ^ ^ ^ ",
"6.Z.z M Z q.w.P V m C w.w.q.V V V q.e.w.C m C P w.q.Z M z Z.6./ / 0 u ) | X.%.=.-.f h [ $.} } } ' 8 y Q ~ ^ ^ ^ ^ 9 r Q ) / ^ ^ ",
"7.Z.x N L w.q.P Z m m V L N b n n N L V n m C P w.q.Z M z Z.0./ ^ 0 u ) [ | %.=.-.p h [ | } } ' ' 9 e Q ~ ^ ^ ^ ^ 9 e Q ~ ^ ^ ^ ",
"0.Z.x N q.w.w.P V b z b b z b n c z b c z b V P w.e.q.N x Z.0.' / 0 u ) | | %.=.-.p h [ $.} } ' ' 9 y Q ~ ^ ^ ^ ^ 9 r Q ~ ^ ^ ^ ",
"f.A.x V w.e.w.q.B b I  .K c m V m z U #.K c N L w.e.e.C x A.7./ / 0 i ) [ $.%.=.-.f R [ | } } ' ' 9 r Q ) ^ ^ ^ / 9 r Q ~ ^ ^ ^ ",
"f.A.z Z w.w.L B n x  .| ( c V C N c  .] ( c n V Z e.w.C x A.f./ / 0 i ) [ %.%.=.-.f g [ } } } ' ' 9 r Q ) ^ ^ ^ ^ 9 r Q ~ / ^ ^ ",
"f.A.x Z q.Z V m b v D J S c n m c c H G S b b N N L P C x Z.7./ / 0 u ) [ $.%.=.-.f h [ } } } } / 9 e Q ) ^ ^ ^ ^ 9 y Q ~ ^ ^ ^ ",
"7.A.x V V M V q.q.V b c m m b n b m N c b N L P C M C C v A.7./ / 0 u ) [ $.%.=.-.f h [ [ } } ' ' 9 y Q ~ ^ ^ ^ ^ 9 e Q ~ ^ ^ ^ ",
"7.Z.x n m N w.r.q.C n N Z L V N V L L N m V q.e.e.N n b c Z.0./ / 0 u ) | | | -.-.f R [ [ } } ' ` 0 r Q ~ ^ ^ ^ ^ 9 r Q ~ ^ ^ ^ ",
"6.Z.x z v P r.e.P C C L q.q.q.L q.q.q.L C C q.e.r.q.b z z Z.6./ / 0 u ) [ | | -.-.f h [ $.} } ' ' 0 r Q ~ ^ ^ ^ ^ 9 y Q ~ / ^ ^ ",
"0.C.l l M e.r.P C P w.e.e.q.q.Z L q.e.r.e.q.Z q.e.e.N k l Z.5.^ / 0 u ) } =.=.=.-.f h [ | | } ' ' 9 r Q ~ / ^ ^ ^ 9 r Q ) ^ ^ ^ ",
"5.x.l x Z w.C B w.t.y.y.r.q.q.q.q.w.r.r.r.r.q.V Z q.q.b l C.4.^ / w a ] | | | =.-.f Q *.*.} } } ` q r ) ` ^ ^ ^ ^ 0 y ) ` ^ ^ ^ ",
",.V.l c C n n P t.y.t.r.e.w.q.P q.q.w.r.r.r.r.q.n m V n k C.,.^ ^ e R | 2.} -.-.-.g _ 2.1.} } ' / e d *.$./ ^ ^ ` e d $.$./ / ^ ",
",.C.l z v x B P q.L L Z C V B m N V V Z L q.q.w.N v v v k C.:.^ ^ F ] a.3.} -.| -./ *.g.3.} } } ' s ) 1.-.^ ^ ^ ^ f ) 1.*./ ^ ^ ",
">.V.% l l z v n c v x c x x x x z c c b b b v N b x k k % V.:.^ ^ ! } a.8.| | 8.-.%.1.a.-.} ] ' ' ! [ -.[ ^ ^ ^ ^ ! [ -.} ^ ^ ^ ",
"@.V.% l l l l l z z z z z l l z k z k x k c k k k k k j % V.>.^ ^ / } } } | | | -.-.=.%.%.} } ' ' / ^ ^ ^ ^ ^ ^ ^ ^ ^ / / ^ ^ ^ ",
"@.B.B.B.B.B.B.B.B.B.B.B.B.B.B.B.B.B.B.B.B.B.B.g.B.B.B.B.B.B.+.^ ^ ' ' } } | | -.-.-.=.=.| } } ' / ^ ^ ^ ^ ^ ^ ^ ^ ^ ^ ^ ^ ^ ^ ^ ",
"+.+.+.+.+.+.+.+.+.+.+.+.+.+.+.+.+.+.+.+.+.+.+.+.+.+.+.+.+.+.+.^ ^ / ' | } | | -.-.-.=.| %.} } ' ' ^ ^ ^ ^ ^ ^ ^ ^ ^ ^ ^ ^ ^ ^ ^ ",
"@ @ O O O @ & - & @ + O o O + + @ & * * * & @ @ @ @ & = ; & @ @ @ O O O O + - = * * * & * @ O O o X O O O @ @ @ @ & * & @ @ + @ ",
"* @ @ O & & ; < ; * & + O + + & & * ; , , - * * * * ; : , ; & & @ @ O O + & - ; : , , ; - * & O O o O O @ & & * ; : : ; = & & & ",
"= * * @ & ; : 3 1 ; - @ + + & & * ; 1 2 2 : ; ; ; ; , 3 3 , ; - & @ + + @ = ; : 1 3 3 , : * & @ O O + @ & * ; ; , 1 3 < : ; - * ",
"- * * @ & ; : 3 1 : - @ + + @ * * ; 2 3 3 , ; ; ; ; , 3 4 , : ; & @ + + @ = ; , 2 4 4 , : * & + O o O @ & * ; : , 3 3 1 , ; - - ",
"* * & @ & - : 3 1 : - + + O @ * * : 1 3 3 , ; ; ; : 1 3 4 1 : ; @ + O + @ = ; , 3 Y 4 1 : * @ + O o O + & * ; : 1 3 4 2 , : - - ",
"- * * @ & - , 4 2 : ; + O O @ & - ; 2 Y 4 1 : ; ; ; 1 3 4 1 : * & + O O @ = ; , 3 Y 4 , : * @ O O o O @ & = ; : 1 4 4 2 , ; - - ",
"- * & & & - , 3 2 > - + O O @ & - , 2 Y 3 1 : ; ; : 1 4 4 1 : ; & + O O @ * ; 1 3 Y 4 1 : & + O O o o @ & * ; : 1 4 4 3 < ; ; = ",
"* * & @ * - , 4 2 , = + O O + & * , 2 Y 4 1 : : : : 1 3 Y 1 ; - & + O + @ & ; 1 3 4 4 1 : * + + O o o @ & * ; , 1 4 4 3 , : ; - ",
"- * & & = - , 4 2 : = + O O + & ; , 2 Y 3 1 : : ; : 1 3 4 1 ; ; & + O O @ & ; , 3 4 4 1 ; & + O O o O @ & * ; : 1 4 4 3 , : - - ",
"- * & @ * ; , 3 1 : - + O O + * ; , 1 Y 3 < : ; ; : 1 4 4 1 ; - & + O + @ * ; 1 3 4 4 1 : & @ + O o O @ @ * ; : 1 3 4 3 , ; ; - ",
"* * & & = - , 3 1 : = @ O O + * ; : 1 4 3 < : ; ; : 1 3 4 1 ; - & + + + @ = ; 1 1 4 3 < ; = @ + O o O + @ * ; : 1 3 4 2 , : - - ",
"& & @ @ @ * ; , : = & O o O + @ * ; : 1 , ; * * * - : , 1 ; - & @ o o o + & * ; > 1 < ; = @ + O o X O O @ & * * ; , 1 : ; - & & ",
"@ + O O @ @ * - & @ + o o X O @ & & * ; * & @ @ @ & = - ; & @ + O o X o O O @ & * ; ; & & O O o X X o o O O @ & & - - * = & @ @ ",
"W o.:.4.:.o.W o.:.4.:.O.{ O.:.4.:.O.{ O.>.4.:.O.W o.:.6.:.O.W O.:.4.:.o.{ o.:.4.:.O.W O.:.4.:.O.W o.:.4.:.o.{ O.:.5.:.{ O.:.4.:.",
"W o.:.4.>.O.W O.>.5.>.O.{ O.:.4.>.O...O.>.4.>.O.W O.:.4.>.O.W O.:.5.:.O.W O.:.6.:.O.W O.:.4.:.O.W O.:.4.>.O.W O.>.5.>.W O.>.4.:.",
"T E } &.X.E T E X.&.X.E T E X.&.X.E T E X.&.X.E T E X.&.X.E T E X.&.X.E T E X.&.X.E T E X.&.X.E T E X.&.X.E T E } &.X.T E X.&.X.",
"5 q p J p q 5 q d J p q 6 q p J d q 6 q p J p q $ q p J p q 6 q d J p q 6 q p J p q 6 r p R p q 6 q p J p q 5 q p J p 6 q p J p ",
"  . # $ # .   . # $ # .   . # $ # .   . # $ # .   . # $ # .   . # $ # .   . # $ # .   . # 6 # .   . # $ # .   . # $ #   . # $ # ",
"x.x.x.l.j.j.h.s.s.s.h.j.h.h.s.u.u.i.p.h.k.h.h.p.u.p.j.h.j.j.h.s.i.u.u.u.i.p.s.h.j.l.j.l.j.d.s.p.u.p.s.j.j.j.x.l.j.h.i.u.i.h.j.l.",
"v.v.v.x.x.l.j.h.h.h.j.j.l.j.j.s.p.p.k.z.z.z.z.h.h.h.j.j.l.j.h.h.p.p.u.i.s.h.j.l.z.c.c.c.x.k.j.s.s.h.j.j.x.x.v.x.l.j.s.p.s.j.j.v.",
"m.n.n.n.v.v.x.l.j.x.x.v.v.l.l.k.h.k.z.v.b.v.z.z.j.l.x.v.v.v.l.k.k.h.d.h.j.l.x.c.v.n.n.b.v.c.l.k.j.j.l.v.v.v.n.b.v.x.k.h.j.x.v.n.",
"D.D.D.m.A.m.v.v.x.v.v.n.n.b.v.z.k.z.v.m.m.m.b.b.x.v.v.n.n.n.v.v.z.z.k.k.x.v.v.n.m.M.M.M.n.n.c.c.x.x.v.b.m.M.D.S.n.v.l.l.v.v.n.S.",
"F.F.F.S.S.A.S.v.v.n.n.S.n.n.b.c.z.z.b.M.M.S.b.b.b.b.b.M.M.M.b.b.z.z.z.z.v.b.b.M.M.D.D.S.M.m.b.b.z.b.b.m.M.S.F.D.M.b.v.c.v.n.M.D.",
"F.F.S.S.S.S.v.v.v.n.b.S.S.b.b.b.z.b.M.M.S.M.M.b.b.b.b.M.M.M.b.b.v.z.z.z.v.b.b.M.M.S.D.D.M.m.n.c.b.b.b.m.M.S.F.S.M.n.v.c.v.n.M.D.",
"F.F.F.S.S.m.S.v.v.n.n.n.m.m.v.b.z.b.b.M.S.M.M.b.z.b.b.M.M.b.b.b.v.z.z.v.z.b.b.M.S.S.D.M.M.m.n.b.z.b.b.m.M.S.F.S.M.n.v.c.b.n.M.F.",
"F.F.S.S.S.m.n.b.A.n.n.S.m.m.b.v.z.b.b.M.M.S.b.b.b.b.b.M.M.M.b.b.v.z.z.z.v.b.b.M.M.D.D.S.M.m.b.b.z.b.b.m.M.S.F.D.M.n.v.c.b.n.M.M.",
"F.F.F.F.S.n.n.b.v.b.m.m.M.m.b.v.z.b.b.M.S.M.M.b.b.b.b.M.M.b.b.b.b.z.z.z.v.b.b.M.M.S.S.S.M.m.b.v.v.b.b.n.M.S.D.S.M.m.v.c.c.n.M.D.",
"F.F.F.F.S.m.n.n.n.b.b.m.m.m.b.b.z.b.b.M.M.M.b.b.z.b.b.M.M.M.M.b.b.z.z.z.v.v.b.M.S.S.F.S.M.m.b.b.c.b.b.m.M.S.F.S.M.b.v.c.b.b.M.D.",
"F.F.F.F.S.m.A.v.b.b.n.M.m.m.b.v.z.z.b.M.S.S.M.b.b.b.M.M.M.M.b.b.z.z.z.z.z.b.b.M.M.D.D.D.M.m.b.v.v.v.b.m.M.S.F.D.M.n.v.z.b.n.M.D.",
"F.F.F.S.S.M.M.n.v.b.m.m.M.m.b.v.z.b.M.M.S.M.b.b.b.b.b.b.M.M.b.b.b.z.z.z.b.b.b.M.M.S.D.D.M.m.b.v.v.b.b.m.M.S.F.D.M.n.v.z.v.n.M.D."
};
