/* XPM */
static char *out[] = {
/* columns rows colors chars-per-pixel */
"64 128 140 2 ",
"   c #49311E",
".  c #4C3522",
"X  c #4E3824",
"o  c #503722",
"O  c #533A24",
"+  c #5A3D24",
"@  c #553C28",
"#  c #583F29",
"$  c #603F25",
"%  c #5C4027",
"&  c #56402C",
"*  c #5C422C",
"=  c #5A4532",
"-  c #5E4A38",
";  c #654326",
":  c #62462C",
">  c #69472A",
",  c #6D4A2C",
"<  c #744C2C",
"1  c #784E2E",
"2  c #79512F",
"3  c #614730",
"4  c #654A32",
"5  c #6A4D35",
"6  c #624D3B",
"7  c #704D31",
"8  c #6C5037",
"9  c #65513F",
"0  c #6E543B",
"q  c #735235",
"w  c #7C5433",
"e  c #7F5837",
"r  c #71553B",
"t  c #795739",
"y  c #76593E",
"u  c #7A5B3E",
"i  c #3E4644",
"p  c #404745",
"a  c #414947",
"s  c #454C4A",
"d  c #484F4E",
"f  c #49514F",
"g  c #4C5453",
"h  c #505957",
"j  c #555C5B",
"k  c #585F5E",
"l  c #665343",
"z  c #765B41",
"x  c #795E44",
"c  c #59615F",
"v  c #7B6046",
"b  c #7D6349",
"n  c #7E6650",
"m  c #5C6463",
"M  c #606765",
"N  c #616966",
"B  c #656C6A",
"V  c #686F6E",
"C  c #69706F",
"Z  c #6C7472",
"A  c #707776",
"S  c #717876",
"D  c #757C7A",
"F  c #787F7D",
"G  c #805837",
"H  c #825B38",
"J  c #86603E",
"K  c #88623F",
"L  c #805F40",
"P  c #816246",
"I  c #8A6543",
"U  c #8D6846",
"Y  c #86664A",
"T  c #87684B",
"R  c #8B6B4D",
"E  c #926D4B",
"W  c #93704E",
"Q  c #856B52",
"!  c #8D6E51",
"~  c #876F58",
"^  c #906F52",
"/  c #8E7154",
"(  c #8D735B",
")  c #947354",
"_  c #94765A",
"`  c #98775A",
"'  c #96785B",
"]  c #9A7A5C",
"[  c #8F7660",
"{  c #8F7861",
"}  c #947B63",
"|  c #9D7E61",
" . c #937D68",
".. c #A07F63",
"X. c #7A807F",
"o. c #9E8164",
"O. c #96826D",
"+. c #9C836B",
"@. c #9C8671",
"#. c #9D8974",
"$. c #9E8C7B",
"%. c #A18366",
"&. c #A4866A",
"*. c #A5896D",
"=. c #A38C74",
"-. c #A88F76",
";. c #A38E79",
":. c #A89077",
">. c #A6917D",
",. c #A99179",
"<. c #7D8382",
"1. c #818785",
"2. c #828887",
"3. c #858B8A",
"4. c #898E8D",
"5. c #8A908E",
"6. c #8D9391",
"7. c #919695",
"8. c #939896",
"9. c #969B9A",
"0. c #999E9D",
"q. c #A69483",
"w. c #A89581",
"e. c #AA9887",
"r. c #AC9C8C",
"t. c #AD9F91",
"y. c #9BA09F",
"u. c #AEA193",
"i. c #9EA2A1",
"p. c #A2A6A4",
"a. c #A4A8A7",
"s. c #A6AAA9",
"d. c #A9ADAB",
"f. c #ADB0AF",
"g. c #AEB1B0",
"h. c #B2B5B4",
"j. c #B6B8B7",
"k. c #B7BAB9",
"l. c #B8BABA",
"z. c #BFC0C0",
/* pixels */
"e.r.r.r.r.r.r.r.t.r.r.r.r.r.r.r.r.u.r.r.r.r.r.r.r.r.t.r.r.t.r.r.t.r.r.r.r.r.t.r.r.t.r.e.e.>.$.o.( ! T ! E T ! E R R ! ! R W R E ",
">.w.>.>.w.>.>.w.>.,.>.>.e.>.>.>.>.>.>.>.>.>.>.>.e.>.>.>.>.>.>.>.>.,.>.>.e.>.>.>.>.>.>.>.,.>.e.e.e.w.$.o.( ! R R R R R R R R R R ",
"+.&.&.&.&.&.&.+.&.%.&.%.o.o.*.o.o.o.*.%.%.&.o.&.o.*.o.&.o.&.&.&.%.%.%.%.o.o.o.o.o.o.o.o.o.] %.+.;.>.w.e.r.e.>.@.O./ ! E R R R ) ",
"` ) ) ) ) ) ) ) ) ` ) ) o.) o.W o.o.) ) ) ) ) ) ) ) ) W W W W W W E E U E U U K J K e e w J K U W ' o.&.=.:.w.e.e.e.w.#.` Y R R ",
"e 2 w e e w 2 2 w w w w w w w w < < w 2 < < < 2 2 w < 2 2 < < , < < < , , , > : ; $ % O O o % > < e H I T ) ] &.*.:.>.>.*.J P R ",
"+ o O O O   O o     O o o O     o       o   X X         X . X X X     & o   & & & + * * 4 , 5 : & % % ; , < e E o.o.+.*.] u 8 P ",
"8 8 b O.+.b 8 8 r r v n n n v 8 8 q q q x Q ~ ~ x q r y y y v v y y y y u u / ( O.O.R x b I P P u u 0 4 * % % : ' o.%.%.' u * v ",
"Y ' u.t.e.;.E u T O.u.r.e.e.>.o.u b T +.t.t.r.e.:.R u T / e.u.r.$.T P E _ r.u.u.e.e.>.o.u T ! ! #.e.;._ v z u 8 E o.%.%.] J O v ",
"R >.r.>.=.%.E 4 ! t.r.>.:.=.*.o.b q o.u.t.>.;.:.o.) 8 P >.u.r.>.=.o.q Y =.r.e.:.=.=.*.] 0 u T $.u.r.e.e.>.O.b T T %.%.%.] K & y ",
"/ >.>.*.%.' K   Q w.:.o.%.%.o.o.u & O.e.:.&.o.&.o.E * z w.>.=.o.%.) q z >.>.=.o.&.&.%.) q 8 _ t.r.=.=.=.:.:.o.b v o.%.&.o.U % r ",
"/ >.:.+.o.o.J . n >.=.o.%.%.%.) K & =.>.=.o.&.o.o.U * y >.:.&.o.o.) r 8 >.>.*.*.%.%.&.) t * >.e.=.&.&.&.*.=.&.) r / *.o.o.U % 8 ",
") >.;.&.o.' J . T >.=.&.%.%.%.W u & #.:.=.o.o.&.o.E 4 y w.:.o.&.o.) u 4 >.>.o.o.o.&.o.) t 8 r.>.o.] ] o.%.&.o.o.t y #.*.o.E % 8 ",
"/ :.=.&.o.] J   Q >.*.o.&.o.%.o.J & +.:.o.&.o.&.o.) 8 y >.=.o.+.o.o.v 4 >.=.&.o.&.o.o.] e b >.*.) u W o.o.o.o.W u 4 +.*.o.E : 8 ",
"/ >.=.&.%.` J X Q >.=.o.o.&.%.) u % #.=.*.o.&.o.o.) q y >.:.&.&.o.) U 5 >.:.o.&.o.&.o.] u y :.+.` ; * E W ) ) K u & +.>.o.E > 4 ",
"/ :.=.+.&.] J   ~ >.*.&.&.o.o.) u & #.:.o.*.%.%.o.) z y :.=.o.&.o.o./ 8 >.=.&.o.%.%.o.o.J * o.%.o.) & 5 u J G e % 6 w.>.o.I : 4 ",
"/ >.=.&.o.] J   / >.#.%.o.&.%.) e & =.=.*.%.%.o.o.) x r >.=.&.o.o.o.W y >.=.%.%.&.%.%.) J O u o.&.*.o.y 4 4 * % v w.w.o.I 2 O : ",
"_ >.=.o.&.` J . ( ,.&.&.&.&...W u & +.=.o.&.o.&.o.) u 8 :.=.o.&.%.| ^ z ;.=.%.&.o.&.o.` J O 8 W | *.=.=.~ z Y ;.e.-.` L 1 + . q ",
") >.=.&.&.` J X ( ,.&.%...&...` u % #.:.&.%.&.o.%.) x 8 >.=.&.o...| ) y =.*.&.&.&.o.o.` J O 0 v ` ] ..=.;.q.e.-.` G 1 $   . 3 L ",
"_ >.=.o.o.` P X [ ;.&.%.&.%...W t X +.:.o.o.&.%.%.) u 8 =.=.o.&...| ^ t =.*.+.&.%.%.%.) e X y P u U U E ^ E L G > o . . # 8 L E ",
"/ =.&.o.o.W H X ( *.o.......` U q & o.&.o.o.o.' ) U w 8 =.o.o.o.| ` U 4 %.&.] ] o.o.o.U < o u T P q < < < $ +     + $ z L Y E E ",
"e.>.>.>.:.=.=.#.;.>.;.>.,.-.*.*.#.$.>.>.>.>.:.=.=.=.$.>.>.>.:.;.-.-.;.=.q.,.,.-.=.;.>.=.#.$.e.e.e.e.;.;.-.;.;.;.q.q.q.e.r.e.e.e.",
"t.t.t.t.u.u.u.r.u.r.u.r.u.u.u.t.t.t.u.u.t.u.u.u.t.t.u.u.u.u.u.r.u.r.t.t.t.t.t.u.t.t.u.u.t.u.u.u.t.t.t.t.u.u.t.t.t.t.t.t.u.u.u.t.",
",.,.,.,.,.,.e.,.,.,.>.,.,.e.,.,.,.,.,.,.,.,.,.,.,.,.,.>.>.,.,.,.,.w.w.,.,.,.w.,.,.,.,.,.,.,.,.,.,.,.,.w.,.,.w.,.,.,.,.w.,.,.,.,.",
",.,.,.,.,.,.,.,.,.,.,.,.,.,.,.,.:.:.,.,.,.:.,.,.,.,.,.,.,.,.,.,.,.,.,.,.,.,.,.,.:.:.,.,.:.:.,.,.,.,.,.,.,.,.,.,.,.,.,.,.,.,.,.-.",
",.,.:.,.:.:.,.,.,.,.,.,.,.,.,.,.-.-.-.-.,.,.,.,.,.:.:.:.:.:.:.,.,.,.,.,.,.,.,.,.,.,.,.,.,.,.,.,.,.,.-.-.-.-.-.-.,.,.,.,.,.,.,.,.",
"*.:.*.*.*.=.*.*.*...*.*.*.*.*.*.-.*.*.*.*.*.*.*.=.*.*.*.*.=.*.*.*.*.*.*.*.*.*.*.*.*.*.*.*.*.*.*.*.-.=.*.-.*.*.-.*...*.*.*.*.*.&.",
"W E E E E E W E U E E E E E E E E E E E E E U E E E E E E E W E E E E E W E E E E E E E E E E E E E E E E E E E U E U U E U E E ",
"> > > > > > > > ; < 1 1 G $ $ $ > > > > > , > < , > > > > > , , $ 1 $ 1 $ 1 < $ > > > > > > > < > > > > > > > > ; < < G G ; $ < ",
"*.*.*.*.*.*.*.*.*.*.*.*.*.*.*.*.*.*.*.*.*.*.*.*.&.*.*.*.&.*.*.*.*.*.*.-.*.*.*.*.*.*.*.*.*.*.*.*.*.*.*.*.&.*.*.*.*.*.*.*.*.*.*.*.",
"*.&.&.*.*.&.&.&.&.*.&.&.*.*.*.*.*.*.&.*.&.&.*.*.*.*.&.&.*.&.*.&.*.*.*...*.*...*.*...*.*.*.*...*.*.&.&.&.&.&.*.*.&.&.*.*.&.*.*.&.",
"&.&.&.*.&.&.&.&.*.&.&.*...*.&.&.&.....*.&.&.&.&.&.&.&.%.o.&.&.&.-...*.*.*.E L ^ ) ` ......&.*...&.*.*.&.&.&.*.&.&.&.&.&.&.&.&.&.",
"&.&.&.&.&.&.&.&.&.*...*...&.&.&.........` ) ) ^ E U I P H %.&.&...*.......L z 0 z r z t L L L U E E W ` ` ......&.&.&.&.&.&.&.&.",
"&.&...&.` R Y Y x x z z r 0 0 z 0 y 0 0 y l 0 y 0 l r v *.%.%.%.%.&.&.&.&.u u u r r z 0 r r r r 0 y 0 0 0 z y 0 y y z o.%.%.%.&.",
"..&.&...^ y r r r r 0 0 0 z 0 0 y 0 0 y r r y r 0 y b *.*.%.%.%.%.%.%.%.%.P v u y r r 0 l y z r 0 0 0 z 0 0 r l 0 0 +.o.%.%.&.%.",
"..&.....` x x y r r 0 0 0 0 0 z r r r r r 0 r r y b *.*.%.%.o.o.o.o.%.%.%.u u v v r r r 0 z 0 0 0 y r r 0 y 0 z 0 *.*.o.o.o.o.o.",
"........] u y z z 0 0 z 0 0 0 0 0 0 0 0 y l 0 0 R *.*.*.o.o.W o.o.o.o.o.o.b u u y u r r 0 0 0 0 0 0 y r 0 0 0 0 %.%.%.o.o.o.o.o.",
"..........G z y z u r 0 z 0 0 0 r r r 0 0 8 0 / *.%.*.*.*.o.o.o.o.....] o.K u y z z u 0 0 9 r 0 r r r r r r r %.*.%.%.o.o.o.o.) ",
"....] ..] G u u u z z y z z z 0 r r 0 0 8 8 o.&.*.*.%.*.%.o.o.o...] ..] ] K y y z z z u v z v b b n b b b b b &.*.*.o.o.o.o.o.o.",
"] ] ] ] ] H H z u y u y b n v v b n b b b n &.&.%.*.%.*.o.o.o.o.] ] ] ] ] P u u u u u b b n b b T b b n b n n *.%.*.%.o.o.) o.) ",
"] ] ] ] ] K z u y y z z b b b b n b b b b b =.%.*.%.*.%.o.o.o.E ` ] ] ] ] I y y y y u v b b b b b b b b b b / &.*.%.*.o.W o.) o.",
"` ` ` ` ` Y y y y y y y v b b P b b b b b n %.*.o.&.&.&.o.' ] ' ' ] ] ' o.v y y y y z u b b b b b b b b b b / &.&.o.o.o.) ' ) o.",
"` _ _ _ _ R y r y y y y b b b b b b b b b n *.%.*.*.o.&.' ` ) ' ` ) ' _ ) v y y y y y u b b b b n b b b b b / o.&.&.&.o.) ' ) ' ",
") _ ) _ ) R y y y y y y x b b b v b v b b b %.*.o.*.o.*.) ` ) _ ) ) ) ) ) J r y y y r z v b b b v b n v v v o.o.&.o.*.o.) ` / ) ",
") ) ) ) ) ) r y y r r y x v b v b v b v v b %.%.&.o.&.o.) ) / ) ) ) ) ) ) b y y r y y z b b v b b v v v b b o.O.o.&.o.o./ ) ) / ",
"/ ) / ) ) W r y r y r y z v v v v v v n v b o.&.o.o.*.o./ ) E / / ) / ) ) b y r r y r z b b v v v v n v v v o.%.&.o.*.o.) ) / ) ",
"/ ^ ) R / / r r y r r r z v v v b v v v v v &.&.*.o.*.o./ ) / / / W ! ! E b q y r r y z v v v v v v v v v v o.%.o.&.o.o.R / R ) ",
"! ! R R ) ! u r q r r y z v v v v v v v v v &.o.*.o.o.&.R / / / ) R ! ! W b r r r y 0 z v v v v v v b v v v &.%.&.o.o.&.T / R / ",
"R ^ R ! R R u y r r r r 0 v v v v v v v v b o.&.o.&.o.o.R R T / R W R R E b r r r q 0 v v v v v v v v v b v %.%.o.&.&.o.T / R W ",
"R R R R R R v r r r r r r v v v v v v v v n O.+.o.%.%.&.R R R R R R ! R R v r r r r q z v v v v v v v v v v O.O.%.%.%.%.T R R R ",
"R R R R R T P r r r q r 0 v v z z v v v v l %.%.%.%.%.o.T R R R R R R R T Y r r r r r y v v v v v v v v z v +.o.%.%.%.%.b T R R ",
"R T R R Y R Y r r r r r r x v v v v v v v v %.%.%.o.%.%.T T T T T T R T R v r r r r 0 y v v z v v v l v v v o.&.%.%.%.%.K R T T ",
"R Y Y Y Y R Y 8 r 8 q 8 0 x v v z v v z v x %.%.%.%.o.o.T T T T T T T T R P r 8 r 0 0 y z v v z z v n v v x %.%.%.%.%.o.b T T T ",
"T T T T Y Y Y r r 8 r r 0 v v z v z v v z z +.+.o.&.o.%.T T T T T T T T Y P q 0 r 8 r y v z v z v z v v v v O.%.%.%.%.%.b T T T ",
"T T T T R Y T r r q q r 8 z v v z v v v v v %.%.o.&.o.%.T T T T T T T T Y P 8 r r 0 r u v v v v z v v v v z %.o.o.%.o.%.v T T T ",
"T T T T T T T y r r r 8 0 v v Y ( O.:.:.:.:.:.%.o.o.o.o.T T T T T T T T T P r r r q r +.@.+.o._ n n v v v x %.%.o.%.o.o.J R T T ",
"T T T T T T Y u 8 r r 0 y :.,.,.:.:.,.:.:.:.:.:.*.+.o.o.T T T T T T T T T P 0 q 8 0 &.,.,.:.:.,.,.>.:.:.;.:.*.o.%.%.%.o.x T T T ",
"T T T T T T T v q r r v :.,.:.,.:.:.:.:.:.:.:.,.:.*.o.o.T T T T T T T T T b 8 r 8 *.:.:.,.,.,.,.,.,.,.,.:.:.:.=.+.%.%.%.u T T T ",
"T T T T T T T P r 8 P :.,.:.,.,.:.:.>.:.:.:.,.:.:.,.*.o.T T T T T T T T T T r r *.:.:.:.:.:.,.:.,.,.:.,.:.:.:.:.,.=.%.%.x T T T ",
"T T T T T T Y P r T :.:.:.:.:.>.:.=.:.:.:.:.:.:.:.:.,.*.T T T T T T T T T T 0 *.:.,.:.,.:.:.:.:.:.;.:.,.:.:.:.:.:.=.:.*.z T T T ",
"T T T T T T T R ' ,.,.:.:.:.=.*.+.o.o.o.( / / T T T T T T T T T T T T T Y T *.:.,.:.:.=.=.#.*.&.o.o.o.o.( o._ / / / ) R T T T T ",
"T T T T T T T T u v P P P P T Y T T T T T T T T T T T T T T T T T T T T T T P P P Y P T T Y Y T T T T T T T T T T T T T T T T T ",
"T T T T T T T T T T T T T E T T T T T T T T T T T T T T T T T T T T T T T T T T Y R T T T T T T T T T T T T T T T T T T T T T T ",
"T T T T T T T T T T T T T T T T T T T T T T T T T T T T T T T T T T T T T T T T Y T T T T T T T T T T T T T T T T T T T T T T T ",
"T T T T T T T T T T T T T T T T T T T T T T T T T T T T T T T T T T T T T T T T T T T T T T T T T T T T T T T T T T T T T T T T ",
"T T T T T T T T T T T T T T T T T T T T T T Y Y T T T T T T T T T T T T T T T T T T T T T T T T T T T Y Y R R Y T T T T T T T T ",
"T T T T T T T T T T T T Y Y R T T T T T T T T Y T T T T T T T T T T T T T T T T T T T T T T T T T T T Y Y Y Y Y T T T T T T T T ",
"T T Y T T T Y T T T Y T T T T T T T Y Y T T Y Y T T Y T T T T T T T Y T T T Y Y T T Y T T T Y T T T Y Y Y R Y Y T T Y T T T Y T ",
"t.e.r.t.e.r.t.e.e.r.r.r.r.r.e.t.r.r.r.r.r.r.r.t.r.r.r.e.r.r.r.r.t.e.t.e.t.e.r.r.t.e.r.t.e.r.r.r.r.r.r.r.r.r.r.r.r.r.r.r.r.r.r.r.",
"G H H H G H H H H G H H G G G H H H H H H H H H H H H H H H H H G H H H H H H H G H H H H H H G H H H H H H H H H H H H H H H H ",
"@ # 6 l = O O @ @ @ @ @ @ @ @ @ @ @ @ @ @ # l - . O @ @ @ @ @ @ = l 6 o o @ O + @ # O @ @ + @ @ @ @ @ @ @ @ - l o . @ @ @ @ @ @ ",
"R O.[ ~ } [ z L Y ( Y Y  .! L L T Y Y T { @._ ! L r L ( ( P P _  .~ T _ z x Y [ #.! z x  .} x Y $.! v Y ! $.' ! ) x y Y ~ @.! x ",
"] ` w @ ^ &. .L *.;.^ _ q...L ) q.;._ =.;.U : > w 5 T w.%.R R ] I : + P =.[ q.q.` w 5 ( -.` Y T ;.w.e.>.,.` 5 @ e H u ^ =.=.E y ",
"` T 7 5 r E ] =.*.E 5 L ! w 3 L ` =.=...H + # 0 5 8 R E e * z T q 3 0 z ^ ` ) H <   5 T U 1 @ z P _ ` ) J > O 5 r 5 5 R E H < * ",
"] ) P Y ^ L w w 1 , @ L R 0 8 ! ^ x G < @ : x ^ ! ! _ ! y 8 Y ^ R R ^ _ Y w , + O 4 Y _ ! r 8 Y ) u 2 < + o 8 R ) R T ^ _ P : 5 ",
"r.r.r.r.r.r.r.r.r.r.e.r.r.r.e.t.e.e.r.r.r.e.r.r.r.r.r.r.r.r.e.r.e.r.r.e.r.r.r.r.r.r.r.r.e.r.r.e.r.r.e.r.r.r.r.r.r.e.r.r.r.r.r.r.",
"H H H H G H H G H L G G G G G H H H H H H H H H H H e H H H H H H H H H G H H H G H H G H H H H H H H H e H H H H H H H H H H H ",
"O + @ @ @ @ @ @ @ @ @ @ @ @ @ @ @ @ @ + @ @ @ @ @ @ @ # @ @ @ @ @ @ @ @ @ @ @ @ @ @ @ + @ @ @ @ @ @ @ @ @ @ @ @ @ @ @ @ @ @ @ @ ",
"T T Y Y T T T Y Y Y Y R R Y Y Y Y Y Y Y T T Y Y Y Y Y Y Y T Y Q Y U Y Y T T T Y T Y Y Y Y T T T T T Y R Y Y R Y Y R Y T Y Y Y R ",
"l.j.j.j.j.j.j.j.j.j.j.j.j.j.j.j.l.j.j.j.j.j.j.j.j.j.j.j.k.j.k.k.j.j.j.j.j.j.j.j.j.j.j.j.j.j.j.j.j.j.j.j.j.l.j.j.j.j.j.j.j.j.j.j.",
"z.z.z.z.z.z.z.z.z.z.z.z.z.z.z.z.z.z.z.z.z.z.z.z.z.z.z.z.z.z.z.z.z.z.z.z.z.z.z.z.z.z.z.z.z.z.z.z.z.z.z.z.z.z.z.l.z.z.z.z.z.z.z.z.",
"l.l.l.l.l.l.l.l.l.l.k.k.l.l.l.l.l.l.l.l.l.l.l.l.l.l.l.l.k.k.k.k.l.l.l.l.l.l.l.l.l.l.l.l.l.l.l.l.l.l.l.l.l.l.l.l.l.l.l.l.l.l.l.l.",
"l.l.l.l.l.l.l.l.l.l.k.k.l.l.l.l.l.l.l.l.l.l.l.l.l.l.l.l.k.k.k.k.l.l.l.l.l.l.l.l.l.l.l.l.l.l.l.l.l.l.l.l.l.l.l.l.l.l.l.l.l.l.l.l.",
"j.l.l.l.l.l.l.j.l.l.l.k.k.k.l.k.l.l.l.l.l.l.l.l.l.l.l.l.k.k.k.k.j.l.l.l.l.l.k.l.k.l.l.l.l.k.l.k.k.k.k.k.l.l.k.k.k.k.l.l.k.k.k.k.",
"l.l.l.l.j.l.l.l.l.l.j.k.k.k.l.k.j.l.l.l.l.j.l.j.l.l.l.j.k.k.k.k.l.l.j.l.k.k.k.k.k.k.k.k.k.k.k.k.k.k.k.k.l.l.k.k.k.l.l.l.k.k.k.k.",
"g.g.h.h.h.h.h.h.j.h.j.j.l.j.j.j.j.j.j.j.j.j.j.l.l.l.k.k.k.k.k.k.l.l.k.k.k.k.k.k.k.j.k.j.k.j.h.j.h.j.h.j.j.h.h.h.h.h.h.h.h.h.g.h.",
"a.s.d.f.f.d.f.f.f.f.f.g.f.g.f.f.g.g.g.h.h.h.g.h.h.g.g.h.h.h.h.h.h.h.h.g.h.g.g.h.g.g.g.g.g.g.g.g.f.f.f.f.f.f.f.f.f.f.f.f.d.d.f.d.",
"B B 6.8.7.8.7.6.9.9.9.7.<.<.0.i.y.y.y.a.p.i.i.y.i.d.d.d.d.i.g.d.d.d.d.s.p.i.i.i.i.p.i.0.y.i.0.8.3.1.3.5.0.0.8.5.6.7.7.7.7.1.X.f ",
"X.X.p.p.y.y.i.i.i.0.9.7.Z m 4.0.8.9.9.8.6.4.B j V 7.6.5.5.5.6.5.4.4.5.4.2.C j m B 4.8.8.8.6.6.N c C A X.y.y.y.y.y.y.y.y.y.y.6.c ",
"1.1.d.f.d.s.d.s.s.s.a.i.D Z 9.d.s.s.a.a.p.t.X.B F s.p.p.p.p.i.p.p.p.i.i.y.2.M D <.i.s.a.a.p.i.S C X.<.6.f.s.s.s.d.s.d.s.s.a.y.B ",
"1.1.s.f.d.d.d.d.d.d.d.a.F Z 0.f.d.d.d.d.s.a.1.Z <.h.d.d.d.d.d.d.d.d.d.d.a.5.V <.2.a.f.d.d.d.p.<.S <.1.9.f.f.d.d.d.d.d.d.d.i.y.m ",
"1.1.s.d.d.d.d.d.d.d.d.i.D Z 0.f.f.d.d.d.s.p.1.C <.f.g.d.d.d.d.d.d.d.d.d.a.6.V <.2.a.f.d.d.s.p.<.Z <.1.8.f.f.d.d.d.d.f.d.d.a.8.B ",
"1.1.d.f.d.d.d.s.d.d.s.i.D A 9.f.d.d.d.d.s.a.1.C <.f.d.d.d.s.d.d.d.d.d.d.a.7.B F <.s.f.d.d.s.p.<.C <.1.8.f.d.d.d.d.d.d.d.d.i.8.B ",
"1.2.s.f.d.s.d.d.d.d.s.p.S Z 9.f.d.d.d.d.s.p.1.V F f.d.d.d.d.d.d.d.d.d.s.a.7.N F 1.a.f.d.d.s.p.F C X.<.9.f.d.d.d.d.s.d.d.d.i.8.B ",
"<.1.a.f.d.d.d.d.d.d.a.p.A Z 9.f.d.d.d.s.s.p.<.V F d.f.d.s.d.d.s.d.s.d.d.a.8.N F 1.a.d.d.d.s.p.F C X.1.y.f.d.s.d.d.d.d.d.s.s.7.m ",
"<.<.p.f.d.d.d.d.d.s.a.i.Z Z 8.f.d.s.d.s.s.p.<.B <.d.d.d.d.d.d.d.d.d.s.s.a.0.M D <.p.f.d.d.a.p.F C X.<.8.f.d.s.d.d.d.a.d.s.i.6.m ",
"<.<.a.d.d.s.s.d.s.d.a.i.V Z 8.d.d.d.s.d.a.p.<.B F d.d.d.s.d.s.s.s.d.s.d.p.0.m S <.a.d.d.s.a.p.F B X.<.y.f.d.d.d.a.d.a.d.s.i.5.N ",
"<.<.a.d.d.d.s.s.a.d.a.p.V C 7.f.d.d.d.a.s.p.X.B D d.d.d.s.d.s.s.d.s.d.d.p.y.m X.X.i.d.d.s.s.i.X.B X.<.9.d.d.d.s.d.a.d.d.a.i.5.N ",
"<.X.a.d.d.d.d.s.d.d.a.i.V C 6.d.d.a.s.d.s.p.X.B D s.d.d.s.s.d.s.s.d.s.s.p.i.j C X.i.d.d.d.a.i.X.N X.<.y.d.d.a.d.s.d.d.a.d.i.<.N ",
"X.X.p.d.s.d.s.s.s.s.a.i.B C 6.f.d.s.a.d.s.y.F B D s.d.s.s.s.s.s.s.s.s.s.p.i.m X.<.p.d.d.s.a.y.X.N X.X.y.d.d.d.a.d.a.d.a.a.i.<.m ",
"X.X.y.d.s.a.d.s.s.a.p.i.m C 4.d.d.a.d.a.s.y.F B S d.d.d.s.s.d.s.s.s.s.s.p.i.m C X.a.d.d.a.p.i.X.N X.X.9.d.d.s.s.s.s.a.d.a.i.<.B ",
"F F i.d.d.d.a.s.s.d.p.y.M V 4.f.d.a.s.s.a.p.F m S a.d.s.s.s.s.s.s.s.s.s.p.i.m C X.i.d.s.s.a.i.X.m X.X.i.d.s.a.d.a.s.s.a.i.i.<.m ",
"D F i.d.a.a.d.a.s.s.p.y.m B 4.d.d.a.s.s.a.i.F m S p.d.s.s.s.s.a.s.s.a.s.a.y.N C X.p.d.s.a.a.9.X.m S X.i.d.d.s.a.d.a.a.d.a.i.X.m ",
"F D y.d.a.d.a.a.s.a.p.y.c B 4.d.d.a.a.s.p.i.D m A a.d.s.d.a.s.a.s.s.s.s.p.i.N B X.i.f.s.s.a.i.X.m Z X.i.d.s.a.s.s.s.s.s.i.i.S m ",
"D D i.d.s.a.s.a.a.a.p.y.c B <.d.d.a.a.a.a.i.D m A p.d.a.a.s.a.s.a.s.a.s.p.y.C N Z i.d.a.a.a.i.X.m Z X.i.d.s.s.a.a.s.a.d.i.i.S m ",
"D D y.d.d.a.a.a.a.a.a.y.k B 1.d.s.a.a.a.a.i.S m A i.d.s.a.s.a.s.a.a.s.a.a.y.C N X.a.s.a.a.p.0.C m Z X.i.d.a.a.a.s.a.s.a.i.i.Z m ",
"S D 0.s.a.a.a.a.s.a.p.0.k M <.d.s.a.a.a.a.0.S m Z i.s.a.a.a.a.a.a.a.a.a.p.y.C m X.a.s.s.a.p.0.X.c Z X.a.d.a.a.a.a.a.a.a.i.y.C m ",
"S S 0.s.a.a.a.a.a.a.p.0.h B X.d.s.a.a.a.a.0.S k Z i.d.s.s.p.a.a.a.a.a.a.p.i.X.c B y.s.a.a.p.0.X.c C S i.d.a.a.a.a.a.a.a.i.i.N m ",
"S S 9.d.a.a.p.a.a.a.i.9.g B X.d.s.a.a.a.a.0.A k Z i.d.a.p.a.a.a.a.p.a.a.p.y.X.h X.y.s.a.a.p.8.X.c C X.s.d.a.a.a.a.a.a.a.i.y.N m ",
"S A 9.d.a.a.a.p.p.a.i.0.g M F d.s.a.a.a.i.0.A j Z 0.a.a.a.s.p.a.a.p.a.a.i.y.X.j B i.s.a.a.p.y.X.j C S a.s.a.a.a.i.s.a.a.i.y.m m ",
"A A 9.s.a.a.p.p.p.a.i.9.g M D d.a.a.a.i.a.0.A k C 0.s.p.p.p.a.p.a.p.p.a.p.y.X.h B i.s.p.p.p.0.X.h C S d.d.i.a.a.a.a.s.i.i.0.j m ",
"A Z 9.s.a.p.a.p.p.a.y.9.d M D s.a.a.a.p.i.0.Z j V 0.s.a.p.a.p.p.p.p.p.p.i.y.<.h C i.s.a.p.p.8.Z h C Z s.s.a.a.i.i.a.a.a.i.9.j m ",
"Z Z 7.s.p.p.p.p.p.p.y.9.d m A d.a.i.p.a.i.9.Z j V 9.a.a.p.p.p.p.p.p.p.p.p.y.<.h B i.s.p.p.y.0.X.h C S a.a.i.i.a.a.i.i.a.i.9.h m ",
"Z Z 6.a.a.a.i.a.i.a.y.8.s m A a.a.a.p.p.i.y.Z h B 9.s.p.p.p.p.p.p.i.a.p.i.i.<.j B i.a.p.p.i.y.Z h B S s.a.a.i.a.a.i.a.i.i.9.g c ",
"C Z 7.d.i.i.a.i.a.i.y.8.s m Z d.a.i.i.i.y.8.V h B 9.a.a.i.p.i.p.p.i.i.p.i.y.<.g B i.a.p.p.i.9.X.h B S s.a.i.a.i.i.a.i.a.i.8.g c ",
"V C 8.a.a.i.i.a.i.i.y.8.a m V s.s.i.a.i.y.0.B h N 8.a.p.i.a.p.i.i.a.a.i.i.y.<.h N i.p.p.p.y.7.X.g B S a.a.i.i.a.i.a.i.i.0.8.f m ",
"V V 6.a.a.i.i.a.a.i.y.6.a m V a.a.a.i.i.y.0.m h B 7.a.i.i.i.p.i.a.i.i.a.p.y.6.i m i.p.p.i.y.8.B g m X.s.s.i.i.i.i.i.i.i.0.7.i m ",
"V V 6.i.a.i.i.i.i.i.y.6.a m V d.i.i.i.a.y.9.B h N 6.a.p.i.i.i.i.i.i.i.i.i.9.6.f m i.a.i.i.i.8.X.g m X.a.a.i.i.a.i.i.a.i.9.8.i m ",
"B V 4.a.i.i.i.i.i.i.0.6.a k B i.s.i.i.i.y.9.m g N 6.a.i.i.a.p.i.i.i.i.i.i.i.7.i m i.a.i.i.i.8.Z g m X.s.i.i.i.i.i.i.i.i.0.7.i m ",
"B V 4.a.i.i.i.i.i.i.0.6.a m B i.i.i.i.i.y.8.m h m 6.a.p.i.i.i.i.i.i.i.i.i.i.9.i c i.i.i.i.y.9.X.f m X.i.a.i.i.i.i.i.i.i.0.5.i k ",
"B B 5.i.i.i.i.i.i.i.9.4.i k B a.a.i.i.i.0.8.m g m 6.a.i.i.i.i.i.i.i.i.i.i.9.9.i c i.a.i.i.i.8.Z f m X.s.a.i.i.i.i.i.i.i.9.5.i k ",
"m B 4.i.i.i.i.i.i.y.9.3.i k B i.i.i.i.i.0.8.m g m 5.p.i.i.i.i.i.i.i.y.i.y.9.7.i c i.i.i.y.y.9.Z f m <.a.i.i.i.i.i.i.i.i.8.3.i j ",
"m B 4.a.i.i.i.i.y.i.9.3.i k m i.i.i.i.y.0.8.m d m 4.a.i.y.y.y.i.i.y.i.y.i.9.7.f c i.i.i.i.y.8.Z s c <.a.i.i.i.i.0.i.i.0.9.3.i m ",
"B B 3.i.i.y.y.y.y.y.9.4.i j m 0.a.i.i.y.0.7.m d m 3.p.i.i.y.y.i.y.i.y.i.i.9.7.g h y.i.i.y.y.8.C s c <.i.i.i.y.i.i.i.i.0.8.<.i j ",
"m B <.a.i.i.y.i.i.y.9.<.i j B 0.i.i.y.y.0.7.m g m 3.i.i.y.y.i.y.i.y.i.i.i.9.6.h g i.i.y.y.y.8.C s c <.a.i.y.i.y.0.i.i.i.8.<.i m ",
"m B <.a.i.y.y.y.y.y.8.<.i k m 9.i.y.y.y.0.7.k d m 3.p.p.y.y.y.y.y.y.y.y.y.y.7.h g y.i.i.y.y.7.Z s c <.a.i.y.y.y.y.i.0.0.8.<.a j ",
"B m 1.i.i.y.y.y.y.0.8.<.i h B 9.a.i.y.y.9.7.k d k 1.p.y.y.y.y.y.y.y.y.y.y.9.7.c f i.i.y.y.9.7.Z s c 3.i.i.y.y.i.y.y.y.0.8.F i j ",
"m m 1.a.y.y.y.y.y.0.8.<.i h m 9.i.y.y.y.9.7.k d k <.p.y.y.y.y.y.y.y.y.y.y.9.7.m f y.i.i.y.y.7.A i c 3.i.y.y.y.y.y.y.i.y.6.D i j ",
"m m <.i.i.y.y.y.y.0.8.X.i h m 8.i.y.y.y.9.7.k d k <.p.y.y.y.y.y.y.y.y.y.y.9.7.m s y.i.i.y.y.7.Z i j 3.i.y.y.y.y.y.y.0.0.6.S p j "
};
