/* XPM */
static char *out[] = {
/* columns rows colors chars-per-pixel */
"64 32 53 1 ",
"  c None",
". c #170B00",
"X c #1C0D00",
"o c #1E1103",
"O c #1F160C",
"+ c #210F00",
"@ c #231201",
"# c #2B1400",
"$ c #2F1900",
"% c #21160B",
"& c #26190B",
"* c #321700",
"= c #351A00",
"- c #3A1C00",
"; c #2C2927",
": c #2E2C2A",
"> c #312F2D",
", c #33312E",
"< c #363331",
"1 c #3A3633",
"2 c #3E3A36",
"3 c #3F3C39",
"4 c #403D37",
"5 c #423E3B",
"6 c #44413D",
"7 c #48443F",
"8 c #474440",
"9 c #4B4642",
"0 c #4D4945",
"q c #504C46",
"w c #534E49",
"e c #55514C",
"r c #59544F",
"t c #5B5652",
"y c #5E5853",
"u c #615B55",
"i c #645E58",
"p c #666059",
"a c #6B655D",
"s c #6D6661",
"d c #746D66",
"f c #766F68",
"g c #777069",
"h c #7B746C",
"j c #7D7770",
"k c #7F7972",
"l c #837B74",
"z c #878179",
"x c #8B847C",
"c c #8F8883",
"v c #948D86",
"b c #969088",
"n c #99938B",
/* pixels */
"                                                                ",
"                                                   @&           ",
"                                49qyiaau0         &+XX          ",
"                           29qtuiisddhlxvzy        XX+X%        ",
"   :::                  <27udgsrq9524559rfvl0      XXXXX%       ",
"    :,>>>:::      :::,<20ifha05          5tvd      XXX@X.       ",
"      >>>>:>,,,,,,<<29uhzhu7              5dv      %XXoXX.      ",
"        :>>,><<<1369tiyq5        ,        1tv       .X+++X%     ",
"              :>:>><<>           >>       5sz       XX+@+X.     ",
"                                  >11   15txd       .XX@++XX    ",
"                                   ,<3570pfi7       .XX@@@+X    ",
"                                    :<<1255         .X+@@@+X%   ",
"                                                   %.X@@#@+X@   ",
"                                                   XXXo@#$@+X   ",
"                                                   XXX@@##@@X   ",
"                                                   XX+@#**@@X   ",
"                            6773                   XX++$**#+X   ",
"    ,,<,,    ,<,<11380qttafhxvnvxlaq5              XX+@***#+o   ",
"      ,,,,<112223566900etwqwruphlxbvli02          &XX+**-=@@X   ",
"        ::>,>,,,,,,,>,:       ,1269ralhi02        %.X+#*--$@X   ",
"                                     29yr081      %..@@*--@@X   ",
"                                         7005     %..+$*=*#@@   ",
"  ;;;                                       5     o.X+@*-$@+o   ",
"   :;:::                          580w0           o.X+###@@+%   ",
"    :::>,,,>>,,>>,    ,1122570qtuafpu0            O..+@@++@X    ",
"      ,>,<1122355555770qetyahxbbblu                .X+@++@Xo    ",
"        :,115599000qqeyuagjlljae                   o.X+XXX.     ",
"             ,,1111111                              X+XXX.X     ",
"                                                    &%...X      ",
"                                                      %o%%      ",
"                                                                ",
"                                                                "
};
