/* XPM */
static char *out[] = {
/* columns rows colors chars-per-pixel */
"128 128 40 1 ",
"  c None",
". c #5E5954",
"X c #625C56",
"o c #635E5A",
"O c #66615C",
"+ c #6A645E",
"@ c #6C6761",
"# c #6E6963",
"$ c #726B66",
"% c #756E69",
"& c #786F6A",
"* c #76706A",
"= c #7A736D",
"- c #7C7671",
"; c #7E7973",
": c #817B75",
"> c #847E78",
", c #86807B",
"< c #8A837E",
"1 c #8C8681",
"2 c #8E8983",
"3 c #918B86",
"4 c #948E89",
"5 c #96918B",
"6 c #99938E",
"7 c #9B9691",
"8 c #9E9995",
"9 c #9F9B98",
"0 c #A19C97",
"q c #A29E9A",
"w c #A5A19D",
"e c #A8A39F",
"r c #A7A4A0",
"t c #A9A6A3",
"y c #ACA9A6",
"u c #AEACA9",
"i c #B1AEAC",
"p c #B2B0AE",
"a c #B5B3B2",
"s c #B8B7B5",
/* pixels */
"                                                                                                                                ",
"                                                                                                                                ",
"        O                                                                                                                       ",
"        #                                                                                                                       ",
"         $                                                      +                                                               ",
"         *                                                      +                                                            @@ ",
"         %*                                                     +X                                                          @@o ",
"          :                                                     ++                                                         $$X  ",
"          :-                                                    @+                                                        $$+   ",
"           >                                                    ++                                                       $%$    ",
"           ,;                                                   #@                      <                               %%%     ",
"           *1                                                   +#                     1                               ===      ",
"            2<;                                                 $#                    ,4                              =-=       ",
"           >33;2                                            #   $O                    43                             ::-        ",
"  %        2>31,44<                                        =    $                     7                             :>:         ",
"   :      >3  41, 574                                     ==    $                    27                            :<>          ",
"    >     33  3423  4886                                 :;     $                    66                            <<           ",
"    =<   >3    7 36    708                              >:      %                    0                            2<            ",
"     :2  42    47 58     40wq                          <,       %                   60                           33:            ",
"      <342      73  q7      8wq6                      11        %                   06                          44              ",
"       24;       8   8q       7wrw6                 :32         %$                  0                          673              ",
"        46       7q    0q        9rrq7             252          &&                 87                         00<               ",
"         572      qw    8w8         7rrrq6        55,           &====              q                        0074                ",
"          587     0ew     wtw           78q88753276             &==:>:            6q                     7ew007                 ",
"           68q5   rwrr      yyr                785              =%%=:>>,<         q6                   tytqq00                  ",
"            3qq87rr  yr       yuuq            qq3               ==  >>,<<<<       w                riiii0 000                   ",
"              wwrw    yt        yuyt        6wq                 =$    ,<<333     q7           yiappiit   qq0                    ",
"              7wrt    0it         wyyytq   tr0                  = ;-    <<3466   w8     eiipipppiw      eqe                     ",
"              7q ttq   qiy            rttttt7                   -  <-     <5660qrrtttiiiiiyr           qee                      ",
"              5w  wyy   wat            qyyq                     =   <2       66qtq0q80                0te                       ",
"               r  8qtuur ypu         riir   q6                  -    33        ew80qqq0              wtt                        ",
"               w   y  uautyaa      tiit     08                  =     44       e  0qqqqeteq         ett                         ",
"               w   yq  wpay aa   aaapt      8q                  -%     363    8w     qeteyyyyyyew  euy                          ",
"               q   qy     papaaaaaaii        w                  =:      168   w5        qetyyyuuuiyupu                          ",
"               q    i       asaa    ur       r                  ::<       8887w            etytiiuuyyii                         ",
"               q7   yt      tsa     iy       t                  -=1<       30wq                 ruuyyipy                        ",
"               q8   wy      assa    ui       r6                 == 3:        www0              tuuyyyqpp                        ",
"               qq    iw    asaaap   yp       qw                 :=  3:      73 qee0           uyyequyqeiu                       ",
"               8w    uw  iaayaiyai   i        r                 ==  :4>     8    ettq        yyue  yyy iiq                      ",
"               7q    ypppap yayp ay  iy       t                 =:   ;5    63      tyte     eyyq   ttt  iy                     =",
"               7q 8yuippi   ta a  ai  a       w8                ==    :6<  6         tyt   ttt     yyt0 eue                   ,,",
"             7wrtyyiyypu    yp p   ap yt      8w                ==      6262           tittte0     qetq  yu                 11, ",
"        258qqwrrtq    ur    uu yy   autu       w                =&       76              ute0       eeq   ey             >33<   ",
"   :<54432      w     rt    ut  p    tuiq      q9               ==       673            qww8        eq08  0er          244<     ",
",:-  2          w     qy   wie  ir   tyyy       q               ==      ,3 56          0qw6         0qqq   0we       565,       ",
"      6<        q      y   yy   yu  uu0 wyr     09              &=      3   585       0q0            qq6     7w   6776          ",
"      26        q      y   yw    u yt     qtq    07             &=$    >2    278     3006            0q84     7q0884            ",
"       66       q      t8 tyytw  yyy        qqq  88             &==-=  2:      77   3070w            6q07  60qq98               ",
"        63      q      rw ttyyuuuryw          898 86            %$=--:<3<       66 3663 eq            6000806                   ",
"        26      8      qwe9     rytq            6776<           %+ &-:222>:       066<   q0            0q6       2              ",
"         66     q       we         r            774553          *    :<2>>><<>   <46     606          4q76       4,             ",
"         ,6,    8       wq         r8          85 32 <2<;       %    ;<:::,<<<<3<33<      0q8       6w0 66       36             ",
"          66    7      7wq          w        283  5:    :=      %    ,>    =><<<22<        005     qq   653      <4,            ",
"          ,62  25      qqw0         00      482  53             $   ->*        <223         006 6qq5    245       33            ",
"           43  24     qqqwwwwwww7    q     372   5              $   ::        <<<2<<         0qqq3       54:       3            ",
"           >6  14    8045q     770q8 77    83   53              $  %:#      :>>< <<<       080q83        33<       <<           ",
"            4> <2   38   9          668   65    3               #  :;      %::>  <<<    577674 775        32        2:          ",
"            23 2<   73   8            45  7    3<               # #;#     &::=   :><<4652   76  573       <<<       -<          ",
"             4 2   24    7             6 42    4                @ =-     ==:      232       46   365       <<        :>         ",
"             4;2  ,3     6             546    11                + =#    &==     >><>>        53   ,65      >>>        ,*        ",
"             21< :2      3              44    2:                #$&    %%=@   >:  =>>        35    ,45      :::        :        ",
"             ;2<;<:      3   ,13321222   4>   3                 #%+   $%$  %-=     :::        42     332    &::=       *:       ",
"              2,<;  ,2345554555444333334333  ;1                 #%  X@$$ %=%       %::%       :3      122    ::=$       %;      ",
"              <1<22221, ,,                ,2 <>                 %# O@#%*%           :::        22       22    ===        $=     ",
"              ,1;       ::                 ,1<                  % +@*=+              -:=        2;       :<:  @=&=        +=    ",
"             >;         :;                  ;,                  $++$+                 ==$       ;<*        ;;=$$%%%         #+  ",
"            :-          >;                   %,*                +++o..XOoOOo+o+O++@++ @=%  #         @$$$##+%=*+$$$#oXoooOO+O@#+",
"           ;%           :;                     :-               #++++++++####$$$$$%%%*&=================&=&%%%=-%$$$$+$@++++++#+",
"         @-$            ,;                      ;%                                                                              ",
"        $*              :=                       =@                                                                             ",
"       %%O              ;*                                                                                                      ",
"      %$                ;%                                                                                                      ",
"    +%O                 -                                                                                                       ",
"   o$                   -                                                                                                       ",
"                        *                                                                                                       ",
"                                                                                                                                ",
"                                                                                                                                ",
"                                                                                                                                ",
"                                                                                                                                ",
"                                                                                                                                ",
"                                       $@                                                                                       ",
"                                       %#                                                                                       ",
"             *                         %@                 @                                                                     ",
"              *%=                      %@                 #                                                                     ",
"     +        ;:,,<<,:;$               %@  %o             #                                                                     ",
"      *        1    =:,,,:%            %o   %%@           #                                                                     ",
"      ;%       :,         =            %      $%%#                                                         %                    ",
"      ->:>;     4                      %         %===#   #                                               *-                     ",
"       ,: :2443 34                     %+           #-:: ;*                                             --                      ",
"       >43<   6778                    o*##               ; *-                                          >:                       ",
"        33462   4886                  O% #$              ;   ,>                                       >;                    o   ",
"        14 278   6qq08                +%  @$$            :    >22                                    2                     +O   ",
"         66  3wq  w  0q5              @$   +$%@          =      2433                                4                     #+    ",
"         273   7rwww   q9             #%     *==#       >         37766                           23                     %      ",
"          08     tyt    68            #$       -:;      ,            68886                      37                      %       ",
"           w      qyt                 $#         ->:    2               48ww0                 683                     %*        ",
"           rt      yuy                $O           :,> >>                   qrwwq7          5w0                      ;$         ",
"            y      wiuy               $              ;-2>:                     wyttytw     rw                      *:*          ",
"            yy      utuy              $                2 2,                      qqqrtyyyuy8                      >:            ",
"             i      pp yt             %               ;>  67                          qtt9qryywq7                1-             ",
"             ir     ta  t8           O*@              2    3885                       ww        89qqq08765343<,23:              ",
"             wp      p   t           @%*              2      7qw0                    yt                   2322432               ",
"              ay     it  8           #%@-            ;2        7wwrq                it                      44  <               ",
"              ta     yu              #* #-*          <2           wtyyyt           aayy                   363   ,;              ",
"               ap     i              #*   ;;*        2               wyyiipiipipaaaaytapar               771     2              ",
"               ua     u              $*    *:>:     ;3                   qtyipaaasp  at uaaut          7q4       2              ",
"                iy    uq             #%      %,<<>  1<                         yay    at   yuiiyq    8w7         ;2             ",
"                uu    yr             %%        ;<22<3:                        up       ay      qrttteew5          2;            ",
"                0uq   wt             #%           -22                        iui        ai        ee5 75           2            ",
"                 yy    r             %$            22                 9tt  wiy a         yir    re     w5          -<           ",
"                 8t    w             %#           :2;232223345578qwrtytr  tuw  i          quyyyr       383          ;,          ",
"                  wq   q4            *$           1<   <2457788887       yy    i           wyytq        572          ;:         ",
"                  7q   85            *%          -2                    8yw     ur        rut  qr         374           $        ",
"                   q7  77            $%%         >>                  8rw       yy      ttt     r7          66                   ",
"                   37  35            $ $=       *,                  ww9        qy   qyy        8w           143;           $-*  ",
"                    7  ,4            $  +==     ::                7qq           yqwrq           wq            <32>       =;-    ",
"                    23  3            $    %--@ ->             <779q8            wt8              qq             -<,:* =;;% $    ",
"                     4  2            %      @=;;:>,<<<<223456777882          7wq7q77              7071             :,:;    +@   ",
"                     1- <            %        -:=:>,<<2223331<33<          6786  7q8                7865,       ;>,:%;      %   ",
"                     :> ,            %       $-             >21         4664      q9q                 <6541; >11>%    ;     o#  ",
"                      , >            %      +=#           ;11        2443          qw7                  ,2332<         *@    +# ",
"                      ; :            %      *%          *>-       1122              8q4               3332: -;*         *%    o@",
"                      ==-            %     %%         *-*      :><1>                 787          3544<       ;;%         $#o  o",
"                       ==            %    $%         %*      :,,:                      775   356532            =;-         O@+  ",
"                       #*            %   #%       +*%     %::=                          566653<                  %=*+        +##",
"                        %           o%  O#o     #%+   #$%$                       >3455653<,2<>                     #**$+       +",
"                        +           +# o#+   o@+  o#%#                     >12333433<        >,:                      O$%%o     ",
"                                    #+o@   O+Oo++@O               *-:,<2<211>:                  -:;-                      +@$@o "
};
