/* XPM */
static char *out[] = {
/* columns rows colors chars-per-pixel */
"32 64 48 1 ",
"  c #160E07",
". c #170F08",
"X c #181007",
"o c #171008",
"O c #1C130A",
"+ c #21160D",
"@ c #25190F",
"# c #281B0F",
"$ c #261B10",
"% c #2B1D12",
"& c #2E2113",
"* c #332415",
"= c #382717",
"- c #372817",
"; c #3A2817",
": c #342619",
"> c #3C2A19",
", c #412E1B",
"< c #46311D",
"1 c #4A331E",
"2 c #4D3620",
"3 c #4F3921",
"4 c #543B23",
"5 c #593F25",
"6 c #5D4127",
"7 c #5F4328",
"8 c #604327",
"9 c #634529",
"0 c #66482B",
"q c #6A4B2D",
"w c #6F4E30",
"e c #714F30",
"r c #755332",
"t c #7A5635",
"y c #7C5836",
"u c #7E5A38",
"i c #825D3A",
"p c #86613D",
"a c #8A633E",
"s c #8E6641",
"d c #8F6843",
"f c #936B45",
"g c #966E48",
"h c #986F4A",
"j c #9B724C",
"k c #9F7750",
"l c #A07750",
"z c #A37A53",
/* pixels */
"<2<>:*%%%*5dw>>=%%:<rsr>&&,er5,:",
">,=&&%$$*=qs8,=%%%>2shi,&#=qr5>*",
"=>&&&@+#*<ii4,&$$%>2ski,&@%5y9=&",
"****%O@@>2ay2>*$+%=2sji,*@$2r8=&",
"*=**@O%$=4si4>&@+%:4dli1*@#,e5=&",
"&>>%@%&%,7fa5>&@+%>9fla3=$+,r5,&",
"&>:$$&&&2qdu4,*@O%>0fja4=##,e7,&",
"&>*O$&&*4qsr4>&$O%,effi5=%#;q8<%",
"**&%&=%*4raq4,&@+%,rhat4*%+*7q2*",
"&:&*==%:4ra02>*+O$>tfir4*@+&404=",
"*&&*>:%>4ei4,>%XX$>tfyq2*$+*254,",
"=%*:>*%>30r2>>%XO$=wae7,=$+&254,",
"=%&>,*%,18q1>>$OO$>qi082>%+*254,",
"=%*<,%*<28q1>>@+O@=eyq03=%#*243,",
"-*<4>%%,4801,=@#+@=qtq01**%%<52>",
"**54>**,489<,*@%@+=0ur6=%**%>5,>",
"-<q4>&&>2851>#@##@*0re3*$,,%*2,*",
";6t4*&&*<55,*+#*#@*8rq,$*2,**1>*",
"<yu4-&**,54<*@%*#+*4e6*#>4,**,*=",
"5pr<***&>41,%@&>*+%1q1%*252=%>*>",
"0i9=&*>%*22*@#*5,+#,q,#2qw3,&*-,",
"7t5*&;,&#<1*O@1y8#+,0=*5iy4,&*-,",
"5q1**>1*#*>@+*ta9&+,4%*0as5>*&*<",
"76>*%1t,*##O@>aa6&+,,#,ihs5>*&*<",
"51=&&9jq=*O+#5ha4*#;-#5ala5,*%*2",
"2>:&*rzr>;++#5ji2-+*%%0hla4,:%><",
"<>%&>sjr<>#@*5gt2-+##>rlji3,%&=>",
">&&:5jzi1>##%4sr1,++#4izf92=%*=*",
">&&=0hjt,>#@&1ir2>+O-qflt21*%=,*",
":&&>whsq>*##&<te5&O+4ijhq4<%#14*",
"*&&>tgp9,*@##,952#O&qfla85-#%qe*",
"&&=2shi4>*#%%=1<-+X,yhjy54*#,ar%",
"&%*5hs0,*%&%$#>,*++4ifp054&&2sr&",
"%%=8st4>&%%*%+**#O*qparq61%&6ft%",
"&$=5u71*&%&*%+%*#O>tau095>$,yji,",
">$*3r2>*$%;>*$@*@@1ypr664*$,sku7",
",%*4q,*%@>1>=$+$@&4yiq55<%%<thq4",
">*&46=*#*9q<>*OO+*9ii055>#%1rfq1",
",&&4,*%@2af5,*OXO*0ai955=%%1tfy1",
">$*,*&#*tlh9,=$ X*qyr551*%%1ufy2",
">$*=&%$4hzh7,=$.O=qiq45>*%*1ti04",
",$%*&%%0jzd5>*$.O=qpr44;$@*>qt05",
",$$&%#>wjzp5>*$X+>qy05<&@%*,0yq5",
"<@@%#%1yzjt4,*%OO,0r551%%%*18t04",
">%@#+*5fzfe1;*@OO<qw55>&$$*,5e0,",
">&O++1tzzfe,;*@o+>0q44>&%@%;4q8=",
">&+X&0izjs0,>*@o@;q954*%*@$*<90=",
"*&OO,qalgi5,;*Oo@>q944*%=*$%,48>",
"*&O%4rjzhu2,=&OO@,q954=%>,@%>14,",
"*%%>7ilzsw1,=%X+%<r653*%34&#*,,>",
"*$*20ajjiq1>*$.O&2q551%#90-#%*>=",
"&$*4rhksr0,**+XX&1955>&&6q<%$***",
"%%,5uhji05>*%$OO*<554>&*ei5-##**",
"%*25ijhq42=%$$++*1411*&:rfe,&++*",
"*>46pza42,*%$$$$&111;*&%0hi3-#O#",
":>47fjq<1=%$+%%+&14>&%%%<ai8>&++",
"*15qhi211*%%$*%@&22&%%&%;raq1*$+",
";15ts0,1>%%@%*%@%2>$%*=&*0ft5>%+",
",15iu2<1**$#=*&%%>:%%>>&*5pi6<%$",
"<46i0,2>%%%*1>&%%*&&:>>**1tpq1*&",
"<58e31<*&%%>5;*%%%%&=,,*&,0ar1*=",
"149051*&%#*60,**&%&=,>>;&,4ir1*=",
"11561*&&%$>ur,**&%#>34,-*;4te2>=",
"1331:&&&%&2sq>*,*&=,0r9-*-1rw42:"
};
