/* XPM */
static char *out[] = {
/* columns rows colors chars-per-pixel */
"64 64 82 1 ",
"  c #0A0B0E",
". c #0D0F11",
"X c #0F1013",
"o c #111216",
"O c #141619",
"+ c #17191C",
"@ c #191A1E",
"# c #1B1D21",
"$ c #1E2125",
"% c #212327",
"& c #22252A",
"* c #26292E",
"= c #282A2F",
"- c #262A30",
"; c #2A2D33",
": c #2D3136",
"> c #2F3239",
", c #31353C",
"< c #35383E",
"1 c #333740",
"2 c #363A42",
"3 c #3A3D45",
"4 c #3B3F48",
"5 c #3D4047",
"6 c #3D414B",
"7 c #3F4450",
"8 c #41454D",
"9 c #45484F",
"0 c #414652",
"q c #464A53",
"w c #494C54",
"e c #474D58",
"r c #494E59",
"t c #4C5057",
"y c #4B515B",
"u c #51555E",
"i c #54585F",
"p c #4F5560",
"a c #515661",
"s c #535965",
"d c #595D66",
"f c #575C68",
"g c #595E69",
"h c #5C6067",
"j c #5D636E",
"k c #5F6470",
"l c #62666D",
"z c #616671",
"x c #666B75",
"c c #696D76",
"v c #696E78",
"b c #6D727B",
"n c #71757E",
"m c #74787F",
"M c #737780",
"N c #757A82",
"B c #797E85",
"V c #7B7F88",
"C c #7D8087",
"Z c #7D8189",
"A c #81858C",
"S c #85888F",
"D c #888A8F",
"F c #868A91",
"G c #8A8D93",
"H c #8E9196",
"J c #8E9299",
"K c #919397",
"L c #92959B",
"P c #95989E",
"I c #999B9F",
"U c #969AA1",
"Y c #9B9DA2",
"T c #9EA0A5",
"R c #9EA2A9",
"E c #A1A3A6",
"W c #A3A5AA",
"Q c #A7A8AC",
"! c #AAABAD",
"~ c #ADAEB0",
"^ c #AFB0B2",
"/ c #B1B1B3",
/* pixels */
"QQWWQWWQQWWWWWWWWWETTWWWQWWWWWEEWWWWWWWQQWQWWWWWWWWRRRRWRWWWWWQQ",
"W^^~!!!QQQWWWWEWWEEGbJY^~QWWWWWWWWWQWWELZLY~!WETTETTTTTTTTTTYGMU",
"TERILLLJHGGGGGGGGHSzybJWYKGGGGGJGGHGHHFnucGEUHFFSFSAZSFZSFSFAz4s",
"UGFNMbbbbbvbvcbcbbky3dZKAbzxxzxxxxxxxxjr4aBHZxhjhhgdggjghhjhg7-3",
"USVxjjgkjjjjjkkjjkg0,dVAngssssssssssssa02unAvsyryyyyryeryyyre3$;",
"PANxjjkjjjjjjjjkkjg02imAngssssssssssssu02yvVzpyrryyryypryryye6&*",
"JZNzkkjkjjkjkjkjjkdq,ubZbgssssssssssssp8<wjnkarpyryyryryyyyre6&%",
"LVnxkjkjjkjjjkjkjjf8:uxNvgssssssssssssp5:wsxgprryyyyyyyyyryye5&#",
"UVNzkjjjkjjjjkjkjks6;uzmxgssssssssssssp4*0azgprpyyyyyrryyyyye2$$",
"UVNxkkjjjkjkkjkjkjs5=axnvgssssssssssssp2&rdzgprryyyyyyyyyyyrq1#$",
"UBNxgzjjkjjkkjjjlja2*gcbzsssssssssssssr1%ugzgayrryryyyyyryyye>#-",
"Uxgayauuppppppppuyq>%lxye00qqqqqeqeewq0;@ugarqq0qqqeeeereeeq7:O,",
"Yr41>,>,,,,,11>1,:-%#lz1-&&*----*---;-*#ous21:;>:111,11111,>;$X5",
"Wz3*%$@@@#@#####@#@%2xJ0&#+oooooOoOOOOo..lM##oO+OOOO@@@@@@@OOXXq",
"QUZczzllllggdggjlzlxvAYUZbvxxlxzjggggglllNLSy42<:*$$$*--=*=:>59b",
"QEUGSAAAFKJJJJJJKJJGJUYYULULJLKJLJKJGJGKKLYYJFAVZNNMbnbbbbbbmNZF",
"UUUIYIILNxURTWEYYYIIIIYYUKnNYREERRTTTTRRERTRTIULJPUPPTTYYITTPTYY",
"BAAVCAABy4ZLUIGAAAAAACCCVMr6SY/~!!WWTWTTERTTTRRRUSZUEWTLKKHHHHHH",
"ggzjgzla2-xSSNlsiaaaaaiise1>xEQULHHDDDFSDSSDDGJGZspZPLZbccxccccc",
"gssssssr,$xVBlr09000900074:;jGHVbcxzzzkkkkkkzkkks62xFZxhasssssss",
"sssfsssr,&znMjrq0000000006;-dBNlssssssssssssssfsr>>zZCksssssssss",
"fssssssy>&lbbse70000000004;&sbbjssssssssssssssssr1,lCmjsssssssss",
"sssssssr>&lxxaq70000000004*%gcbjssssssssshssssssr1>lNmjsssssssss",
"sssssssr,$ljjae70000000002*#dxvgssssssssssssssssr>>knbjsssssssss",
"fsssssse>$zkjaqq0000000003&#lzvjssssssssssssfssse,:kbvjsssssssss",
"sssfsssq;$xxhaq70000000003&#lxvjsssssssssssssssse:;kvvjsspssssss",
"fsssssaq;$xbjpe70700000041##lxvjssssssssfsshshss7*-xvvjpssssssss",
"ssssssa8&#xMy766667744444-o#xjjayypypppsyyeye776:@$xkvjsssssssss",
"yrryrrq,#$bZ>:--=;;;;-=*##.$cu02112222325,>>;=*$+X:bshsyppshpssp",
">:;>:;-#o;nP-OoXooOooOOOooowBv2*$@@@###$@@+OOOoX@:hZj76566777777",
"###@###@%iZUUj6,*#$*12230rgnGUVd86521;$$$:6euhjkxbZPN7>$$$$$*$$-",
"raayaadhlnJRYUFZZBMMvMnnMMALYTKVmbbbMNNNnmCZZSJJLLTRTCh751;;;;--",
"TGASSSSGKIEEETLFPUULYYIJHKLLLLLJLLILGzhJPUTRW!!W!W!!QYGZMvxxxxlc",
"QW!WETUUIPPPPLLNsLTUIGCMnnnbbbbNCCZZCh4MU!^~!WETTIITYYYYUUILAcAK",
"ETULSCVNNnbbnNns6xLHAcgsaaaapppsafhhf0:yHWWUHFSZZZCZZFFGHHKLDxyL",
"YHAvljjgdfffggf0:eAAbfyyyyyyyyepyyrrr6-6ZPLZnbbxxccvxMMMMNNBbu,B",
"USMjssssssssssp0-8CCbayyyyyypeeeeyyrr6;,NJGNvvxvvxvxvvxvxvxvlq;x",
"JZbgssssssssssp6-5nNvsryyyryeppeyyyyr6->bGZMkxvxvvxxvvvxxxvvkq=h",
"FVcgssssssssssa6*3bmxsyyyryyeepeyyyyr6-;vFZMvvvxxvxvvvxxvxxvlq=d",
"Abxgssssssssssp4$2xbxseyyyyrpeepeyyyr6*-vZZMvvxvvxxvxvxvxvvxj9=d",
"Fbxgpsssssssssp2#5bcxayyyyrrrpyeyyeye5$-vZZNxvxxzMvxxvxcxvxvkq-g",
"Gbxgssssssssssy1@8Mxzayyyrprreepyyyye5$;bZZMvxvxxxxvvxccxxxvk0*j",
"Lbvgssssssssssy1@yBczsyyprrppereyeyee5$;bFZNvvxcxMxxvxvcvvxxj9*l",
"Uxjpppsssssssaq>OuAgaqqrryyyrppeyyyyq,@=nZZMxcxcxkvvxvxxvxvxj9*l",
"Py6366770qq805,%ojG62>,1355665666652>$o:Mcxjhjjkkzxxlclllxlli3&l",
"R5-$#$$&****&$@oojJ4#O+@#$&$&&&$$$$$#O 5Cyq65599eyrpuuuuyww93=%c",
"WJd3>-*$OoooO#*<ynUUc9,%@oXoXXXXoXooO$>xZb5-$&==;;;>::;:,,>::=,c",
"WUFVnbxxclxllxcnCHYRLGAVbcxlxzxzxkzxxvmZUTZxxhiuw84,==>89wwtuilA",
"JKHHHHDj2VGJLKLLURTWTTLHGZGGJJPJJHHHHJUYTTJGZGZZABNnbbbxxxxxcbxa",
"ZAAAAABd2aJ!~WEYUTTPITTTTTPSMPT^^WWWWRRREWWRQQQRWEPxNGFLLKDDDSSS",
"aaiasay4*5ATIGABCNNCCCZZZDZkyNYWTKGFFGZJFGGGJJGJLLDllSLLDmcccxxl",
"00000001&3NHAvjjfjjfhjjjkkhe5hGHAnbbcxkMvbvvvMMMnnzqwbACluryerrr",
"00000071%,bANjssssssssssssy61aZDmxjjkjkkjjkjkjkjgzd44xbva0000000",
"0000007,$:xVnjssssssspssssp6,yNSmzjkjjjkjkkkkjjkjks64lxxy0000000",
"0000000>@;xmbjssssssssssssp6>ymZMxkjjjkjjjjkjkjjjjs43lllyq000000",
"0000006>@>vnvgssssssssssssy5:ybZbkjkjjjjjjjjjjjjkjs4<llgy0000000",
"0000774:O<nnbjssssssssssssy2=yvCMkjkjjjjjkjjkjkkkji3<ljjy0000000",
"0000077:O>Bbchssssssssssssy,&svCbkkkjjjjkjkkjkjkkla3<xhje0000000",
"0000006;o>Cfsyyyppppspppsue>$hbCMkkkjjjkjjjjkjjjjju<<cjgr7000000",
"0000004-o3Cq3,121526656655,$@jzckgggjjgjhjjjjjjjkgu,:csde0000000",
"442222>#.qSz#++#$$$$+$$$$#OOolue88897qqqwwwtyttuyy5;;c8842436644",
"$&&$&%#X.hGUbe3:$$$$$$+@@$*$6bl=&&&*--$*===:;:>>,;*#;b;*&%*&&&&&",
"XXoX... $xJRUJSZCMMbNnbcbbbMCFPMw<:%&$$*$$%##@@#@@O#9Bco..XXooXo",
"q806859icARWWWERTTTUTTUTUUUTTRWTLDZCmnnnnnbbcbccxlxcBLYAdw998653"
};
