/* XPM */
static char *out[] = {
/* columns rows colors chars-per-pixel */
"16 32 58 1 ",
"  c None",
". c #313537",
"X c #303637",
"o c #313639",
"O c #313838",
"+ c #313839",
"@ c #303A3D",
"# c #333A3C",
"$ c #323A3D",
"% c #313B3F",
"& c #323C3D",
"* c #343E3F",
"= c #313D40",
"- c #333D40",
"; c #313E43",
": c #343F43",
"> c #324144",
", c #354144",
"< c #384648",
"1 c #38454A",
"2 c #38484B",
"3 c #97ACB2",
"4 c #97AEB2",
"5 c #9CAFB4",
"6 c #9CB0B4",
"7 c #9DB0B5",
"8 c #9DB1B5",
"9 c #A3B3B6",
"0 c #A2B4B7",
"q c #A1B4B8",
"w c #A7B7BA",
"e c #A9B7BA",
"r c #A7B8BC",
"t c #A7B9BC",
"y c #ABBABE",
"u c #ADB9BD",
"i c #ADBABD",
"p c #ABBCBE",
"a c #B1BCBF",
"s c #AEBEC0",
"d c #B4BEC0",
"f c #B5BEC0",
"g c #B4BFC0",
"h c #B7C0C2",
"j c #B2C0C4",
"k c #B3C0C4",
"l c #B5C2C5",
"z c #B4C1C6",
"x c #B7C3C6",
"c c #B9C1C5",
"v c #BAC1C4",
"b c #BBC2C5",
"n c #BAC3C5",
"m c #BBC3C5",
"M c #B9C4C6",
"N c #BFC4C5",
"B c #BDC4C6",
"V c #BEC5C6",
/* pixels */
"   NmmN      Nn ",
"   BxxV      BM ",
"   bllb      mz ",
"   vkjv      ck ",
"   hssh      hs ",
"   gpyd      fy ",
"   arta      ar ",
"   uq0i      iq ",
"   w85e      e7 ",
"   9449      93 ",
"   6  6      6  ",
"                ",
"                ",
"                ",
"                ",
"                ",
"                ",
"                ",
"                ",
"                ",
"                ",
"                ",
"                ",
" 2       2>     ",
" 1       <;     ",
" ,       ,=     ",
" :       :%     ",
" -       *@     ",
" &       $O     ",
" #       #o     ",
" O       +X     ",
" .       ..     "
};
